<svg><defs><font id="PFDinTextCompPro-BoldItalic" horiz-adv-x="1818"><font-face font-family="PF Din Text Comp Pro" font-weight="700" font-style="italic" panose-1="2 0 8 6 0 0 0 9 0 4" ascent="750" descent="-250" x-height="494" cap-height="696" bbox="-169 -276.003 1760 964" underline-thickness="90" underline-position="-115" slope="-12" unicode-range="U+0020-U+FB05"/><glyph glyph-name="fj" unicode="fj" horiz-adv-x="480" d="M248 495h243.004l-98-528c-11.333-57.333-33-99-65-125s-73.333-39-124-39c-6.667 0-13.834.333-21.501 1s-14.834 1.667-21.501 3l24 128c3.333-.667 8.333-1 15-1 22.667 0 37.667 6.167 45 18.5s13.333 29.5 18 51.5l75 384h-111l-104-543h-134l104 543h-43l21 107h43l13 66c6 31.333 15.667 58 29 80s29.166 39.833 47.499 53.5 38.5 23.667 60.5 30 45 9.5 69 9.5c27.333 0 55.5-3.667 84.5-11s53.167-20.666 72.5-39.999l-68-105c-14.667 11.333-30 18.666-46 21.999s-31.333 5-46 5c-13.333 0-24.5-2.167-33.5-6.5s-16.167-9.5-21.5-15.5-9.333-12.5-12-19.5-4.334-13.167-5.001-18.5z"/><glyph glyph-name="ffj" unicode="ffj" horiz-adv-x="726" d="M494 495l246.004-.003-100-528c-11.333-57.333-33-99-65-125s-73.333-39-124-39c-6.667 0-13.834.333-21.501 1s-14.834 1.667-21.501 3l24 128c3.333-.667 8.333-1 15-1 22.667 0 37.667 6.167 45 18.5s13.333 29.5 18 51.5l75 384h-112l-102-541h-134l102 541h-112l-102-541h-134l102 541h-43l21 107h43l7 37c6 31.333 15.667 58 29 80s29 39.833 47 53.5 38.167 23.667 60.5 30 45.5 9.5 69.5 9.5c15.333 0 32-1.833 50-5.5s35.333-9.5 52-17.5c20.667 18 43.834 31 69.501 39s52.167 12 79.5 12 55.5-3.667 84.5-11 53.167-20.666 72.5-39.999l-67-103c-13.333 10.667-28.333 17.834-45 21.501s-32.334 5.5-47.001 5.5c-13.333 0-24.333-1.833-33-5.5s-15.834-8.5-21.501-14.5-9.834-12.667-12.501-20-4.667-14.666-6-21.999zm-170.996 83.997c-13.333 0-24.332-2.332-32.999-6.999s-15.667-10.167-21-16.5-9.333-13.166-12-20.499-4.334-13.666-5.001-18.999l-4-21h112l7 40c.667 3.333 1.667 8.666 3 15.999s3.333 13.666 6 18.999c-10 3.333-19.167 5.666-27.5 6.999s-16.833 2-25.5 2z"/><glyph glyph-name="ff" unicode="ff" horiz-adv-x="508" d="M248 494l112.001.001 8 43c1.333 4.667 2.5 10.167 3.5 16.5s2.833 12.166 5.5 17.499c-11.333 3.333-21 5.333-29 6s-16.333 1-25 1c-13.333 0-24.333-2.167-33-6.5s-15.667-9.833-21-16.5-9.333-13.5-12-20.5-4.334-13.167-5.001-18.5zm316.001.001l-21.002-106h-70l-105-541h-134l105 541h-112l-105-541h-134l105 541h-43l21 106h43l7 38c6 31.333 15.667 58 29 80s29 39.833 47 53.5 38.167 23.667 60.5 30 45.5 9.5 69.5 9.5c13.333 0 29.333-1.333 48-4s35-6.667 49-12c28.667 28.667 72.334 43 131.001 43 8.667 0 18.167-.5 28.5-1.5s19.833-2.5 28.5-4.5l-24-124c-4.667 1.333-9.667 2.333-15 3s-10 1-14 1c-19.333 0-32.166-3.667-38.499-11s-10.5-17.333-12.5-30l-13-71h69z"/><glyph glyph-name="fi" unicode="fi" horiz-adv-x="480" d="M264 0l75.002 388h-112l-105-541h-134l105 541h-43l21 106h43l13 66c6 31.333 15.667 58 29 80s29.166 39.833 47.499 53.5 38.5 23.667 60.5 30 45 9.5 69 9.5c27.333 0 55.5-3.667 84.5-11s53.167-20.666 72.5-39.999l-68-105c-14.667 11.333-30 18.666-46 21.999s-31.333 5-46 5c-13.333 0-24.5-2.167-33.5-6.5s-16.167-9.5-21.5-15.5-9.333-12.5-12-19.5-4.334-13.167-5.001-18.5l-10-50h246L398 0H264z"/><glyph glyph-name="fl" unicode="fl" horiz-adv-x="493" d="M431 164c-.667-3.333-1.002-6.169-1.002-8.502v-6.5c0-11.333 3-19 9-23s15.667-6 29-6l-24-125a50.84 50.84 0 0 0-9.999-1h-10c-46.667 0-80.667 10.833-102 32.5s-32 49.834-32 84.501c0 7.333.5 14.833 1.5 22.5s2.167 15.834 3.5 24.501l85 439c-13.333 3.333-24.166 5.333-32.499 6s-16.833 1-25.5 1c-12 0-21.833-2.167-29.5-6.5s-14-9.5-19-15.5-8.667-12.5-11-19.5-3.833-13.167-4.5-18.5l-10-50h72l-21-106h-72L122-155H-12L93 388H50l21 106h42l13 66c12.667 62.667 36.667 107.167 72 133.5S275 733 323 733c5.333 0 14.833-.333 28.5-1s30-2.5 49-5.5 39.833-7.333 62.5-13 46-13.5 70-23.5z"/><glyph glyph-name="ffi" unicode="ffi" horiz-adv-x="726" d="M323 579c-13.333 0-24.332-2.332-32.999-6.999s-15.667-10.167-21-16.5-9.333-13.166-12-20.499-4.334-13.666-5.001-18.999l-4-21h112l7 40c.667 3.333 1.667 8.666 3 15.999s3.333 13.666 6 18.999c-10 3.333-19.167 5.666-27.5 6.999s-16.833 2-25.5 2zm255.001 154.001c27.333 0 55.502-3.67 84.502-11.003s53.167-20.666 72.5-39.999l-67-103c-13.333 10.667-28.333 17.834-45 21.501s-32.334 5.5-47.001 5.5c-13.333 0-24.333-1.833-33-5.5s-15.834-8.5-21.501-14.5-9.834-12.667-12.501-20-4.667-14.666-6-21.999l-9-49h246l-96-495H510l75 388H473l-104-541H235l104 541H227l-104-541H-11l104 541H50l21 107h43l7 37c6 31.333 15.667 58 29 80s29 39.833 47 53.5 38.167 23.667 60.5 30 45.5 9.5 69.5 9.5c15.333 0 32-1.833 50-5.5s35.333-9.5 52-17.5c20.667 18 43.834 31 69.501 39s52.167 12 79.5 12z"/><glyph glyph-name="ffl" unicode="ffl" horiz-adv-x="739" d="M327 705c15.333 0 32-1.836 50-5.503s35.333-9.5 52-17.5c20.667 18 43.834 31 69.501 39s52.167 12 79.5 12c7.333 0 17.666-.5 30.999-1.5s28.833-3 46.5-6 37-7.333 58-13 42.833-13.167 65.5-22.5l-102-526c-.667-3.333-1-6.166-1-8.499v-6.5c0-11.333 3-19 9-23s15.667-6 29-6l-24-125a50.84 50.84 0 0 0-9.999-1h-10c-46.667 0-80.667 10.833-102 32.5s-32 49.834-32 84.501c0 7.333.5 14.833 1.5 22.5s2.167 15.834 3.5 24.501l85 438c-20 6.667-38.667 10-56 10-12 0-22-2.167-30-6.5s-14.5-9.5-19.5-15.5-8.833-12.5-11.5-19.5-4.334-13.167-5.001-18.5l-10-51h77l-21-107h-77L370-153H236l103 541H227L124-153H-10L93 388H50l21 107h43l7 37c6 31.333 15.667 58 29 80s29 39.833 47 53.5 38.167 23.667 60.5 30S303 705 327 705zm-4-126.003c-13.333 0-24.332-2.332-32.999-6.999s-15.667-10.167-21-16.5-9.333-13.166-12-20.499S252.667 521.333 252 516l-4-21h112l7 40c.667 3.333 1.667 8.666 3 15.999s3.333 13.666 6 18.999c-10 3.333-19.167 5.666-27.5 6.999s-16.833 2-25.5 2z"/><glyph glyph-name="ft" unicode="ft" horiz-adv-x="517" d="M128 584c4 22 10.334 41.999 19.001 59.999s20.334 33.5 35.001 46.5 32.334 23.167 53.001 30.5 45 11 73 11c8.667 0 18.167-.5 28.5-1.5s19.833-2.5 28.5-4.5l-24-124c-4.667 1.333-9.667 2.333-15 3s-10 1-14 1c-19.333 0-32.333-4.667-39-14s-10.667-18.333-12-27l-13-71h113l25 131h126l-25-130h55l-21-107h-55l-42-218c-1.333-6-2.333-11.667-3-17s0-10.166 2-14.499 5.667-7.833 11-10.5 13.333-4 24-4h12l-24-124h-55c-23.333 0-42.333 3.667-57 11s-25.834 17-33.501 29-12.334 25.5-14.001 40.5-.834 30.167 2.499 45.5l51 262H227L123-153H-11L93 388H50l21 106h40z"/><glyph glyph-name=".notdef" horiz-adv-x="437" d="M0 698h437V0H0v698zM335 68L219 284 101 68h234zm0 562H101l118-216zM66 141l113 208L66 556V141zm304 1v414L259 349z"/><glyph glyph-name="space" horiz-adv-x="215"/><glyph glyph-name="exclam" unicode="!" horiz-adv-x="275" d="M193 203H80l86 493h133zM34 0l27 139h128L162 0H34z"/><glyph glyph-name="quotedbl" unicode="&quot;" horiz-adv-x="310" d="M231 477l43 219h93l-43-219h-93zm-140 0l43 219h92l-43-219H91z"/><glyph glyph-name="numbersign" unicode="#" horiz-adv-x="430" d="M22 302h68l20 51 20 51H78l18 95h67l73 196h98l-74-196h70l37 98.5 37 97.5h98l-75-196h54l-18-95h-70l-18.5-51-18.5-51h53l-18-95h-71l-39-103.5L244 0h-97l76 207h-71L77 0h-98l77 207H4zm166 0h70l39 102h-71z"/><glyph glyph-name="dollar" unicode="$" horiz-adv-x="430" d="M169 191c-3.333-11.333-5.001-21.328-5.001-29.995 0-8 1.5-14.833 4.5-20.5s8.833-9.5 17.5-11.5l32 165-4 2c-24 11.333-43.833 22.833-59.5 34.5s-28.167 23.667-37.5 36-15.833 25.166-19.5 38.499-5.5 27.333-5.5 42c0 36 4.333 69.333 13 100s21.5 57.167 38.5 79.5 38.5 40.166 64.5 53.499 56 20.666 90 21.999l13 67h36l-14-68c24-2 44.333-6.833 61-14.5s30.167-17.334 40.5-29.001 17.833-25 22.5-40 7-30.5 7-46.5c0-21.333-3-42.333-9-63l-135-8c1.333 5.333 2.333 10.666 3 15.999s1 10.666 1 15.999c0 7.333-1.167 13.666-3.5 18.999s-6.833 9.333-13.5 12l-27-137c44.667-18.667 76.5-39.167 95.5-61.5s28.5-49.5 28.5-81.5c0-37.333-3.333-73.166-10-107.5s-18-64.5-34-90.5-37.333-47.166-64-63.5-60-25.165-100-26.498l-15-78h-36l15 78C112.666-1.667 78.333 12.5 57 37.5S25 92.667 25 128c0 16 2 33 6 51zm97.999 50.005c0 13.333-5.333 25-16 35l-28-144c8.667 4 15.834 10 21.501 18s10.167 17 13.5 27 5.666 20.5 6.999 31.5 2 21.833 2 32.5zm-36 240c0-6.667 1.167-12.833 3.5-18.5s6.833-11.167 13.5-16.5l23 118c-8-3.333-14.5-8.333-19.5-15s-9-14-12-22-5.167-16.167-6.5-24.5-2-15.5-2-21.5z"/><glyph glyph-name="percent" unicode="%" horiz-adv-x="657" d="M564 312c.667 3.333-.167 7-2.5 11s-6.5 6-12.5 6-10.333-2-13-6-4.334-7.667-5.001-11l-43-214c-.667-3.333.666-6.833 3.999-10.5s8-5.5 14-5.5c4.667 0 8.334 1.833 11.001 5.5S521.333 94.667 522 98zm51.999-220c-6.667-34.667-20.001-59.665-40.001-74.998s-46-23-78-23c-16 0-30.667 2.667-44 8s-24.5 12.666-33.5 21.999-15.5 20.833-19.5 34.5-4.333 29.167-1 46.5l41 213c6 30.667 19.333 54.667 40 72s46.667 26 78 26c32.667 0 58.834-9.833 78.501-29.5s26.167-47.834 19.5-84.501zM219.998 595.002c.667 3.333-.167 7-2.5 11s-6.5 6-12.5 6-10.333-2-13-6-4.334-7.667-5.001-11l-43-214c-.667-3.333.666-6.833 3.999-10.5s8-5.5 14-5.5c4.667 0 8.334 1.833 11.001 5.5s4.334 7.167 5.001 10.5zm51.999-220c-6.667-34.667-20.001-59.665-40.001-74.998s-46-23-78-23c-16 0-30.667 2.667-44 8s-24.5 12.666-33.5 21.999-15.5 20.833-19.5 34.5-4.333 29.167-1 46.5l41 213c6 30.667 19.333 54.667 40 72s46.667 26 78 26c32.667 0 58.834-9.833 78.501-29.5s26.167-47.834 19.5-84.501zM164.996-16.996h-81l456 731h81z"/><glyph glyph-name="ampersand" unicode="&amp;" horiz-adv-x="499" d="M313 701c38.667 0 71.332-8.835 97.999-26.502s45.667-45.5 57-83.5l-108-56c-2.667 16.667-8.667 28.834-18 36.501s-18.666 11.5-27.999 11.5c-8 0-14.833-2-20.5-6s-10.334-9.167-14.001-15.5-6.5-13.166-8.5-20.499-3-14.333-3-21c-.667-4.667.333-15.5 3-32.5s7.667-36.167 15-57.5l60-172c3.333 8.667 7.333 20.334 12 35.001s7.667 27 9 37h115c-6.667-32-17.167-65.167-31.5-99.5s-30.833-64.166-49.5-89.499l52-141h-145l-14 35c-22.667-16-45.167-26.833-67.5-32.5s-44.5-8.5-66.5-8.5c-42 0-74.167 13.167-96.5 39.5s-33.5 61.833-33.5 106.5c0 26.667 3.333 51 10 73s15.834 42.167 27.501 60.5 25.667 35.666 42 51.999 34.5 32.5 54.5 48.5c-9.333 26-16.5 49.667-21.5 71S135 488.667 135 512c0 28.667 4.5 54.5 13.5 77.5S170 632.333 186 649s34.833 29.5 56.5 38.5S287.667 701 313 701zM204.998 264.998c-28-31.333-42-64.666-42-99.999 0-14.667 3.167-26.834 9.5-36.501s15.833-14.5 28.5-14.5c9.333 0 19 1.667 29 5s18.667 8 26 14z"/><glyph glyph-name="quotesingle" unicode="'" horiz-adv-x="200" d="M109 477l43 219h92l-43-219h-92z"/><glyph glyph-name="parenleft" unicode="(" horiz-adv-x="296" d="M372 683c-59.333-81.333-105.5-163.668-138.5-247.001s-49.5-171.333-49.5-264c0-43.333 3.333-85.166 10-125.499S210.667-31.333 224-66l-82-48C118.667-68 99.834-20 85.501 30s-21.5 103-21.5 159c0 50 6.167 99.667 18.5 149S111.667 434.833 133 480.5s45.833 89.167 73.5 130.5 57.167 79 88.5 113z"/><glyph glyph-name="parenright" unicode=")" horiz-adv-x="296" d="M241 724c20-42 36.67-87.334 50.003-136.001s20-101 20-157c0-52-6-102.5-18-151.5s-28.833-96.167-50.5-141.5S195.169 48.833 165.502 6.5 103.335-76 68.002-114l-62 48c26.667 36 51.167 74 73.5 114s41.666 81.167 57.999 123.5S166.667 257 176 301s14 88.667 14 134c0 42.667-3.5 85.167-10.5 127.5S162 645 148 683z"/><glyph glyph-name="asterisk" unicode="*" horiz-adv-x="394" d="M368 404l-81-50-42 105-86-106-61 51 97 98-107 31 44 82 100-45 14 125h89l-36-124 117 44 14-82-123-31z"/><glyph glyph-name="plus" unicode="+" horiz-adv-x="430" d="M275 243L245 92H136l30 151H26l21 111h140l30 151h109l-30-151h140l-21-111H275z"/><glyph glyph-name="comma" unicode="," horiz-adv-x="234" d="M53-153h-76L39-4H10l30 154h136L146-1z"/><glyph glyph-name="hyphen" unicode="-" horiz-adv-x="383" d="M50 216l24 120h296l-24-120H50z"/><glyph glyph-name="period" unicode="." horiz-adv-x="229" d="M7 0l29 150h135L142 0H7z"/><glyph glyph-name="slash" unicode="/" horiz-adv-x="289" d="M52-42H-48l335 767h101z"/><glyph glyph-name="zero" unicode="0" horiz-adv-x="430" d="M300 702c26 0 49.002-4.833 69.002-14.5s36.333-23 49-40 21-37 25-60 3.333-48.167-2-75.5l-75-365c-9.333-50-28.833-88-58.5-114s-67.5-39-113.5-39c-25.333 0-48 4.333-68 13s-36.333 21.167-49 37.5-21.334 36-26.001 59S46.667 152 52 180l69 366c9.333 50 30 88.5 62 115.5S254 702 300 702zm-13.998-133c-10.667 0-18.331-2.832-22.998-8.499s-7.667-12.834-9-21.501l-76-382c-2-9.333-.167-16.666 5.5-21.999s12.167-8 19.5-8c8.667 0 16 2.5 22 7.5s9.667 11.5 11 19.5l32 163.5 21.5 109c5.667 28.333 10.167 50.166 13.5 65.499s5.666 26.5 6.999 33.5 2.166 11 2.499 12 .5 1.833.5 2.5c1.333 10.667-1.167 18.167-7.5 22.5s-12.833 6.5-19.5 6.5z"/><glyph glyph-name="one" unicode="1" horiz-adv-x="430" d="M154 0l104 537-105-71 29 149 120 81h120L287 0H154z"/><glyph glyph-name="two" unicode="2" horiz-adv-x="430" d="M15 0l23.002 120.001 232 317c13.333 17.333 23.166 35.166 29.499 53.499s9.5 34.5 9.5 48.5c0 8.667-2 16.5-6 23.5s-10.667 10.5-20 10.5c-8 0-17.333-5.333-28-16S236.667 524.666 232 491.999l-129 16c5.333 34 14.333 63.333 27 88s27.834 44.834 45.501 60.501 37.334 27.167 59.001 34.5 44.167 11 67.5 11c52 0 89.5-12 112.5-36s34.5-57.333 34.5-100c0-19.333-1.5-37-4.5-53s-7.833-31.5-14.5-46.5-14.834-30.333-24.501-46S384.667 388 372 370L200 131h160L334 0H15z"/><glyph glyph-name="three" unicode="3" horiz-adv-x="430" d="M349 358c10-5.333 17.67-12.001 23.003-20.001s9.333-16.667 12-26 4-19.166 4-29.499-1-20.5-3-30.5l-12-69c-5.333-28.667-13-54.667-23-78s-22.833-43.166-38.5-59.499-34.834-29-57.501-38-49.334-13.5-80.001-13.5c-58.667 0-101.334 16.167-128.001 48.5S13.666 123.667 28.999 189l138 16c-5.333-18-7.833-32.333-7.5-43s2.166-19 5.499-25 7.5-9.833 12.5-11.5 9.5-2.5 13.5-2.5c7.333 0 15 2.833 23 8.5s13.667 17.5 17 35.5l16 83c4 19.333 1.5 33-7.5 41s-20.167 12-33.5 12h-30l22 114h38c13.333 0 25.5 3.667 36.5 11s18.167 19.666 21.5 36.999l13 66c2 9.333 1.167 18.5-2.5 27.5s-12.167 13.5-25.5 13.5c-4.667 0-9.667-.833-15-2.5s-10.5-5.334-15.5-11.001-9.667-13.834-14-24.501-7.5-25-9.5-43l-129 16c9.333 64.667 31.5 113.334 66.5 146.001s77.167 49 126.5 49c32.667 0 59.334-5.167 80-15.5s36.835-23.5 48.502-39.5 19-33.833 22-53.5 3.167-39.167.5-58.5l-5-35c-2.667-12.667-6-25.667-10-39s-9.167-26.166-15.5-38.499-14.333-23.666-24-33.999S364 369.667 350 363z"/><glyph glyph-name="four" unicode="4" horiz-adv-x="430" d="M336 98L317 0H186l19 98H9l21 111 234 487h132L173 226h56l27 136h131l-27-136h39L375 98h-39z"/><glyph glyph-name="five" unicode="5" horiz-adv-x="430" d="M383 183c-4-26-10.335-50.499-19.002-73.499s-20.667-43-36-60-34.166-30.5-56.499-40.5-49.5-15-81.5-15c-28 0-52.333 4.833-73 14.5s-37.334 23.167-50.001 40.5-20.834 38-24.501 62-2.167 50 4.5 78l132 16c-5.333-18-8.166-32.333-8.499-43s.834-18.834 3.501-24.501 6.167-9.334 10.5-11.001 8.5-2.5 12.5-2.5c7.333 0 15 2.667 23 8s13.667 17 17 35l29 149c3.333 18.667-4.334 28-23.001 28-5.333 0-12.666-2.167-21.999-6.5S202.333 323.333 193 308H82l76 388h311l-25-127H259l-24-126 2-1c9.333 8 21 14 35 18s25.667 6 35 6c44.667 0 74-12.667 88-38s17.667-58 11-98z"/><glyph glyph-name="six" unicode="6" horiz-adv-x="430" d="M282 404c10.667 5.333 23.666 8.002 38.999 8.002 8 0 16.667-1.167 26-3.5s17.666-7 24.999-14 13.5-17 18.5-30 7.5-30.167 7.5-51.5c0-16-1.333-32.833-4-50.5s-5.667-34.834-9-51.501c-5.333-24.667-11.833-49.834-19.5-75.501s-18.667-49-33-70-33.333-38.167-57-51.5-54.167-20-91.5-20c-19.333 0-37.5 2.5-54.5 7.5S97.665 14 84.998 24s-22.5 22.667-29.5 38-10.5 33.333-10.5 54c0 8 .833 21 2.5 39s4.834 38.333 9.501 61 10.834 46 18.501 70 17.167 46.333 28.5 67l194 343h147L278 408zm-43.001-94.998c-7.333 0-14.332-2.331-20.999-6.998s-11-11.667-13-21l-25-131c0-1.333-.167-2.333-.5-3s-.5-1.334-.5-2.001c0-7.333 2.833-12.833 8.5-16.5s11.834-5.5 18.501-5.5c7.333 0 14.166 2.333 20.499 7s10.166 11.334 11.499 20.001l25 131c.667 1.333 1 3.666 1 6.999 0 7.333-2.5 12.666-7.5 15.999s-10.833 5-17.5 5z"/><glyph glyph-name="seven" unicode="7" horiz-adv-x="430" d="M170 0H35l275 569h-63l-13-67H112l38 194h327l-23-116z"/><glyph glyph-name="eight" unicode="8" horiz-adv-x="430" d="M357 362c12-6.667 20.331-16.161 24.998-28.494s7.167-26 7.5-41-1-30.333-4-46l-8.5-43.5c-4-20.667-8-38.667-12-54s-8.333-29-13-41-9.834-22.833-15.501-32.5-12.167-18.5-19.5-26.5c-19.333-22.667-40.333-37.5-63-44.5s-47-10.5-73-10.5-51.667 5.5-77 16.5-43 27.833-53 50.5c-8 16.667-11.167 37.167-9.5 61.5s5.167 51.166 10.5 80.499l9 42c3.333 15.333 8 30.166 14 44.499s14 28 24 41 23 23.5 39 31.5v6c-11.333 6.667-19.5 15.167-24.5 25.5s-8.167 21.666-9.5 33.999-1.166 25.166.501 38.499 3.834 26.333 6.501 39c5.333 27.333 13 54.166 23 80.499s24 48.833 42 67.5c18 18 38.5 30.667 61.5 38s46.5 11 70.5 11c23.333 0 46.333-4 69-12s39.334-21.667 50.001-41c10.667-17.333 16.5-36.5 17.5-57.5s-1.833-49.833-8.5-86.5c-2.667-13.333-5.667-26.833-9-40.5s-8-26.834-14-39.501-13.667-24-23-34-21-18-35-24zm-47.002 185.006c1.333 7.333-.167 13.666-4.5 18.999s-10.5 8-18.5 8c-10 0-18-2.667-24-8s-9.667-11.666-11-18.999l-20-106c-1.333-7.333.5-13.666 5.5-18.999s11.167-8 18.5-8c8 0 15.333 2.667 22 8s10.667 11.666 12 18.999zm-50-259c1.333 7.333-.498 13.666-5.498 18.999s-11.5 8-19.5 8c-9.333 0-16.833-2.667-22.5-8s-9.167-11.666-10.5-18.999l-27-140c-1.333-7.333.667-13.5 6-18.5s11.666-7.5 18.999-7.5c8 0 15.167 2.5 21.5 7.5s10.166 11.167 11.499 18.5z"/><glyph glyph-name="nine" unicode="9" horiz-adv-x="430" d="M208 292c-10.667-5.333-23.664-8.002-38.997-8.002-8 0-16.5 1.167-25.5 3.5s-17.333 7-25 14-13.834 17-18.501 30-7 30.167-7 51.5c0 16 1.167 32.833 3.5 50.5s5.166 34.834 8.499 51.501c5.333 24.667 11.833 49.834 19.5 75.501s18.834 49 33.5 70 33.668 38.167 57 51.5 53.667 20 91 20c19.333 0 37.5-2.5 54.5-7.5s31.667-12.5 44-22.5 22.166-22.667 29.499-38 11-33.333 11-54c0-8-1-21-3-39s-5.167-38.333-9.5-61-10.333-46-18-70-17.167-46.333-28.5-67L192 0H45l167 288zm76.003 280.998c-8.667 0-15.833-2.668-21.5-8.001s-9.167-12.333-10.5-21l-25-129c0-1.333-.167-2.5-.5-3.5s-.5-2.167-.5-3.5c0-7.333 2.5-12.666 7.5-15.999s10.833-5 17.5-5c7.333 0 14.333 2.333 21 7s11 11.667 13 21l24 126c2 9.333.667 17-4 23s-11.667 9-21 9z"/><glyph glyph-name="colon" unicode=":" horiz-adv-x="229" d="M57 259l29 150h135l-29-150H57zM7 0l29 150h135L142 0H7z"/><glyph glyph-name="semicolon" unicode=";" horiz-adv-x="234" d="M53-153h-76L39-4H10l30 154h136L146-1zm8 412l29 150h135l-29-150H61z"/><glyph glyph-name="less" unicode="&lt;" horiz-adv-x="430" d="M379 66L28 256l18 91 428 191-30-139-267-105 224-103z"/><glyph glyph-name="equal" unicode="=" horiz-adv-x="430" d="M44 335l21 111h389l-21-111H44zM9 156l21 111h389l-21-111H9z"/><glyph glyph-name="greater" unicode="&gt;" horiz-adv-x="430" d="M21 209l264 103L58 417l26 121 354-191-18-91L-5 66z"/><glyph glyph-name="question" unicode="?" horiz-adv-x="394" d="M265 702c50.667 0 90.834-12.832 120.501-38.499s44.5-62.5 44.5-110.5c0-22-1.667-41.5-5-58.5s-7.833-32.167-13.5-45.5-12-25.5-19-36.5-14.167-21.167-21.5-30.5l-48.5-63.5c-11.667-15.667-20.5-28.5-26.5-38.5s-10.333-18.667-13-26-5.334-16-8.001-26l-9-37H133l12 61c3.333 18.667 9.666 36.667 18.999 54s18.666 32.666 27.999 45.999c18.667 26 34.167 46.833 46.5 62.5s22 29.167 29 40.5 11.833 22.333 14.5 33 4 23.667 4 39c0 10-3 19.167-9 27.5s-15.667 12.5-29 12.5c-5.333 0-11-1-17-3s-11.667-5.667-17-11-10.166-12.833-14.499-22.5-7.166-22.167-8.499-37.5L64 506c8.667 70.667 30 121 64 151s79.667 45 137 45zM99 .001l27 139h128l-27-139H99z"/><glyph glyph-name="at" unicode="@" horiz-adv-x="811" d="M403 231c5.333 0 10.999 2.501 16.999 7.501s11 16.833 15 35.5l23 115c.667 3.333 1.334 7.166 2.001 11.499s1 8.5 1 12.5c0 6-1.333 11.333-4 16s-8.334 7-17.001 7c-5.333 0-10.166-1.833-14.499-5.5s-7.166-7.834-8.499-12.501c-2-3.333-4.667-12-8-26s-6.833-30-10.5-48-6.834-36-9.501-54-4-32.333-4-43c0-9.333 6-14.666 18-15.999zm143.999 39.001c-2-10.667-2.33-19.338-.996-26.005s3.5-11.667 6.5-15 6.5-5.666 10.5-6.999 7.667-2 11-2c16.667 0 32.5 6 47.5 18s28.167 28.333 39.5 49 20.166 44.834 26.499 72.501 9.5 57.167 9.5 88.5c0 55.333-16.167 99.833-48.5 133.5s-81.833 50.5-148.5 50.5c-54 0-101.5-11.167-142.5-33.5s-75.167-51.666-102.5-87.999-48-77.166-62-122.499-21-91-21-137c0-72 17.5-126.5 52.5-163.5S310.669 32 378.002 32c29.333 0 57.5 3.333 84.5 10s58.167 18.667 93.5 36l23-83c-36-15.333-70.333-27.833-103-37.5S409.668-57 375-57c-45.333 0-86.333 5.667-123 17s-68 28.833-94 52.5-46 53.834-60 90.501-21 80.667-21 132c0 66 10 128.5 30 187.5s48.5 110.667 85.5 155 82.167 79.5 135.5 105.5 113 39 179 39c48.667 0 91.167-6.833 127.5-20.5s66.5-32.5 90.5-56.5 42-52.333 54-85 18-68 18-106c0-59.333-7.167-110-21.5-152s-32.833-76.5-55.5-103.5-47.834-46.667-75.501-59-54.834-18.5-81.501-18.5c-23.333 0-44.666 5.5-64 16.5s-32.332 26.167-39 45.5l-4 1c-15.332-22-32.332-37.167-51-45.5s-34.666-12.5-48-12.5c-30 0-52.5 7-67.5 21s-22.5 31.667-22.5 53c0 18 1.5 40 4.5 66s8.168 56.333 15.5 91c6 31.333 12.5 58.666 19.5 82s15.334 42.832 25 58.5 21 27.333 34 35 29.168 11.5 48.5 11.5c9.334 0 20.167-2.333 32.5-7s22.833-14 31.5-28l3 1 8 29h112z"/><glyph glyph-name="A" unicode="A" horiz-adv-x="449" d="M263 136H161L114 0H-31l267 696h166L400 0H258zm-23 239l-35-111h63l8 111 13 141h-6z"/><glyph glyph-name="B" unicode="B" horiz-adv-x="446" d="M257 566l-26.999-138.002h17c24 0 42.5 8.333 55.5 25s19.5 39.334 19.5 68.001c0 18.667-4.333 30.834-13 36.501S287.667 566 271 566h-14zm-51.999-264.002l-34.999-174h24c13.333 0 25 3.167 35 9.5s18.5 15 25.5 26 12.167 23.5 15.5 37.5 5 29 5 45c0 20-4.833 34.333-14.5 43s-20.834 13-33.501 13h-22zm143.001 62c22.667-8 38.168-21.002 46.501-39.002s12.5-38.667 12.5-62c0-39.333-5-75.166-15-107.499s-24.333-60-43-83-41.334-40.833-68.001-53.5-56.667-19-90-19h-180l135 696h147c108 0 162-48.667 162-146 0-51.333-9.167-91.666-27.5-120.999s-44.5-49.333-78.5-60z"/><glyph glyph-name="C" unicode="C" horiz-adv-x="427" d="M310 702c54 0 93.998-13.336 119.998-40.003s39-60 39-100c0-14.667-1.333-27.667-4-39l-135-23c.667 3.333 1.167 6.5 1.5 9.5s.5 6.167.5 9.5c0 15.333-3.333 28-10 38s-16 15-28 15c-9.333 0-17-1.833-23-5.5s-11.167-8.167-15.5-13.5-7.666-11.166-9.999-17.499-3.833-11.833-4.5-16.5l-69-355c-.667-2.667-1-6.667-1-12 0-7.333 2.167-13.833 6.5-19.5s13.5-8.5 27.5-8.5c28.667 0 48.667 24 60 72l131-18c-4-27.333-10.833-52.166-20.5-74.499s-22.5-41.666-38.5-57.999-35.5-29-58.5-38S228.332-6 196.999-6C143.666-6 103.333 5.667 76 29S35 86 35 130c0 13.333 1.667 29.333 5 48l66 341c5.333 27.333 13 52.333 23 75s23 42 39 58 35.667 28.333 59 37 51 13 83 13z"/><glyph glyph-name="D" unicode="D" horiz-adv-x="446" d="M256 562l-84-431h24c21.333 0 36 5 44 15s14 25 18 45l36 185.5 19 99 7.5 41c1 5.667 1.5 9.5 1.5 11.5 0 11.333-3 19.833-9 25.5s-17 8.5-33 8.5h-24zm55 134c41.333 0 75.333-7.167 102-21.5s41.667-38.5 45-72.5c1.333-24-.334-58.5-5.001-103.5s-12.667-94.833-24-149.5l-29-145.5c-8-39.667-18.667-73.167-32-100.5-20.667-39.333-46.167-66.333-76.5-81S228.333 0 193 0H12l135 696h164z"/><glyph glyph-name="E" unicode="E" horiz-adv-x="394" d="M11 0l135 696h319l-25-130H257l-29-146h160l-26-133H202l-29-157h183L330 0H11z"/><glyph glyph-name="F" unicode="F" horiz-adv-x="394" d="M257 566l-29-147h160l-26-131H202L147 0H11l135 696h319l-25-130H257z"/><glyph glyph-name="G" unicode="G" horiz-adv-x="440" d="M204-6C141.333-6 96.671 9.999 70.004 41.999s-34.334 77.333-23.001 136l66 341c5.333 27.333 13.166 52.333 23.499 75s23.666 42 39.999 58 36 28.333 59 37 50.167 13 81.5 13 57.833-4.667 79.5-14 38.834-22.166 51.501-38.499 21-35.333 25-57 3.667-44.834-1-69.501l-135-23c3.333 20.667 1.666 37.834-5.001 51.501s-17 20.5-31 20.5c-9.333 0-17-1.833-23-5.5s-11.167-8.167-15.5-13.5-7.666-11.166-9.999-17.499-3.833-11.833-4.5-16.5l-69-355c-.667-4.667-1-9.334-1-14.001s1-9 3-13 5.5-7.167 10.5-9.5 11.833-3.5 20.5-3.5c13.333 0 24.666 3.333 33.999 10s15.666 17.667 18.999 33l20 102h-47l23 119h182l-43-219c-6-32-15.167-59.167-27.5-81.5S345.667 47 329 33 293.333 9 272 3s-44-9-68-9z"/><glyph glyph-name="H" unicode="H" horiz-adv-x="459" d="M234 0l55 288h-87L147 0H11l135 696h136l-54-276h87l54 276h135L369 0H234z"/><glyph glyph-name="I" unicode="I" horiz-adv-x="242" d="M13 0l135 696h136L149 0H13z"/><glyph glyph-name="J" unicode="J" horiz-adv-x="382" d="M426 696L323.001 169.001c-10.667-54.667-31.667-97.5-63-128.5s-75-46.5-131-46.5c-31.333 0-60 7.333-86 22s-47 38-63 70l108 78c6.667-12.667 14.667-22.334 24-29.001s17.666-10 24.999-10c17.333 0 29.833 5.333 37.5 16s12.5 20.667 14.5 30l102 525h135z"/><glyph glyph-name="K" unicode="K" horiz-adv-x="446" d="M251 494l127 202h151L327 401 409 0H275l-48 266-41-62L147 0H11l135 696h136l-38-202h7z"/><glyph glyph-name="L" unicode="L" horiz-adv-x="378" d="M11 0l135 696h136L173 133h183L330 0H11z"/><glyph glyph-name="M" unicode="M" horiz-adv-x="582" d="M232 136l-12 89-12 103h-5L140 0H5l135 696h125l30-197 24-134h6l71 137 107 194h129L497 0H361l63 325h-4l-54-108-43-81h-91z"/><glyph glyph-name="N" unicode="N" horiz-adv-x="481" d="M327 307l69 388.999h133l-135-696H278l-41 220-22 132h-5l-67-352H8l135 696h119l37-216c2-10.667 4.167-23.5 6.5-38.5s4.5-30.667 6.5-47l6-47.5c2-15.333 3.333-28.666 4-39.999h5z"/><glyph glyph-name="O" unicode="O" horiz-adv-x="418" d="M261 567c-11.333 0-21-3.335-29-10.002s-13.667-17.667-17-33l-66-342c-.667-3.333-1.167-6.166-1.5-8.499s-.5-4.833-.5-7.5c0-24.667 11.667-37 35-37 11.333 0 21 3.167 29 9.5s13.667 17.5 17 33.5l66 340c1.333 3.333 2 6.5 2 9.5v9.5c0 12.667-3.333 21.834-10 27.501s-15 8.5-25 8.5zm8 134.998c50 0 90.001-12.667 120.001-38s45-62 45-110c0-17.333-2-35.333-6-54l-62-330c-10-54.667-30-97.667-60-129s-74.333-47-133-47c-52.667 0-92.834 13.667-120.501 41S11 98.664 11 143.997c0 7.333.5 15 1.5 23s2.167 16 3.5 24l64 336c6 30 13.833 55.833 23.5 77.5s22 39.834 37 54.501 33 25.5 54 32.5 45.833 10.5 74.5 10.5z"/><glyph glyph-name="P" unicode="P" horiz-adv-x="428" d="M301 696c25.333 0 48.332-2.667 68.999-8s38.334-14.166 53.001-26.499 26-29 34-50 12-46.833 12-77.5c0-90.667-21.667-159.834-65-207.501S302 255 228 255h-32L147 0H11l135 696h155zm-44.001-130l-35.001-179.998h23c8.667 0 18.334 1.5 29.001 4.5s20.667 8.667 30 17 17 20.166 23 35.499 9 35.333 9 60c0 23.333-5.167 39.666-15.5 48.999s-24.5 14-42.5 14h-21z"/><glyph glyph-name="Q" unicode="Q" horiz-adv-x="446" d="M296 702c50 0 90.003-12.667 120.003-38s45-62 45-110c0-17.333-2-35.333-6-54l-62-330c-2.667-13.333-5.834-25.833-9.501-37.5s-7.834-22.5-12.501-32.5l60-58-85-82-56 51c-26.667-11.333-56.667-17-90-17-52 0-91.833 13.667-119.5 41s-41.5 64-41.5 110c0 7.333.333 14.833 1 22.5s1.667 15.5 3 23.5l64 336c11.333 59.333 31.666 103.333 60.999 132s72 43 128 43zm-7.997-135c-11.333 0-21-3.335-29-10.002s-13.667-17.667-17-33l-66-342c-.667-3.333-1.167-6.166-1.5-8.499s-.5-4.833-.5-7.5c0-24.667 11.667-37 35-37 11.333 0 21 3.167 29 9.5s13.667 17.5 17 33.5l66 340c1.333 3.333 2 6.5 2 9.5v9.5c0 12.667-3.333 21.834-10 27.501s-15 8.5-25 8.5z"/><glyph glyph-name="R" unicode="R" horiz-adv-x="446" d="M301 696c24.667 0 47.501-2.831 68.501-8.498s39.167-14.834 54.5-27.501S451.167 630.667 459.5 610s12.5-45.667 12.5-75c0-33.333-3-62.5-9-87.5s-14.167-46.833-24.5-65.5-22.833-34.5-37.5-47.5-30.667-23.833-48-32.5L395 0H256l-30 271h-27L147 0H11l135 696h155zm-43.999-129.998l-32-164.001h21c10 0 20.5 1.333 31.5 4s21.167 7.834 30.5 15.501 17 18 23 31 9 30.167 9 51.5-5.667 37-17 47-26.333 15-45 15h-21z"/><glyph glyph-name="S" unicode="S" horiz-adv-x="427" d="M169 191c-3.333-11.333-5-21.334-5-30.001 0-9.333 2.5-17.166 7.5-23.499S186 128 200 128c13.333 0 24.333 3.5 33 10.5s15.5 16 20.5 27S262 188.667 264 202s3 26.333 3 39c0 13.333-3.833 23.5-11.5 30.5S234 286.667 214 296c-24 10.667-44 21.834-60 33.501s-28.5 23.834-37.5 36.501-15.333 25.667-19 39-5.5 27.333-5.5 42c0 36.667 4.5 70.667 13.5 102s22.5 58.333 40.5 81 40.5 40.334 67.5 53.001 58.5 19 94.5 19c28.667 0 53-3.333 73-10s36.167-16 48.5-28 21.166-25.833 26.499-41.5 8-32.5 8-50.5c0-20.667-3-42-9-64l-135-8c1.333 5.333 2.333 10.666 3 15.999s1 10.666 1 15.999c0 9.333-2.333 17.5-7 24.5s-14.334 10.5-29.001 10.5c-11.333 0-20.666-3.167-27.999-9.5s-13.166-14-17.499-23-7.333-18.333-9-28-2.5-18.167-2.5-25.5c0-11.333 4.333-21.666 13-30.999s26-19.666 52-30.999c21.333-9.333 39-18.833 53-28.5s25-20 33-31 13.667-22.833 17-35.5 5-26.334 5-41.001c0-38-3.5-74.5-10.5-109.5s-19-65.833-36-92.5-39.667-47.834-68-63.501S226-5.999 184-5.999c-28 0-52 3.5-72 10.5s-36.5 16.5-49.5 28.5S40 59.168 34 75.501 25 109.667 25 129c0 16 2 32.667 6 50z"/><glyph glyph-name="T" unicode="T" horiz-adv-x="360" d="M317 566L207 0H71l110 566H74l25 130h350l-25-130H317z"/><glyph glyph-name="U" unicode="U" horiz-adv-x="445" d="M495 696L392.999 170c-23.333-117.333-88.333-176-195-176-26.667 0-51 4-73 12s-40.333 19.667-55 35-25 34.333-31 57-6 49 0 79l101 519h136l-102-518c-3.333-16-1.166-28.167 6.501-36.5S197.667 129 209 129s21 3.167 29 9.5 13.667 17.5 17 33.5l102 524h138z"/><glyph glyph-name="V" unicode="V" horiz-adv-x="447" d="M387 696h149.999l-268-696h-172l3 696h147l-12-261c-1.333-34-3.666-68.667-6.999-104s-6.333-72-9-110h6l65 195z"/><glyph glyph-name="W" unicode="W" horiz-adv-x="641" d="M346 331l-17.999-52.998-14.5-42.5c-4.333-13-8.833-25.5-13.5-37.5l-15-39-63-159h-146l37 696h147l-16-185c-3.333-36.667-7-71.834-11-105.501l-12-97.5h5l64 180 73 208h108l-6-202c-.667-16-1.334-31.167-2.001-45.5l-2-44c-.667-15-1.5-30.833-2.5-47.5S456.667 321.667 456 301h6l52 193 55 202h155L491 0H345l3 140 4 191h-6z"/><glyph glyph-name="X" unicode="X" horiz-adv-x="450" d="M229 194L131 0H-37l214 363-69 333h155l19-162h6l80 162h170L335 363 413 0H257l-24 194h-4z"/><glyph glyph-name="Y" unicode="Y" horiz-adv-x="414" d="M255 436l103 260h148L289 273 236 0H99l53 273-54 423h141l5-138c.667-22 1.5-41.667 2.5-59s1.167-38.333.5-63h8z"/><glyph glyph-name="Z" unicode="Z" horiz-adv-x="360" d="M-19 0L5 124l252 442H100l25 130h309l-24-120-251-445h165L299 0H-19z"/><glyph glyph-name="bracketleft" unicode="[" horiz-adv-x="259" d="M1-102l155 799h182l-19-97h-60L142-5h60l-19-97H1z"/><glyph glyph-name="backslash" unicode="\" horiz-adv-x="289" d="M100 725h101l38-767H138z"/><glyph glyph-name="bracketright" unicode="]" horiz-adv-x="259" d="M-44-103l18 97h60l118 606H92l19 97h181L136-103H-44z"/><glyph glyph-name="asciicircum" unicode="^" horiz-adv-x="430" d="M278 531l-64-122-56-101H21l243 388h91l95-391H323l-19 101-18 125h-8z"/><glyph glyph-name="underscore" unicode="_" horiz-adv-x="500" d="M-71-160l18 90h499l-18-90H-71z"/><glyph glyph-name="grave" unicode="`" horiz-adv-x="385" d="M302 537L173 731l97 52 97-212z"/><glyph glyph-name="a" unicode="a" horiz-adv-x="401" d="M182 120c6 0 12.666 3 19.999 9s13.666 20.667 18.999 44l27 139c1.333 4.667 2.333 9.334 3 14.001s1 9.667 1 15c0 7.333-1.667 13.833-5 19.5s-10 8.5-20 8.5c-7.333 0-13.5-2.333-18.5-7s-8.167-9.667-9.5-15c-2-4-5.167-14.5-9.5-31.5s-8.666-36.333-12.999-58S168.333 214.167 165 192.5s-5-39.167-5-52.5c0-12 7.333-18.667 22-20zm8.999-120l7.998 39h-5c-12-16.667-26.333-28.5-43-35.5S121.33-7 111.997-7c-36.667 0-61.667 8.5-75 25.5s-20 38.5-20 64.5c0 21.333 1.833 47.833 5.5 79.5S32.331 231 40.998 273c7.333 38 15.5 71.167 24.5 99.5s19.833 52 32.5 71 27.834 33.167 45.501 42.5 38.5 14 62.5 14c11.333 0 23.5-2.833 36.5-8.5s23.167-17.167 30.5-34.5l4 2 9 35h136L326 0H191z"/><glyph glyph-name="b" unicode="b" horiz-adv-x="401" d="M235 374c-6 0-12.666-3.001-19.999-9.001s-13.666-20.667-18.999-44l-27-139c-1.333-4-2.333-8.5-3-13.5s-1-9.833-1-14.5c0-8 1.667-14.833 5-20.5s10-8.5 20-8.5c7.333 0 13.5 2.333 18.5 7s8.167 9.667 9.5 15c2 4 5.167 14.5 9.5 31.5s8.666 36.333 12.999 58S248.667 279.833 252 301.5s5 39.167 5 52.5c0 12-7.333 18.667-22 20zM211.001-6.001c-11.333 0-23.498 2.834-36.498 8.501s-23.167 17.167-30.5 34.5l-4-2-8-35h-137l141 726h138l-50-258h5c13.333 13.333 26.666 22.166 39.999 26.499s24.666 6.5 33.999 6.5c35.333 0 60.333-8.833 75-26.5s22-40.167 22-67.5c0-43.333-8-105.333-24-186-7.333-38-15.5-71.167-24.5-99.5s-19.833-52-32.5-71-27.667-33.167-45-42.5-38.333-14-63-14z"/><glyph glyph-name="c" unicode="c" horiz-adv-x="381" d="M169-6c-25.333 0-46.832 3.331-64.499 9.998S72.334 19.332 61.001 30s-19.833 23-25.5 37S26.667 95.333 26 110c-1.333 16.667-.5 37.334 2.5 62.001s6.167 49 9.5 73c4.667 30 11 60.5 19 91.5S74.333 393 85 413c13.333 26 33.166 47.5 59.499 64.5s59.5 25.5 99.5 25.5c24.667 0 46.834-3.5 66.501-10.5s35.667-17.333 48-31S379.333 431 384 411s4.667-43 0-69l-136-15c3.333 17.333 3.333 29.833 0 37.5s-8.666 11.5-15.999 11.5c-11.333 0-20.333-6.667-27-20-3.333-5.333-7.5-17.5-12.5-36.5s-10.167-42.5-15.5-70.5-9.166-50.5-11.499-67.5-3.5-29.5-3.5-37.5c1.333-14.667 8-22 20-22 7.333 0 14.166 3.333 20.499 10s11.166 18.334 14.499 35.001l132-17c-9.333-48.667-29.333-86.834-60-114.501S218.333-6 169-6z"/><glyph glyph-name="d" unicode="d" horiz-adv-x="401" d="M199 503c8.667 0 20.998-2.17 36.998-6.504s28.333-12.166 37-23.499h5l50 253h135l-138-726h-135l7 36-4 2c-6-9.333-12.833-16.833-20.5-22.5s-15.5-10-23.5-13-15.833-5.167-23.5-6.5-14.5-2-20.5-2c-30.667 0-53.667 7.5-69 22.5s-23 40.5-23 76.5c0 5.333.167 10.833.5 16.5s.833 11.834 1.5 18.501c.667 10 2.834 27.333 6.501 52s8.167 51.334 13.5 80.001 11.333 57 18 85 13.667 50.333 21 67c4 8.667 8.833 18.334 14.5 29.001s13.334 20.667 23.001 30 21.5 17 35.5 23 31.333 9 52 9zm30.998-131.004c-6.667 0-12.669-2.166-18.002-6.499s-9.333-9.833-12-16.5c-3.333-8.667-7.166-23.5-11.499-44.5s-8.5-42.5-12.5-64.5-7.5-42.167-10.5-60.5-4.5-28.833-4.5-31.5v-3c0-5.333 1.833-9.833 5.5-13.5s8.834-5.5 15.501-5.5c8 0 14.333 1.667 19 5s8.667 8.833 12 16.5 6.333 18 9 31l10 49.5 2 11 12.5 67c3.667 19.333 5.5 33.333 5.5 42 0 7.333-1.833 13.166-5.5 17.499s-9.167 6.5-16.5 6.5z"/><glyph glyph-name="e" unicode="e" horiz-adv-x="408" d="M352 145c-5.333-22-12.333-42.168-21-60.501s-19.834-34.333-33.501-48-30.334-24.167-50.001-31.5-43.5-11-71.5-11c-30 0-54.833 4.167-74.5 12.5s-35.167 19.666-46.5 33.999-19.166 30.833-23.499 49.5-6.5 38-6.5 58c0 17.333 1 34.666 3 51.999s4.667 34 8 50c5.333 30 12 60 20 90s19.167 57.167 33.5 81.5 32.833 44 55.5 59 51.667 22.5 87 22.5c48 0 85.5-11 112.5-33s40.5-52 40.5-90c0-33.333-5.167-61.5-15.5-84.5s-24.333-41.667-42-56-38.167-24.666-61.5-30.999-48-9.5-74-9.5h-12.5c-3.667 0-8.167.333-13.5 1-2.667-9.333-4.5-19.166-5.5-29.499s-1.5-18.166-1.5-23.499c.667-16.667 7.334-25 20.001-25 9.333 0 16.833 2.833 22.5 8.5S212 146 216 160zM229 376.999c-12.667 0-22.168-6.166-28.501-18.499s-11.5-29.833-15.5-52.5c24.667 0 41.834 4 51.501 12s14.5 20.667 14.5 38c0 5.333-1.833 10.166-5.5 14.499s-9.167 6.5-16.5 6.5z"/><glyph glyph-name="f" unicode="f" horiz-adv-x="302" d="M102 388l-56-.001 21 106h56l17 90c4 22 10.333 42 19 60s20.334 33.5 35.001 46.5 32.334 23.167 53.001 30.5 45 11 73 11c8.667 0 18.167-.5 28.5-1.5s19.833-2.5 28.5-4.5l-24-124c-4.667 1.333-9.667 2.333-15 3s-10 1-14 1c-19.333 0-32.333-4.667-39-14s-10.667-18.333-12-27l-13-71h79l-21-106h-79l-72-389c-4-22-10.333-42.167-19-60.5s-20.334-34-35.001-47-32.334-23-53.001-30-45-10.5-73-10.5c-18 0-37 2-57 6l24 124c4.667-1.333 9.667-2.166 15-2.499s10-.5 14-.5c18.667 0 31.5 4.333 38.5 13S32.667 8.667 34 18z"/><glyph glyph-name="g" unicode="g" horiz-adv-x="401" d="M148-80c8.667 0 15.166 2.667 19.499 8s7.166 11.333 8.499 18l15 81h-5C172.665 13.667 159.332 4.834 145.999.501s-24.666-6.5-33.999-6.5c-35.333 0-60.333 8.833-75 26.5s-22 40.167-22 67.5c.667 21.333 2.834 47.5 6.501 78.5s9.5 66.833 17.5 107.5c7.333 38 15.5 71.167 24.5 99.5s19.833 52 32.5 71 27.667 33.167 45 42.5 38.333 14 63 14c11.333 0 23.5-2.833 36.5-8.5s23.167-17.167 30.5-34.5l4 2 8 35h137l-103-530c-4.667-24-11-46.333-19-67s-18.833-38.334-32.5-53.001-31-26.167-52-34.5-46.833-12.5-77.5-12.5c-46 0-82.167 12.667-108.5 38s-40.5 57.333-42.5 96l137 26c-.667-2.667-1-6-1-10 0-8.667 2.667-15.5 8-20.5S140.667-80 148-80zm31.999 201c6 0 12.666 3.001 19.999 9.001s13.666 20.667 18.999 44l27 139c1.333 4 2.333 8.5 3 13.5s1 9.833 1 14.5c0 8-1.667 14.833-5 20.5s-10 8.5-20 8.5c-7.333 0-13.5-2.333-18.5-7s-8.167-9.667-9.5-15c-2-4-5.167-14.5-9.5-31.5s-8.666-36.333-12.999-58-8.166-43.334-11.499-65.001-5-39.167-5-52.5c0-12 7.333-18.667 22-20z"/><glyph glyph-name="h" unicode="h" horiz-adv-x="412" d="M228 447c11.333 16 26.502 29.002 45.502 39.002s36.167 15 51.5 15c24 0 42.167-3.833 54.5-11.5s20.833-17.834 25.5-30.501 6.167-26.667 4.5-42-3.834-31-6.501-47l-71-370h-137l65 335c2 9.333 1.5 17.666-1.5 24.999s-9.167 11-18.5 11c-11.333 0-20.333-4.667-27-14S201.667 336.667 199 324L138 0H1l141 726h137l-56-278z"/><glyph glyph-name="i" unicode="i" horiz-adv-x="227" d="M115 566l25 130h137l-25-130H115zM5 0l96 494h137L142 0H5z"/><glyph glyph-name="j" unicode="j" horiz-adv-x="226" d="M116 566l25 130h137l-25-130H116zm20-599c-11.333-57.333-32.998-99-64.998-125s-73.333-39-124-39c-6.667 0-13.834.333-21.501 1s-14.834 1.667-21.501 3l24 128c3.333-.667 8.333-1 15-1 22.667 0 37.667 6.167 45 18.5S1.333-18 6 4l96 491h137z"/><glyph glyph-name="k" unicode="k" horiz-adv-x="432" d="M223 387l88 107h171L300 295 382 0H227l-36 175-20-20L141 0H5l141 725h136l-65-337z"/><glyph glyph-name="l" unicode="l" horiz-adv-x="234" d="M164 164c-.667-3.333-1.001-6.169-1.001-8.502v-6.5c0-11.333 3-19 9-23s15.667-6 29-6l-24-125a50.84 50.84 0 0 0-9.999-1h-10c-46.667 0-80.667 10.833-102 32.5S23 76.332 23 111c0 7.333.5 14.833 1.5 22.5s2.167 15.833 3.5 24.5l109 568h137L164 164z"/><glyph glyph-name="m" unicode="m" horiz-adv-x="607" d="M519 501c22 0 39.162-3.332 51.495-9.999s21.333-15.667 27-27 8.334-24.5 8.001-39.5-2.166-31.167-5.499-48.5l-73-376h-137l65 335c2.667 13.333 1.834 22.666-2.499 27.999s-10.166 8-17.499 8-14.5-2.833-21.5-8.5-12.167-14.167-15.5-25.5l-65-337h-137l65 335c2.667 13.333 1.834 22.666-2.499 27.999s-10.166 8-17.499 8c-8 0-15.667-3.333-23-10s-12.333-16.334-15-29.001l-64-332h-137l96 495h137l-8-41 5-1c10.667 12 24.834 23 42.501 33s34.167 15 49.5 15 28-1.667 38-5 18-7.666 24-12.999 10.667-11.666 14-18.999 5.666-15.333 6.999-24c16.667 18 35.667 32.667 57 44s39.666 17 54.999 17z"/><glyph glyph-name="n" unicode="n" horiz-adv-x="413" d="M229 447c11.333 16 26.501 29 45.501 39s36.167 15 51.5 15c18 0 32.5-2.167 43.5-6.5s19.5-10.333 25.5-18 10-16.5 12-26.5 3-20.667 3-32c0-7.333-.667-15.166-2-23.499l-4-24.5-71-370h-137l65 335c.667 3.333 1 7.666 1 12.999 0 8.667-2 14.667-6 18s-9 5-15 5c-11.333 0-20.333-4.667-27-14S202.667 336.667 200 324L139 0H2l96 495h137l-11-47z"/><glyph glyph-name="o" unicode="o" horiz-adv-x="401" d="M242 503c26 0 48.502-3.667 67.502-11s34.667-17.166 47-29.499 21.333-26.333 27-42 8.5-31.834 8.5-48.501c0-10.667-.5-22.5-1.5-35.5s-2.5-26.167-4.5-39.5l-6-40c-2-13.333-4-25.333-6-36-8-39.333-16.667-73.333-26-102s-21.333-52.334-36-71.001-32.834-32.5-54.501-41.5-48.5-13.5-80.5-13.5c-27.333 0-50.5 4.167-69.5 12.5s-34.5 19-46.5 32-20.667 27.5-26 43.5-8 31.667-8 47c0 18 1.167 36.667 3.5 56s5.5 39.666 9.5 60.999l10.5 49c3.667 16.667 7.5 32.834 11.5 48.501s8.5 30.334 13.5 44.001 10.167 25.167 15.5 34.5c15.333 27.333 36.166 47.833 62.499 61.5S209.333 503 242 503zm-5.998-127c-7.333 0-13.328-1.335-17.995-4.002s-8.834-8-12.501-16-7.334-19.333-11.001-34-7.834-33.667-12.501-57l-14-79c-1.333-7.333-2.333-13.833-3-19.5s-1-11.167-1-16.5c0-8 1.5-14.667 4.5-20s9.167-8 18.5-8c7.333 0 13.666 2.333 18.999 7s8.666 9.667 9.999 15c1.333 2.667 3.333 8.834 6 18.501s5.5 21.334 8.5 35.001 6 28.167 9 43.5l8.5 45c2.667 14.667 4.834 28 6.5 40s2.5 21 2.5 27c0 6.667-1.832 12.167-5.5 16.5s-8.833 6.5-15.5 6.5z"/><glyph glyph-name="p" unicode="p" horiz-adv-x="410" d="M216-8c-8.667 0-21 2.168-37 6.501S150.667 10.667 142 22h-5L93-193H-44L90 495h135l-7-36 4-2c6 8.667 12.833 16 20.5 22s15.5 10.5 23.5 13.5 15.833 5.167 23.5 6.5 14.5 2 20.5 2c30.667 0 53.667-7.5 69-22.5s23-40.5 23-76.5c0-5.333-.167-10.833-.5-16.5s-.833-11.834-1.5-18.501l-7-52c-3.333-24.667-7.666-51.334-12.999-80.001s-11.333-57-18-85-13.667-50.333-21-67c-4-9.333-8.833-19.166-14.5-29.499S313.167 33.333 303.5 24 282 7 268 1s-31.333-9-52-9zm-31 131.001c6.667 0 12.668 2.166 18.001 6.499s9.333 9.833 12 16.5c2 6 4.5 14.833 7.5 26.5s5.833 24.5 8.5 38.5l8.5 44c3 15.333 5.5 29.5 7.5 42.5l5 33c1.333 9 2 14.5 2 16.5v3c0 5.333-1.833 9.833-5.5 13.5S239.667 369 233 369c-8 0-14.333-1.667-19-5s-8.667-8.833-12-16.5-6.333-18-9-31L183 267l-2-11-12.5-67c-3.667-19.333-5.5-33.333-5.5-42 0-7.333 1.833-13.166 5.5-17.499s9.167-6.5 16.5-6.5z"/><glyph glyph-name="q" unicode="q" horiz-adv-x="401" d="M182 120c6-.667 12.666 2.332 19.999 8.999s13.666 21.334 18.999 44.001l27 139c1.333 5.333 2.5 11.333 3.5 18s1 12.834 0 18.501-3.333 10.5-7 14.5-9.5 6-17.5 6c-7.333 0-13.5-2.333-18.5-7s-8.167-9.667-9.5-15c-2-4-5.167-14.5-9.5-31.5s-8.666-36.333-12.999-58S168.333 214.167 165 192.5s-5-39.167-5-52.5c0-12 7.333-18.667 22-20zm23.999 379.999c11.333 0 23.502-2.834 36.502-8.501s23.167-17.167 30.5-34.5l4 2 9 35h136l-134-687h-138l46 219h-5C177.668 12.665 163.835 3.832 149.502-.501s-26.166-6.5-35.499-6.5c-19.333 0-35.5 2.833-48.5 8.5S42.336 14.833 35.003 24.5s-12.333 21.167-15 34.5-3.334 27.666-2.001 42.999c1.333 21.333 3.666 46 6.999 74s8.666 60.333 15.999 97c8 38 16.5 71.167 25.5 99.5s19.667 52 32 71 27.166 33.167 44.499 42.5 38.333 14 63 14z"/><glyph glyph-name="r" unicode="r" horiz-adv-x="316" d="M106 496h138l-12-61h2c14 25.333 29.667 43 47 53s37.333 15 60 15c4 0 8-.167 12-.5s8-.833 12-1.5l-26-135c-10 2-19.667 3-29 3-28 0-51.5-7.833-70.5-23.5S207.333 304.333 200 269L148 0H10z"/><glyph glyph-name="s" unicode="s" horiz-adv-x="387" d="M151 160c-.667-2.667-1.167-4.834-1.5-6.501s-.5-3.5-.5-5.5c0-9.333 2.667-16.666 8-21.999s12.333-8 21-8c13.333 0 23.333 5.167 30 15.5s10 20.833 10 31.5-2.667 18.167-8 22.5-11.666 7.833-18.999 10.5l-48 17.5c-16 5.667-30.333 13-43 22s-23 20.5-31 34.5-12 32.333-12 55c0 26 4.167 49.667 12.5 71s20.333 39.833 36 55.5 35 27.834 58 36.501 49.167 13 78.5 13c47.333 0 83.5-10.667 108.5-32s37.5-50.333 37.5-87c0-10.667-1-21.334-3-32.001l-134-14c.667 2 1 4.333 1 7 0 8.667-2 16.334-6 23.001s-10.667 10-20 10c-8 0-14.333-1.833-19-5.5s-8.167-7.834-10.5-12.501-3.833-9.167-4.5-13.5-1-7.166-1-8.499c0-10.667 7.333-18.334 22-23.001 20-6.667 38.667-13.334 56-20.001s32.166-15 44.499-25 22-22.5 29-37.5 10.5-33.833 10.5-56.5c0-23.333-3.333-46-10-68s-17.667-41.5-33-58.5-35.333-30.5-60-40.5-54.667-15-90-15c-44 0-79.333 10.167-106 30.5s-40 50.833-40 91.5c0 4 .167 8.333.5 13s.833 9.334 1.5 14.001z"/><glyph glyph-name="t" unicode="t" horiz-adv-x="277" d="M95 388l-44.999-.002 21 107h45l25 130h129l-25-130h56l-21-107h-56l-42-218c-.667-3.333-1.334-6.5-2.001-9.5s-1-6.167-1-9.5c0-7.333 2.5-13.666 7.5-18.999s15.167-8 30.5-8h12l-24-124c-5.333-1.333-12-2.166-20-2.499S169.667-3 163-3c-24 0-43.833 3-59.5 9s-28 14-37 24-15.333 21.167-19 33.5S42 88.333 42 101c0 6 .333 12 1 18s1.667 11.667 3 17z"/><glyph glyph-name="u" unicode="u" horiz-adv-x="413" d="M203 48c-11.333-16-26.498-29.002-45.498-39.002s-36.167-15-51.5-15c-24 0-42.167 3.833-54.5 11.5s-20.833 17.834-25.5 30.501-6.334 26.667-5.001 42 3.666 31 6.999 47l71 370h137l-65-335c-2-9.333-1.5-17.666 1.5-24.999s9.167-11 18.5-11c8 0 16.167 4.667 24.5 14s13.833 20.333 16.5 33l61 324h137L334 0H197l11 47z"/><glyph glyph-name="v" unicode="v" horiz-adv-x="401" d="M186 186c8.667 19.333 17.33 41.167 25.996 65.5s17.334 50 26.001 77 17 54.5 25 82.5 15.333 55.667 22 83h155c-15.333-45.333-31.166-88.833-47.499-130.5S359.332 281 342 241l-54-119.5L229 0H72L53 494h148l-11-191-4-51.5c-1.333-17-3.666-38.833-6.999-65.5h7z"/><glyph glyph-name="w" unicode="w" horiz-adv-x="624" d="M311 247l-41-134.999-44-112H69l-11 494h153l-15-191c-1.333-17.333-2.833-35.333-4.5-54s-4.5-39.667-8.5-63h7l54.5 151.5c17.667 50.333 33.167 102.5 46.5 156.5h141l-18-191c-1.333-17.333-3.333-36.5-6-57.5s-5.667-40.833-9-59.5h7c18.667 50.667 36.167 101.167 52.5 151.5s31.166 102.5 44.499 156.5h158c-14-44.667-28.833-87.834-44.5-129.501s-32.167-82.667-49.5-123S531.333 161 512 121L452 0H295l7 111 15 136h-6z"/><glyph glyph-name="x" unicode="x" horiz-adv-x="417" d="M198 143L122 0H-37l169 252-67 243h150l16-135h4l67 135h159L296 252 371 0H221l-17 143h-6z"/><glyph glyph-name="y" unicode="y" horiz-adv-x="383" d="M179 189c19.333 44 37.001 90.501 53.001 139.501s32.667 104.167 50 165.5h144c-34.667-100-71-193.833-109-281.5S241.334 46.667 204.001-22c-14-26-29.5-50.333-46.5-73s-35.833-42-56.5-58-43.667-28.5-69-37.5-53.666-12.833-84.999-11.5l-2 118c30.667 2.667 55.667 10.667 75 24s38.666 37 57.999 71l-27 483h143l-5-155c-.667-8-1.334-18.5-2.001-31.5s-1.667-26.5-3-40.5-2.833-28-4.5-42-3.5-26-5.5-36h5z"/><glyph glyph-name="z" unicode="z" horiz-adv-x="350" d="M-12 0l23 121 187 252H71l24 122h283l-22-112-192-256h142L282 0H-12z"/><glyph glyph-name="braceleft" unicode="{" horiz-adv-x="259" d="M148 298c17.333-7.333 29.33-21.17 35.996-41.504s7.334-45.5 2.001-75.5l-29-148c-2-10-2-17.667 0-23s4.833-9.166 8.5-11.499 7.667-3.833 12-4.5 7.833-1 10.5-1h18l-19-96h-49c-15.333 0-30.166 2.167-44.499 6.5s-26.5 11.666-36.5 22-17.167 24.332-21.5 42-3.833 40.166 1.5 67.5l26 138c6 30.666 4.833 52.833-3.5 66.5S38.332 260.664 21 261.997l16 81c18.667 1.333 34.5 8.5 47.5 21.5s22.5 34.5 28.5 64.5l28 145c4 18.667 8.833 35.5 14.5 50.5s14.167 27.833 25.5 38.5 26 18.834 44 24.501 41 8.5 69 8.5h45l-19-96h-20c-5.333 0-12.666-2.667-21.999-8s-15.666-17.333-18.999-36l-27-135c-5.333-27.333-15.333-51.166-30-71.499s-32.334-35.166-53-44.499z"/><glyph glyph-name="bar" unicode="|" horiz-adv-x="259" d="M76-162v892h107v-892H76z"/><glyph glyph-name="braceright" unicode="}" horiz-adv-x="259" d="M146 296c-17.333 7.333-29.33 21.17-35.996 41.504s-7.334 45.5-2.001 75.5l29 148c2 10 2 17.667 0 23s-4.833 9.166-8.5 11.499-7.667 3.833-12 4.5-7.833 1-10.5 1h-18l19 96h49c15.333 0 30.166-2.167 44.499-6.5s26.5-11.666 36.5-22 17-24.5 21-42.5 3.667-40.332-1-67l-26-138c-6-30.666-4.833-52.833 3.5-66.5s21.166-21.167 38.499-22.5l-16-81c-18.667-1.333-34.5-8.5-47.5-21.5s-22.5-34.5-28.5-64.5l-28-145c-4-18.667-8.833-35.5-14.5-50.5s-14.167-27.833-25.5-38.5-26-18.834-44-24.501-41-8.5-69-8.5h-45l19 96h20c5.333 0 12.666 2.667 21.999 8s15.666 17.333 18.999 36l27 135c5.333 27.333 15.333 51.166 30 71.499s32.334 35.166 53 44.499z"/><glyph glyph-name="asciitilde" unicode="~" horiz-adv-x="430" d="M192 393c12.667 0 24.668-2.831 36.001-8.498s21.666-11.667 30.999-18 18.333-12.166 27-17.499 17-8 25-8c11.333 0 22.166 3 32.499 9s23.5 18 39.5 36l65-44c-24-41.333-47.5-69.833-70.5-85.5s-46.167-23.5-69.5-23.5c-13.333 0-25.833 2.667-37.5 8s-22.5 11.166-32.5 17.499-19.667 12.166-29 17.499-18.333 8-27 8c-6 0-12-.333-18-1s-12.167-2.5-18.5-5.5-13.333-7.333-21-13-16.5-13.834-26.5-24.501l-61 43c24.667 38.667 48.834 66.667 72.501 84s51.167 26 82.5 26z"/><glyph glyph-name="exclamdown" unicode="¡" horiz-adv-x="275" d="M99 292h113l-86-493H-7zm159 203l-27-139H103l27 139h128z"/><glyph glyph-name="cent" unicode="¢" horiz-adv-x="430" d="M293 499c37.333-7.333 65.334-24.335 84.001-51.002s23.667-62 15-106l-136-15c3.333 17.333 3.333 29.833 0 37.5s-8.666 11.5-15.999 11.5c-11.333 0-20.333-6.667-27-20-3.333-5.333-7.5-17.5-12.5-36.5s-10.167-42.5-15.5-70.5-9.166-50.5-11.499-67.5-3.5-29.5-3.5-37.5c1.333-14.667 8-22 20-22 7.333 0 14.166 3.333 20.499 10s11.166 18.334 14.499 35.001l132-17c-8.667-44-27.167-79.333-55.5-106s-63.5-42.667-105.5-48l-19-98h-51l19 98c-18 2-33.833 6.5-47.5 13.5s-25 15.667-34 26-16 22-21 35-7.833 26.167-8.5 39.5c-1.333 16.667-.5 37.334 2.5 62.001s6.167 49 9.5 73c4.667 30 11 60.5 19 91.5s17.333 56.5 28 76.5c13.333 25.333 32.166 46.333 56.499 63s55.5 25.667 93.5 27l18 91h51z"/><glyph glyph-name="sterling" unicode="£" horiz-adv-x="430" d="M300 703c54.667 0 96.165-12.831 124.498-38.498s42.5-58.5 42.5-98.5c0-18.667-3-38.334-9-59.001l-136-7c1.333 4.667 2.333 9.5 3 14.5s1 9.833 1 14.5c0 10.667-2.5 19.834-7.5 27.501s-14.167 11.5-27.5 11.5c-18 0-31.167-7-39.5-21s-12.5-30.333-12.5-49 1.667-38 5-58 5-42.667 5-68h99l-20-103h-97c-8.667-32-17.667-58.833-27-80.5s-21-42.834-35-63.501h199l-24-125h-353l21 112c20.667 22.667 38 46 52 70s25.333 53 34 87h-56l20 103h50c-1.333 16.667-3.166 33.167-5.499 49.5s-3.5 34.166-3.5 53.499c0 33.333 4.833 64 14.5 92s23.334 52 41.001 72 38.5 35.667 62.5 47 50.333 17 79 17z"/><glyph glyph-name="currency" unicode="¤" horiz-adv-x="513" d="M101 132l-77.001 77 63 63c-11.333 24-17 48.667-17 74 0 26.667 6 52 18 76l-61 62 79 78 61-61c24 12 50 18 78 18 26.667 0 51-5.333 73-16l63 63 77-77-62-62c12-23.333 18-48.333 18-75 0-26-6.333-52.333-19-79l62-62-79-79-62 62c-25.333-12.667-50.666-19-75.999-19-26 0-51.667 6.333-77 19zm193.999 160c16.667 18 25 38.665 25 61.998 0 21.333-7.5 39-22.5 53s-32.833 21-53.5 21c-25.333 0-45.666-7.667-60.999-23s-23-34.666-23-57.999c0-21.333 7.5-39.666 22.5-54.999s33.167-23 54.5-23c10.667 0 21.167 2 31.5 6s19.166 9.667 26.499 17z"/><glyph glyph-name="yen" unicode="¥" horiz-adv-x="430" d="M262 420l46 124 58 152h148L337 354h63l-13-68h-84l-6-13-6-28h88l-13-67h-88L244 0H107l34 178H58l13 67h83l5 28-1 13H79l13 68h57l-43 342h141l6-153 1-123h8z"/><glyph glyph-name="brokenbar" unicode="¦" horiz-adv-x="259" d="M76 326v396h107V326H76zm107-94v-402H76v402h107z"/><glyph glyph-name="section" unicode="§" horiz-adv-x="423" d="M313 702c32 0 60.169-5.5 84.502-16.5s49.166-29.167 74.499-54.5l-84-89c-18.667 20.667-35.5 33.167-50.5 37.5s-28.5 6.5-40.5 6.5c-13.333 0-24.666-4-33.999-12s-14-17.667-14-29c0-9.333 4.333-18.666 13-27.999s19.334-19 32.001-29 26.667-20.5 42-31.5 29.333-23 42-36 23.334-27.167 32.001-42.5 13-32.333 13-51c0-55.333-24.333-97.333-73-126 12-28 18-55.333 18-82 0-25.333-4.833-49.166-14.5-71.499s-23.334-41.833-41.001-58.5-38.834-29.834-63.501-39.501-52-14.5-82-14.5c-14.667 0-29.834 1.833-45.501 5.5s-31.167 9-46.5 16-29.833 15.5-43.5 25.5-25.5 21-35.5 33l83 85c18.667-20.667 35.5-34.667 50.5-42s28.167-11 39.5-11c19.333 0 34.833 4.833 46.5 14.5s17.5 21.167 17.5 34.5c0 26.667-23 54.667-69 84-32 20.667-57.333 40.667-76 60s-28 44-28 74c0 27.333 7.167 53.666 21.5 78.999s36.5 44 66.5 56c-10.667 11.333-17.834 24-21.501 38s-5.5 28-5.5 42c0 24.667 4.833 47.5 14.5 68.5s23 39.167 40 54.5 37.167 27.5 60.5 36.5 49 13.5 77 13.5zm-16.998-406c.667 1.333 1 3.666 1 6.999 0 12-6.833 24-20.5 36s-35.167 26-64.5 42c-7.333-4-14.166-9.333-20.499-16s-9.5-13.667-9.5-21 2.833-14.666 8.5-21.999 12.667-14.5 21-21.5 17.666-13.833 27.999-20.5 20.5-12.667 30.5-18c6 3.333 11.5 8.333 16.5 15s8.167 13 9.5 19z"/><glyph glyph-name="dieresis" unicode="¨" horiz-adv-x="346" d="M267 547l25 130h119l-25-130H267zm-174 0l25 130h118l-25-130H93z"/><glyph glyph-name="copyright" unicode="©" horiz-adv-x="703" d="M345 550c16.667 0 32.002-2.833 46.002-8.5s26.167-13.5 36.5-23.5 18.5-21.5 24.5-34.5 9.333-26.833 10-41.5l-80-20c-1.333 13.333-5 24.166-11 32.499s-14 12.5-24 12.5c-14 0-23.167-3.167-27.5-9.5s-6.5-14.166-6.5-23.499V235c0-8 3-15 9-21s13.667-9 23-9c20.667 0 32 14.667 34 44l82-16c-3.333-34-14.5-61-33.5-81s-46.5-30-82.5-30c-32.667 0-59.834 9.5-81.501 28.5s-32.5 47.833-32.5 86.5v198c0 36 10.667 64.167 32 84.5S311.667 550 345 550zm1.002-558c-50 0-94 8.833-132 26.5s-69.833 42.167-95.5 73.5-45 68.166-58 110.499-19.5 88.5-19.5 138.5c0 50.667 6.5 97.334 19.5 140.001s32.333 79.667 58 111 57.5 55.833 95.5 73.5 82 26.5 132 26.5c48.667 0 92-8.833 130-26.5s70-42.167 96-73.5 45.667-68.333 59-111 20-89.334 20-140.001c0-50-6.667-96.167-20-138.5s-33-79.166-59-110.499-58-55.833-96-73.5S394.669-8 346.002-8zm0 623c-37.333 0-69.837-7.167-97.504-21.5s-50.667-34-69-59-32-54-41-87-13.5-68.5-13.5-106.5c0-37.333 4.833-72.333 14.5-105s23.834-61.334 42.501-86.001 41.834-44.167 69.501-58.5 59.167-21.5 94.5-21.5c36.667 0 68.834 7.167 96.501 21.5s50.834 33.833 69.501 58.5 32.5 53.334 41.5 86.001 13.5 67.667 13.5 105c0 38-4.833 73.5-14.5 106.5s-23.667 62-42 87-41.333 44.667-69 59-59.5 21.5-95.5 21.5z"/><glyph glyph-name="ordfeminine" unicode="ª" horiz-adv-x="277" d="M170 280l4.001 19c-6-9.333-14.333-15.666-25-18.999s-19.334-5-26.001-5c-22 0-39.167 6-51.5 18s-18.5 27-18.5 45c0 14.667 1 32 3 52s5.667 43.667 11 71c4.667 24.667 10 46.5 16 65.5s13.333 34.667 22 47 19.167 21.666 31.5 27.999 27.166 9.5 44.499 9.5c7.333 0 15.333-1.5 24-4.5S221.333 598 228 590l4 18h103l-63-328H170zm-2.999 80c2.667 0 6.501 2 11.501 6s8.5 12.333 10.5 25l20 98c.667 3.333 1.167 6.833 1.5 10.5s.5 7.167.5 10.5-.667 6.5-2 9.5-4.333 4.5-9 4.5c-5.333 0-9.333-1.333-12-4s-4.334-5.334-5.001-8.001c-1.333-2.667-3.333-9.667-6-21s-5.5-24.166-8.5-38.499-5.667-28.833-8-43.5-3.5-26.667-3.5-36c0-8.667 3.333-13 10-13z"/><glyph glyph-name="guillemotleft" unicode="«" horiz-adv-x="539" d="M130 46L54 247l154 200h129L173 245l76-199H130zm205 0l-76 201 154 200h129L378 245l76-199H335z"/><glyph glyph-name="logicalnot" unicode="¬" horiz-adv-x="430" d="M384 92H275l30 151H26l21 111h388z"/><glyph glyph-name="sfthyphen" unicode="­" horiz-adv-x="383" d="M50 216l24 120h296l-24-120H50z"/><glyph glyph-name="registered" unicode="®" horiz-adv-x="486" d="M249 612c52 0 78-28.667 78-86 0-15.333-2.167-29.5-6.5-42.5S307.667 459.667 295 451l21.5-57.5L339 336h-64l-35 104h-9V336h-60v276h78zm21-86c0 10.667-1.833 18.832-5.5 24.499s-11.167 8.5-22.5 8.5h-11v-66h14c10 0 16.667 2.833 20 8.5s5 13.834 5 24.501zm-24-291.002c-34 0-63.833 5.833-89.5 17.5s-47.167 28-64.5 49-30.333 45.833-39 74.5-13 59.667-13 93c0 34 4.333 65.333 13 94s21.667 53.5 39 74.5 38.833 37.333 64.5 49 55.5 17.5 89.5 17.5c32.667 0 61.5-5.833 86.5-17.5s46.167-28 63.5-49 30.5-45.833 39.5-74.5 13.5-60 13.5-94c0-33.333-4.5-64.333-13.5-93s-22.167-53.5-39.5-74.5-38.5-37.333-63.5-49-53.833-17.5-86.5-17.5zm0 414c-24.667 0-46.167-4.667-64.5-14s-33.5-22-45.5-38-20.833-34.833-26.5-56.5-8.5-44.834-8.5-69.501c0-52 12.333-94.333 37-127s60.667-49 108-49c24.667 0 45.834 4.5 63.501 13.5s32.167 21.5 43.5 37.5 19.833 34.667 25.5 56 8.5 44.333 8.5 69-3 47.834-9 69.501-15 40.5-27 56.5-26.833 28.667-44.5 38-37.834 14-60.501 14z"/><glyph glyph-name="macron" unicode="¯" horiz-adv-x="383" d="M157 566l21 110h252l-21-110H157z"/><glyph glyph-name="degree" unicode="°" horiz-adv-x="353" d="M224 571c0 13.333-4.333 24.5-13 33.5S191 618 177 618c-13.333 0-24.333-4.5-33-13.5s-13-20.167-13-33.5 4.333-24.666 13-33.999 19.667-14 33-14c14 0 25.333 4.667 34 14s13 20.666 13 33.999zm84 0c0-18-3.333-35-10-51s-16-30-28-42-26-21.333-42-28-33-10-51-10-34.833 3.333-50.5 10S97 466 85 478s-21.333 26-28 42-10 33-10 51 3.333 35 10 51 16 29.833 28 41.5 25.833 21 41.5 28S159 702 177 702s35-3.5 51-10.5 30-16.333 42-28 21.333-25.5 28-41.5 10-33 10-51z"/><glyph glyph-name="plusminus" unicode="±" horiz-adv-x="430" d="M281 275l-27-141H145l27 141H32l21 109h140l28 141h109l-28-141h140l-21-109H281zm107-170L368 0H-21l20 105h389z"/><glyph glyph-name="twosuperior" unicode="²" horiz-adv-x="280" d="M48 370l15 77.003 149 185c7.333 9.333 13.166 19.666 17.499 30.999s6.5 19.666 6.5 24.999c0 4-1.167 7.5-3.5 10.5S226.333 703 221 703c-7.333 0-14-3.167-20-9.5s-10-19.166-12-38.5l-91 12c8 42 24.167 72.834 48.5 92.5S199 789 231 789c30.667 0 55.667-7.166 75-21.5s29-35.5 29-63.5c0-20.666-4.333-39.333-13-56s-21-36.333-37-59L183 458h98l-17-88H48z"/><glyph glyph-name="threesuperior" unicode="³" horiz-adv-x="280" d="M230 789c38 0 64.84-10.166 80.507-30.499s21.167-49.833 16.5-88.5c-2.667-16.667-7.834-33-15.501-49s-20.167-28-37.5-36c15.333-6 23.666-16.333 24.999-31s-.334-34-5.001-58c-4-19.333-8.833-37-14.5-53s-13.5-29.667-23.5-41-22.333-20.166-37-26.499-32.667-9.5-54-9.5c-16 0-30.833 2.5-44.5 7.5s-25.334 12.333-35.001 22-16.5 21.667-20.5 36-4 30.833 0 49.5l95 9c-3.333-16-2.833-26 1.5-30s8.166-6 11.499-6c11.333 0 18 6.333 20 19l10 49c2 9.333.167 15.666-5.5 18.999s-12.167 5-19.5 5h-22l14 76h29c7.333 0 13.5 1.667 18.5 5s8.167 9 9.5 17l9 41c.667 3.333.167 7-1.5 11s-6.5 6-14.5 6c-4.667 0-10.334-2.833-17.001-8.5S192.334 675.667 191 657l-90 13c8 39.333 22.167 69 42.5 89s49.166 30 86.499 30z"/><glyph glyph-name="acute" unicode="´" horiz-adv-x="385" d="M200 574l136 186 98-54-170-175z"/><glyph glyph-name="mu" unicode="µ" horiz-adv-x="413" d="M199 40c-7.333-8-16.169-15.669-26.502-23.002s-21.166-13-32.499-17l-39-200h-137l135 695h137l-65-335c-3.333-13.333-2.666-22.666 2.001-27.999s10.667-8 18-8c8 0 15.5 3.333 22.5 10S225.333 150.333 228 163l65 332h137L334 0H197l7 39z"/><glyph glyph-name="mu" unicode="μ" horiz-adv-x="413" d="M199 40c-7.333-8-16.169-15.669-26.502-23.002s-21.166-13-32.499-17l-39-200h-137l135 695h137l-65-335c-3.333-13.333-2.666-22.666 2.001-27.999s10.667-8 18-8c8 0 15.5 3.333 22.5 10S225.333 150.333 228 163l65 332h137L334 0H197l7 39z"/><glyph glyph-name="paragraph" unicode="¶" horiz-adv-x="462" d="M159 308c-36.667 7.333-62.666 22.501-77.999 45.501s-23 51.167-23 84.5c0 26 4.167 54.167 12.5 84.5s21.833 58.166 40.5 83.499 43.167 46.5 73.5 63.5S251.667 695 295 695h229l-22-109h-45L332-58H231l125 644h-39L192-58H88z"/><glyph glyph-name="periodcentered" unicode="·" horiz-adv-x="229" d="M47 200l29 150h135l-29-150H47z"/><glyph glyph-name="cedilla" unicode="¸" horiz-adv-x="431" d="M185 34l-37.998-69.997c28.667-4 48-13.333 58-28s15-29.334 15-44.001c0-7.333-1.333-16.666-4-28s-8-22.5-16-33.5-19.5-20.5-34.5-28.5-35.167-12-60.5-12c-2.667 0-7.334.168-14.001.5s-14.5 1.167-23.5 2.5-18.833 3.666-29.5 6.999S16.667-192.333 6-187l31 58c14-6.667 25.5-10.834 34.5-12.501s17.167-2.5 24.5-2.5c11.333 0 20.5 3.167 27.5 9.5s10.5 13.833 10.5 22.5-3 14.334-9 17-14 4-24 4L71-68l53 102h61z"/><glyph glyph-name="onesuperior" unicode="¹" horiz-adv-x="221" d="M100 370l60 307-65-41 19 101 79 49h85l-81-416h-97z"/><glyph glyph-name="ordmasculine" unicode="º" horiz-adv-x="278" d="M195 613c38 0 66.166-9.165 84.499-27.498s27.5-38.833 27.5-61.5c0-14.667-1.167-31.334-3.5-50.001s-5.166-35-8.499-49c-5.333-25.333-11.166-47.5-17.499-66.5s-14.5-34.667-24.5-47-22.333-21.5-37-27.5-32.667-9-54-9-39.166 3-53.499 9-25.833 13.5-34.5 22.5-14.667 18.833-18 29.5-5 21-5 31c0 12.667.667 25.167 2 37.5s3.333 25.166 6 38.499l13 63c4.667 22 11 39 19 51 11.333 18 25.166 31.833 41.499 41.5S169.667 613 195 613zm-31.001-251.998c6 0 10.335 2.667 13.002 8s5 12 7 20l10 48c3.333 15.333 6.166 30.333 8.499 45s3.5 25.667 3.5 33c0 3.333-1 6.333-3 9s-5.333 4-10 4c-7.333 0-12.833-5.667-16.5-17s-8.834-33.333-15.501-66c-.667-2.667-1.5-6.834-2.5-12.501s-2-11.667-3-18l-3-19c-1-6.333-1.5-11.166-1.5-14.499 0-13.333 4.333-20 13-20z"/><glyph glyph-name="guillemotright" unicode="»" horiz-adv-x="539" d="M423 448l76-201L345 47H216l164 202-76 199h119zm-205 0l76-201L140 47H11l164 202-76 199h119z"/><glyph glyph-name="onequarter" unicode="¼" horiz-adv-x="657" d="M120 280l60 307-65-41 19 101 79 49h85l-81-416h-97zm40-297H79l456 731h81zm413 74L562 0h-88l11 57H351l14 71 145 288h91L462 137h38l18 84h88l-18-84h25l-15-80h-25z"/><glyph glyph-name="onehalf" unicode="½" horiz-adv-x="657" d="M99 280l60 307-65-41 19 101 79 49h85l-81-416H99zm43-297H61l456 731h81zM368 0l15 77.003 149 185c7.333 9.333 13.166 19.666 17.499 30.999s6.5 19.666 6.5 24.999c0 4-1.167 7.5-3.5 10.5S546.333 333 541 333c-7.333 0-14-3.167-20-9.5s-10-19.166-12-38.5l-91 12c8 42 24.167 72.834 48.5 92.5S519 419 551 419c30.667 0 55.667-7.166 75-21.5s29-35.5 29-63.5c0-20.666-4.333-39.333-13-56s-21-36.333-37-59L503 88h98L584 0H368z"/><glyph glyph-name="threequarters" unicode="¾" horiz-adv-x="657" d="M219 699c38 0 64.84-10.166 80.507-30.499s21.167-49.833 16.5-88.5c-2.667-16.667-7.834-33-15.501-49s-20.167-28-37.5-36c15.333-6 23.666-16.333 24.999-31s-.334-34-5.001-58c-4-19.333-8.833-37-14.5-53s-13.5-29.667-23.5-41-22.333-20.166-37-26.499-32.667-9.5-54-9.5c-16 0-30.833 2.5-44.5 7.5s-25.334 12.333-35.001 22-16.5 21.667-20.5 36-4 30.833 0 49.5l95 9c-3.333-16-2.833-26 1.5-30s8.166-6 11.499-6c11.333 0 18 6.333 20 19l10 49c2 9.333.167 15.666-5.5 18.999s-12.167 5-19.5 5h-22l14 76h29c7.333 0 13.5 1.667 18.5 5s8.167 9 9.5 17l9 41c.667 3.333.167 7-1.5 11s-6.5 6-14.5 6c-4.667 0-10.334-2.833-17.001-8.5S181.334 585.667 180 567l-90 13c8 39.333 22.167 69 42.5 89s49.166 30 86.499 30zM175.007-16.999h-81l456 731h81zm413 74l-11-57h-88l11 57h-134l14 71 145 288h91l-139-279h38l18 84h88l-18-84h25l-15-80h-25z"/><glyph glyph-name="questiondown" unicode="¿" horiz-adv-x="394" d="M169-206c-50.667 0-90.834 12.832-120.501 38.499s-44.5 62.5-44.5 110.5c0 22 1.667 41.5 5 58.5s7.833 32.167 13.5 45.5 12 25.5 19 36.5 14.167 21.167 21.5 30.5l48.5 63.5c11.667 15.667 20.5 28.5 26.5 38.5s10.333 18.667 13 26 5.334 16 8.001 26l9 37h133l-12-61c-3.333-18.667-9.666-36.667-18.999-54S251.335 157.333 242.002 144c-18.667-26-34.167-46.833-46.5-62.5s-22-29.334-29-41.001-11.833-22.667-14.5-33-4-23.166-4-38.499c0-10 3-19.167 9-27.5s15.667-12.5 29-12.5c5.333 0 11 1 17 3s11.667 5.667 17 11 10.166 12.833 14.499 22.5S241.667-12.333 243 3l127-13c-4-35.333-11.333-65.5-22-90.5s-24.5-45.333-41.5-61-37-27-60-34S197.667-206 169-206zm166 701.999l-27-139H180l27 139h128z"/><glyph glyph-name="Agrave" unicode="À" horiz-adv-x="449" d="M263 136H161L114 0H-31l267 696h166L400 0H258zm-23 239l-35-111h63l8 111 13 141h-6zm75 343L127 825l77 93 160-132z"/><glyph glyph-name="Aacute" unicode="Á" horiz-adv-x="449" d="M263 136H161L114 0H-31l267 696h166L400 0H258zm-23 239l-35-111h63l8 111 13 141h-6zm32 411l193 130 58-93-215-105z"/><glyph glyph-name="Acircumflex" unicode="Â" horiz-adv-x="449" d="M263 136H161L114 0H-31l267 696h166L400 0H258zm-23 239l-35-111h63l8 111 13 141h-6zm95 435l-140-86-47 47 162 145h79l101-144-57-48z"/><glyph glyph-name="Atilde" unicode="Ã" horiz-adv-x="449" d="M263 136H161L114 0H-31l267 696h166L400 0H258zm-23 239l-35-111h63l8 111 13 141h-6zm32 488c10 0 19.669-1.834 29.002-5.501s18-7.5 26-11.5l22.5-11.5c7-3.667 13.5-5.5 19.5-5.5 4 0 7.833.167 11.5.5s7.667 1.5 12 3.5 9.166 5.333 14.499 10 11.666 11 18.999 19l58-36c-17.333-37.333-35.833-62.333-55.5-75s-38.5-19-56.5-19c-11.333 0-21.5 1.833-30.5 5.5s-17.333 7.667-25 12l-22 12c-7 3.667-14.5 5.5-22.5 5.5-7.333 0-15.333-2.167-24-6.5S228.333 746.333 215 731l-57 42c20.667 36 40.5 60 59.5 72s37.167 18 54.5 18z"/><glyph glyph-name="Adieresis" unicode="Ä" horiz-adv-x="449" d="M263 136H161L114 0H-31l267 696h166L400 0H258zm-23 239l-35-111h63l8 111 13 141h-6zm113 354l25 130h119l-25-130H353zm-174 0l25 130h118l-25-130H179z"/><glyph glyph-name="Aring" unicode="Å" horiz-adv-x="449" d="M263 136l-101.999-.004-47-136h-145l267 696h38c-14.667 6.667-26.5 16.334-35.5 29.001s-13.5 27-13.5 43 2.667 31.5 8 46.5 13 28 23 39 22.167 19.833 36.5 26.5 30.166 10 47.499 10c25.333 0 46.833-7.667 64.5-23s26.5-34.666 26.5-57.999c0-25.333-6-48.166-18-68.499S384 705.333 362 696h40L400 0H258zm-22.999 238.996l-35-111h63l8 111 13 141h-6zm93 443c-9.333 0-17.666-3.669-24.999-11.002s-11-15.666-11-24.999c0-7.333 2.667-13.333 8-18s11.666-7 18.999-7c9.333 0 17.666 3.333 24.999 10s11 15.334 11 26.001c0 7.333-2.667 13.333-8 18s-11.666 7-18.999 7z"/><glyph glyph-name="AE" unicode="Æ" horiz-adv-x="642" d="M278 0l21 151H189L129 0H-15l282 696h427l-18-130H493l-20-146h160l-19-133H454l-21-156h183L599 0H278zm-38 281h77l40 283h-5z"/><glyph glyph-name="Ccedilla" unicode="Ç" horiz-adv-x="427" d="M310 702c54 0 94.001-13.332 120.001-39.999s39-60 39-100c0-14.667-1.333-27.667-4-39l-135-23c.667 3.333 1.167 6.5 1.5 9.5s.5 6.167.5 9.5c0 15.333-3.333 28-10 38s-16 15-28 15c-9.333 0-17-1.833-23-5.5s-11.167-8.167-15.5-13.5-7.666-11.166-9.999-17.499-3.833-11.833-4.5-16.5l-69-355c-.667-2.667-1-6.667-1-12 0-7.333 2.167-13.833 6.5-19.5s13.5-8.5 27.5-8.5c28.667 0 48.667 24 60 72l131-18c-4-27.333-10.833-52.166-20.5-74.499s-22.5-41.666-38.5-57.999-35.5-29-58.5-38-50.167-13.5-81.5-13.5h-1l-16-30c28.667-4 48-13.333 58-28s15-29.334 15-44.001c0-7.333-1.333-16.666-4-27.999s-8-22.5-16-33.5-19.5-20.5-34.5-28.5-35.167-12-60.5-12c-2.667 0-7.334.167-14.001.5s-14.5 1.166-23.5 2.499-18.833 3.666-29.5 6.999S49.667-192.332 39-186.999l31 58c14-6.667 25.5-10.834 34.5-12.501s17.167-2.5 24.5-2.5c11.333 0 20.5 3.167 27.5 9.5S167-120.667 167-112s-3 14.334-9 17.001-14 4-24 4l-30 23 35 68C69.667 15.334 35 58.667 35 130c0 13.333 1.667 29.333 5 48l66 341c5.333 27.333 13 52.333 23 75s23 42 39 58 35.667 28.333 59 37 51 13 83 13z"/><glyph glyph-name="Egrave" unicode="È" horiz-adv-x="394" d="M11 0l135 696h319l-25-130H257l-29-146h160l-26-133H202l-29-157h183L330 0H11zm336 718L159 825l77 93 160-132z"/><glyph glyph-name="Eacute" unicode="É" horiz-adv-x="394" d="M11 0l135 696h319l-25-130H257l-29-146h160l-26-133H202l-29-157h183L330 0H11zm219 786l193 130 58-93-215-105z"/><glyph glyph-name="Ecircumflex" unicode="Ê" horiz-adv-x="394" d="M11 0l135 696h319l-25-130H257l-29-146h160l-26-133H202l-29-157h183L330 0H11zm309 810l-140-86-47 47 162 145h79l101-144-57-48z"/><glyph glyph-name="Edieresis" unicode="Ë" horiz-adv-x="394" d="M11 0l135 696h319l-25-130H257l-29-146h160l-26-133H202l-29-157h183L330 0H11zm327 729l25 130h119l-25-130H338zm-174 0l25 130h118l-25-130H164z"/><glyph glyph-name="Igrave" unicode="Ì" horiz-adv-x="242" d="M13 0l135 696h136L149 0H13zm211 718L36 825l77 93 160-132z"/><glyph glyph-name="Iacute" unicode="Í" horiz-adv-x="242" d="M13 0l135 696h136L149 0H13zm181 786l193 130 58-93-215-105z"/><glyph glyph-name="Icircumflex" unicode="Î" horiz-adv-x="242" d="M13 0l135 696h136L149 0H13zm228 810l-140-86-47 47 162 145h79l101-144-57-48z"/><glyph glyph-name="Idieresis" unicode="Ï" horiz-adv-x="242" d="M13 0l135 696h136L149 0H13zm236 729l25 130h119l-25-130H249zm-174 0l25 130h118l-25-130H75z"/><glyph glyph-name="Eth" unicode="Ð" horiz-adv-x="446" d="M311 696c41.333 0 75.333-7.167 102-21.5s41.667-38.5 45-72.5c1.333-24-.334-58.5-5.001-103.5s-12.667-94.833-24-149.5l-29-145.5c-8-39.667-18.667-73.167-32-100.5-20.667-39.333-46.167-66.333-76.5-81S228.333 0 193 0H12l58 299H26l16 86h44l61 311h164zm-55-134l-35-177h44l-17-86h-44l-32-168h24c21.333 0 36 5 44 15s14 25 18 45l36 185.5 19 99 7.5 41c1 5.667 1.5 9.5 1.5 11.5 0 11.333-3 19.833-9 25.5s-17 8.5-33 8.5h-24z"/><glyph glyph-name="Ntilde" unicode="Ñ" horiz-adv-x="481" d="M327 307l69 388.999h133l-135-696H278l-41 220-22 132h-5l-67-352H8l135 696h119l37-216c2-10.667 4.167-23.5 6.5-38.5s4.5-30.667 6.5-47l6-47.5c2-15.333 3.333-28.666 4-39.999h5zm-31 555.999c10 0 19.669-1.834 29.002-5.501s18-7.5 26-11.5l22.5-11.5c7-3.667 13.5-5.5 19.5-5.5 4 0 7.833.167 11.5.5s7.667 1.5 12 3.5 9.166 5.333 14.499 10 11.666 11 18.999 19l58-36c-17.333-37.333-35.833-62.333-55.5-75s-38.5-19-56.5-19c-11.333 0-21.5 1.833-30.5 5.5s-17.333 7.667-25 12l-22 12c-7 3.667-14.5 5.5-22.5 5.5-7.333 0-15.333-2.167-24-6.5s-19.667-14.166-33-29.499l-57 42c20.667 36 40.5 60 59.5 72s37.167 18 54.5 18z"/><glyph glyph-name="Ograve" unicode="Ò" horiz-adv-x="445" d="M288 567c-11.333 0-21-3.335-29-10.002s-13.667-17.667-17-33l-66-342c-.667-3.333-1.167-6.166-1.5-8.499s-.5-4.833-.5-7.5c0-24.667 11.667-37 35-37 11.333 0 21 3.167 29 9.5s13.667 17.5 17 33.5l66 340c1.333 3.333 2 6.5 2 9.5v9.5c0 12.667-3.333 21.834-10 27.501s-15 8.5-25 8.5zm8 134.998c50 0 90.001-12.667 120.001-38s45-62 45-110c0-17.333-2-35.333-6-54l-62-330c-10-54.667-30-97.667-60-129s-74.333-47-133-47c-52.667 0-92.834 13.667-120.501 41S38 98.664 38 143.997c0 7.333.5 15 1.5 23s2.167 16 3.5 24l64 336c6 30 13.833 55.833 23.5 77.5s22 39.834 37 54.501 33 25.5 54 32.5 45.833 10.5 74.5 10.5zm48.001 16l-188 107 77 93 160-132z"/><glyph glyph-name="Oacute" unicode="Ó" horiz-adv-x="445" d="M288 567c-11.333 0-21-3.335-29-10.002s-13.667-17.667-17-33l-66-342c-.667-3.333-1.167-6.166-1.5-8.499s-.5-4.833-.5-7.5c0-24.667 11.667-37 35-37 11.333 0 21 3.167 29 9.5s13.667 17.5 17 33.5l66 340c1.333 3.333 2 6.5 2 9.5v9.5c0 12.667-3.333 21.834-10 27.501s-15 8.5-25 8.5zm8 134.998c50 0 90.001-12.667 120.001-38s45-62 45-110c0-17.333-2-35.333-6-54l-62-330c-10-54.667-30-97.667-60-129s-74.333-47-133-47c-52.667 0-92.834 13.667-120.501 41S38 98.664 38 143.997c0 7.333.5 15 1.5 23s2.167 16 3.5 24l64 336c6 30 13.833 55.833 23.5 77.5s22 39.834 37 54.501 33 25.5 54 32.5 45.833 10.5 74.5 10.5zm-23.999 84l193 130 58-93-215-105z"/><glyph glyph-name="Ocircumflex" unicode="Ô" horiz-adv-x="445" d="M288 567c-11.333 0-21-3.335-29-10.002s-13.667-17.667-17-33l-66-342c-.667-3.333-1.167-6.166-1.5-8.499s-.5-4.833-.5-7.5c0-24.667 11.667-37 35-37 11.333 0 21 3.167 29 9.5s13.667 17.5 17 33.5l66 340c1.333 3.333 2 6.5 2 9.5v9.5c0 12.667-3.333 21.834-10 27.501s-15 8.5-25 8.5zm8 134.998c50 0 90.001-12.667 120.001-38s45-62 45-110c0-17.333-2-35.333-6-54l-62-330c-10-54.667-30-97.667-60-129s-74.333-47-133-47c-52.667 0-92.834 13.667-120.501 41S38 98.664 38 143.997c0 7.333.5 15 1.5 23s2.167 16 3.5 24l64 336c6 30 13.833 55.833 23.5 77.5s22 39.834 37 54.501 33 25.5 54 32.5 45.833 10.5 74.5 10.5zm38.001 108l-140-86-47 47 162 145h79l101-144-57-48z"/><glyph glyph-name="Otilde" unicode="Õ" horiz-adv-x="445" d="M288 567c-11.333 0-21-3.335-29-10.002s-13.667-17.667-17-33l-66-342c-.667-3.333-1.167-6.166-1.5-8.499s-.5-4.833-.5-7.5c0-24.667 11.667-37 35-37 11.333 0 21 3.167 29 9.5s13.667 17.5 17 33.5l66 340c1.333 3.333 2 6.5 2 9.5v9.5c0 12.667-3.333 21.834-10 27.501s-15 8.5-25 8.5zm8 134.998c50 0 90.001-12.667 120.001-38s45-62 45-110c0-17.333-2-35.333-6-54l-62-330c-10-54.667-30-97.667-60-129s-74.333-47-133-47c-52.667 0-92.834 13.667-120.501 41S38 98.664 38 143.997c0 7.333.5 15 1.5 23s2.167 16 3.5 24l64 336c6 30 13.833 55.833 23.5 77.5s22 39.834 37 54.501 33 25.5 54 32.5 45.833 10.5 74.5 10.5zm-25.999 161c10 0 19.669-1.834 29.002-5.501s18-7.5 26-11.5l22.5-11.5c7-3.667 13.5-5.5 19.5-5.5 4 0 7.833.167 11.5.5s7.667 1.5 12 3.5 9.166 5.333 14.499 10 11.666 11 18.999 19l58-36c-17.333-37.333-35.833-62.333-55.5-75s-38.5-19-56.5-19c-11.333 0-21.5 1.833-30.5 5.5s-17.333 7.667-25 12l-22 12c-7 3.667-14.5 5.5-22.5 5.5-7.333 0-15.333-2.167-24-6.5s-19.667-14.166-33-29.499l-57 42c20.667 36 40.5 60 59.5 72s37.167 18 54.5 18z"/><glyph glyph-name="Odieresis" unicode="Ö" horiz-adv-x="445" d="M288 567c-11.333 0-21-3.335-29-10.002s-13.667-17.667-17-33l-66-342c-.667-3.333-1.167-6.166-1.5-8.499s-.5-4.833-.5-7.5c0-24.667 11.667-37 35-37 11.333 0 21 3.167 29 9.5s13.667 17.5 17 33.5l66 340c1.333 3.333 2 6.5 2 9.5v9.5c0 12.667-3.333 21.834-10 27.501s-15 8.5-25 8.5zm8 134.998c50 0 90.001-12.667 120.001-38s45-62 45-110c0-17.333-2-35.333-6-54l-62-330c-10-54.667-30-97.667-60-129s-74.333-47-133-47c-52.667 0-92.834 13.667-120.501 41S38 98.664 38 143.997c0 7.333.5 15 1.5 23s2.167 16 3.5 24l64 336c6 30 13.833 55.833 23.5 77.5s22 39.834 37 54.501 33 25.5 54 32.5 45.833 10.5 74.5 10.5zm52.001 27l25 130h119l-25-130h-119zm-174 0l25 130h118l-25-130h-118z"/><glyph glyph-name="multiply" unicode="×" horiz-adv-x="430" d="M310 288l97-128-89-73-99 128L70 95 6 179l150 120-98 128 88 73 99-128 149 121 64-85z"/><glyph glyph-name="Oslash" unicode="Ø" horiz-adv-x="445" d="M296 702c31.333 0 58.667-5.001 82-15.001s42-24.667 56-44l39 59 31-20-51-76c5.333-16 8-33.333 8-52 0-17.333-2-35.333-6-54l-62-330c-10-54.667-30-97.667-60-129s-74.333-47-133-47c-28 0-52.333 4-73 12s-38 19-52 33l-30-45-28 18 37 57c-10.667 20.667-16 45.667-16 75 0 7.333.5 15 1.5 23s2.167 16 3.5 24l64 336c6 30 13.833 55.833 23.5 77.5s22 39.834 37 54.501 33 25.5 54 32.5S267.333 702 296 702zm-7.999-135.001c-11.333 0-21-3.334-29-10.001s-13.667-17.667-17-33l-47-243 115 174 11 57c1.333 3.333 2 6.5 2 9.5v9.5c0 12.667-3.333 21.834-10 27.501s-15 8.5-25 8.5zm-79-438.001c11.333 0 21 3.166 29 9.499s13.667 17.5 17 33.5l37 193-114-172-2-11c-.667-3.333-1.167-6.166-1.5-8.499s-.5-4.833-.5-7.5c0-24.667 11.667-37 35-37z"/><glyph glyph-name="Ugrave" unicode="Ù" horiz-adv-x="445" d="M495 696L392.999 170c-23.333-117.333-88.333-176-195-176-26.667 0-51 4-73 12s-40.333 19.667-55 35-25 34.333-31 57-6 49 0 79l101 519h136l-102-518c-3.333-16-1.166-28.167 6.501-36.5S197.667 129 209 129s21 3.167 29 9.5 13.667 17.5 17 33.5l102 524h138zm-143.001 22l-188 107 77 93 160-132z"/><glyph glyph-name="Uacute" unicode="Ú" horiz-adv-x="445" d="M495 696L392.999 170c-23.333-117.333-88.333-176-195-176-26.667 0-51 4-73 12s-40.333 19.667-55 35-25 34.333-31 57-6 49 0 79l101 519h136l-102-518c-3.333-16-1.166-28.167 6.501-36.5S197.667 129 209 129s21 3.167 29 9.5 13.667 17.5 17 33.5l102 524h138zm-223.001 90l193 130 58-93-215-105z"/><glyph glyph-name="Ucircumflex" unicode="Û" horiz-adv-x="445" d="M495 696L392.999 170c-23.333-117.333-88.333-176-195-176-26.667 0-51 4-73 12s-40.333 19.667-55 35-25 34.333-31 57-6 49 0 79l101 519h136l-102-518c-3.333-16-1.166-28.167 6.501-36.5S197.667 129 209 129s21 3.167 29 9.5 13.667 17.5 17 33.5l102 524h138zM339.999 810l-140-86-47 47 162 145h79l101-144-57-48z"/><glyph glyph-name="Udieresis" unicode="Ü" horiz-adv-x="445" d="M495 696L392.999 170c-23.333-117.333-88.333-176-195-176-26.667 0-51 4-73 12s-40.333 19.667-55 35-25 34.333-31 57-6 49 0 79l101 519h136l-102-518c-3.333-16-1.166-28.167 6.501-36.5S197.667 129 209 129s21 3.167 29 9.5 13.667 17.5 17 33.5l102 524h138zm-140.001 33l25 130h119l-25-130h-119zm-174 0l25 130h118l-25-130h-118z"/><glyph glyph-name="Yacute" unicode="Ý" horiz-adv-x="414" d="M255 436l103 260h148L289 273 236 0H99l53 273-54 423h141l5-138c.667-22 1.5-41.667 2.5-59s1.167-38.333.5-63h8zm-5 350l193 130 58-93-215-105z"/><glyph glyph-name="Thorn" unicode="Þ" horiz-adv-x="428" d="M283 575c48.667 0 88.167-11 118.5-33S447 482.667 447 430c0-41.333-4.833-79.833-14.5-115.5s-24.5-67-44.5-94-45-48.167-75-63.5-65.333-23-106-23h-34L147 0H11l135 696h135l-24-121h26zm-50-130l-35-180h21c10 0 20.667 2.5 32 7.5s21.5 12.667 30.5 23 16.5 23.333 22.5 39 9 34.167 9 55.5c0 20-4.833 34.167-14.5 42.5S275.333 445 258 445h-25z"/><glyph glyph-name="germandbls" unicode="ß" horiz-adv-x="429" d="M373 429c19.333-12 31.498-27.997 36.498-47.997s5.167-42 .5-66l-21.5-126c-6.333-38.667-15.5-72.5-27.5-101.5s-28.333-51.667-49-68-49.334-24.5-86.001-24.5c-7.333 0-15 .333-23 1s-16.667 2-26 4l22 114c8.667 0 17.167 2.833 25.5 8.5s13.833 15.167 16.5 28.5l31 159c4 21.333 3.667 36.166-1 44.499s-13.667 14.166-27 17.499l21 107c12 1.333 20.833 6.5 26.5 15.5s9.834 21.167 12.501 36.5c3.333 18 5.333 29.167 6 33.5s1 7.166 1 8.499c0 6.667-1.667 12.334-5 17s-9.666 7-18.999 7c-10 0-18-4.166-24-12.5s-9.667-16.5-11-24.5l-108-560h-137l108 560c4.667 24 11.834 46.168 21.501 66.5s22.334 37.834 38.001 52.5 34.167 26.168 55.5 34.5 46 12.5 74 12.5c33.333 0 60.166-5.166 80.499-15.5S420 686 430 668s15.667-38.832 17-62.5-.667-48.833-6-75.5c-3.333-18-10.333-36.333-21-55s-25.667-32.667-45-42z"/><glyph glyph-name="agrave" unicode="à" horiz-adv-x="401" d="M182 120c6 0 12.666 3 19.999 9s13.666 20.667 18.999 44l27 139c1.333 4.667 2.333 9.334 3 14.001s1 9.667 1 15c0 7.333-1.667 13.833-5 19.5s-10 8.5-20 8.5c-7.333 0-13.5-2.333-18.5-7s-8.167-9.667-9.5-15c-2-4-5.167-14.5-9.5-31.5s-8.666-36.333-12.999-58S168.333 214.167 165 192.5s-5-39.167-5-52.5c0-12 7.333-18.667 22-20zm8.999-120l7.998 39h-5c-12-16.667-26.333-28.5-43-35.5S121.33-7 111.997-7c-36.667 0-61.667 8.5-75 25.5s-20 38.5-20 64.5c0 21.333 1.833 47.833 5.5 79.5S32.331 231 40.998 273c7.333 38 15.5 71.167 24.5 99.5s19.833 52 32.5 71 27.834 33.167 45.501 42.5 38.5 14 62.5 14c11.333 0 23.5-2.833 36.5-8.5s23.167-17.167 30.5-34.5l4 2 9 35h136L326 0H191zm63.998 537l-129 194 97 52 97-212z"/><glyph glyph-name="aacute" unicode="á" horiz-adv-x="401" d="M182 120c6 0 12.666 3 19.999 9s13.666 20.667 18.999 44l27 139c1.333 4.667 2.333 9.334 3 14.001s1 9.667 1 15c0 7.333-1.667 13.833-5 19.5s-10 8.5-20 8.5c-7.333 0-13.5-2.333-18.5-7s-8.167-9.667-9.5-15c-2-4-5.167-14.5-9.5-31.5s-8.666-36.333-12.999-58S168.333 214.167 165 192.5s-5-39.167-5-52.5c0-12 7.333-18.667 22-20zm8.999-120l7.998 39h-5c-12-16.667-26.333-28.5-43-35.5S121.33-7 111.997-7c-36.667 0-61.667 8.5-75 25.5s-20 38.5-20 64.5c0 21.333 1.833 47.833 5.5 79.5S32.331 231 40.998 273c7.333 38 15.5 71.167 24.5 99.5s19.833 52 32.5 71 27.834 33.167 45.501 42.5 38.5 14 62.5 14c11.333 0 23.5-2.833 36.5-8.5s23.167-17.167 30.5-34.5l4 2 9 35h136L326 0H191zm48.998 574l136 186 98-54-170-175z"/><glyph glyph-name="acircumflex" unicode="â" horiz-adv-x="401" d="M182 120c6 0 12.666 3 19.999 9s13.666 20.667 18.999 44l27 139c1.333 4.667 2.333 9.334 3 14.001s1 9.667 1 15c0 7.333-1.667 13.833-5 19.5s-10 8.5-20 8.5c-7.333 0-13.5-2.333-18.5-7s-8.167-9.667-9.5-15c-2-4-5.167-14.5-9.5-31.5s-8.666-36.333-12.999-58S168.333 214.167 165 192.5s-5-39.167-5-52.5c0-12 7.333-18.667 22-20zm8.999-120l7.998 39h-5c-12-16.667-26.333-28.5-43-35.5S121.33-7 111.997-7c-36.667 0-61.667 8.5-75 25.5s-20 38.5-20 64.5c0 21.333 1.833 47.833 5.5 79.5S32.331 231 40.998 273c7.333 38 15.5 71.167 24.5 99.5s19.833 52 32.5 71 27.834 33.167 45.501 42.5 38.5 14 62.5 14c11.333 0 23.5-2.833 36.5-8.5s23.167-17.167 30.5-34.5l4 2 9 35h136L326 0H191zm104.998 620l-146-105-43 47 165 159h79l101-169-57-33z"/><glyph glyph-name="atilde" unicode="ã" horiz-adv-x="401" d="M182 120c6 0 12.666 3 19.999 9s13.666 20.667 18.999 44l27 139c1.333 4.667 2.333 9.334 3 14.001s1 9.667 1 15c0 7.333-1.667 13.833-5 19.5s-10 8.5-20 8.5c-7.333 0-13.5-2.333-18.5-7s-8.167-9.667-9.5-15c-2-4-5.167-14.5-9.5-31.5s-8.666-36.333-12.999-58S168.333 214.167 165 192.5s-5-39.167-5-52.5c0-12 7.333-18.667 22-20zm8.999-120l7.998 39h-5c-12-16.667-26.333-28.5-43-35.5S121.33-7 111.997-7c-36.667 0-61.667 8.5-75 25.5s-20 38.5-20 64.5c0 21.333 1.833 47.833 5.5 79.5S32.331 231 40.998 273c7.333 38 15.5 71.167 24.5 99.5s19.833 52 32.5 71 27.834 33.167 45.501 42.5 38.5 14 62.5 14c11.333 0 23.5-2.833 36.5-8.5s23.167-17.167 30.5-34.5l4 2 9 35h136L326 0H191zm51.998 683c10 0 19.669-1.834 29.002-5.501s18-7.5 26-11.5l22.5-11.5c7-3.667 13.5-5.5 19.5-5.5 4 0 7.833.167 11.5.5s7.667 1.5 12 3.5 9.166 5.333 14.499 10 11.666 11 18.999 19l58-36c-17.333-37.333-35.833-62.333-55.5-75s-38.5-19-56.5-19c-11.333 0-21.5 1.833-30.5 5.5s-17.333 7.667-25 12l-22 12c-7 3.667-14.5 5.5-22.5 5.5-7.333 0-15.333-2.167-24-6.5s-19.667-14.166-33-29.499l-57 42c20.667 36 40.5 60 59.5 72s37.167 18 54.5 18z"/><glyph glyph-name="adieresis" unicode="ä" horiz-adv-x="401" d="M182 120c6 0 12.666 3 19.999 9s13.666 20.667 18.999 44l27 139c1.333 4.667 2.333 9.334 3 14.001s1 9.667 1 15c0 7.333-1.667 13.833-5 19.5s-10 8.5-20 8.5c-7.333 0-13.5-2.333-18.5-7s-8.167-9.667-9.5-15c-2-4-5.167-14.5-9.5-31.5s-8.666-36.333-12.999-58S168.333 214.167 165 192.5s-5-39.167-5-52.5c0-12 7.333-18.667 22-20zm8.999-120l7.998 39h-5c-12-16.667-26.333-28.5-43-35.5S121.33-7 111.997-7c-36.667 0-61.667 8.5-75 25.5s-20 38.5-20 64.5c0 21.333 1.833 47.833 5.5 79.5S32.331 231 40.998 273c7.333 38 15.5 71.167 24.5 99.5s19.833 52 32.5 71 27.834 33.167 45.501 42.5 38.5 14 62.5 14c11.333 0 23.5-2.833 36.5-8.5s23.167-17.167 30.5-34.5l4 2 9 35h136L326 0H191zm119.998 547l25 130h119l-25-130h-119zm-174 0l25 130h118l-25-130h-118z"/><glyph glyph-name="aring" unicode="å" horiz-adv-x="401" d="M182 120c6 0 12.666 3 19.999 9s13.666 20.667 18.999 44l27 139c1.333 4.667 2.333 9.334 3 14.001s1 9.667 1 15c0 7.333-1.667 13.833-5 19.5s-10 8.5-20 8.5c-7.333 0-13.5-2.333-18.5-7s-8.167-9.667-9.5-15c-2-4-5.167-14.5-9.5-31.5s-8.666-36.333-12.999-58S168.333 214.167 165 192.5s-5-39.167-5-52.5c0-12 7.333-18.667 22-20zm8.999-120l7.998 39h-5c-12-16.667-26.333-28.5-43-35.5S121.33-7 111.997-7c-36.667 0-61.667 8.5-75 25.5s-20 38.5-20 64.5c0 21.333 1.833 47.833 5.5 79.5S32.331 231 40.998 273c7.333 38 15.5 71.167 24.5 99.5s19.833 52 32.5 71 27.834 33.167 45.501 42.5 38.5 14 62.5 14c11.333 0 23.5-2.833 36.5-8.5s23.167-17.167 30.5-34.5l4 2 9 35h136L326 0H191zm83.998 519c-25.333 0-46.832 7.667-64.499 23s-26.5 34.666-26.5 57.999c0 16 2.667 31.5 8 46.5s13 28 23 39 22.167 19.833 36.5 26.5 30.166 10 47.499 10c25.333 0 46.833-7.667 64.5-23s26.5-34.666 26.5-57.999c0-16-2.5-31.5-7.5-46.5s-12.5-28-22.5-39-22.167-19.833-36.5-26.5-30.5-10-48.5-10zm17.001 131c-9.333 0-17.666-3.669-24.999-11.002s-11-15.666-11-24.999c0-7.333 2.667-13.333 8-18s11.666-7 18.999-7c9.333 0 17.666 3.333 24.999 10s11 15.334 11 26.001c0 7.333-2.667 13.333-8 18s-11.666 7-18.999 7z"/><glyph glyph-name="ae" unicode="æ" horiz-adv-x="625" d="M567 145c-14-50-36.503-87.669-67.503-113.002s-73.167-38-126.5-38c-32.667 0-59.167 5.333-79.5 16s-35.833 26-46.5 46c-12-14.667-24.667-26.167-38-34.5s-26.166-14.5-38.499-18.5-23.833-6.5-34.5-7.5-19.334-1.5-26-1.5c-37.334 0-63.167 9-77.5 27s-21.5 41.667-21.5 71c0 22.667 2.5 46.5 7.5 71.5s15 47.667 30 68 36.667 37.166 65 50.499 65.5 20 111.5 20h11.5c3.667 0 7.5-.333 11.5-1l8 42c.667 2.667 1 6.334 1 11.001 0 6-2 10.833-6 14.5s-11 5.5-21 5.5c-6.667 0-14-2-22-6s-15.667-14.667-23-32l-112 37c19.333 44 45.166 76.333 77.5 97s71.5 31 117.5 31c18.666 0 35.333-2.167 50-6.5s26.667-11.166 36-20.499c14 9.333 29.833 16.5 47.5 21.5s38.167 7.5 61.5 7.5c48 0 85.5-11 112.5-33s40.5-52 40.5-90c0-32.667-5.667-60.5-17-83.5s-26.5-41.833-45.5-56.5-40.667-25.334-65-32.001-49.833-10-76.5-10c-6 0-12 .167-18 .5s-12 .833-18 1.5c-2.667-9.333-4.5-18.166-5.5-26.499s-1.5-15.166-1.5-20.499c.667-8.667 2.334-16 5.001-22s8.334-9 17.001-9c9.333 0 17.5 2.833 24.5 8.5S428 146 432 160zm-337.003 62.998h-12.002c-44 0-66-20.333-66-61 0-9.333 2.667-16 8-20s12.333-6 21-6c10.667 0 19.334 4 26.001 12s11.334 18.333 14.001 31zm219.998 169c-14 0-25.333-6.167-34-18.5s-15-29.833-19-52.5h11c20.667 0 36.667 4.333 48 13s17 21.667 17 39c0 12.667-7.667 19-23 19z"/><glyph glyph-name="ccedilla" unicode="ç" horiz-adv-x="381" d="M349 150c-9.333-46-27.998-82.666-55.998-109.999s-64.667-42.333-110-45l-16-31c28.667-4 48-13.333 58-28s15-29.334 15-44.001c0-7.333-1.333-16.666-4-27.999s-8-22.5-16-33.5-19.5-20.5-34.5-28.5-35.167-12-60.5-12c-2.667 0-7.334.167-14.001.5s-14.5 1.166-23.5 2.499-18.833 3.666-29.5 6.999S36.667-192.335 26-187.002l31 58c14-6.667 25.5-10.834 34.5-12.501s17.167-2.5 24.5-2.5c11.333 0 20.5 3.167 27.5 9.5s10.5 13.833 10.5 22.5-3 14.334-9 17.001-14 4-24 4l-30 23 34 66c-34.667 7.333-59.5 21.5-74.5 42.5s-23.167 44.167-24.5 69.5c-1.333 16.667-.5 37.334 2.5 62.001s6.167 49 9.5 73c4.667 30 11 60.5 19 91.5s17.333 56.5 28 76.5c13.333 26 33.166 47.5 59.499 64.5s59.5 25.5 99.5 25.5c24.667 0 46.834-3.5 66.501-10.5s35.667-17.333 48-31 20.833-30.5 25.5-50.5 4.667-43 0-69l-136-15c3.333 17.333 3.333 29.833 0 37.5s-8.666 11.5-15.999 11.5c-11.333 0-20.333-6.667-27-20-3.333-5.333-7.5-17.5-12.5-36.5s-10.167-42.5-15.5-70.5-9.166-50.5-11.499-67.5-3.5-29.5-3.5-37.5c1.333-14.667 8-22 20-22 7.333 0 14.166 3.333 20.499 10S213.667 150.333 217 167l132-17z"/><glyph glyph-name="egrave" unicode="è" horiz-adv-x="408" d="M352 145c-5.333-22-12.333-42.168-21-60.501s-19.834-34.333-33.501-48-30.334-24.167-50.001-31.5-43.5-11-71.5-11c-30 0-54.833 4.167-74.5 12.5s-35.167 19.666-46.5 33.999-19.166 30.833-23.499 49.5-6.5 38-6.5 58c0 17.333 1 34.666 3 51.999s4.667 34 8 50c5.333 30 12 60 20 90s19.167 57.167 33.5 81.5 32.833 44 55.5 59 51.667 22.5 87 22.5c48 0 85.5-11 112.5-33s40.5-52 40.5-90c0-33.333-5.167-61.5-15.5-84.5s-24.333-41.667-42-56-38.167-24.666-61.5-30.999-48-9.5-74-9.5h-12.5c-3.667 0-8.167.333-13.5 1-2.667-9.333-4.5-19.166-5.5-29.499s-1.5-18.166-1.5-23.499c.667-16.667 7.334-25 20.001-25 9.333 0 16.833 2.833 22.5 8.5S212 146 216 160zM229 376.999c-12.667 0-22.168-6.166-28.501-18.499s-11.5-29.833-15.5-52.5c24.667 0 41.834 4 51.501 12s14.5 20.667 14.5 38c0 5.333-1.833 10.166-5.5 14.499s-9.167 6.5-16.5 6.5zM265.999 537l-129 194 97 52 97-212z"/><glyph glyph-name="eacute" unicode="é" horiz-adv-x="408" d="M352 145c-5.333-22-12.333-42.168-21-60.501s-19.834-34.333-33.501-48-30.334-24.167-50.001-31.5-43.5-11-71.5-11c-30 0-54.833 4.167-74.5 12.5s-35.167 19.666-46.5 33.999-19.166 30.833-23.499 49.5-6.5 38-6.5 58c0 17.333 1 34.666 3 51.999s4.667 34 8 50c5.333 30 12 60 20 90s19.167 57.167 33.5 81.5 32.833 44 55.5 59 51.667 22.5 87 22.5c48 0 85.5-11 112.5-33s40.5-52 40.5-90c0-33.333-5.167-61.5-15.5-84.5s-24.333-41.667-42-56-38.167-24.666-61.5-30.999-48-9.5-74-9.5h-12.5c-3.667 0-8.167.333-13.5 1-2.667-9.333-4.5-19.166-5.5-29.499s-1.5-18.166-1.5-23.499c.667-16.667 7.334-25 20.001-25 9.333 0 16.833 2.833 22.5 8.5S212 146 216 160zM229 376.999c-12.667 0-22.168-6.166-28.501-18.499s-11.5-29.833-15.5-52.5c24.667 0 41.834 4 51.501 12s14.5 20.667 14.5 38c0 5.333-1.833 10.166-5.5 14.499s-9.167 6.5-16.5 6.5zM208.999 574l136 186 98-54-170-175z"/><glyph glyph-name="ecircumflex" unicode="ê" horiz-adv-x="408" d="M352 145c-5.333-22-12.333-42.168-21-60.501s-19.834-34.333-33.501-48-30.334-24.167-50.001-31.5-43.5-11-71.5-11c-30 0-54.833 4.167-74.5 12.5s-35.167 19.666-46.5 33.999-19.166 30.833-23.499 49.5-6.5 38-6.5 58c0 17.333 1 34.666 3 51.999s4.667 34 8 50c5.333 30 12 60 20 90s19.167 57.167 33.5 81.5 32.833 44 55.5 59 51.667 22.5 87 22.5c48 0 85.5-11 112.5-33s40.5-52 40.5-90c0-33.333-5.167-61.5-15.5-84.5s-24.333-41.667-42-56-38.167-24.666-61.5-30.999-48-9.5-74-9.5h-12.5c-3.667 0-8.167.333-13.5 1-2.667-9.333-4.5-19.166-5.5-29.499s-1.5-18.166-1.5-23.499c.667-16.667 7.334-25 20.001-25 9.333 0 16.833 2.833 22.5 8.5S212 146 216 160zM229 376.999c-12.667 0-22.168-6.166-28.501-18.499s-11.5-29.833-15.5-52.5c24.667 0 41.834 4 51.501 12s14.5 20.667 14.5 38c0 5.333-1.833 10.166-5.5 14.499s-9.167 6.5-16.5 6.5zM275.999 620l-146-105-43 47 165 159h79l101-169-57-33z"/><glyph glyph-name="edieresis" unicode="ë" horiz-adv-x="408" d="M352 145c-5.333-22-12.333-42.168-21-60.501s-19.834-34.333-33.501-48-30.334-24.167-50.001-31.5-43.5-11-71.5-11c-30 0-54.833 4.167-74.5 12.5s-35.167 19.666-46.5 33.999-19.166 30.833-23.499 49.5-6.5 38-6.5 58c0 17.333 1 34.666 3 51.999s4.667 34 8 50c5.333 30 12 60 20 90s19.167 57.167 33.5 81.5 32.833 44 55.5 59 51.667 22.5 87 22.5c48 0 85.5-11 112.5-33s40.5-52 40.5-90c0-33.333-5.167-61.5-15.5-84.5s-24.333-41.667-42-56-38.167-24.666-61.5-30.999-48-9.5-74-9.5h-12.5c-3.667 0-8.167.333-13.5 1-2.667-9.333-4.5-19.166-5.5-29.499s-1.5-18.166-1.5-23.499c.667-16.667 7.334-25 20.001-25 9.333 0 16.833 2.833 22.5 8.5S212 146 216 160zM229 376.999c-12.667 0-22.168-6.166-28.501-18.499s-11.5-29.833-15.5-52.5c24.667 0 41.834 4 51.501 12s14.5 20.667 14.5 38c0 5.333-1.833 10.166-5.5 14.499s-9.167 6.5-16.5 6.5zM290.999 547l25 130h119l-25-130h-119zm-174 0l25 130h118l-25-130h-118z"/><glyph glyph-name="igrave" unicode="ì" horiz-adv-x="306" d="M74 0l96 494h137L211 0H74zm140 537L85 731l97 52 97-212z"/><glyph glyph-name="iacute" unicode="í" horiz-adv-x="270" d="M5 0l96 494h137L142 0H5zm150 574l136 186 98-54-170-175z"/><glyph glyph-name="icircumflex" unicode="î" horiz-adv-x="302" d="M45 0l96 494h137L182 0H45zm196 620L95 515l-43 47 165 159h79l101-169-57-33z"/><glyph glyph-name="idieresis" unicode="ï" horiz-adv-x="302" d="M45 0l96 494h137L182 0H45zm204 547l25 130h119l-25-130H249zm-174 0l25 130h118l-25-130H75z"/><glyph glyph-name="eth" unicode="ð" horiz-adv-x="400" d="M473 659l-64-42c2.667-9.333 4.834-19.5 6.501-30.5s2.5-23.833 2.5-38.5c0-11.333-.5-25.833-1.5-43.5s-3-39.334-6-65.001-7.333-55.834-13-90.501-12.834-74.667-21.501-120c-6.667-34.667-15-66.834-25-96.501s-23-55.167-39-76.5-35.333-37.666-58-48.999-50-16-82-14c-28 1.333-51.5 6.5-70.5 15.5S67.333 28.331 56 40.998s-19.5 26.667-24.5 42-7.5 30.333-7.5 45c0 16 1.833 36 5.5 60s8.334 48.667 14.001 74 12 49.5 19 72.5 14.167 42.167 21.5 57.5c13.333 28 30.666 49 51.999 63s46 21 74 21c4 0 9.833-.5 17.5-1.5s15.834-3.167 24.501-6.5 17-7.833 25-13.5 14.333-12.834 19-21.501c2.667 13.333 4.667 26.5 6 39.5s2 25.167 2 36.5v20c0 6.667-.333 13-1 19l-52-34-25 43 61 40c-7.333 10.667-18.166 18.834-32.499 24.501s-34.5 10.167-60.5 13.5l23 97c41.333-2.667 74.666-9.667 99.999-21s43.666-22.666 54.999-33.999c2-2.667 4.167-5.167 6.5-7.5s4.5-5.166 6.5-8.499l62 41zM228 347c-7.333 0-13.333-1.669-18-5.002s-9-9.166-13-17.499-7.667-19.666-11-33.999-7-32.5-11-54.5c-1.333-6-2.666-12.667-3.999-20s-2.833-15-4.5-23-3-15.833-4-23.5-1.5-14.167-1.5-19.5c0-8 1.5-14.667 4.5-20s9.167-8 18.5-8 16.166 2.833 20.499 8.5 7.166 10.167 8.499 13.5c1.333 4.667 4.333 16 9 34s9.334 37.333 14.001 58c4 18 7.333 35 10 51s4 28.333 4 37c0 6.667-2 12.167-6 16.5s-9.333 6.5-16 6.5z"/><glyph glyph-name="ntilde" unicode="ñ" horiz-adv-x="413" d="M229 447c11.333 16 26.501 29 45.501 39s36.167 15 51.5 15c18 0 32.5-2.167 43.5-6.5s19.5-10.333 25.5-18 10-16.5 12-26.5 3-20.667 3-32c0-7.333-.667-15.166-2-23.499l-4-24.5-71-370h-137l65 335c.667 3.333 1 7.666 1 12.999 0 8.667-2 14.667-6 18s-9 5-15 5c-11.333 0-20.333-4.667-27-14S202.667 336.667 200 324L139 0H2l96 495h137l-11-47zm4.001 236c10 0 19.669-1.834 29.002-5.501s18-7.5 26-11.5l22.5-11.5c7-3.667 13.5-5.5 19.5-5.5 4 0 7.833.167 11.5.5s7.667 1.5 12 3.5 9.166 5.333 14.499 10 11.666 11 18.999 19l58-36c-17.333-37.333-35.833-62.333-55.5-75s-38.5-19-56.5-19c-11.333 0-21.5 1.833-30.5 5.5s-17.333 7.667-25 12l-22 12c-7 3.667-14.5 5.5-22.5 5.5-7.333 0-15.333-2.167-24-6.5s-19.667-14.166-33-29.499l-57 42c20.667 36 40.5 60 59.5 72s37.167 18 54.5 18z"/><glyph glyph-name="ograve" unicode="ò" horiz-adv-x="401" d="M242 503c26 0 48.502-3.667 67.502-11s34.667-17.166 47-29.499 21.333-26.333 27-42 8.5-31.834 8.5-48.501c0-10.667-.5-22.5-1.5-35.5s-2.5-26.167-4.5-39.5l-6-40c-2-13.333-4-25.333-6-36-8-39.333-16.667-73.333-26-102s-21.333-52.334-36-71.001-32.834-32.5-54.501-41.5-48.5-13.5-80.5-13.5c-27.333 0-50.5 4.167-69.5 12.5s-34.5 19-46.5 32-20.667 27.5-26 43.5-8 31.667-8 47c0 18 1.167 36.667 3.5 56s5.5 39.666 9.5 60.999l10.5 49c3.667 16.667 7.5 32.834 11.5 48.501s8.5 30.334 13.5 44.001 10.167 25.167 15.5 34.5c15.333 27.333 36.166 47.833 62.499 61.5S209.333 503 242 503zm-.998 34l-129 194 97 52 97-212zm-5-161c-7.333 0-13.328-1.335-17.995-4.002s-8.834-8-12.501-16-7.334-19.333-11.001-34-7.834-33.667-12.501-57l-14-79c-1.333-7.333-2.333-13.833-3-19.5s-1-11.167-1-16.5c0-8 1.5-14.667 4.5-20s9.167-8 18.5-8c7.333 0 13.666 2.333 18.999 7s8.666 9.667 9.999 15c1.333 2.667 3.333 8.834 6 18.501s5.5 21.334 8.5 35.001 6 28.167 9 43.5l8.5 45c2.667 14.667 4.834 28 6.5 40s2.5 21 2.5 27c0 6.667-1.832 12.167-5.5 16.5s-8.833 6.5-15.5 6.5z"/><glyph glyph-name="oacute" unicode="ó" horiz-adv-x="401" d="M242 503c26 0 48.502-3.667 67.502-11s34.667-17.166 47-29.499 21.333-26.333 27-42 8.5-31.834 8.5-48.501c0-10.667-.5-22.5-1.5-35.5s-2.5-26.167-4.5-39.5l-6-40c-2-13.333-4-25.333-6-36-8-39.333-16.667-73.333-26-102s-21.333-52.334-36-71.001-32.834-32.5-54.501-41.5-48.5-13.5-80.5-13.5c-27.333 0-50.5 4.167-69.5 12.5s-34.5 19-46.5 32-20.667 27.5-26 43.5-8 31.667-8 47c0 18 1.167 36.667 3.5 56s5.5 39.666 9.5 60.999l10.5 49c3.667 16.667 7.5 32.834 11.5 48.501s8.5 30.334 13.5 44.001 10.167 25.167 15.5 34.5c15.333 27.333 36.166 47.833 62.499 61.5S209.333 503 242 503zm-41.998 71l136 186 98-54-170-175zm36-198c-7.333 0-13.328-1.335-17.995-4.002s-8.834-8-12.501-16-7.334-19.333-11.001-34-7.834-33.667-12.501-57l-14-79c-1.333-7.333-2.333-13.833-3-19.5s-1-11.167-1-16.5c0-8 1.5-14.667 4.5-20s9.167-8 18.5-8c7.333 0 13.666 2.333 18.999 7s8.666 9.667 9.999 15c1.333 2.667 3.333 8.834 6 18.501s5.5 21.334 8.5 35.001 6 28.167 9 43.5l8.5 45c2.667 14.667 4.834 28 6.5 40s2.5 21 2.5 27c0 6.667-1.832 12.167-5.5 16.5s-8.833 6.5-15.5 6.5z"/><glyph glyph-name="ocircumflex" unicode="ô" horiz-adv-x="401" d="M242 503c26 0 48.502-3.667 67.502-11s34.667-17.166 47-29.499 21.333-26.333 27-42 8.5-31.834 8.5-48.501c0-10.667-.5-22.5-1.5-35.5s-2.5-26.167-4.5-39.5l-6-40c-2-13.333-4-25.333-6-36-8-39.333-16.667-73.333-26-102s-21.333-52.334-36-71.001-32.834-32.5-54.501-41.5-48.5-13.5-80.5-13.5c-27.333 0-50.5 4.167-69.5 12.5s-34.5 19-46.5 32-20.667 27.5-26 43.5-8 31.667-8 47c0 18 1.167 36.667 3.5 56s5.5 39.666 9.5 60.999l10.5 49c3.667 16.667 7.5 32.834 11.5 48.501s8.5 30.334 13.5 44.001 10.167 25.167 15.5 34.5c15.333 27.333 36.166 47.833 62.499 61.5S209.333 503 242 503zm32.002 117l-146-105-43 47 165 159h79l101-169-57-33zm-38-244c-7.333 0-13.328-1.335-17.995-4.002s-8.834-8-12.501-16-7.334-19.333-11.001-34-7.834-33.667-12.501-57l-14-79c-1.333-7.333-2.333-13.833-3-19.5s-1-11.167-1-16.5c0-8 1.5-14.667 4.5-20s9.167-8 18.5-8c7.333 0 13.666 2.333 18.999 7s8.666 9.667 9.999 15c1.333 2.667 3.333 8.834 6 18.501s5.5 21.334 8.5 35.001 6 28.167 9 43.5l8.5 45c2.667 14.667 4.834 28 6.5 40s2.5 21 2.5 27c0 6.667-1.832 12.167-5.5 16.5s-8.833 6.5-15.5 6.5z"/><glyph glyph-name="otilde" unicode="õ" horiz-adv-x="401" d="M242 503c26 0 48.502-3.667 67.502-11s34.667-17.166 47-29.499 21.333-26.333 27-42 8.5-31.834 8.5-48.501c0-10.667-.5-22.5-1.5-35.5s-2.5-26.167-4.5-39.5l-6-40c-2-13.333-4-25.333-6-36-8-39.333-16.667-73.333-26-102s-21.333-52.334-36-71.001-32.834-32.5-54.501-41.5-48.5-13.5-80.5-13.5c-27.333 0-50.5 4.167-69.5 12.5s-34.5 19-46.5 32-20.667 27.5-26 43.5-8 31.667-8 47c0 18 1.167 36.667 3.5 56s5.5 39.666 9.5 60.999l10.5 49c3.667 16.667 7.5 32.834 11.5 48.501s8.5 30.334 13.5 44.001 10.167 25.167 15.5 34.5c15.333 27.333 36.166 47.833 62.499 61.5S209.333 503 242 503zm-24.998 180c10 0 19.669-1.834 29.002-5.501s18-7.5 26-11.5l22.5-11.5c7-3.667 13.5-5.5 19.5-5.5 4 0 7.833.167 11.5.5s7.667 1.5 12 3.5 9.166 5.333 14.499 10 11.666 11 18.999 19l58-36c-17.333-37.333-35.833-62.333-55.5-75s-38.5-19-56.5-19c-11.333 0-21.5 1.833-30.5 5.5s-17.333 7.667-25 12l-22 12c-7 3.667-14.5 5.5-22.5 5.5-7.333 0-15.333-2.167-24-6.5s-19.667-14.166-33-29.499l-57 42c20.667 36 40.5 60 59.5 72s37.167 18 54.5 18zm19.002-307.001c-7.333 0-13.328-1.335-17.995-4.002s-8.834-8-12.501-16-7.334-19.333-11.001-34-7.834-33.667-12.501-57l-14-79c-1.333-7.333-2.333-13.833-3-19.5s-1-11.167-1-16.5c0-8 1.5-14.667 4.5-20s9.167-8 18.5-8c7.333 0 13.666 2.333 18.999 7s8.666 9.667 9.999 15c1.333 2.667 3.333 8.834 6 18.501s5.5 21.334 8.5 35.001 6 28.167 9 43.5l8.5 45c2.667 14.667 4.834 28 6.5 40s2.5 21 2.5 27c0 6.667-1.832 12.167-5.5 16.5s-8.833 6.5-15.5 6.5z"/><glyph glyph-name="odieresis" unicode="ö" horiz-adv-x="401" d="M242 503c26 0 48.502-3.667 67.502-11s34.667-17.166 47-29.499 21.333-26.333 27-42 8.5-31.834 8.5-48.501c0-10.667-.5-22.5-1.5-35.5s-2.5-26.167-4.5-39.5l-6-40c-2-13.333-4-25.333-6-36-8-39.333-16.667-73.333-26-102s-21.333-52.334-36-71.001-32.834-32.5-54.501-41.5-48.5-13.5-80.5-13.5c-27.333 0-50.5 4.167-69.5 12.5s-34.5 19-46.5 32-20.667 27.5-26 43.5-8 31.667-8 47c0 18 1.167 36.667 3.5 56s5.5 39.666 9.5 60.999l10.5 49c3.667 16.667 7.5 32.834 11.5 48.501s8.5 30.334 13.5 44.001 10.167 25.167 15.5 34.5c15.333 27.333 36.166 47.833 62.499 61.5S209.333 503 242 503zm40.002 44l25 130h119l-25-130h-119zm-174 0l25 130h118l-25-130h-118zm128-171c-7.333 0-13.328-1.335-17.995-4.002s-8.834-8-12.501-16-7.334-19.333-11.001-34-7.834-33.667-12.501-57l-14-79c-1.333-7.333-2.333-13.833-3-19.5s-1-11.167-1-16.5c0-8 1.5-14.667 4.5-20s9.167-8 18.5-8c7.333 0 13.666 2.333 18.999 7s8.666 9.667 9.999 15c1.333 2.667 3.333 8.834 6 18.501s5.5 21.334 8.5 35.001 6 28.167 9 43.5l8.5 45c2.667 14.667 4.834 28 6.5 40s2.5 21 2.5 27c0 6.667-1.832 12.167-5.5 16.5s-8.833 6.5-15.5 6.5z"/><glyph glyph-name="divide" unicode="÷" horiz-adv-x="430" d="M280 539c18 0 32.832-5.833 44.499-17.5s17.5-26.167 17.5-43.5c0-11.333-2.667-22.333-8-33s-12.166-20.167-20.499-28.5-18-15-29-20-22.167-7.5-33.5-7.5c-18 0-32.5 5.833-43.5 17.5S191 432.667 191 450c0 12 2.5 23.333 7.5 34s11.667 20 20 28 17.833 14.5 28.5 19.5 21.667 7.5 33 7.5zm-66.001-343c18 0 32.666-5.833 43.999-17.5s17-26.167 17-43.5c0-11.333-2.667-22.5-8-33.5s-12.166-20.667-20.499-29-18-15-29-20-22.167-7.5-33.5-7.5c-18 0-32.5 5.833-43.5 17.5s-16.5 26.167-16.5 43.5c0 11.333 2.5 22.5 7.5 33.5s11.667 20.667 20 29 18 15 29 20 22.167 7.5 33.5 7.5zm219.999 148l-20-107h-389l20 107h389z"/><glyph glyph-name="oslash" unicode="ø" horiz-adv-x="401" d="M242 503c19.333 0 36.834-2.169 52.501-6.502s29.167-10.166 40.5-17.499l41 63 26-16-43-67c11.333-12 19.666-25.667 24.999-41s8-30.666 8-45.999c0-10.667-.5-22.5-1.5-35.5S388 310.333 386 297l-6-40c-2-13.333-4-25.333-6-36-8-39.333-16.667-73.333-26-102s-21.333-52.334-36-71.001-32.834-32.5-54.501-41.5-48.5-13.5-80.5-13.5c-21.333 0-40.166 2.5-56.499 7.5s-30.166 11.833-41.499 20.5l-33-52-26 16 36 57c-10 12.667-17.333 26.5-22 41.5s-7 29.833-7 44.5c0 18 1.167 36.667 3.5 56s5.5 39.666 9.5 60.999l10.5 49c3.667 16.667 7.5 32.834 11.5 48.501s8.5 30.334 13.5 44.001 10.167 25.167 15.5 34.5c15.333 27.333 36.166 47.833 62.499 61.5S209.333 503 242 503zm-25.999-359.002c1.333 2.667 3.169 8.667 5.502 18s5 20.833 8 34.5l9.5 43.5a1343.488 1343.488 0 0 1 9 45l-84-131v-4c0-8 1.5-14.667 4.5-20s9.167-8 18.5-8c7.333 0 13.666 2.333 18.999 7s8.666 9.667 9.999 15zm20.003 232c-7.333 0-13.33-1.333-17.996-4s-8.834-8-12.501-16-7.334-19.333-11.001-34-7.834-33.667-12.501-57l-6-36 81 127c-.667 5.333-2.834 10-6.501 14s-8.5 6-14.5 6z"/><glyph glyph-name="ugrave" unicode="ù" horiz-adv-x="413" d="M203 48c-11.333-16-26.498-29.002-45.498-39.002s-36.167-15-51.5-15c-24 0-42.167 3.833-54.5 11.5s-20.833 17.834-25.5 30.501-6.334 26.667-5.001 42 3.666 31 6.999 47l71 370h137l-65-335c-2-9.333-1.5-17.666 1.5-24.999s9.167-11 18.5-11c8 0 16.167 4.667 24.5 14s13.833 20.333 16.5 33l61 324h137L334 0H197l11 47zm47.002 488.998l-129 194 97 52 97-212z"/><glyph glyph-name="uacute" unicode="ú" horiz-adv-x="413" d="M203 48c-11.333-16-26.498-29.002-45.498-39.002s-36.167-15-51.5-15c-24 0-42.167 3.833-54.5 11.5s-20.833 17.834-25.5 30.501-6.334 26.667-5.001 42 3.666 31 6.999 47l71 370h137l-65-335c-2-9.333-1.5-17.666 1.5-24.999s9.167-11 18.5-11c8 0 16.167 4.667 24.5 14s13.833 20.333 16.5 33l61 324h137L334 0H197l11 47zm31.002 525.998l136 186 98-54-170-175z"/><glyph glyph-name="ucircumflex" unicode="û" horiz-adv-x="413" d="M203 48c-11.333-16-26.498-29.002-45.498-39.002s-36.167-15-51.5-15c-24 0-42.167 3.833-54.5 11.5s-20.833 17.834-25.5 30.501-6.334 26.667-5.001 42 3.666 31 6.999 47l71 370h137l-65-335c-2-9.333-1.5-17.666 1.5-24.999s9.167-11 18.5-11c8 0 16.167 4.667 24.5 14s13.833 20.333 16.5 33l61 324h137L334 0H197l11 47zm81.002 571.998l-146-105-43 47 165 159h79l101-169-57-33z"/><glyph glyph-name="udieresis" unicode="ü" horiz-adv-x="413" d="M203 48c-11.333-16-26.498-29.002-45.498-39.002s-36.167-15-51.5-15c-24 0-42.167 3.833-54.5 11.5s-20.833 17.834-25.5 30.501-6.334 26.667-5.001 42 3.666 31 6.999 47l71 370h137l-65-335c-2-9.333-1.5-17.666 1.5-24.999s9.167-11 18.5-11c8 0 16.167 4.667 24.5 14s13.833 20.333 16.5 33l61 324h137L334 0H197l11 47zm97.002 498.998l25 130h119l-25-130h-119zm-174 0l25 130h118l-25-130h-118z"/><glyph glyph-name="yacute" unicode="ý" horiz-adv-x="383" d="M179 189c19.333 44 37.001 90.501 53.001 139.501s32.667 104.167 50 165.5h144c-34.667-100-71-193.833-109-281.5S241.334 46.667 204.001-22c-14-26-29.5-50.333-46.5-73s-35.833-42-56.5-58-43.667-28.5-69-37.5-53.666-12.833-84.999-11.5l-2 118c30.667 2.667 55.667 10.667 75 24s38.666 37 57.999 71l-27 483h143l-5-155c-.667-8-1.334-18.5-2.001-31.5s-1.667-26.5-3-40.5-2.833-28-4.5-42-3.5-26-5.5-36h5zm26.001 385.001l136 186 98-54-170-175z"/><glyph glyph-name="thorn" unicode="þ" horiz-adv-x="401" d="M216-8c-8.667 0-21 2.168-37 6.501S150.667 10.667 142 22h-5L93-193H-44l175 888h135l-48-236 4-2c6 8.667 12.833 16 20.5 22s15.5 10.5 23.5 13.5 15.833 5.167 23.5 6.5 14.5 2 20.5 2c30.667 0 53.667-7.5 69-22.5s23-40.5 23-76.5c0-5.333-.167-10.833-.5-16.5s-.833-11.834-1.5-18.501l-7-52c-3.333-24.667-7.666-51.334-12.999-80.001s-11.333-57-18-85-13.667-50.333-21-67c-4-9.333-8.833-19.166-14.5-29.499S313.167 33.333 303.5 24 282 7 268 1s-31.333-9-52-9zm-31 131.001c6.667 0 12.668 2.166 18.001 6.499s9.333 9.833 12 16.5c2 6 4.5 14.833 7.5 26.5s5.833 24.5 8.5 38.5l8.5 44c3 15.333 5.5 29.5 7.5 42.5l5 33c1.333 9 2 14.5 2 16.5v3c0 5.333-1.833 9.833-5.5 13.5S239.667 369 233 369c-8 0-14.333-1.667-19-5s-8.667-8.833-12-16.5-6.333-18-9-31L183 267l-2-11-12.5-67c-3.667-19.333-5.5-33.333-5.5-42 0-7.333 1.833-13.166 5.5-17.499s9.167-6.5 16.5-6.5z"/><glyph glyph-name="ydieresis" unicode="ÿ" horiz-adv-x="383" d="M179 189c19.333 44 37.001 90.501 53.001 139.501s32.667 104.167 50 165.5h144c-34.667-100-71-193.833-109-281.5S241.334 46.667 204.001-22c-14-26-29.5-50.333-46.5-73s-35.833-42-56.5-58-43.667-28.5-69-37.5-53.666-12.833-84.999-11.5l-2 118c30.667 2.667 55.667 10.667 75 24s38.666 37 57.999 71l-27 483h143l-5-155c-.667-8-1.334-18.5-2.001-31.5s-1.667-26.5-3-40.5-2.833-28-4.5-42-3.5-26-5.5-36h5zm100.001 358.001l25 130h119l-25-130h-119zm-174 0l25 130h118l-25-130h-118z"/><glyph glyph-name="Amacron" unicode="Ā" horiz-adv-x="449" d="M263 136H161L114 0H-31l267 696h166L400 0H258zm-23 239l-35-111h63l8 111 13 141h-6zm-49 370l22 110h252l-22-110H191z"/><glyph glyph-name="amacron" unicode="ā" horiz-adv-x="401" d="M182 120c6 0 12.666 3 19.999 9s13.666 20.667 18.999 44l27 139c1.333 4.667 2.333 9.334 3 14.001s1 9.667 1 15c0 7.333-1.667 13.833-5 19.5s-10 8.5-20 8.5c-7.333 0-13.5-2.333-18.5-7s-8.167-9.667-9.5-15c-2-4-5.167-14.5-9.5-31.5s-8.666-36.333-12.999-58S168.333 214.167 165 192.5s-5-39.167-5-52.5c0-12 7.333-18.667 22-20zm8.999-120l7.998 39h-5c-12-16.667-26.333-28.5-43-35.5S121.33-7 111.997-7c-36.667 0-61.667 8.5-75 25.5s-20 38.5-20 64.5c0 21.333 1.833 47.833 5.5 79.5S32.331 231 40.998 273c7.333 38 15.5 71.167 24.5 99.5s19.833 52 32.5 71 27.834 33.167 45.501 42.5 38.5 14 62.5 14c11.333 0 23.5-2.833 36.5-8.5s23.167-17.167 30.5-34.5l4 2 9 35h136L326 0H191zm-34.002 566l21 110h252l-21-110h-252z"/><glyph glyph-name="Abreve" unicode="Ă" horiz-adv-x="449" d="M263 136H161L114 0H-31l267 696h166L400 0H258zm-23 239l-35-111h63l8 111 13 141h-6zm40 525c-.667-2-1.003-4.167-1.003-6.5V887c0-20.667 5.333-36.5 16-47.5s23.667-16.5 39-16.5c10 0 19.333 2.5 28 7.5s16.334 11.333 23.001 19 12.334 16 17.001 25 8 17.5 10 25.5h107c-6-20-14-39.667-24-59s-22.667-36.5-38-51.5S423.333 762.333 402 753s-46-14-74-14c-30 0-54.833 4.833-74.5 14.5s-35 22.167-46 37.5-18.5 32.5-22.5 51.5-5 38.167-3 57.5h98z"/><glyph glyph-name="abreve" unicode="ă" horiz-adv-x="401" d="M182 120c6 0 12.666 3 19.999 9s13.666 20.667 18.999 44l27 139c1.333 4.667 2.333 9.334 3 14.001s1 9.667 1 15c0 7.333-1.667 13.833-5 19.5s-10 8.5-20 8.5c-7.333 0-13.5-2.333-18.5-7s-8.167-9.667-9.5-15c-2-4-5.167-14.5-9.5-31.5s-8.666-36.333-12.999-58S168.333 214.167 165 192.5s-5-39.167-5-52.5c0-12 7.333-18.667 22-20zm8.999-120l7.998 39h-5c-12-16.667-26.333-28.5-43-35.5S121.33-7 111.997-7c-36.667 0-61.667 8.5-75 25.5s-20 38.5-20 64.5c0 21.333 1.833 47.833 5.5 79.5S32.331 231 40.998 273c7.333 38 15.5 71.167 24.5 99.5s19.833 52 32.5 71 27.834 33.167 45.501 42.5 38.5 14 62.5 14c11.333 0 23.5-2.833 36.5-8.5s23.167-17.167 30.5-34.5l4 2 9 35h136L326 0H191zm46.998 700c-.667-2-1.003-4.167-1.003-6.5V687c0-20.667 5.333-36.5 16-47.5s23.667-16.5 39-16.5c10 0 19.333 2.5 28 7.5s16.334 11.333 23.001 19 12.334 16 17.001 25 8 17.5 10 25.5h107c-6-20-14-39.667-24-59s-22.667-36.5-38-51.5-33.666-27.167-54.999-36.5-46-14-74-14c-30 0-54.833 4.833-74.5 14.5s-35 22.167-46 37.5-18.5 32.5-22.5 51.5-5 38.167-3 57.5h98z"/><glyph glyph-name="Aogonek" unicode="Ą" horiz-adv-x="449" d="M329 0c-12.667-16-22.499-30.836-29.499-44.503s-12.167-25.5-15.5-35.5-5.333-17.833-6-23.5l-1-8.5c0-10.667 3.5-18.667 10.5-24s15.833-8 26.5-8c6.667 0 13.667.833 21 2.5s18.666 4.834 33.999 9.501l13-65c-17.333-10-35.5-17-54.5-21s-36.167-6-51.5-6c-25.333 0-46.333 6.833-63 20.5S188-167.668 188-137c0 16.667 5.833 36.834 17.5 60.501S234.667-27 258 1l5 135H161L114 0H-31l267 696h166L400 0h-71zm-88.999 374.997l-35-111h63l8 111 13 141h-6z"/><glyph glyph-name="aogonek" unicode="ą" horiz-adv-x="401" d="M193 9l5.999 29.998h-5c-12-16.667-26.333-28.5-43-35.5s-29.667-10.5-39-10.5c-36.667 0-61.667 8.5-75 25.5s-20 38.5-20 64.5c0 21.333 1.833 47.833 5.5 79.5s9.834 68.5 18.501 110.5c7.333 38 15.5 71.167 24.5 99.5s19.833 52 32.5 71 27.834 33.167 45.501 42.5 38.5 14 62.5 14c11.333 0 23.5-2.833 36.5-8.5s23.167-17.167 30.5-34.5l4 2 9 35h136l-96-494h-70c-12.667-16-22.5-30.833-29.5-44.5s-12.167-25.5-15.5-35.5-5.333-17.833-6-23.5l-1-8.5c0-10.667 3.5-18.667 10.5-24s15.833-8 26.5-8c6.667 0 13.667.833 21 2.5s18.666 4.834 33.999 9.501l13-65c-17.333-10-35.5-17-54.5-21s-36.167-6-51.5-6c-25.333 0-46.333 6.833-63 20.5S115-167.667 115-137c0 17.333 6.5 38.5 19.5 63.5S166.667-21 192 9h1zm-11.001 110.998c6 0 12.666 3 19.999 9s13.666 20.667 18.999 44l27 139c1.333 4.667 2.333 9.334 3 14.001s1 9.667 1 15c0 7.333-1.667 13.833-5 19.5s-10 8.5-20 8.5c-7.333 0-13.5-2.333-18.5-7s-8.167-9.667-9.5-15c-2-4-5.167-14.5-9.5-31.5s-8.666-36.333-12.999-58-8.166-43.334-11.499-65.001-5-39.167-5-52.5c0-12 7.333-18.667 22-20z"/><glyph glyph-name="Cacute" unicode="Ć" horiz-adv-x="427" d="M310 702c54 0 93.998-13.336 119.998-40.003s39-60 39-100c0-14.667-1.333-27.667-4-39l-135-23c.667 3.333 1.167 6.5 1.5 9.5s.5 6.167.5 9.5c0 15.333-3.333 28-10 38s-16 15-28 15c-9.333 0-17-1.833-23-5.5s-11.167-8.167-15.5-13.5-7.666-11.166-9.999-17.499-3.833-11.833-4.5-16.5l-69-355c-.667-2.667-1-6.667-1-12 0-7.333 2.167-13.833 6.5-19.5s13.5-8.5 27.5-8.5c28.667 0 48.667 24 60 72l131-18c-4-27.333-10.833-52.166-20.5-74.499s-22.5-41.666-38.5-57.999-35.5-29-58.5-38S228.332-6 196.999-6C143.666-6 103.333 5.667 76 29S35 86 35 130c0 13.333 1.667 29.333 5 48l66 341c5.333 27.333 13 52.333 23 75s23 42 39 58 35.667 28.333 59 37 51 13 83 13zm-55.002 83.997l193 130 58-93-215-105z"/><glyph glyph-name="cacute" unicode="ć" horiz-adv-x="381" d="M169-6c-25.333 0-46.832 3.331-64.499 9.998S72.334 19.332 61.001 30s-19.833 23-25.5 37S26.667 95.333 26 110c-1.333 16.667-.5 37.334 2.5 62.001s6.167 49 9.5 73c4.667 30 11 60.5 19 91.5S74.333 393 85 413c13.333 26 33.166 47.5 59.499 64.5s59.5 25.5 99.5 25.5c24.667 0 46.834-3.5 66.501-10.5s35.667-17.333 48-31S379.333 431 384 411s4.667-43 0-69l-136-15c3.333 17.333 3.333 29.833 0 37.5s-8.666 11.5-15.999 11.5c-11.333 0-20.333-6.667-27-20-3.333-5.333-7.5-17.5-12.5-36.5s-10.167-42.5-15.5-70.5-9.166-50.5-11.499-67.5-3.5-29.5-3.5-37.5c1.333-14.667 8-22 20-22 7.333 0 14.166 3.333 20.499 10s11.166 18.334 14.499 35.001l132-17c-9.333-48.667-29.333-86.834-60-114.501S218.333-6 169-6zm31.001 579.998l136 186 98-54-170-175z"/><glyph glyph-name="Ccircumflex" unicode="Ĉ" horiz-adv-x="427" d="M310 702c54 0 93.998-13.336 119.998-40.003s39-60 39-100c0-14.667-1.333-27.667-4-39l-135-23c.667 3.333 1.167 6.5 1.5 9.5s.5 6.167.5 9.5c0 15.333-3.333 28-10 38s-16 15-28 15c-9.333 0-17-1.833-23-5.5s-11.167-8.167-15.5-13.5-7.666-11.166-9.999-17.499-3.833-11.833-4.5-16.5l-69-355c-.667-2.667-1-6.667-1-12 0-7.333 2.167-13.833 6.5-19.5s13.5-8.5 27.5-8.5c28.667 0 48.667 24 60 72l131-18c-4-27.333-10.833-52.166-20.5-74.499s-22.5-41.666-38.5-57.999-35.5-29-58.5-38S228.332-6 196.999-6C143.666-6 103.333 5.667 76 29S35 86 35 130c0 13.333 1.667 29.333 5 48l66 341c5.333 27.333 13 52.333 23 75s23 42 39 58 35.667 28.333 59 37 51 13 83 13zm22.998 107.997l-140-86-47 47 162 145h79l101-144-57-48z"/><glyph glyph-name="ccircumflex" unicode="ĉ" horiz-adv-x="381" d="M169-6c-25.333 0-46.832 3.331-64.499 9.998S72.334 19.332 61.001 30s-19.833 23-25.5 37S26.667 95.333 26 110c-1.333 16.667-.5 37.334 2.5 62.001s6.167 49 9.5 73c4.667 30 11 60.5 19 91.5S74.333 393 85 413c13.333 26 33.166 47.5 59.499 64.5s59.5 25.5 99.5 25.5c24.667 0 46.834-3.5 66.501-10.5s35.667-17.333 48-31S379.333 431 384 411s4.667-43 0-69l-136-15c3.333 17.333 3.333 29.833 0 37.5s-8.666 11.5-15.999 11.5c-11.333 0-20.333-6.667-27-20-3.333-5.333-7.5-17.5-12.5-36.5s-10.167-42.5-15.5-70.5-9.166-50.5-11.499-67.5-3.5-29.5-3.5-37.5c1.333-14.667 8-22 20-22 7.333 0 14.166 3.333 20.499 10s11.166 18.334 14.499 35.001l132-17c-9.333-48.667-29.333-86.834-60-114.501S218.333-6 169-6zm118.001 625.998l-146-105-43 47 165 159h79l101-169-57-33z"/><glyph glyph-name="Cdotaccent" unicode="Ċ" horiz-adv-x="427" d="M310 702c54 0 93.998-13.336 119.998-40.003s39-60 39-100c0-14.667-1.333-27.667-4-39l-135-23c.667 3.333 1.167 6.5 1.5 9.5s.5 6.167.5 9.5c0 15.333-3.333 28-10 38s-16 15-28 15c-9.333 0-17-1.833-23-5.5s-11.167-8.167-15.5-13.5-7.666-11.166-9.999-17.499-3.833-11.833-4.5-16.5l-69-355c-.667-2.667-1-6.667-1-12 0-7.333 2.167-13.833 6.5-19.5s13.5-8.5 27.5-8.5c28.667 0 48.667 24 60 72l131-18c-4-27.333-10.833-52.166-20.5-74.499s-22.5-41.666-38.5-57.999-35.5-29-58.5-38S228.332-6 196.999-6C143.666-6 103.333 5.667 76 29S35 86 35 130c0 13.333 1.667 29.333 5 48l66 341c5.333 27.333 13 52.333 23 75s23 42 39 58 35.667 28.333 59 37 51 13 83 13zm-47.002 34.997l25 130h118l-25-130h-118z"/><glyph glyph-name="cdotaccent" unicode="ċ" horiz-adv-x="381" d="M169-6c-25.333 0-46.832 3.331-64.499 9.998S72.334 19.332 61.001 30s-19.833 23-25.5 37S26.667 95.333 26 110c-1.333 16.667-.5 37.334 2.5 62.001s6.167 49 9.5 73c4.667 30 11 60.5 19 91.5S74.333 393 85 413c13.333 26 33.166 47.5 59.499 64.5s59.5 25.5 99.5 25.5c24.667 0 46.834-3.5 66.501-10.5s35.667-17.333 48-31S379.333 431 384 411s4.667-43 0-69l-136-15c3.333 17.333 3.333 29.833 0 37.5s-8.666 11.5-15.999 11.5c-11.333 0-20.333-6.667-27-20-3.333-5.333-7.5-17.5-12.5-36.5s-10.167-42.5-15.5-70.5-9.166-50.5-11.499-67.5-3.5-29.5-3.5-37.5c1.333-14.667 8-22 20-22 7.333 0 14.166 3.333 20.499 10s11.166 18.334 14.499 35.001l132-17c-9.333-48.667-29.333-86.834-60-114.501S218.333-6 169-6zm31.001 552.998l25 130h118l-25-130h-118z"/><glyph glyph-name="Ccaron" unicode="Č" horiz-adv-x="427" d="M310 702c54 0 93.998-13.336 119.998-40.003s39-60 39-100c0-14.667-1.333-27.667-4-39l-135-23c.667 3.333 1.167 6.5 1.5 9.5s.5 6.167.5 9.5c0 15.333-3.333 28-10 38s-16 15-28 15c-9.333 0-17-1.833-23-5.5s-11.167-8.167-15.5-13.5-7.666-11.166-9.999-17.499-3.833-11.833-4.5-16.5l-69-355c-.667-2.667-1-6.667-1-12 0-7.333 2.167-13.833 6.5-19.5s13.5-8.5 27.5-8.5c28.667 0 48.667 24 60 72l131-18c-4-27.333-10.833-52.166-20.5-74.499s-22.5-41.666-38.5-57.999-35.5-29-58.5-38S228.332-6 196.999-6C143.666-6 103.333 5.667 76 29S35 86 35 130c0 13.333 1.667 29.333 5 48l66 341c5.333 27.333 13 52.333 23 75s23 42 39 58 35.667 28.333 59 37 51 13 83 13zm17.998 127.997l140 86 47-47-162-145h-79l-101 144 57 48z"/><glyph glyph-name="ccaron" unicode="č" horiz-adv-x="381" d="M169-6c-25.333 0-46.832 3.331-64.499 9.998S72.334 19.332 61.001 30s-19.833 23-25.5 37S26.667 95.333 26 110c-1.333 16.667-.5 37.334 2.5 62.001s6.167 49 9.5 73c4.667 30 11 60.5 19 91.5S74.333 393 85 413c13.333 26 33.166 47.5 59.499 64.5s59.5 25.5 99.5 25.5c24.667 0 46.834-3.5 66.501-10.5s35.667-17.333 48-31S379.333 431 384 411s4.667-43 0-69l-136-15c3.333 17.333 3.333 29.833 0 37.5s-8.666 11.5-15.999 11.5c-11.333 0-20.333-6.667-27-20-3.333-5.333-7.5-17.5-12.5-36.5s-10.167-42.5-15.5-70.5-9.166-50.5-11.499-67.5-3.5-29.5-3.5-37.5c1.333-14.667 8-22 20-22 7.333 0 14.166 3.333 20.499 10s11.166 18.334 14.499 35.001l132-17c-9.333-48.667-29.333-86.834-60-114.501S218.333-6 169-6zm252.001 736.998l42-48-159-158h-79l-103 159 61 47 100-94z"/><glyph glyph-name="Dcaron" unicode="Ď" horiz-adv-x="446" d="M256 562l-84-431h24c21.333 0 36 5 44 15s14 25 18 45l36 185.5 19 99 7.5 41c1 5.667 1.5 9.5 1.5 11.5 0 11.333-3 19.833-9 25.5s-17 8.5-33 8.5h-24zm55 134c41.333 0 75.333-7.167 102-21.5s41.667-38.5 45-72.5c1.333-24-.334-58.5-5.001-103.5s-12.667-94.833-24-149.5l-29-145.5c-8-39.667-18.667-73.167-32-100.5-20.667-39.333-46.167-66.333-76.5-81S228.333 0 193 0H12l135 696h164zm13 134l140 86 47-47-162-145h-79L169 868l57 48z"/><glyph glyph-name="dcaron" unicode="ď" horiz-adv-x="523" d="M199 503c8.667 0 20.998-2.17 36.998-6.504s28.333-12.166 37-23.499h5l50 253h135l-138-726h-135l7 36-4 2c-6-9.333-12.833-16.833-20.5-22.5s-15.5-10-23.5-13-15.833-5.167-23.5-6.5-14.5-2-20.5-2c-30.667 0-53.667 7.5-69 22.5s-23 40.5-23 76.5c0 5.333.167 10.833.5 16.5s.833 11.834 1.5 18.501c.667 10 2.834 27.333 6.501 52s8.167 51.334 13.5 80.001 11.333 57 18 85 13.667 50.333 21 67c4 8.667 8.833 18.334 14.5 29.001s13.334 20.667 23.001 30 21.5 17 35.5 23 31.333 9 52 9zm329.998 4.996h-66l49 107h-24l21 111h117l-21-109zm-299-136c-6.667 0-12.669-2.166-18.002-6.499s-9.333-9.833-12-16.5c-3.333-8.667-7.166-23.5-11.499-44.5s-8.5-42.5-12.5-64.5-7.5-42.167-10.5-60.5-4.5-28.833-4.5-31.5v-3c0-5.333 1.833-9.833 5.5-13.5s8.834-5.5 15.501-5.5c8 0 14.333 1.667 19 5s8.667 8.833 12 16.5 6.333 18 9 31l10 49.5 2 11 12.5 67c3.667 19.333 5.5 33.333 5.5 42 0 7.333-1.833 13.166-5.5 17.499s-9.167 6.5-16.5 6.5z"/><glyph glyph-name="Dcroat" unicode="Đ" horiz-adv-x="446" d="M311 696c41.333 0 75.333-7.167 102-21.5s41.667-38.5 45-72.5c1.333-24-.334-58.5-5.001-103.5s-12.667-94.833-24-149.5l-29-145.5c-8-39.667-18.667-73.167-32-100.5-20.667-39.333-46.167-66.333-76.5-81S228.333 0 193 0H12l58 301H26l16 84h45l60 311h164zm-55-134l-35-177h44l-17-84h-43l-33-170h24c21.333 0 36 5 44 15s14 25 18 45l36 185.5 19 99 7.5 41c1 5.667 1.5 9.5 1.5 11.5 0 11.333-3 19.833-9 25.5s-17 8.5-33 8.5h-24z"/><glyph glyph-name="dcroat" unicode="đ" horiz-adv-x="422" d="M199 503c8.667 0 20.998-2.17 36.998-6.504s28.333-12.166 37-23.499h5l17 88h-85l17 86h85l16 79h135l-15-79h39l-17-86h-39l-106-561h-135l7 36-4 2c-6-9.333-12.833-16.833-20.5-22.5s-15.5-10-23.5-13-15.833-5.167-23.5-6.5-14.5-2-20.5-2c-30.667 0-53.667 7.5-69 22.5s-23 40.5-23 76.5c0 5.333.167 10.833.5 16.5s.833 11.834 1.5 18.501c.667 10 2.834 27.333 6.501 52s8.167 51.334 13.5 80.001 11.333 57 18 85 13.667 50.333 21 67c4 8.667 8.833 18.334 14.5 29.001s13.334 20.667 23.001 30 21.5 17 35.5 23 31.333 9 52 9zm30.998-131.004c-6.667 0-12.669-2.166-18.002-6.499s-9.333-9.833-12-16.5c-3.333-8.667-7.166-23.5-11.499-44.5s-8.5-42.5-12.5-64.5-7.5-42.167-10.5-60.5-4.5-28.833-4.5-31.5v-3c0-5.333 1.833-9.833 5.5-13.5s8.834-5.5 15.501-5.5c8 0 14.333 1.667 19 5s8.667 8.833 12 16.5 6.333 18 9 31l10 49.5 2 11 12.5 67c3.667 19.333 5.5 33.333 5.5 42 0 7.333-1.833 13.166-5.5 17.499s-9.167 6.5-16.5 6.5z"/><glyph glyph-name="Emacron" unicode="Ē" horiz-adv-x="394" d="M11 0l135 696h319l-25-130H257l-29-146h160l-26-133H202l-29-157h183L330 0H11zm166 745l22 110h252l-22-110H177z"/><glyph glyph-name="emacron" unicode="ē" horiz-adv-x="408" d="M352 145c-5.333-22-12.333-42.168-21-60.501s-19.834-34.333-33.501-48-30.334-24.167-50.001-31.5-43.5-11-71.5-11c-30 0-54.833 4.167-74.5 12.5s-35.167 19.666-46.5 33.999-19.166 30.833-23.499 49.5-6.5 38-6.5 58c0 17.333 1 34.666 3 51.999s4.667 34 8 50c5.333 30 12 60 20 90s19.167 57.167 33.5 81.5 32.833 44 55.5 59 51.667 22.5 87 22.5c48 0 85.5-11 112.5-33s40.5-52 40.5-90c0-33.333-5.167-61.5-15.5-84.5s-24.333-41.667-42-56-38.167-24.666-61.5-30.999-48-9.5-74-9.5h-12.5c-3.667 0-8.167.333-13.5 1-2.667-9.333-4.5-19.166-5.5-29.499s-1.5-18.166-1.5-23.499c.667-16.667 7.334-25 20.001-25 9.333 0 16.833 2.833 22.5 8.5S212 146 216 160zM229 376.999c-12.667 0-22.168-6.166-28.501-18.499s-11.5-29.833-15.5-52.5c24.667 0 41.834 4 51.501 12s14.5 20.667 14.5 38c0 5.333-1.833 10.166-5.5 14.499s-9.167 6.5-16.5 6.5zM147.999 566l21 110h252l-21-110h-252z"/><glyph glyph-name="Ebreve" unicode="Ĕ" horiz-adv-x="394" d="M11 0l135 696h319l-25-130H257l-29-146h160l-26-133H202l-29-157h183L330 0H11zm252 895c-.667-2-1.003-4.167-1.003-6.5V882c0-20.667 5.333-36.5 16-47.5s23.667-16.5 39-16.5c10 0 19.333 2.5 28 7.5s16.334 11.333 23.001 19 12.334 16 17.001 25 8 17.5 10 25.5h107c-6-20-14-39.667-24-59s-22.667-36.5-38-51.5S406.333 757.333 385 748s-46-14-74-14c-30 0-54.833 4.833-74.5 14.5s-35 22.167-46 37.5-18.5 32.5-22.5 51.5-5 38.167-3 57.5h98z"/><glyph glyph-name="ebreve" unicode="ĕ" horiz-adv-x="408" d="M352 145c-5.333-22-12.333-42.168-21-60.501s-19.834-34.333-33.501-48-30.334-24.167-50.001-31.5-43.5-11-71.5-11c-30 0-54.833 4.167-74.5 12.5s-35.167 19.666-46.5 33.999-19.166 30.833-23.499 49.5-6.5 38-6.5 58c0 17.333 1 34.666 3 51.999s4.667 34 8 50c5.333 30 12 60 20 90s19.167 57.167 33.5 81.5 32.833 44 55.5 59 51.667 22.5 87 22.5c48 0 85.5-11 112.5-33s40.5-52 40.5-90c0-33.333-5.167-61.5-15.5-84.5s-24.333-41.667-42-56-38.167-24.666-61.5-30.999-48-9.5-74-9.5h-12.5c-3.667 0-8.167.333-13.5 1-2.667-9.333-4.5-19.166-5.5-29.499s-1.5-18.166-1.5-23.499c.667-16.667 7.334-25 20.001-25 9.333 0 16.833 2.833 22.5 8.5S212 146 216 160zM229 376.999c-12.667 0-22.168-6.166-28.501-18.499s-11.5-29.833-15.5-52.5c24.667 0 41.834 4 51.501 12s14.5 20.667 14.5 38c0 5.333-1.833 10.166-5.5 14.499s-9.167 6.5-16.5 6.5zM210.999 700c-.667-2-1.003-4.167-1.003-6.5V687c0-20.667 5.333-36.5 16-47.5s23.667-16.5 39-16.5c10 0 19.333 2.5 28 7.5s16.334 11.333 23.001 19 12.334 16 17.001 25 8 17.5 10 25.5h107c-6-20-14-39.667-24-59s-22.667-36.5-38-51.5S354.332 562.333 333 553s-46-14-74-14c-30 0-54.833 4.833-74.5 14.5s-35 22.167-46 37.5-18.5 32.5-22.5 51.5-5 38.167-3 57.5h98z"/><glyph glyph-name="Edotaccent" unicode="Ė" horiz-adv-x="394" d="M11 0l135 696h319l-25-130H257l-29-146h160l-26-133H202l-29-157h183L330 0H11zm236 727l25 130h118l-25-130H247z"/><glyph glyph-name="edotaccent" unicode="ė" horiz-adv-x="408" d="M352 145c-5.333-22-12.333-42.168-21-60.501s-19.834-34.333-33.501-48-30.334-24.167-50.001-31.5-43.5-11-71.5-11c-30 0-54.833 4.167-74.5 12.5s-35.167 19.666-46.5 33.999-19.166 30.833-23.499 49.5-6.5 38-6.5 58c0 17.333 1 34.666 3 51.999s4.667 34 8 50c5.333 30 12 60 20 90s19.167 57.167 33.5 81.5 32.833 44 55.5 59 51.667 22.5 87 22.5c48 0 85.5-11 112.5-33s40.5-52 40.5-90c0-33.333-5.167-61.5-15.5-84.5s-24.333-41.667-42-56-38.167-24.666-61.5-30.999-48-9.5-74-9.5h-12.5c-3.667 0-8.167.333-13.5 1-2.667-9.333-4.5-19.166-5.5-29.499s-1.5-18.166-1.5-23.499c.667-16.667 7.334-25 20.001-25 9.333 0 16.833 2.833 22.5 8.5S212 146 216 160zM229 376.999c-12.667 0-22.168-6.166-28.501-18.499s-11.5-29.833-15.5-52.5c24.667 0 41.834 4 51.501 12s14.5 20.667 14.5 38c0 5.333-1.833 10.166-5.5 14.499s-9.167 6.5-16.5 6.5zM196.999 547l25 130h118l-25-130h-118z"/><glyph glyph-name="Eogonek" unicode="Ę" horiz-adv-x="394" d="M330 0c-14-17.333-24.666-32.999-31.999-46.999s-12.833-26.167-16.5-36.5-5.834-18.5-6.501-24.5l-1-9c0-10.667 3.5-18.667 10.5-24s15.833-8 26.5-8c6.667 0 14.5 1 23.5 3s19.5 6 31.5 12l11-58c-17.333-10-35-17-53-21s-34.667-6-50-6c-25.333 0-45.833 6.5-61.5 19.5s-23.5 32.167-23.5 57.5c0 16.667 5.5 37.167 16.5 61.5S234-29.333 258 0H11l135 696h319l-25-130H257l-29-146h160l-26-133H202l-29-157h183L330 0z"/><glyph glyph-name="eogonek" unicode="ę" horiz-adv-x="408" d="M352 145c-6-25.333-14.001-48.003-24.001-68.003s-23.667-36.667-41-50c-12.667-16-22.5-30.833-29.5-44.5s-12.167-25.5-15.5-35.5-5.333-17.833-6-23.5l-1-8.5c0-10.667 3.5-18.667 10.5-24s15.833-8 26.5-8c6.667 0 13.667.833 21 2.5s18.666 4.834 33.999 9.501l13-65c-17.333-10-35.5-17-54.5-21s-36.167-6-51.5-6c-25.333 0-46.333 6.833-63 20.5s-25 35.834-25 66.501c0 27.333 14.667 62.333 44 105-3.333-.667-8-1-14-1-30 0-54.833 4.167-74.5 12.5s-35.167 19.666-46.5 34-19.166 30.832-23.499 49.5-6.5 38-6.5 58c0 17.332 1 34.665 3 51.998s4.667 34 8 50c5.333 30 12 60 20 90s19.167 57.167 33.5 81.5 32.833 44 55.5 59 51.667 22.5 87 22.5c48 0 85.5-11 112.5-33s40.5-52 40.5-90c0-33.333-5.167-61.5-15.5-84.5s-24.333-41.667-42-56-38.167-24.666-61.5-30.999-48-9.5-74-9.5h-12.5c-3.667 0-8.167.333-13.5 1-2.667-9.333-4.5-19.166-5.5-29.499s-1.5-18.166-1.5-23.499c.667-16.667 7.334-25 20.001-25 9.333 0 16.833 2.833 22.5 8.5S212 146 216 160zM228.999 376.997c-12.667 0-22.168-6.166-28.501-18.499s-11.5-29.833-15.5-52.5c24.667 0 41.834 4 51.501 12s14.5 20.667 14.5 38c0 5.333-1.833 10.166-5.5 14.499s-9.167 6.5-16.5 6.5z"/><glyph glyph-name="Ecaron" unicode="Ě" horiz-adv-x="394" d="M11 0l135 696h319l-25-130H257l-29-146h160l-26-133H202l-29-157h183L330 0H11zm307 830l140 86 47-47-162-145h-79L163 868l57 48z"/><glyph glyph-name="ecaron" unicode="ě" horiz-adv-x="408" d="M352 145c-5.333-22-12.333-42.168-21-60.501s-19.834-34.333-33.501-48-30.334-24.167-50.001-31.5-43.5-11-71.5-11c-30 0-54.833 4.167-74.5 12.5s-35.167 19.666-46.5 33.999-19.166 30.833-23.499 49.5-6.5 38-6.5 58c0 17.333 1 34.666 3 51.999s4.667 34 8 50c5.333 30 12 60 20 90s19.167 57.167 33.5 81.5 32.833 44 55.5 59 51.667 22.5 87 22.5c48 0 85.5-11 112.5-33s40.5-52 40.5-90c0-33.333-5.167-61.5-15.5-84.5s-24.333-41.667-42-56-38.167-24.666-61.5-30.999-48-9.5-74-9.5h-12.5c-3.667 0-8.167.333-13.5 1-2.667-9.333-4.5-19.166-5.5-29.499s-1.5-18.166-1.5-23.499c.667-16.667 7.334-25 20.001-25 9.333 0 16.833 2.833 22.5 8.5S212 146 216 160zM229 376.999c-12.667 0-22.168-6.166-28.501-18.499s-11.5-29.833-15.5-52.5c24.667 0 41.834 4 51.501 12s14.5 20.667 14.5 38c0 5.333-1.833 10.166-5.5 14.499s-9.167 6.5-16.5 6.5zM421.999 731l42-48-159-158h-79l-103 159 61 47 100-94z"/><glyph glyph-name="Gcircumflex" unicode="Ĝ" horiz-adv-x="440" d="M204-6C141.333-6 96.671 9.999 70.004 41.999s-34.334 77.333-23.001 136l66 341c5.333 27.333 13.166 52.333 23.499 75s23.666 42 39.999 58 36 28.333 59 37 50.167 13 81.5 13 57.833-4.667 79.5-14 38.834-22.166 51.501-38.499 21-35.333 25-57 3.667-44.834-1-69.501l-135-23c3.333 20.667 1.666 37.834-5.001 51.501s-17 20.5-31 20.5c-9.333 0-17-1.833-23-5.5s-11.167-8.167-15.5-13.5-7.666-11.166-9.999-17.499-3.833-11.833-4.5-16.5l-69-355c-.667-4.667-1-9.334-1-14.001s1-9 3-13 5.5-7.167 10.5-9.5 11.833-3.5 20.5-3.5c13.333 0 24.666 3.333 33.999 10s15.666 17.667 18.999 33l20 102h-47l23 119h182l-43-219c-6-32-15.167-59.167-27.5-81.5S345.667 47 329 33 293.333 9 272 3s-44-9-68-9zm134.005 815.999l-140-86-47 47 162 145h79l101-144-57-48z"/><glyph glyph-name="gcircumflex" unicode="ĝ" horiz-adv-x="401" d="M148-80c8.667 0 15.166 2.667 19.499 8s7.166 11.333 8.499 18l15 81h-5C172.665 13.667 159.332 4.834 145.999.501s-24.666-6.5-33.999-6.5c-35.333 0-60.333 8.833-75 26.5s-22 40.167-22 67.5c.667 21.333 2.834 47.5 6.501 78.5s9.5 66.833 17.5 107.5c7.333 38 15.5 71.167 24.5 99.5s19.833 52 32.5 71 27.667 33.167 45 42.5 38.333 14 63 14c11.333 0 23.5-2.833 36.5-8.5s23.167-17.167 30.5-34.5l4 2 8 35h137l-103-530c-4.667-24-11-46.333-19-67s-18.833-38.334-32.5-53.001-31-26.167-52-34.5-46.833-12.5-77.5-12.5c-46 0-82.167 12.667-108.5 38s-40.5 57.333-42.5 96l137 26c-.667-2.667-1-6-1-10 0-8.667 2.667-15.5 8-20.5S140.667-80 148-80zm31.999 201c6 0 12.666 3.001 19.999 9.001s13.666 20.667 18.999 44l27 139c1.333 4 2.333 8.5 3 13.5s1 9.833 1 14.5c0 8-1.667 14.833-5 20.5s-10 8.5-20 8.5c-7.333 0-13.5-2.333-18.5-7s-8.167-9.667-9.5-15c-2-4-5.167-14.5-9.5-31.5s-8.666-36.333-12.999-58-8.166-43.334-11.499-65.001-5-39.167-5-52.5c0-12 7.333-18.667 22-20zm104.999 499.001l-146-105-43 47 165 159h79l101-169-57-33z"/><glyph glyph-name="Gbreve" unicode="Ğ" horiz-adv-x="440" d="M204-6C141.333-6 96.671 9.999 70.004 41.999s-34.334 77.333-23.001 136l66 341c5.333 27.333 13.166 52.333 23.499 75s23.666 42 39.999 58 36 28.333 59 37 50.167 13 81.5 13 57.833-4.667 79.5-14 38.834-22.166 51.501-38.499 21-35.333 25-57 3.667-44.834-1-69.501l-135-23c3.333 20.667 1.666 37.834-5.001 51.501s-17 20.5-31 20.5c-9.333 0-17-1.833-23-5.5s-11.167-8.167-15.5-13.5-7.666-11.166-9.999-17.499-3.833-11.833-4.5-16.5l-69-355c-.667-4.667-1-9.334-1-14.001s1-9 3-13 5.5-7.167 10.5-9.5 11.833-3.5 20.5-3.5c13.333 0 24.666 3.333 33.999 10s15.666 17.667 18.999 33l20 102h-47l23 119h182l-43-219c-6-32-15.167-59.167-27.5-81.5S345.667 47 329 33 293.333 9 272 3s-44-9-68-9zm81.005 905.999c-.667-2-1.003-4.167-1.003-6.5v-6.5c0-20.667 5.333-36.5 16-47.5s23.667-16.5 39-16.5c10 0 19.333 2.5 28 7.5s16.334 11.333 23.001 19 12.334 16 17.001 25 8 17.5 10 25.5h107c-6-20-14-39.667-24-59s-22.667-36.5-38-51.5-33.666-27.167-54.999-36.5-46-14-74-14c-30 0-54.833 4.833-74.5 14.5s-35 22.167-46 37.5-18.5 32.5-22.5 51.5-5 38.167-3 57.5h98z"/><glyph glyph-name="gbreve" unicode="ğ" horiz-adv-x="401" d="M148-80c8.667 0 15.166 2.667 19.499 8s7.166 11.333 8.499 18l15 81h-5C172.665 13.667 159.332 4.834 145.999.501s-24.666-6.5-33.999-6.5c-35.333 0-60.333 8.833-75 26.5s-22 40.167-22 67.5c.667 21.333 2.834 47.5 6.501 78.5s9.5 66.833 17.5 107.5c7.333 38 15.5 71.167 24.5 99.5s19.833 52 32.5 71 27.667 33.167 45 42.5 38.333 14 63 14c11.333 0 23.5-2.833 36.5-8.5s23.167-17.167 30.5-34.5l4 2 8 35h137l-103-530c-4.667-24-11-46.333-19-67s-18.833-38.334-32.5-53.001-31-26.167-52-34.5-46.833-12.5-77.5-12.5c-46 0-82.167 12.667-108.5 38s-40.5 57.333-42.5 96l137 26c-.667-2.667-1-6-1-10 0-8.667 2.667-15.5 8-20.5S140.667-80 148-80zm31.999 201c6 0 12.666 3.001 19.999 9.001s13.666 20.667 18.999 44l27 139c1.333 4 2.333 8.5 3 13.5s1 9.833 1 14.5c0 8-1.667 14.833-5 20.5s-10 8.5-20 8.5c-7.333 0-13.5-2.333-18.5-7s-8.167-9.667-9.5-15c-2-4-5.167-14.5-9.5-31.5s-8.666-36.333-12.999-58-8.166-43.334-11.499-65.001-5-39.167-5-52.5c0-12 7.333-18.667 22-20zm30.999 579.001c-.667-2-1.003-4.167-1.003-6.5v-6.5c0-20.667 5.333-36.5 16-47.5s23.667-16.5 39-16.5c10 0 19.333 2.5 28 7.5s16.334 11.333 23.001 19 12.334 16 17.001 25 8 17.5 10 25.5h107c-6-20-14-39.667-24-59s-22.667-36.5-38-51.5-33.666-27.167-54.999-36.5-46-14-74-14c-30 0-54.833 4.833-74.5 14.5s-35 22.167-46 37.5-18.5 32.5-22.5 51.5-5 38.167-3 57.5h98z"/><glyph glyph-name="Gdotaccent" unicode="Ġ" horiz-adv-x="440" d="M204-6C141.333-6 96.671 9.999 70.004 41.999s-34.334 77.333-23.001 136l66 341c5.333 27.333 13.166 52.333 23.499 75s23.666 42 39.999 58 36 28.333 59 37 50.167 13 81.5 13 57.833-4.667 79.5-14 38.834-22.166 51.501-38.499 21-35.333 25-57 3.667-44.834-1-69.501l-135-23c3.333 20.667 1.666 37.834-5.001 51.501s-17 20.5-31 20.5c-9.333 0-17-1.833-23-5.5s-11.167-8.167-15.5-13.5-7.666-11.166-9.999-17.499-3.833-11.833-4.5-16.5l-69-355c-.667-4.667-1-9.334-1-14.001s1-9 3-13 5.5-7.167 10.5-9.5 11.833-3.5 20.5-3.5c13.333 0 24.666 3.333 33.999 10s15.666 17.667 18.999 33l20 102h-47l23 119h182l-43-219c-6-32-15.167-59.167-27.5-81.5S345.667 47 329 33 293.333 9 272 3s-44-9-68-9zm62.005 732.999l25 130h118l-25-130h-118z"/><glyph glyph-name="gdotaccent" unicode="ġ" horiz-adv-x="401" d="M148-80c8.667 0 15.166 2.667 19.499 8s7.166 11.333 8.499 18l15 81h-5C172.665 13.667 159.332 4.834 145.999.501s-24.666-6.5-33.999-6.5c-35.333 0-60.333 8.833-75 26.5s-22 40.167-22 67.5c.667 21.333 2.834 47.5 6.501 78.5s9.5 66.833 17.5 107.5c7.333 38 15.5 71.167 24.5 99.5s19.833 52 32.5 71 27.667 33.167 45 42.5 38.333 14 63 14c11.333 0 23.5-2.833 36.5-8.5s23.167-17.167 30.5-34.5l4 2 8 35h137l-103-530c-4.667-24-11-46.333-19-67s-18.833-38.334-32.5-53.001-31-26.167-52-34.5-46.833-12.5-77.5-12.5c-46 0-82.167 12.667-108.5 38s-40.5 57.333-42.5 96l137 26c-.667-2.667-1-6-1-10 0-8.667 2.667-15.5 8-20.5S140.667-80 148-80zm31.999 201c6 0 12.666 3.001 19.999 9.001s13.666 20.667 18.999 44l27 139c1.333 4 2.333 8.5 3 13.5s1 9.833 1 14.5c0 8-1.667 14.833-5 20.5s-10 8.5-20 8.5c-7.333 0-13.5-2.333-18.5-7s-8.167-9.667-9.5-15c-2-4-5.167-14.5-9.5-31.5s-8.666-36.333-12.999-58-8.166-43.334-11.499-65.001-5-39.167-5-52.5c0-12 7.333-18.667 22-20zm34.999 426.001l25 130h118l-25-130h-118z"/><glyph glyph-name="Gcommaaccent" unicode="Ģ" horiz-adv-x="440" d="M204-6C141.333-6 96.671 9.999 70.004 41.999s-34.334 77.333-23.001 136l66 341c5.333 27.333 13.166 52.333 23.499 75s23.666 42 39.999 58 36 28.333 59 37 50.167 13 81.5 13 57.833-4.667 79.5-14 38.834-22.166 51.501-38.499 21-35.333 25-57 3.667-44.834-1-69.501l-135-23c3.333 20.667 1.666 37.834-5.001 51.501s-17 20.5-31 20.5c-9.333 0-17-1.833-23-5.5s-11.167-8.167-15.5-13.5-7.666-11.166-9.999-17.499-3.833-11.833-4.5-16.5l-69-355c-.667-4.667-1-9.334-1-14.001s1-9 3-13 5.5-7.167 10.5-9.5 11.833-3.5 20.5-3.5c13.333 0 24.666 3.333 33.999 10s15.666 17.667 18.999 33l20 102h-47l23 119h182l-43-219c-6-32-15.167-59.167-27.5-81.5S345.667 47 329 33 293.333 9 272 3s-44-9-68-9zm-57.995-270.001h-66l49 107h-24l21 111h117l-21-109z"/><glyph glyph-name="gcommaaccent" unicode="ģ" horiz-adv-x="401" d="M313 768h66l-49-107h24l-22-111H215l22 109zM148-80c8.667 0 15.166 2.667 19.499 8s7.166 11.333 8.499 18l15 81h-5C172.665 13.667 159.332 4.834 145.999.501s-24.666-6.5-33.999-6.5c-35.333 0-60.333 8.833-75 26.5s-22 40.167-22 67.5c.667 21.333 2.834 47.5 6.501 78.5s9.5 66.833 17.5 107.5c7.333 38 15.5 71.167 24.5 99.5s19.833 52 32.5 71 27.667 33.167 45 42.5 38.333 14 63 14c11.333 0 23.5-2.833 36.5-8.5s23.167-17.167 30.5-34.5l4 2 8 35h137l-103-530c-4.667-24-11-46.333-19-67s-18.833-38.334-32.5-53.001-31-26.167-52-34.5-46.833-12.5-77.5-12.5c-46 0-82.167 12.667-108.5 38s-40.5 57.333-42.5 96l137 26c-.667-2.667-1-6-1-10 0-8.667 2.667-15.5 8-20.5S140.667-80 148-80zm31.999 201c6 0 12.666 3.001 19.999 9.001s13.666 20.667 18.999 44l27 139c1.333 4 2.333 8.5 3 13.5s1 9.833 1 14.5c0 8-1.667 14.833-5 20.5s-10 8.5-20 8.5c-7.333 0-13.5-2.333-18.5-7s-8.167-9.667-9.5-15c-2-4-5.167-14.5-9.5-31.5s-8.666-36.333-12.999-58-8.166-43.334-11.499-65.001-5-39.167-5-52.5c0-12 7.333-18.667 22-20z"/><glyph glyph-name="Hcircumflex" unicode="Ĥ" horiz-adv-x="459" d="M212 0l55 288h-87L125 0H-11l135 696h136l-54-276h87l54 276h135L347 0H212zm106 810l-140-86-47 47 162 145h79l101-144-57-48z"/><glyph glyph-name="hcircumflex" unicode="ĥ" horiz-adv-x="413" d="M229 447c11.333 16 26.502 29.002 45.502 39.002s36.167 15 51.5 15c24 0 42.167-3.833 54.5-11.5s20.833-17.834 25.5-30.501 6.167-26.667 4.5-42-3.834-31-6.501-47l-71-370h-137l65 335c2 9.333 1.5 17.666-1.5 24.999s-9.167 11-18.5 11c-11.333 0-20.333-4.667-27-14S202.667 336.667 200 324L139 0H2l141 726h137l-56-278zm-.998 363.002l-140-86-47 47 162 145h79l101-144-57-48z"/><glyph glyph-name="Hbar" unicode="Ħ" horiz-adv-x="459" d="M212 0l55 288h-87L125 0H-11l99 514H51l15 81h38l20 101h136l-20-101h87l20 101h135l-20-101h42l-15-81h-43L347 0H212zm81 420l18 94h-87l-18-94h87z"/><glyph glyph-name="hbar" unicode="ħ" horiz-adv-x="413" d="M229 447c11.333 16 26.502 29.002 45.502 39.002s36.167 15 51.5 15c24 0 42.167-3.833 54.5-11.5s20.833-17.834 25.5-30.501 6.167-26.667 4.5-42-3.834-31-6.501-47l-71-370h-137l65 335c2 9.333 1.5 17.666-1.5 24.999s-9.167 11-18.5 11c-11.333 0-20.333-4.667-27-14S202.667 336.667 200 324L139 0H2l108 558H74l14 77h37l18 91h137l-19-91h114l-15-77H246l-22-110z"/><glyph glyph-name="Itilde" unicode="Ĩ" horiz-adv-x="242" d="M13 0l135 696h136L149 0H13zm163 863c10 0 19.669-1.834 29.002-5.501s18-7.5 26-11.5l22.5-11.5c7-3.667 13.5-5.5 19.5-5.5 4 0 7.833.167 11.5.5s7.667 1.5 12 3.5 9.166 5.333 14.499 10 11.666 11 18.999 19l58-36c-17.333-37.333-35.833-62.333-55.5-75s-38.5-19-56.5-19c-11.333 0-21.5 1.833-30.5 5.5s-17.333 7.667-25 12l-22 12c-7 3.667-14.5 5.5-22.5 5.5-7.333 0-15.333-2.167-24-6.5S132.333 746.333 119 731l-57 42c20.667 36 40.5 60 59.5 72s37.167 18 54.5 18z"/><glyph glyph-name="itilde" unicode="ĩ" horiz-adv-x="305" d="M173 683c10 0 19.669-1.834 29.002-5.501s18-7.5 26-11.5l22.5-11.5c7-3.667 13.5-5.5 19.5-5.5 4 0 7.833.167 11.5.5s7.667 1.5 12 3.5 9.166 5.333 14.499 10 11.666 11 18.999 19l58-36c-17.333-37.333-35.833-62.333-55.5-75s-38.5-19-56.5-19c-11.333 0-21.5 1.833-30.5 5.5s-17.333 7.667-25 12l-22 12c-7 3.667-14.5 5.5-22.5 5.5-7.333 0-15.333-2.167-24-6.5S129.333 566.333 116 551l-57 42c20.667 36 40.5 60 59.5 72s37.167 18 54.5 18zM50.002-.001l96 494h137l-96-494h-137z"/><glyph glyph-name="Imacron" unicode="Ī" horiz-adv-x="242" d="M13 0l135 696h136L149 0H13zm80 745l22 110h252l-22-110H93z"/><glyph glyph-name="imacron" unicode="ī" horiz-adv-x="258" d="M71 566l21 110h252l-21-110H71zM26 0l96 494h137L163 0H26z"/><glyph glyph-name="Ibreve" unicode="Ĭ" horiz-adv-x="242" d="M13 0l135 696h136L149 0H13zm163 900c-.667-2-1.003-4.167-1.003-6.5V887c0-20.667 5.333-36.5 16-47.5s23.667-16.5 39-16.5c10 0 19.333 2.5 28 7.5s16.334 11.333 23.001 19 12.334 16 17.001 25 8 17.5 10 25.5h107c-6-20-14-39.667-24-59s-22.667-36.5-38-51.5S319.333 762.333 298 753s-46-14-74-14c-30 0-54.833 4.833-74.5 14.5s-35 22.167-46 37.5S85 823.5 81 842.5s-5 38.167-3 57.5h98z"/><glyph glyph-name="ibreve" unicode="ĭ" horiz-adv-x="304" d="M178 706c-.667-2-1.003-4.167-1.003-6.5V693c0-20.667 5.333-36.5 16-47.5s23.667-16.5 39-16.5c10 0 19.333 2.5 28 7.5s16.334 11.333 23.001 19 12.334 16 17.001 25 8 17.5 10 25.5h107c-6-20-14-39.667-24-59s-22.667-36.5-38-51.5S321.333 568.333 300 559s-46-14-74-14c-30 0-54.833 4.833-74.5 14.5s-35 22.167-46 37.5S87 629.5 83 648.5s-5 38.167-3 57.5h98zM42.997 0l96 494h137l-96-494h-137z"/><glyph glyph-name="Iogonek" unicode="Į" horiz-adv-x="242" d="M119 0c-12-16-21.499-30.668-28.499-44.001s-12-24.833-15-34.5-4.833-17.334-5.5-23.001l-1-8.5c0-10.667 3.5-18.667 10.5-24s15.833-8 26.5-8c6.667 0 13.667.833 21 2.5s18.666 4.834 33.999 9.501l13-65c-17.333-10-35.5-17-54.5-21s-36.167-6-51.5-6c-25.333 0-46.333 6.833-63 20.5S-20-165.667-20-135c0 16 5.5 35.5 16.5 58.5S24.333-28 47 0H13l135 696h136L149 0h-30z"/><glyph glyph-name="iogonek" unicode="į" horiz-adv-x="227" d="M108 0C96-16 86.501-30.668 79.501-44.001s-12-24.833-15-34.5-4.833-17.334-5.5-23.001l-1-8.5c0-10.667 3.5-18.667 10.5-24s15.833-8 26.5-8c6.667 0 13.667.833 21 2.5s18.666 4.834 33.999 9.501l13-65c-17.333-10-35.5-17-54.5-21s-36.167-6-51.5-6c-25.333 0-46.333 6.833-63 20.5S-31-165.667-31-135c0 16 5.667 35.5 17 58.5S14-28 36 0H5l96 494h137L142 0h-34zm7.001 565.999l25 130h137l-25-130h-137z"/><glyph glyph-name="Idotaccent" unicode="İ" horiz-adv-x="242" d="M13 0l135 696h136L149 0H13zm148 727l25 130h118l-25-130H161z"/><glyph glyph-name="dotlessi" unicode="ı" horiz-adv-x="227" d="M5 0l96 494h137L142 0H5z"/><glyph glyph-name="IJ" unicode="Ĳ" horiz-adv-x="595" d="M11 0l135 696h136L147 0H11zm628 696L536.001 169.001c-10.667-54.667-31.667-97.5-63-128.5s-75-46.5-131-46.5c-31.333 0-60 7.333-86 22s-47 38-63 70l108 78c6.667-12.667 14.667-22.334 24-29.001s17.666-10 24.999-10c17.333 0 29.833 5.333 37.5 16s12.5 20.667 14.5 30l102 525h135z"/><glyph glyph-name="ij" unicode="ĳ" horiz-adv-x="451" d="M121 566l25 130h137l-25-130H121zM11 0l96 494h137L148 0H11zm330 566l25 130h137l-25-130H341zm20-599c-11.333-57.333-32.998-99-64.998-125s-73.333-39-124-39c-6.667 0-13.834.333-21.501 1s-14.834 1.667-21.501 3l24 128c3.333-.667 8.333-1 15-1 22.667 0 37.667 6.167 45 18.5S226.333-18 231 4l96 491h137z"/><glyph glyph-name="Jcircumflex" unicode="Ĵ" horiz-adv-x="360" d="M404 697L301.001 170.001c-10.667-54.667-31.667-97.5-63-128.5s-75-46.5-131-46.5c-31.333 0-60 7.333-86 22s-47 38-63 70l108 78c6.667-12.667 14.667-22.334 24-29.001s17.666-10 24.999-10c17.333 0 29.833 5.333 37.5 16s12.5 20.667 14.5 30l102 525h135zm-55.999 115.001l-140-86-47 47 162 145h79l101-144-57-48z"/><glyph glyph-name="jcircumflex" unicode="ĵ" horiz-adv-x="320" d="M184-35c-11.333-57.333-32.998-99-64.998-125s-73.333-39-124-39c-6.667 0-13.834.333-21.501 1s-14.834 1.667-21.501 3l24 128c3.333-.667 8.333-1 15-1 22.667 0 37.667 6.167 45 18.5S49.333-20 54 2l96 493h137zm62.002 655l-146-105-43 47 165 159h79l101-169-57-33z"/><glyph glyph-name="Kcommaaccent" unicode="Ķ" horiz-adv-x="446" d="M251 494l127 202h151L327 401 409 0H275l-48 266-41-62L147 0H11l135 696h136l-38-202h7zm-80-750h-66l49 107h-24l21 111h117l-21-109z"/><glyph glyph-name="kcommaaccent" unicode="ķ" horiz-adv-x="432" d="M223 387l88 107h171L300 295 382 0H227l-36 175-20-20L141 0H5l141 725h136l-65-337zm-83-663H74l49 107H99l21 111h117l-21-109z"/><glyph glyph-name="kgreenlandic" unicode="ĸ" horiz-adv-x="432" d="M223 387l88 107h171L300 295 382 0H227l-36 175-20-20L141 0H5l94 493h136l-18-105z"/><glyph glyph-name="Lacute" unicode="Ĺ" horiz-adv-x="378" d="M11 0l135 696h136L173 133h183L330 0H11zm167 786l193 130 58-93-215-105z"/><glyph glyph-name="lacute" unicode="ĺ" horiz-adv-x="234" d="M164 164c-.667-3.333-1.001-6.169-1.001-8.502v-6.5c0-11.333 3-19 9-23s15.667-6 29-6l-24-125a50.84 50.84 0 0 0-9.999-1h-10c-46.667 0-80.667 10.833-102 32.5S23 76.332 23 111c0 7.333.5 14.833 1.5 22.5s2.167 15.833 3.5 24.5l109 568h137zm7.999 641.997l193 130 58-93-215-105z"/><glyph glyph-name="Lcommaaccent" unicode="Ļ" horiz-adv-x="378" d="M11 0l135 696h136L173 133h183L330 0H11zm108-276H53l49 107H78L99-58h117l-21-109z"/><glyph glyph-name="lcommaaccent" unicode="ļ" horiz-adv-x="234" d="M164 164c-.667-3.333-1.001-6.169-1.001-8.502v-6.5c0-11.333 3-19 9-23s15.667-6 29-6l-24-125a50.84 50.84 0 0 0-9.999-1h-10c-46.667 0-80.667 10.833-102 32.5S23 76.332 23 111c0 7.333.5 14.833 1.5 22.5s2.167 15.833 3.5 24.5l109 568h137zM39.999-276.003h-66l49 107h-24l21 111h117l-21-109z"/><glyph glyph-name="Lcaron" unicode="Ľ" horiz-adv-x="378" d="M11 0l135 696h136L173 133h183L330 0H11zm349 478h-66l49 107h-24l21 111h117l-21-109z"/><glyph glyph-name="lcaron" unicode="ľ" horiz-adv-x="345" d="M350 509h-66l49 107h-24l21 111h117l-21-109zM164 164c-.667-3.333-1.001-6.169-1.001-8.502v-6.5c0-11.333 3-19 9-23s15.667-6 29-6l-24-125a50.84 50.84 0 0 0-9.999-1h-10c-46.667 0-80.667 10.833-102 32.5S23 76.332 23 111c0 7.333.5 14.833 1.5 22.5s2.167 15.833 3.5 24.5l109 568h137z"/><glyph glyph-name="Ldot" unicode="Ŀ" horiz-adv-x="420" d="M11 0l135 696h136L173 133h183L330 0H11zm291 301l25 130h118l-25-130H302z"/><glyph glyph-name="ldot" unicode="ŀ" horiz-adv-x="359" d="M252 329l25 130h118l-25-130H252zm-88-165c-.667-3.333-1.001-6.169-1.001-8.502v-6.5c0-11.333 3-19 9-23s15.667-6 29-6l-24-125a50.84 50.84 0 0 0-9.999-1h-10c-46.667 0-80.667 10.833-102 32.5S23 76.332 23 111c0 7.333.5 14.833 1.5 22.5s2.167 15.833 3.5 24.5l109 568h137z"/><glyph glyph-name="Lslash" unicode="Ł" horiz-adv-x="398" d="M31 0l50 258-45-28-29 59 91 58 68 349h136l-49-251 66 42 31-59-114-72-43-223h183L350 0H31z"/><glyph glyph-name="lslash" unicode="ł" horiz-adv-x="266" d="M182 164c-.667-3.333-1.001-6.169-1.001-8.502v-6.5c0-11.333 3-19 9-23s15.667-6 29-6l-24-125a50.84 50.84 0 0 0-9.999-1h-10c-46.667 0-80.667 10.833-102 32.5S41 76.332 41 111c0 7.333.5 14.833 1.5 22.5s2.167 15.833 3.5 24.5l23 123-33-21-29 59 79 50 69 357h137l-51-260 51 32 30-59-98-62-42-213z"/><glyph glyph-name="Nacute" unicode="Ń" horiz-adv-x="481" d="M327 307l69 388.999h133l-135-696H278l-41 220-22 132h-5l-67-352H8l135 696h119l37-216c2-10.667 4.167-23.5 6.5-38.5s4.5-30.667 6.5-47l6-47.5c2-15.333 3.333-28.666 4-39.999h5zm-33 478.999l193 130 58-93-215-105z"/><glyph glyph-name="nacute" unicode="ń" horiz-adv-x="413" d="M229 447c11.333 16 26.501 29 45.501 39s36.167 15 51.5 15c18 0 32.5-2.167 43.5-6.5s19.5-10.333 25.5-18 10-16.5 12-26.5 3-20.667 3-32c0-7.333-.667-15.166-2-23.499l-4-24.5-71-370h-137l65 335c.667 3.333 1 7.666 1 12.999 0 8.667-2 14.667-6 18s-9 5-15 5c-11.333 0-20.333-4.667-27-14S202.667 336.667 200 324L139 0H2l96 495h137l-11-47zm-18.999 127l136 186 98-54-170-175z"/><glyph glyph-name="Ncommaaccent" unicode="Ņ" horiz-adv-x="481" d="M327 307l69 388.999h133l-135-696H278l-41 220-22 132h-5l-67-352H8l135 696h119l37-216c2-10.667 4.167-23.5 6.5-38.5s4.5-30.667 6.5-47l6-47.5c2-15.333 3.333-28.666 4-39.999h5zM172-256.001h-66l49 107h-24l21 111h117l-21-109z"/><glyph glyph-name="ncommaaccent" unicode="ņ" horiz-adv-x="413" d="M229 447c11.333 16 26.501 29 45.501 39s36.167 15 51.5 15c18 0 32.5-2.167 43.5-6.5s19.5-10.333 25.5-18 10-16.5 12-26.5 3-20.667 3-32c0-7.333-.667-15.166-2-23.499l-4-24.5-71-370h-137l65 335c.667 3.333 1 7.666 1 12.999 0 8.667-2 14.667-6 18s-9 5-15 5c-11.333 0-20.333-4.667-27-14S202.667 336.667 200 324L139 0H2l96 495h137l-11-47zM126.001-276h-66l49 107h-24l21 111h117l-21-109z"/><glyph glyph-name="Ncaron" unicode="Ň" horiz-adv-x="481" d="M327 307l69 388.999h133l-135-696H278l-41 220-22 132h-5l-67-352H8l135 696h119l37-216c2-10.667 4.167-23.5 6.5-38.5s4.5-30.667 6.5-47l6-47.5c2-15.333 3.333-28.666 4-39.999h5zm23 522.999l140 86 47-47-162-145h-79l-101 144 57 48z"/><glyph glyph-name="ncaron" unicode="ň" horiz-adv-x="413" d="M229 447c11.333 16 26.501 29 45.501 39s36.167 15 51.5 15c18 0 32.5-2.167 43.5-6.5s19.5-10.333 25.5-18 10-16.5 12-26.5 3-20.667 3-32c0-7.333-.667-15.166-2-23.499l-4-24.5-71-370h-137l65 335c.667 3.333 1 7.666 1 12.999 0 8.667-2 14.667-6 18s-9 5-15 5c-11.333 0-20.333-4.667-27-14S202.667 336.667 200 324L139 0H2l96 495h137l-11-47zm194.001 284l42-48-159-158h-79l-103 159 61 47 100-94z"/><glyph glyph-name="napostrophe" unicode="ŉ" horiz-adv-x="516" d="M332 447c11.333 16 26.501 29 45.501 39s36.167 15 51.5 15c18 0 32.5-2.167 43.5-6.5s19.5-10.333 25.5-18 10-16.5 12-26.5 3-20.667 3-32c0-7.333-.667-15.166-2-23.499l-4-24.5-71-370h-137l65 335c.667 3.333 1 7.666 1 12.999 0 8.667-2 14.667-6 18s-9 5-15 5c-11.333 0-20.333-4.667-27-14S305.667 336.667 303 324L242 0H105l96 495h137l-11-47zm-216.999 4h-66l49 107h-24l21 111h117l-21-109z"/><glyph glyph-name="Eng" unicode="Ŋ" horiz-adv-x="481" d="M327 307l69 388.999h133l-149-769c-4-20-10.167-36.5-18.5-49.5s-18.333-23.5-30-31.5-24.5-13.667-38.5-17-28.333-5-43-5c-14 0-27.833 1.167-41.5 3.5s-26.5 5.5-38.5 9.5l24 95c21.333-.667 35.5 2.5 42.5 9.5s11.5 15.167 13.5 24.5l17 90-30 164-22 132h-5l-67-352H8l135 696h119l37-216c2-10.667 4.167-23.5 6.5-38.5s4.5-30.667 6.5-47l6-47.5c2-15.333 3.333-28.666 4-39.999h5z"/><glyph glyph-name="eng" unicode="ŋ" horiz-adv-x="413" d="M229 447c11.333 16 26.501 29 45.501 39s36.167 15 51.5 15c18 0 32.5-2.167 43.5-6.5s19.5-10.333 25.5-18 10-16.5 12-26.5 3-20.667 3-32c0-7.333-.667-15.166-2-23.499l-4-24.5-85-443c-4-20-10.167-36.5-18.5-49.5s-18.333-23.5-30-31.5-24.5-13.667-38.5-17-28.333-5-43-5c-14 0-27.833 1.167-41.5 3.5s-26.5 5.5-38.5 9.5l24 95c21.333-.667 35.5 2 42.5 8s11.5 14.667 13.5 26l72 369c.667 3.333 1 7.666 1 12.999 0 8.667-2 14.667-6 18s-9 5-15 5c-11.333 0-20.333-4.667-27-14S202.667 336.667 200 324L139 0H2l96 495h137l-11-47z"/><glyph glyph-name="Omacron" unicode="Ō" horiz-adv-x="445" d="M288 567c-11.333 0-21-3.335-29-10.002s-13.667-17.667-17-33l-66-342c-.667-3.333-1.167-6.166-1.5-8.499s-.5-4.833-.5-7.5c0-24.667 11.667-37 35-37 11.333 0 21 3.167 29 9.5s13.667 17.5 17 33.5l66 340c1.333 3.333 2 6.5 2 9.5v9.5c0 12.667-3.333 21.834-10 27.501s-15 8.5-25 8.5zm8 134.998c50 0 90.001-12.667 120.001-38s45-62 45-110c0-17.333-2-35.333-6-54l-62-330c-10-54.667-30-97.667-60-129s-74.333-47-133-47c-52.667 0-92.834 13.667-120.501 41S38 98.664 38 143.997c0 7.333.5 15 1.5 23s2.167 16 3.5 24l64 336c6 30 13.833 55.833 23.5 77.5s22 39.834 37 54.501 33 25.5 54 32.5 45.833 10.5 74.5 10.5zm-108.999 43l22 110h252l-22-110h-252z"/><glyph glyph-name="omacron" unicode="ō" horiz-adv-x="401" d="M242 503c26 0 48.502-3.667 67.502-11s34.667-17.166 47-29.499 21.333-26.333 27-42 8.5-31.834 8.5-48.501c0-10.667-.5-22.5-1.5-35.5s-2.5-26.167-4.5-39.5l-6-40c-2-13.333-4-25.333-6-36-8-39.333-16.667-73.333-26-102s-21.333-52.334-36-71.001-32.834-32.5-54.501-41.5-48.5-13.5-80.5-13.5c-27.333 0-50.5 4.167-69.5 12.5s-34.5 19-46.5 32-20.667 27.5-26 43.5-8 31.667-8 47c0 18 1.167 36.667 3.5 56s5.5 39.666 9.5 60.999l10.5 49c3.667 16.667 7.5 32.834 11.5 48.501s8.5 30.334 13.5 44.001 10.167 25.167 15.5 34.5c15.333 27.333 36.166 47.833 62.499 61.5S209.333 503 242 503zm-98.998 63l21 110h252l-21-110h-252zm93-190c-7.333 0-13.328-1.335-17.995-4.002s-8.834-8-12.501-16-7.334-19.333-11.001-34-7.834-33.667-12.501-57l-14-79c-1.333-7.333-2.333-13.833-3-19.5s-1-11.167-1-16.5c0-8 1.5-14.667 4.5-20s9.167-8 18.5-8c7.333 0 13.666 2.333 18.999 7s8.666 9.667 9.999 15c1.333 2.667 3.333 8.834 6 18.501s5.5 21.334 8.5 35.001 6 28.167 9 43.5l8.5 45c2.667 14.667 4.834 28 6.5 40s2.5 21 2.5 27c0 6.667-1.832 12.167-5.5 16.5s-8.833 6.5-15.5 6.5z"/><glyph glyph-name="Obreve" unicode="Ŏ" horiz-adv-x="445" d="M288 567c-11.333 0-21-3.335-29-10.002s-13.667-17.667-17-33l-66-342c-.667-3.333-1.167-6.166-1.5-8.499s-.5-4.833-.5-7.5c0-24.667 11.667-37 35-37 11.333 0 21 3.167 29 9.5s13.667 17.5 17 33.5l66 340c1.333 3.333 2 6.5 2 9.5v9.5c0 12.667-3.333 21.834-10 27.501s-15 8.5-25 8.5zm8 134.998c50 0 90.001-12.667 120.001-38s45-62 45-110c0-17.333-2-35.333-6-54l-62-330c-10-54.667-30-97.667-60-129s-74.333-47-133-47c-52.667 0-92.834 13.667-120.501 41S38 98.664 38 143.997c0 7.333.5 15 1.5 23s2.167 16 3.5 24l64 336c6 30 13.833 55.833 23.5 77.5s22 39.834 37 54.501 33 25.5 54 32.5 45.833 10.5 74.5 10.5zm-17.999 198c-.667-2-1.003-4.167-1.003-6.5v-6.5c0-20.667 5.333-36.5 16-47.5s23.667-16.5 39-16.5c10 0 19.333 2.5 28 7.5s16.334 11.333 23.001 19 12.334 16 17.001 25 8 17.5 10 25.5h107c-6-20-14-39.667-24-59s-22.667-36.5-38-51.5-33.666-27.167-54.999-36.5-46-14-74-14c-30 0-54.833 4.833-74.5 14.5s-35 22.167-46 37.5-18.5 32.5-22.5 51.5-5 38.167-3 57.5h98z"/><glyph glyph-name="obreve" unicode="ŏ" horiz-adv-x="401" d="M242 503c26 0 48.502-3.667 67.502-11s34.667-17.166 47-29.499 21.333-26.333 27-42 8.5-31.834 8.5-48.501c0-10.667-.5-22.5-1.5-35.5s-2.5-26.167-4.5-39.5l-6-40c-2-13.333-4-25.333-6-36-8-39.333-16.667-73.333-26-102s-21.333-52.334-36-71.001-32.834-32.5-54.501-41.5-48.5-13.5-80.5-13.5c-27.333 0-50.5 4.167-69.5 12.5s-34.5 19-46.5 32-20.667 27.5-26 43.5-8 31.667-8 47c0 18 1.167 36.667 3.5 56s5.5 39.666 9.5 60.999l10.5 49c3.667 16.667 7.5 32.834 11.5 48.501s8.5 30.334 13.5 44.001 10.167 25.167 15.5 34.5c15.333 27.333 36.166 47.833 62.499 61.5S209.333 503 242 503zm-21.998 197c-.667-2-1.003-4.167-1.003-6.5V687c0-20.667 5.333-36.5 16-47.5s23.667-16.5 39-16.5c10 0 19.333 2.5 28 7.5s16.334 11.333 23.001 19 12.334 16 17.001 25 8 17.5 10 25.5h107c-6-20-14-39.667-24-59s-22.667-36.5-38-51.5-33.666-27.167-54.999-36.5-46-14-74-14c-30 0-54.833 4.833-74.5 14.5s-35 22.167-46 37.5-18.5 32.5-22.5 51.5-5 38.167-3 57.5h98zm15.997-324c-7.333 0-13.328-1.335-17.995-4.002s-8.834-8-12.501-16-7.334-19.333-11.001-34-7.834-33.667-12.501-57l-14-79c-1.333-7.333-2.333-13.833-3-19.5s-1-11.167-1-16.5c0-8 1.5-14.667 4.5-20s9.167-8 18.5-8c7.333 0 13.666 2.333 18.999 7s8.666 9.667 9.999 15c1.333 2.667 3.333 8.834 6 18.501s5.5 21.334 8.5 35.001 6 28.167 9 43.5l8.5 45c2.667 14.667 4.834 28 6.5 40s2.5 21 2.5 27c0 6.667-1.832 12.167-5.5 16.5s-8.833 6.5-15.5 6.5z"/><glyph glyph-name="Ohungarumlaut" unicode="Ő" horiz-adv-x="445" d="M288 567c-11.333 0-21-3.335-29-10.002s-13.667-17.667-17-33l-66-342c-.667-3.333-1.167-6.166-1.5-8.499s-.5-4.833-.5-7.5c0-24.667 11.667-37 35-37 11.333 0 21 3.167 29 9.5s13.667 17.5 17 33.5l66 340c1.333 3.333 2 6.5 2 9.5v9.5c0 12.667-3.333 21.834-10 27.501s-15 8.5-25 8.5zm8 134.998c50 0 90.001-12.667 120.001-38s45-62 45-110c0-17.333-2-35.333-6-54l-62-330c-10-54.667-30-97.667-60-129s-74.333-47-133-47c-52.667 0-92.834 13.667-120.501 41S38 98.664 38 143.997c0 7.333.5 15 1.5 23s2.167 16 3.5 24l64 336c6 30 13.833 55.833 23.5 77.5s22 39.834 37 54.501 33 25.5 54 32.5 45.833 10.5 74.5 10.5zm71.001 84l193 130 58-93-215-105zm-203 0l193 130 58-93-215-105z"/><glyph glyph-name="ohungarumlaut" unicode="ő" horiz-adv-x="401" d="M242 503c26 0 48.502-3.667 67.502-11s34.667-17.166 47-29.499 21.333-26.333 27-42 8.5-31.834 8.5-48.501c0-10.667-.5-22.5-1.5-35.5s-2.5-26.167-4.5-39.5l-6-40c-2-13.333-4-25.333-6-36-8-39.333-16.667-73.333-26-102s-21.333-52.334-36-71.001-32.834-32.5-54.501-41.5-48.5-13.5-80.5-13.5c-27.333 0-50.5 4.167-69.5 12.5s-34.5 19-46.5 32-20.667 27.5-26 43.5-8 31.667-8 47c0 18 1.167 36.667 3.5 56s5.5 39.666 9.5 60.999l10.5 49c3.667 16.667 7.5 32.834 11.5 48.501s8.5 30.334 13.5 44.001 10.167 25.167 15.5 34.5c15.333 27.333 36.166 47.833 62.499 61.5S209.333 503 242 503zm-124.998 71l136 186 98-54-170-175zm170 0l136 186 98-54-170-175zm-51-198c-7.333 0-13.328-1.335-17.995-4.002s-8.834-8-12.501-16-7.334-19.333-11.001-34-7.834-33.667-12.501-57l-14-79c-1.333-7.333-2.333-13.833-3-19.5s-1-11.167-1-16.5c0-8 1.5-14.667 4.5-20s9.167-8 18.5-8c7.333 0 13.666 2.333 18.999 7s8.666 9.667 9.999 15c1.333 2.667 3.333 8.834 6 18.501s5.5 21.334 8.5 35.001 6 28.167 9 43.5l8.5 45c2.667 14.667 4.834 28 6.5 40s2.5 21 2.5 27c0 6.667-1.832 12.167-5.5 16.5s-8.833 6.5-15.5 6.5z"/><glyph glyph-name="OE" unicode="Œ" horiz-adv-x="598" d="M255 0c-17.333-4-35.667-5.999-55-5.999-28.667 0-54 4.833-76 14.5s-39.833 23.167-53.5 40.5-23 38-28 62-4.833 50.667.5 80l64 336c11.333 60 32.833 104.167 64.5 132.5s73.167 42.5 124.5 42.5c11.333 0 22-.333 32-1s19.667-2.334 29-5.001h312l-25-130H461l-29-146h160l-26-133H406l-29-151h183L534 0H255zm32.999 567.001c-11.333 0-21.001-3.333-29.001-10s-13.667-17.667-17-33l-66-342c-3.333-16-2.333-28.833 3-38.5s15.333-14.5 30-14.5c11.333 0 21 3.167 29 9.5s13.667 17.5 17 33.5l66 340c4.667 19.333 3.334 33.333-3.999 42s-17 13-29 13z"/><glyph glyph-name="oe" unicode="œ" horiz-adv-x="619" d="M563 145c-5.333-22-12.331-42.174-20.998-60.507s-19.834-34.333-33.501-48-30.334-24.167-50.001-31.5-43.5-11-71.5-11c-24 0-43.5 4-58.5 12s-28.5 19.333-40.5 34c-12-15.333-28.833-27-50.5-35s-44.834-12-69.501-12c-25.333 0-46.833 4.333-64.5 13s-32.167 19.667-43.5 33S40.333 66.826 35 82.493s-8 30.834-8 45.501c0 18 1.167 36.667 3.5 56s5.5 39.666 9.5 61l10.5 49c3.667 16.666 7.5 32.833 11.5 48.5s8.5 30.334 13.5 44.001 10.167 25.167 15.5 34.5c15.333 27.333 36.166 47.833 62.499 61.5s55.833 20.5 88.5 20.5c22.667 0 42.834-3.667 60.501-11s31.167-17.666 40.5-30.999c11.333 12.667 25.666 22.834 42.999 30.501s36.333 11.5 57 11.5c48 0 85.5-11 112.5-33s40.5-52 40.5-90c0-33.333-5.167-61.5-15.5-84.5s-24.333-41.667-42-56-38.167-24.666-61.5-30.999-48-9.5-74-9.5h-12.5c-3.667 0-8.167.333-13.5 1-2.667-9.333-4.5-19.166-5.5-29.499s-1.5-18.166-1.5-23.499c.667-16.667 7.334-25 20.001-25 9.333 0 16.833 2.833 22.5 8.5S423 146 427 160zM236.002 375.993c-7.333 0-13.328-1.335-17.995-4.002s-8.834-8-12.501-16-7.334-19.333-11.001-34-7.834-33.667-12.501-57l-14-79c-1.333-7.333-2.333-13.833-3-19.5s-1-11.167-1-16.5c0-8 1.5-14.667 4.5-20s9.167-8 18.5-8c7.333 0 13.666 2.333 18.999 7s8.666 9.667 9.999 15c1.333 2.667 3.333 8.834 6 18.501s5.5 21.334 8.5 35.001 6 28.167 9 43.5l8.5 45c2.667 14.667 4.834 28 6.5 40s2.5 21 2.5 27c0 6.667-1.832 12.167-5.5 16.5s-8.833 6.5-15.5 6.5zm204.005.998c-12.667 0-22.168-6.166-28.501-18.499s-11.5-29.833-15.5-52.5c24.667 0 41.834 4 51.501 12s14.5 20.667 14.5 38c0 5.333-1.833 10.166-5.5 14.499s-9.167 6.5-16.5 6.5z"/><glyph glyph-name="Racute" unicode="Ŕ" horiz-adv-x="446" d="M301 696c24.667 0 47.501-2.831 68.501-8.498s39.167-14.834 54.5-27.501S451.167 630.667 459.5 610s12.5-45.667 12.5-75c0-33.333-3-62.5-9-87.5s-14.167-46.833-24.5-65.5-22.833-34.5-37.5-47.5-30.667-23.833-48-32.5L395 0H256l-30 271h-27L147 0H11l135 696h155zm-43.999-129.998l-32-164.001h21c10 0 20.5 1.333 31.5 4s21.167 7.834 30.5 15.501 17 18 23 31 9 30.167 9 51.5-5.667 37-17 47-26.333 15-45 15h-21zm-8 219.999l193 130 58-93-215-105z"/><glyph glyph-name="racute" unicode="ŕ" horiz-adv-x="316" d="M106 496h138l-12-61h2c14 25.333 29.667 43 47 53s37.333 15 60 15c4 0 8-.167 12-.5s8-.833 12-1.5l-26-135c-10 2-19.667 3-29 3-28 0-51.5-7.833-70.5-23.5S207.333 304.333 200 269L148 0H10zm75 78l136 186 98-54-170-175z"/><glyph glyph-name="Rcommaaccent" unicode="Ŗ" horiz-adv-x="446" d="M301 696c24.667 0 47.501-2.831 68.501-8.498s39.167-14.834 54.5-27.501S451.167 630.667 459.5 610s12.5-45.667 12.5-75c0-33.333-3-62.5-9-87.5s-14.167-46.833-24.5-65.5-22.833-34.5-37.5-47.5-30.667-23.833-48-32.5L395 0H256l-30 271h-27L147 0H11l135 696h155zm-43.999-129.998l-32-164.001h21c10 0 20.5 1.333 31.5 4s21.167 7.834 30.5 15.501 17 18 23 31 9 30.167 9 51.5-5.667 37-17 47-26.333 15-45 15h-21zm-97-822.001h-66l49 107h-24l21 111h117l-21-109z"/><glyph glyph-name="rcommaaccent" unicode="ŗ" horiz-adv-x="316" d="M106 496h138l-12-61h2c14 25.333 29.667 43 47 53s37.333 15 60 15c4 0 8-.167 12-.5s8-.833 12-1.5l-26-135c-10 2-19.667 3-29 3-28 0-51.5-7.833-70.5-23.5S207.333 304.333 200 269L148 0H10zM37-273h-66l49 107H-4L17-55h117l-21-109z"/><glyph glyph-name="Rcaron" unicode="Ř" horiz-adv-x="446" d="M301 696c24.667 0 47.501-2.831 68.501-8.498s39.167-14.834 54.5-27.501S451.167 630.667 459.5 610s12.5-45.667 12.5-75c0-33.333-3-62.5-9-87.5s-14.167-46.833-24.5-65.5-22.833-34.5-37.5-47.5-30.667-23.833-48-32.5L395 0H256l-30 271h-27L147 0H11l135 696h155zm-43.999-129.998l-32-164.001h21c10 0 20.5 1.333 31.5 4s21.167 7.834 30.5 15.501 17 18 23 31 9 30.167 9 51.5-5.667 37-17 47-26.333 15-45 15h-21zm50 263.999l140 86 47-47-162-145h-79l-101 144 57 48z"/><glyph glyph-name="rcaron" unicode="ř" horiz-adv-x="316" d="M106 496h138l-12-61h2c14 25.333 29.667 43 47 53s37.333 15 60 15c4 0 8-.167 12-.5s8-.833 12-1.5l-26-135c-10 2-19.667 3-29 3-28 0-51.5-7.833-70.5-23.5S207.333 304.333 200 269L148 0H10zm281 235l42-48-159-158h-79L88 684l61 47 100-94z"/><glyph glyph-name="Sacute" unicode="Ś" horiz-adv-x="427" d="M169 191c-3.333-11.333-5-21.334-5-30.001 0-9.333 2.5-17.166 7.5-23.499S186 128 200 128c13.333 0 24.333 3.5 33 10.5s15.5 16 20.5 27S262 188.667 264 202s3 26.333 3 39c0 13.333-3.833 23.5-11.5 30.5S234 286.667 214 296c-24 10.667-44 21.834-60 33.501s-28.5 23.834-37.5 36.501-15.333 25.667-19 39-5.5 27.333-5.5 42c0 36.667 4.5 70.667 13.5 102s22.5 58.333 40.5 81 40.5 40.334 67.5 53.001 58.5 19 94.5 19c28.667 0 53-3.333 73-10s36.167-16 48.5-28 21.166-25.833 26.499-41.5 8-32.5 8-50.5c0-20.667-3-42-9-64l-135-8c1.333 5.333 2.333 10.666 3 15.999s1 10.666 1 15.999c0 9.333-2.333 17.5-7 24.5s-14.334 10.5-29.001 10.5c-11.333 0-20.666-3.167-27.999-9.5s-13.166-14-17.499-23-7.333-18.333-9-28-2.5-18.167-2.5-25.5c0-11.333 4.333-21.666 13-30.999s26-19.666 52-30.999c21.333-9.333 39-18.833 53-28.5s25-20 33-31 13.667-22.833 17-35.5 5-26.334 5-41.001c0-38-3.5-74.5-10.5-109.5s-19-65.833-36-92.5-39.667-47.834-68-63.501S226-5.999 184-5.999c-28 0-52 3.5-72 10.5s-36.5 16.5-49.5 28.5S40 59.168 34 75.501 25 109.667 25 129c0 16 2 32.667 6 50zm89 594.999l193 130 58-93-215-105z"/><glyph glyph-name="sacute" unicode="ś" horiz-adv-x="387" d="M151 160c-.667-2.667-1.167-4.834-1.5-6.501s-.5-3.5-.5-5.5c0-9.333 2.667-16.666 8-21.999s12.333-8 21-8c13.333 0 23.333 5.167 30 15.5s10 20.833 10 31.5-2.667 18.167-8 22.5-11.666 7.833-18.999 10.5l-48 17.5c-16 5.667-30.333 13-43 22s-23 20.5-31 34.5-12 32.333-12 55c0 26 4.167 49.667 12.5 71s20.333 39.833 36 55.5 35 27.834 58 36.501 49.167 13 78.5 13c47.333 0 83.5-10.667 108.5-32s37.5-50.333 37.5-87c0-10.667-1-21.334-3-32.001l-134-14c.667 2 1 4.333 1 7 0 8.667-2 16.334-6 23.001s-10.667 10-20 10c-8 0-14.333-1.833-19-5.5s-8.167-7.834-10.5-12.501-3.833-9.167-4.5-13.5-1-7.166-1-8.499c0-10.667 7.333-18.334 22-23.001 20-6.667 38.667-13.334 56-20.001s32.166-15 44.499-25 22-22.5 29-37.5 10.5-33.833 10.5-56.5c0-23.333-3.333-46-10-68s-17.667-41.5-33-58.5-35.333-30.5-60-40.5-54.667-15-90-15c-44 0-79.333 10.167-106 30.5s-40 50.833-40 91.5c0 4 .167 8.333.5 13s.833 9.334 1.5 14.001zm29 414l136 186 98-54-170-175z"/><glyph glyph-name="Scircumflex" unicode="Ŝ" horiz-adv-x="427" d="M169 191c-3.333-11.333-5-21.334-5-30.001 0-9.333 2.5-17.166 7.5-23.499S186 128 200 128c13.333 0 24.333 3.5 33 10.5s15.5 16 20.5 27S262 188.667 264 202s3 26.333 3 39c0 13.333-3.833 23.5-11.5 30.5S234 286.667 214 296c-24 10.667-44 21.834-60 33.501s-28.5 23.834-37.5 36.501-15.333 25.667-19 39-5.5 27.333-5.5 42c0 36.667 4.5 70.667 13.5 102s22.5 58.333 40.5 81 40.5 40.334 67.5 53.001 58.5 19 94.5 19c28.667 0 53-3.333 73-10s36.167-16 48.5-28 21.166-25.833 26.499-41.5 8-32.5 8-50.5c0-20.667-3-42-9-64l-135-8c1.333 5.333 2.333 10.666 3 15.999s1 10.666 1 15.999c0 9.333-2.333 17.5-7 24.5s-14.334 10.5-29.001 10.5c-11.333 0-20.666-3.167-27.999-9.5s-13.166-14-17.499-23-7.333-18.333-9-28-2.5-18.167-2.5-25.5c0-11.333 4.333-21.666 13-30.999s26-19.666 52-30.999c21.333-9.333 39-18.833 53-28.5s25-20 33-31 13.667-22.833 17-35.5 5-26.334 5-41.001c0-38-3.5-74.5-10.5-109.5s-19-65.833-36-92.5-39.667-47.834-68-63.501S226-5.999 184-5.999c-28 0-52 3.5-72 10.5s-36.5 16.5-49.5 28.5S40 59.168 34 75.501 25 109.667 25 129c0 16 2 32.667 6 50zm160 618.999l-140-86-47 47 162 145h79l101-144-57-48z"/><glyph glyph-name="scircumflex" unicode="ŝ" horiz-adv-x="387" d="M151 160c-.667-2.667-1.167-4.834-1.5-6.501s-.5-3.5-.5-5.5c0-9.333 2.667-16.666 8-21.999s12.333-8 21-8c13.333 0 23.333 5.167 30 15.5s10 20.833 10 31.5-2.667 18.167-8 22.5-11.666 7.833-18.999 10.5l-48 17.5c-16 5.667-30.333 13-43 22s-23 20.5-31 34.5-12 32.333-12 55c0 26 4.167 49.667 12.5 71s20.333 39.833 36 55.5 35 27.834 58 36.501 49.167 13 78.5 13c47.333 0 83.5-10.667 108.5-32s37.5-50.333 37.5-87c0-10.667-1-21.334-3-32.001l-134-14c.667 2 1 4.333 1 7 0 8.667-2 16.334-6 23.001s-10.667 10-20 10c-8 0-14.333-1.833-19-5.5s-8.167-7.834-10.5-12.501-3.833-9.167-4.5-13.5-1-7.166-1-8.499c0-10.667 7.333-18.334 22-23.001 20-6.667 38.667-13.334 56-20.001s32.166-15 44.499-25 22-22.5 29-37.5 10.5-33.833 10.5-56.5c0-23.333-3.333-46-10-68s-17.667-41.5-33-58.5-35.333-30.5-60-40.5-54.667-15-90-15c-44 0-79.333 10.167-106 30.5s-40 50.833-40 91.5c0 4 .167 8.333.5 13s.833 9.334 1.5 14.001zm122 460L127 515l-43 47 165 159h79l101-169-57-33z"/><glyph glyph-name="Scedilla" unicode="Ş" horiz-adv-x="427" d="M169 191c-3.333-11.333-4.997-21.332-4.997-29.999 0-9.333 2.5-17.166 7.5-23.499s14.5-9.5 28.5-9.5c13.333 0 24.333 3.5 33 10.5s15.5 16 20.5 27 8.5 23.167 10.5 36.5 3 26.333 3 39c0 13.333-3.833 23.5-11.5 30.5s-21.5 15.167-41.5 24.5c-24 10.667-44 21.834-60 33.501s-28.5 23.834-37.5 36.501-15.333 25.667-19 39-5.5 27.333-5.5 42c0 36.667 4.5 70.667 13.5 102s22.5 58.333 40.5 81 40.5 40.334 67.5 53.001 58.5 19 94.5 19c28.667 0 53-3.333 73-10s36.167-16 48.5-28 21.166-25.833 26.499-41.5 8-32.5 8-50.5c0-20.667-3-42-9-64l-135-8c1.333 5.333 2.333 10.666 3 15.999s1 10.666 1 15.999c0 9.333-2.333 17.5-7 24.5s-14.334 10.5-29.001 10.5c-11.333 0-20.666-3.167-28-9.5s-13.165-14-17.498-23-7.333-18.333-9-28-2.5-18.167-2.5-25.5c0-11.333 4.333-21.666 13-30.999s26-19.666 52-30.999c21.333-9.333 39-18.833 53-28.5s25-20 33-31 13.667-22.833 17-35.5 5-26.334 5-41.001c0-36.667-3.167-71.834-9.5-105.501s-17.333-63.667-33-90-36.334-47.666-62.001-63.999-57.5-25.833-95.5-28.5l-16-31c28.667-4 48-13.333 58-28s15-29.334 15-44.001c0-7.333-1.333-16.666-4-27.999s-8-22.5-16-33.5-19.5-20.5-34.5-28.5-35.167-12-60.5-12c-2.667 0-7.334.167-14.001.5s-14.5 1.166-23.5 2.499-18.833 3.666-29.5 6.999S57.667-192.332 47-186.999l31 58c14-6.667 25.5-10.834 34.5-12.501s17.167-2.5 24.5-2.5c11.333 0 20.5 3.167 27.5 9.5S175-120.667 175-112s-3 14.334-9 17.001-14 4-24 4l-30 23 33 65C103 2.334 72.5 17.167 53.5 41.5S25 95 25 129c0 16 2 32.667 6 50z"/><glyph glyph-name="scedilla" unicode="ş" horiz-adv-x="387" d="M151 160c-.667-2.667-1.164-4.832-1.497-6.499s-.5-3.5-.5-5.5c0-9.333 2.667-16.666 8-21.999s12.333-8 21-8c13.333 0 23.333 5.167 30 15.5s10 20.833 10 31.5-2.667 18.167-8 22.5-11.666 7.833-19 10.5l-48 17.5c-16 5.667-30.332 13-43 22s-23 20.5-31 34.5-12 32.333-12 55c0 26 4.168 49.667 12.5 71s20.334 39.833 36 55.5 35 27.834 58 36.501 49.168 13 78.5 13c47.334 0 83.5-10.667 108.5-32s37.5-50.333 37.5-87c0-10.667-1-21.334-3-32.001l-134-14c.668 2 1 4.333 1 7 0 8.667-2 16.334-6 23.001s-10.666 10-20 10c-8 0-14.332-1.833-19-5.5s-8.166-7.834-10.5-12.501-3.832-9.167-4.5-13.5-1-7.166-1-8.499c0-10.667 7.334-18.334 22-23.001 20-6.667 38.668-13.334 56-20.001s32.167-15 44.5-25 22-22.5 29-37.5 10.5-33.833 10.5-56.5c0-21.333-2.833-42-8.5-62s-14.667-38.167-27-54.5-28.333-30.166-48-41.499S225.669-.664 197.002-3.997l-17-32c28.667-4 48-13.333 58-28s15-29.334 15-44.001c0-2.667-1.333-9.5-4-20.5s-8-22.5-16-34.5-19.5-22.833-34.5-32.5-35.167-14.5-60.5-14.5c-2.667 0-7.334.167-14.001.5s-14.5 1.166-23.5 2.499S81.668-203.333 71-200s-21.333 7.666-32 12.999l31 53c14-6.667 25.5-10.834 34.5-12.501s17.167-2.5 24.5-2.5c11.333 0 20.5 4 27.5 12s10.5 16.333 10.5 25-3 14.334-9 17.001-14 4-24 4l-30 23 32 63c-37.333 3.333-67 15-89 35s-33 48.667-33 86c0 4 .167 8.333.5 13s.833 9.334 1.5 14.001z"/><glyph glyph-name="Scaron" unicode="Š" horiz-adv-x="427" d="M169 191c-3.333-11.333-5-21.334-5-30.001 0-9.333 2.5-17.166 7.5-23.499S186 128 200 128c13.333 0 24.333 3.5 33 10.5s15.5 16 20.5 27S262 188.667 264 202s3 26.333 3 39c0 13.333-3.833 23.5-11.5 30.5S234 286.667 214 296c-24 10.667-44 21.834-60 33.501s-28.5 23.834-37.5 36.501-15.333 25.667-19 39-5.5 27.333-5.5 42c0 36.667 4.5 70.667 13.5 102s22.5 58.333 40.5 81 40.5 40.334 67.5 53.001 58.5 19 94.5 19c28.667 0 53-3.333 73-10s36.167-16 48.5-28 21.166-25.833 26.499-41.5 8-32.5 8-50.5c0-20.667-3-42-9-64l-135-8c1.333 5.333 2.333 10.666 3 15.999s1 10.666 1 15.999c0 9.333-2.333 17.5-7 24.5s-14.334 10.5-29.001 10.5c-11.333 0-20.666-3.167-27.999-9.5s-13.166-14-17.499-23-7.333-18.333-9-28-2.5-18.167-2.5-25.5c0-11.333 4.333-21.666 13-30.999s26-19.666 52-30.999c21.333-9.333 39-18.833 53-28.5s25-20 33-31 13.667-22.833 17-35.5 5-26.334 5-41.001c0-38-3.5-74.5-10.5-109.5s-19-65.833-36-92.5-39.667-47.834-68-63.501S226-5.999 184-5.999c-28 0-52 3.5-72 10.5s-36.5 16.5-49.5 28.5S40 59.168 34 75.501 25 109.667 25 129c0 16 2 32.667 6 50zm158 638.999l140 86 47-47-162-145h-79l-101 144 57 48z"/><glyph glyph-name="scaron" unicode="š" horiz-adv-x="387" d="M151 160c-.667-2.667-1.167-4.834-1.5-6.501s-.5-3.5-.5-5.5c0-9.333 2.667-16.666 8-21.999s12.333-8 21-8c13.333 0 23.333 5.167 30 15.5s10 20.833 10 31.5-2.667 18.167-8 22.5-11.666 7.833-18.999 10.5l-48 17.5c-16 5.667-30.333 13-43 22s-23 20.5-31 34.5-12 32.333-12 55c0 26 4.167 49.667 12.5 71s20.333 39.833 36 55.5 35 27.834 58 36.501 49.167 13 78.5 13c47.333 0 83.5-10.667 108.5-32s37.5-50.333 37.5-87c0-10.667-1-21.334-3-32.001l-134-14c.667 2 1 4.333 1 7 0 8.667-2 16.334-6 23.001s-10.667 10-20 10c-8 0-14.333-1.833-19-5.5s-8.167-7.834-10.5-12.501-3.833-9.167-4.5-13.5-1-7.166-1-8.499c0-10.667 7.333-18.334 22-23.001 20-6.667 38.667-13.334 56-20.001s32.166-15 44.499-25 22-22.5 29-37.5 10.5-33.833 10.5-56.5c0-23.333-3.333-46-10-68s-17.667-41.5-33-58.5-35.333-30.5-60-40.5-54.667-15-90-15c-44 0-79.333 10.167-106 30.5s-40 50.833-40 91.5c0 4 .167 8.333.5 13s.833 9.334 1.5 14.001zm260 571l42-48-159-158h-79L112 684l61 47 100-94z"/><glyph glyph-name="Tcommaaccent" unicode="Ţ" horiz-adv-x="360" d="M317 566L207 0H71l110 566H74l25 130h350l-25-130H317zM94-276H28l49 107H53L74-58h117l-21-109z"/><glyph glyph-name="tcommaaccent" unicode="ţ" horiz-adv-x="277" d="M95 388l-44.999-.002 21 107h45l25 130h129l-25-130h56l-21-107h-56l-42-218c-.667-3.333-1.334-6.5-2.001-9.5s-1-6.167-1-9.5c0-7.333 2.5-13.666 7.5-18.999s15.167-8 30.5-8h12l-24-124c-5.333-1.333-12-2.166-20-2.499S169.667-3 163-3c-24 0-43.833 3-59.5 9s-28 14-37 24-15.333 21.167-19 33.5S42 88.333 42 101c0 6 .333 12 1 18s1.667 11.667 3 17zM49.001-276.002h-66l49 107h-24l21 111h117l-21-109z"/><glyph glyph-name="Tcaron" unicode="Ť" horiz-adv-x="360" d="M317 566L207 0H71l110 566H74l25 130h350l-25-130H317zm-16 264l140 86 47-47-162-145h-79L146 868l57 48z"/><glyph glyph-name="tcaron" unicode="ť" horiz-adv-x="386" d="M105 388l-44.999-.002 21 107h45l25 130h129l-25-130h56l-21-107h-56l-42-218c-.667-3.333-1.334-6.5-2.001-9.5s-1-6.167-1-9.5c0-7.333 2.5-13.666 7.5-18.999s15.167-8 30.5-8h12l-24-124c-5.333-1.333-12-2.166-20-2.499S179.667-3 173-3c-24 0-43.833 3-59.5 9s-28 14-37 24-15.333 21.167-19 33.5S52 88.333 52 101c0 6 .333 12 1 18s1.667 11.667 3 17zm277.001 156.998h-66l49 107h-24l21 111h117l-21-109z"/><glyph glyph-name="Tbar" unicode="Ŧ" horiz-adv-x="360" d="M317 566l-30-152h89l-19-93h-88L207 0H71l62 321H53l19 93h79l30 152H74l25 130h350l-25-130H317z"/><glyph glyph-name="tbar" unicode="ŧ" horiz-adv-x="277" d="M65 236l-43.999-.002 17 88h44l13 64h-45l21 107h45l25 130h129l-25-130h56l-21-107h-56l-13-64h57l-17-88h-57l-12-66c-.667-3.333-1.334-6.5-2.001-9.5s-1-6.167-1-9.5c0-7.333 2.5-13.666 7.5-18.999s15.167-8 30.5-8h12l-24-124c-5.333-1.333-12-2.166-20-2.499S169.667-3 163-3c-24 0-43.833 3-59.5 9s-28 14-37 24-15.333 21.167-19 33.5S42 88.333 42 101c0 6 .333 12 1 18s1.667 11.667 3 17z"/><glyph glyph-name="Utilde" unicode="Ũ" horiz-adv-x="445" d="M495 696L392.999 170c-23.333-117.333-88.333-176-195-176-26.667 0-51 4-73 12s-40.333 19.667-55 35-25 34.333-31 57-6 49 0 79l101 519h136l-102-518c-3.333-16-1.166-28.167 6.501-36.5S197.667 129 209 129s21 3.167 29 9.5 13.667 17.5 17 33.5l102 524h138zM266.999 863c10 0 19.669-1.834 29.002-5.501s18-7.5 26-11.5l22.5-11.5c7-3.667 13.5-5.5 19.5-5.5 4 0 7.833.167 11.5.5s7.667 1.5 12 3.5 9.166 5.333 14.499 10 11.666 11 18.999 19l58-36c-17.333-37.333-35.833-62.333-55.5-75s-38.5-19-56.5-19c-11.333 0-21.5 1.833-30.5 5.5s-17.333 7.667-25 12l-22 12c-7 3.667-14.5 5.5-22.5 5.5-7.333 0-15.333-2.167-24-6.5s-19.667-14.166-33-29.499l-57 42c20.667 36 40.5 60 59.5 72s37.167 18 54.5 18z"/><glyph glyph-name="utilde" unicode="ũ" horiz-adv-x="413" d="M203 48c-11.333-16-26.498-29.002-45.498-39.002s-36.167-15-51.5-15c-24 0-42.167 3.833-54.5 11.5s-20.833 17.834-25.5 30.501-6.334 26.667-5.001 42 3.666 31 6.999 47l71 370h137l-65-335c-2-9.333-1.5-17.666 1.5-24.999s9.167-11 18.5-11c8 0 16.167 4.667 24.5 14s13.833 20.333 16.5 33l61 324h137L334 0H197l11 47zm22.002 634.998c10 0 19.669-1.834 29.002-5.501s18-7.5 26-11.5l22.5-11.5c7-3.667 13.5-5.5 19.5-5.5 4 0 7.833.167 11.5.5s7.667 1.5 12 3.5 9.166 5.333 14.499 10 11.666 11 18.999 19l58-36c-17.333-37.333-35.833-62.333-55.5-75s-38.5-19-56.5-19c-11.333 0-21.5 1.833-30.5 5.5s-17.333 7.667-25 12l-22 12c-7 3.667-14.5 5.5-22.5 5.5-7.333 0-15.333-2.167-24-6.5s-19.667-14.166-33-29.499l-57 42c20.667 36 40.5 60 59.5 72s37.167 18 54.5 18z"/><glyph glyph-name="Umacron" unicode="Ū" horiz-adv-x="445" d="M495 696L392.999 170c-23.333-117.333-88.333-176-195-176-26.667 0-51 4-73 12s-40.333 19.667-55 35-25 34.333-31 57-6 49 0 79l101 519h136l-102-518c-3.333-16-1.166-28.167 6.501-36.5S197.667 129 209 129s21 3.167 29 9.5 13.667 17.5 17 33.5l102 524h138zm-305.001 49l22 110h252l-22-110h-252z"/><glyph glyph-name="umacron" unicode="ū" horiz-adv-x="413" d="M203 48c-11.333-16-26.498-29.002-45.498-39.002s-36.167-15-51.5-15c-24 0-42.167 3.833-54.5 11.5s-20.833 17.834-25.5 30.501-6.334 26.667-5.001 42 3.666 31 6.999 47l71 370h137l-65-335c-2-9.333-1.5-17.666 1.5-24.999s9.167-11 18.5-11c8 0 16.167 4.667 24.5 14s13.833 20.333 16.5 33l61 324h137L334 0H197l11 47zm-50.998 517.998l21 110h252l-21-110h-252z"/><glyph glyph-name="Ubreve" unicode="Ŭ" horiz-adv-x="445" d="M495 696L392.999 170c-23.333-117.333-88.333-176-195-176-26.667 0-51 4-73 12s-40.333 19.667-55 35-25 34.333-31 57-6 49 0 79l101 519h136l-102-518c-3.333-16-1.166-28.167 6.501-36.5S197.667 129 209 129s21 3.167 29 9.5 13.667 17.5 17 33.5l102 524h138zM276.999 900c-.667-2-1.003-4.167-1.003-6.5V887c0-20.667 5.333-36.5 16-47.5s23.667-16.5 39-16.5c10 0 19.333 2.5 28 7.5s16.334 11.333 23.001 19 12.334 16 17.001 25 8 17.5 10 25.5h107c-6-20-14-39.667-24-59s-22.667-36.5-38-51.5S420.332 762.333 399 753s-46-14-74-14c-30 0-54.833 4.833-74.5 14.5s-35 22.167-46 37.5-18.5 32.5-22.5 51.5-5 38.167-3 57.5h98z"/><glyph glyph-name="ubreve" unicode="ŭ" horiz-adv-x="413" d="M203 48c-11.333-16-26.498-29.002-45.498-39.002s-36.167-15-51.5-15c-24 0-42.167 3.833-54.5 11.5s-20.833 17.834-25.5 30.501-6.334 26.667-5.001 42 3.666 31 6.999 47l71 370h137l-65-335c-2-9.333-1.5-17.666 1.5-24.999s9.167-11 18.5-11c8 0 16.167 4.667 24.5 14s13.833 20.333 16.5 33l61 324h137L334 0H197l11 47zm23.002 651.998c-.667-2-1.003-4.167-1.003-6.5v-6.5c0-20.667 5.333-36.5 16-47.5s23.667-16.5 39-16.5c10 0 19.333 2.5 28 7.5s16.334 11.333 23.001 19 12.334 16 17.001 25 8 17.5 10 25.5h107c-6-20-14-39.667-24-59s-22.667-36.5-38-51.5-33.666-27.167-54.999-36.5-46-14-74-14c-30 0-54.833 4.833-74.5 14.5s-35 22.167-46 37.5-18.5 32.5-22.5 51.5-5 38.167-3 57.5h98z"/><glyph glyph-name="Uring" unicode="Ů" horiz-adv-x="445" d="M495 696L392.999 170c-23.333-117.333-88.333-176-195-176-26.667 0-51 4-73 12s-40.333 19.667-55 35-25 34.333-31 57-6 49 0 79l101 519h136l-102-518c-3.333-16-1.166-28.167 6.501-36.5S197.667 129 209 129s21 3.167 29 9.5 13.667 17.5 17 33.5l102 524h138zm-162.001 28c-25.333 0-46.832 7.667-64.499 23S242 781.666 242 804.999c0 16 2.667 31.5 8 46.5s13 28 23 39 22.167 19.833 36.5 26.5 30.166 10 47.499 10c25.333 0 46.833-7.667 64.5-23s26.5-34.666 26.5-57.999c0-16-2.5-31.5-7.5-46.5s-12.5-28-22.5-39-22.167-19.833-36.5-26.5-30.5-10-48.5-10zM350 855c-9.333 0-17.666-3.669-24.999-11.002s-11-15.666-11-24.999c0-7.333 2.667-13.333 8-18s11.666-7 18.999-7c9.333 0 17.666 3.333 24.999 10s11 15.334 11 26.001c0 7.333-2.667 13.333-8 18s-11.666 7-18.999 7z"/><glyph glyph-name="uring" unicode="ů" horiz-adv-x="413" d="M203 48c-11.333-16-26.498-29.002-45.498-39.002s-36.167-15-51.5-15c-24 0-42.167 3.833-54.5 11.5s-20.833 17.834-25.5 30.501-6.334 26.667-5.001 42 3.666 31 6.999 47l71 370h137l-65-335c-2-9.333-1.5-17.666 1.5-24.999s9.167-11 18.5-11c8 0 16.167 4.667 24.5 14s13.833 20.333 16.5 33l61 324h137L334 0H197l11 47zm71.002 470.998c-25.333 0-46.832 7.667-64.499 23s-26.5 34.666-26.5 57.999c0 16 2.667 31.5 8 46.5s13 28 23 39 22.167 19.833 36.5 26.5 30.166 10 47.499 10c25.333 0 46.833-7.667 64.5-23s26.5-34.666 26.5-57.999c0-16-2.5-31.5-7.5-46.5s-12.5-28-22.5-39-22.167-19.833-36.5-26.5-30.5-10-48.5-10zm17.001 131c-9.333 0-17.666-3.669-24.999-11.002s-11-15.666-11-24.999c0-7.333 2.667-13.333 8-18s11.666-7 18.999-7c9.333 0 17.666 3.333 24.999 10s11 15.334 11 26.001c0 7.333-2.667 13.333-8 18s-11.666 7-18.999 7z"/><glyph glyph-name="Uhungarumlaut" unicode="Ű" horiz-adv-x="445" d="M495 696L392.999 170c-23.333-117.333-88.333-176-195-176-26.667 0-51 4-73 12s-40.333 19.667-55 35-25 34.333-31 57-6 49 0 79l101 519h136l-102-518c-3.333-16-1.166-28.167 6.501-36.5S197.667 129 209 129s21 3.167 29 9.5 13.667 17.5 17 33.5l102 524h138zm-138.001 90l193 130 58-93-215-105zm-203 0l193 130 58-93-215-105z"/><glyph glyph-name="uhungarumlaut" unicode="ű" horiz-adv-x="413" d="M203 48c-11.333-16-26.498-29.002-45.498-39.002s-36.167-15-51.5-15c-24 0-42.167 3.833-54.5 11.5s-20.833 17.834-25.5 30.501-6.334 26.667-5.001 42 3.666 31 6.999 47l71 370h137l-65-335c-2-9.333-1.5-17.666 1.5-24.999s9.167-11 18.5-11c8 0 16.167 4.667 24.5 14s13.833 20.333 16.5 33l61 324h137L334 0H197l11 47zm89.002 525.998l136 186 98-54-170-175zm-170 0l136 186 98-54-170-175z"/><glyph glyph-name="Uogonek" unicode="Ų" horiz-adv-x="445" d="M495 696L392.997 169.998c-22-107.333-77.333-165.333-166-174-16.667-22-28.167-41.667-34.5-59s-10.166-29.666-11.499-36.999c-3.333-13.333-1.166-23.666 6.501-30.999s17.5-11 29.5-11c6.667 0 14.5 1 23.5 3s19.5 6 31.5 12l11-58c-17.333-10-35-17-53-21s-34.667-6-50-6c-28.667 0-51.167 8.667-67.5 26s-21.5 42-15.5 74c2.667 14 9.167 30.5 19.5 49.5s23.833 39.167 40.5 60.5c-42 7.333-74.667 26-98 56s-30 71-20 123l101 519h136l-102-518c-3.333-16-1.166-28.167 6.501-36.5S197.667 129 209 129s21 3.167 29 9.5 13.667 17.5 17 33.5l102 524h138z"/><glyph glyph-name="uogonek" unicode="ų" horiz-adv-x="413" d="M203 48c-11.333-16-26.496-29.003-45.496-39.003s-36.167-15-51.5-15c-24 0-42.167 3.833-54.5 11.5s-20.833 17.834-25.5 30.501-6.334 26.667-5.001 42 3.666 31 6.999 47l71 370h137l-65-335c-2-9.333-1.5-17.666 1.5-24.999s9.167-11 18.5-11c8 0 16.167 4.667 24.5 14s13.833 20.333 16.5 33l61 324h137l-96-495h-67c-12-16-21.5-30.667-28.5-44s-12-24.833-15-34.5-4.833-17.334-5.5-23l-1-8.5c0-10.668 3.5-18.668 10.5-24s15.833-8 26.5-8c6.667 0 13.667.832 21 2.5s18.666 4.833 33.999 9.5l13-65c-17.333-10-35.5-17-54.5-21s-36.167-6-51.5-6c-25.333 0-46.333 6.833-63 20.5S128-165.667 128-135c0 16.667 5.667 36.667 17 60s28.667 49 52 77l11 45z"/><glyph glyph-name="Wcircumflex" unicode="Ŵ" horiz-adv-x="641" d="M346 331l-17.999-52.998-14.5-42.5c-4.333-13-8.833-25.5-13.5-37.5l-15-39-63-159h-146l37 696h147l-16-185c-3.333-36.667-7-71.834-11-105.501l-12-97.5h5l64 180 73 208h108l-6-202c-.667-16-1.334-31.167-2.001-45.5l-2-44c-.667-15-1.5-30.833-2.5-47.5S456.667 321.667 456 301h6l52 193 55 202h155L491 0H345l3 140 4 191h-6zm82.001 479.002l-140-86-47 47 162 145h79l101-144-57-48z"/><glyph glyph-name="wcircumflex" unicode="ŵ" horiz-adv-x="624" d="M311 247l-41-134.999-44-112H69l-11 494h153l-15-191c-1.333-17.333-2.833-35.333-4.5-54s-4.5-39.667-8.5-63h7l54.5 151.5c17.667 50.333 33.167 102.5 46.5 156.5h141l-18-191c-1.333-17.333-3.333-36.5-6-57.5s-5.667-40.833-9-59.5h7c18.667 50.667 36.167 101.167 52.5 151.5s31.166 102.5 44.499 156.5h158c-14-44.667-28.833-87.834-44.5-129.501s-32.167-82.667-49.5-123S531.333 161 512 121L452 0H295l7 111 15 136h-6zm71 373.001l-146-105-43 47 165 159h79l101-169-57-33z"/><glyph glyph-name="Ycircumflex" unicode="Ŷ" horiz-adv-x="414" d="M255 436l103 260h148L289 273 236 0H99l53 273-54 423h141l5-138c.667-22 1.5-41.667 2.5-59s1.167-38.333.5-63h8zm61 374l-140-86-47 47 162 145h79l101-144-57-48z"/><glyph glyph-name="ycircumflex" unicode="ŷ" horiz-adv-x="383" d="M179 189c19.333 44 37.001 90.501 53.001 139.501s32.667 104.167 50 165.5h144c-34.667-100-71-193.833-109-281.5S241.334 46.667 204.001-22c-14-26-29.5-50.333-46.5-73s-35.833-42-56.5-58-43.667-28.5-69-37.5-53.666-12.833-84.999-11.5l-2 118c30.667 2.667 55.667 10.667 75 24s38.666 37 57.999 71l-27 483h143l-5-155c-.667-8-1.334-18.5-2.001-31.5s-1.667-26.5-3-40.5-2.833-28-4.5-42-3.5-26-5.5-36h5zm97.001 431.001l-146-105-43 47 165 159h79l101-169-57-33z"/><glyph glyph-name="Ydieresis" unicode="Ÿ" horiz-adv-x="414" d="M255 436l103 260h148L289 273 236 0H99l53 273-54 423h141l5-138c.667-22 1.5-41.667 2.5-59s1.167-38.333.5-63h8zm76 293l25 130h119l-25-130H331zm-174 0l25 130h118l-25-130H157z"/><glyph glyph-name="Zacute" unicode="Ź" horiz-adv-x="360" d="M-19 0L5 124l252 442H100l25 130h309l-24-120-251-445h165L299 0H-19zm241 786l193 130 58-93-215-105z"/><glyph glyph-name="zacute" unicode="ź" horiz-adv-x="350" d="M-12 0l23 121 187 252H71l24 122h283l-22-112-192-256h142L282 0H-12zm212 574l136 186 98-54-170-175z"/><glyph glyph-name="Zdotaccent" unicode="Ż" horiz-adv-x="360" d="M-19 0L5 124l252 442H100l25 130h309l-24-120-251-445h165L299 0H-19zm252 727l25 130h118l-25-130H233z"/><glyph glyph-name="zdotaccent" unicode="ż" horiz-adv-x="350" d="M-12 0l23 121 187 252H71l24 122h283l-22-112-192-256h142L282 0H-12zm205 547l25 130h118l-25-130H193z"/><glyph glyph-name="Zcaron" unicode="Ž" horiz-adv-x="360" d="M-19 0L5 124l252 442H100l25 130h309l-24-120-251-445h165L299 0H-19zm321 830l140 86 47-47-162-145h-79L147 868l57 48z"/><glyph glyph-name="zcaron" unicode="ž" horiz-adv-x="350" d="M-12 0l23 121 187 252H71l24 122h283l-22-112-192-256h142L282 0H-12zm408 731l42-48-159-158h-79L97 684l61 47 100-94z"/><glyph glyph-name="florin" unicode="ƒ" horiz-adv-x="430" d="M102 441l75.999-.001 14 63c4.667 24 11.334 47.833 20.001 71.5s20.334 44.667 35.001 63 32.5 33.333 53.5 45 46.167 17.5 75.5 17.5c15.333 0 30.833-.667 46.5-2s30.5-6 44.5-14l-35-113c-12.667 5.333-23.5 8.333-32.5 9s-16.167 1-21.5 1c-14 0-25-5.667-33-17s-14.667-28.333-20-51l-15-73h71l-10-115h-85c-7.333-34-13.833-67.667-19.5-101s-12.167-67-19.5-101c-13.333-66-33-116.833-59-152.5s-63.667-53.5-113-53.5c-12 0-26.333 1.333-43 4s-34 8.334-52 17.001l42 107c9.333-5.333 16.833-8.333 22.5-9s10.167-1 13.5-1C71.334 36 81.667 41.667 89 53s14 31 20 59l42 214H92z"/><glyph glyph-name="Ohorn" unicode="Ơ" horiz-adv-x="490" d="M296 702c34 0 63.334-5.667 88.001-17s43.667-28.333 57-51c16 3.333 28.5 11.333 37.5 24s16.833 35 23.5 67l14 71h96l-16-86c-9.333-46-25.5-83-48.5-111s-51.833-45.667-86.5-53c-.667-14.667-2.667-30-6-46l-62-330c-10-54.667-30-97.667-60-129s-74.333-47-133-47C147.334-6 107.167 7.667 79.5 35S38 98.666 38 143.999c0 7.333.5 15 1.5 23s2.167 16 3.5 24l64 336c6 30 13.833 55.833 23.5 77.5s22 39.834 37 54.501 33 25.5 54 32.5S267.333 702 296 702zm-7.999-135c-11.333 0-21-3.335-29-10.002s-13.667-17.667-17-33l-66-342c-.667-3.333-1.167-6.166-1.5-8.499s-.5-4.833-.5-7.5c0-24.667 11.667-37 35-37 11.333 0 21 3.167 29 9.5s13.667 17.5 17 33.5l66 340c1.333 3.333 2 6.5 2 9.5v9.5c0 12.667-3.333 21.834-10 27.501s-15 8.5-25 8.5z"/><glyph glyph-name="ohorn" unicode="ơ" horiz-adv-x="446" d="M242 503c28.667 0 53.003-4.5 73.003-13.5s36-20.833 48-35.5c11.333 5.333 20.5 14.5 27.5 27.5s13.167 32.5 18.5 58.5l12 62h96l-14-77c-7.333-40-20.5-73.333-39.5-100s-42.833-45.667-71.5-57c-.667-21.333-2.834-45.833-6.501-73.5s-7.5-52.167-11.5-73.5c-8-39.333-16.667-73.333-26-102s-21.333-52.334-36-71.001-32.834-32.5-54.501-41.5-48.5-13.5-80.5-13.5c-27.333 0-50.5 4.167-69.5 12.5s-34.5 19-46.5 32-20.667 27.5-26 43.5-8 31.667-8 47c0 18 1.167 36.667 3.5 56s5.5 39.666 9.5 60.999l10.5 49c3.667 16.667 7.5 32.834 11.5 48.501s8.5 30.334 13.5 44.001S85.668 411.667 91 421c15.333 27.333 36.166 47.833 62.499 61.5S209.333 503 242 503zm-5.997-127c-7.333 0-13.328-1.335-17.995-4.002s-8.834-8-12.501-16-7.334-19.333-11.001-34-7.834-33.667-12.501-57l-14-79c-1.333-7.333-2.333-13.833-3-19.5s-1-11.167-1-16.5c0-8 1.5-14.667 4.5-20s9.167-8 18.5-8c7.333 0 13.666 2.333 18.999 7s8.666 9.667 9.999 15c1.333 2.667 3.333 8.834 6 18.501s5.5 21.334 8.5 35.001 6 28.167 9 43.5l8.5 45c2.667 14.667 4.834 28 6.5 40s2.5 21 2.5 27c0 6.667-1.832 12.167-5.5 16.5s-8.833 6.5-15.5 6.5z"/><glyph glyph-name="Uhorn" unicode="Ư" horiz-adv-x="532" d="M495 696l-11.999-63.001c10.667 0 20.167 1.333 28.5 4s15.666 7.5 21.999 14.5 11.666 16.333 15.999 28 8.5 26.834 12.5 45.501l14 71h96l-16-86c-10.667-53.333-30.667-94.5-60-123.5s-66.333-43.5-111-43.5h-20l-72-373c-23.333-117.333-88.333-176-195-176-26.667 0-51 4-73 12s-40.333 19.667-55 35-25 34.333-31 57-6 49 0 79l101 519h136l-102-518c-3.333-16-1.166-28.167 6.501-36.5S197.667 129 209 129s21 3.167 29 9.5 13.667 17.5 17 33.5l102 524h138z"/><glyph glyph-name="uhorn" unicode="ư" horiz-adv-x="511" d="M203 48c-11.333-16-26.498-29.002-45.498-39.002s-36.167-15-51.5-15c-24 0-42.167 3.833-54.5 11.5s-20.833 17.834-25.5 30.501-6.334 26.667-5.001 42 3.666 31 6.999 47l71 370h137l-65-335c-2-9.333-1.5-17.666 1.5-24.999s9.167-11 18.5-11c8 0 16.167 4.667 24.5 14s13.833 20.333 16.5 33l61 324h137l-9-46c18 2 32 9.333 42 22s18.333 35.667 25 69l12 62h96l-14-77c-9.333-53.333-29-94.5-59-123.5S455.667 358 411 358h-8L334 0H197l11 47z"/><glyph glyph-name="AEacute" unicode="Ǽ" horiz-adv-x="642" d="M278 0l21 151H189L129 0H-15l282 696h427l-18-130H493l-20-146h160l-19-133H454l-21-156h183L599 0H278zm-38 281h77l40 283h-5zm144 505l193 130 58-93-215-105z"/><glyph glyph-name="aeacute" unicode="ǽ" horiz-adv-x="587" d="M567 145c-14-50-36.503-87.669-67.503-113.002s-73.167-38-126.5-38c-32.667 0-59.167 5.333-79.5 16s-35.833 26-46.5 46c-12-14.667-24.667-26.167-38-34.5s-26.166-14.5-38.499-18.5-23.833-6.5-34.5-7.5-19.334-1.5-26-1.5c-37.334 0-63.167 9-77.5 27s-21.5 41.667-21.5 71c0 22.667 2.5 46.5 7.5 71.5s15 47.667 30 68 36.667 37.166 65 50.499 65.5 20 111.5 20h11.5c3.667 0 7.5-.333 11.5-1l8 42c.667 2.667 1 6.334 1 11.001 0 6-2 10.833-6 14.5s-11 5.5-21 5.5c-6.667 0-14-2-22-6s-15.667-14.667-23-32l-112 37c19.333 44 45.166 76.333 77.5 97s71.5 31 117.5 31c18.666 0 35.333-2.167 50-6.5s26.667-11.166 36-20.499c14 9.333 29.833 16.5 47.5 21.5s38.167 7.5 61.5 7.5c48 0 85.5-11 112.5-33s40.5-52 40.5-90c0-32.667-5.667-60.5-17-83.5s-26.5-41.833-45.5-56.5-40.667-25.334-65-32.001-49.833-10-76.5-10c-6 0-12 .167-18 .5s-12 .833-18 1.5c-2.667-9.333-4.5-18.166-5.5-26.499s-1.5-15.166-1.5-20.499c.667-8.667 2.334-16 5.001-22s8.334-9 17.001-9c9.333 0 17.5 2.833 24.5 8.5S428 146 432 160zM314.997 573.998l136 186 98-54-170-175zm-85-366h-12.002c-44 0-66-20.333-66-61 0-9.333 2.667-16 8-20s12.333-6 21-6c10.667 0 19.334 4 26.001 12s11.334 18.333 14.001 31zm219.998 169c-14 0-25.333-6.167-34-18.5s-15-29.833-19-52.5h11c20.667 0 36.667 4.333 48 13s17 21.667 17 39c0 12.667-7.667 19-23 19z"/><glyph glyph-name="Oslashacute" unicode="Ǿ" horiz-adv-x="445" d="M296 702c31.333 0 58.667-5.001 82-15.001s42-24.667 56-44l39 59 31-20-51-76c5.333-16 8-33.333 8-52 0-17.333-2-35.333-6-54l-62-330c-10-54.667-30-97.667-60-129s-74.333-47-133-47c-28 0-52.333 4-73 12s-38 19-52 33l-30-45-28 18 37 57c-10.667 20.667-16 45.667-16 75 0 7.333.5 15 1.5 23s2.167 16 3.5 24l64 336c6 30 13.833 55.833 23.5 77.5s22 39.834 37 54.501 33 25.5 54 32.5S267.333 702 296 702zm-34.999 83.999l193 130 58-93-215-105zm27-219c-11.333 0-21-3.334-29-10.001s-13.667-17.667-17-33l-47-243 115 174 11 57c1.333 3.333 2 6.5 2 9.5v9.5c0 12.667-3.333 21.834-10 27.501s-15 8.5-25 8.5zm-79-438.001c11.333 0 21 3.166 29 9.499s13.667 17.5 17 33.5l37 193-114-172-2-11c-.667-3.333-1.167-6.166-1.5-8.499s-.5-4.833-.5-7.5c0-24.667 11.667-37 35-37z"/><glyph glyph-name="oslashacute" unicode="ǿ" horiz-adv-x="401" d="M242 503c19.333 0 36.834-2.169 52.501-6.502s29.167-10.166 40.5-17.499l41 63 26-16-43-67c11.333-12 19.666-25.667 24.999-41s8-30.666 8-45.999c0-10.667-.5-22.5-1.5-35.5S388 310.333 386 297l-6-40c-2-13.333-4-25.333-6-36-8-39.333-16.667-73.333-26-102s-21.333-52.334-36-71.001-32.834-32.5-54.501-41.5-48.5-13.5-80.5-13.5c-21.333 0-40.166 2.5-56.499 7.5s-30.166 11.833-41.499 20.5l-33-52-26 16 36 57c-10 12.667-17.333 26.5-22 41.5s-7 29.833-7 44.5c0 18 1.167 36.667 3.5 56s5.5 39.666 9.5 60.999l10.5 49c3.667 16.667 7.5 32.834 11.5 48.501s8.5 30.334 13.5 44.001 10.167 25.167 15.5 34.5c15.333 27.333 36.166 47.833 62.499 61.5S209.333 503 242 503zm-41.999 70.998l136 186 98-54-170-175zm16-430c1.333 2.667 3.169 8.667 5.502 18s5 20.833 8 34.5l9.5 43.5a1343.488 1343.488 0 0 1 9 45l-84-131v-4c0-8 1.5-14.667 4.5-20s9.167-8 18.5-8c7.333 0 13.666 2.333 18.999 7s8.666 9.667 9.999 15zm20.003 232c-7.333 0-13.33-1.333-17.996-4s-8.834-8-12.501-16-7.334-19.333-11.001-34-7.834-33.667-12.501-57l-6-36 81 127c-.667 5.333-2.834 10-6.501 14s-8.5 6-14.5 6z"/><glyph glyph-name="Scommaaccent" unicode="Ș" horiz-adv-x="427" d="M169 191c-3.333-11.333-5-21.334-5-30.001 0-9.333 2.5-17.166 7.5-23.499S186 128 200 128c13.333 0 24.333 3.5 33 10.5s15.5 16 20.5 27S262 188.667 264 202s3 26.333 3 39c0 13.333-3.833 23.5-11.5 30.5S234 286.667 214 296c-24 10.667-44 21.834-60 33.501s-28.5 23.834-37.5 36.501-15.333 25.667-19 39-5.5 27.333-5.5 42c0 36.667 4.5 70.667 13.5 102s22.5 58.333 40.5 81 40.5 40.334 67.5 53.001 58.5 19 94.5 19c28.667 0 53-3.333 73-10s36.167-16 48.5-28 21.166-25.833 26.499-41.5 8-32.5 8-50.5c0-20.667-3-42-9-64l-135-8c1.333 5.333 2.333 10.666 3 15.999s1 10.666 1 15.999c0 9.333-2.333 17.5-7 24.5s-14.334 10.5-29.001 10.5c-11.333 0-20.666-3.167-27.999-9.5s-13.166-14-17.499-23-7.333-18.333-9-28-2.5-18.167-2.5-25.5c0-11.333 4.333-21.666 13-30.999s26-19.666 52-30.999c21.333-9.333 39-18.833 53-28.5s25-20 33-31 13.667-22.833 17-35.5 5-26.334 5-41.001c0-38-3.5-74.5-10.5-109.5s-19-65.833-36-92.5-39.667-47.834-68-63.501S226-5.999 184-5.999c-28 0-52 3.5-72 10.5s-36.5 16.5-49.5 28.5S40 59.168 34 75.501 25 109.667 25 129c0 16 2 32.667 6 50zm-35-467.001H68l49 107H93l21 111h117l-21-109z"/><glyph glyph-name="scommaaccent" unicode="ș" horiz-adv-x="387" d="M151 160c-.667-2.667-1.167-4.834-1.5-6.501s-.5-3.5-.5-5.5c0-9.333 2.667-16.666 8-21.999s12.333-8 21-8c13.333 0 23.333 5.167 30 15.5s10 20.833 10 31.5-2.667 18.167-8 22.5-11.666 7.833-18.999 10.5l-48 17.5c-16 5.667-30.333 13-43 22s-23 20.5-31 34.5-12 32.333-12 55c0 26 4.167 49.667 12.5 71s20.333 39.833 36 55.5 35 27.834 58 36.501 49.167 13 78.5 13c47.333 0 83.5-10.667 108.5-32s37.5-50.333 37.5-87c0-10.667-1-21.334-3-32.001l-134-14c.667 2 1 4.333 1 7 0 8.667-2 16.334-6 23.001s-10.667 10-20 10c-8 0-14.333-1.833-19-5.5s-8.167-7.834-10.5-12.501-3.833-9.167-4.5-13.5-1-7.166-1-8.499c0-10.667 7.333-18.334 22-23.001 20-6.667 38.667-13.334 56-20.001s32.166-15 44.499-25 22-22.5 29-37.5 10.5-33.833 10.5-56.5c0-23.333-3.333-46-10-68s-17.667-41.5-33-58.5-35.333-30.5-60-40.5-54.667-15-90-15c-44 0-79.333 10.167-106 30.5s-40 50.833-40 91.5c0 4 .167 8.333.5 13s.833 9.334 1.5 14.001zm-36-436H49l49 107H74L95-58h117l-21-109z"/><glyph glyph-name="schwa" unicode="ə" horiz-adv-x="408" d="M58 353c5.333 22 12.33 42.168 20.997 60.501s19.834 34.333 33.501 48 30.334 24.167 50.001 31.5 43.5 11 71.5 11c30 0 54.667-4.167 74-12.5s34.5-19.666 45.5-33.999 18.667-30.833 23-49.5 6.5-38 6.5-58c0-17.333-.667-34.666-2-51.999s-3.666-34-6.999-50c-5.333-30-12-60-20-90s-19.167-57.167-33.5-81.5-33-44-56-59-51.833-22.5-86.5-22.5c-48 0-85.5 11-112.5 33s-40.5 52-40.5 90c0 33.333 5.167 61.5 15.5 84.5s24.333 41.667 42 56 38.167 24.666 61.5 30.999 48 9.5 74 9.5h12.5c3.667 0 8.167-.333 13.5-1 2.667 9.333 4.5 19.166 5.5 29.499S251 345.667 251 351c0 16.667-6.667 25-20 25-9.333 0-16.833-2.833-22.5-8.5S198 352 194 338zm122.997-231.999c12.667 0 22.168 6.166 28.501 18.499s11.5 29.833 15.5 52.5c-24.667 0-41.834-4-51.501-12s-14.5-20.667-14.5-38c0-5.333 1.833-10.166 5.5-14.499s9.167-6.5 16.5-6.5z"/><glyph glyph-name="primemod" unicode="ʹ" horiz-adv-x="247" d="M360 706L158 402l-92 28 166 322z"/><glyph glyph-name="circumflex" unicode="ˆ" horiz-adv-x="385" d="M298 620L152 515l-43 47 165 159h79l101-169-57-33z"/><glyph glyph-name="caron" unicode="ˇ" horiz-adv-x="385" d="M432 731l42-48-159-158h-79L133 684l61 47 100-94z"/><glyph glyph-name="breve" unicode="˘" horiz-adv-x="484" d="M238 700c-.667-2-1.003-4.167-1.003-6.5V687c0-20.667 5.333-36.5 16-47.5s23.667-16.5 39-16.5c10 0 19.333 2.5 28 7.5s16.334 11.333 23.001 19 12.334 16 17.001 25 8 17.5 10 25.5h107c-6-20-14-39.667-24-59s-22.667-36.5-38-51.5S381.333 562.333 360 553s-46-14-74-14c-30 0-54.833 4.833-74.5 14.5s-35 22.167-46 37.5-18.5 32.5-22.5 51.5-5 38.167-3 57.5h98z"/><glyph glyph-name="dotaccent" unicode="˙" horiz-adv-x="408" d="M213 547l25 130h118l-25-130H213z"/><glyph glyph-name="ring" unicode="˚" horiz-adv-x="408" d="M268 519c-25.333 0-46.832 7.667-64.499 23s-26.5 34.666-26.5 57.999c0 16 2.667 31.5 8 46.5s13 28 23 39 22.167 19.833 36.5 26.5 30.166 10 47.499 10c25.333 0 46.833-7.667 64.5-23S383 664.333 383 641c0-16-2.5-31.5-7.5-46.5s-12.5-28-22.5-39-22.167-19.833-36.5-26.5-30.5-10-48.5-10zm17.001 131c-9.333 0-17.666-3.669-24.999-11.002s-11-15.666-11-24.999c0-7.333 2.667-13.333 8-18s11.666-7 18.999-7c9.333 0 17.666 3.333 24.999 10s11 15.334 11 26.001c0 7.333-2.667 13.333-8 18s-11.666 7-18.999 7z"/><glyph glyph-name="ogonek" unicode="˛" horiz-adv-x="395" d="M320 9l2.002-4.002c-14-17.333-24.667-33-32-47s-12.833-26.167-16.5-36.5-5.834-18.5-6.501-24.5l-1-9c0-10.667 3.5-18.667 10.5-24s15.833-8 26.5-8c6.667 0 13.667.833 21 2.5S342.667-136.668 358-132l13-65c-17.333-10-35.5-17-54.5-21s-36.167-6-51.5-6c-25.333 0-46.333 6.833-63 20.5s-25 35.833-25 66.5c0 17.333 6.5 38.5 19.5 63.5S228.667-21 254 9h66z"/><glyph glyph-name="tilde" unicode="˜" horiz-adv-x="362" d="M204 683c10 0 19.669-1.834 29.002-5.501s18-7.5 26-11.5l22.5-11.5c7-3.667 13.5-5.5 19.5-5.5 4 0 7.833.167 11.5.5s7.667 1.5 12 3.5 9.166 5.333 14.499 10 11.666 11 18.999 19l58-36c-17.333-37.333-35.833-62.333-55.5-75s-38.5-19-56.5-19c-11.333 0-21.5 1.833-30.5 5.5s-17.333 7.667-25 12l-22 12c-7 3.667-14.5 5.5-22.5 5.5-7.333 0-15.333-2.167-24-6.5S160.333 566.333 147 551l-57 42c20.667 36 40.5 60 59.5 72s37.167 18 54.5 18z"/><glyph glyph-name="hungarumlaut" unicode="˝" horiz-adv-x="401" d="M295 574l136 186 98-54-170-175zm-170 0l136 186 98-54-170-175z"/><glyph glyph-name="tonos" unicode="΄" horiz-adv-x="401" d="M211 574l136 186 98-54-170-175z"/><glyph glyph-name="dieresistonos" unicode="΅" horiz-adv-x="469" d="M369 555l24 122h119l-24-122H369zm-309 0l24 122h118l-24-122H60zm131 4l114 199 106-39-149-191z"/><glyph glyph-name="Alphatonos" unicode="Ά" horiz-adv-x="449" d="M263 136H161L114 0H-31l267 696h166L400 0H258zm-23 239l-35-111h63l8 111 13 141h-6zM-36 554l136 186 98-54L28 511z"/><glyph glyph-name="anoteleia" unicode="·" horiz-adv-x="229" d="M57 259l29 150h135l-29-150H57z"/><glyph glyph-name="Epsilontonos" unicode="Έ" horiz-adv-x="394" d="M11 0l135 696h319l-25-130H257l-29-146h160l-26-133H202l-29-157h183L330 0H11zM-97 574L39 760l98-54-170-175z"/><glyph glyph-name="Etatonos" unicode="Ή" horiz-adv-x="459" d="M212 0l55 288h-87L125 0H-11l135 696h136l-54-276h87l54 276h135L347 0H212zm-347 554L1 740l98-54-170-175z"/><glyph glyph-name="Iotatonos" unicode="Ί" horiz-adv-x="242" d="M13 0l135 696h136L149 0H13zm-114 554L35 740l98-54-170-175z"/><glyph glyph-name="Omicrontonos" unicode="Ό" horiz-adv-x="445" d="M288 567c-11.333 0-21-3.335-29-10.002s-13.667-17.667-17-33l-66-342c-.667-3.333-1.167-6.166-1.5-8.499s-.5-4.833-.5-7.5c0-24.667 11.667-37 35-37 11.333 0 21 3.167 29 9.5s13.667 17.5 17 33.5l66 340c1.333 3.333 2 6.5 2 9.5v9.5c0 12.667-3.333 21.834-10 27.501s-15 8.5-25 8.5zm8 134.998c50 0 90.001-12.667 120.001-38s45-62 45-110c0-17.333-2-35.333-6-54l-62-330c-10-54.667-30-97.667-60-129s-74.333-47-133-47c-52.667 0-92.834 13.667-120.501 41S38 98.664 38 143.997c0 7.333.5 15 1.5 23s2.167 16 3.5 24l64 336c6 30 13.833 55.833 23.5 77.5s22 39.834 37 54.501 33 25.5 54 32.5 45.833 10.5 74.5 10.5zm-381.999-148l136 186 98-54-170-175z"/><glyph glyph-name="Upsilontonos" unicode="Ύ" horiz-adv-x="414" d="M255 436l103 260h148L289 273 236 0H99l53 273-54 423h141l5-138c.667-22 1.5-41.667 2.5-59s1.167-38.333.5-63h8zm-399 118L-8 740l98-54-170-175z"/><glyph glyph-name="Omegatonos" unicode="Ώ" horiz-adv-x="446" d="M404 229c-5.333-25.333-11.836-45.668-19.503-61.001s-18.167-27.666-31.5-36.999v-3h41l-25-128h-168l27 136c14 6.667 23.333 20 28 40l67 349c.667 2.667 1 6.334 1 11.001 0 11.333-3.667 19.5-11 24.5s-15.666 7.5-24.999 7.5c-11.333 0-21-3.333-29-10s-13.667-17.667-17-33l-67-349c-2.667-11.333-2.667-20 0-26s7.334-10.333 14.001-13l-27-137H-4l25 128h39l2 3c-9.333 9.333-15.166 22-17.499 38s-.833 36 4.5 60l58 299c11.333 60 32.833 104.167 64.5 132.5s73.167 42.5 124.5 42.5c50 0 90.333-12 121-36s46-59 46-105c0-14.667-1.333-28.334-4-41.001zM-95.003 553.998l136 186 98-54-170-175z"/><glyph glyph-name="iotadieresistonos" unicode="ΐ" horiz-adv-x="226" d="M168-3c-2 0-5.334-.167-10.001-.5s-9.667-.5-15-.5h-25C84.666-4 60.333 3.167 45 17.5S22 53 22 81c0 6 .333 12.5 1 19.5s1.667 14.167 3 21.5l73 372h126l-68-345c-2-8-3-15-3-21 0-9.333 2.833-15.333 8.5-18s14.167-4.667 25.5-6zm89.999 558l24 122h119l-24-122h-119zm-309 0l24 122h118l-24-122h-118zm131 4l114 199 106-39-149-191z"/><glyph glyph-name="Alpha" unicode="Α" horiz-adv-x="449" d="M263 136H161L114 0H-31l267 696h166L400 0H258zm-23 239l-35-111h63l8 111 13 141h-6z"/><glyph glyph-name="Beta" unicode="Β" horiz-adv-x="446" d="M257 566l-26.999-138.002h17c24 0 42.5 8.333 55.5 25s19.5 39.334 19.5 68.001c0 18.667-4.333 30.834-13 36.501S287.667 566 271 566h-14zm-51.999-264.002l-34.999-174h24c13.333 0 25 3.167 35 9.5s18.5 15 25.5 26 12.167 23.5 15.5 37.5 5 29 5 45c0 20-4.833 34.333-14.5 43s-20.834 13-33.501 13h-22zm143.001 62c22.667-8 38.168-21.002 46.501-39.002s12.5-38.667 12.5-62c0-39.333-5-75.166-15-107.499s-24.333-60-43-83-41.334-40.833-68.001-53.5-56.667-19-90-19h-180l135 696h147c108 0 162-48.667 162-146 0-51.333-9.167-91.666-27.5-120.999s-44.5-49.333-78.5-60z"/><glyph glyph-name="Gamma" unicode="Γ" horiz-adv-x="394" d="M257 566L147 0H11l135 696h319l-25-130H257z"/><glyph glyph-name="Delta" unicode="Δ" horiz-adv-x="449" d="M-31 0l267 696h166L400 0H-31zm274 375l-80-247h101l15 247 13 141h-6z"/><glyph glyph-name="Delta" unicode="∆" horiz-adv-x="449" d="M-31 0l267 696h166L400 0H-31zm274 375l-80-247h101l15 247 13 141h-6z"/><glyph glyph-name="Epsilon" unicode="Ε" horiz-adv-x="394" d="M11 0l135 696h319l-25-130H257l-29-146h160l-26-133H202l-29-157h183L330 0H11z"/><glyph glyph-name="Zeta" unicode="Ζ" horiz-adv-x="360" d="M-19 0L5 124l252 442H100l25 130h309l-24-120-251-445h165L299 0H-19z"/><glyph glyph-name="Eta" unicode="Η" horiz-adv-x="459" d="M212 0l55 288h-87L125 0H-11l135 696h136l-54-276h87l54 276h135L347 0H212z"/><glyph glyph-name="Theta" unicode="Θ" horiz-adv-x="445" d="M294 702c29.333 0 55.669-4.5 79.002-13.5s42.5-22 57.5-39 25-38 30-63 4.167-53.833-2.5-86.5l-62-330c-23.333-117.333-89.333-176-198-176-28.667 0-54.167 4.833-76.5 14.5S80.669 31.667 66.002 49s-24.667 38-30 62-5.333 50.667 0 80l64 336c11.333 60 33.666 104.167 66.999 132.5S242.667 702 294 702zm-86.997-573c11.333 0 21.833 3.167 31.5 9.5s16.167 17.5 19.5 33.5l22 115h-91l-20-105c-3.333-16-1.5-28.833 5.5-38.5s17.833-14.5 32.5-14.5zm79 438c-11.333 0-21.833-3.333-31.5-10s-16.167-17.667-19.5-33l-20-105h91l18 93c4.667 19.333 2.5 33.333-6.5 42s-19.5 13-31.5 13z"/><glyph glyph-name="Iota" unicode="Ι" horiz-adv-x="242" d="M13 0l135 696h136L149 0H13z"/><glyph glyph-name="Kappa" unicode="Κ" horiz-adv-x="446" d="M251 494l127 202h151L327 401 409 0H275l-48 266-41-62L147 0H11l135 696h136l-38-202h7z"/><glyph glyph-name="Lambda" unicode="Λ" horiz-adv-x="449" d="M277 375l13 141h-6l-43-141L115 0H-31l267 696h166L400 0H259z"/><glyph glyph-name="Mu" unicode="Μ" horiz-adv-x="582" d="M232 136l-12 89-12 103h-5L140 0H5l135 696h125l30-197 24-134h6l71 137 107 194h129L497 0H361l63 325h-4l-54-108-43-81h-91z"/><glyph glyph-name="Nu" unicode="Ν" horiz-adv-x="481" d="M327 307l69 388.999h133l-135-696H278l-41 220-22 132h-5l-67-352H8l135 696h119l37-216c2-10.667 4.167-23.5 6.5-38.5s4.5-30.667 6.5-47l6-47.5c2-15.333 3.333-28.666 4-39.999h5z"/><glyph glyph-name="Xi" unicode="Ξ" horiz-adv-x="394" d="M101 567l25 129h337l-25-129H101zM76 289l25 128h278l-25-128H76zM-9 0l24 130h337L328 0H-9z"/><glyph glyph-name="Omicron" unicode="Ο" horiz-adv-x="445" d="M288 567c-11.333 0-21-3.335-29-10.002s-13.667-17.667-17-33l-66-342c-.667-3.333-1.167-6.166-1.5-8.499s-.5-4.833-.5-7.5c0-24.667 11.667-37 35-37 11.333 0 21 3.167 29 9.5s13.667 17.5 17 33.5l66 340c1.333 3.333 2 6.5 2 9.5v9.5c0 12.667-3.333 21.834-10 27.501s-15 8.5-25 8.5zm8 134.998c50 0 90.001-12.667 120.001-38s45-62 45-110c0-17.333-2-35.333-6-54l-62-330c-10-54.667-30-97.667-60-129s-74.333-47-133-47c-52.667 0-92.834 13.667-120.501 41S38 98.664 38 143.997c0 7.333.5 15 1.5 23s2.167 16 3.5 24l64 336c6 30 13.833 55.833 23.5 77.5s22 39.834 37 54.501 33 25.5 54 32.5 45.833 10.5 74.5 10.5z"/><glyph glyph-name="Pi" unicode="Π" horiz-adv-x="446" d="M219 0l109 563h-72L147 0H11l135 696h343L354 0H219z"/><glyph glyph-name="Rho" unicode="Ρ" horiz-adv-x="428" d="M301 696c25.333 0 48.332-2.667 68.999-8s38.334-14.166 53.001-26.499 26-29 34-50 12-46.833 12-77.5c0-90.667-21.667-159.834-65-207.501S302 255 228 255h-32L147 0H11l135 696h155zm-44.001-130l-35.001-179.998h23c8.667 0 18.334 1.5 29.001 4.5s20.667 8.667 30 17 17 20.166 23 35.499 9 35.333 9 60c0 23.333-5.167 39.666-15.5 48.999s-24.5 14-42.5 14h-21z"/><glyph glyph-name="Sigma" unicode="Σ" horiz-adv-x="350" d="M158 128h165L299 0H-19L5 124l124 235-39 217 24 120h309l-25-130H241l37-207z"/><glyph glyph-name="Tau" unicode="Τ" horiz-adv-x="360" d="M317 566L207 0H71l110 566H74l25 130h350l-25-130H317z"/><glyph glyph-name="Upsilon" unicode="Υ" horiz-adv-x="414" d="M255 436l103 260h148L289 273 236 0H99l53 273-54 423h141l5-138c.667-22 1.5-41.667 2.5-59s1.167-38.333.5-63h8z"/><glyph glyph-name="Phi" unicode="Φ" horiz-adv-x="613" d="M302 532c-17.333-.667-33-6.167-47-16.5S232 490 228 470l-43-220c-4-20-.667-35 10-45s24-15.333 40-16zm185-62c4 22 .166 37.668-11.501 47.001s-24.5 14.333-38.5 15l-67-343c18.667-1.333 34.834 3.667 48.501 15S440.667 230.667 444 250zm89.999-216.999c-11.333-59.333-36-106.334-74-141.001s-90.667-52.667-158-54l-11-58h-135l12 62c-24 .667-46.833 6-68.5 16s-39.834 24-54.501 42-25 39.833-31 65.5-5.667 55.167 1 88.5l38 198c11.333 60 37.5 106.833 78.5 140.5s92.167 50.834 153.5 51.501l6 32h135l-6-32c28 0 52.833-4.667 74.5-14s39.334-22.5 53.001-39.5 23-37.333 28-61 4.5-50.5-1.5-80.5z"/><glyph glyph-name="Chi" unicode="Χ" horiz-adv-x="450" d="M229 194L131 0H-37l214 363-69 333h155l19-162h6l80 162h170L335 363 413 0H257l-24 194h-4z"/><glyph glyph-name="Psi" unicode="Ψ" horiz-adv-x="613" d="M663 695l-66.003-338.001c-11.333-60-35.666-107.167-72.999-141.5s-90.333-52.166-159-53.499l-31-162h-135l31 162c-27.333 2.667-51.666 9.5-72.999 20.5s-39 25.333-53 43-23.5 38.667-28.5 63S71 340 77 370l63 325h132l-67-341c-3.333-20 .334-35 11.001-45s23.667-15.333 39-16l79 402h135l-79-402c7.333 0 15 1.5 23 4.5s15.5 7 22.5 12 13 11.333 18 19S462 344.667 464 354l67 341h132z"/><glyph glyph-name="Omega" unicode="Ω" horiz-adv-x="446" d="M404 229c-5.333-25.333-11.836-45.668-19.503-61.001s-18.167-27.666-31.5-36.999v-3h41l-25-128h-168l27 136c14 6.667 23.333 20 28 40l67 349c.667 2.667 1 6.334 1 11.001 0 11.333-3.667 19.5-11 24.5s-15.666 7.5-24.999 7.5c-11.333 0-21-3.333-29-10s-13.667-17.667-17-33l-67-349c-2.667-11.333-2.667-20 0-26s7.334-10.333 14.001-13l-27-137H-4l25 128h39l2 3c-9.333 9.333-15.166 22-17.499 38s-.833 36 4.5 60l58 299c11.333 60 32.833 104.167 64.5 132.5s73.167 42.5 124.5 42.5c50 0 90.333-12 121-36s46-59 46-105c0-14.667-1.333-28.334-4-41.001z"/><glyph glyph-name="Iotadieresis" unicode="Ϊ" horiz-adv-x="242" d="M13 0l135 696h136L149 0H13zm235 729l25 130h119l-25-130H248zm-174 0l25 130h118l-25-130H74z"/><glyph glyph-name="Upsilondieresis" unicode="Ϋ" horiz-adv-x="411" d="M255 436l103 260h148L289 273 236 0H99l53 273-54 423h141l5-138c.667-22 1.5-41.667 2.5-59s1.167-38.333.5-63h8zm80 293l25 130h119l-25-130H335zm-174 0l25 130h118l-25-130H161z"/><glyph glyph-name="alphatonos" unicode="ά" horiz-adv-x="401" d="M182 120c6 0 12.666 3 19.999 9s13.666 20.667 18.999 44l27 139c1.333 4.667 2.333 9.334 3 14.001s1 9.667 1 15c0 7.333-1.667 13.833-5 19.5s-10 8.5-20 8.5c-7.333 0-13.5-2.333-18.5-7s-8.167-9.667-9.5-15c-2-4-5.167-14.5-9.5-31.5s-8.666-36.333-12.999-58S168.333 214.167 165 192.5s-5-39.167-5-52.5c0-12 7.333-18.667 22-20zm8.999-120l7.998 39h-5c-12-16.667-26.333-28.5-43-35.5S121.33-7 111.997-7c-36.667 0-61.667 8.5-75 25.5s-20 38.5-20 64.5c0 21.333 1.833 47.833 5.5 79.5S32.331 231 40.998 273c7.333 38 15.5 71.167 24.5 99.5s19.833 52 32.5 71 27.834 33.167 45.501 42.5 38.5 14 62.5 14c11.333 0 23.5-2.833 36.5-8.5s23.167-17.167 30.5-34.5l4 2 9 35h136L326 0H191zm7.998 574l136 186 98-54-170-175z"/><glyph glyph-name="epsilontonos" unicode="έ" horiz-adv-x="392" d="M360 142c-4.667-28-12.667-51.33-24-69.996s-25.166-33.834-41.499-45.501-34.833-19.834-55.5-24.501-42.334-7-65.001-7c-44.667 0-80.834 9.667-108.501 29s-41.5 51.333-41.5 96c0 30 5.167 57.5 15.5 82.5s31.833 44.167 64.5 57.5v1c-13.333 7.333-22.666 16-27.999 26s-8 22.667-8 38c0 24.667 4.167 47.834 12.5 69.5s20.5 40.5 36.5 56.5 35.333 28.668 58 38 48 14 76 14c46 0 82.833-10.832 110.5-32.5s41.5-51.5 41.5-89.5c0-12.666-1.333-24.333-4-35l-139-10c2 4.667 3 9.667 3 15 0 7.333-2.333 13.166-7 17.499s-11.667 6.5-21 6.5-17.333-4-24-12-10-21-10-39c0-19.333 9.667-29 29-29h43l-19-98h-39c-14 0-25.667-4.667-35-14s-14-22-14-38c0-14.667 8-22 24-22 7.333 0 15 2.167 23 6.5s12.667 13.166 14 26.499zM200 574.004l136 186 98-54-170-175z"/><glyph glyph-name="etatonos" unicode="ή" horiz-adv-x="413" d="M229 447c11.333 16 25.501 29 42.501 39s33.167 15 48.5 15c35.333 0 59.166-8.167 71.499-24.5S410 440.667 410 418c0-7.333-.667-15.166-2-23.499l-4-24.5-93-501H174l87 466c.667 3.333 1 7.666 1 12.999 0 8.667-2 14.667-6 18s-9 5-15 5c-8 0-16.167-4.667-24.5-14s-13.833-20.333-16.5-33L139 0H2l96 495h137l-11-47zm-24.999 127l136 186 98-54-170-175z"/><glyph glyph-name="iotatonos" unicode="ί" horiz-adv-x="226" d="M168-3c-2 0-5.334-.167-10.001-.5s-9.667-.5-15-.5h-25C84.666-4 60.333 3.167 45 17.5S22 53 22 81c0 6 .333 12.5 1 19.5s1.667 14.167 3 21.5l73 372h126l-68-345c-2-8-3-15-3-21 0-9.333 2.833-15.333 8.5-18s14.167-4.667 25.5-6zm-43.001 577l136 186 98-54-170-175z"/><glyph glyph-name="upsilondieresistonos" unicode="ΰ" horiz-adv-x="401" d="M369 221c-8-40.667-16.997-75.504-26.997-104.504s-22.5-52.667-37.5-71-33.5-31.666-55.5-39.999-49.667-12.5-83-12.5c-28 0-51 4.333-69 13s-32.333 19.667-43 33-18 27.833-22 43.5-6 30.834-6 45.501c0 18 1.833 36.667 5.5 56l11.5 61 47 249h139l-48-231-15-77c-1.333-7.333-2.333-13.833-3-19.5s-1-11.167-1-16.5c0-8 1.5-14.667 4.5-20s9.167-8 18.5-8c7.333 0 13.666 2.333 18.999 7s8.666 9.667 9.999 15c1.333 2 3 6.833 5 14.5s4.167 16.834 6.5 27.501 4.666 22.334 6.999 35.001l7.5 39 44 234h139zM182.003 558.996l114 199 106-39-149-191zm178-4l24 122h119l-24-122h-119zm-309 0l24 122h118l-24-122h-118z"/><glyph glyph-name="alpha" unicode="α" horiz-adv-x="401" d="M182 120c6 0 12.666 3 19.999 9s13.666 20.667 18.999 44l27 139c1.333 4.667 2.333 9.334 3 14.001s1 9.667 1 15c0 7.333-1.667 13.833-5 19.5s-10 8.5-20 8.5c-7.333 0-13.5-2.333-18.5-7s-8.167-9.667-9.5-15c-2-4-5.167-14.5-9.5-31.5s-8.666-36.333-12.999-58S168.333 214.167 165 192.5s-5-39.167-5-52.5c0-12 7.333-18.667 22-20zm8.999-120l7.998 39h-5c-12-16.667-26.333-28.5-43-35.5S121.33-7 111.997-7c-36.667 0-61.667 8.5-75 25.5s-20 38.5-20 64.5c0 21.333 1.833 47.833 5.5 79.5S32.331 231 40.998 273c7.333 38 15.5 71.167 24.5 99.5s19.833 52 32.5 71 27.834 33.167 45.501 42.5 38.5 14 62.5 14c11.333 0 23.5-2.833 36.5-8.5s23.167-17.167 30.5-34.5l4 2 9 35h136L326 0H191z"/><glyph glyph-name="beta" unicode="β" horiz-adv-x="422" d="M362 421c16-5.333 27.166-14 33.499-26s9.5-26.667 9.5-44-1.833-38.333-5.5-63-8.5-49.834-14.5-75.501-12.333-50-19-73-13-41.5-19-55.5c-13.333-30-29.666-52.5-48.999-67.5s-45-22.5-77-22.5c-12 0-24.167 2.333-36.5 7S161 15.333 151 30h-7l-34-161H-27l138 694c10 52 29.667 92.167 59 120.5S242 726 298 726c48 0 84-12.333 108-37s36-59 36-103-6.333-79.333-19-106-32.667-45.667-60-57zm-115.001 46c17.333 0 31.167 8.502 41.5 25.502s15.5 41.167 15.5 72.5c0 12-2.333 20.333-7 25s-10 7-16 7c-18 0-28.667-9.333-32-28l-80-414c0-1.333-.167-2.833-.5-4.5s-.5-3.167-.5-4.5c0-7.333 2.167-13 6.5-17s9.833-6 16.5-6c9.333 0 17.166 2.167 23.499 6.5s12.5 14.166 18.5 29.499c2.667 6.667 5.834 17.834 9.501 33.501s7.167 32.167 10.5 49.5 6.333 34.166 9 50.499 4 28.166 4 35.499c0 16-3 26.667-9 32s-15.333 8-28 8h-1z"/><glyph glyph-name="gamma" unicode="γ" horiz-adv-x="398" d="M213 213c20 50.667 37.836 98.166 53.503 142.499l47.5 138.5h146c-16-43.333-32.167-84.666-48.5-123.999s-33.833-78.5-52.5-117.5l-60-120.5-69-134-42-200h-129l36 176c-1.333 57.333-3.5 117-6.5 179s-7.167 123.667-12.5 185c-.667 6.667-1.334 12.5-2.001 17.5S71.668 365 69 369s-6.5 7-11.5 9-12.167 3.333-21.5 4l5 111c18.667 4.667 36.667 7 54 7 69.333 0 106.666-34.667 111.999-104 .667-11.333 1.167-24.5 1.5-39.5s.333-30.833 0-47.5l-1-49.5c-.333-16.333-.833-31.833-1.5-46.5h7z"/><glyph glyph-name="delta" unicode="δ" horiz-adv-x="409" d="M170 460c-13.333 15.333-23.667 30.837-31 46.504s-11 33.5-11 53.5c0 55.333 16.833 96.666 50.5 123.999s82.834 41 147.501 41c22.667 0 42-.833 58-2.5l42-4.5-20-114c-18.667 1.333-32.834 2.166-42.501 2.499s-18.5.5-26.5.5c-30.667 0-52.167-4.167-64.5-12.5s-18.5-20.833-18.5-37.5c0-9.333 5.833-19.5 17.5-30.5s27.167-22.833 46.5-35.5c16-11.333 29.167-23 39.5-35s18.333-24.667 24-38 9.167-27.833 10.5-43.5 1-33.167-1-52.5l-2.5-19.5c-1-7.667-2.167-16-3.5-25l-4-26.5c-1.333-8.667-2.666-16-3.999-22-8.667-48-19.167-87.333-31.5-118s-26.5-54.667-42.5-72-34.333-29.333-55-36-44-10-70-10c-28.667 0-52.5 4.5-71.5 13.5s-34.333 20.167-46 33.5S40.667 68.168 36 84.5s-7 32.167-7 47.5c0 9.333.833 24.833 2.5 46.5s5 45.834 10 72.5 12.333 54 22 82 22.167 53 37.5 75c9.333 12.668 19.833 23.168 31.5 31.5s24.167 15.167 37.5 20.5zm66.999-88.996l-15.997-9.001c-4.667-2.667-9-8-13-16s-8-20-12-36-9-38.333-15-67l-3-15c-3.333-16-6.166-31.167-8.5-45.5s-3.5-25.833-3.5-34.5c0-7.333 1.668-13.5 5-18.5s9.334-7.5 18-7.5c7.334 0 13.667 2.333 19 7s8.666 9.667 9.999 15c2 4 5.167 14.5 9.5 31.5s8.666 35.833 12.999 56.5 8.166 40.834 11.499 60.501 5 34.167 5 43.5c0 6.667-1.333 13-4 19s-8 11.333-16 16z"/><glyph glyph-name="epsilon" unicode="ε" horiz-adv-x="392" d="M360 142c-4.667-28-12.667-51.33-24-69.996s-25.166-33.834-41.499-45.501-34.833-19.834-55.5-24.501-42.334-7-65.001-7c-44.667 0-80.834 9.667-108.501 29s-41.5 51.333-41.5 96c0 30 5.167 57.5 15.5 82.5s31.833 44.167 64.5 57.5v1c-13.333 7.333-22.666 16-27.999 26s-8 22.667-8 38c0 24.667 4.167 47.834 12.5 69.5s20.5 40.5 36.5 56.5 35.333 28.668 58 38 48 14 76 14c46 0 82.833-10.832 110.5-32.5s41.5-51.5 41.5-89.5c0-12.666-1.333-24.333-4-35l-139-10c2 4.667 3 9.667 3 15 0 7.333-2.333 13.166-7 17.499s-11.667 6.5-21 6.5-17.333-4-24-12-10-21-10-39c0-19.333 9.667-29 29-29h43l-19-98h-39c-14 0-25.667-4.667-35-14s-14-22-14-38c0-14.667 8-22 24-22 7.333 0 15 2.167 23 6.5s12.667 13.166 14 26.499z"/><glyph glyph-name="zeta" unicode="ζ" horiz-adv-x="374" d="M205 380l-125.999.002 24 115h314l-20-100c-38.667-22-73-44.167-103-66.5s-55.167-44-75.5-65-35.833-40.5-46.5-58.5-16-34-16-48 5.833-25.833 17.5-35.5 30.834-20.834 57.501-33.501c23.333-10.667 41.5-22.334 54.5-35.001s19.5-28 19.5-46c0-5.333-.833-12.333-2.5-21s-6.5-20-14.5-34-20.167-30.833-36.5-50.5-38.833-43.167-67.5-70.5l-77 56 28.5 35 16.5 21c4 5.333 6.5 9.666 7.5 12.999s1.5 7 1.5 11c0 6-3.5 11.167-10.5 15.5s-15.833 9-26.5 14-22.334 11-35.001 18-24.334 15.667-35.001 26-19.5 22.833-26.5 37.5-10.5 32.667-10.5 54C17 214.666 80 296.333 206 377z"/><glyph glyph-name="eta" unicode="η" horiz-adv-x="413" d="M229 447c11.333 16 25.501 29 42.501 39s33.167 15 48.5 15c35.333 0 59.166-8.167 71.499-24.5S410 440.667 410 418c0-7.333-.667-15.166-2-23.499l-4-24.5-93-501H174l87 466c.667 3.333 1 7.666 1 12.999 0 8.667-2 14.667-6 18s-9 5-15 5c-8 0-16.167-4.667-24.5-14s-13.833-20.333-16.5-33L139 0H2l96 495h137l-11-47z"/></font>
</defs>
</svg>
