<svg><defs><font id="PFDinTextCompPro-Bold" horiz-adv-x="1818"><font-face font-family="PF Din Text Comp Pro" font-weight="700" panose-1="2 0 8 6 0 0 0 2 0 4" ascent="750" descent="-250" x-height="494" cap-height="696" bbox="-213 -276.002 1760 949" underline-thickness="90" underline-position="-115" unicode-range="U+0020-U+FB05"/><glyph glyph-name="fj" unicode="fj" horiz-adv-x="490" d="M196 494l250.999-.002v-530c0-57.333-16.333-98.333-49-123s-78.334-37-137.001-37h-11v128h17c17.333 0 28.833 5.5 34.5 16.5s8.5 28.5 8.5 52.5v387h-114v-388h-137v388h-44v106h44v66c0 31.333 5.167 58 15.5 80s24 39.833 41 53.5 36.667 23.667 59 30 45.833 9.5 70.5 9.5c14 0 28.5-.833 43.5-2.5s30.333-4.667 46-9 30.834-10.166 45.501-17.499S408.333 687.333 421 676l-72-102c-12 12-26.5 20-43.5 24s-33.167 6-48.5 6c-14 0-25-2.167-33-6.5s-14-9.5-18-15.5-6.667-12.5-8-19.5-2-13.167-2-18.5v-50z"/><glyph glyph-name="ffj" unicode="ffj" horiz-adv-x="741" d="M447 495l251.001-.001v-531c0-57.333-16.333-98.333-49-123s-78.334-37-137.001-37h-11v128h17c17.333 0 28.833 5.5 34.5 16.5s8.5 28.5 8.5 52.5v387H447v-388H310v388H196v-388H59v388H15v107h44v37c0 31.333 5.167 58 15.5 80s24 39.833 41 53.5 36.667 23.667 59 30 45.833 9.5 70.5 9.5c16 0 33.5-1.833 52.5-5.5s37.833-9.5 56.5-17.5c17.333 18 38.333 31 63 39s51 12 79 12c14 0 28.667-.833 44-2.5s30.666-4.667 45.999-9 30.166-10.166 44.499-17.499 27.5-16.333 39.5-27l-70-102c-15.333 11.333-30.666 19-45.999 23s-30.666 6-45.999 6c-14 0-25-2.167-33-6.5s-14-9.5-18-15.5-6.667-12.5-8-19.5-2-13.167-2-18.5v-49zm-189.999 80.999c-14 0-25-2.167-33-6.5s-14-9.5-18-15.5-6.667-12.5-8-19.5-2-13.167-2-18.5v-21h114v71c-9.333 4.667-19 7.5-29 8.5s-18 1.5-24 1.5z"/><glyph glyph-name="ff" unicode="ff" horiz-adv-x="518" d="M515 736l.001-124h-33c-9.333 0-17.5-3.5-24.5-10.5s-10.5-15.833-10.5-26.5v-81h71V388h-71V0h-137v388h-114V0h-137v388h-44v106h44v38c0 31.333 5.167 58 15.5 80s24 39.833 41 53.5 36.667 23.667 59 30 45.833 9.5 70.5 9.5c13.333 0 28.166-1.333 44.499-4s32.5-6.667 48.5-12c12.667 16 28.5 27.833 47.5 35.5S424.667 736 446 736h69zM196.001 494h114.001v75c-11.333 3.333-20.833 5.333-28.5 6s-15.834 1-24.501 1c-14 0-25-2.167-33-6.5s-14-9.5-18-15.5-6.667-12.5-8-19.5-2-13.167-2-18.5v-22z"/><glyph glyph-name="fi" unicode="fi" horiz-adv-x="490" d="M310 0l.001 387.998h-114v-388h-137v388h-44v106h44v66c0 31.333 5.167 58 15.5 80s24 39.833 41 53.5 36.667 23.667 59 30 45.833 9.5 70.5 9.5c14 0 28.833-.833 44.5-2.5s31.5-4.667 47.5-9 31.167-10.166 45.5-17.499S409.667 687.333 421 676l-72-102c-12 12-26.5 20-43.5 24s-33.167 6-48.5 6c-14 0-25-2.167-33-6.5s-14-9.5-18-15.5-6.667-12.5-8-19.5-2-13.167-2-18.5v-50h251V0H310z"/><glyph glyph-name="fl" unicode="fl" horiz-adv-x="508" d="M468-5c-53.333 0-92.998 11.334-118.998 34.001s-39 61.667-39 117l1 451c-11.333 3.333-21 5.333-29 6s-16.333 1-25 1c-14 0-25-2.167-33-6.5s-14-9.5-18-15.5-6.667-12.5-8-19.5-2-13.167-2-18.5v-50h79v-106h-79v-388h-137v388h-44v106h44v66c0 31.333 4.5 58 13.5 80s21.667 39.833 38 53.5 35.666 23.667 57.999 30 46.833 9.5 73.5 9.5c5.333 0 14.833-.167 28.5-.5s29.667-1.5 48-3.5 38.666-4.833 60.999-8.5S424.333 711.667 447 705V164c0-17.333 3-29 9-35s14-9 24-9h12V-5h-24z"/><glyph glyph-name="ffi" unicode="ffi" horiz-adv-x="741" d="M561 0v387.999H447v-388H310v388H196v-388H59v388H15v107h44v37c0 31.333 5.167 58 15.5 80s24 39.833 41 53.5 36.667 23.667 59 30 45.833 9.5 70.5 9.5c16 0 33.5-1.833 52.5-5.5s37.833-9.5 56.5-17.5c17.333 18 38.333 31 63 39s51 12 79 12c14 0 28.667-.833 44-2.5s30.666-4.667 45.999-9 30.166-10.166 44.499-17.499 27.5-16.333 39.5-27l-70-102c-15.333 11.333-30.666 19-45.999 23s-30.666 6-45.999 6c-14 0-25-2.167-33-6.5s-14-9.5-18-15.5-6.667-12.5-8-19.5-2-13.167-2-18.5v-49h251V0H561zM257 575.999c-14 0-25-2.167-33-6.5s-14-9.5-18-15.5-6.667-12.5-8-19.5-2-13.167-2-18.5v-21h114v71c-9.333 4.667-19 7.5-29 8.5s-18 1.5-24 1.5z"/><glyph glyph-name="ffl" unicode="ffl" horiz-adv-x="762" d="M240 705c16 0 34.331-1.832 54.998-5.499s40.334-9.5 59.001-17.5c17.333 18 38.666 31 63.999 39s51.333 12 78 12c5.333 0 15-.167 29-.5s30.5-1.5 49.5-3.5 39.5-4.833 61.5-8.5 43.667-8.834 65-15.501V164c0-17.333 3-29 9-35s14-9 24-9h12V-5h-24c-53.333 0-93 11.333-119 34s-39 61.667-39 117l1 451c-11.333 3.333-21 5.333-29 6s-16.333 1-25 1c-14.667 0-26.167-2.167-34.5-6.5s-14.666-9.5-18.999-15.5-7.166-12.5-8.499-19.5-2-13.167-2-18.5v-49h79V388h-79V0H310v388H196V0H59v388H15v107h44v37c0 31.333 4.833 58 14.5 80s22.667 39.833 39 53.5 35.5 23.667 57.5 30 45.333 9.5 70 9.5zm16.998-128.999c-14 0-25-2.167-33-6.5s-14-9.5-18-15.5-6.667-12.5-8-19.5-2-13.167-2-18.5v-21h114v68c-8 4.667-16.667 8-26 10s-18.333 3-27 3z"/><glyph glyph-name="ft" unicode="ft" horiz-adv-x="528" d="M440 0c-24 0-44.17 3.667-60.503 11s-29.666 17-39.999 29-17.666 25.5-21.999 40.5-6.5 30.167-6.5 45.5v262H196V0H59v388H15v106h44v90c0 25.333 3.667 47 11 65s17.333 32.667 30 44 27.167 19.666 43.5 24.999 33.5 8 51.5 8h69v-124h-33c-9.333 0-17.5-3.5-24.5-10.5s-10.5-15.833-10.5-26.5v-71h115v131h129v-130h56v-107h-56v-218c0-6 .333-11.667 1-17s2.334-10.166 5.001-14.499 7-7.833 13-10.5 14.333-4 25-4h12V0h-56z"/><glyph glyph-name=".notdef" horiz-adv-x="437" d="M0 696h437V0H0v696zM335 68L219 284 101 68h234zm0 560H101l118-214zM66 141l113 208L66 554V141zm304 1v412L259 349z"/><glyph glyph-name="space" horiz-adv-x="215"/><glyph glyph-name="exclam" unicode="!" horiz-adv-x="275" d="M194 203H81L71 696h133zM74 0v139h128V0H74z"/><glyph glyph-name="quotedbl" unicode="&quot;" horiz-adv-x="310" d="M179 477v219h93V477h-93zm-140 0v219h92V477H39z"/><glyph glyph-name="numbersign" unicode="#" horiz-adv-x="430" d="M4 302h68l20 102H40v95h67l34 196h98l-35-196h70l35 196h98l-36-196h54v-95h-70l-17-102h53v-95h-71L284 0h-97l36 207h-71L117 0H19l37 207H4v95zm166 0h70l19 102h-71z"/><glyph glyph-name="dollar" unicode="$" horiz-adv-x="430" d="M400 205c0-30.667-2.499-58.498-7.499-83.498s-13.833-46.667-26.5-65-29.334-32.833-50.001-43.5-46.667-16.667-78-18v-78h-36v78c-29.333 1.333-54.333 7-75 17s-37.5 23-50.5 39-22.5 34.5-28.5 55.5-9 43.167-9 66.5l136 26c1.333-19.333 3.833-35.333 7.5-48s10.167-21 19.5-25v169c-34 14-61.5 28.5-82.5 43.5s-37 31-48 48-18.333 35.167-22 54.5-5.5 40.333-5.5 63c0 26.667 3 51.5 9 74.5s15.333 43.167 28 60.5 29 31.333 49 42 44 17.334 72 20.001v68h36v-67c32-1.333 58.5-7.833 79.5-19.5s37.5-25.834 49.5-42.501 20.5-35 25.5-55 7.5-39.333 7.5-58l-134-29c0 16-1.667 30.833-5 44.5s-11 22.5-23 26.5v-142c34-16 61.5-31.333 82.5-46s37.5-30.334 49.5-47.001 20-35.334 24-56.001 6-45 6-73zm-133.999-.998c0 18.667-2 33.501-6 44.501s-11.333 20.167-22 27.5v-151c12.667 4.667 20.5 14.667 23.5 30s4.5 31.666 4.5 48.999zm-87 301.001c0-12 1.167-22.5 3.5-31.5s8.833-17.5 19.5-25.5v120c-9.333-5.333-15.5-14.333-18.5-27s-4.5-24.667-4.5-36z"/><glyph glyph-name="percent" unicode="%" horiz-adv-x="657" d="M536 318c0 3.333-1.333 7.166-4 11.499s-7 6.5-13 6.5-10.167-2.167-12.5-6.5S503 321.333 503 318V102c0-3.333 1.333-6.833 4-10.5s7-5.5 13-5.5c5.333 0 9.333 1.833 12 5.5s4 7.167 4 10.5v216zm95-221c0-30.667-10.333-54.834-31-72.501s-47-26.5-79-26.5-58.167 8.833-78.5 26.5S412 66.333 412 97v228c0 30.667 10.333 54.667 31 72s46.667 26 78 26c32.667 0 59.167-8.667 79.5-26s30.5-41.333 30.5-72V97zM150 598c0 3.333-1.333 7.166-4 11.499s-7 6.5-13 6.5-10.167-2.167-12.5-6.5S117 601.333 117 598V382c0-3.333 1.333-6.833 4-10.5s7-5.5 13-5.5c5.333 0 9.333 1.833 12 5.5s4 7.167 4 10.5v216zm95-221c0-30.667-10.333-54.834-31-72.501s-47-26.5-79-26.5-58.167 8.833-78.5 26.5S26 346.333 26 377v228c0 30.667 10.333 54.667 31 72s46.667 26 78 26c32.667 0 59.167-8.667 79.5-26s30.5-41.333 30.5-72V377zM208-17h-81l314 731h81z"/><glyph glyph-name="ampersand" unicode="&amp;" horiz-adv-x="499" d="M203 536c0-13.333 3.83-29.168 11.497-47.501s17.167-37.833 28.5-58.5l93-172c2 8.667 4 19.167 6 31.5s2.667 25.833 2 40.5h115c.667-34-3.333-67.667-12-101s-19.667-62.666-33-87.999l79-141h-145l-20 35c-19.333-16-39.666-26.833-60.999-32.5s-43-8.5-65-8.5C152.665-6 113.832 11.167 85.5 45.5S43 125.666 43 182.999c0 39.333 7.833 74.333 23.5 105S104 347.333 132 374l-11 19c-11.333 20-21 41.667-29 65s-12 49.666-12 78.999c0 23.333 3.667 45 11 65s17.5 37.333 30.5 52 28.667 26.167 47 34.5 38.833 12.5 61.5 12.5c38.667 0 73-8.333 103-25s53.667-45 71-85l-107-56c-6 16.667-14.333 28.834-25 36.501S251.332 583 242 583c-15.333 0-25.666-5-30.999-15s-8-20.667-8-32zm-9.003-271.002c-16.667-24.667-24.999-50.667-24.999-78 0-19.333 4.333-36.333 13-51s21-22 37-22c9.333 0 18.666 1.667 27.999 5s17.333 8 24 14z"/><glyph glyph-name="quotesingle" unicode="'" horiz-adv-x="200" d="M57 477v219h92V477H57z"/><glyph glyph-name="parenleft" unicode="(" horiz-adv-x="296" d="M56 308c0 40.667 3.666 79.999 10.999 117.999s17.333 74.333 30 109S124.333 602.833 141 634.5s34.667 61.5 54 89.5l85-41c-16-28-30.333-57.667-43-89s-23.5-63-32.5-95-15.833-63.833-20.5-95.5-7-62.167-7-91.5c0-65.333 9.167-131.333 27.5-198S247-12.667 277-66l-72-48C161-52 125.167 13.667 97.5 83S56 227.333 56 308z"/><glyph glyph-name="parenright" unicode=")" horiz-adv-x="296" d="M280 308c0-80.667-13.833-155.666-41.5-224.999s-63.5-135-107.5-197l-72 48c30 53.333 54.167 113.333 72.5 180s27.5 132.667 27.5 198c0 29.333-2.333 59.833-7 91.5s-11.5 63.5-20.5 95.5-19.833 63.667-32.5 95-27 61-43 89l85 41c18.667-28 36.5-57.833 53.5-89.5S226.333 569.667 239 535s22.667-71 30-109 11-77.333 11-118z"/><glyph glyph-name="asterisk" unicode="*" horiz-adv-x="394" d="M330 404l-71-50-63 105-65-106-71 51 78 98-113 31 28 82 109-45-11 125h89l-11-124 108 44 30-82-117-31z"/><glyph glyph-name="plus" unicode="+" horiz-adv-x="430" d="M268 243V92H159v151H19v111h140v151h109V354h140V243H268z"/><glyph glyph-name="comma" unicode="," horiz-adv-x="234" d="M123-153H47L80-4H51v154h136V-1z"/><glyph glyph-name="hyphen" unicode="-" horiz-adv-x="383" d="M49 216v120h296V216H49z"/><glyph glyph-name="period" unicode="." horiz-adv-x="229" d="M47 0v150h135V0H47z"/><glyph glyph-name="slash" unicode="/" horiz-adv-x="289" d="M101-42H0l187 767h101z"/><glyph glyph-name="zero" unicode="0" horiz-adv-x="430" d="M380 154c0-24.667-3.999-46.834-11.999-66.501s-19.333-36.5-34-50.5-31.834-24.667-51.501-32-40.834-11-63.501-11c-23.333 0-45 3.667-65 11s-37.333 18-52 32-26 30.833-34 50.5-12 41.834-12 66.501v387c0 24.667 4.167 47 12.5 67s19.833 37 34.5 51 31.834 24.667 51.501 32 41.167 11 64.5 11c48 0 86.833-14.333 116.5-43S380 591 380 541V154zM247.001 546c0 8.667-2.833 15.5-8.5 20.5s-12.167 7.5-19.5 7.5-14.166-2.5-20.499-7.5-9.5-11.833-9.5-20.5V149c0-8 3.167-14.5 9.5-19.5s13.166-7.5 20.499-7.5 13.833 2.5 19.5 7.5 8.5 11.5 8.5 19.5v397z"/><glyph glyph-name="one" unicode="1" horiz-adv-x="430" d="M194 0v537l-91-71v149l104 81h120V0H194z"/><glyph glyph-name="two" unicode="2" horiz-adv-x="430" d="M54 0l.001 120.002 171 317c8.667 16 14.167 31.167 16.5 45.5s3.5 29.833 3.5 46.5c0 9.333-2.167 19-6.5 29s-12.166 15-23.499 15c-4 0-8.333-1-13-3s-8.834-6-12.501-12-6.834-14.333-9.501-25-4-24.334-4-41.001l-132 16c0 33.333 4.5 62.166 13.5 86.499s21.333 44.5 37 60.5 33.834 27.833 54.501 35.5 42.667 11.5 66 11.5c59.333 0 102.166-15.667 128.499-47S383 581.667 383 529c0-31.333-3.333-58.333-10-81s-17.667-48.667-33-78L214 131h160V0H54z"/><glyph glyph-name="three" unicode="3" horiz-adv-x="430" d="M325 358c21.333-10 36.002-25.335 44.002-46.002s12-40.667 12-60v-69c0-58-15-104-45-138s-74.333-51-133-51c-118 0-174 65-168 195l135 16c-2-18-2-32.333 0-43s5-19 9-25 8.333-9.833 13-11.5 9-2.5 13-2.5c7.333 0 15.333 2.833 24 8.5s13 17.5 13 35.5v83c0 19.333-5.333 33-16 41s-22.667 12-36 12h-30v114h38c13.333 0 24.833 3.667 34.5 11s14.5 19.666 14.5 36.999v66c0 9.333-2.333 18.5-7 27.5s-13 13.5-25 13.5c-4.667 0-9.334-1-14.001-3s-8.834-5.833-12.501-11.5-6.667-13.834-9-24.501-3.5-24.667-3.5-42l-132 16c0 30.667 4.5 58.167 13.5 82.5s21.5 44.833 37.5 61.5 34.667 29.334 56 38.001 44.333 13 69 13c30.667 0 56.334-4.833 77.001-14.5s37.167-22.167 49.5-37.5 21.166-32.666 26.499-51.999 8-38.333 8-57v-41c0-12.667-.5-25.667-1.5-39s-3.5-26.166-7.5-38.499-9.667-23.666-17-33.999-17.333-18.833-30-25.5v-5z"/><glyph glyph-name="four" unicode="4" horiz-adv-x="430" d="M357 98V0H226v98H23v111l149 487h132L163 226h63v124h131V226h39V98h-39z"/><glyph glyph-name="five" unicode="5" horiz-adv-x="430" d="M384 183c0-60.667-14.165-107.331-42.498-139.998s-71.833-49-130.5-49c-52.667 0-93.334 16.167-122.001 48.5S47.667 123.668 51 189.001l129 16c-2-18-2.167-32.333-.5-43s4.334-18.834 8.001-24.501 7.834-9.334 12.501-11.001 9-2.5 13-2.5c7.333 0 14.5 2.667 21.5 8s10.5 17 10.5 35v149c0 18.667-9.333 28-28 28-5.333 0-12.333-2.167-21-6.5s-16-14.166-22-29.499h-111v388h311V569h-185V443l3-1c7.333 8 17.666 14 30.999 18s24.666 6 33.999 6c45.333 0 77.833-12.667 97.5-38s29.5-58 29.5-98V183z"/><glyph glyph-name="six" unicode="6" horiz-adv-x="430" d="M245 404c10 5.333 22.334 8.001 37.001 8.001 10.667 0 22-1.667 34-5s23.167-10 33.5-20 18.833-23.833 25.5-41.5 10-40.834 10-69.501v-98c0-23.333-2.333-46.166-7-68.499s-13.334-42-26.001-59-29.834-30.667-51.501-41-49.5-15.5-83.5-15.5c-27.333 0-50.833 4-70.5 12s-36.167 19-49.5 33-23.166 30.333-29.499 49-9.5 39-9.5 61v62c0 24.667 1 48.667 3 72S68.333 329.667 77 353l127 343h147L240 408zm5.001-122.999c0 9.333-3.167 16.333-9.5 21s-13.166 7-20.499 7-13.833-2.333-19.5-7-8.5-11.667-8.5-21v-131c0-8.667 2.833-15.334 8.5-20.001s12.167-7 19.5-7 14.166 2.333 20.499 7 9.5 11.334 9.5 20.001v131z"/><glyph glyph-name="seven" unicode="7" horiz-adv-x="430" d="M210 0H75l165 569h-63v-67H55v194h327V580z"/><glyph glyph-name="eight" unicode="8" horiz-adv-x="430" d="M328 362c12.667-6 22.336-13.999 29.003-23.999s11.667-21 15-33 5.333-24.667 6-38 1-26.666 1-39.999v-57c0-57.333-14-101-42-131s-67.667-45-119-45c-29.333 0-54.333 4.667-75 14s-37.667 22-51 38-23 34.5-29 55.5-9 43.167-9 66.5v35c0 12.667.333 26.667 1 42s2.667 30.333 6 45 8.666 28.334 15.999 41.001 18 23 32 31l-1 6c-12.667 6.667-22.5 15.167-29.5 25.5s-12.333 21.666-16 33.999-5.834 25.166-6.501 38.499-1 26.333-1 39v30c0 21.333 3.333 42 10 62s16.667 37.833 30 53.5 30 28.167 50 37.5 43.667 14 71 14c28 0 52.333-4.333 73-13s37.5-20.5 50.5-35.5 22.667-32.5 29-52.5 9.5-41.333 9.5-64v-32c0-13.333-.333-26.833-1-40.5S374.167 437.667 370.5 425s-9-24-16-34-16.833-18-29.5-24zm-82.998 185.001c0 7.333-2.665 13.666-7.998 18.999s-12 8-20 8c-6.667 0-13.334-2.667-20.001-8s-10-11.666-10-18.999v-106c0-7.333 3.167-13.666 9.5-18.999s13.166-8 20.499-8c8 0 14.667 2.667 20 8s8 11.666 8 18.999v106zm.002-259c0 7.333-2.666 13.666-7.999 18.999s-12 8-20 8-15-2.667-21-8-9-11.666-9-18.999v-140c0-7.333 3.167-13.5 9.5-18.5s13.166-7.5 20.499-7.5c8 0 14.667 2.5 20 7.5s8 11.167 8 18.5v140z"/><glyph glyph-name="nine" unicode="9" horiz-adv-x="430" d="M193 292c-10-5.333-22.334-8-37.001-8-10.667 0-22 1.167-34 3.5s-23.167 8-33.5 17-18.833 22.667-25.5 41-10 43.5-10 75.5v97c0 23.333 2.333 46.166 7 68.499s13.334 42 26.001 59 29.834 30.667 51.501 41 49.5 15.5 83.5 15.5c26.667 0 50-4 70-12s36.667-19 50-33 23.166-30.333 29.499-49 9.5-39 9.5-61v-62c0-24.667-1-48.667-3-72s-7.333-46.666-16-69.999L234 0H87l111 288zm-5.001 123c0-9.333 3.167-16.333 9.5-21s13.166-7 20.499-7 13.833 2.333 19.5 7 8.5 11.667 8.5 21v131c0 8.667-2.833 15.334-8.5 20.001s-12.167 7-19.5 7-14.166-2.333-20.499-7-9.5-11.334-9.5-20.001V415z"/><glyph glyph-name="colon" unicode=":" horiz-adv-x="229" d="M47 259v150h135V259H47zM47 0v150h135V0H47z"/><glyph glyph-name="semicolon" unicode=";" horiz-adv-x="234" d="M123-153H47L80-4H51v154h136V-1zM51 259v150h135V259H51z"/><glyph glyph-name="less" unicode="&lt;" horiz-adv-x="430" d="M407 66L19 256v91l391 191V406L163 301l244-103V66z"/><glyph glyph-name="equal" unicode="=" horiz-adv-x="430" d="M19 335v111h389V335H19zm0-179v111h389V156H19z"/><glyph glyph-name="greater" unicode="&gt;" horiz-adv-x="430" d="M23 198l244 103L20 406v132l391-191v-91L23 66v132z"/><glyph glyph-name="question" unicode="?" horiz-adv-x="416" d="M390 516c0-17.333-.669-32.501-2.002-45.501s-3.166-24.667-5.499-35-5.5-19.666-9.5-27.999-8.333-16.833-13-25.5l-51-90c-5.333-8.667-9.166-17.667-11.499-27s-3.5-21.666-3.5-36.999v-37H161v77c0 15.333 2.5 30 7.5 44s11.167 27.333 18.5 40c14.667 24 26.167 43.833 34.5 59.5s14.5 29.167 18.5 40.5 6.333 21.666 7 30.999 1 20.333 1 33c0 12-3.167 24.333-9.5 37S221 572 205 572c-10.667 0-21-5.833-31-17.5s-15-32.167-15-61.5L28 508c2.667 62.667 19.667 110.667 51 144s76 50 134 50c62 0 107-16 135-48s42-78 42-138zM162.998-.001v139h128v-139h-128z"/><glyph glyph-name="at" unicode="@" horiz-adv-x="811" d="M455 184c-12.667-17.333-28.16-29.672-46.493-37.005s-36.166-11-53.5-11c-20 0-36.666 3.333-50 10s-24 15.834-32 27.501-13.666 25-17 40-5 30.833-5 47.5 2.5 32.834 7.5 48.501 13 29.334 24 41.001 24.834 21 41.5 28 37 10.5 61 10.5h39v29c0 10-2 17.5-6 22.5s-12 7.5-24 7.5c-5.332 0-11.332-2.5-18-7.5s-12-15.167-16-30.5l-98 33c10.668 35.333 28 62.333 52 81s54.334 28 91 28c44.668 0 77.835-9.5 99.502-28.5s32.5-52.167 32.5-99.5v-161c0-13.333 3.833-23.166 11.5-29.499s15.167-9.5 22.5-9.5c8.667 0 18 2 28 6s19.167 11.833 27.5 23.5 15.333 27.667 21 48 8.5 47.166 8.5 80.5c0 36.666-4.833 70.333-14.5 101s-24.334 57-44.001 79-44.334 39.167-74.001 51.5-64.167 18.5-103.5 18.5c-46.667 0-86.667-8.167-120-24.5s-60.833-38.166-82.5-65.499-37.667-58.833-48-94.5-15.5-72.834-15.5-111.5c0-98.668 23-174 69-226s109-78 189-78c29.333 0 56.833 3.332 82.5 10s54.5 18.666 86.5 36l39-83c-32.667-15.334-66-27.834-100-37.5s-68.333-14.5-103-14.5c-52.667 0-100.834 7.666-144.501 23S191.172 5 159.505 37s-56.167 72.666-73.5 122-26 108.332-26 177c0 54.666 8 105.5 24 152.5s39.167 87.832 69.5 122.5 67.666 61.833 111.999 81.5 94.833 29.5 151.5 29.5c58.667 0 109.167-9 151.5-27s77.166-42.5 104.499-73.5 47.5-67.167 60.5-108.5 19.5-85 19.5-131c0-45.333-5.667-83.833-17-115.5s-26.333-57.5-45-77.5-39.834-34.5-63.501-43.5-47.5-13.5-71.5-13.5c-4.667 0-11.334.833-20.001 2.5S518.167 139 508.5 143s-19 9.167-28 15.5S464.333 173 459 183zm-30.993 129.994h-23.999c-9.333 0-17.833-3.333-25.5-10s-11.5-18.667-11.5-36c0-11.333 2.833-19.666 8.5-24.999s13.167-8 22.5-8 16.666 3.667 21.999 11 8 16.666 8 27.999v40z"/><glyph glyph-name="A" unicode="A" horiz-adv-x="449" d="M276 136H174L153 0H9l132 696h166L440 0H297zm-69 239l-14-111h63l-13 111-15 141h-6z"/><glyph glyph-name="B" unicode="B" horiz-adv-x="446" d="M264 498c0 27.333-5 45.5-15 54.5S223 566 201 566h-14V428h17c40 0 60 23.333 60 70zm6-272c0 28-4.833 47.668-14.5 59.001s-24.167 17-43.5 17h-25v-171h24c12.667 0 22.834 2.5 30.501 7.5s13.667 11.833 18 20.5 7.166 18.667 8.499 30 2 23.666 2 36.999zm48 138.001c16-5.333 29.169-13 39.502-23s18.666-21.5 24.999-34.5 10.833-27.167 13.5-42.5 4-31 4-47c0-74.667-16.333-129.5-49-164.5S269.667.001 205 .001H51v696h157c62 0 108.5-16.333 139.5-49s46.5-81 46.5-145c0-14-1.5-27.833-4.5-41.5s-7.5-26.5-13.5-38.5-13.833-22.667-23.5-32-21.167-16.333-34.5-21v-5z"/><glyph glyph-name="C" unicode="C" horiz-adv-x="427" d="M226 702c60.667 0 105.501-14.834 134.501-44.501s43.5-68.167 43.5-115.5v-9.5c0-3-.333-6.167-1-9.5l-131-23c-.667 20.667-5.167 37.834-13.5 51.501s-19.5 20.5-33.5 20.5c-9.333 0-16.833-1.833-22.5-5.5s-10.167-8.167-13.5-13.5-5.666-11.166-6.999-17.499-2-11.833-2-16.5v-355c0-9.333 2.333-18.333 7-27s15.667-13 33-13c13.333 0 24.166 6 32.499 18s12.833 30 13.5 54l135-18c-.667-55.333-16-99.833-46-133.5s-73.333-50.5-130-50.5c-62.667 0-108.334 14.667-137.001 44s-43 73.333-43 132v349C45 574.334 59.833 618.667 89.5 652s75.167 50 136.5 50z"/><glyph glyph-name="D" unicode="D" horiz-adv-x="446" d="M259 505c0 19.333-3.167 34.167-9.5 44.5S229.334 565 208.001 565h-21V131h21c21.333 0 35.166 5 41.499 15s9.5 25 9.5 45v314zm-24 191.001c41.333 0 74.001-7.167 98.001-21.5s40.667-38.5 50-72.5c6-21.333 9.5-54.5 10.5-99.5s1.5-96.167 1.5-153.5-.5-107.333-1.5-150-5.167-74.667-12.5-96c-12.667-39.333-32.834-66.333-60.501-81s-59.167-22-94.5-22H52v696h183z"/><glyph glyph-name="E" unicode="E" horiz-adv-x="394" d="M51 0v696h319V566H187V419h160V288H187V131h183V0H51z"/><glyph glyph-name="F" unicode="F" horiz-adv-x="394" d="M187 566V419h160V288H187V0H51v696h319V566H187z"/><glyph glyph-name="G" unicode="G" horiz-adv-x="440" d="M233 702c31.333 0 58.5-4.501 81.5-13.501s42-21.5 57-37.5 25.667-35 32-57 8.5-45.667 6.5-71l-131-23c-.667 20.667-5.167 37.834-13.5 51.501S246 572 232 572c-9.333 0-16.833-1.833-22.5-5.5s-10.167-8.167-13.5-13.5-5.666-11.166-6.999-17.499-2-11.833-2-16.5v-355c0-9.333 2.333-18.333 7-27s15.667-13 33-13c13.333 0 24.333 3.5 33 10.5s13 16.167 13 27.5v107h-47v119h182v-219c0-57.333-15.333-100.833-46-130.5s-74-44.5-130-44.5c-62.667 0-108.334 14.667-137.001 44s-43 73.333-43 132v349C52 574.334 67.5 618.667 98.5 652s75.833 50 134.5 50z"/><glyph glyph-name="H" unicode="H" horiz-adv-x="459" d="M274 0v288h-87V0H51v696h136V420h87v276h135V0H274z"/><glyph glyph-name="I" unicode="I" horiz-adv-x="242" d="M53 0v696h136V0H53z"/><glyph glyph-name="J" unicode="J" horiz-adv-x="381" d="M330 696l-.003-526.999c0-54.667-15.5-97.5-46.5-128.5s-74.5-46.5-130.5-46.5c-31.333 0-60.666 7.667-87.999 23S14.332 55.334-5 86.001l101 78c8.666-12.667 18.333-22.334 29-29.001s19.667-10 27-10c15.333 0 26.333 5.333 33 16s10 20.667 10 30v525h135z"/><glyph glyph-name="K" unicode="K" horiz-adv-x="446" d="M194 481l95 215h145L289 408 449 0H308l-97 267-24-63V0H51v696h136V481h7z"/><glyph glyph-name="L" unicode="L" horiz-adv-x="378" d="M51 0v696h136V131h183V0H51z"/><glyph glyph-name="M" unicode="M" horiz-adv-x="582" d="M246 136l-29 89-32 103h-5V0H45v696h127l69-186 47-138h6l48 141 68 183h127V0H401v325h-4l-33-108-27-81h-91z"/><glyph glyph-name="N" unicode="N" horiz-adv-x="481" d="M301 367v329h133V0H318l-82 203-48 132h-5V0H48v696h119l82-202 47-127h5z"/><glyph glyph-name="O" unicode="O" horiz-adv-x="445" d="M262 532c0 15.333-3.833 26.333-11.5 33s-17.167 10-28.5 10-21-3.333-29-10-12-17.667-12-33V164c0-16 4-27.167 12-33.5s17.667-9.5 29-9.5 20.833 3.167 28.5 9.5S262 148 262 164v368zm138-362c0-60-14.999-104.333-44.999-133s-74.333-43-133-43c-118 0-177 58.667-177 176v357c0 60 15.667 104.167 47 132.5S166.667 702 222 702c60.667 0 105.5-14.167 134.5-42.5S400 587 400 527V170z"/><glyph glyph-name="P" unicode="P" horiz-adv-x="428" d="M216 696c29.333 0 55.833-3.5 79.5-10.5s44-18.667 61-35 30.167-38.333 39.5-66 14-62.167 14-103.5c0-71.333-15-126.833-45-166.5S286.333 255 219 255h-32V0H51v696h165zm-29-130V385.999h23c8.667 0 17.167 1.167 25.5 3.5s15.833 7 22.5 14 12 16.833 16 29.5 6 29 6 49c0 30.667-6.167 52.334-18.5 65.001s-28.833 19-49.5 19h-25z"/><glyph glyph-name="Q" unicode="Q" horiz-adv-x="446" d="M403 170c0-27.333-3.666-52-10.999-74l62-46-63-78-63 44c-26.667-14.667-61-22-103-22-118 0-177 58.667-177 176v357c0 60 15.667 104.167 47 132.5S169.667 702 225 702c60.667 0 105.5-14.167 134.5-42.5S403 587 403 527V170zM265.001 529c0 15.333-3.833 26.333-11.5 33s-17.167 10-28.5 10-21-3.333-29-10-12-17.667-12-33V167c0-16 4-27.167 12-33.5s17.667-9.5 29-9.5 20.833 3.167 28.5 9.5 11.5 17.5 11.5 33.5v362z"/><glyph glyph-name="R" unicode="R" horiz-adv-x="446" d="M216 696c28.667 0 55-3.501 79-10.501s44.667-18.667 62-35 30.833-37.666 40.5-63.999S412 528 412 490c0-47.333-6.333-86-19-116s-32-54-58-72L435 0H296l-82 271h-27V0H51v696h165zm-29-130.001v-164h21c10 0 19.333 1.167 28 3.5s16.5 6.833 23.5 13.5 12.5 15.5 16.5 26.5 6 25.5 6 43.5c0 26.667-6.5 46.167-19.5 58.5s-29.833 18.5-50.5 18.5h-25z"/><glyph glyph-name="S" unicode="S" horiz-adv-x="427" d="M397 205c0-32-2.831-61.002-8.498-87.002s-15.334-48.167-29.001-66.5-32.167-32.5-55.5-42.5-52.666-15-87.999-15c-32 0-59.5 4.667-82.5 14s-41.667 22.166-56 38.499-24.833 35.333-31.5 57-10 44.834-10 69.501l136 26c1.333-25.333 5.166-44.333 11.499-57s18.166-19 35.499-19c10 0 17.833 2.333 23.5 7s10 10.667 13 18 5 16 6 26 1.5 20 1.5 30c0 14-1 25.667-3 35s-5.5 17.333-10.5 24-11.833 12.5-20.5 17.5-19.334 10.167-32.001 15.5c-34 14-61.333 28.5-82 43.5s-36.5 31-47.5 48-18.167 35-21.5 54-5 39.833-5 62.5c0 28.667 3.333 55.167 10 79.5s17.167 45.166 31.5 62.499 33 31 56 41 50.833 15 83.5 15c34.667 0 63.334-5.5 86.001-16.5s40.5-25 53.5-42 22.167-35.833 27.5-56.5 8-40.667 8-60l-134-29c0 10-.5 19.333-1.5 28s-3.167 16.5-6.5 23.5-7.833 12.5-13.5 16.5-13.5 6-23.5 6c-9.333 0-16.666-2.167-21.999-6.5s-9.5-9.666-12.5-15.999-5-13.5-6-21.5-1.5-15.667-1.5-23c0-9.333.667-17.666 2-24.999s4.666-14.333 9.999-21 13.166-13.167 23.499-19.5 24.833-13.166 43.5-20.499c32-12.667 57.333-26 76-40s32.834-29.333 42.501-46 16-35.5 19-56.5 4.5-44.833 4.5-71.5z"/><glyph glyph-name="T" unicode="T" horiz-adv-x="360" d="M247 566V0H111v566H4v130h350V566H247z"/><glyph glyph-name="U" unicode="U" horiz-adv-x="445" d="M401 695V170c0-60-15-104.333-45-133S281.667-6 223-6C105-6 46 52.667 46 170v525h136V167c0-16 4-27.167 12-33.5s17.667-9.5 29-9.5 20.833 3.167 28.5 9.5S263 151 263 167v528h138z"/><glyph glyph-name="V" unicode="V" horiz-adv-x="447" d="M294 696h148L309 0H137L5 696h149l42-278 25-197h6l25 195z"/><glyph glyph-name="W" unicode="W" horiz-adv-x="641" d="M320 331L258 0H108L7 696h155l37-388h5l64 388h112l64-395h6l31 395h155L535 0H385l-59 331h-6z"/><glyph glyph-name="X" unicode="X" horiz-adv-x="450" d="M222 204L161 0H3l144 363L13 696h159l51-172h6l48 172h160L299 363 447 0H287l-61 204h-4z"/><glyph glyph-name="Y" unicode="Y" horiz-adv-x="414" d="M212 442l25 117 30 137h144L276 283V0H139v283L3 696h145l34-139 25-115h5z"/><glyph glyph-name="Z" unicode="Z" horiz-adv-x="360" d="M24 0v124l168 442H30v130h309V576L170 131h169V0H24z"/><glyph glyph-name="bracketleft" unicode="[" horiz-adv-x="259" d="M61-102v799h182v-97h-60V-5h60v-97H61z"/><glyph glyph-name="backslash" unicode="\" horiz-adv-x="289" d="M0 725h101L288-42H187z"/><glyph glyph-name="bracketright" unicode="]" horiz-adv-x="259" d="M16-103v97h60v606H16v97h181v-800H16z"/><glyph glyph-name="asciicircum" unicode="^" horiz-adv-x="430" d="M210 531l-40-122-36-101H2l167 388h91l171-391H299l-38 101-43 125h-8z"/><glyph glyph-name="underscore" unicode="_" horiz-adv-x="500" d="M0-160v90h500v-90H0z"/><glyph glyph-name="grave" unicode="`" horiz-adv-x="385" d="M265 531L129 706l108 54 100-186z"/><glyph glyph-name="a" unicode="a" horiz-adv-x="408" d="M231 35c-7.333-12-18.83-21.835-34.497-29.502s-30.5-11.5-44.5-11.5c-24 0-44 3.833-60 11.5s-28.833 18.334-38.5 32.001-16.334 30-20.001 49-5.5 39.833-5.5 62.5c0 20 3 39.167 9 57.5s15.333 34.5 28 48.5 29.167 25.167 49.5 33.5 44.5 12.5 72.5 12.5h49v42c0 20.667-11.667 31-35 31-6.667 0-13.834-2.5-21.501-7.5s-13.167-16.167-16.5-33.5l-121 39C52 412.666 71.168 444.333 99.5 467S165 501 211 501c55.333 0 96.166-12.333 122.499-37S373 399 373 343V0H236v34zm5.003 172.998h-28.001c-11.333 0-21.666-3.667-30.999-11s-14-20.666-14-39.999c0-12.667 3.833-21.834 11.5-27.501s16.5-8.5 26.5-8.5 18.333 4 25 12 10 18.333 10 31v44z"/><glyph glyph-name="b" unicode="b" horiz-adv-x="401" d="M201 372c-12.667 0-21.33-6.669-25.997-20.002-2.667-6.667-3.834-20.167-3.501-40.5s.166-44.5-.501-72.5v-11c0-17.333.167-33.666.5-48.999S172.667 153.333 174 148c3.333-14.667 12.333-22 27-22 7.333 0 13.333 2.333 18 7s7 9.667 7 15c1.333 4 2.333 14.667 3 32s1 37.666 1 60.999c0 22-.333 43.333-1 64s-1.667 35.334-3 44.001c-1.333 6.667-4 12.167-8 16.5s-9.667 6.5-17 6.5zm53.004 130.998c20.667 0 37.331-2.335 49.998-7.002s22.834-11 30.501-19 13.5-17.333 17.5-28 7.667-21.667 11-33c2-8 3.667-18.667 5-32s2.333-27.666 3-42.999 1.167-31.166 1.5-47.499.5-31.5.5-45.5c0-25.333-.5-48.833-1.5-70.5s-2.167-38.167-3.5-49.5c-5.333-48.667-17.5-83.167-36.5-103.5s-46.167-30.5-81.5-30.5c-6 0-12.5.667-19.5 2s-14 3.5-21 6.5-13.833 7.333-20.5 13-12 13.167-16 22.5l-4-2v-36h-134v726h137v-261h5c4 6 9.333 11.333 16 16s13.834 8.667 21.501 12 15 5.833 22 7.5 12.833 2.5 17.5 2.5z"/><glyph glyph-name="c" unicode="c" horiz-adv-x="381" d="M201-6c-25.333 0-46.999 2.83-64.999 8.496s-33.333 13.334-46 23.001-22.667 20.834-30 33.501-12.666 25.667-15.999 39c-2 8-3.667 18-5 30s-2.333 24.667-3 38-1.167 26.833-1.5 40.5-.5 26.5-.5 38.5c0 14.667.333 30.167 1 46.5s1.667 32 3 47 3.166 29 5.499 42 5.166 23.833 8.499 32.5c10 26.667 27.5 48.334 52.5 65.001s57.5 25 97.5 25c50 0 88.5-13.833 115.5-41.5S358 394 358 342l-133-15c0 17.333-2.5 29.833-7.5 37.5S206.333 376 199 376c-6.667 0-11.667-1.833-15-5.5s-6-8.5-8-14.5c-2-5.333-3.333-18.5-4-39.5s-1.334-45.5-2-73.5v-15c0-17.333.332-33.666 1-48.999s2-27 4-35c3.332-14.667 11.332-22 24-22 7.332 0 13.5 3.333 18.5 10s7.5 18.334 7.5 35.001l135-17c0-48.667-14.168-86.834-42.5-114.5S250.332-6 201-6z"/><glyph glyph-name="d" unicode="d" horiz-adv-x="411" d="M205 372c-7.333 0-12.996-2.165-16.996-6.498s-6.667-9.833-8-16.5c-1.333-8.667-2.333-23.334-3-44.001s-1-42-1-64c0-23.333.333-43.666 1-60.999s1.667-28 3-32c0-5.333 2.333-10.333 7-15s10.667-7 18-7c14.667 0 23.667 7.333 27 22 1.333 5.333 2.166 15.666 2.499 30.999s.5 31.666.5 48.999v11c-.667 28-.834 52.167-.501 72.5s-.834 33.833-3.501 40.5c-4.667 13.333-13.334 20-26.001 20zm-48.996 131.002c8.667 0 20.165-2.169 34.498-6.502s27.166-12.166 38.499-23.499h5v253h137v-726h-134v36l-4 2c-4-9.333-9.333-16.833-16-22.5s-13.667-10-21-13-14.666-5.167-21.999-6.5-14-2-20-2c-35.333 0-62.666 10-81.999 30s-31 54.667-35 104c-1.333 9.333-2.166 25.333-2.499 48s-.5 46.667-.5 72c0 14 .333 28.833 1 44.5s1.667 31 3 46 2.833 29 4.5 42 3.5 23.5 5.5 31.5c2 8.667 4.833 18.334 8.5 29.001s9.5 20.667 17.5 30 18.5 17 31.5 23 29.833 9 50.5 9z"/><glyph glyph-name="e" unicode="e" horiz-adv-x="394" d="M170 220c0-16-.165-30.836-.498-44.503s.5-24.167 2.5-31.5c3.333-14.667 11.666-22 24.999-22 7.333 0 14 3 20 9s9.667 16.333 11 31l135-20c-2.667-45.333-18-81.333-46-108s-66.667-40-116-40c-25.333 0-47 2.833-65 8.5s-33.333 13.334-46 23.001-22.667 20.834-30 33.501-12.666 25.667-15.999 39c-2 8-3.667 18-5 30s-2.333 24.667-3 38-1.167 26.833-1.5 40.5-.5 26.5-.5 38.5c0 14.667.333 30.167 1 46.5s1.667 32 3 47 3.166 29 5.499 42S48.667 404.332 52 413c10 26.667 27.333 48.334 52 65.001s57 25 97 25c50 0 89.333-13.5 118-40.5S362 396 362 344V220H170zm6.002 135.997c-1.333-3.333-2.332-9.669-2.999-19.002s-1.334-20.666-2.001-33.999h54v42c0 6.667-1.833 13.334-5.5 20.001s-10.167 10-19.5 10c-12 0-20-6.333-24-19z"/><glyph glyph-name="f" unicode="f" horiz-adv-x="265" d="M194 388V.001H57v388H13v106h44v90c0 25.333 3.667 47 11 65s17.333 32.667 30 44 27.167 19.666 43.5 24.999 33.5 8 51.5 8h69V602h-33c-9.333 0-17.5-3.5-24.5-10.5S194 575.667 194 565v-71h71V388h-71z"/><glyph glyph-name="g" unicode="g" horiz-adv-x="413" d="M153 0c-20.667 0-37.331 2.334-49.998 7.001s-22.834 11-30.501 19-13.5 17.333-17.5 28-7.667 21.667-11 33c-2 8-3.667 18.167-5 30.5s-2.333 25.833-3 40.5-1.167 29.667-1.5 45-.5 30-.5 44c0 25.333.5 48.833 1.5 70.5s2.167 38.167 3.5 49.5c5.333 48.667 17.5 83.167 36.5 103.5s46.167 30.5 81.5 30.5c6 0 12.5-.667 19.5-2s14-3.5 21-6.5 13.833-7.5 20.5-13.5 12-13.333 16-22l4 2v36h135v-515c0-62-14.5-107-43.5-135s-69.833-42-122.5-42c-50 0-89 12.167-117 36.5S46.668-99.333 44.001-50l132 19c1.333-14 5.166-24 11.499-30s13.166-9 20.499-9c9.333 0 16.333 3 21 9s7 14 7 24v75h-5c-4-6-9.5-11.333-16.5-16s-14.167-8.667-21.5-12S178.333 4.167 171 2.5 157.667 0 153 0zm53.003 131.001c12.667 0 21.333 6.668 26 20.001 2.667 6.667 4.167 18.667 4.5 36s.5 40.333.5 69v11c0 17.333-.333 33.666-1 48.999s-1.667 25.666-3 30.999c-3.333 14.667-12.333 22-27 22-7.333 0-13.333-2.333-18-7s-7-9.667-7-15c-1.333-4-2.333-14.667-3-32s-1-37.666-1-60.999c0-22 .333-42 1-60s1.667-31.333 3-40c1.333-6.667 4-12.167 8-16.5s9.667-6.5 17-6.5z"/><glyph glyph-name="h" unicode="h" horiz-adv-x="413" d="M184 455c4 5.333 9.499 10.835 16.499 16.502s14.5 10.667 22.5 15 16.333 7.833 25 10.5 17 4 25 4c22.667 0 40.5-3.667 53.5-11s23-17 30-29 11.5-25.833 13.5-41.5 3-32.167 3-49.5v-370h-137v335c0 13.333-2.667 22.666-8 27.999s-11.666 8-18.999 8c-8 0-15-3.333-21-10s-9-16.334-9-29.001V0H42v726h137V456z"/><glyph glyph-name="i" unicode="i" horiz-adv-x="237" d="M50 566v130h137V566H50zM50 0v494h137V0H50z"/><glyph glyph-name="j" unicode="j" horiz-adv-x="226" d="M46 566v130h137V566H46zM183-35c0-57.333-16.332-98.333-48.999-123S55.667-195-3-195h-11v128H3c17.333 0 28.833 5.5 34.5 16.5S46-22 46 2v493h137V-35z"/><glyph glyph-name="k" unicode="k" horiz-adv-x="426" d="M183 377l71 117h163L284 301 420 0H257l-70 172-11-17V0H40v725h136V378z"/><glyph glyph-name="l" unicode="l" horiz-adv-x="234" d="M194-5C140.667-5 101 6.333 75 29S36 90.667 36 146v580h137V164c0-17.333 3-29 9-35s14-9 24-9h12V-5h-24z"/><glyph glyph-name="m" unicode="m" horiz-adv-x="607" d="M463 501c22.667 0 40.833-3.331 54.5-9.998s24.167-15.667 31.5-27 12.166-24.5 14.499-39.5 3.5-31.167 3.5-48.5v-376h-137v335c0 13.333-2.667 22.666-8 27.999s-11.666 8-18.999 8-13.833-2.833-19.5-8.5-9.167-14.167-10.5-25.5v-337H236v335c0 13.333-2.667 22.666-8 27.999s-11.666 8-18.999 8c-8 0-15-3.333-21-10s-9-16.334-9-29.001v-332h-137v495h137v-41l5-1c8.667 10.667 20.834 21.334 36.501 32.001s31.167 16 46.5 16c28.667 0 50-5.333 64-16s24.333-24.667 31-42c13.333 18 29.666 32.167 48.999 42.5S447.667 501 463 501z"/><glyph glyph-name="n" unicode="n" horiz-adv-x="413" d="M184 455c8.667 11.333 20.998 21.833 36.998 31.5s31.667 14.5 47 14.5c22.667 0 40.834-3.333 54.501-10s24.167-15.667 31.5-27 12.333-24.666 15-39.999 4-31.666 4-48.999v-375h-137v335c0 13.333-2.667 22.666-8 27.999s-11.666 8-18.999 8c-8 0-15-3.333-21-10s-9-16.334-9-29.001V0H42v495h137v-39z"/><glyph glyph-name="o" unicode="o" horiz-adv-x="401" d="M202 503c42 0 75.168-8.332 99.501-24.999S342.667 440.667 352 416c3.333-9.333 5.833-20.666 7.5-33.999s3-27.5 4-42.5 1.667-30.5 2-46.5.5-31 .5-45v-15c0-18-.167-35.833-.5-53.5S364 144.667 362 128c-3.333-28.667-10.833-51.834-22.5-69.501s-25.334-31.334-41.001-41.001-32.667-16.167-51-19.5-36.166-5-53.499-5c-23.333 0-43.5 3-60.5 9S102 15.831 90 25.498 68.167 46.332 60.5 58.999s-13.167 25.667-16.5 39c-2 8-3.667 18-5 30s-2.333 24.667-3 38-1.167 26.833-1.5 40.5-.5 26.5-.5 38.5c0 14.667.333 30.167 1 46.5s1.667 32 3 47 3 29 5 42 4.667 23.833 8 32.5c10 26.667 27.667 48.334 53 65.001s58 25 98 25zm.001-126.999c-12.667 0-21.333-6.669-26-20.002-2.667-6.667-4.167-20.167-4.5-40.5s-.833-44.5-1.5-72.5v-15c0-17.333.167-33.666.5-48.999s1.833-27 4.5-35c3.333-14.667 12.333-22 27-22 7.333 0 13.333 2.333 18 7s7 9.667 7 15c1.333 4 2.5 16 3.5 36s1.5 41.667 1.5 65c0 22-.5 43.333-1.5 64s-2.167 35.334-3.5 44.001c-1.333 6.667-4 12.167-8 16.5s-9.667 6.5-17 6.5z"/><glyph glyph-name="p" unicode="p" horiz-adv-x="401" d="M201 123c7.333 0 12.996 2.165 16.996 6.498s6.667 9.833 8 16.5c1.333 8.667 2.333 23.334 3 44.001s1 42 1 64c0 23.333-.333 43.666-1 61s-1.667 28-3 32c0 5.332-2.333 10.332-7 15s-10.667 7-18 7c-14.667 0-23.667-7.334-27-22-1.333-5.334-2.166-15.667-2.499-31s-.5-31.666-.5-48.999v-11c.667-28 .834-52.167.501-72.5s.834-33.833 3.501-40.5c4.667-13.333 13.334-20 26.001-20zM250.996-8.002c-8.667 0-20.33 1.831-34.997 5.498s-27.667 11.167-39 22.5h-5v-210h-137v685h134v-36l4-2c4 8.667 9.333 16 16 22s13.667 10.5 21 13.5 14.666 5.167 21.999 6.5 14 2 20 2c35.333 0 62.666-10 81.999-30s31-54.667 35-104c1.333-9.333 2.166-25.333 2.499-48s.5-46.667.5-72c0-14-.333-29-1-45s-1.5-31.5-2.5-46.5-2.167-28.833-3.5-41.5-3-23-5-31c-2-9.333-5-19.166-9-29.499s-10-20.166-18-29.499-18.5-17-31.5-23-29.833-9-50.5-9z"/><glyph glyph-name="q" unicode="q" horiz-adv-x="414" d="M208 122c12.667 0 21.33 6.669 25.997 20.002 2.667 6.667 3.834 20.167 3.501 40.5s-.166 44.5.501 72.5v11c0 17.333-.167 33.666-.5 48.999S236.333 340.667 235 346c-3.333 14.667-12.333 22-27 22-7.333 0-13.333-2.333-18-7s-7-9.667-7-15c-1.333-4-2.333-14.667-3-32s-1-37.666-1-60.999c0-22 .333-43.333 1-64s1.667-35.334 3-44.001c1.333-6.667 4-12.167 8-16.5s9.667-6.5 17-6.5zM154.996-8.998c-20.667 0-37.331 2.335-49.998 7.002s-22.834 11-30.501 19-13.5 17.333-17.5 28-7.667 21.667-11 33c-2 8-3.667 18.667-5 32s-2.333 27.666-3 42.999-1.167 31.166-1.5 47.499-.5 31.5-.5 45.5c0 25.333.5 48.833 1.5 70.5s2.167 38.167 3.5 49.5c5.333 48.667 17.5 83.167 36.5 103.5s46.167 30.5 81.5 30.5c6 0 12.5-.667 19.5-2s14-3.5 21-6.5 13.833-7.5 20.5-13.5 12-13.333 16-22l4 2v36h134v-685h-137v220h-5c-4-6-9.333-11.333-16-16s-13.834-8.667-21.501-12-15-5.833-22-7.5-12.833-2.5-17.5-2.5z"/><glyph glyph-name="r" unicode="r" horiz-adv-x="316" d="M50 496l138.001.002v-55h2c12.667 25.333 28.167 41.666 46.5 48.999s38.5 11 60.5 11h11v-135c-5.333.667-10.5 1.167-15.5 1.5s-9.833.5-14.5.5c-28.667 0-50.834-6.833-66.501-20.5S188 309.667 188 275V0H50v496z"/><glyph glyph-name="s" unicode="s" horiz-adv-x="387" d="M158 162c-.667-13.333 2.501-23.999 9.501-31.999s15.833-12 26.5-12c8.667 0 16.167 3.167 22.5 9.5s9.5 13.5 9.5 21.5c0 17.333-2.833 29-8.5 35s-13.5 10.667-23.5 14l-57.5 19.5c-19 6.333-36.333 14.666-52 24.999S56.167 266.666 46.5 283.999s-14.5 40.333-14.5 69c0 20.667 3.5 40.167 10.5 58.5S60 445.665 74 458.998s31.167 24 51.5 32 43.833 12 70.5 12c54 0 94.333-13.667 121-41s40.334-64 41.001-110l-130-17c0 9.333-2.5 18.833-7.5 28.5s-13.167 14.5-24.5 14.5c-10.667 0-18.167-3.333-22.5-10s-6.5-12.667-6.5-18c0-10 1.667-17.667 5-23s10.666-9.666 21.999-12.999c24-7.333 46-14.666 66-21.999s37.5-17 52.5-29 26.667-27 35-45 12.5-41 12.5-69c0-20-2.833-39.333-8.5-58S336.333 55.833 323 41.5 292.167 15.667 270.5 7 222-6 190-6C140.667-6 101.667 6.333 73 31S29 93 27 143z"/><glyph glyph-name="t" unicode="t" horiz-adv-x="277" d="M189 0c-24 0-44.17 3.666-60.503 10.999s-29.666 17-39.999 29-17.666 25.5-21.999 40.5-6.5 30.167-6.5 45.5v262H15v107h45v130h129v-130h56v-107h-56v-218c0-6 .333-11.667 1-17s2.334-10.166 5.001-14.499 7-7.833 13-10.5 14.333-4 25-4h12V0h-56z"/><glyph glyph-name="u" unicode="u" horiz-adv-x="413" d="M232 40c-4-5.333-9.333-10.833-16-16.5s-13.834-10.667-21.501-15-15.667-7.833-24-10.5-16.5-4-24.5-4c-22.667 0-40.667 3.333-54 10S68.333 19.667 61 31 48.834 55.666 46.501 70.999s-3.5 31.666-3.5 48.999v375h137v-335c0-13.333 2.667-22.666 8-27.999s11.666-8 18.999-8c8 0 15 3.333 21 10s9 16.334 9 29.001v332h137V0H237v39z"/><glyph glyph-name="v" unicode="v" horiz-adv-x="397" d="M205 176l11 121 26 197h150L277 0H120L5 494h153l26-191 14-127h7z"/><glyph glyph-name="w" unicode="w" horiz-adv-x="582" d="M287 225l-16-119L255 0H104L10 494h144l17-175 13-128h5l15 128 21 175h129l24-177 19-126h5l12 129 15 174h141L476 0H325l-16 106-17 119h-5z"/><glyph glyph-name="x" unicode="x" horiz-adv-x="405" d="M199 140L154 0H4l118 252L10 495h153l40-129h3l41 129h147L280 252 400 0H250l-46 140h-5z"/><glyph glyph-name="y" unicode="y" horiz-adv-x="382" d="M188 199l17.001 116 31 179h140l-143-564c-10-39.333-27-69.5-51-90.5s-56.667-31.5-98-31.5h-46v121h25c10.667 0 21.167 3.667 31.5 11S112.667-37.667 118-15l6 26L3 494h146l20-178 14-117h5z"/><glyph glyph-name="z" unicode="z" horiz-adv-x="350" d="M28 0v121l138 252H39v122h283V383L180 127h142V0H28z"/><glyph glyph-name="braceleft" unicode="{" horiz-adv-x="259" d="M131 298c18-7.333 32.499-21.17 43.499-41.504s16.5-45.5 16.5-75.5v-148c0-10 1.333-17.667 4-23s5.667-9.166 9-11.499 7-3.833 11-4.5 7.333-1 10-1h23v-96h-69c-30.667 0-56.5 10.833-77.5 32.5s-31.5 51.5-31.5 89.5v154c0 30.667-5.5 52.834-16.5 66.501s-25.167 21.167-42.5 22.5v81c18 1.333 32.333 8.5 43 21.5s16 34.5 16 64.5v145c0 38 10.5 67.833 31.5 89.5s46.833 32.5 77.5 32.5h69v-96h-24c-5.333 0-12.166-2.667-20.499-8s-12.5-17.333-12.5-36v-135c0-27.333-5.333-51.166-16-71.499S149.333 314.333 130 305z"/><glyph glyph-name="bar" unicode="|" horiz-adv-x="259" d="M76-162v892h107v-892H76z"/><glyph glyph-name="braceright" unicode="}" horiz-adv-x="259" d="M130 305c-19.333 9.333-34.334 24.17-45.001 44.504s-16 44.166-16 71.499v135c0 18.667-4.167 30.667-12.5 36s-15.166 8-20.499 8H12v96h69c30.667 0 56.5-10.833 77.5-32.5s31.5-51.5 31.5-89.5v-145c0-30 5.333-51.5 16-64.5s25-20.167 43-21.5v-81c-17.333-1.333-31.5-8.833-42.5-22.5S190 203.669 190 173.002v-154c0-38-10.5-67.833-31.5-89.5s-46.833-32.5-77.5-32.5H12v96h23c2.667 0 6 .333 10 1s7.667 2.167 11 4.5S62.333 4.668 65 10s4 13 4 23v148c0 30 5.5 55.167 16.5 75.5S111 290.667 129 298z"/><glyph glyph-name="asciitilde" unicode="~" horiz-adv-x="430" d="M144 393c13.333 0 26.168-2.832 38.501-8.499s24-11.667 35-18l31.5-17.5c10-5.333 19-8 27-8 22 0 45.667 17.667 71 53l74-44c-18-42-37.667-72-59-90s-44-27-68-27c-14 0-27.333 2.667-40 8S229.167 252.167 217.5 258.5l-33 17.5c-10.333 5.333-20.166 8-29.499 8-12 0-24-3.5-36-10.5s-25.667-21.167-41-42.5l-72 43C23.334 312.667 42.667 342.167 64 362.5s48 30.5 80 30.5z"/><glyph glyph-name="exclamdown" unicode="¡" horiz-adv-x="275" d="M82 292h113l10-493H72zm120 203V356H74v139h128z"/><glyph glyph-name="cent" unicode="¢" horiz-adv-x="430" d="M242 501c42-4.667 74.17-20.668 96.503-48.001s33.5-64.333 33.5-111l-133-15c0 17.333-2.5 29.833-7.5 37.5s-11.167 11.5-18.5 11.5c-6.667 0-11.667-1.833-15-5.5s-6-8.5-8-14.5c-2-5.333-3.333-18.5-4-39.5s-1.334-45.5-2.001-73.5v-15c0-17.333.333-33.666 1-48.999s2-27 4-35c3.333-14.667 11.333-22 24-22 7.333 0 13.5 3.333 18.5 10s7.5 18.334 7.5 35.001l135-17c0-44-11.667-79.5-35-106.5s-55.666-42.833-97-47.5v-98h-51v97c-20.666 2-38.666 6-54 12s-28.332 13.667-39 23-19.166 19.833-25.5 31.5-11.165 23.834-14.498 36.501c-2 8-3.667 18-5 30s-2.333 24.667-3 38-1.167 26.833-1.5 40.5-.5 26.5-.5 38.5c0 14.667.333 30.167 1 46.5s1.667 32 3 47 3.166 29 5.499 42 5.166 23.833 8.499 32.5c9.333 23.333 24.166 43.166 44.499 59.499S157.667 498.667 191 502v92h51v-93z"/><glyph glyph-name="sterling" unicode="£" horiz-adv-x="430" d="M221 568c-11.333 0-21.166-4.002-29.499-12.002s-12.5-18-12.5-30 1.5-23.667 4.5-35 6.5-23.333 10.5-36l12.5-39c4.333-13.333 7.833-28 10.5-44h99v-103h-97c-2-32-5.667-58.833-11-80.5s-13-42.834-23-63.501h199v-125h-353v112c16 22.667 28.667 46 38 70s15 53 17 87h-56v103h50c-6 24-13.167 48.667-21.5 74s-12.5 54-12.5 86c0 26 4.5 49.5 13.5 70.5s21.167 39 36.5 54 33.666 26.5 54.999 34.5 44.333 12 69 12c28 0 53.333-4.167 76-12.5s42-20.166 58-35.499 28-33.666 36-54.999 11.667-44.666 11-69.999l-131-29c-.667 20.667-5.167 37-13.5 49S237 568 223 568h-2z"/><glyph glyph-name="currency" unicode="¤" horiz-adv-x="513" d="M101 132l-77.001 77 63 63c-11.333 24-17 48.667-17 74 0 26.667 6 52 18 76l-61 62 79 78 61-61c24 12 50 18 78 18 26.667 0 51-5.333 73-16l63 63 77-77-62-62c12-23.333 18-48.333 18-75 0-26-6.333-52.333-19-79l62-62-79-79-62 62c-25.333-12.667-50.666-19-75.999-19-26 0-51.667 6.333-77 19zm139.999 296c-22.667 0-41.833-7.669-57.5-23.002s-23.5-34.666-23.5-57.999c0-21.333 7.5-39.666 22.5-54.999s33.167-23 54.5-23c24 0 43.833 8.333 59.5 25s23.5 36.667 23.5 60c0 21.333-8 39-24 53s-34.333 21-55 21z"/><glyph glyph-name="yen" unicode="¥" horiz-adv-x="430" d="M222 443l23 126 30 127h144L309 354h63v-68h-84l-4-13v-28h88v-67h-88V0H147v178H64v67h83v28l-4 13H64v68h57L11 696h145l33-129 25-124h8z"/><glyph glyph-name="brokenbar" unicode="¦" horiz-adv-x="259" d="M76 326v396h107V326H76zm107-94v-402H76v402h107z"/><glyph glyph-name="section" unicode="§" horiz-adv-x="423" d="M403 298c0-22.667-4.166-41.334-12.499-56.001s-21.5-28.334-39.5-41.001c13.333-17.333 22.333-35.333 27-54s7-36.667 7-54c0-22.667-4.333-43.667-13-63s-21.167-36-37.5-50-35.833-25-58.5-33-48-12-76-12c-29.333 0-59.833 7.167-91.5 21.5S48.667-9.669 24 14.998l76 85c22.667-20.667 42.167-34.667 58.5-42s30.166-11 41.499-11c18.667 0 32.5 4 41.5 12s13.5 18 13.5 30c0 13.333-7.167 28-21.5 44s-35.5 31.667-63.5 47c-21.333 12-40.166 23.5-56.499 34.5s-30.333 22.833-42 35.5-20.5 26.667-26.5 42-9 33.333-9 54c0 21.333 5.167 40.833 15.5 58.5S76 436.332 94 446.999c-14 15.333-23.833 31.166-29.5 47.499S56 527.664 56 544.997c0 22.667 4.167 43.667 12.5 63s20 36 35 50 32.667 24.833 53 32.5 42.833 11.5 67.5 11.5c32 0 60.833-5.333 86.5-16s53.834-28.667 84.501-54l-72-90c-22.667 20.667-41.834 33.167-57.501 37.5s-29.5 6.5-41.5 6.5c-12.667 0-22.667-3.5-30-10.5s-11-15.5-11-25.5c0-12.667 6.667-24.5 20-35.5s30-22.5 50-34.5c19.333-11.333 38-23.166 56-35.499s34-25.666 48-39.999 25.167-30.166 33.5-47.499 12.5-37 12.5-59zm-123.999-2c0 13.333-7.999 26.502-23.999 39.502s-41.667 28.167-77 45.5c-5.333-3.333-10.5-8-15.5-14s-7.5-12-7.5-18c0-8 3.333-15.833 10-23.5s15.167-15.334 25.5-23.001 21.666-14.834 33.999-21.501l35.5-19c5.333 3.333 9.833 8.333 13.5 15s5.5 13 5.5 19z"/><glyph glyph-name="dieresis" unicode="¨" horiz-adv-x="346" d="M201 547v130h119V547H201zm-174 0v130h118V547H27z"/><glyph glyph-name="copyright" unicode="©" horiz-adv-x="703" d="M345 550c16.667 0 32.002-2.833 46.002-8.5s26.167-13.5 36.5-23.5 18.5-21.5 24.5-34.5 9.333-26.833 10-41.5l-80-20c-1.333 13.333-5 24.166-11 32.499s-14 12.5-24 12.5c-14 0-23.167-3.167-27.5-9.5s-6.5-14.166-6.5-23.499V235c0-8 3-15 9-21s13.667-9 23-9c20.667 0 32 14.667 34 44l82-16c-3.333-34-14.5-61-33.5-81s-46.5-30-82.5-30c-32.667 0-59.834 9.5-81.501 28.5s-32.5 47.833-32.5 86.5v198c0 36 10.667 64.167 32 84.5S311.667 550 345 550zm1.002-558c-50 0-94 8.833-132 26.5s-69.833 42.167-95.5 73.5-45 68.166-58 110.499-19.5 88.5-19.5 138.5c0 50.667 6.5 97.334 19.5 140.001s32.333 79.667 58 111 57.5 55.833 95.5 73.5 82 26.5 132 26.5c48.667 0 92-8.833 130-26.5s70-42.167 96-73.5 45.667-68.333 59-111 20-89.334 20-140.001c0-50-6.667-96.167-20-138.5s-33-79.166-59-110.499-58-55.833-96-73.5S394.669-8 346.002-8zm0 623c-37.333 0-69.837-7.167-97.504-21.5s-50.667-34-69-59-32-54-41-87-13.5-68.5-13.5-106.5c0-37.333 4.833-72.333 14.5-105s23.834-61.334 42.501-86.001 41.834-44.167 69.501-58.5 59.167-21.5 94.5-21.5c36.667 0 68.834 7.167 96.501 21.5s50.834 33.833 69.501 58.5 32.5 53.334 41.5 86.001 13.5 67.667 13.5 105c0 38-4.833 73.5-14.5 106.5s-23.667 62-42 87-41.333 44.667-69 59-59.5 21.5-95.5 21.5z"/><glyph glyph-name="ordfeminine" unicode="ª" horiz-adv-x="281" d="M24 524c18.667 58.667 59.332 88 121.999 88 39.333 0 68.166-8.5 86.499-25.5s27.5-44.167 27.5-81.5V280h-103v20c-7.333-7.333-15.166-13.166-23.499-17.499s-17.833-6.5-28.5-6.5c-35.333 0-59 9.667-71 29s-18 44.333-18 75c0 14 2.167 27.167 6.5 39.5s11 23.166 20 32.499 20.667 16.833 35 22.5 31.5 8.5 51.5 8.5h28v20c0 10.667-6 16-18 16-3.333 0-7.166-1.333-11.499-4s-7.5-8.667-9.5-18zm133.998-109l-17-.001c-6.667 0-13.167-2.167-19.5-6.5s-9.5-12.166-9.5-23.499c0-8 2.833-13.5 8.5-16.5s11.167-4.5 16.5-4.5c14 0 21 8.333 21 25v26z"/><glyph glyph-name="guillemotleft" unicode="«" horiz-adv-x="539" d="M162 46L46 247l116 200h129L176 247 291 46H162zm204 0L250 247l116 200h129L380 247 495 46H366z"/><glyph glyph-name="logicalnot" unicode="¬" horiz-adv-x="430" d="M407 92H298v151H19v111h388V92z"/><glyph glyph-name="sfthyphen" unicode="­" horiz-adv-x="383" d="M49 216v120h296V216H49z"/><glyph glyph-name="registered" unicode="®" horiz-adv-x="486" d="M275 336l-35 104h-9V336h-60v276h78c52 0 78-28.667 78-86 0-15.333-2.167-29.5-6.5-42.5S307.667 459.667 295 451l21.5-57.5L339 336h-64zm-5 190c0 10.667-1.833 18.832-5.5 24.499s-11.167 8.5-22.5 8.5h-11v-66h14c10 0 16.667 2.833 20 8.5s5 13.834 5 24.501zm-24-291.002c-34 0-63.833 5.833-89.5 17.5s-47.167 28-64.5 49-30.333 45.833-39 74.5-13 59.667-13 93c0 34 4.333 65.333 13 94s21.667 53.5 39 74.5 38.833 37.333 64.5 49 55.5 17.5 89.5 17.5c32.667 0 61.5-5.833 86.5-17.5s46.167-28 63.5-49 30.5-45.833 39.5-74.5 13.5-60 13.5-94c0-33.333-4.5-64.333-13.5-93s-22.167-53.5-39.5-74.5-38.5-37.333-63.5-49-53.833-17.5-86.5-17.5zm0 414c-24.667 0-46.167-4.667-64.5-14s-33.5-22-45.5-38-20.833-34.833-26.5-56.5-8.5-44.834-8.5-69.501c0-52 12.333-94.333 37-127s60.667-49 108-49c24.667 0 45.834 4.5 63.501 13.5s32.167 21.5 43.5 37.5 19.833 34.667 25.5 56 8.5 44.333 8.5 69-3 47.834-9 69.501-15 40.5-27 56.5-26.833 28.667-44.5 38-37.834 14-60.501 14z"/><glyph glyph-name="macron" unicode="¯" horiz-adv-x="383" d="M85 566v110h252V566H85z"/><glyph glyph-name="degree" unicode="°" horiz-adv-x="353" d="M224 571c0 13.333-4.333 24.5-13 33.5S191 618 177 618c-13.333 0-24.333-4.5-33-13.5s-13-20.167-13-33.5 4.333-24.666 13-33.999 19.667-14 33-14c14 0 25.333 4.667 34 14s13 20.666 13 33.999zm84 0c0-18-3.333-35-10-51s-16-30-28-42-26-21.333-42-28-33-10-51-10-34.833 3.333-50.5 10S97 466 85 478s-21.333 26-28 42-10 33-10 51 3.333 35 10 51 16 29.833 28 41.5 25.833 21 41.5 28S159 702 177 702s35-3.5 51-10.5 30-16.333 42-28 21.333-25.5 28-41.5 10-33 10-51z"/><glyph glyph-name="plusminus" unicode="±" horiz-adv-x="430" d="M268 275V134H159v141H19v109h140v141h109V384h140V275H268zm140-170V0H19v105h389z"/><glyph glyph-name="twosuperior" unicode="²" horiz-adv-x="280" d="M27 370v78.001l112 188c9.333 14.667 14 31.667 14 51 0 4.667-1.167 9.167-3.5 13.5s-6.833 6.5-13.5 6.5c-7.333 0-13.166-3.5-17.499-10.5s-6.5-19.833-6.5-38.5l-94 12c2 41.333 14.5 72.166 37.5 92.499s50.167 30.5 81.5 30.5c39.333 0 68.166-9.5 86.499-28.5S251 719.667 251 687c0-15.333-2.5-30.333-7.5-45S231 611 221 593l-76-135h98v-88H27z"/><glyph glyph-name="threesuperior" unicode="³" horiz-adv-x="280" d="M144 793c21.333 0 39.165-3.165 53.498-9.498s25.666-15 33.999-26 14.333-24 18-39 5.5-31.167 5.5-48.5c0-14-2.5-29.333-7.5-46s-15.167-29-30.5-37c16.667-5.333 27.167-15.666 31.5-30.999s6.5-35 6.5-59c0-19.333-1.833-36.833-5.5-52.5s-10-29.334-19-41.001-20.833-20.667-35.5-27-32.667-9.5-54-9.5c-32 0-58.667 9.833-80 29.5s-32 48.167-32 85.5l93 10c0-16.667 2.5-27 7.5-31s9.167-6 12.5-6c4 0 7.833 1.333 11.5 4s5.5 7.667 5.5 15v51c0 9.333-2.5 15.666-7.5 18.999s-11.167 5-18.5 5h-26v75h29c15.333 0 23 7.333 23 22v42c0 3.333-1.167 7.166-3.5 11.499s-7.166 6.5-14.499 6.5c-5.333 0-10.166-3-14.499-9s-6.5-18.333-6.5-37l-92 13c1.333 38 12.833 67.5 34.5 88.5S111.333 793 144 793z"/><glyph glyph-name="acute" unicode="´" horiz-adv-x="385" d="M129 574l100 186 108-54-136-175z"/><glyph glyph-name="mu" unicode="µ" horiz-adv-x="413" d="M232 40c-6-8-13.332-15.002-21.999-21.002s-18.667-10.667-30-14v-196h-137v686h137v-335c0-13.333 2.667-22.666 8-27.999s11.666-8 18.999-8c8 0 15 3.333 21 10s9 16.334 9 29.001v332h137V0H237v39z"/><glyph glyph-name="mu" unicode="μ" horiz-adv-x="413" d="M232 40c-6-8-13.332-15.002-21.999-21.002s-18.667-10.667-30-14v-196h-137v686h137v-335c0-13.333 2.667-22.666 8-27.999s11.666-8 18.999-8c8 0 15 3.333 21 10s9 16.334 9 29.001v332h137V0H237v39z"/><glyph glyph-name="paragraph" unicode="¶" horiz-adv-x="462" d="M140 308c-24.667 4.667-45.332 12.669-61.999 24.002s-30.167 25.5-40.5 42.5-17.833 36.167-22.5 57.5-7 44-7 68c0 23.333 3.5 46.666 10.5 69.999s18 44.166 33 62.499 34.667 33.333 59 45S164.667 695 200 695h229V586h-45V-58H283v644h-39V-58H140v366z"/><glyph glyph-name="periodcentered" unicode="·" horiz-adv-x="229" d="M47 199v150h135V199H47z"/><glyph glyph-name="cedilla" unicode="¸" horiz-adv-x="431" d="M238 34l-25.002-69.996c18-2.667 32.667-7.334 44-14.001s20.333-14.167 27-22.5 11.334-17.166 14.001-26.5 4-17.665 4-24.998-1.5-15.833-4.5-25.5-8.333-19-16-28-17.667-16.667-30-23-27.833-9.5-46.5-9.5c-2.667 0-7.334.167-14.001.5s-14.667 1.166-24 2.499-19.666 3.666-30.999 6.999-22.666 7.666-33.999 12.999l21 53c15.333-6.667 27.5-10.834 36.5-12.501s17.167-2.5 24.5-2.5c9.333 0 17 3.167 23 9.5s9 13.166 9 20.499c0 10.667-3.5 18-10.5 22s-16.167 6-27.5 6l-34 23 33 102h61z"/><glyph glyph-name="onesuperior" unicode="¹" horiz-adv-x="224" d="M82 370v308l-57-42v101l69 49h85V370H82z"/><glyph glyph-name="ordmasculine" unicode="º" horiz-adv-x="277" d="M139 613c30 0 53.831-5.503 71.498-16.503s29.834-25.167 36.501-42.5c2-5.333 3.5-12.333 4.5-21s1.833-18 2.5-28 1.167-20.5 1.5-31.5.5-20.833.5-29.5v-46c0-14-.667-24.667-2-32-2.667-17.333-7.834-31.666-15.501-42.999s-17-20.666-28-27.999-22.667-12.5-35-15.5-24.5-4.5-36.5-4.5c-35.333 0-62 7.5-80 22.5s-29 31.5-33 49.5c-3.333 10.667-5.166 25.334-5.499 44.001s-.5 35.667-.5 51c0 20 .667 40.833 2 62.5s4.333 37.834 9 48.501c8 17.333 20.833 31.666 38.5 43s40.834 17 69.501 17zm-1.002-93.003c-5.333 0-9.334-3.666-12.001-10.999-1.333-3.333-2.333-8.666-3-15.999s-1-18-1-32v-30c0-10.667.333-21 1-31s1.667-16.667 3-20c2.667-7.333 7-11 13-11 3.333 0 6 1.5 8 4.5s3.333 5.833 4 8.5c1.333 4 2 9.667 2 17v63c0 11.333-.167 20.666-.5 27.999s-1.166 13.666-2.499 18.999c-2.667 7.333-6.667 11-12 11z"/><glyph glyph-name="guillemotright" unicode="»" horiz-adv-x="539" d="M251 46l115 201-115 200h129l116-200L380 46H251zM47 46l115 201L47 447h129l116-200L176 46H47z"/><glyph glyph-name="onequarter" unicode="¼" horiz-adv-x="657" d="M102 280v308l-57-42v101l69 49h85V280h-97zm99-297h-81l314 731h81zm386 74V0h-87v57H368v71l89 288h88l-83-279h38v85h87v-85h24V57h-24z"/><glyph glyph-name="onehalf" unicode="½" horiz-adv-x="657" d="M90 280v308l-57-42v101l69 49h85V280H90zM192-17h-81l314 731h81zM400 0v78.001l112 188c9.333 14.667 14 31.667 14 51 0 4.667-1.167 9.167-3.5 13.5s-6.833 6.5-13.5 6.5c-7.333 0-13.166-3.5-17.499-10.5s-6.5-19.833-6.5-38.5l-94 12c2 41.333 14.5 72.166 37.5 92.499s50.167 30.5 81.5 30.5c39.333 0 68.166-9.5 86.499-28.5S624 349.667 624 317c0-15.333-2.5-30.333-7.5-45S604 241 594 223L518 88h98V0H400z"/><glyph glyph-name="threequarters" unicode="¾" horiz-adv-x="657" d="M140 703c21.333 0 39.165-3.165 53.498-9.498s25.666-15 33.999-26 14.333-24 18-39 5.5-31.167 5.5-48.5c0-14-2.5-29.333-7.5-46s-15.167-29-30.5-37c16.667-5.333 27.167-15.666 31.5-31s6.5-35 6.5-59c0-19.332-1.833-36.832-5.5-52.5s-10-29.333-19-41-20.833-20.667-35.5-27-32.667-9.5-54-9.5c-32 0-58.667 9.833-80 29.5s-32 48.167-32 85.5l93 10c0-16.667 2.5-27 7.5-31s9.167-6 12.5-6c4 0 7.833 1.333 11.5 4s5.5 7.667 5.5 15v51c0 9.333-2.5 15.666-7.5 18.999s-11.167 5-18.5 5h-26v75h29c15.333 0 23 7.333 23 22v42c0 3.333-1.167 7.166-3.5 11.499s-7.166 6.5-14.499 6.5c-5.333 0-10.166-3-14.499-9s-6.5-18.333-6.5-37l-92 13c1.333 38 12.833 67.5 34.5 88.5S107.333 703 140 703zm82.999-719.998h-81l314 731h81zm386 74v-57h-87v57h-132v71l89 288h88l-83-279h38v85h87v-85h24v-80h-24z"/><glyph glyph-name="questiondown" unicode="¿" horiz-adv-x="416" d="M47-21c0 17.333.669 32.501 2.002 45.501s3.166 24.667 5.499 35 5.333 19.666 9 27.999 8.167 16.833 13.5 25.5l51 90c5.333 8.667 9.166 17.667 11.499 27s3.5 21.666 3.5 36.999v37h133v-77c0-15.333-2.5-30-7.5-44s-11.167-27.333-18.5-40c-14.667-24-26.167-43.833-34.5-59.5S201 54.332 197 42.999 190.667 21.333 190 12s-1-20.333-1-33c0-12 3.167-24.333 9.5-37S216-77 232-77c10.667 0 21 5.833 31 17.5S278-27.333 278 2l131-15c-2.667-62.667-19.667-110.667-51-144s-76-50-134-50c-62 0-107 16-135 48S47-81 47-21zm227.002 516.001v-139h-128v139h128z"/><glyph glyph-name="Agrave" unicode="À" horiz-adv-x="449" d="M276 136H174L153 0H9l132 696h166L440 0H297zm-69 239l-14-111h63l-13 111-15 141h-6zm17 343L29 823l77 93 167-130z"/><glyph glyph-name="Aacute" unicode="Á" horiz-adv-x="449" d="M276 136H174L153 0H9l132 696h166L440 0H297zm-69 239l-14-111h63l-13 111-15 141h-6zm-36 411l167 130 77-93-195-105z"/><glyph glyph-name="Acircumflex" unicode="Â" horiz-adv-x="449" d="M276 136H174L153 0H9l132 696h166L440 0H297zm-69 239l-14-111h63l-13 111-15 141h-6zm17 426l-119-80-52 47 134 145h79l129-144-52-48z"/><glyph glyph-name="Atilde" unicode="Ã" horiz-adv-x="449" d="M276 136H174L153 0H9l132 696h166L440 0H297zm-69 239l-14-111h63l-13 111-15 141h-6zm-35 494c10.667 0 20.832-1.835 30.499-5.502s18.834-7.5 27.501-11.5l24.5-11.5c7.667-3.667 14.5-5.5 20.5-5.5 9.333 0 17.833 2.167 25.5 6.5s18.167 14.833 31.5 31.5l65-36c-16-37.333-32.833-63.166-50.5-77.499S310.333 738 291 738c-12 0-23.167 1.833-33.5 5.5s-20 7.667-29 12l-26 12c-8.333 3.667-16.5 5.5-24.5 5.5s-16.5-2.667-25.5-8-19.833-15.667-32.5-31l-65 40c15.333 36 33.833 60.833 55.5 74.5S152.667 869 172 869z"/><glyph glyph-name="Adieresis" unicode="Ä" horiz-adv-x="449" d="M276 136H174L153 0H9l132 696h166L440 0H297zm-69 239l-14-111h63l-13 111-15 141h-6zm45 354v130h119V729H252zm-174 0v130h118V729H78z"/><glyph glyph-name="Aring" unicode="Å" horiz-adv-x="449" d="M276 136H174L153 0H9l132 696h43c-17.333 8-31.333 20.167-42 36.5s-16 34.833-16 55.5c0 14 2.667 27.167 8 39.5s12.5 23.166 21.5 32.499 19.667 16.666 32 21.999 25.5 8 39.5 8c14.667 0 28.167-2.667 40.5-8s23-12.666 32-21.999 16-20.166 21-32.499S328 802 328 788c0-20.667-5.333-39.167-16-55.5S287.333 704 270 696h37L440 0H297zm-69 239l-14-111h63l-13 111-15 141h-6zm20 443c-8 0-15.167-3-21.5-9s-9.5-13.333-9.5-22c0-9.333 3.167-16.666 9.5-21.999s13.5-8 21.5-8c8.667 0 16 2.667 22 8s9 12.666 9 21.999c0 8.667-3 16-9 22s-13.333 9-22 9z"/><glyph glyph-name="AE" unicode="Æ" horiz-adv-x="642" d="M301 0v151H191L152 0H8l197 696h415V566H437V420h160V287H437V136h183V0H301zm-77 281h77v283h-5z"/><glyph glyph-name="Ccedilla" unicode="Ç" horiz-adv-x="427" d="M226 702c60.667 0 105.5-14.83 134.5-44.497s43.5-68.167 43.5-115.5v-9.5c0-3-.333-6.167-1-9.5l-131-23c-.667 20.667-5.167 37.834-13.5 51.5s-19.5 20.5-33.5 20.5c-9.333 0-16.833-1.832-22.5-5.5s-10.167-8.166-13.5-13.5-5.666-11.165-6.999-17.498-2-11.833-2-16.5v-355c0-9.333 2.333-18.333 7-27s15.667-13 33-13c13.333 0 24.166 6 32.499 18s12.833 30 13.5 54l135-18c-.667-52-14.334-94.5-41.001-127.5s-65-51.5-115-55.5l-11-31c18-2.667 32.667-7.334 44-14.001s20.333-14.167 27-22.5 11.334-17.166 14.001-26.5 4-17.665 4-24.998-1.5-15.833-4.5-25.5-8.333-19-16-28-17.667-16.667-30-23-27.833-9.5-46.5-9.5c-2.667 0-7.334.167-14.001.5s-14.667 1.166-24 2.499-19.666 3.666-30.999 6.999-22.666 7.666-33.999 12.999l21 53c15.333-6.667 27.5-10.834 36.5-12.501s17.167-2.5 24.5-2.5c9.333 0 17 3.167 23 9.5s9 13.166 9 20.499c0 10.667-3.5 18-10.5 22s-16.167 6-27.5 6l-34 23 21 65C137.334 2.334 101.667 19.5 79 48.5S45 118 45 170v349c0 55.334 14.833 99.667 44.5 133s75.167 50 136.5 50z"/><glyph glyph-name="Egrave" unicode="È" horiz-adv-x="394" d="M51 0v696h319V566H187V419h160V288H187V131h183V0H51zm190 718L46 823l77 93 167-130z"/><glyph glyph-name="Eacute" unicode="É" horiz-adv-x="394" d="M51 0v696h319V566H187V419h160V288H187V131h183V0H51zm69 786l167 130 77-93-195-105z"/><glyph glyph-name="Ecircumflex" unicode="Ê" horiz-adv-x="394" d="M51 0v696h319V566H187V419h160V288H187V131h183V0H51zm159 801L91 721l-52 47 134 145h79l129-144-52-48z"/><glyph glyph-name="Edieresis" unicode="Ë" horiz-adv-x="394" d="M51 0v696h319V566H187V419h160V288H187V131h183V0H51zm186 729v130h119V729H237zm-174 0v130h118V729H63z"/><glyph glyph-name="Igrave" unicode="Ì" horiz-adv-x="242" d="M53 0v696h136V0H53zm69 718L-73 823l77 93 167-130z"/><glyph glyph-name="Iacute" unicode="Í" horiz-adv-x="242" d="M53 0v696h136V0H53zm9 786l167 130 77-93-195-105z"/><glyph glyph-name="Icircumflex" unicode="Î" horiz-adv-x="242" d="M53 0v696h136V0H53zm69 801L3 721l-52 47L85 913h79l129-144-52-48z"/><glyph glyph-name="Idieresis" unicode="Ï" horiz-adv-x="242" d="M53 0v696h136V0H53zm96 729v130h119V729H149zm-174 0v130H93V729H-25z"/><glyph glyph-name="Eth" unicode="Ð" horiz-adv-x="446" d="M235 696c41.333 0 74.001-7.167 98.001-21.5s40.667-38.5 50-72.5c6-21.333 9.5-54.5 10.5-99.5s1.5-96.167 1.5-153.5-.5-107.333-1.5-150-5.167-74.667-12.5-96c-12.667-39.333-32.834-66.333-60.501-81S261.333 0 226 0H52v299H4v90h48v307h183zm24.001-191c0 19.333-3.167 34.167-9.5 44.5S229.335 565 208.002 565h-21V389h40v-90h-40V131h21c21.333 0 35.166 5 41.499 15s9.5 25 9.5 45v314z"/><glyph glyph-name="Ntilde" unicode="Ñ" horiz-adv-x="481" d="M301 367v329h133V0H318l-82 203-48 132h-5V0H48v696h119l82-202 47-127h5zM189 862c10.667 0 20.832-1.835 30.499-5.502s18.834-7.5 27.501-11.5l24.5-11.5c7.667-3.667 14.5-5.5 20.5-5.5 9.333 0 17.833 2.167 25.5 6.5s18.167 14.833 31.5 31.5l65-36c-16-37.333-32.833-63.166-50.5-77.499S327.333 731 308 731c-12 0-23.167 1.833-33.5 5.5s-20 7.667-29 12l-26 12c-8.333 3.667-16.5 5.5-24.5 5.5s-16.5-2.667-25.5-8-19.833-15.667-32.5-31l-65 40c15.333 36 33.833 60.833 55.5 74.5S169.667 862 189 862z"/><glyph glyph-name="Ograve" unicode="Ò" horiz-adv-x="445" d="M262 532c0 15.333-3.833 26.333-11.5 33s-17.167 10-28.5 10-21-3.333-29-10-12-17.667-12-33V164c0-16 4-27.167 12-33.5s17.667-9.5 29-9.5 20.833 3.167 28.5 9.5S262 148 262 164v368zm138-362c0-60-14.999-104.333-44.999-133s-74.333-43-133-43c-118 0-177 58.667-177 176v357c0 60 15.667 104.167 47 132.5S166.667 702 222 702c60.667 0 105.5-14.167 134.5-42.5S400 587 400 527V170zM253.001 718l-195 105 77 93 167-130z"/><glyph glyph-name="Oacute" unicode="Ó" horiz-adv-x="445" d="M262 532c0 15.333-3.833 26.333-11.5 33s-17.167 10-28.5 10-21-3.333-29-10-12-17.667-12-33V164c0-16 4-27.167 12-33.5s17.667-9.5 29-9.5 20.833 3.167 28.5 9.5S262 148 262 164v368zm138-362c0-60-14.999-104.333-44.999-133s-74.333-43-133-43c-118 0-177 58.667-177 176v357c0 60 15.667 104.167 47 132.5S166.667 702 222 702c60.667 0 105.5-14.167 134.5-42.5S400 587 400 527V170zM139.001 786l167 130 77-93-195-105z"/><glyph glyph-name="Ocircumflex" unicode="Ô" horiz-adv-x="445" d="M262 532c0 15.333-3.833 26.333-11.5 33s-17.167 10-28.5 10-21-3.333-29-10-12-17.667-12-33V164c0-16 4-27.167 12-33.5s17.667-9.5 29-9.5 20.833 3.167 28.5 9.5S262 148 262 164v368zm138-362c0-60-14.999-104.333-44.999-133s-74.333-43-133-43c-118 0-177 58.667-177 176v357c0 60 15.667 104.167 47 132.5S166.667 702 222 702c60.667 0 105.5-14.167 134.5-42.5S400 587 400 527V170zM222.001 801l-119-80-52 47 134 145h79l129-144-52-48z"/><glyph glyph-name="Otilde" unicode="Õ" horiz-adv-x="445" d="M262 532c0 15.333-3.833 26.333-11.5 33s-17.167 10-28.5 10-21-3.333-29-10-12-17.667-12-33V164c0-16 4-27.167 12-33.5s17.667-9.5 29-9.5 20.833 3.167 28.5 9.5S262 148 262 164v368zm138-362c0-60-14.999-104.333-44.999-133s-74.333-43-133-43c-118 0-177 58.667-177 176v357c0 60 15.667 104.167 47 132.5S166.667 702 222 702c60.667 0 105.5-14.167 134.5-42.5S400 587 400 527V170zM172.001 879c10.667 0 20.832-1.835 30.499-5.502s18.834-7.5 27.501-11.5l24.5-11.5c7.667-3.667 14.5-5.5 20.5-5.5 9.333 0 17.833 2.167 25.5 6.5s18.167 14.833 31.5 31.5l65-36c-16-37.333-32.833-63.166-50.5-77.499s-36.167-21.5-55.5-21.5c-12 0-23.167 1.833-33.5 5.5s-20 7.667-29 12l-26 12c-8.333 3.667-16.5 5.5-24.5 5.5s-16.5-2.667-25.5-8-19.833-15.666-32.5-30.999l-65 40c15.333 36 33.833 60.833 55.5 74.5s42.167 20.5 61.5 20.5z"/><glyph glyph-name="Odieresis" unicode="Ö" horiz-adv-x="445" d="M262 532c0 15.333-3.833 26.333-11.5 33s-17.167 10-28.5 10-21-3.333-29-10-12-17.667-12-33V164c0-16 4-27.167 12-33.5s17.667-9.5 29-9.5 20.833 3.167 28.5 9.5S262 148 262 164v368zm138-362c0-60-14.999-104.333-44.999-133s-74.333-43-133-43c-118 0-177 58.667-177 176v357c0 60 15.667 104.167 47 132.5S166.667 702 222 702c60.667 0 105.5-14.167 134.5-42.5S400 587 400 527V170zM249.001 729v130h119V729h-119zm-174 0v130h118V729h-118z"/><glyph glyph-name="multiply" unicode="×" horiz-adv-x="430" d="M294 298l121-128-79-77-123 128L87 101l-75 78 126 120L15 427l79 77 123-128 126 121 75-79z"/><glyph glyph-name="Oslash" unicode="Ø" horiz-adv-x="445" d="M43 12l25.001 53c-15.333 26-23 61-23 105v357c0 60 15.667 104.167 47 132.5S166.667 702 222 702c54.667 0 97-12 127-36l16 34 35-18-24-50c16-27.333 24-62.333 24-105V170c0-60-15-104.333-45-133S280.667-6 222-6C166-6 123 7 93 33L75-5zm219.001 378l-81-172v-54c0-16 4-27.167 12-33.5s17.667-9.5 29-9.5 20.833 3.167 28.5 9.5 11.5 17.5 11.5 33.5v226zm-81-83l81 173v52c0 15.333-3.833 26.333-11.5 33s-17.167 10-28.5 10-21-3.333-29-10-12-17.667-12-33V307z"/><glyph glyph-name="Ugrave" unicode="Ù" horiz-adv-x="445" d="M401 695V170c0-60-15-104.333-45-133S281.667-6 223-6C105-6 46 52.667 46 170v525h136V167c0-16 4-27.167 12-33.5s17.667-9.5 29-9.5 20.833 3.167 28.5 9.5S263 151 263 167v528h138zm-148 23L58 823l77 93 167-130z"/><glyph glyph-name="Uacute" unicode="Ú" horiz-adv-x="445" d="M401 695V170c0-60-15-104.333-45-133S281.667-6 223-6C105-6 46 52.667 46 170v525h136V167c0-16 4-27.167 12-33.5s17.667-9.5 29-9.5 20.833 3.167 28.5 9.5S263 151 263 167v528h138zm-273 91l167 130 77-93-195-105z"/><glyph glyph-name="Ucircumflex" unicode="Û" horiz-adv-x="445" d="M401 695V170c0-60-15-104.333-45-133S281.667-6 223-6C105-6 46 52.667 46 170v525h136V167c0-16 4-27.167 12-33.5s17.667-9.5 29-9.5 20.833 3.167 28.5 9.5S263 151 263 167v528h138zM221 801l-119-80-52 47 134 145h79l129-144-52-48z"/><glyph glyph-name="Udieresis" unicode="Ü" horiz-adv-x="445" d="M401 695V170c0-60-15-104.333-45-133S281.667-6 223-6C105-6 46 52.667 46 170v525h136V167c0-16 4-27.167 12-33.5s17.667-9.5 29-9.5 20.833 3.167 28.5 9.5S263 151 263 167v528h138zm-152 34v130h119V729H249zm-174 0v130h118V729H75z"/><glyph glyph-name="Yacute" unicode="Ý" horiz-adv-x="414" d="M212 442l25 117 30 137h144L276 283V0H139v283L3 696h145l34-139 25-115h5zm-68 344l167 130 77-93-195-105z"/><glyph glyph-name="Thorn" unicode="Þ" horiz-adv-x="428" d="M216 575c29.333 0 55.833-3.5 79.5-10.5s44-18.667 61-35 30.167-38.333 39.5-66 14-62.167 14-103.5c0-71.333-15-126.833-45-166.5S286.333 134 219 134h-32V0H51v696h135V575h30zm-29-130V264.999h23c8.667 0 17.167 1.167 25.5 3.5s15.833 7 22.5 14 12 16.833 16 29.5 6 29 6 49c0 30.667-6.167 52.334-18.5 65.001s-28.833 19-49.5 19h-25z"/><glyph glyph-name="germandbls" unicode="ß" horiz-adv-x="429" d="M331 428c21.333-12.667 36.501-28.668 45.501-48.001s13.5-41.333 13.5-66v-152c0-20-1.333-40-4-60s-8.334-37.833-17.001-53.5-21.167-28.5-37.5-38.5-37.833-15-64.5-15c-14.667 0-31.334 2-50.001 6v113c8.667 0 16.667 2.833 24 8.5s11 15.167 11 28.5v185c0 6-3 13.5-9 22.5s-16.333 13.5-31 13.5v107c12 0 19.833 3.167 23.5 9.5s5.5 20.5 5.5 42.5v32c0 8.667-1.833 16.5-5.5 23.5s-11.167 10.5-22.5 10.5c-9.333 0-16.5-2.833-21.5-8.5s-7.5-12.5-7.5-20.5v-568h-137v567c0 48.667 13.5 87.334 40.5 116.001s68.833 43 125.5 43c54.667 0 95.834-14 123.501-42S378 617 378 567v-37c0-18-3.5-36.333-10.5-55s-19.167-32.667-36.5-42v-5z"/><glyph glyph-name="agrave" unicode="à" horiz-adv-x="408" d="M231 35c-7.333-12-18.83-21.835-34.497-29.502s-30.5-11.5-44.5-11.5c-24 0-44 3.833-60 11.5s-28.833 18.334-38.5 32.001-16.334 30-20.001 49-5.5 39.833-5.5 62.5c0 20 3 39.167 9 57.5s15.333 34.5 28 48.5 29.167 25.167 49.5 33.5 44.5 12.5 72.5 12.5h49v42c0 20.667-11.667 31-35 31-6.667 0-13.834-2.5-21.501-7.5s-13.167-16.167-16.5-33.5l-121 39C52 412.666 71.168 444.333 99.5 467S165 501 211 501c55.333 0 96.166-12.333 122.499-37S373 399 373 343V0H236v34zm5.003 172.998h-28.001c-11.333 0-21.666-3.667-30.999-11s-14-20.666-14-39.999c0-12.667 3.833-21.834 11.5-27.501s16.5-8.5 26.5-8.5 18.333 4 25 12 10 18.333 10 31v44zm-28.001 323l-136 175 108 54 100-186z"/><glyph glyph-name="aacute" unicode="á" horiz-adv-x="408" d="M231 35c-7.333-12-18.83-21.835-34.497-29.502s-30.5-11.5-44.5-11.5c-24 0-44 3.833-60 11.5s-28.833 18.334-38.5 32.001-16.334 30-20.001 49-5.5 39.833-5.5 62.5c0 20 3 39.167 9 57.5s15.333 34.5 28 48.5 29.167 25.167 49.5 33.5 44.5 12.5 72.5 12.5h49v42c0 20.667-11.667 31-35 31-6.667 0-13.834-2.5-21.501-7.5s-13.167-16.167-16.5-33.5l-121 39C52 412.666 71.168 444.333 99.5 467S165 501 211 501c55.333 0 96.166-12.333 122.499-37S373 399 373 343V0H236v34zm5.003 172.998h-28.001c-11.333 0-21.666-3.667-30.999-11s-14-20.666-14-39.999c0-12.667 3.833-21.834 11.5-27.501s16.5-8.5 26.5-8.5 18.333 4 25 12 10 18.333 10 31v44zm-67.001 366l100 186 108-54-136-175z"/><glyph glyph-name="acircumflex" unicode="â" horiz-adv-x="408" d="M231 35c-7.333-12-18.83-21.835-34.497-29.502s-30.5-11.5-44.5-11.5c-24 0-44 3.833-60 11.5s-28.833 18.334-38.5 32.001-16.334 30-20.001 49-5.5 39.833-5.5 62.5c0 20 3 39.167 9 57.5s15.333 34.5 28 48.5 29.167 25.167 49.5 33.5 44.5 12.5 72.5 12.5h49v42c0 20.667-11.667 31-35 31-6.667 0-13.834-2.5-21.501-7.5s-13.167-16.167-16.5-33.5l-121 39C52 412.666 71.168 444.333 99.5 467S165 501 211 501c55.333 0 96.166-12.333 122.499-37S373 399 373 343V0H236v34zm5.003 172.998h-28.001c-11.333 0-21.666-3.667-30.999-11s-14-20.666-14-39.999c0-12.667 3.833-21.834 11.5-27.501s16.5-8.5 26.5-8.5 18.333 4 25 12 10 18.333 10 31v44zm-17.001 401l-119-94-52 47 134 159h79l129-158-52-48z"/><glyph glyph-name="atilde" unicode="ã" horiz-adv-x="408" d="M231 35c-7.333-12-18.83-21.835-34.497-29.502s-30.5-11.5-44.5-11.5c-24 0-44 3.833-60 11.5s-28.833 18.334-38.5 32.001-16.334 30-20.001 49-5.5 39.833-5.5 62.5c0 20 3 39.167 9 57.5s15.333 34.5 28 48.5 29.167 25.167 49.5 33.5 44.5 12.5 72.5 12.5h49v42c0 20.667-11.667 31-35 31-6.667 0-13.834-2.5-21.501-7.5s-13.167-16.167-16.5-33.5l-121 39C52 412.666 71.168 444.333 99.5 467S165 501 211 501c55.333 0 96.166-12.333 122.499-37S373 399 373 343V0H236v34zm5.003 172.998h-28.001c-11.333 0-21.666-3.667-30.999-11s-14-20.666-14-39.999c0-12.667 3.833-21.834 11.5-27.501s16.5-8.5 26.5-8.5 18.333 4 25 12 10 18.333 10 31v44zm-75.001 468c10.667 0 20.832-1.835 30.499-5.502s18.834-7.5 27.501-11.5l24.5-11.5c7.667-3.667 14.5-5.5 20.5-5.5 9.333 0 17.833 2.167 25.5 6.5s18.167 14.833 31.5 31.5l65-36c-16-37.333-32.833-63.166-50.5-77.499s-36.167-21.5-55.5-21.5c-12 0-23.167 1.833-33.5 5.5s-20 7.667-29 12l-26 12c-8.333 3.667-16.5 5.5-24.5 5.5s-16.5-2.667-25.5-8-19.833-15.666-32.5-30.999l-65 40c15.333 36 33.833 60.833 55.5 74.5s42.167 20.5 61.5 20.5z"/><glyph glyph-name="adieresis" unicode="ä" horiz-adv-x="408" d="M231 35c-7.333-12-18.83-21.835-34.497-29.502s-30.5-11.5-44.5-11.5c-24 0-44 3.833-60 11.5s-28.833 18.334-38.5 32.001-16.334 30-20.001 49-5.5 39.833-5.5 62.5c0 20 3 39.167 9 57.5s15.333 34.5 28 48.5 29.167 25.167 49.5 33.5 44.5 12.5 72.5 12.5h49v42c0 20.667-11.667 31-35 31-6.667 0-13.834-2.5-21.501-7.5s-13.167-16.167-16.5-33.5l-121 39C52 412.666 71.168 444.333 99.5 467S165 501 211 501c55.333 0 96.166-12.333 122.499-37S373 399 373 343V0H236v34zm5.003 172.998h-28.001c-11.333 0-21.666-3.667-30.999-11s-14-20.666-14-39.999c0-12.667 3.833-21.834 11.5-27.501s16.5-8.5 26.5-8.5 18.333 4 25 12 10 18.333 10 31v44zm5.999 339v130h119v-130h-119zm-174 0v130h118v-130h-118z"/><glyph glyph-name="aring" unicode="å" horiz-adv-x="408" d="M231 35c-7.333-12-18.83-21.835-34.497-29.502s-30.5-11.5-44.5-11.5c-24 0-44 3.833-60 11.5s-28.833 18.334-38.5 32.001-16.334 30-20.001 49-5.5 39.833-5.5 62.5c0 20 3 39.167 9 57.5s15.333 34.5 28 48.5 29.167 25.167 49.5 33.5 44.5 12.5 72.5 12.5h49v42c0 20.667-11.667 31-35 31-6.667 0-13.834-2.5-21.501-7.5s-13.167-16.167-16.5-33.5l-121 39C52 412.666 71.168 444.333 99.5 467S165 501 211 501c55.333 0 96.166-12.333 122.499-37S373 399 373 343V0H236v34zm5.003 172.998h-28.001c-11.333 0-21.666-3.667-30.999-11s-14-20.666-14-39.999c0-12.667 3.833-21.834 11.5-27.501s16.5-8.5 26.5-8.5 18.333 4 25 12 10 18.333 10 31v44zm-12.001 311c-14 0-27.167 2.667-39.5 8s-23 12.5-32 21.5-16.167 19.667-21.5 32-8 25.5-8 39.5 2.667 27.167 8 39.5 12.5 23.166 21.5 32.499 19.667 16.666 32 21.999 25.5 8 39.5 8c14.667 0 28.167-2.667 40.5-8s23-12.666 32-21.999 16-20.166 21-32.499 7.5-25.5 7.5-39.5-2.5-27.167-7.5-39.5-12-23-21-32-19.667-16.167-32-21.5-25.833-8-40.5-8zm0 131c-8 0-15.167-3-21.5-9s-9.5-13.333-9.5-22c0-9.333 3.167-16.666 9.5-21.999s13.5-8 21.5-8c8.667 0 16 2.667 22 8s9 12.666 9 21.999c0 8.667-3 16-9 22s-13.333 9-22 9z"/><glyph glyph-name="ae" unicode="æ" horiz-adv-x="587" d="M230 208h-25.001c-11.333 0-21.166-3.667-29.499-11S163 176.334 163 157.001c0-12.667 3.333-21.834 10-27.501s15-8.5 25-8.5 17.833 4 23.5 12 8.5 18.333 8.5 31v44zm136.999 95h57v46c0 6.667-3 12.667-9 18s-12.667 8-20 8c-8 0-14.667-2.667-20-8s-8-11-8-17v-47zm29-309c-28 0-53.83 4.83-77.497 14.497s-41.167 24.834-52.5 45.501c-21.333-26-42-42.5-62-49.5s-37.333-10.5-52-10.5c-24 0-44 3.833-60 11.5S63.169 23.832 53.502 37.5s-16.334 30-20.001 49S28 126.332 28 149c0 20 3 39.167 9 57.5S52.334 241 65 255s29.167 25.167 49.5 33.5S159 301 187 301h43v42c0 9.333-2.167 16.833-6.5 22.5S210.668 374 198 374c-6.667 0-13.834-2-21.501-6s-13.167-14.667-16.5-32L41 373c21.333 85.333 78 128 170 128 19.333 0 37-2.333 53-7s29.667-11.667 41-21c11.333 10 25 17.5 41 22.5s32.667 7.5 50 7.5c50 0 90-13.5 120-40.5S561 396 561 344V217H367v-68c0-7.333 2.667-13.5 8-18.5s12-7.5 20-7.5c7.333 0 14.166 2.833 20.499 8.5s10.166 15.834 11.499 30.501l135-22c-2.667-45.333-18.667-81-48-107s-68.666-39-118-39z"/><glyph glyph-name="ccedilla" unicode="ç" horiz-adv-x="381" d="M360 150c0-45.333-12.332-81.665-36.999-108.998s-58.667-42.666-102-45.999l-11-31c18-2.667 32.667-7.334 44-14.001s20.333-14.167 27-22.5 11.334-17.166 14.001-26.499 4-17.666 4-24.999-1.5-15.833-4.5-25.5-8.333-19-16-28-17.667-16.667-30-23-27.833-9.5-46.5-9.5c-2.667 0-7.334.167-14.001.5s-14.667 1.166-24 2.499-19.666 3.666-30.999 6.999-22.666 7.666-33.999 12.999l21 53c15.333-6.667 27.5-10.834 36.5-12.501s17.167-2.5 24.5-2.5c9.333 0 17 3.167 23 9.5s9 13.166 9 20.499c0 10.667-3.5 18-10.5 22s-16.167 6-27.5 6l-34 23 21 65c-36.667 5.333-64 17.666-82 36.999s-30 40.666-36 63.999c-2 8-3.667 18-5 30s-2.333 24.667-3 38-1.167 26.833-1.5 40.5-.5 26.5-.5 38.5c0 14.667.333 30.167 1 46.5s1.667 32 3 47 3.166 29 5.499 42 5.166 23.833 8.499 32.5c10 26.667 27.5 48.334 52.5 65.001s57.5 25 97.5 25c50 0 88.5-13.833 115.5-41.5s40.5-67.5 40.5-119.5l-133-15c0 17.333-2.5 29.833-7.5 37.5s-11.167 11.5-18.5 11.5c-6.667 0-11.667-1.833-15-5.5s-6-8.5-8-14.5c-2-5.333-3.333-18.5-4-39.5s-1.334-45.5-2-73.5v-15c0-17.333.332-33.666 1-48.999s2-27 4-35c3.332-14.667 11.332-22 24-22 7.332 0 13.5 3.333 18.5 10S225 150.333 225 167l135-17z"/><glyph glyph-name="egrave" unicode="è" horiz-adv-x="394" d="M170 220c0-16-.165-30.836-.498-44.503s.5-24.167 2.5-31.5c3.333-14.667 11.666-22 24.999-22 7.333 0 14 3 20 9s9.667 16.333 11 31l135-20c-2.667-45.333-18-81.333-46-108s-66.667-40-116-40c-25.333 0-47 2.833-65 8.5s-33.333 13.334-46 23.001-22.667 20.834-30 33.501-12.666 25.667-15.999 39c-2 8-3.667 18-5 30s-2.333 24.667-3 38-1.167 26.833-1.5 40.5-.5 26.5-.5 38.5c0 14.667.333 30.167 1 46.5s1.667 32 3 47 3.166 29 5.499 42S48.667 404.332 52 413c10 26.667 27.333 48.334 52 65.001s57 25 97 25c50 0 89.333-13.5 118-40.5S362 396 362 344V220H170zm6.002 135.997c-1.333-3.333-2.332-9.669-2.999-19.002s-1.334-20.666-2.001-33.999h54v42c0 6.667-1.833 13.334-5.5 20.001s-10.167 10-19.5 10c-12 0-20-6.333-24-19zm23.001 174.997l-136 175 108 54 100-186z"/><glyph glyph-name="eacute" unicode="é" horiz-adv-x="394" d="M170 220c0-16-.165-30.836-.498-44.503s.5-24.167 2.5-31.5c3.333-14.667 11.666-22 24.999-22 7.333 0 14 3 20 9s9.667 16.333 11 31l135-20c-2.667-45.333-18-81.333-46-108s-66.667-40-116-40c-25.333 0-47 2.833-65 8.5s-33.333 13.334-46 23.001-22.667 20.834-30 33.501-12.666 25.667-15.999 39c-2 8-3.667 18-5 30s-2.333 24.667-3 38-1.167 26.833-1.5 40.5-.5 26.5-.5 38.5c0 14.667.333 30.167 1 46.5s1.667 32 3 47 3.166 29 5.499 42S48.667 404.332 52 413c10 26.667 27.333 48.334 52 65.001s57 25 97 25c50 0 89.333-13.5 118-40.5S362 396 362 344V220H170zm6.002 135.997c-1.333-3.333-2.332-9.669-2.999-19.002s-1.334-20.666-2.001-33.999h54v42c0 6.667-1.833 13.334-5.5 20.001s-10.167 10-19.5 10c-12 0-20-6.333-24-19zm-37.999 217.997l100 186 108-54-136-175z"/><glyph glyph-name="ecircumflex" unicode="ê" horiz-adv-x="394" d="M170 220c0-16-.165-30.836-.498-44.503s.5-24.167 2.5-31.5c3.333-14.667 11.666-22 24.999-22 7.333 0 14 3 20 9s9.667 16.333 11 31l135-20c-2.667-45.333-18-81.333-46-108s-66.667-40-116-40c-25.333 0-47 2.833-65 8.5s-33.333 13.334-46 23.001-22.667 20.834-30 33.501-12.666 25.667-15.999 39c-2 8-3.667 18-5 30s-2.333 24.667-3 38-1.167 26.833-1.5 40.5-.5 26.5-.5 38.5c0 14.667.333 30.167 1 46.5s1.667 32 3 47 3.166 29 5.499 42S48.667 404.332 52 413c10 26.667 27.333 48.334 52 65.001s57 25 97 25c50 0 89.333-13.5 118-40.5S362 396 362 344V220H170zm6.002 135.997c-1.333-3.333-2.332-9.669-2.999-19.002s-1.334-20.666-2.001-33.999h54v42c0 6.667-1.833 13.334-5.5 20.001s-10.167 10-19.5 10c-12 0-20-6.333-24-19zm23.001 252.997l-119-94-52 47 134 159h79l129-158-52-48z"/><glyph glyph-name="edieresis" unicode="ë" horiz-adv-x="394" d="M170 220c0-16-.165-30.836-.498-44.503s.5-24.167 2.5-31.5c3.333-14.667 11.666-22 24.999-22 7.333 0 14 3 20 9s9.667 16.333 11 31l135-20c-2.667-45.333-18-81.333-46-108s-66.667-40-116-40c-25.333 0-47 2.833-65 8.5s-33.333 13.334-46 23.001-22.667 20.834-30 33.501-12.666 25.667-15.999 39c-2 8-3.667 18-5 30s-2.333 24.667-3 38-1.167 26.833-1.5 40.5-.5 26.5-.5 38.5c0 14.667.333 30.167 1 46.5s1.667 32 3 47 3.166 29 5.499 42S48.667 404.332 52 413c10 26.667 27.333 48.334 52 65.001s57 25 97 25c50 0 89.333-13.5 118-40.5S362 396 362 344V220H170zm6.002 135.997c-1.333-3.333-2.332-9.669-2.999-19.002s-1.334-20.666-2.001-33.999h54v42c0 6.667-1.833 13.334-5.5 20.001s-10.167 10-19.5 10c-12 0-20-6.333-24-19zm49.001 190.997v130h119v-130h-119zm-174 0v130h118v-130h-118z"/><glyph glyph-name="igrave" unicode="ì" horiz-adv-x="249" d="M62 0v494h137V0H62zm58 531L-16 706l108 54 100-186z"/><glyph glyph-name="iacute" unicode="í" horiz-adv-x="262" d="M50 0v494h137V0H50zm34 574l100 186 108-54-136-175z"/><glyph glyph-name="icircumflex" unicode="î" horiz-adv-x="302" d="M82 0v494h137V0H82zm69 609L32 515l-52 47 134 159h79l129-158-52-48z"/><glyph glyph-name="idieresis" unicode="ï" horiz-adv-x="273" d="M66 0v494h137V0H66zm98 547v130h119V547H164zm-174 0v130h118V547H-10z"/><glyph glyph-name="eth" unicode="ð" horiz-adv-x="400" d="M210 595c-11.333 9.333-26.667 17.17-46 23.503s-40.666 10.833-63.999 13.5l16 98c26-1.333 48.667-3.833 68-7.5s36.333-8.167 51-13.5 27.167-11.833 37.5-19.5 20.166-16.5 29.499-26.5l60 44 34-43-62-46c10.667-21.333 18.834-49.666 24.501-85s8.5-84.665 8.5-147.998v-154c0-11.333-.333-22.833-1-34.5l-2-35c-.667-11.667-1.334-21.834-2.001-30.501-3.333-28-10.5-51-21.5-69s-24.167-32.167-39.5-42.5-32.5-17.333-51.5-21-38.5-5.5-58.5-5.5c-44 0-77.667 9.5-101 28.5s-39.333 44.5-48 76.5c-2 7.333-3.5 16.666-4.5 27.999s-1.667 23.833-2 37.5l-1 41.5c-.333 14-.5 27.333-.5 40 0 32 1.333 59.667 4 83s7 43.666 13 60.999c9.333 25.333 24.833 46.166 46.5 62.499S147.667 476 183 476c8 0 19.833-1.833 35.5-5.5s29.167-11.167 40.5-22.5c0 19.333-1 37.666-3 54.999s-6.333 33.333-13 48l-51-37-34 43zm-8.001-247.996c-12.667 0-21.333-6.665-26-19.998-2.667-6.667-4.167-16.334-4.5-29.001s-.833-34.334-1.5-65.001c0-20 .167-37.833.5-53.5s1.833-27.5 4.5-35.5c3.333-14.667 12.333-22 27-22 7.333 0 13 2.167 17 6.5s6.667 9.5 8 15.5c1.333 4 2.5 15.333 3.5 34s1.5 39.667 1.5 63c0 22-.5 39.167-1.5 51.5s-2.167 22.833-3.5 31.5c-1.333 6.667-4 12.167-8 16.5s-9.667 6.5-17 6.5z"/><glyph glyph-name="ntilde" unicode="ñ" horiz-adv-x="413" d="M184 455c8.667 11.333 20.998 21.833 36.998 31.5s31.667 14.5 47 14.5c22.667 0 40.834-3.333 54.501-10s24.167-15.667 31.5-27 12.333-24.666 15-39.999 4-31.666 4-48.999v-375h-137v335c0 13.333-2.667 22.666-8 27.999s-11.666 8-18.999 8c-8 0-15-3.333-21-10s-9-16.334-9-29.001V0H42v495h137v-39zm-27.002 234c10.667 0 20.832-1.835 30.499-5.502s18.834-7.5 27.501-11.5l24.5-11.5c7.667-3.667 14.5-5.5 20.5-5.5 9.333 0 17.833 2.167 25.5 6.5s18.167 14.833 31.5 31.5l65-36c-16-37.333-32.833-63.166-50.5-77.499s-36.167-21.5-55.5-21.5c-12 0-23.167 1.833-33.5 5.5s-20 7.667-29 12l-26 12c-8.333 3.667-16.5 5.5-24.5 5.5s-16.5-2.667-25.5-8-19.833-15.666-32.5-30.999l-65 40c15.333 36 33.833 60.833 55.5 74.5s42.167 20.5 61.5 20.5z"/><glyph glyph-name="ograve" unicode="ò" horiz-adv-x="401" d="M202 503c42 0 75.168-8.332 99.501-24.999S342.667 440.667 352 416c3.333-9.333 5.833-20.666 7.5-33.999s3-27.5 4-42.5 1.667-30.5 2-46.5.5-31 .5-45v-15c0-18-.167-35.833-.5-53.5S364 144.667 362 128c-3.333-28.667-10.833-51.834-22.5-69.501s-25.334-31.334-41.001-41.001-32.667-16.167-51-19.5-36.166-5-53.499-5c-23.333 0-43.5 3-60.5 9S102 15.831 90 25.498 68.167 46.332 60.5 58.999s-13.167 25.667-16.5 39c-2 8-3.667 18-5 30s-2.333 24.667-3 38-1.167 26.833-1.5 40.5-.5 26.5-.5 38.5c0 14.667.333 30.167 1 46.5s1.667 32 3 47 3 29 5 42 4.667 23.833 8 32.5c10 26.667 27.667 48.334 53 65.001s58 25 98 25zm.001-126.999c-12.667 0-21.333-6.669-26-20.002-2.667-6.667-4.167-20.167-4.5-40.5s-.833-44.5-1.5-72.5v-15c0-17.333.167-33.666.5-48.999s1.833-27 4.5-35c3.333-14.667 12.333-22 27-22 7.333 0 13.333 2.333 18 7s7 9.667 7 15c1.333 4 2.5 16 3.5 36s1.5 41.667 1.5 65c0 22-.5 43.333-1.5 64s-2.167 35.334-3.5 44.001c-1.333 6.667-4 12.167-8 16.5s-9.667 6.5-17 6.5zm2.001 154.998l-136 175 108 54 100-186z"/><glyph glyph-name="oacute" unicode="ó" horiz-adv-x="401" d="M202 503c42 0 75.168-8.332 99.501-24.999S342.667 440.667 352 416c3.333-9.333 5.833-20.666 7.5-33.999s3-27.5 4-42.5 1.667-30.5 2-46.5.5-31 .5-45v-15c0-18-.167-35.833-.5-53.5S364 144.667 362 128c-3.333-28.667-10.833-51.834-22.5-69.501s-25.334-31.334-41.001-41.001-32.667-16.167-51-19.5-36.166-5-53.499-5c-23.333 0-43.5 3-60.5 9S102 15.831 90 25.498 68.167 46.332 60.5 58.999s-13.167 25.667-16.5 39c-2 8-3.667 18-5 30s-2.333 24.667-3 38-1.167 26.833-1.5 40.5-.5 26.5-.5 38.5c0 14.667.333 30.167 1 46.5s1.667 32 3 47 3 29 5 42 4.667 23.833 8 32.5c10 26.667 27.667 48.334 53 65.001s58 25 98 25zm.001-126.999c-12.667 0-21.333-6.669-26-20.002-2.667-6.667-4.167-20.167-4.5-40.5s-.833-44.5-1.5-72.5v-15c0-17.333.167-33.666.5-48.999s1.833-27 4.5-35c3.333-14.667 12.333-22 27-22 7.333 0 13.333 2.333 18 7s7 9.667 7 15c1.333 4 2.5 16 3.5 36s1.5 41.667 1.5 65c0 22-.5 43.333-1.5 64s-2.167 35.334-3.5 44.001c-1.333 6.667-4 12.167-8 16.5s-9.667 6.5-17 6.5zm-72.999 197.998l100 186 108-54-136-175z"/><glyph glyph-name="ocircumflex" unicode="ô" horiz-adv-x="401" d="M202 503c42 0 75.168-8.332 99.501-24.999S342.667 440.667 352 416c3.333-9.333 5.833-20.666 7.5-33.999s3-27.5 4-42.5 1.667-30.5 2-46.5.5-31 .5-45v-15c0-18-.167-35.833-.5-53.5S364 144.667 362 128c-3.333-28.667-10.833-51.834-22.5-69.501s-25.334-31.334-41.001-41.001-32.667-16.167-51-19.5-36.166-5-53.499-5c-23.333 0-43.5 3-60.5 9S102 15.831 90 25.498 68.167 46.332 60.5 58.999s-13.167 25.667-16.5 39c-2 8-3.667 18-5 30s-2.333 24.667-3 38-1.167 26.833-1.5 40.5-.5 26.5-.5 38.5c0 14.667.333 30.167 1 46.5s1.667 32 3 47 3 29 5 42 4.667 23.833 8 32.5c10 26.667 27.667 48.334 53 65.001s58 25 98 25zm.001-126.999c-12.667 0-21.333-6.669-26-20.002-2.667-6.667-4.167-20.167-4.5-40.5s-.833-44.5-1.5-72.5v-15c0-17.333.167-33.666.5-48.999s1.833-27 4.5-35c3.333-14.667 12.333-22 27-22 7.333 0 13.333 2.333 18 7s7 9.667 7 15c1.333 4 2.5 16 3.5 36s1.5 41.667 1.5 65c0 22-.5 43.333-1.5 64s-2.167 35.334-3.5 44.001c-1.333 6.667-4 12.167-8 16.5s-9.667 6.5-17 6.5zm-2.999 232.998l-119-94-52 47 134 159h79l129-158-52-48z"/><glyph glyph-name="otilde" unicode="õ" horiz-adv-x="401" d="M202 503c42 0 75.168-8.332 99.501-24.999S342.667 440.667 352 416c3.333-9.333 5.833-20.666 7.5-33.999s3-27.5 4-42.5 1.667-30.5 2-46.5.5-31 .5-45v-15c0-18-.167-35.833-.5-53.5S364 144.667 362 128c-3.333-28.667-10.833-51.834-22.5-69.501s-25.334-31.334-41.001-41.001-32.667-16.167-51-19.5-36.166-5-53.499-5c-23.333 0-43.5 3-60.5 9S102 15.831 90 25.498 68.167 46.332 60.5 58.999s-13.167 25.667-16.5 39c-2 8-3.667 18-5 30s-2.333 24.667-3 38-1.167 26.833-1.5 40.5-.5 26.5-.5 38.5c0 14.667.333 30.167 1 46.5s1.667 32 3 47 3 29 5 42 4.667 23.833 8 32.5c10 26.667 27.667 48.334 53 65.001s58 25 98 25zm.001-126.999c-12.667 0-21.333-6.669-26-20.002-2.667-6.667-4.167-20.167-4.5-40.5s-.833-44.5-1.5-72.5v-15c0-17.333.167-33.666.5-48.999s1.833-27 4.5-35c3.333-14.667 12.333-22 27-22 7.333 0 13.333 2.333 18 7s7 9.667 7 15c1.333 4 2.5 16 3.5 36s1.5 41.667 1.5 65c0 22-.5 43.333-1.5 64s-2.167 35.334-3.5 44.001c-1.333 6.667-4 12.167-8 16.5s-9.667 6.5-17 6.5zm-51.999 312.998c10.667 0 20.832-1.835 30.499-5.502s18.834-7.5 27.501-11.5l24.5-11.5c7.667-3.667 14.5-5.5 20.5-5.5 9.333 0 17.833 2.167 25.5 6.5s18.167 14.833 31.5 31.5l65-36c-16-37.333-32.833-63.166-50.5-77.499s-36.167-21.5-55.5-21.5c-12 0-23.167 1.833-33.5 5.5s-20 7.667-29 12l-26 12c-8.333 3.667-16.5 5.5-24.5 5.5s-16.5-2.667-25.5-8-19.833-15.666-32.5-30.999l-65 40c15.333 36 33.833 60.833 55.5 74.5s42.167 20.5 61.5 20.5z"/><glyph glyph-name="odieresis" unicode="ö" horiz-adv-x="401" d="M202 503c42 0 75.168-8.332 99.501-24.999S342.667 440.667 352 416c3.333-9.333 5.833-20.666 7.5-33.999s3-27.5 4-42.5 1.667-30.5 2-46.5.5-31 .5-45v-15c0-18-.167-35.833-.5-53.5S364 144.667 362 128c-3.333-28.667-10.833-51.834-22.5-69.501s-25.334-31.334-41.001-41.001-32.667-16.167-51-19.5-36.166-5-53.499-5c-23.333 0-43.5 3-60.5 9S102 15.831 90 25.498 68.167 46.332 60.5 58.999s-13.167 25.667-16.5 39c-2 8-3.667 18-5 30s-2.333 24.667-3 38-1.167 26.833-1.5 40.5-.5 26.5-.5 38.5c0 14.667.333 30.167 1 46.5s1.667 32 3 47 3 29 5 42 4.667 23.833 8 32.5c10 26.667 27.667 48.334 53 65.001s58 25 98 25zm.001-126.999c-12.667 0-21.333-6.669-26-20.002-2.667-6.667-4.167-20.167-4.5-40.5s-.833-44.5-1.5-72.5v-15c0-17.333.167-33.666.5-48.999s1.833-27 4.5-35c3.333-14.667 12.333-22 27-22 7.333 0 13.333 2.333 18 7s7 9.667 7 15c1.333 4 2.5 16 3.5 36s1.5 41.667 1.5 65c0 22-.5 43.333-1.5 64s-2.167 35.334-3.5 44.001c-1.333 6.667-4 12.167-8 16.5s-9.667 6.5-17 6.5zm26.001 170.998v130h119v-130h-119zm-174 0v130h118v-130h-118z"/><glyph glyph-name="divide" unicode="÷" horiz-adv-x="430" d="M290 464c0-20-7.167-37.5-21.5-52.5S236.667 389 216 389s-38.167 7.5-52.5 22.5S142 444 142 464c0 20.667 7.167 38.334 21.5 53.001s31.833 22 52.5 22 38.167-7.333 52.5-22S290 484.667 290 464zm0-343c0-20.667-7.167-38.5-21.5-53.5S236.667 45 216 45s-38.167 7.5-52.5 22.5S142 100.333 142 121c0 20 7.167 37.5 21.5 52.5S195.333 196 216 196s38.167-7.5 52.5-22.5S290 141 290 121zm118 223V237H19v107h389z"/><glyph glyph-name="oslash" unicode="ø" horiz-adv-x="401" d="M202 503c16 0 30.501-1.332 43.501-3.999s25.167-6.334 36.5-11.001l29 64 27-14-29-65c10.667-7.333 19.5-15.833 26.5-25.5s12.5-20.167 16.5-31.5c3.333-9.333 5.833-20.666 7.5-33.999s3-27.5 4-42.5 1.667-30.5 2-46.5.5-31 .5-45v-15c0-18-.167-35.833-.5-53.5s-1.5-34.834-3.5-51.501c-3.333-28.667-10.833-51.834-22.5-69.501S314.167 27.165 298.5 17.498s-32.667-16.167-51-19.5-36.166-5-53.499-5c-18.667 0-35.334 1.833-50.001 5.5s-27.667 8.834-39 15.501l-20-45-26 14 22 50c-9.333 9.333-17 19.5-23 30.5s-10.667 22.5-14 34.5c-2 8-3.667 18-5 30s-2.333 24.667-3 38-1.167 26.833-1.5 40.5-.5 26.5-.5 38.5c0 14.667.333 30.167 1 46.5s1.667 32 3 47 3 29 5 42 4.667 23.833 8 32.5c10 26.667 27.667 48.334 53 65.001s58 25 98 25zm30.001-257.999l.001 27c0 8.667-.333 17-1 25l-60-134c1.333-8.667 2.666-15 3.999-19 3.333-14.667 12.333-22 27-22 7.333 0 13.333 2.333 18 7s7 9.667 7 15c1.333 4 2.5 16 3.5 36s1.5 41.667 1.5 65zm-29.999 131c-12.667 0-21.332-6.667-25.999-20-2.667-6.667-4.167-20.167-4.5-40.5s-.833-44.5-1.5-72.5v-9l55 125c-4.667 11.333-12.334 17-23.001 17z"/><glyph glyph-name="ugrave" unicode="ù" horiz-adv-x="413" d="M232 40c-4-5.333-9.333-10.833-16-16.5s-13.834-10.667-21.501-15-15.667-7.833-24-10.5-16.5-4-24.5-4c-22.667 0-40.667 3.333-54 10S68.333 19.667 61 31 48.834 55.666 46.501 70.999s-3.5 31.666-3.5 48.999v375h137v-335c0-13.333 2.667-22.666 8-27.999s11.666-8 18.999-8c8 0 15 3.333 21 10s9 16.334 9 29.001v332h137V0H237v39zm-19 491L77 706l108 54 100-186z"/><glyph glyph-name="uacute" unicode="ú" horiz-adv-x="413" d="M232 40c-4-5.333-9.333-10.833-16-16.5s-13.834-10.667-21.501-15-15.667-7.833-24-10.5-16.5-4-24.5-4c-22.667 0-40.667 3.333-54 10S68.333 19.667 61 31 48.834 55.666 46.501 70.999s-3.5 31.666-3.5 48.999v375h137v-335c0-13.333 2.667-22.666 8-27.999s11.666-8 18.999-8c8 0 15 3.333 21 10s9 16.334 9 29.001v332h137V0H237v39zm-69 534l100 186 108-54-136-175z"/><glyph glyph-name="ucircumflex" unicode="û" horiz-adv-x="413" d="M232 40c-4-5.333-9.333-10.833-16-16.5s-13.834-10.667-21.501-15-15.667-7.833-24-10.5-16.5-4-24.5-4c-22.667 0-40.667 3.333-54 10S68.333 19.667 61 31 48.834 55.666 46.501 70.999s-3.5 31.666-3.5 48.999v375h137v-335c0-13.333 2.667-22.666 8-27.999s11.666-8 18.999-8c8 0 15 3.333 21 10s9 16.334 9 29.001v332h137V0H237v39zm-25 569L88 515l-52 47 134 159h79l129-158-52-48z"/><glyph glyph-name="udieresis" unicode="ü" horiz-adv-x="413" d="M232 40c-4-5.333-9.333-10.833-16-16.5s-13.834-10.667-21.501-15-15.667-7.833-24-10.5-16.5-4-24.5-4c-22.667 0-40.667 3.333-54 10S68.333 19.667 61 31 48.834 55.666 46.501 70.999s-3.5 31.666-3.5 48.999v375h137v-335c0-13.333 2.667-22.666 8-27.999s11.666-8 18.999-8c8 0 15 3.333 21 10s9 16.334 9 29.001v332h137V0H237v39zm2 507v130h119V547H234zm-174 0v130h118V547H60z"/><glyph glyph-name="yacute" unicode="ý" horiz-adv-x="382" d="M188 199l17.001 116 31 179h140l-143-564c-10-39.333-27-69.5-51-90.5s-56.667-31.5-98-31.5h-46v121h25c10.667 0 21.167 3.667 31.5 11S112.667-37.667 118-15l6 26L3 494h146l20-178 14-117h5zm-53.999 375l100 186 108-54-136-175z"/><glyph glyph-name="thorn" unicode="þ" horiz-adv-x="401" d="M201 123c7.333 0 12.996 2.165 16.996 6.498s6.667 9.833 8 16.5c1.333 8.667 2.333 23.334 3 44.001s1 42 1 64c0 23.333-.333 43.666-1 61s-1.667 28-3 32c0 5.332-2.333 10.332-7 15s-10.667 7-18 7c-14.667 0-23.667-7.334-27-22-1.333-5.334-2.166-15.667-2.499-31s-.5-31.666-.5-48.999v-11c.667-28 .834-52.167.501-72.5s.834-33.833 3.501-40.5c4.667-13.333 13.334-20 26.001-20zM250.996-8.002c-8.667 0-20.33 1.831-34.997 5.498s-27.667 11.167-39 22.5h-5v-210h-137v885h134v-236l4-2c4 8.667 9.333 16 16 22s13.667 10.5 21 13.5 14.666 5.167 21.999 6.5 14 2 20 2c35.333 0 62.666-10 81.999-30s31-54.667 35-104c1.333-9.333 2.166-25.333 2.499-48s.5-46.667.5-72c0-14-.333-29-1-45s-1.5-31.5-2.5-46.5-2.167-28.833-3.5-41.5-3-23-5-31c-2-9.333-5-19.166-9-29.499s-10-20.166-18-29.499-18.5-17-31.5-23-29.833-9-50.5-9z"/><glyph glyph-name="ydieresis" unicode="ÿ" horiz-adv-x="382" d="M188 199l17.001 116 31 179h140l-143-564c-10-39.333-27-69.5-51-90.5s-56.667-31.5-98-31.5h-46v121h25c10.667 0 21.167 3.667 31.5 11S112.667-37.667 118-15l6 26L3 494h146l20-178 14-117h5zm25.001 348v130h119V547h-119zm-174 0v130h118V547h-118z"/><glyph glyph-name="Amacron" unicode="Ā" horiz-adv-x="449" d="M276 136H174L153 0H9l132 696h166L440 0H297zm-69 239l-14-111h63l-13 111-15 141h-6zM98 745v110h252V745H98z"/><glyph glyph-name="amacron" unicode="ā" horiz-adv-x="408" d="M231 35c-7.333-12-18.83-21.835-34.497-29.502s-30.5-11.5-44.5-11.5c-24 0-44 3.833-60 11.5s-28.833 18.334-38.5 32.001-16.334 30-20.001 49-5.5 39.833-5.5 62.5c0 20 3 39.167 9 57.5s15.333 34.5 28 48.5 29.167 25.167 49.5 33.5 44.5 12.5 72.5 12.5h49v42c0 20.667-11.667 31-35 31-6.667 0-13.834-2.5-21.501-7.5s-13.167-16.167-16.5-33.5l-121 39C52 412.666 71.168 444.333 99.5 467S165 501 211 501c55.333 0 96.166-12.333 122.499-37S373 399 373 343V0H236v34zm5.003 172.998h-28.001c-11.333 0-21.666-3.667-30.999-11s-14-20.666-14-39.999c0-12.667 3.833-21.834 11.5-27.501s16.5-8.5 26.5-8.5 18.333 4 25 12 10 18.333 10 31v44zm-152.001 358v110h252v-110h-252z"/><glyph glyph-name="Abreve" unicode="Ă" horiz-adv-x="449" d="M276 136H174L153 0H9l132 696h166L440 0H297zm-69 239l-14-111h63l-13 111-15 141h-6zm-38 518c.667-7.333 2.665-15.166 5.998-23.499s7.833-16 13.5-23 12.167-12.833 19.5-17.5 15-7 23-7c9.333 0 17.5 2.333 24.5 7s13 10.5 18 17.5 8.667 14.667 11 23 3.833 16.166 4.5 23.499h95c-1.333-16-5.166-33-11.499-51s-15.666-34.667-27.999-50-27.833-28-46.5-38-41-15-67-15c-28 0-51.5 5-70.5 15s-34.667 22.667-47 38S92 824 86 842s-9.333 35-10 51h93z"/><glyph glyph-name="abreve" unicode="ă" horiz-adv-x="408" d="M231 35c-7.333-12-18.83-21.835-34.497-29.502s-30.5-11.5-44.5-11.5c-24 0-44 3.833-60 11.5s-28.833 18.334-38.5 32.001-16.334 30-20.001 49-5.5 39.833-5.5 62.5c0 20 3 39.167 9 57.5s15.333 34.5 28 48.5 29.167 25.167 49.5 33.5 44.5 12.5 72.5 12.5h49v42c0 20.667-11.667 31-35 31-6.667 0-13.834-2.5-21.501-7.5s-13.167-16.167-16.5-33.5l-121 39C52 412.666 71.168 444.333 99.5 467S165 501 211 501c55.333 0 96.166-12.333 122.499-37S373 399 373 343V0H236v34zm5.003 172.998h-28.001c-11.333 0-21.666-3.667-30.999-11s-14-20.666-14-39.999c0-12.667 3.833-21.834 11.5-27.501s16.5-8.5 26.5-8.5 18.333 4 25 12 10 18.333 10 31v44zm-86.001 477c.667-7.333 2.665-15.166 5.998-23.499s7.833-16 13.5-23 12.167-12.833 19.5-17.5 15-7 23-7c9.333 0 17.5 2.333 24.5 7s13 10.5 18 17.5 8.667 14.667 11 23 3.833 16.166 4.5 23.499h95c-1.333-16-5.166-33-11.499-51s-15.666-34.667-27.999-50-27.833-28-46.5-38-41-15-67-15c-28 0-51.5 5-70.5 15s-34.667 22.667-47 38-21.5 32-27.5 50-9.333 35-10 51h93z"/><glyph glyph-name="Aogonek" unicode="Ą" horiz-adv-x="449" d="M255-114c0 14.667 3.666 32.166 10.999 52.499S283.665-20.335 296.998.998l-21 135h-102l-21-136h-144l132 696h166l133-696h-73c-14-23.333-22.667-44.166-26-62.499s-5-31.5-5-39.5c0-13.333 4.333-23.666 13-30.999s19-11 31-11c6.667 0 14.334 1 23.001 3s18.667 6 30 12l22-58c-15.333-10-31.666-17-48.999-21s-33.666-6-48.999-6c-28.667 0-52.834 8.667-72.501 26S255-146 255-114zm-48.001 488.999l-14-111h63l-13 111-15 141h-6z"/><glyph glyph-name="aogonek" unicode="ą" horiz-adv-x="408" d="M194-114c0 14.667 3.669 32.164 11.002 52.497s17.666 41.166 30.999 62.5v33l-5 1c-7.333-12-18.833-21.834-34.5-29.5s-30.5-11.5-44.5-11.5c-24 0-44 3.832-60 11.5s-28.833 18.333-38.5 32-16.334 30-20.001 49-5.5 39.833-5.5 62.5c0 20 3 39.167 9 57.5s15.333 34.5 28 48.5 29.167 25.167 49.5 33.5 44.5 12.5 72.5 12.5h49v42c0 20.667-11.667 31-35 31-6.667 0-13.834-2.5-21.501-7.5s-13.167-16.167-16.5-33.5l-121 39c10 40.667 29.167 72.334 57.5 95.001s65.5 34 111.5 34c55.333 0 96.166-12.333 122.499-37s39.5-65 39.5-121v-343h-67c-14-23.333-22.667-44.166-26-62.499s-5-31.5-5-39.5c0-13.333 4.333-23.666 13-30.999s19-11 31-11c6.667 0 14.334 1 23.001 3s18.667 6 30 12l22-58c-15.333-10-31.666-17-48.999-21s-33.666-6-48.999-6c-28.667 0-52.834 8.667-72.501 26S194-146 194-114zm42.002 321.997h-28.001c-11.333 0-21.666-3.667-30.999-11s-14-20.666-14-39.999c0-12.667 3.833-21.834 11.5-27.501s16.5-8.5 26.5-8.5 18.333 4 25 12 10 18.333 10 31v44z"/><glyph glyph-name="Cacute" unicode="Ć" horiz-adv-x="427" d="M226 702c60.667 0 105.501-14.834 134.501-44.501s43.5-68.167 43.5-115.5v-9.5c0-3-.333-6.167-1-9.5l-131-23c-.667 20.667-5.167 37.834-13.5 51.501s-19.5 20.5-33.5 20.5c-9.333 0-16.833-1.833-22.5-5.5s-10.167-8.167-13.5-13.5-5.666-11.166-6.999-17.499-2-11.833-2-16.5v-355c0-9.333 2.333-18.333 7-27s15.667-13 33-13c13.333 0 24.166 6 32.499 18s12.833 30 13.5 54l135-18c-.667-55.333-16-99.833-46-133.5s-73.333-50.5-130-50.5c-62.667 0-108.334 14.667-137.001 44s-43 73.333-43 132v349C45 574.334 59.833 618.667 89.5 652s75.167 50 136.5 50zm-105.999 83.999l167 130 77-93-195-105z"/><glyph glyph-name="cacute" unicode="ć" horiz-adv-x="381" d="M201-6c-25.333 0-46.999 2.83-64.999 8.496s-33.333 13.334-46 23.001-22.667 20.834-30 33.501-12.666 25.667-15.999 39c-2 8-3.667 18-5 30s-2.333 24.667-3 38-1.167 26.833-1.5 40.5-.5 26.5-.5 38.5c0 14.667.333 30.167 1 46.5s1.667 32 3 47 3.166 29 5.499 42 5.166 23.833 8.499 32.5c10 26.667 27.5 48.334 52.5 65.001s57.5 25 97.5 25c50 0 88.5-13.833 115.5-41.5S358 394 358 342l-133-15c0 17.333-2.5 29.833-7.5 37.5S206.333 376 199 376c-6.667 0-11.667-1.833-15-5.5s-6-8.5-8-14.5c-2-5.333-3.333-18.5-4-39.5s-1.334-45.5-2-73.5v-15c0-17.333.332-33.666 1-48.999s2-27 4-35c3.332-14.667 11.332-22 24-22 7.332 0 13.5 3.333 18.5 10s7.5 18.334 7.5 35.001l135-17c0-48.667-14.168-86.834-42.5-114.5S250.332-6 201-6zm-71.999 579.996l100 186 108-54-136-175z"/><glyph glyph-name="Ccircumflex" unicode="Ĉ" horiz-adv-x="427" d="M226 702c60.667 0 105.501-14.834 134.501-44.501s43.5-68.167 43.5-115.5v-9.5c0-3-.333-6.167-1-9.5l-131-23c-.667 20.667-5.167 37.834-13.5 51.501s-19.5 20.5-33.5 20.5c-9.333 0-16.833-1.833-22.5-5.5s-10.167-8.167-13.5-13.5-5.666-11.166-6.999-17.499-2-11.833-2-16.5v-355c0-9.333 2.333-18.333 7-27s15.667-13 33-13c13.333 0 24.166 6 32.499 18s12.833 30 13.5 54l135-18c-.667-55.333-16-99.833-46-133.5s-73.333-50.5-130-50.5c-62.667 0-108.334 14.667-137.001 44s-43 73.333-43 132v349C45 574.334 59.833 618.667 89.5 652s75.167 50 136.5 50zm-3.999 98.999l-119-80-52 47 134 145h79l129-144-52-48z"/><glyph glyph-name="ccircumflex" unicode="ĉ" horiz-adv-x="381" d="M201-6c-25.333 0-46.999 2.83-64.999 8.496s-33.333 13.334-46 23.001-22.667 20.834-30 33.501-12.666 25.667-15.999 39c-2 8-3.667 18-5 30s-2.333 24.667-3 38-1.167 26.833-1.5 40.5-.5 26.5-.5 38.5c0 14.667.333 30.167 1 46.5s1.667 32 3 47 3.166 29 5.499 42 5.166 23.833 8.499 32.5c10 26.667 27.5 48.334 52.5 65.001s57.5 25 97.5 25c50 0 88.5-13.833 115.5-41.5S358 394 358 342l-133-15c0 17.333-2.5 29.833-7.5 37.5S206.333 376 199 376c-6.667 0-11.667-1.833-15-5.5s-6-8.5-8-14.5c-2-5.333-3.333-18.5-4-39.5s-1.334-45.5-2-73.5v-15c0-17.333.332-33.666 1-48.999s2-27 4-35c3.332-14.667 11.332-22 24-22 7.332 0 13.5 3.333 18.5 10s7.5 18.334 7.5 35.001l135-17c0-48.667-14.168-86.834-42.5-114.5S250.332-6 201-6zm-.999 614.996l-119-94-52 47 134 159h79l129-158-52-48z"/><glyph glyph-name="Cdotaccent" unicode="Ċ" horiz-adv-x="427" d="M226 702c60.667 0 105.501-14.834 134.501-44.501s43.5-68.167 43.5-115.5v-9.5c0-3-.333-6.167-1-9.5l-131-23c-.667 20.667-5.167 37.834-13.5 51.501s-19.5 20.5-33.5 20.5c-9.333 0-16.833-1.833-22.5-5.5s-10.167-8.167-13.5-13.5-5.666-11.166-6.999-17.499-2-11.833-2-16.5v-355c0-9.333 2.333-18.333 7-27s15.667-13 33-13c13.333 0 24.166 6 32.499 18s12.833 30 13.5 54l135-18c-.667-55.333-16-99.833-46-133.5s-73.333-50.5-130-50.5c-62.667 0-108.334 14.667-137.001 44s-43 73.333-43 132v349C45 574.334 59.833 618.667 89.5 652s75.167 50 136.5 50zm-64.999 32.999v130h118v-130h-118z"/><glyph glyph-name="cdotaccent" unicode="ċ" horiz-adv-x="381" d="M201-6c-25.333 0-46.999 2.83-64.999 8.496s-33.333 13.334-46 23.001-22.667 20.834-30 33.501-12.666 25.667-15.999 39c-2 8-3.667 18-5 30s-2.333 24.667-3 38-1.167 26.833-1.5 40.5-.5 26.5-.5 38.5c0 14.667.333 30.167 1 46.5s1.667 32 3 47 3.166 29 5.499 42 5.166 23.833 8.499 32.5c10 26.667 27.5 48.334 52.5 65.001s57.5 25 97.5 25c50 0 88.5-13.833 115.5-41.5S358 394 358 342l-133-15c0 17.333-2.5 29.833-7.5 37.5S206.333 376 199 376c-6.667 0-11.667-1.833-15-5.5s-6-8.5-8-14.5c-2-5.333-3.333-18.5-4-39.5s-1.334-45.5-2-73.5v-15c0-17.333.332-33.666 1-48.999s2-27 4-35c3.332-14.667 11.332-22 24-22 7.332 0 13.5 3.333 18.5 10s7.5 18.334 7.5 35.001l135-17c0-48.667-14.168-86.834-42.5-114.5S250.332-6 201-6zm-57.999 552.996v130h118v-130h-118z"/><glyph glyph-name="Ccaron" unicode="Č" horiz-adv-x="427" d="M226 702c60.667 0 105.501-14.834 134.501-44.501s43.5-68.167 43.5-115.5v-9.5c0-3-.333-6.167-1-9.5l-131-23c-.667 20.667-5.167 37.834-13.5 51.501s-19.5 20.5-33.5 20.5c-9.333 0-16.833-1.833-22.5-5.5s-10.167-8.167-13.5-13.5-5.666-11.166-6.999-17.499-2-11.833-2-16.5v-355c0-9.333 2.333-18.333 7-27s15.667-13 33-13c13.333 0 24.166 6 32.499 18s12.833 30 13.5 54l135-18c-.667-55.333-16-99.833-46-133.5s-73.333-50.5-130-50.5c-62.667 0-108.334 14.667-137.001 44s-43 73.333-43 132v349C45 574.334 59.833 618.667 89.5 652s75.167 50 136.5 50zm115.001 210.999l52-48-129-140h-79l-134 141 52 47 119-80z"/><glyph glyph-name="ccaron" unicode="č" horiz-adv-x="381" d="M201-6c-25.333 0-46.999 2.83-64.999 8.496s-33.333 13.334-46 23.001-22.667 20.834-30 33.501-12.666 25.667-15.999 39c-2 8-3.667 18-5 30s-2.333 24.667-3 38-1.167 26.833-1.5 40.5-.5 26.5-.5 38.5c0 14.667.333 30.167 1 46.5s1.667 32 3 47 3.166 29 5.499 42 5.166 23.833 8.499 32.5c10 26.667 27.5 48.334 52.5 65.001s57.5 25 97.5 25c50 0 88.5-13.833 115.5-41.5S358 394 358 342l-133-15c0 17.333-2.5 29.833-7.5 37.5S206.333 376 199 376c-6.667 0-11.667-1.833-15-5.5s-6-8.5-8-14.5c-2-5.333-3.333-18.5-4-39.5s-1.334-45.5-2-73.5v-15c0-17.333.332-33.666 1-48.999s2-27 4-35c3.332-14.667 11.332-22 24-22 7.332 0 13.5 3.333 18.5 10s7.5 18.334 7.5 35.001l135-17c0-48.667-14.168-86.834-42.5-114.5S250.332-6 201-6zm118.001 726.996l52-48-129-158h-79l-134 159 52 47 119-94z"/><glyph glyph-name="Dcaron" unicode="Ď" horiz-adv-x="446" d="M259 505c0 19.333-3.167 34.167-9.5 44.5S229.334 565 208.001 565h-21V131h21c21.333 0 35.166 5 41.499 15s9.5 25 9.5 45v314zm-24 191.001c41.333 0 74.001-7.167 98.001-21.5s40.667-38.5 50-72.5c6-21.333 9.5-54.5 10.5-99.5s1.5-96.167 1.5-153.5-.5-107.333-1.5-150-5.167-74.667-12.5-96c-12.667-39.333-32.834-66.333-60.501-81s-59.167-22-94.5-22H52v696h183zm92.001 217l52-48-129-140h-79l-134 141 52 47 119-80z"/><glyph glyph-name="dcaron" unicode="ď" horiz-adv-x="523" d="M471 508h-66l28 107h-24v111h117V617zM197 372c-7.333 0-12.996-2.165-16.996-6.498s-6.667-9.833-8-16.5c-1.333-8.667-2.333-23.334-3-44.001s-1-42-1-64c0-23.333.333-43.666 1-60.999s1.667-28 3-32c0-5.333 2.333-10.333 7-15s10.667-7 18-7c14.667 0 23.667 7.333 27 22 1.333 5.333 2.166 15.666 2.499 30.999s.5 31.666.5 48.999v11c-.667 28-.834 52.167-.501 72.5s-.834 33.833-3.501 40.5c-4.667 13.333-13.334 20-26.001 20zm-48.996 131.002c8.667 0 20.165-2.169 34.498-6.502s27.166-12.166 38.499-23.499h5v253h137v-726h-134v36l-4 2c-4-9.333-9.333-16.833-16-22.5s-13.667-10-21-13-14.666-5.167-21.999-6.5-14-2-20-2c-35.333 0-62.666 10-81.999 30s-31 54.667-35 104c-1.333 9.333-2.166 25.333-2.499 48s-.5 46.667-.5 72c0 14 .333 28.833 1 44.5s1.667 31 3 46 2.833 29 4.5 42 3.5 23.5 5.5 31.5c2 8.667 4.833 18.334 8.5 29.001s9.5 20.667 17.5 30 18.5 17 31.5 23 29.833 9 50.5 9z"/><glyph glyph-name="Dcroat" unicode="Đ" horiz-adv-x="446" d="M235 696c41.333 0 74.001-7.167 98.001-21.5s40.667-38.5 50-72.5c6-21.333 9.5-54.5 10.5-99.5s1.5-96.167 1.5-153.5-.5-107.333-1.5-150-5.167-74.667-12.5-96c-12.667-39.333-32.834-66.333-60.501-81S261.333 0 226 0H52v300H4v90h48v306h183zm24.001-191c0 19.333-3.167 34.167-9.5 44.5S229.335 565 208.002 565h-21V390h40v-90h-40V131h21c21.333 0 35.166 5 41.499 15s9.5 25 9.5 45v314z"/><glyph glyph-name="dcroat" unicode="đ" horiz-adv-x="401" d="M148 503c8.667 0 20.165-2.169 34.498-6.502s27.166-12.166 38.499-23.499h5v88h-54v86h54v79h137v-79h39v-86h-39v-561h-134v36l-4 2c-4-9.333-9.333-16.833-16-22.5s-13.667-10-21-13-14.666-5.167-21.999-6.5-14-2-20-2c-35.333 0-62.666 10-81.999 30s-31 54.667-35 104c-1.333 9.333-2.166 25.333-2.499 48s-.5 46.667-.5 72c0 14 .333 28.833 1 44.5s1.667 31 3 46 2.833 29 4.5 42 3.5 23.5 5.5 31.5c2 8.667 4.833 18.334 8.5 29.001S58 461.667 66 471s18.5 17 31.5 23 29.833 9 50.5 9zm48.998-131.002c-7.333 0-12.996-2.165-16.996-6.498s-6.667-9.833-8-16.5c-1.333-8.667-2.333-23.334-3-44.001s-1-42-1-64c0-23.333.333-43.666 1-60.999s1.667-28 3-32c0-5.333 2.333-10.333 7-15s10.667-7 18-7c14.667 0 23.667 7.333 27 22 1.333 5.333 2.166 15.666 2.499 30.999s.5 31.666.5 48.999v11c-.667 28-.834 52.167-.501 72.5s-.834 33.833-3.501 40.5c-4.667 13.333-13.334 20-26.001 20z"/><glyph glyph-name="Emacron" unicode="Ē" horiz-adv-x="394" d="M51 0v696h319V566H187V419h160V288H187V131h183V0H51zm33 745v110h252V745H84z"/><glyph glyph-name="emacron" unicode="ē" horiz-adv-x="394" d="M170 220c0-16-.165-30.836-.498-44.503s.5-24.167 2.5-31.5c3.333-14.667 11.666-22 24.999-22 7.333 0 14 3 20 9s9.667 16.333 11 31l135-20c-2.667-45.333-18-81.333-46-108s-66.667-40-116-40c-25.333 0-47 2.833-65 8.5s-33.333 13.334-46 23.001-22.667 20.834-30 33.501-12.666 25.667-15.999 39c-2 8-3.667 18-5 30s-2.333 24.667-3 38-1.167 26.833-1.5 40.5-.5 26.5-.5 38.5c0 14.667.333 30.167 1 46.5s1.667 32 3 47 3.166 29 5.499 42S48.667 404.332 52 413c10 26.667 27.333 48.334 52 65.001s57 25 97 25c50 0 89.333-13.5 118-40.5S362 396 362 344V220H170zm6.002 135.997c-1.333-3.333-2.332-9.669-2.999-19.002s-1.334-20.666-2.001-33.999h54v42c0 6.667-1.833 13.334-5.5 20.001s-10.167 10-19.5 10c-12 0-20-6.333-24-19zm-100 209.997v110h252v-110h-252z"/><glyph glyph-name="Ebreve" unicode="Ĕ" horiz-adv-x="394" d="M51 0v696h319V566H187V419h160V288H187V131h183V0H51zm102 888c.667-7.333 2.665-15.166 5.998-23.499s7.833-16 13.5-23 12.167-12.833 19.5-17.5 15-7 23-7c9.333 0 17.5 2.333 24.5 7s13 10.5 18 17.5 8.667 14.667 11 23 3.833 16.166 4.5 23.499h95c-1.333-16-5.166-33-11.499-51s-15.666-34.667-27.999-50-27.833-28-46.5-38-41-15-67-15c-28 0-51.5 5-70.5 15s-34.667 22.667-47 38S76 819 70 837s-9.333 35-10 51h93z"/><glyph glyph-name="ebreve" unicode="ĕ" horiz-adv-x="394" d="M170 220c0-16-.165-30.836-.498-44.503s.5-24.167 2.5-31.5c3.333-14.667 11.666-22 24.999-22 7.333 0 14 3 20 9s9.667 16.333 11 31l135-20c-2.667-45.333-18-81.333-46-108s-66.667-40-116-40c-25.333 0-47 2.833-65 8.5s-33.333 13.334-46 23.001-22.667 20.834-30 33.501-12.666 25.667-15.999 39c-2 8-3.667 18-5 30s-2.333 24.667-3 38-1.167 26.833-1.5 40.5-.5 26.5-.5 38.5c0 14.667.333 30.167 1 46.5s1.667 32 3 47 3.166 29 5.499 42S48.667 404.332 52 413c10 26.667 27.333 48.334 52 65.001s57 25 97 25c50 0 89.333-13.5 118-40.5S362 396 362 344V220H170zm6.002 135.997c-1.333-3.333-2.332-9.669-2.999-19.002s-1.334-20.666-2.001-33.999h54v42c0 6.667-1.833 13.334-5.5 20.001s-10.167 10-19.5 10c-12 0-20-6.333-24-19zm-32.999 328.997c.667-7.333 2.665-15.166 5.998-23.499s7.833-16 13.5-23 12.167-12.833 19.5-17.5 15-7 23-7c9.333 0 17.5 2.333 24.5 7s13 10.5 18 17.5 8.667 14.667 11 23 3.833 16.166 4.5 23.499h95c-1.333-16-5.166-33-11.499-51s-15.666-34.667-27.999-50-27.833-28-46.5-38-41-15-67-15c-28 0-51.5 5-70.5 15s-34.667 22.667-47 38-21.5 32-27.5 50-9.333 35-10 51h93z"/><glyph glyph-name="Edotaccent" unicode="Ė" horiz-adv-x="394" d="M51 0v696h319V566H187V419h160V288H187V131h183V0H51zm103 727v130h118V727H154z"/><glyph glyph-name="edotaccent" unicode="ė" horiz-adv-x="394" d="M170 220c0-16-.165-30.836-.498-44.503s.5-24.167 2.5-31.5c3.333-14.667 11.666-22 24.999-22 7.333 0 14 3 20 9s9.667 16.333 11 31l135-20c-2.667-45.333-18-81.333-46-108s-66.667-40-116-40c-25.333 0-47 2.833-65 8.5s-33.333 13.334-46 23.001-22.667 20.834-30 33.501-12.666 25.667-15.999 39c-2 8-3.667 18-5 30s-2.333 24.667-3 38-1.167 26.833-1.5 40.5-.5 26.5-.5 38.5c0 14.667.333 30.167 1 46.5s1.667 32 3 47 3.166 29 5.499 42S48.667 404.332 52 413c10 26.667 27.333 48.334 52 65.001s57 25 97 25c50 0 89.333-13.5 118-40.5S362 396 362 344V220H170zm6.002 135.997c-1.333-3.333-2.332-9.669-2.999-19.002s-1.334-20.666-2.001-33.999h54v42c0 6.667-1.833 13.334-5.5 20.001s-10.167 10-19.5 10c-12 0-20-6.333-24-19zm-31.999 190.997v130h118v-130h-118z"/><glyph glyph-name="Eogonek" unicode="Ę" horiz-adv-x="394" d="M370 0c-15.333-24.667-25.002-46.668-29.002-66.001s-6-33-6-41c0-13.333 4.333-23.666 13-30.999s19-11 31-11c6.667 0 14.334 1 23.001 3s18.667 6 30 12l22-58c-15.333-10-31.666-17-48.999-21s-33.666-6-48.999-6c-28.667 0-52.834 8.667-72.501 26S254-151 254-119c0 15.333 3.833 33.5 11.5 54.5S284-22 298 0H51v696h319V566H187V419h160V288H187V131h183V0z"/><glyph glyph-name="eogonek" unicode="ę" horiz-adv-x="394" d="M200-87c0 22.667 7.667 49.996 23 81.996-3.333 0-7-.167-11-.5s-7.667-.5-11-.5c-25.333 0-47 2.833-65 8.5S102.667 15.83 90 25.497 67.333 46.331 60 58.998s-12.666 25.667-15.999 39c-2 8-3.667 18-5 30s-2.333 24.667-3 38-1.167 26.833-1.5 40.5-.5 26.5-.5 38.5c0 14.667.333 30.167 1 46.5s1.667 32 3 47 3.166 29 5.499 42 5.166 23.833 8.499 32.5c10 26.667 27.333 48.334 52 65.001s57 25 97 25c50 0 89.333-13.5 118-40.5s43-66.5 43-118.5V220h-192c0-16-.167-30.833-.5-44.5s.5-24.167 2.5-31.5c3.333-14.667 11.666-22 24.999-22 7.333 0 14 3 20 9s9.667 16.333 11 31l135-20c-3.333-46.667-19.333-83-48-109l1-1c-15.333-24.667-25-46.667-29-66s-6-33-6-41c0-13.333 4.333-23.666 13-30.999s19-11 31-11c6.667 0 14.334 1 23.001 3s18.667 6 30 12l22-58c-15.333-10-31.666-17-48.999-21s-33.666-6-48.999-6c-28.667 0-52.834 8.667-72.501 26S200-119 200-87zm-24 442.996c-1.333-3.333-2.332-9.669-2.999-19.002s-1.334-20.666-2.001-33.999h54v42c0 6.667-1.833 13.334-5.5 20.001s-10.167 10-19.5 10c-12 0-20-6.333-24-19z"/><glyph glyph-name="Ecaron" unicode="Ě" horiz-adv-x="394" d="M51 0v696h319V566H187V419h160V288H187V131h183V0H51zm283 913l52-48-129-140h-79L44 866l52 47 119-80z"/><glyph glyph-name="ecaron" unicode="ě" horiz-adv-x="394" d="M170 220c0-16-.165-30.836-.498-44.503s.5-24.167 2.5-31.5c3.333-14.667 11.666-22 24.999-22 7.333 0 14 3 20 9s9.667 16.333 11 31l135-20c-2.667-45.333-18-81.333-46-108s-66.667-40-116-40c-25.333 0-47 2.833-65 8.5s-33.333 13.334-46 23.001-22.667 20.834-30 33.501-12.666 25.667-15.999 39c-2 8-3.667 18-5 30s-2.333 24.667-3 38-1.167 26.833-1.5 40.5-.5 26.5-.5 38.5c0 14.667.333 30.167 1 46.5s1.667 32 3 47 3.166 29 5.499 42S48.667 404.332 52 413c10 26.667 27.333 48.334 52 65.001s57 25 97 25c50 0 89.333-13.5 118-40.5S362 396 362 344V220H170zm6.002 135.997c-1.333-3.333-2.332-9.669-2.999-19.002s-1.334-20.666-2.001-33.999h54v42c0 6.667-1.833 13.334-5.5 20.001s-10.167 10-19.5 10c-12 0-20-6.333-24-19zm144.001 364.997l52-48-129-158h-79l-134 159 52 47 119-94z"/><glyph glyph-name="Gcircumflex" unicode="Ĝ" horiz-adv-x="440" d="M233 702c31.333 0 58.5-4.501 81.5-13.501s42-21.5 57-37.5 25.667-35 32-57 8.5-45.667 6.5-71l-131-23c-.667 20.667-5.167 37.834-13.5 51.501S246 572 232 572c-9.333 0-16.833-1.833-22.5-5.5s-10.167-8.167-13.5-13.5-5.666-11.166-6.999-17.499-2-11.833-2-16.5v-355c0-9.333 2.333-18.333 7-27s15.667-13 33-13c13.333 0 24.333 3.5 33 10.5s13 16.167 13 27.5v107h-47v119h182v-219c0-57.333-15.333-100.833-46-130.5s-74-44.5-130-44.5c-62.667 0-108.334 14.667-137.001 44s-43 73.333-43 132v349C52 574.334 67.5 618.667 98.5 652s75.833 50 134.5 50zm-6 98.999l-119-80-52 47 134 145h79l129-144-52-48z"/><glyph glyph-name="gcircumflex" unicode="ĝ" horiz-adv-x="401" d="M144 0c-20.667 0-37.331 2.334-49.998 7.001s-22.834 11-30.501 19-13.5 17.333-17.5 28-7.667 21.667-11 33c-2 8-3.667 18.167-5 30.5s-2.333 25.833-3 40.5-1.167 29.667-1.5 45-.5 30-.5 44c0 25.333.5 48.833 1.5 70.5s2.167 38.167 3.5 49.5c5.333 48.667 17.5 83.167 36.5 103.5s46.167 30.5 81.5 30.5c6 0 12.5-.667 19.5-2s14-3.5 21-6.5 13.833-7.5 20.5-13.5 12-13.333 16-22l4 2v36h135v-515c0-62-14.5-107-43.5-135s-69.833-42-122.5-42c-50 0-89 12.167-117 36.5S37.668-99.333 35.001-50l132 19c1.333-14 5.166-24 11.499-30s13.166-9 20.499-9c9.333 0 16.333 3 21 9s7 14 7 24v75h-5c-4-6-9.5-11.333-16.5-16s-14.167-8.667-21.5-12S169.333 4.167 162 2.5 148.667 0 144 0zm53.003 131.001c12.667 0 21.333 6.668 26 20.001 2.667 6.667 4.167 18.667 4.5 36s.5 40.333.5 69v11c0 17.333-.333 33.666-1 48.999s-1.667 25.666-3 30.999c-3.333 14.667-12.333 22-27 22-7.333 0-13.333-2.333-18-7s-7-9.667-7-15c-1.333-4-2.333-14.667-3-32s-1-37.666-1-60.999c0-22 .333-42 1-60s1.667-31.333 3-40c1.333-6.667 4-12.167 8-16.5s9.667-6.5 17-6.5zm5.999 478.001l-119-94-52 47 134 159h79l129-158-52-48z"/><glyph glyph-name="Gbreve" unicode="Ğ" horiz-adv-x="440" d="M233 702c31.333 0 58.5-4.501 81.5-13.501s42-21.5 57-37.5 25.667-35 32-57 8.5-45.667 6.5-71l-131-23c-.667 20.667-5.167 37.834-13.5 51.501S246 572 232 572c-9.333 0-16.833-1.833-22.5-5.5s-10.167-8.167-13.5-13.5-5.666-11.166-6.999-17.499-2-11.833-2-16.5v-355c0-9.333 2.333-18.333 7-27s15.667-13 33-13c13.333 0 24.333 3.5 33 10.5s13 16.167 13 27.5v107h-47v119h182v-219c0-57.333-15.333-100.833-46-130.5s-74-44.5-130-44.5c-62.667 0-108.334 14.667-137.001 44s-43 73.333-43 132v349C52 574.334 67.5 618.667 98.5 652s75.833 50 134.5 50zm-59 190.999c.667-7.333 2.665-15.166 5.998-23.499s7.833-16 13.5-23 12.167-12.833 19.5-17.5 15-7 23-7c9.333 0 17.5 2.333 24.5 7s13 10.5 18 17.5 8.667 14.667 11 23 3.833 16.166 4.5 23.499h95c-1.333-16-5.166-33-11.499-51s-15.666-34.667-27.999-50-27.833-28-46.5-38-41-15-67-15c-28 0-51.5 5-70.5 15s-34.667 22.667-47 38-21.5 32-27.5 50-9.333 35-10 51h93z"/><glyph glyph-name="gbreve" unicode="ğ" horiz-adv-x="401" d="M144 0c-20.667 0-37.331 2.334-49.998 7.001s-22.834 11-30.501 19-13.5 17.333-17.5 28-7.667 21.667-11 33c-2 8-3.667 18.167-5 30.5s-2.333 25.833-3 40.5-1.167 29.667-1.5 45-.5 30-.5 44c0 25.333.5 48.833 1.5 70.5s2.167 38.167 3.5 49.5c5.333 48.667 17.5 83.167 36.5 103.5s46.167 30.5 81.5 30.5c6 0 12.5-.667 19.5-2s14-3.5 21-6.5 13.833-7.5 20.5-13.5 12-13.333 16-22l4 2v36h135v-515c0-62-14.5-107-43.5-135s-69.833-42-122.5-42c-50 0-89 12.167-117 36.5S37.668-99.333 35.001-50l132 19c1.333-14 5.166-24 11.499-30s13.166-9 20.499-9c9.333 0 16.333 3 21 9s7 14 7 24v75h-5c-4-6-9.5-11.333-16.5-16s-14.167-8.667-21.5-12S169.333 4.167 162 2.5 148.667 0 144 0zm53.003 131.001c12.667 0 21.333 6.668 26 20.001 2.667 6.667 4.167 18.667 4.5 36s.5 40.333.5 69v11c0 17.333-.333 33.666-1 48.999s-1.667 25.666-3 30.999c-3.333 14.667-12.333 22-27 22-7.333 0-13.333-2.333-18-7s-7-9.667-7-15c-1.333-4-2.333-14.667-3-32s-1-37.666-1-60.999c0-22 .333-42 1-60s1.667-31.333 3-40c1.333-6.667 4-12.167 8-16.5s9.667-6.5 17-6.5zm-47.001 554.001c.667-7.333 2.665-15.166 5.998-23.499s7.833-16 13.5-23 12.167-12.833 19.5-17.5 15-7 23-7c9.333 0 17.5 2.333 24.5 7s13 10.5 18 17.5 8.667 14.667 11 23 3.833 16.166 4.5 23.499h95c-1.333-16-5.166-33-11.499-51s-15.666-34.667-27.999-50-27.833-28-46.5-38-41-15-67-15c-28 0-51.5 5-70.5 15s-34.667 22.667-47 38-21.5 32-27.5 50-9.333 35-10 51h93z"/><glyph glyph-name="Gdotaccent" unicode="Ġ" horiz-adv-x="440" d="M233 702c31.333 0 58.5-4.501 81.5-13.501s42-21.5 57-37.5 25.667-35 32-57 8.5-45.667 6.5-71l-131-23c-.667 20.667-5.167 37.834-13.5 51.501S246 572 232 572c-9.333 0-16.833-1.833-22.5-5.5s-10.167-8.167-13.5-13.5-5.666-11.166-6.999-17.499-2-11.833-2-16.5v-355c0-9.333 2.333-18.333 7-27s15.667-13 33-13c13.333 0 24.333 3.5 33 10.5s13 16.167 13 27.5v107h-47v119h182v-219c0-57.333-15.333-100.833-46-130.5s-74-44.5-130-44.5c-62.667 0-108.334 14.667-137.001 44s-43 73.333-43 132v349C52 574.334 67.5 618.667 98.5 652s75.833 50 134.5 50zm-66 24.999v130h118v-130H167z"/><glyph glyph-name="gdotaccent" unicode="ġ" horiz-adv-x="401" d="M144 0c-20.667 0-37.331 2.334-49.998 7.001s-22.834 11-30.501 19-13.5 17.333-17.5 28-7.667 21.667-11 33c-2 8-3.667 18.167-5 30.5s-2.333 25.833-3 40.5-1.167 29.667-1.5 45-.5 30-.5 44c0 25.333.5 48.833 1.5 70.5s2.167 38.167 3.5 49.5c5.333 48.667 17.5 83.167 36.5 103.5s46.167 30.5 81.5 30.5c6 0 12.5-.667 19.5-2s14-3.5 21-6.5 13.833-7.5 20.5-13.5 12-13.333 16-22l4 2v36h135v-515c0-62-14.5-107-43.5-135s-69.833-42-122.5-42c-50 0-89 12.167-117 36.5S37.668-99.333 35.001-50l132 19c1.333-14 5.166-24 11.499-30s13.166-9 20.499-9c9.333 0 16.333 3 21 9s7 14 7 24v75h-5c-4-6-9.5-11.333-16.5-16s-14.167-8.667-21.5-12S169.333 4.167 162 2.5 148.667 0 144 0zm53.003 131.001c12.667 0 21.333 6.668 26 20.001 2.667 6.667 4.167 18.667 4.5 36s.5 40.333.5 69v11c0 17.333-.333 33.666-1 48.999s-1.667 25.666-3 30.999c-3.333 14.667-12.333 22-27 22-7.333 0-13.333-2.333-18-7s-7-9.667-7-15c-1.333-4-2.333-14.667-3-32s-1-37.666-1-60.999c0-22 .333-42 1-60s1.667-31.333 3-40c1.333-6.667 4-12.167 8-16.5s9.667-6.5 17-6.5zm-46.001 416.001v130h118v-130h-118z"/><glyph glyph-name="Gcommaaccent" unicode="Ģ" horiz-adv-x="440" d="M233 702c31.333 0 58.5-4.501 81.5-13.501s42-21.5 57-37.5 25.667-35 32-57 8.5-45.667 6.5-71l-131-23c-.667 20.667-5.167 37.834-13.5 51.501S246 572 232 572c-9.333 0-16.833-1.833-22.5-5.5s-10.167-8.167-13.5-13.5-5.666-11.166-6.999-17.499-2-11.833-2-16.5v-355c0-9.333 2.333-18.333 7-27s15.667-13 33-13c13.333 0 24.333 3.5 33 10.5s13 16.167 13 27.5v107h-47v119h182v-219c0-57.333-15.333-100.833-46-130.5s-74-44.5-130-44.5c-62.667 0-108.334 14.667-137.001 44s-43 73.333-43 132v349C52 574.334 67.5 618.667 98.5 652s75.833 50 134.5 50zm-1-978.001h-66l28 107h-24v111h117v-109z"/><glyph glyph-name="gcommaaccent" unicode="ģ" horiz-adv-x="401" d="M212 768h66l-28-107h24V550H157v109zM144 0c-20.667 0-37.331 2.334-49.998 7.001s-22.834 11-30.501 19-13.5 17.333-17.5 28-7.667 21.667-11 33c-2 8-3.667 18.167-5 30.5s-2.333 25.833-3 40.5-1.167 29.667-1.5 45-.5 30-.5 44c0 25.333.5 48.833 1.5 70.5s2.167 38.167 3.5 49.5c5.333 48.667 17.5 83.167 36.5 103.5s46.167 30.5 81.5 30.5c6 0 12.5-.667 19.5-2s14-3.5 21-6.5 13.833-7.5 20.5-13.5 12-13.333 16-22l4 2v36h135v-515c0-62-14.5-107-43.5-135s-69.833-42-122.5-42c-50 0-89 12.167-117 36.5S37.668-99.333 35.001-50l132 19c1.333-14 5.166-24 11.499-30s13.166-9 20.499-9c9.333 0 16.333 3 21 9s7 14 7 24v75h-5c-4-6-9.5-11.333-16.5-16s-14.167-8.667-21.5-12S169.333 4.167 162 2.5 148.667 0 144 0zm53.003 131.001c12.667 0 21.333 6.668 26 20.001 2.667 6.667 4.167 18.667 4.5 36s.5 40.333.5 69v11c0 17.333-.333 33.666-1 48.999s-1.667 25.666-3 30.999c-3.333 14.667-12.333 22-27 22-7.333 0-13.333-2.333-18-7s-7-9.667-7-15c-1.333-4-2.333-14.667-3-32s-1-37.666-1-60.999c0-22 .333-42 1-60s1.667-31.333 3-40c1.333-6.667 4-12.167 8-16.5s9.667-6.5 17-6.5z"/><glyph glyph-name="Hcircumflex" unicode="Ĥ" horiz-adv-x="459" d="M274 0v288h-87V0H51v696h136V420h87v276h135V0H274zm-47 801l-119-80-52 47 134 145h79l129-144-52-48z"/><glyph glyph-name="hcircumflex" unicode="ĥ" horiz-adv-x="413" d="M184 455c4 5.333 9.499 10.835 16.499 16.502s14.5 10.667 22.5 15 16.333 7.833 25 10.5 17 4 25 4c22.667 0 40.5-3.667 53.5-11s23-17 30-29 11.5-25.833 13.5-41.5 3-32.167 3-49.5v-370h-137v335c0 13.333-2.667 22.666-8 27.999s-11.666 8-18.999 8c-8 0-15-3.333-21-10s-9-16.334-9-29.001V0H42v726h137V456zm-77.001 346.002l-119-80-52 47 134 145h79l129-144-52-48z"/><glyph glyph-name="Hbar" unicode="Ħ" horiz-adv-x="459" d="M274 0v288h-87V0H51v514H11v81h40v101h136V595h87v101h135V595h40v-81h-40V0H274zm0 420v94h-87v-94h87z"/><glyph glyph-name="hbar" unicode="ħ" horiz-adv-x="413" d="M184 441c4 5.333 9.499 10.835 16.499 16.502s14.5 10.667 22.5 15 16.333 7.833 25 10.5 17 4 25 4c22.667 0 40.5-3.667 53.5-11s23-17 30-29 11.5-25.833 13.5-41.5 3-32.167 3-49.5v-356h-137v321c0 13.333-2.667 22.666-8 27.999s-11.666 8-18.999 8c-8 0-15-3.333-21-10s-9-16.334-9-29.001V0H42v558H0v77h42v91h137v-91h117v-77H179V442z"/><glyph glyph-name="Itilde" unicode="Ĩ" horiz-adv-x="302" d="M78 0v696h136V0H78zm19 859c10.667 0 20.832-1.835 30.499-5.502s18.834-7.5 27.501-11.5l24.5-11.5c7.667-3.667 14.5-5.5 20.5-5.5 9.333 0 17.833 2.167 25.5 6.5s18.167 14.833 31.5 31.5l65-36c-16-37.333-32.833-63.166-50.5-77.499S235.333 728 216 728c-12 0-23.167 1.833-33.5 5.5s-20 7.667-29 12l-26 12c-8.333 3.667-16.5 5.5-24.5 5.5s-16.5-2.667-25.5-8-19.833-15.667-32.5-31l-65 40c15.333 36 33.833 60.833 55.5 74.5S77.667 859 97 859z"/><glyph glyph-name="itilde" unicode="ĩ" horiz-adv-x="305" d="M99 689c10.667 0 20.832-1.835 30.499-5.502s18.834-7.5 27.501-11.5l24.5-11.5c7.667-3.667 14.5-5.5 20.5-5.5 9.333 0 17.833 2.167 25.5 6.5s18.167 14.833 31.5 31.5l65-36c-16-37.333-32.833-63.166-50.5-77.499S237.333 558 218 558c-12 0-23.167 1.833-33.5 5.5s-20 7.667-29 12l-26 12c-8.333 3.667-16.5 5.5-24.5 5.5s-16.5-2.667-25.5-8-19.833-15.667-32.5-31l-65 40c15.333 36 33.833 60.833 55.5 74.5S79.667 689 99 689zM85.998-.002v494h137v-494h-137z"/><glyph glyph-name="Imacron" unicode="Ī" horiz-adv-x="242" d="M53 0v696h136V0H53zM-5 745v110h252V745H-5z"/><glyph glyph-name="imacron" unicode="ī" horiz-adv-x="237" d="M-7 566v110h252V566H-7zM50 0v494h137V0H50z"/><glyph glyph-name="Ibreve" unicode="Ĭ" horiz-adv-x="268" d="M60 0v696h136V0H60zm13 893c.667-7.333 2.665-15.166 5.998-23.499s7.833-16 13.5-23 12.167-12.833 19.5-17.5 15-7 23-7c9.333 0 17.5 2.333 24.5 7s13 10.5 18 17.5 8.667 14.667 11 23 3.833 16.166 4.5 23.499h95c-1.333-16-5.166-33-11.499-51s-15.666-34.667-27.999-50-27.833-28-46.5-38-41-15-67-15c-28 0-51.5 5-70.5 15s-34.667 22.667-47 38S-4 824-10 842s-9.333 35-10 51h93z"/><glyph glyph-name="ibreve" unicode="ĭ" horiz-adv-x="287" d="M85 691c.667-7.333 2.665-15.166 5.998-23.499s7.833-16 13.5-23 12.167-12.833 19.5-17.5 15-7 23-7c9.333 0 17.5 2.333 24.5 7s13 10.5 18 17.5 8.667 14.667 11 23 3.833 16.166 4.5 23.499h95c-1.333-16-5.166-33-11.499-51s-15.666-34.667-27.999-50-27.833-28-46.5-38-41-15-67-15c-28 0-51.5 5-70.5 15s-34.667 22.667-47 38S8 622 2 640s-9.333 35-10 51h93zM76.998 0v494h137V0h-137z"/><glyph glyph-name="Iogonek" unicode="Į" horiz-adv-x="242" d="M44-112c0 14.667 3.33 31.667 9.997 51s16.667 39.666 30 60.999h-31v696h136v-696h-34c-13.333-23.333-21.666-44-24.999-62s-5-30.667-5-38c0-13.333 4.333-23.666 13-30.999s19-11 31-11c6.667 0 14.334 1 23.001 3s18.667 6 30 12l22-58c-15.333-10-31.666-17-48.999-21s-33.666-6-48.999-6c-28.667 0-52.834 8.667-72.5 26S44-144 44-112z"/><glyph glyph-name="iogonek" unicode="į" horiz-adv-x="237" d="M42-112c0 14.667 3.33 31.667 9.997 51s16.667 39.666 30 60.999h-32v494h137v-494h-34c-13.333-23.333-21.666-44-24.999-62s-5-30.667-5-38c0-13.333 4.333-23.666 13-30.999s19-11 31-11c6.667 0 14.334 1 23.001 3s18.667 6 30 12l22-58c-15.333-10-31.666-17-48.999-21s-33.666-6-48.999-6c-28.667 0-52.834 8.667-72.5 26S42-144 42-112zm7.997 678v130h137V566h-137z"/><glyph glyph-name="Idotaccent" unicode="İ" horiz-adv-x="242" d="M53 0v696h136V0H53zm9 727v130h118V727H62z"/><glyph glyph-name="dotlessi" unicode="ı" horiz-adv-x="237" d="M50 0v494h137V0H50z"/><glyph glyph-name="IJ" unicode="Ĳ" horiz-adv-x="631" d="M56 0v696h136V0H56zm524 696l-.003-526.999c0-54.667-15.5-97.5-46.5-128.5s-74.5-46.5-130.5-46.5c-31.333 0-60.666 7.667-87.999 23s-50.666 38.333-69.999 69l101 78C354.666 151.334 364.333 141.667 375 135s19.667-10 27-10c15.333 0 26.333 5.333 33 16s10 20.667 10 30v525h135z"/><glyph glyph-name="ij" unicode="ĳ" horiz-adv-x="437" d="M47 566v130h137V566H47zM47 0v494h137V0H47zm210 566v130h137V566H257zM394-35c0-57.333-16.332-98.333-48.999-123S266.667-195 208-195h-11v128h17c17.333 0 28.833 5.5 34.5 16.5S257-22 257 2v493h137V-35z"/><glyph glyph-name="Jcircumflex" unicode="Ĵ" horiz-adv-x="388" d="M309 697l-.003-526.999c0-54.667-15.5-97.5-46.5-128.5s-74.5-46.5-130.5-46.5c-31.333 0-60.666 7.667-87.999 23S-6.668 56.334-26 87.001l101 78c8.666-12.667 18.333-22.334 29-29.001s19.667-10 27-10c15.333 0 26.333 5.333 33 16s10 20.667 10 30v525h135zm-72.003 106.001l-119-80-52 47 134 145h79l129-144-52-48z"/><glyph glyph-name="jcircumflex" unicode="ĵ" horiz-adv-x="302" d="M217-35c0-57.333-16.332-98.333-48.999-123S89.667-195 31-195H20v128h17c17.333 0 28.833 5.5 34.5 16.5S80-22 80 2v493h137V-35zm-65.999 644l-119-94-52 47 134 159h79l129-158-52-48z"/><glyph glyph-name="Kcommaaccent" unicode="Ķ" horiz-adv-x="446" d="M194 481l95 215h145L289 408 449 0H308l-97 267-24-63V0H51v696h136V481h7zm52-737h-66l28 107h-24v111h117v-109z"/><glyph glyph-name="kcommaaccent" unicode="ķ" horiz-adv-x="432" d="M189 377l71 117h163L290 301 426 0H263l-70 172-11-17V0H46v725h136V378zm40-653h-66l28 107h-24v111h117v-109z"/><glyph glyph-name="kgreenlandic" unicode="ĸ" horiz-adv-x="432" d="M189 377l71 117h163L290 301 426 0H263l-70 172-11-17V0H46v494h136V378z"/><glyph glyph-name="Lacute" unicode="Ĺ" horiz-adv-x="378" d="M51 0v696h136V131h183V0H51zm5 786l167 130 77-93-195-105z"/><glyph glyph-name="lacute" unicode="ĺ" horiz-adv-x="234" d="M194-5C140.667-5 101 6.333 75 29S36 90.667 36 146v580h137V164c0-17.333 3-29 9-35s14-9 24-9h12V-5h-24zM38 806l167 130 77-93L87 738z"/><glyph glyph-name="Lcommaaccent" unicode="Ļ" horiz-adv-x="378" d="M51 0v696h136V131h183V0H51zm154-276h-66l28 107h-24v111h117v-109z"/><glyph glyph-name="lcommaaccent" unicode="ļ" horiz-adv-x="234" d="M194-5C140.667-5 101 6.333 75 29S36 90.667 36 146v580h137V164c0-17.333 3-29 9-35s14-9 24-9h12V-5h-24zm-72-271H56l28 107H60v111h117v-109z"/><glyph glyph-name="Lcaron" unicode="Ľ" horiz-adv-x="378" d="M51 0v696h136V131h183V0H51zm248 478h-66l28 107h-24v111h117V587z"/><glyph glyph-name="lcaron" unicode="ľ" horiz-adv-x="323" d="M268 505h-66l28 107h-24v111h117V614zM194-5C140.667-5 101 6.333 75 29S36 90.667 36 146v580h137V164c0-17.333 3-29 9-35s14-9 24-9h12V-5h-24z"/><glyph glyph-name="Ldot" unicode="Ŀ" horiz-adv-x="378" d="M51 0v696h136V131h183V0H51zm202 301v130h118V301H253z"/><glyph glyph-name="ldot" unicode="ŀ" horiz-adv-x="322" d="M203 329v130h118V329H203zM194-5C140.667-5 101 6.333 75 29S36 90.667 36 146v580h137V164c0-17.333 3-29 9-35s14-9 24-9h12V-5h-24z"/><glyph glyph-name="Lslash" unicode="Ł" horiz-adv-x="405" d="M78 0v256l-36-26-42 59 78 56v351h136V443l61 44 42-59-103-74V131h183V0H78z"/><glyph glyph-name="lslash" unicode="ł" horiz-adv-x="295" d="M231-5c-53.333 0-93 11.333-119 34S73 90.667 73 146v136l-31-22-42 59 73 52v355h137V468l41 30 42-59-83-59V164c0-17.333 3-29 9-35s14-9 24-9h12V-5h-24z"/><glyph glyph-name="Nacute" unicode="Ń" horiz-adv-x="481" d="M301 367v329h133V0H318l-82 203-48 132h-5V0H48v696h119l82-202 47-127h5zM152 786l167 130 77-93-195-105z"/><glyph glyph-name="nacute" unicode="ń" horiz-adv-x="413" d="M184 455c8.667 11.333 20.998 21.833 36.998 31.5s31.667 14.5 47 14.5c22.667 0 40.834-3.333 54.501-10s24.167-15.667 31.5-27 12.333-24.666 15-39.999 4-31.666 4-48.999v-375h-137v335c0 13.333-2.667 22.666-8 27.999s-11.666 8-18.999 8c-8 0-15-3.333-21-10s-9-16.334-9-29.001V0H42v495h137v-39zm-45.002 119l100 186 108-54-136-175z"/><glyph glyph-name="Ncommaaccent" unicode="Ņ" horiz-adv-x="481" d="M301 367v329h133V0H318l-82 203-48 132h-5V0H48v696h119l82-202 47-127h5zm-55-623h-66l28 107h-24v111h117v-109z"/><glyph glyph-name="ncommaaccent" unicode="ņ" horiz-adv-x="413" d="M184 455c8.667 11.333 20.998 21.833 36.998 31.5s31.667 14.5 47 14.5c22.667 0 40.834-3.333 54.501-10s24.167-15.667 31.5-27 12.333-24.666 15-39.999 4-31.666 4-48.999v-375h-137v335c0 13.333-2.667 22.666-8 27.999s-11.666 8-18.999 8c-8 0-15-3.333-21-10s-9-16.334-9-29.001V0H42v495h137v-39zm16.998-731h-66l28 107h-24v111h117v-109z"/><glyph glyph-name="Ncaron" unicode="Ň" horiz-adv-x="481" d="M301 367v329h133V0H318l-82 203-48 132h-5V0H48v696h119l82-202 47-127h5zm69 546l52-48-129-140h-79L80 866l52 47 119-80z"/><glyph glyph-name="ncaron" unicode="ň" horiz-adv-x="413" d="M184 455c8.667 11.333 20.998 21.833 36.998 31.5s31.667 14.5 47 14.5c22.667 0 40.834-3.333 54.501-10s24.167-15.667 31.5-27 12.333-24.666 15-39.999 4-31.666 4-48.999v-375h-137v335c0 13.333-2.667 22.666-8 27.999s-11.666 8-18.999 8c-8 0-15-3.333-21-10s-9-16.334-9-29.001V0H42v495h137v-39zm138.998 266l52-48-129-158h-79l-134 159 52 47 119-94z"/><glyph glyph-name="napostrophe" unicode="ŉ" horiz-adv-x="494" d="M265 455c8.667 11.333 20.998 21.833 36.998 31.5s31.667 14.5 47 14.5c22.667 0 40.834-3.333 54.501-10s24.167-15.667 31.5-27 12.333-24.666 15-39.999 4-31.666 4-48.999v-375h-137v335c0 13.333-2.667 22.666-8 27.999s-11.666 8-18.999 8c-8 0-15-3.333-21-10s-9-16.334-9-29.001V0H123v495h137v-39zm-195.002-4h-66l28 107h-24v111h117V560z"/><glyph glyph-name="Eng" unicode="Ŋ" horiz-adv-x="481" d="M301 367v329h133V-73c0-20-2.833-36.5-8.5-49.5S412-146 402-154s-21.667-13.667-35-17-27.333-5-42-5c-14 0-28.333 1.167-43 3.5s-28.667 5.5-42 9.5l10 94c17.333 0 29.5 2.333 36.5 7S297-48 297-34v89l-57 150-52 135h-5V0H48v696h119l82-202 47-127h5z"/><glyph glyph-name="eng" unicode="ŋ" horiz-adv-x="413" d="M184 455c8.667 11.333 20.998 21.833 36.998 31.5s31.667 14.5 47 14.5c22.667 0 40.834-3.333 54.501-10s24.167-15.667 31.5-27 12.333-24.666 15-39.999 4-31.666 4-48.999v-448c0-20-2.833-36.5-8.5-49.5s-13.5-23.5-23.5-31.5-21.667-13.667-35-17-27.333-5-42-5c-14 0-28.333 1.167-43 3.5s-28.667 5.5-42 9.5l10 94c17.333 0 29.5 2.333 36.5 7s10.5 14 10.5 28v369c0 13.333-2.667 22.666-8 27.999s-11.666 8-18.999 8c-8 0-15-3.333-21-10s-9-16.334-9-29.001V0H42v495h137v-39z"/><glyph glyph-name="Omacron" unicode="Ō" horiz-adv-x="445" d="M262 532c0 15.333-3.833 26.333-11.5 33s-17.167 10-28.5 10-21-3.333-29-10-12-17.667-12-33V164c0-16 4-27.167 12-33.5s17.667-9.5 29-9.5 20.833 3.167 28.5 9.5S262 148 262 164v368zm138-362c0-60-14.999-104.333-44.999-133s-74.333-43-133-43c-118 0-177 58.667-177 176v357c0 60 15.667 104.167 47 132.5S166.667 702 222 702c60.667 0 105.5-14.167 134.5-42.5S400 587 400 527V170zM93.001 745v110h252V745h-252z"/><glyph glyph-name="omacron" unicode="ō" horiz-adv-x="401" d="M202 503c42 0 75.168-8.332 99.501-24.999S342.667 440.667 352 416c3.333-9.333 5.833-20.666 7.5-33.999s3-27.5 4-42.5 1.667-30.5 2-46.5.5-31 .5-45v-15c0-18-.167-35.833-.5-53.5S364 144.667 362 128c-3.333-28.667-10.833-51.834-22.5-69.501s-25.334-31.334-41.001-41.001-32.667-16.167-51-19.5-36.166-5-53.499-5c-23.333 0-43.5 3-60.5 9S102 15.831 90 25.498 68.167 46.332 60.5 58.999s-13.167 25.667-16.5 39c-2 8-3.667 18-5 30s-2.333 24.667-3 38-1.167 26.833-1.5 40.5-.5 26.5-.5 38.5c0 14.667.333 30.167 1 46.5s1.667 32 3 47 3 29 5 42 4.667 23.833 8 32.5c10 26.667 27.667 48.334 53 65.001s58 25 98 25zm.001-126.999c-12.667 0-21.333-6.669-26-20.002-2.667-6.667-4.167-20.167-4.5-40.5s-.833-44.5-1.5-72.5v-15c0-17.333.167-33.666.5-48.999s1.833-27 4.5-35c3.333-14.667 12.333-22 27-22 7.333 0 13.333 2.333 18 7s7 9.667 7 15c1.333 4 2.5 16 3.5 36s1.5 41.667 1.5 65c0 22-.5 43.333-1.5 64s-2.167 35.334-3.5 44.001c-1.333 6.667-4 12.167-8 16.5s-9.667 6.5-17 6.5zM71.002 565.999v110h252v-110h-252z"/><glyph glyph-name="Obreve" unicode="Ŏ" horiz-adv-x="445" d="M262 532c0 15.333-3.833 26.333-11.5 33s-17.167 10-28.5 10-21-3.333-29-10-12-17.667-12-33V164c0-16 4-27.167 12-33.5s17.667-9.5 29-9.5 20.833 3.167 28.5 9.5S262 148 262 164v368zm138-362c0-60-14.999-104.333-44.999-133s-74.333-43-133-43c-118 0-177 58.667-177 176v357c0 60 15.667 104.167 47 132.5S166.667 702 222 702c60.667 0 105.5-14.167 134.5-42.5S400 587 400 527V170zM165.001 893c.667-7.333 2.665-15.166 5.998-23.499s7.833-16 13.5-23 12.167-12.833 19.5-17.5 15-7 23-7c9.333 0 17.5 2.333 24.5 7s13 10.5 18 17.5 8.667 14.667 11 23 3.833 16.166 4.5 23.499h95c-1.333-16-5.166-33-11.499-51s-15.666-34.667-27.999-50-27.833-28-46.5-38-41-15-67-15c-28 0-51.5 5-70.5 15s-34.667 22.667-47 38-21.5 32-27.5 50-9.333 35-10 51h93z"/><glyph glyph-name="obreve" unicode="ŏ" horiz-adv-x="401" d="M202 503c42 0 75.168-8.332 99.501-24.999S342.667 440.667 352 416c3.333-9.333 5.833-20.666 7.5-33.999s3-27.5 4-42.5 1.667-30.5 2-46.5.5-31 .5-45v-15c0-18-.167-35.833-.5-53.5S364 144.667 362 128c-3.333-28.667-10.833-51.834-22.5-69.501s-25.334-31.334-41.001-41.001-32.667-16.167-51-19.5-36.166-5-53.499-5c-23.333 0-43.5 3-60.5 9S102 15.831 90 25.498 68.167 46.332 60.5 58.999s-13.167 25.667-16.5 39c-2 8-3.667 18-5 30s-2.333 24.667-3 38-1.167 26.833-1.5 40.5-.5 26.5-.5 38.5c0 14.667.333 30.167 1 46.5s1.667 32 3 47 3 29 5 42 4.667 23.833 8 32.5c10 26.667 27.667 48.334 53 65.001s58 25 98 25zm.001-126.999c-12.667 0-21.333-6.669-26-20.002-2.667-6.667-4.167-20.167-4.5-40.5s-.833-44.5-1.5-72.5v-15c0-17.333.167-33.666.5-48.999s1.833-27 4.5-35c3.333-14.667 12.333-22 27-22 7.333 0 13.333 2.333 18 7s7 9.667 7 15c1.333 4 2.5 16 3.5 36s1.5 41.667 1.5 65c0 22-.5 43.333-1.5 64s-2.167 35.334-3.5 44.001c-1.333 6.667-4 12.167-8 16.5s-9.667 6.5-17 6.5zm-59.999 308.998c.667-7.333 2.665-15.166 5.998-23.499s7.833-16 13.5-23 12.167-12.833 19.5-17.5 15-7 23-7c9.333 0 17.5 2.333 24.5 7s13 10.5 18 17.5 8.667 14.667 11 23 3.833 16.166 4.5 23.499h95c-1.333-16-5.166-33-11.499-51s-15.666-34.667-27.999-50-27.833-28-46.5-38-41-15-67-15c-28 0-51.5 5-70.5 15s-34.667 22.667-47 38-21.5 32-27.5 50-9.333 35-10 51h93z"/><glyph glyph-name="Ohungarumlaut" unicode="Ő" horiz-adv-x="445" d="M262 532c0 15.333-3.833 26.333-11.5 33s-17.167 10-28.5 10-21-3.333-29-10-12-17.667-12-33V164c0-16 4-27.167 12-33.5s17.667-9.5 29-9.5 20.833 3.167 28.5 9.5S262 148 262 164v368zm138-362c0-60-14.999-104.333-44.999-133s-74.333-43-133-43c-118 0-177 58.667-177 176v357c0 60 15.667 104.167 47 132.5S166.667 702 222 702c60.667 0 105.5-14.167 134.5-42.5S400 587 400 527V170zM50.001 777l157 142 76-76-180-130zm187 5l163 135 73-79-185-122z"/><glyph glyph-name="ohungarumlaut" unicode="ő" horiz-adv-x="401" d="M202 503c42 0 75.168-8.332 99.501-24.999S342.667 440.667 352 416c3.333-9.333 5.833-20.666 7.5-33.999s3-27.5 4-42.5 1.667-30.5 2-46.5.5-31 .5-45v-15c0-18-.167-35.833-.5-53.5S364 144.667 362 128c-3.333-28.667-10.833-51.834-22.5-69.501s-25.334-31.334-41.001-41.001-32.667-16.167-51-19.5-36.166-5-53.499-5c-23.333 0-43.5 3-60.5 9S102 15.831 90 25.498 68.167 46.332 60.5 58.999s-13.167 25.667-16.5 39c-2 8-3.667 18-5 30s-2.333 24.667-3 38-1.167 26.833-1.5 40.5-.5 26.5-.5 38.5c0 14.667.333 30.167 1 46.5s1.667 32 3 47 3 29 5 42 4.667 23.833 8 32.5c10 26.667 27.667 48.334 53 65.001s58 25 98 25zm.001-126.999c-12.667 0-21.333-6.669-26-20.002-2.667-6.667-4.167-20.167-4.5-40.5s-.833-44.5-1.5-72.5v-15c0-17.333.167-33.666.5-48.999s1.833-27 4.5-35c3.333-14.667 12.333-22 27-22 7.333 0 13.333 2.333 18 7s7 9.667 7 15c1.333 4 2.5 16 3.5 36s1.5 41.667 1.5 65c0 22-.5 43.333-1.5 64s-2.167 35.334-3.5 44.001c-1.333 6.667-4 12.167-8 16.5s-9.667 6.5-17 6.5zM50.002 573.999l100 186 108-54-136-175zm160 0l100 186 108-54-136-175z"/><glyph glyph-name="OE" unicode="Œ" horiz-adv-x="605" d="M388 136l192.998-.001v-136h-304c-17.333-4-35.666-6-54.999-6-52 0-94.5 14.5-127.5 43.5s-49.5 73.167-49.5 132.5v357c0 30 4.5 55.833 13.5 77.5s21.333 39.834 37 54.501 34.334 25.5 56.001 32.5S196.667 702 222 702c20.667 0 40-2 58-6h301V566H388V420h170V287H388V136zM261.998 523.999c0 15.333-3.833 26.333-11.5 33s-17.167 10-28.5 10-21-3.333-29-10-12-17.667-12-33v-352c0-16 4-27.167 12-33.5s17.667-9.5 29-9.5 20.833 3.167 28.5 9.5 11.5 17.5 11.5 33.5v352z"/><glyph glyph-name="oe" unicode="œ" horiz-adv-x="596" d="M372 220c0-13.333.164-27.502.497-42.502s1.5-26.167 3.5-33.5c1.333-6.667 4.5-12 9.5-16s10.5-6 16.5-6c7.333 0 13.5 3 18.5 9s8.167 16.333 9.5 31l135-20c-2.667-45.333-18-81.333-46-108s-66.667-40-116-40c-22 0-41.167 2.5-57.5 7.5s-31.166 14.167-44.499 27.5c-15.333-14-32.666-23.5-51.999-28.5s-37.666-7.5-54.999-7.5c-23.333 0-43.5 3-60.5 9S102 15.831 90 25.498 68.167 46.332 60.5 58.999s-13.167 25.667-16.5 39c-2 8-3.667 18-5 30s-2.333 24.667-3 38-1.167 26.833-1.5 40.5-.5 26.5-.5 38.5c0 14.667.333 30.167 1 46.5s1.667 32 3 47 3 29 5 42 4.667 23.833 8 32.5c10 26.667 27.667 48.334 53 65.001s58 25 98 25c21.333 0 41.333-3.167 60-9.5s32.667-15.5 42-27.5c11.333 12 25.5 21.167 42.5 27.5s35.833 9.5 56.5 9.5c50 0 89.333-13.5 118-40.5S564 396 564 344V220H372zM201.997 375.998c-12.667 0-21.333-6.669-26-20.002-2.667-6.667-4.167-20.167-4.5-40.5s-.833-44.5-1.5-72.5v-15c0-17.333.167-33.666.5-48.999s1.833-27 4.5-35c3.333-14.667 12.333-22 27-22 7.333 0 13.333 2.333 18 7s7 9.667 7 15c1.333 4 2.333 16 3 36s1 41.667 1 65c0 22-.333 43.333-1 64s-1.667 35.334-3 44.001c-1.333 6.667-4 12.167-8 16.5s-9.667 6.5-17 6.5zm200.001-1.002c-6.667 0-11.666-1.67-14.999-5.003s-6.333-8-9-14c-1.333-3.333-2.333-9.666-3-18.999s-1.334-20.666-2.001-33.999h54v42c0 6.667-1.833 13.334-5.5 20.001s-10.167 10-19.5 10z"/><glyph glyph-name="Racute" unicode="Ŕ" horiz-adv-x="446" d="M216 696c28.667 0 55-3.501 79-10.501s44.667-18.667 62-35 30.833-37.666 40.5-63.999S412 528 412 490c0-47.333-6.333-86-19-116s-32-54-58-72L435 0H296l-82 271h-27V0H51v696h165zm-29-130.001v-164h21c10 0 19.333 1.167 28 3.5s16.5 6.833 23.5 13.5 12.5 15.5 16.5 26.5 6 25.5 6 43.5c0 26.667-6.5 46.167-19.5 58.5s-29.833 18.5-50.5 18.5h-25zm-57 220l167 130 77-93-195-105z"/><glyph glyph-name="racute" unicode="ŕ" horiz-adv-x="316" d="M50 496l138.001.002v-55h2c12.667 25.333 28.167 41.666 46.5 48.999s38.5 11 60.5 11h11v-135c-5.333.667-10.5 1.167-15.5 1.5s-9.833.5-14.5.5c-28.667 0-50.834-6.833-66.501-20.5S188 309.667 188 275V0H50v496zm55.001 78.002l100 186 108-54-136-175z"/><glyph glyph-name="Rcommaaccent" unicode="Ŗ" horiz-adv-x="446" d="M216 696c28.667 0 55-3.501 79-10.501s44.667-18.667 62-35 30.833-37.666 40.5-63.999S412 528 412 490c0-47.333-6.333-86-19-116s-32-54-58-72L435 0H296l-82 271h-27V0H51v696h165zm-29-130.001v-164h21c10 0 19.333 1.167 28 3.5s16.5 6.833 23.5 13.5 12.5 15.5 16.5 26.5 6 25.5 6 43.5c0 26.667-6.5 46.167-19.5 58.5s-29.833 18.5-50.5 18.5h-25zm59-822h-66l28 107h-24v111h117v-109z"/><glyph glyph-name="rcommaaccent" unicode="ŗ" horiz-adv-x="316" d="M50 496l138.001.002v-55h2c12.667 25.333 28.167 41.666 46.5 48.999s38.5 11 60.5 11h11v-135c-5.333.667-10.5 1.167-15.5 1.5s-9.833.5-14.5.5c-28.667 0-50.834-6.833-66.501-20.5S188 309.667 188 275V0H50v496zm75.001-768.998h-66l28 107h-24v111h117v-109z"/><glyph glyph-name="Rcaron" unicode="Ř" horiz-adv-x="446" d="M216 696c28.667 0 55-3.501 79-10.501s44.667-18.667 62-35 30.833-37.666 40.5-63.999S412 528 412 490c0-47.333-6.333-86-19-116s-32-54-58-72L435 0H296l-82 271h-27V0H51v696h165zm-29-130.001v-164h21c10 0 19.333 1.167 28 3.5s16.5 6.833 23.5 13.5 12.5 15.5 16.5 26.5 6 25.5 6 43.5c0 26.667-6.5 46.167-19.5 58.5s-29.833 18.5-50.5 18.5h-25zm119 347l52-48-129-140h-79l-134 141 52 47 119-80z"/><glyph glyph-name="rcaron" unicode="ř" horiz-adv-x="316" d="M50 496l138.001.002v-55h2c12.667 25.333 28.167 41.666 46.5 48.999s38.5 11 60.5 11h11v-135c-5.333.667-10.5 1.167-15.5 1.5s-9.833.5-14.5.5c-28.667 0-50.834-6.833-66.501-20.5S188 309.667 188 275V0H50v496zm235.001 225.002l52-48-129-158h-79l-134 159 52 47 119-94z"/><glyph glyph-name="Sacute" unicode="Ś" horiz-adv-x="427" d="M397 205c0-32-2.831-61.002-8.498-87.002s-15.334-48.167-29.001-66.5-32.167-32.5-55.5-42.5-52.666-15-87.999-15c-32 0-59.5 4.667-82.5 14s-41.667 22.166-56 38.499-24.833 35.333-31.5 57-10 44.834-10 69.501l136 26c1.333-25.333 5.166-44.333 11.499-57s18.166-19 35.499-19c10 0 17.833 2.333 23.5 7s10 10.667 13 18 5 16 6 26 1.5 20 1.5 30c0 14-1 25.667-3 35s-5.5 17.333-10.5 24-11.833 12.5-20.5 17.5-19.334 10.167-32.001 15.5c-34 14-61.333 28.5-82 43.5s-36.5 31-47.5 48-18.167 35-21.5 54-5 39.833-5 62.5c0 28.667 3.333 55.167 10 79.5s17.167 45.166 31.5 62.499 33 31 56 41 50.833 15 83.5 15c34.667 0 63.334-5.5 86.001-16.5s40.5-25 53.5-42 22.167-35.833 27.5-56.5 8-40.667 8-60l-134-29c0 10-.5 19.333-1.5 28s-3.167 16.5-6.5 23.5-7.833 12.5-13.5 16.5-13.5 6-23.5 6c-9.333 0-16.666-2.167-21.999-6.5s-9.5-9.666-12.5-15.999-5-13.5-6-21.5-1.5-15.667-1.5-23c0-9.333.667-17.666 2-24.999s4.666-14.333 9.999-21 13.166-13.167 23.499-19.5 24.833-13.166 43.5-20.499c32-12.667 57.333-26 76-40s32.834-29.333 42.501-46 16-35.5 19-56.5 4.5-44.833 4.5-71.5zM124.002 785.998l167 130 77-93-195-105z"/><glyph glyph-name="sacute" unicode="ś" horiz-adv-x="387" d="M158 162c-.667-13.333 2.501-23.999 9.501-31.999s15.833-12 26.5-12c8.667 0 16.167 3.167 22.5 9.5s9.5 13.5 9.5 21.5c0 17.333-2.833 29-8.5 35s-13.5 10.667-23.5 14l-57.5 19.5c-19 6.333-36.333 14.666-52 24.999S56.167 266.666 46.5 283.999s-14.5 40.333-14.5 69c0 20.667 3.5 40.167 10.5 58.5S60 445.665 74 458.998s31.167 24 51.5 32 43.833 12 70.5 12c54 0 94.333-13.667 121-41s40.334-64 41.001-110l-130-17c0 9.333-2.5 18.833-7.5 28.5s-13.167 14.5-24.5 14.5c-10.667 0-18.167-3.333-22.5-10s-6.5-12.667-6.5-18c0-10 1.667-17.667 5-23s10.666-9.666 21.999-12.999c24-7.333 46-14.666 66-21.999s37.5-17 52.5-29 26.667-27 35-45 12.5-41 12.5-69c0-20-2.833-39.333-8.5-58S336.333 55.833 323 41.5 292.167 15.667 270.5 7 222-6 190-6C140.667-6 101.667 6.333 73 31S29 93 27 143zm-32.999 412.001l100 186 108-54-136-175z"/><glyph glyph-name="Scircumflex" unicode="Ŝ" horiz-adv-x="427" d="M397 205c0-32-2.831-61.002-8.498-87.002s-15.334-48.167-29.001-66.5-32.167-32.5-55.5-42.5-52.666-15-87.999-15c-32 0-59.5 4.667-82.5 14s-41.667 22.166-56 38.499-24.833 35.333-31.5 57-10 44.834-10 69.501l136 26c1.333-25.333 5.166-44.333 11.499-57s18.166-19 35.499-19c10 0 17.833 2.333 23.5 7s10 10.667 13 18 5 16 6 26 1.5 20 1.5 30c0 14-1 25.667-3 35s-5.5 17.333-10.5 24-11.833 12.5-20.5 17.5-19.334 10.167-32.001 15.5c-34 14-61.333 28.5-82 43.5s-36.5 31-47.5 48-18.167 35-21.5 54-5 39.833-5 62.5c0 28.667 3.333 55.167 10 79.5s17.167 45.166 31.5 62.499 33 31 56 41 50.833 15 83.5 15c34.667 0 63.334-5.5 86.001-16.5s40.5-25 53.5-42 22.167-35.833 27.5-56.5 8-40.667 8-60l-134-29c0 10-.5 19.333-1.5 28s-3.167 16.5-6.5 23.5-7.833 12.5-13.5 16.5-13.5 6-23.5 6c-9.333 0-16.666-2.167-21.999-6.5s-9.5-9.666-12.5-15.999-5-13.5-6-21.5-1.5-15.667-1.5-23c0-9.333.667-17.666 2-24.999s4.666-14.333 9.999-21 13.166-13.167 23.499-19.5 24.833-13.166 43.5-20.499c32-12.667 57.333-26 76-40s32.834-29.333 42.501-46 16-35.5 19-56.5 4.5-44.833 4.5-71.5zM224.002 800.998l-119-80-52 47 134 145h79l129-144-52-48z"/><glyph glyph-name="scircumflex" unicode="ŝ" horiz-adv-x="387" d="M158 162c-.667-13.333 2.501-23.999 9.501-31.999s15.833-12 26.5-12c8.667 0 16.167 3.167 22.5 9.5s9.5 13.5 9.5 21.5c0 17.333-2.833 29-8.5 35s-13.5 10.667-23.5 14l-57.5 19.5c-19 6.333-36.333 14.666-52 24.999S56.167 266.666 46.5 283.999s-14.5 40.333-14.5 69c0 20.667 3.5 40.167 10.5 58.5S60 445.665 74 458.998s31.167 24 51.5 32 43.833 12 70.5 12c54 0 94.333-13.667 121-41s40.334-64 41.001-110l-130-17c0 9.333-2.5 18.833-7.5 28.5s-13.167 14.5-24.5 14.5c-10.667 0-18.167-3.333-22.5-10s-6.5-12.667-6.5-18c0-10 1.667-17.667 5-23s10.666-9.666 21.999-12.999c24-7.333 46-14.666 66-21.999s37.5-17 52.5-29 26.667-27 35-45 12.5-41 12.5-69c0-20-2.833-39.333-8.5-58S336.333 55.833 323 41.5 292.167 15.667 270.5 7 222-6 190-6C140.667-6 101.667 6.333 73 31S29 93 27 143zm38.001 447.001l-119-94-52 47 134 159h79l129-158-52-48z"/><glyph glyph-name="Scedilla" unicode="Ş" horiz-adv-x="427" d="M397 205c0-30.667-2.5-58.5-7.5-83.5S375.833 75 363.5 57 334.667 24.667 314 14 267.666-3 236.999-5l-11-31c18-2.667 32.667-7.334 44-14.001s20.333-14.167 27-22.5S308.333-89.667 311-99s4-17.666 4-24.999-1.5-15.833-4.5-25.5-8.333-19-16-28-17.667-16.667-30-23-27.833-9.5-46.5-9.5c-2.667 0-7.334.167-14.001.5s-14.667 1.166-24 2.499-19.666 3.666-30.999 6.999-22.666 7.666-33.999 12.999l21 53c15.333-6.667 27.5-10.834 36.5-12.501s17.167-2.5 24.5-2.5c9.333 0 17 3.167 23 9.5s9 13.166 9 20.499c0 10.667-3.5 18-10.5 22s-16.167 6-27.5 6l-34 23 21 65c-25.333 3.333-47 10.333-65 21s-32.667 23.834-44 39.501-19.666 33.334-24.999 53.001-8 40.5-8 62.5l136 26c1.333-25.333 5.166-44.333 11.499-57s18.166-19 35.499-19c10 0 17.833 2.333 23.5 7s10 10.667 13 18 5 16 6 26 1.5 20 1.5 30c0 14-1 25.667-3 35s-5.5 17.333-10.5 24-11.833 12.5-20.5 17.5-19.334 10.167-32.001 15.5c-34 14-61.333 28.5-82 43.5s-36.5 31-47.5 48-18.167 35-21.5 54-5 39.833-5 62.5c0 28.667 3.333 55.167 10 79.5s17.167 45.166 31.5 62.499 33 31 56 41 50.833 15 83.5 15c34.667 0 63.334-5.5 86.001-16.5s40.5-25 53.5-42 22.167-35.833 27.5-56.5 8-40.667 8-60l-134-29c0 10-.5 19.333-1.5 28s-3.167 16.5-6.5 23.5-7.833 12.5-13.5 16.5-13.5 6-23.5 6c-9.333 0-16.666-2.167-21.999-6.5s-9.5-9.666-12.5-15.999-5-13.5-6-21.5-1.5-15.667-1.5-23c0-9.333.667-17.666 2-24.999s4.666-14.333 9.999-21 13.166-13.167 23.499-19.5 24.833-13.166 43.5-20.499c32-12.667 57.333-26 76-40s32.834-29.333 42.501-46 16-35.5 19-56.5 4.5-44.833 4.5-71.5z"/><glyph glyph-name="scedilla" unicode="ş" horiz-adv-x="387" d="M158 162c-.667-13.333 2.499-23.993 9.499-31.993s15.833-12 26.5-12c8.667 0 16.167 3.167 22.5 9.5s9.5 13.5 9.5 21.5c0 17.333-2.833 29-8.5 35s-13.5 10.667-23.5 14l-57.5 19.5c-19 6.333-36.333 14.666-52 24.999s-28.334 24.166-38.001 41.499-14.5 40.333-14.5 69c0 20.667 3.5 40.167 10.5 58.5s17.5 34.166 31.5 47.499 31.167 24 51.5 32 43.833 12 70.5 12c54 0 94.333-13.667 121-41s40.334-64 41.001-110l-130-17c0 9.333-2.5 18.833-7.5 28.5s-13.167 14.5-24.5 14.5c-10.667 0-18.167-3.333-22.5-10s-6.5-12.667-6.5-18c0-10 1.667-17.667 5-23s10.666-9.666 21.999-13c24-7.332 46-14.665 66-21.998s37.5-17 52.5-29 26.667-27 35-45 12.5-41 12.5-69c0-18.667-2.333-36.5-7-53.5s-12.334-32.333-23.001-46-24.667-25.334-42-35.001S249.331-1.33 223.998-3.996l-11-32c18-2.667 32.667-7.334 44-14.001s20.333-14.167 27-22.5 11.334-17.166 14.001-26.5 4-17.665 4-24.998-1.5-15.833-4.5-25.5-8.333-19-16-28-17.667-16.667-30-23-27.833-9.5-46.5-9.5c-2.667 0-7.334.167-14.001.5s-14.667 1.166-24 2.499-19.666 3.666-30.999 6.999-22.666 7.666-33.999 12.999l21 53c15.333-6.667 27.5-10.834 36.5-12.501s17.167-2.5 24.5-2.5c9.333 0 17 3.167 23 9.5s9 13.166 9 20.499c0 10.667-3.5 18-10.5 22s-16.167 6-27.5 6l-34 23 20 64C122-.667 89 13.333 65 38S28.333 97.667 27 143z"/><glyph glyph-name="Scaron" unicode="Š" horiz-adv-x="427" d="M397 205c0-32-2.831-61.002-8.498-87.002s-15.334-48.167-29.001-66.5-32.167-32.5-55.5-42.5-52.666-15-87.999-15c-32 0-59.5 4.667-82.5 14s-41.667 22.166-56 38.499-24.833 35.333-31.5 57-10 44.834-10 69.501l136 26c1.333-25.333 5.166-44.333 11.499-57s18.166-19 35.499-19c10 0 17.833 2.333 23.5 7s10 10.667 13 18 5 16 6 26 1.5 20 1.5 30c0 14-1 25.667-3 35s-5.5 17.333-10.5 24-11.833 12.5-20.5 17.5-19.334 10.167-32.001 15.5c-34 14-61.333 28.5-82 43.5s-36.5 31-47.5 48-18.167 35-21.5 54-5 39.833-5 62.5c0 28.667 3.333 55.167 10 79.5s17.167 45.166 31.5 62.499 33 31 56 41 50.833 15 83.5 15c34.667 0 63.334-5.5 86.001-16.5s40.5-25 53.5-42 22.167-35.833 27.5-56.5 8-40.667 8-60l-134-29c0 10-.5 19.333-1.5 28s-3.167 16.5-6.5 23.5-7.833 12.5-13.5 16.5-13.5 6-23.5 6c-9.333 0-16.666-2.167-21.999-6.5s-9.5-9.666-12.5-15.999-5-13.5-6-21.5-1.5-15.667-1.5-23c0-9.333.667-17.666 2-24.999s4.666-14.333 9.999-21 13.166-13.167 23.499-19.5 24.833-13.166 43.5-20.499c32-12.667 57.333-26 76-40s32.834-29.333 42.501-46 16-35.5 19-56.5 4.5-44.833 4.5-71.5zm-56.998 707.998l52-48-129-140h-79l-134 141 52 47 119-80z"/><glyph glyph-name="scaron" unicode="š" horiz-adv-x="387" d="M158 162c-.667-13.333 2.501-23.999 9.501-31.999s15.833-12 26.5-12c8.667 0 16.167 3.167 22.5 9.5s9.5 13.5 9.5 21.5c0 17.333-2.833 29-8.5 35s-13.5 10.667-23.5 14l-57.5 19.5c-19 6.333-36.333 14.666-52 24.999S56.167 266.666 46.5 283.999s-14.5 40.333-14.5 69c0 20.667 3.5 40.167 10.5 58.5S60 445.665 74 458.998s31.167 24 51.5 32 43.833 12 70.5 12c54 0 94.333-13.667 121-41s40.334-64 41.001-110l-130-17c0 9.333-2.5 18.833-7.5 28.5s-13.167 14.5-24.5 14.5c-10.667 0-18.167-3.333-22.5-10s-6.5-12.667-6.5-18c0-10 1.667-17.667 5-23s10.666-9.666 21.999-12.999c24-7.333 46-14.666 66-21.999s37.5-17 52.5-29 26.667-27 35-45 12.5-41 12.5-69c0-20-2.833-39.333-8.5-58S336.333 55.833 323 41.5 292.167 15.667 270.5 7 222-6 190-6C140.667-6 101.667 6.333 73 31S29 93 27 143zm161.001 559.001l52-48-129-158h-79l-134 159 52 47 119-94z"/><glyph glyph-name="Tcommaaccent" unicode="Ţ" horiz-adv-x="360" d="M247 566V0H111v566H4v130h350V566H247zm-65-842h-66l28 107h-24v111h117v-109z"/><glyph glyph-name="tcommaaccent" unicode="ţ" horiz-adv-x="277" d="M189 0c-24 0-44.17 3.666-60.503 10.999s-29.666 17-39.999 29-17.666 25.5-21.999 40.5-6.5 30.167-6.5 45.5v262H15v107h45v130h129v-130h56v-107h-56v-218c0-6 .333-11.667 1-17s2.334-10.166 5.001-14.499 7-7.833 13-10.5 14.333-4 25-4h12V0h-56zm-41.003-276.001h-66l28 107h-24v111h117v-109z"/><glyph glyph-name="Tcaron" unicode="Ť" horiz-adv-x="360" d="M247 566V0H111v566H4v130h350V566H247zm57 347l52-48-129-140h-79L14 866l52 47 119-80z"/><glyph glyph-name="tcaron" unicode="ť" horiz-adv-x="360" d="M305 553h-66l28 107h-24v111h117V662zM189 0c-24 0-44.17 3.666-60.503 10.999s-29.666 17-39.999 29-17.666 25.5-21.999 40.5-6.5 30.167-6.5 45.5v262H15v107h45v130h129v-130h56v-107h-56v-218c0-6 .333-11.667 1-17s2.334-10.166 5.001-14.499 7-7.833 13-10.5 14.333-4 25-4h12V0h-56z"/><glyph glyph-name="Tbar" unicode="Ŧ" horiz-adv-x="360" d="M247 566V414h85v-98h-85V0H111v316H28v98h83v152H4v130h350V566H247z"/><glyph glyph-name="tbar" unicode="ŧ" horiz-adv-x="277" d="M189 0c-24 0-44.17 3.666-60.503 10.999s-29.666 17-39.999 29-17.666 25.5-21.999 40.5-6.5 30.167-6.5 45.5v110H15v93h45v59H15v107h45v130h129v-130h56v-107h-56v-59h56v-93h-56v-66c0-6 .333-11.667 1-17s2.334-10.166 5.001-14.499 7-7.833 13-10.5 14.333-4 25-4h12V0h-56z"/><glyph glyph-name="Utilde" unicode="Ũ" horiz-adv-x="445" d="M401 695V170c0-60-15-104.333-45-133S281.667-6 223-6C105-6 46 52.667 46 170v525h136V167c0-16 4-27.167 12-33.5s17.667-9.5 29-9.5 20.833 3.167 28.5 9.5S263 151 263 167v528h138zM173 869c10.667 0 20.832-1.835 30.499-5.502s18.834-7.5 27.501-11.5l24.5-11.5c7.667-3.667 14.5-5.5 20.5-5.5 9.333 0 17.833 2.167 25.5 6.5s18.167 14.833 31.5 31.5l65-36c-16-37.333-32.833-63.166-50.5-77.499S311.333 738 292 738c-12 0-23.167 1.833-33.5 5.5s-20 7.667-29 12l-26 12c-8.333 3.667-16.5 5.5-24.5 5.5s-16.5-2.667-25.5-8-19.833-15.667-32.5-31l-65 40c15.333 36 33.833 60.833 55.5 74.5S153.667 869 173 869z"/><glyph glyph-name="utilde" unicode="ũ" horiz-adv-x="413" d="M232 40c-4-5.333-9.333-10.833-16-16.5s-13.834-10.667-21.501-15-15.667-7.833-24-10.5-16.5-4-24.5-4c-22.667 0-40.667 3.333-54 10S68.333 19.667 61 31 48.834 55.666 46.501 70.999s-3.5 31.666-3.5 48.999v375h137v-335c0-13.333 2.667-22.666 8-27.999s11.666-8 18.999-8c8 0 15 3.333 21 10s9 16.334 9 29.001v332h137V0H237v39zm-75 649c10.667 0 20.832-1.835 30.499-5.502s18.834-7.5 27.501-11.5l24.5-11.5c7.667-3.667 14.5-5.5 20.5-5.5 9.333 0 17.833 2.167 25.5 6.5s18.167 14.833 31.5 31.5l65-36c-16-37.333-32.833-63.166-50.5-77.499S295.333 558 276 558c-12 0-23.167 1.833-33.5 5.5s-20 7.667-29 12l-26 12c-8.333 3.667-16.5 5.5-24.5 5.5s-16.5-2.667-25.5-8-19.833-15.667-32.5-31l-65 40c15.333 36 33.833 60.833 55.5 74.5S137.667 689 157 689z"/><glyph glyph-name="Umacron" unicode="Ū" horiz-adv-x="445" d="M401 695V170c0-60-15-104.333-45-133S281.667-6 223-6C105-6 46 52.667 46 170v525h136V167c0-16 4-27.167 12-33.5s17.667-9.5 29-9.5 20.833 3.167 28.5 9.5S263 151 263 167v528h138zM94 745v110h252V745H94z"/><glyph glyph-name="umacron" unicode="ū" horiz-adv-x="413" d="M232 40c-4-5.333-9.333-10.833-16-16.5s-13.834-10.667-21.501-15-15.667-7.833-24-10.5-16.5-4-24.5-4c-22.667 0-40.667 3.333-54 10S68.333 19.667 61 31 48.834 55.666 46.501 70.999s-3.5 31.666-3.5 48.999v375h137v-335c0-13.333 2.667-22.666 8-27.999s11.666-8 18.999-8c8 0 15 3.333 21 10s9 16.334 9 29.001v332h137V0H237v39zM83 566v110h252V566H83z"/><glyph glyph-name="Ubreve" unicode="Ŭ" horiz-adv-x="445" d="M401 695V170c0-60-15-104.333-45-133S281.667-6 223-6C105-6 46 52.667 46 170v525h136V167c0-16 4-27.167 12-33.5s17.667-9.5 29-9.5 20.833 3.167 28.5 9.5S263 151 263 167v528h138zM166 893c.667-7.333 2.665-15.166 5.998-23.499s7.833-16 13.5-23 12.167-12.833 19.5-17.5 15-7 23-7c9.333 0 17.5 2.333 24.5 7s13 10.5 18 17.5 8.667 14.667 11 23 3.833 16.166 4.5 23.499h95c-1.333-16-5.166-33-11.499-51s-15.666-34.667-27.999-50-27.833-28-46.5-38-41-15-67-15c-28 0-51.5 5-70.5 15s-34.667 22.667-47 38S89 824 83 842s-9.333 35-10 51h93z"/><glyph glyph-name="ubreve" unicode="ŭ" horiz-adv-x="413" d="M232 40c-4-5.333-9.333-10.833-16-16.5s-13.834-10.667-21.501-15-15.667-7.833-24-10.5-16.5-4-24.5-4c-22.667 0-40.667 3.333-54 10S68.333 19.667 61 31 48.834 55.666 46.501 70.999s-3.5 31.666-3.5 48.999v375h137v-335c0-13.333 2.667-22.666 8-27.999s11.666-8 18.999-8c8 0 15 3.333 21 10s9 16.334 9 29.001v332h137V0H237v39zm-85 645c.667-7.333 2.665-15.166 5.998-23.499s7.833-16 13.5-23 12.167-12.833 19.5-17.5 15-7 23-7c9.333 0 17.5 2.333 24.5 7s13 10.5 18 17.5 8.667 14.667 11 23 3.833 16.166 4.5 23.499h95c-1.333-16-5.166-33-11.499-51s-15.666-34.667-27.999-50-27.833-28-46.5-38-41-15-67-15c-28 0-51.5 5-70.5 15s-34.667 22.667-47 38S70 616 64 634s-9.333 35-10 51h93z"/><glyph glyph-name="Uring" unicode="Ů" horiz-adv-x="445" d="M401 695V170c0-60-15-104.333-45-133S281.667-6 223-6C105-6 46 52.667 46 170v525h136V167c0-16 4-27.167 12-33.5s17.667-9.5 29-9.5 20.833 3.167 28.5 9.5S263 151 263 167v528h138zm-180 29c-14 0-27.167 2.667-39.5 8s-23 12.5-32 21.5-16.167 19.667-21.5 32-8 25.5-8 39.5 2.667 27.167 8 39.5 12.5 23.166 21.5 32.499 19.667 16.666 32 21.999 25.5 8 39.5 8c14.667 0 28.167-2.667 40.5-8s23-12.666 32-21.999 16-20.166 21-32.499S322 839 322 825s-2.5-27.167-7.5-39.5-12-23-21-32-19.667-16.167-32-21.5-25.833-8-40.5-8zm0 131c-8 0-15.167-3-21.5-9s-9.5-13.333-9.5-22c0-9.333 3.167-16.666 9.5-21.999s13.5-8 21.5-8c8.667 0 16 2.667 22 8s9 12.666 9 21.999c0 8.667-3 16-9 22s-13.333 9-22 9z"/><glyph glyph-name="uring" unicode="ů" horiz-adv-x="413" d="M232 40c-4-5.333-9.333-10.833-16-16.5s-13.834-10.667-21.501-15-15.667-7.833-24-10.5-16.5-4-24.5-4c-22.667 0-40.667 3.333-54 10S68.333 19.667 61 31 48.834 55.666 46.501 70.999s-3.5 31.666-3.5 48.999v375h137v-335c0-13.333 2.667-22.666 8-27.999s11.666-8 18.999-8c8 0 15 3.333 21 10s9 16.334 9 29.001v332h137V0H237v39zm-23 479c-14 0-27.167 2.667-39.5 8s-23 12.5-32 21.5-16.167 19.667-21.5 32-8 25.5-8 39.5 2.667 27.167 8 39.5 12.5 23.166 21.5 32.499 19.667 16.666 32 21.999 25.5 8 39.5 8c14.667 0 28.167-2.667 40.5-8s23-12.666 32-21.999 16-20.166 21-32.499S310 634 310 620s-2.5-27.167-7.5-39.5-12-23-21-32-19.667-16.167-32-21.5-25.833-8-40.5-8zm0 131c-8 0-15.167-3-21.5-9s-9.5-13.333-9.5-22c0-9.333 3.167-16.666 9.5-21.999s13.5-8 21.5-8c8.667 0 16 2.667 22 8s9 12.666 9 21.999c0 8.667-3 16-9 22s-13.333 9-22 9z"/><glyph glyph-name="Uhungarumlaut" unicode="Ű" horiz-adv-x="445" d="M401 695V170c0-60-15-104.333-45-133S281.667-6 223-6C105-6 46 52.667 46 170v525h136V167c0-16 4-27.167 12-33.5s17.667-9.5 29-9.5 20.833 3.167 28.5 9.5S263 151 263 167v528h138zM60 777l157 142 76-76-180-130zm187 5l163 135 73-79-185-122z"/><glyph glyph-name="uhungarumlaut" unicode="ű" horiz-adv-x="413" d="M232 40c-4-5.333-9.333-10.833-16-16.5s-13.834-10.667-21.501-15-15.667-7.833-24-10.5-16.5-4-24.5-4c-22.667 0-40.667 3.333-54 10S68.333 19.667 61 31 48.834 55.666 46.501 70.999s-3.5 31.666-3.5 48.999v375h137v-335c0-13.333 2.667-22.666 8-27.999s11.666-8 18.999-8c8 0 15 3.333 21 10s9 16.334 9 29.001v332h137V0H237v39zM54 574l100 186 108-54-136-175zm160 0l100 186 108-54-136-175z"/><glyph glyph-name="Uogonek" unicode="Ų" horiz-adv-x="445" d="M401 695l-.003-525.003c0-54-12.167-95.167-36.5-123.5S304.331 1.331 256.998-4.002c-12.667-22-20.5-41.667-23.5-59s-4.5-29.666-4.5-36.999c0-13.333 4.333-23.666 13-30.999s19-11 31-11c6.667 0 14.334 1 23.001 3s18.667 6 30 12l22-58c-15.333-10-31.666-17-48.999-21s-33.666-6-48.999-6c-28.667 0-52.834 8.667-72.5 26S148-144 148-112c0 14 3.166 30.5 9.5 49.5S173-24 185-4C92.332 7.333 46 65.333 46 170v525h136V167c0-16 4-27.167 12-33.5s17.666-9.5 29-9.5 20.832 3.167 28.5 9.5S263 151 263 167v528h138z"/><glyph glyph-name="uogonek" unicode="ų" horiz-adv-x="413" d="M197-112c0 14.667 3.33 31.667 9.997 51s16.667 39.666 30 60.999v39l-5 1c-4-5.333-9.333-10.833-16-16.5s-13.834-10.667-21.5-15-15.668-7.833-24-10.5-16.5-4-24.5-4c-22.668 0-40.668 3.333-54 10s-23.667 15.667-31 27-12.166 24.666-14.499 39.999-3.5 31.666-3.5 48.999v375h137v-335c0-13.333 2.667-22.666 8-27.999s11.666-8 19-8c8 0 15 3.333 21 10s9 16.334 9 29.001v332h137v-495h-66c-13.334-23.333-21.667-44-25-62s-5-30.667-5-38c0-13.333 4.333-23.666 13-30.999s19-11 31-11c6.667 0 14.334 1 23.001 3s18.667 6 30 12l22-58c-15.333-10-31.666-17-48.999-21s-33.666-6-48.999-6c-28.667 0-52.834 8.667-72.5 26S197-144 197-112z"/><glyph glyph-name="Wcircumflex" unicode="Ŵ" horiz-adv-x="641" d="M320 331L258 0H108L7 696h155l37-388h5l64 388h112l64-395h6l31 395h155L535 0H385l-59 331h-6zm-3 470l-119-80-52 47 134 145h79l129-144-52-48z"/><glyph glyph-name="wcircumflex" unicode="ŵ" horiz-adv-x="582" d="M287 225l-16-119L255 0H104L10 494h144l17-175 13-128h5l15 128 21 175h129l24-177 19-126h5l12 129 15 174h141L476 0H325l-16 106-17 119h-5zm-3 384l-119-94-52 47 134 159h79l129-158-52-48z"/><glyph glyph-name="Ycircumflex" unicode="Ŷ" horiz-adv-x="414" d="M212 442l25 117 30 137h144L276 283V0H139v283L3 696h145l34-139 25-115h5zm4 359L97 721l-52 47 134 145h79l129-144-52-48z"/><glyph glyph-name="ycircumflex" unicode="ŷ" horiz-adv-x="382" d="M188 199l17.001 116 31 179h140l-143-564c-10-39.333-27-69.5-51-90.5s-56.667-31.5-98-31.5h-46v121h25c10.667 0 21.167 3.667 31.5 11S112.667-37.667 118-15l6 26L3 494h146l20-178 14-117h5zm-1.999 410l-119-94-52 47 134 159h79l129-158-52-48z"/><glyph glyph-name="Ydieresis" unicode="Ÿ" horiz-adv-x="414" d="M212 442l25 117 30 137h144L276 283V0H139v283L3 696h145l34-139 25-115h5zm26 287v130h119V729H238zm-174 0v130h118V729H64z"/><glyph glyph-name="Zacute" unicode="Ź" horiz-adv-x="360" d="M24 0v124l168 442H30v130h309V576L170 131h169V0H24zm66 786l167 130 77-93-195-105z"/><glyph glyph-name="zacute" unicode="ź" horiz-adv-x="350" d="M28 0v121l138 252H39v122h283V383L180 127h142V0H28zm101 574l100 186 108-54-136-175z"/><glyph glyph-name="Zdotaccent" unicode="Ż" horiz-adv-x="360" d="M24 0v124l168 442H30v130h309V576L170 131h169V0H24zm108 727v130h118V727H132z"/><glyph glyph-name="zdotaccent" unicode="ż" horiz-adv-x="350" d="M28 0v121l138 252H39v122h283V383L180 127h142V0H28zm103 547v130h118V547H131z"/><glyph glyph-name="Zcaron" unicode="Ž" horiz-adv-x="360" d="M24 0v124l168 442H30v130h309V576L170 131h169V0H24zm281 913l52-48-129-140h-79L15 866l52 47 119-80z"/><glyph glyph-name="zcaron" unicode="ž" horiz-adv-x="350" d="M28 0v121l138 252H39v122h283V383L180 127h142V0H28zm278 721l52-48-129-158h-79L16 674l52 47 119-94z"/><glyph glyph-name="florin" unicode="ƒ" horiz-adv-x="430" d="M76 441l75.999-.001 8 63c2.667 24 7.334 47.833 14.001 71.5s16.5 44.667 29.5 63 29.5 33.333 49.5 45 44.667 17.5 74 17.5c15.333 0 30.833-.667 46.5-2s31.167-6 46.5-14l-26-113c-12.667 5.333-23.5 8.333-32.5 9s-16.167 1-21.5 1c-14 0-24.833-7.167-32.5-21.5s-12.5-29.833-14.5-46.5l-9-73h71v-115h-85l-10-101.5c-3.333-33-7-66.5-11-100.5-8-66-23.333-116.833-46-152.5s-58.667-53.5-108-53.5c-12 0-26.5 1.333-43.5 4S16.333-69.667-3-61L30 46c9.333-5.333 17-8.333 23-9s10.667-1 14-1c13.333 0 23.333 5.667 30 17s11.667 31 15 59l23 214H76v115z"/><glyph glyph-name="Ohorn" unicode="Ơ" horiz-adv-x="481" d="M400 170c0-60-14.999-104.335-44.999-133.002s-74.333-43-133-43c-118 0-177 58.667-177 176v357c0 60 15.667 104.167 47 132.5s74.666 42.5 129.999 42.5c69.333 0 118-19.333 146-58 7.333 6 12.833 15.333 16.5 28s5.5 30.334 5.5 53.001v71h98v-86c0-40-7.833-73.167-23.5-99.5S427 565.333 399 554c0-4.667.167-9.167.5-13.5s.5-8.833.5-13.5V170zM262.001 531.998c0 15.333-3.833 26.333-11.5 33s-17.167 10-28.5 10-21-3.333-29-10-12-17.667-12-33v-368c0-16 4-27.167 12-33.5s17.667-9.5 29-9.5 20.833 3.167 28.5 9.5 11.5 17.5 11.5 33.5v368z"/><glyph glyph-name="ohorn" unicode="ơ" horiz-adv-x="449" d="M202 503c29.333 0 54.167-4.165 74.5-12.498s36.833-19.5 49.5-33.5c8.667 6 15 15.5 19 28.5s6 31.167 6 54.5v67h98v-82c0-40-7.667-73.167-23-99.5s-37-45.166-65-56.499c2-18.667 3.333-38.834 4-60.501s1-41.834 1-60.501v-15c0-18-.167-35.833-.5-53.5S364 144.667 362 128c-3.333-28.667-10.833-51.834-22.5-69.501s-25.334-31.334-41.001-41.001-32.667-16.167-51-19.5-36.166-5-53.499-5c-23.333 0-43.5 3-60.5 9S102 15.831 90 25.498 68.167 46.332 60.5 58.999s-13.167 25.667-16.5 39c-2 8-3.667 18-5 30s-2.333 24.667-3 38-1.167 26.833-1.5 40.5-.5 26.5-.5 38.5c0 14.667.333 30.167 1 46.5s1.667 32 3 47 3 29 5 42 4.667 23.833 8 32.5c10 26.667 27.667 48.334 53 65.001s58 25 98 25zm.001-126.998c-12.667 0-21.333-6.669-26-20.002-2.667-6.667-4.167-20.167-4.5-40.5s-.833-44.5-1.5-72.5v-15c0-17.333.167-33.666.5-48.999s1.833-27 4.5-35c3.333-14.667 12.333-22 27-22 7.333 0 13.333 2.333 18 7s7 9.667 7 15c1.333 4 2.5 16 3.5 36s1.5 41.667 1.5 65c0 22-.5 43.333-1.5 64s-2.167 35.334-3.5 44.001c-1.333 6.667-4 12.167-8 16.5s-9.667 6.5-17 6.5z"/><glyph glyph-name="Uhorn" unicode="Ư" horiz-adv-x="526" d="M401 695l-.001-59.999c14.667 3.333 25.334 11.5 32.001 24.5s10 34.833 10 65.5v71h98v-86c0-51.333-12.667-91.333-38-120S443.667 545.667 401 543V170c0-60-15-104.333-45-133S281.667-6 223-6C105-6 46 52.667 46 170v525h136V167c0-16 4-27.167 12-33.5s17.667-9.5 29-9.5 20.833 3.167 28.5 9.5S263 151 263 167v528h138z"/><glyph glyph-name="uhorn" unicode="ư" horiz-adv-x="499" d="M232 40c-4-5.333-9.332-10.832-15.999-16.499s-13.834-10.667-21.501-15-15.667-7.833-24-10.5-16.5-4-24.5-4c-22.667 0-40.667 3.333-54 10s-23.666 15.667-30.999 27S48.835 55.667 46.502 71s-3.5 31.666-3.5 48.999v375h137v-335c0-13.333 2.667-22.666 8-27.999s11.666-8 18.999-8c8 0 15 3.333 21 10s9 16.334 9 29.001v332h137v-44c13.333 3.333 23.166 11.5 29.499 24.5s9.5 34.5 9.5 64.5v67h98v-82c0-50.667-12.333-90.334-37-119.001s-58-44.667-100-48V0H237v39z"/><glyph glyph-name="AEacute" unicode="Ǽ" horiz-adv-x="642" d="M301 0v151H191L152 0H8l197 696h415V566H437V420h160V287H437V136h183V0H301zm-77 281h77v283h-5zm98 505l167 130 77-93-195-105z"/><glyph glyph-name="aeacute" unicode="ǽ" horiz-adv-x="587" d="M230 208h-25.001c-11.333 0-21.166-3.667-29.499-11S163 176.334 163 157.001c0-12.667 3.333-21.834 10-27.501s15-8.5 25-8.5 17.833 4 23.5 12 8.5 18.333 8.5 31v44zm136.999 95h57v46c0 6.667-3 12.667-9 18s-12.667 8-20 8c-8 0-14.667-2.667-20-8s-8-11-8-17v-47zm29-309c-28 0-53.83 4.83-77.497 14.497s-41.167 24.834-52.5 45.501c-21.333-26-42-42.5-62-49.5s-37.333-10.5-52-10.5c-24 0-44 3.833-60 11.5S63.169 23.832 53.502 37.5s-16.334 30-20.001 49S28 126.332 28 149c0 20 3 39.167 9 57.5S52.334 241 65 255s29.167 25.167 49.5 33.5S159 301 187 301h43v42c0 9.333-2.167 16.833-6.5 22.5S210.668 374 198 374c-6.667 0-13.834-2-21.501-6s-13.167-14.667-16.5-32L41 373c21.333 85.333 78 128 170 128 19.333 0 37-2.333 53-7s29.667-11.667 41-21c11.333 10 25 17.5 41 22.5s32.667 7.5 50 7.5c50 0 90-13.5 120-40.5S561 396 561 344V217H367v-68c0-7.333 2.667-13.5 8-18.5s12-7.5 20-7.5c7.333 0 14.166 2.833 20.499 8.5s10.166 15.834 11.499 30.501l135-22c-2.667-45.333-18.667-81-48-107s-68.666-39-118-39zM254.002 573.997l100 186 108-54-136-175z"/><glyph glyph-name="Oslashacute" unicode="Ǿ" horiz-adv-x="445" d="M43 12l25.001 53c-15.333 26-23 61-23 105v357c0 60 15.667 104.167 47 132.5S166.667 702 222 702c54.667 0 97-12 127-36l16 34 35-18-24-50c16-27.333 24-62.333 24-105V170c0-60-15-104.333-45-133S280.667-6 222-6C166-6 123 7 93 33L75-5zm100.001 774l167 130 77-93-195-105zm119-396l-81-172v-54c0-16 4-27.167 12-33.5s17.667-9.5 29-9.5 20.833 3.167 28.5 9.5 11.5 17.5 11.5 33.5v226zm-81-83l81 173v52c0 15.333-3.833 26.333-11.5 33s-17.167 10-28.5 10-21-3.333-29-10-12-17.667-12-33V307z"/><glyph glyph-name="oslashacute" unicode="ǿ" horiz-adv-x="401" d="M202 503c16 0 30.501-1.332 43.501-3.999s25.167-6.334 36.5-11.001l29 64 27-14-29-65c10.667-7.333 19.5-15.833 26.5-25.5s12.5-20.167 16.5-31.5c3.333-9.333 5.833-20.666 7.5-33.999s3-27.5 4-42.5 1.667-30.5 2-46.5.5-31 .5-45v-15c0-18-.167-35.833-.5-53.5s-1.5-34.834-3.5-51.501c-3.333-28.667-10.833-51.834-22.5-69.501S314.167 27.165 298.5 17.498s-32.667-16.167-51-19.5-36.166-5-53.499-5c-18.667 0-35.334 1.833-50.001 5.5s-27.667 8.834-39 15.501l-20-45-26 14 22 50c-9.333 9.333-17 19.5-23 30.5s-10.667 22.5-14 34.5c-2 8-3.667 18-5 30s-2.333 24.667-3 38-1.167 26.833-1.5 40.5-.5 26.5-.5 38.5c0 14.667.333 30.167 1 46.5s1.667 32 3 47 3 29 5 42 4.667 23.833 8 32.5c10 26.667 27.667 48.334 53 65.001s58 25 98 25zm-65.999 71.001l100 186 108-54-136-175zm96-329l.001 27c0 8.667-.333 17-1 25l-60-134c1.333-8.667 2.666-15 3.999-19 3.333-14.667 12.333-22 27-22 7.333 0 13.333 2.333 18 7s7 9.667 7 15c1.333 4 2.5 16 3.5 36s1.5 41.667 1.5 65zm-29.999 131c-12.667 0-21.332-6.667-25.999-20-2.667-6.667-4.167-20.167-4.5-40.5s-.833-44.5-1.5-72.5v-9l55 125c-4.667 11.333-12.334 17-23.001 17z"/><glyph glyph-name="Scommaaccent" unicode="Ș" horiz-adv-x="427" d="M397 205c0-32-2.831-61.002-8.498-87.002s-15.334-48.167-29.001-66.5-32.167-32.5-55.5-42.5-52.666-15-87.999-15c-32 0-59.5 4.667-82.5 14s-41.667 22.166-56 38.499-24.833 35.333-31.5 57-10 44.834-10 69.501l136 26c1.333-25.333 5.166-44.333 11.499-57s18.166-19 35.499-19c10 0 17.833 2.333 23.5 7s10 10.667 13 18 5 16 6 26 1.5 20 1.5 30c0 14-1 25.667-3 35s-5.5 17.333-10.5 24-11.833 12.5-20.5 17.5-19.334 10.167-32.001 15.5c-34 14-61.333 28.5-82 43.5s-36.5 31-47.5 48-18.167 35-21.5 54-5 39.833-5 62.5c0 28.667 3.333 55.167 10 79.5s17.167 45.166 31.5 62.499 33 31 56 41 50.833 15 83.5 15c34.667 0 63.334-5.5 86.001-16.5s40.5-25 53.5-42 22.167-35.833 27.5-56.5 8-40.667 8-60l-134-29c0 10-.5 19.333-1.5 28s-3.167 16.5-6.5 23.5-7.833 12.5-13.5 16.5-13.5 6-23.5 6c-9.333 0-16.666-2.167-21.999-6.5s-9.5-9.666-12.5-15.999-5-13.5-6-21.5-1.5-15.667-1.5-23c0-9.333.667-17.666 2-24.999s4.666-14.333 9.999-21 13.166-13.167 23.499-19.5 24.833-13.166 43.5-20.499c32-12.667 57.333-26 76-40s32.834-29.333 42.501-46 16-35.5 19-56.5 4.5-44.833 4.5-71.5zM228.002-276.002h-66l28 107h-24v111h117v-109z"/><glyph glyph-name="scommaaccent" unicode="ș" horiz-adv-x="387" d="M158 162c-.667-13.333 2.501-23.999 9.501-31.999s15.833-12 26.5-12c8.667 0 16.167 3.167 22.5 9.5s9.5 13.5 9.5 21.5c0 17.333-2.833 29-8.5 35s-13.5 10.667-23.5 14l-57.5 19.5c-19 6.333-36.333 14.666-52 24.999S56.167 266.666 46.5 283.999s-14.5 40.333-14.5 69c0 20.667 3.5 40.167 10.5 58.5S60 445.665 74 458.998s31.167 24 51.5 32 43.833 12 70.5 12c54 0 94.333-13.667 121-41s40.334-64 41.001-110l-130-17c0 9.333-2.5 18.833-7.5 28.5s-13.167 14.5-24.5 14.5c-10.667 0-18.167-3.333-22.5-10s-6.5-12.667-6.5-18c0-10 1.667-17.667 5-23s10.666-9.666 21.999-12.999c24-7.333 46-14.666 66-21.999s37.5-17 52.5-29 26.667-27 35-45 12.5-41 12.5-69c0-20-2.833-39.333-8.5-58S336.333 55.833 323 41.5 292.167 15.667 270.5 7 222-6 190-6C140.667-6 101.667 6.333 73 31S29 93 27 143zm43.001-437.999h-66l28 107h-24v111h117v-109z"/><glyph glyph-name="schwa" unicode="ə" horiz-adv-x="394" d="M228 278c0 16-.335 30.836-1.002 44.503s-2 24.167-4 31.5c-3.333 14.667-11.666 22-24.999 22-7.333 0-13.5-3-18.5-9s-8.167-16.333-9.5-31l-135 20c2.667 45.333 18 81.333 46 108s66.667 40 116 40c24.667 0 46.167-2.833 64.5-8.5s33.666-13.334 45.999-23.001 22.333-20.834 30-33.501 13.167-25.667 16.5-39c2-8 3.667-18 5-30s2.333-24.667 3-38 1.167-26.833 1.5-40.5.5-26.5.5-38.5c0-15.333-.333-31-1-47s-1.667-31.5-3-46.5-3.166-29-5.499-42S349.333 93.668 346 85c-10-26.666-27.333-48.333-52-65S237-5 197-5C147-5 107.667 8.5 79 35.5S36 102 36 154v124h192zm-6.002-135.997c1.333 3.333 2.332 9.669 2.999 19.002s1.334 20.666 2.001 33.999h-54v-42c0-6.667 1.833-13.334 5.5-20.001s10.167-10 19.5-10c12 0 20 6.333 24 19z"/><glyph glyph-name="primemod" unicode="ʹ" horiz-adv-x="247" d="M286 706L138 402l-97 28 109 322z"/><glyph glyph-name="circumflex" unicode="ˆ" horiz-adv-x="385" d="M211 609L92 515l-52 47 134 159h79l129-158-52-48z"/><glyph glyph-name="caron" unicode="ˇ" horiz-adv-x="385" d="M330 721l52-48-129-158h-79L40 674l52 47 119-94z"/><glyph glyph-name="breve" unicode="˘" horiz-adv-x="484" d="M170 685c.667-7.333 2.665-15.166 5.998-23.499s7.833-16 13.5-23 12.167-12.833 19.5-17.5 15-7 23-7c9.333 0 17.5 2.333 24.5 7s13 10.5 18 17.5 8.667 14.667 11 23 3.833 16.166 4.5 23.499h95c-1.333-16-5.166-33-11.499-51s-15.666-34.667-27.999-50-27.833-28-46.5-38-41-15-67-15c-28 0-51.5 5-70.5 15s-34.667 22.667-47 38S93 616 87 634s-9.333 35-10 51h93z"/><glyph glyph-name="dotaccent" unicode="˙" horiz-adv-x="408" d="M164 547v130h118V547H164z"/><glyph glyph-name="ring" unicode="˚" horiz-adv-x="408" d="M221 519c-14 0-27.167 2.667-39.5 8s-23 12.5-32 21.5-16.167 19.667-21.5 32-8 25.5-8 39.5 2.667 27.167 8 39.5 12.5 23.166 21.5 32.499 19.667 16.666 32 21.999 25.5 8 39.5 8c14.667 0 28.167-2.667 40.5-8s23-12.666 32-21.999 16-20.166 21-32.499S322 634 322 620s-2.5-27.167-7.5-39.5-12-23-21-32-19.667-16.167-32-21.5-25.833-8-40.5-8zm0 131c-8 0-15.167-3-21.5-9s-9.5-13.333-9.5-22c0-9.333 3.167-16.666 9.5-21.999s13.5-8 21.5-8c8.667 0 16 2.667 22 8s9 12.666 9 21.999c0 8.667-3 16-9 22s-13.333 9-22 9z"/><glyph glyph-name="ogonek" unicode="˛" horiz-adv-x="395" d="M234-114c0 15.333 3.998 33.832 11.998 55.499s19.667 44.167 35 67.5h66l3-4c-15.333-24.667-25-46.667-29-66s-6-33-6-41c0-13.333 4.333-23.666 13-30.999s19-11 31-11c6.667 0 14.334 1 23.001 3s18.667 6 30 12l22-58c-15.333-10-31.666-17-48.999-21s-33.666-6-48.999-6c-28.667 0-52.834 8.667-72.501 26S234-146 234-114z"/><glyph glyph-name="tilde" unicode="˜" horiz-adv-x="362" d="M128 689c10.667 0 20.832-1.835 30.499-5.502s18.834-7.5 27.501-11.5l24.5-11.5c7.667-3.667 14.5-5.5 20.5-5.5 9.333 0 17.833 2.167 25.5 6.5s18.167 14.833 31.5 31.5l65-36c-16-37.333-32.833-63.166-50.5-77.499S266.333 558 247 558c-12 0-23.167 1.833-33.5 5.5s-20 7.667-29 12l-26 12c-8.333 3.667-16.5 5.5-24.5 5.5s-16.5-2.667-25.5-8-19.833-15.667-32.5-31l-65 40c15.333 36 33.833 60.833 55.5 74.5S108.667 689 128 689z"/><glyph glyph-name="hungarumlaut" unicode="˝" horiz-adv-x="408" d="M62 574l100 186 108-54-136-175zm160 0l100 186 108-54-136-175z"/><glyph glyph-name="tonos" unicode="΄" horiz-adv-x="385" d="M129 574l100 186 108-54-136-175z"/><glyph glyph-name="dieresistonos" unicode="΅" horiz-adv-x="469" d="M328 555v122h119V555H328zm-309 0v122h118V555H19zm130 4l75 199 114-39-112-191z"/><glyph glyph-name="Alphatonos" unicode="Ά" horiz-adv-x="449" d="M276 136H174L153 0H9l132 696h166L440 0H297zm-69 239l-14-111h63l-13 111-15 141h-6zm-325 179l100 186 108-54-136-175z"/><glyph glyph-name="anoteleia" unicode="·" horiz-adv-x="229" d="M47 259v150h135V259H47z"/><glyph glyph-name="Epsilontonos" unicode="Έ" horiz-adv-x="394" d="M51 0v696h319V566H187V419h160V288H187V131h183V0H51zm-230 574l100 186 108-54-136-175z"/><glyph glyph-name="Etatonos" unicode="Ή" horiz-adv-x="459" d="M274 0v288h-87V0H51v696h136V420h87v276h135V0H274zm-450 554l100 186 108-54-136-175z"/><glyph glyph-name="Iotatonos" unicode="Ί" horiz-adv-x="242" d="M53 0v696h136V0H53zm-236 554l100 186 108-54-136-175z"/><glyph glyph-name="Omicrontonos" unicode="Ό" horiz-adv-x="445" d="M262 532c0 15.333-3.833 26.333-11.5 33s-17.167 10-28.5 10-21-3.333-29-10-12-17.667-12-33V164c0-16 4-27.167 12-33.5s17.667-9.5 29-9.5 20.833 3.167 28.5 9.5S262 148 262 164v368zm138-362c0-60-14.999-104.333-44.999-133s-74.333-43-133-43c-118 0-177 58.667-177 176v357c0 60 15.667 104.167 47 132.5S166.667 702 222 702c60.667 0 105.5-14.167 134.5-42.5S400 587 400 527V170zm-557.999 384l100 186 108-54-136-175z"/><glyph glyph-name="Upsilontonos" unicode="Ύ" horiz-adv-x="414" d="M212 442l25 117 30 137h144L276 283V0H139v283L3 696h145l34-139 25-115h5zm-425 112l100 186 108-54-136-175z"/><glyph glyph-name="Omegatonos" unicode="Ώ" horiz-adv-x="446" d="M363 128l46.999-.004v-128h-168v136c13.333 6.667 20 20 20 40v349c0 31.333-13.333 47-40 47-27.333 0-41-15.667-41-47v-349c0-11.333 1.833-20 5.5-26s9.167-10.333 16.5-13v-137h-166v128h44l1 3c-24.667 18.667-37 51.334-37 98.001v299c0 30 4.5 55.833 13.5 77.5s21.333 39.834 37 54.501 34.334 25.5 56.001 32.5 45.167 10.5 70.5 10.5c56.667 0 100.5-14.167 131.5-42.5s46.5-72.5 46.5-132.5v-299c0-25.333-3.5-45.666-10.5-60.999S373.333 140.333 362 131zm-506.001 425.996l100 186 108-54-136-175z"/><glyph glyph-name="iotadieresistonos" unicode="ΐ" horiz-adv-x="231" d="M213-3c-2 0-5.333-.167-10-.5s-9.5-.5-14.5-.5H165C123-4 92.667 6.5 74 27.5S46 80 46 122v372h129V149c0-19.333 3-31.5 9-36.5s16.333-7.833 31-8.5zm4 558v122h119V555H217zm-309 0v122H26V555H-92zm130 4l75 199 114-39-112-191z"/><glyph glyph-name="Alpha" unicode="Α" horiz-adv-x="449" d="M276 136H174L153 0H9l132 696h166L440 0H297zm-69 239l-14-111h63l-13 111-15 141h-6z"/><glyph glyph-name="Beta" unicode="Β" horiz-adv-x="446" d="M264 498c0 27.333-5 45.5-15 54.5S223 566 201 566h-14V428h17c40 0 60 23.333 60 70zm6-272c0 28-4.833 47.668-14.5 59.001s-24.167 17-43.5 17h-25v-171h24c12.667 0 22.834 2.5 30.501 7.5s13.667 11.833 18 20.5 7.166 18.667 8.499 30 2 23.666 2 36.999zm48 138.001c16-5.333 29.169-13 39.502-23s18.666-21.5 24.999-34.5 10.833-27.167 13.5-42.5 4-31 4-47c0-74.667-16.333-129.5-49-164.5S269.667.001 205 .001H51v696h157c62 0 108.5-16.333 139.5-49s46.5-81 46.5-145c0-14-1.5-27.833-4.5-41.5s-7.5-26.5-13.5-38.5-13.833-22.667-23.5-32-21.167-16.333-34.5-21v-5z"/><glyph glyph-name="Gamma" unicode="Γ" horiz-adv-x="394" d="M187 566V0H51v696h319V566H187z"/><glyph glyph-name="Delta" unicode="Δ" horiz-adv-x="449" d="M9 0l132 696h166L440 0H9zm198 375l-32-245h101l-33 245-15 141h-6z"/><glyph glyph-name="Delta" unicode="∆" horiz-adv-x="449" d="M9 0l132 696h166L440 0H9zm198 375l-32-245h101l-33 245-15 141h-6z"/><glyph glyph-name="Epsilon" unicode="Ε" horiz-adv-x="394" d="M51 0v696h319V566H187V419h160V288H187V131h183V0H51z"/><glyph glyph-name="Zeta" unicode="Ζ" horiz-adv-x="360" d="M24 0v124l168 442H30v130h309V576L170 131h169V0H24z"/><glyph glyph-name="Eta" unicode="Η" horiz-adv-x="459" d="M274 0v288h-87V0H51v696h136V420h87v276h135V0H274z"/><glyph glyph-name="Theta" unicode="Θ" horiz-adv-x="445" d="M407 173c0-60-16.167-104.833-48.5-134.5S280.667-6 222-6 118 8.833 86 38.5 38 113 38 173v351c0 59.333 16.833 103.833 50.5 133.5S166.667 702 222 702c60.667 0 106.667-14.667 138-44s47-74 47-134V173zm-185-49c11.333 0 22.001 3.667 32.001 11s15 19 15 35v120h-95V170c0-16 5.167-27.667 15.5-35s21.166-11 32.499-11zm47.001 402c0 15.333-5.001 26.833-15.001 34.5S233.333 572 222 572s-22.166-3.833-32.499-11.5-15.5-19.167-15.5-34.5V422h95v104z"/><glyph glyph-name="Iota" unicode="Ι" horiz-adv-x="242" d="M53 0v696h136V0H53z"/><glyph glyph-name="Kappa" unicode="Κ" horiz-adv-x="446" d="M194 481l95 215h145L289 408 449 0H308l-97 267-24-63V0H51v696h136V481h7z"/><glyph glyph-name="Lambda" unicode="Λ" horiz-adv-x="449" d="M243 375l-15 141h-6l-15-141L153 0H9l132 696h166L440 0H297z"/><glyph glyph-name="Mu" unicode="Μ" horiz-adv-x="582" d="M246 136l-29 89-32 103h-5V0H45v696h127l69-186 47-138h6l48 141 68 183h127V0H401v325h-4l-33-108-27-81h-91z"/><glyph glyph-name="Nu" unicode="Ν" horiz-adv-x="481" d="M301 367v329h133V0H318l-82 203-48 132h-5V0H48v696h119l82-202 47-127h5z"/><glyph glyph-name="Xi" unicode="Ξ" horiz-adv-x="394" d="M31 567v129h337V567H31zm29-278v128h278V289H60zM31 0v131h337V0H31z"/><glyph glyph-name="Omicron" unicode="Ο" horiz-adv-x="445" d="M262 532c0 15.333-3.833 26.333-11.5 33s-17.167 10-28.5 10-21-3.333-29-10-12-17.667-12-33V164c0-16 4-27.167 12-33.5s17.667-9.5 29-9.5 20.833 3.167 28.5 9.5S262 148 262 164v368zm138-362c0-60-14.999-104.333-44.999-133s-74.333-43-133-43c-118 0-177 58.667-177 176v357c0 60 15.667 104.167 47 132.5S166.667 702 222 702c60.667 0 105.5-14.167 134.5-42.5S400 587 400 527V170z"/><glyph glyph-name="Pi" unicode="Π" horiz-adv-x="446" d="M259 0v563h-72V0H51v696h343V0H259z"/><glyph glyph-name="Rho" unicode="Ρ" horiz-adv-x="428" d="M216 696c29.333 0 55.833-3.5 79.5-10.5s44-18.667 61-35 30.167-38.333 39.5-66 14-62.167 14-103.5c0-71.333-15-126.833-45-166.5S286.333 255 219 255h-32V0H51v696h165zm-29-130V385.999h23c8.667 0 17.167 1.167 25.5 3.5s15.833 7 22.5 14 12 16.833 16 29.5 6 29 6 49c0 30.667-6.167 52.334-18.5 65.001s-28.833 19-49.5 19h-25z"/><glyph glyph-name="Sigma" unicode="Σ" horiz-adv-x="350" d="M172 131h167V0H21v124l79 235-81 217v120h309V566H171l78-207z"/><glyph glyph-name="Tau" unicode="Τ" horiz-adv-x="360" d="M247 566V0H111v566H4v130h350V566H247z"/><glyph glyph-name="Upsilon" unicode="Υ" horiz-adv-x="414" d="M212 442l25 117 30 137h144L276 283V0H139v283L3 696h145l34-139 25-115h5z"/><glyph glyph-name="Phi" unicode="Φ" horiz-adv-x="613" d="M239 542c-20-.667-35.333-7.333-46-20s-16-29-16-49V247c0-20 5.333-36.167 16-48.5s26-18.833 46-19.5v363zm197-68.999c0 22-5.833 38.831-17.5 50.498S392 541.333 374 542V179c18 .667 32.833 7.834 44.5 21.501s17.5 29.167 17.5 46.5v226zm132-220.002c0-30-4.832-56.502-14.499-79.502s-23-42.667-40-59-37.5-29.166-61.5-38.499-50-15.333-78-18v-58h-135v58c-28.667 2-54.834 7.667-78.501 17s-44 22.333-61 39-30.333 36.5-40 59.5-14.5 49.5-14.5 79.5v219c0 30 4.833 56.5 14.5 79.5s23 42.5 40 58.5 37.5 28.5 61.5 37.5 50 14.5 78 16.5v32h135v-32c59.333-3.333 106.5-21.666 141.5-54.999s52.5-80 52.5-140v-216z"/><glyph glyph-name="Chi" unicode="Χ" horiz-adv-x="450" d="M222 204L161 0H3l144 363L13 696h159l51-172h6l48 172h160L299 363 447 0H287l-61 204h-4z"/><glyph glyph-name="Psi" unicode="Ψ" horiz-adv-x="613" d="M568 695l-.001-332.002c0-30-5.667-57.167-17-81.5s-26.166-45.166-44.499-62.499-39-31-62-41-46.5-15.333-70.5-16v-162H239v162c-26.667.667-51.834 5.667-75.501 15s-44.167 22.333-61.5 39S70.833 252.833 60.5 276.5 45 327 45 357v338h132V354c0-20 5.333-36 16-48s26-18.333 46-19v408h135V287c19.333 1.333 34.5 8 45.5 20s16.5 27.667 16.5 47v341h132z"/><glyph glyph-name="Omega" unicode="Ω" horiz-adv-x="446" d="M363 128l46.999-.004v-128h-168v136c13.333 6.667 20 20 20 40v349c0 31.333-13.333 47-40 47-27.333 0-41-15.667-41-47v-349c0-11.333 1.833-20 5.5-26s9.167-10.333 16.5-13v-137h-166v128h44l1 3c-24.667 18.667-37 51.334-37 98.001v299c0 30 4.5 55.833 13.5 77.5s21.333 39.834 37 54.501 34.334 25.5 56.001 32.5 45.167 10.5 70.5 10.5c56.667 0 100.5-14.167 131.5-42.5s46.5-72.5 46.5-132.5v-299c0-25.333-3.5-45.666-10.5-60.999S373.333 140.333 362 131z"/><glyph glyph-name="Iotadieresis" unicode="Ϊ" horiz-adv-x="242" d="M53 0v696h136V0H53zm94 729v130h119V729H147zm-174 0v130H91V729H-27z"/><glyph glyph-name="Upsilondieresis" unicode="Ϋ" horiz-adv-x="414" d="M212 442l25 117 30 137h144L276 283V0H139v283L3 696h145l34-139 25-115h5zm22 287v130h119V729H234zm-174 0v130h118V729H60z"/><glyph glyph-name="alphatonos" unicode="ά" horiz-adv-x="401" d="M203 122c12.667 0 21.33 6.669 25.997 20.002 2.667 6.667 3.834 20.167 3.501 40.5s-.166 44.5.501 72.5v11c0 17.333-.167 33.666-.5 48.999S231.333 340.667 230 346c-3.333 14.667-12.333 22-27 22-7.333 0-13.333-2.333-18-7s-7-9.667-7-15c-1.333-4-2.333-14.667-3-32s-1-37.666-1-60.999c0-22 .333-43.333 1-64s1.667-35.334 3-44.001c1.333-6.667 4-12.167 8-16.5s9.667-6.5 17-6.5zM149.996-8.998c-20.667 0-37.331 2.335-49.998 7.002s-22.834 11-30.501 19-13.5 17.333-17.5 28-7.667 21.667-11 33c-2 8-3.667 18.667-5 32s-2.333 27.666-3 42.999-1.167 31.166-1.5 47.499-.5 31.5-.5 45.5c0 25.333.5 48.833 1.5 70.5s2.167 38.167 3.5 49.5c5.333 48.667 17.5 83.167 36.5 103.5s46.167 30.5 81.5 30.5c6 0 12.5-.667 19.5-2s14-3.5 21-6.5 13.833-7.5 20.5-13.5 12-13.333 16-22l4 2v36h134v-494h-137v29h-5c-4-6-9.333-11.333-16-16s-13.834-8.667-21.501-12-15-5.833-22-7.5-12.833-2.5-17.5-2.5zm-19.997 583.002l100 186 108-54-136-175z"/><glyph glyph-name="epsilontonos" unicode="έ" horiz-adv-x="392" d="M204 503c24.667 0 47.497-3.501 68.497-10.501s39-17.167 54-30.5 26.833-29.833 35.5-49.5 13-42.5 13-68.5l-137-17c0 17.333-3.333 29.666-10 36.999s-14.667 11-24 11c-7.333 0-13.666-2.5-18.999-7.5s-8-11.167-8-18.5v-22c0-8 2.833-15.167 8.5-21.5s14.834-9.5 27.501-9.5h43v-100h-43c-14.667 0-24.334-3.667-29-11s-7-15-7-23v-12c0-7.333 2.832-13.666 8.5-18.999s12.833-8 21.5-8c7.333 0 14.333 3.167 21 9.5s10 17.833 10 34.5l137-21c-1.333-46.667-16-83.5-44-110.5s-66.667-40.5-116-40.5c-25.333 0-48.833 2.667-70.5 8s-40.5 14-56.5 26-28.5 27.5-37.5 46.5-13.5 42.5-13.5 70.5c0 23.333 3.333 44.333 10 63S69.333 242.333 94 253v1c-21.333 10-35.5 23.333-42.5 40S41 331 41 355c0 42.667 14.333 78 43 106s68.667 42 120 42zm-75.003 70.999l100 186 108-54-136-175z"/><glyph glyph-name="etatonos" unicode="ή" horiz-adv-x="413" d="M184 455c8.667 11.333 20.998 21.833 36.998 31.5s31.667 14.5 47 14.5c22.667 0 40.834-3.333 54.501-10s24.167-15.667 31.5-27 12.333-24.666 15-39.999 4-31.666 4-48.999v-375h-137v335c0 13.333-2.667 22.666-8 27.999s-11.666 8-18.999 8c-8 0-15-3.333-21-10s-9-16.334-9-29.001V0H42v495h137v-39zm-62.002 119l100 186 108-54-136-175z"/><glyph glyph-name="iotatonos" unicode="ί" horiz-adv-x="231" d="M213-3c-2 0-5.333-.167-10-.5s-9.5-.5-14.5-.5H165C123-4 92.667 6.5 74 27.5S46 80 46 122v372h129V149c0-19.333 3-31.5 9-36.5s16.333-7.833 31-8.5zM43 574l100 186 108-54-136-175z"/><glyph glyph-name="upsilondieresistonos" unicode="ΰ" horiz-adv-x="401" d="M172 493l.001-264.999c0-17.333.167-33.666.5-48.999s1.833-27 4.5-35c3.333-14.667 11.666-22 24.999-22 7.333 0 13.333 2.333 18 7s7 9.667 7 15c1.333 4 2 16 2 36v313h137v-260c0-18-.167-35.833-.5-53.5s-1.5-34.834-3.5-51.501c-3.333-28.667-10.833-51.834-22.5-69.501s-25.334-31.334-41.001-41.001-32.667-16.167-51-19.5-36.166-5-53.499-5c-23.333 0-43.5 3-60.5 9S102 15.832 90 25.499 68.167 46.333 60.5 59 47.333 84.667 44 98c-2 8-3.667 18-5 30s-2.333 24.667-3 38-1 26.833-1 40.5V493h137zm123.001 62.001v122h119v-122h-119zm-309 0v122h118v-122h-118zm130 4l75 199 114-39-112-191z"/><glyph glyph-name="alpha" unicode="α" horiz-adv-x="401" d="M203 122c12.667 0 21.33 6.669 25.997 20.002 2.667 6.667 3.834 20.167 3.501 40.5s-.166 44.5.501 72.5v11c0 17.333-.167 33.666-.5 48.999S231.333 340.667 230 346c-3.333 14.667-12.333 22-27 22-7.333 0-13.333-2.333-18-7s-7-9.667-7-15c-1.333-4-2.333-14.667-3-32s-1-37.666-1-60.999c0-22 .333-43.333 1-64s1.667-35.334 3-44.001c1.333-6.667 4-12.167 8-16.5s9.667-6.5 17-6.5zM149.996-8.998c-20.667 0-37.331 2.335-49.998 7.002s-22.834 11-30.501 19-13.5 17.333-17.5 28-7.667 21.667-11 33c-2 8-3.667 18.667-5 32s-2.333 27.666-3 42.999-1.167 31.166-1.5 47.499-.5 31.5-.5 45.5c0 25.333.5 48.833 1.5 70.5s2.167 38.167 3.5 49.5c5.333 48.667 17.5 83.167 36.5 103.5s46.167 30.5 81.5 30.5c6 0 12.5-.667 19.5-2s14-3.5 21-6.5 13.833-7.5 20.5-13.5 12-13.333 16-22l4 2v36h134v-494h-137v29h-5c-4-6-9.333-11.333-16-16s-13.834-8.667-21.501-12-15-5.833-22-7.5-12.833-2.5-17.5-2.5z"/><glyph glyph-name="beta" unicode="β" horiz-adv-x="422" d="M321 421c14-4.667 25.167-12.167 33.5-22.5s14.5-23.166 18.5-38.499 6.667-33.333 8-54 2-43.334 2-68.001c0-39.333-1.333-74.166-4-104.499s-8.167-55.833-16.5-76.5S342 20.667 326 10 289-6 263-6c-12 0-24.667 2.333-38 7s-26.333 14.334-39 29.001h-7v-180H42v713c0 52 14 92.167 42 120.5s70 42.5 126 42.5c54.667 0 95.667-16.167 123-48.5s41-76.5 41-132.5c0-29.333-3.167-54.333-9.5-75S343.667 433.667 321 423v-2zm-124 46c16 0 26.668 4.668 32.001 14.001s8 27.333 8 54c0 24.667-3 41.167-9 49.5s-13 12.5-21 12.5c-18.667 0-28-9.333-28-28v-414c0-10.667 2.833-18.667 8.5-24s12.5-8 20.5-8c6.667 0 12.5 1.167 17.5 3.5s9.167 7.666 12.5 15.999S243.667 163 245 179s2 38 2 66c0 25.333-.667 46-2 62s-3.833 28.5-7.5 37.5-8.667 15.167-15 18.5-14.5 5-24.5 5h-1v99z"/><glyph glyph-name="gamma" unicode="γ" horiz-adv-x="406" d="M64 335c-3.333 12.667-7.832 23.832-13.499 33.499s-15.5 14.5-29.5 14.5c-1.333 0-2.5-.167-3.5-.5s-2.167-.5-3.5-.5l-12 108c15.333 6 29.666 10 42.999 12s25.333 3 36 3c20.667 0 37.5-4.667 50.5-14s23.167-20.833 30.5-34.5 12.833-28.667 16.5-45 6.5-31.5 8.5-45.5l24-153h7c5.333 46.667 11.5 94.167 18.5 142.5s14.167 94.5 21.5 138.5h147l-66-259.5A8858.389 8858.389 0 0 1 275-32v-170H144v164z"/><glyph glyph-name="delta" unicode="δ" horiz-adv-x="409" d="M243 721c6 0 13.166-.164 21.499-.497s17.333-.666 27-1 19.167-1 28.5-2 18-2.166 26-3.5c-1.333-19.332-2.666-37-3.999-53s-2.666-33.666-3.999-53c-17.333 2-31.833 3.168-43.5 3.5s-21.167.5-28.5.5c-30.667 0-51.5-4.332-62.5-13s-16.5-20.666-16.5-36c0-8.666 7-19.833 21-33.5s31.333-27.167 52-40.5c23.333-15.333 42.333-30 57-44s26-29 34-45 13.333-33.667 16-53 4-42 4-68v-57c0-17.333-.5-33.333-1.5-48s-2.5-29.667-4.5-45c-2.667-28-9.5-50.833-20.5-68.5s-24.333-31.5-40-41.5-32.667-16.833-51-20.5-36.5-5.5-54.5-5.5c-24 0-44.833 3-62.5 9s-32.5 14.333-44.5 25-21.5 22.667-28.5 36-12.167 27.666-15.5 42.999c-4 17.333-6.5 38-7.5 62s-1.5 45.667-1.5 65c0 22 1 45 3 69s5.667 44.333 11 61C58.334 380.335 66.667 396.168 78 410.5s25.666 26.166 42.999 35.499c-21.333 18-36.333 36.5-45 55.5s-13 41.167-13 66.5c0 46 14.833 83 44.5 111S182.333 721 243 721zm-37.001-357.997c-7.333-3.333-13.332-8.332-17.999-14.999s-7.667-13-9-19c-1.333-5.333-2.166-10.333-2.499-15s-.833-10.334-1.5-17.001-1-15-1-25v-39c0-26 .167-45.667.5-59s2.166-24.666 5.499-33.999c4-12 12-18 24-18 14 0 22 5.667 24 17 6 12.667 9 44 9 94v53c0 9.333-.5 17.666-1.5 24.999s-2.167 14.333-3.5 21c-2.667 8-5.834 14.333-9.501 19s-9.167 8.667-16.5 12z"/><glyph glyph-name="epsilon" unicode="ε" horiz-adv-x="392" d="M204 503c24.667 0 47.497-3.501 68.497-10.501s39-17.167 54-30.5 26.833-29.833 35.5-49.5 13-42.5 13-68.5l-137-17c0 17.333-3.333 29.666-10 36.999s-14.667 11-24 11c-7.333 0-13.666-2.5-18.999-7.5s-8-11.167-8-18.5v-22c0-8 2.833-15.167 8.5-21.5s14.834-9.5 27.501-9.5h43v-100h-43c-14.667 0-24.334-3.667-29-11s-7-15-7-23v-12c0-7.333 2.832-13.666 8.5-18.999s12.833-8 21.5-8c7.333 0 14.333 3.167 21 9.5s10 17.833 10 34.5l137-21c-1.333-46.667-16-83.5-44-110.5s-66.667-40.5-116-40.5c-25.333 0-48.833 2.667-70.5 8s-40.5 14-56.5 26-28.5 27.5-37.5 46.5-13.5 42.5-13.5 70.5c0 23.333 3.333 44.333 10 63S69.333 242.333 94 253v1c-21.333 10-35.5 23.333-42.5 40S41 331 41 355c0 42.667 14.333 78 43 106s68.667 42 120 42z"/><glyph glyph-name="zeta" unicode="ζ" horiz-adv-x="383" d="M178 374l-129.002.002v121h320v-100c-69.333-43.333-119.666-85.333-150.999-126s-47-75-47-103c0-15.333 7.333-28 22-38s37.667-21.667 69-35c29.333-12 52-24.833 68-38.5s24-31.834 24-54.501c0-6.667-1-15-3-25s-6.167-22-12.5-36-15.5-30-27.5-48-28-38-48-60l-89 56c8.667 12.667 15.667 23.5 21 32.5s9.333 16.333 12 22 4.334 10 5.001 13 1 5.167 1 6.5c0 8.667-2.667 15-8 19s-15 8.667-29 14c-18 6.667-35.667 14-53 22s-33 18-47 30-25.167 26.667-33.5 44-12.5 39-12.5 65C30 192.334 42.167 228.667 66.5 264s61.833 71 112.5 107z"/><glyph glyph-name="eta" unicode="η" horiz-adv-x="413" d="M184 455c8.667 11.333 20.998 21.833 36.998 31.5s31.667 14.5 47 14.5c22.667 0 40.834-3.333 54.501-10s24.167-15.667 31.5-27 12.333-24.666 15-39.999 4-31.666 4-48.999v-375h-137v335c0 13.333-2.667 22.666-8 27.999s-11.666 8-18.999 8c-8 0-15-3.333-21-10s-9-16.334-9-29.001V0H42v495h137v-39z"/><glyph glyph-name="theta" unicode="θ" horiz-adv-x="401" d="M202 723c42 0 75.169-8.331 99.502-24.998s41.166-37.334 50.499-62.001c2.667-8.667 5-20.167 7-34.5s3.5-32.333 4.5-54 1.667-47.334 2-77.001.5-64.167.5-103.5V262.5c0-27-.167-49.167-.5-66.5s-.833-31-1.5-41-1.334-19-2.001-27c-3.333-28.667-10.833-51.834-22.5-69.501s-25.334-31.334-41.001-41.001-32.667-16.167-51-19.5-36.166-5-53.499-5c-23.333 0-43.5 3-60.5 9S102 15.831 90 25.498 68.167 46.332 60.5 58.999s-13.167 25.667-16.5 39c-2 8-3.667 18.5-5 31.5s-2.333 29.167-3 48.5-1.167 42.333-1.5 69-.5 58-.5 94c0 46 .333 85.5 1 118.5s1.667 61 3 84 3 41.5 5 55.5 4.667 25.333 8 34c10 26.667 27.667 48.334 53 65.001s58 25 98 25zm29.002-405.998l-61-.001v-89c0-17.333.167-33.666.5-48.999s1.833-27 4.5-35c3.333-14.667 12.333-22 27-22 7.333 0 13.333 2.333 18 7s7 9.667 7 15c1.333 4 2.333 16 3 36s1 41.667 1 65v72zm-61 104.999l61.001-.001v43c0 22-.333 43.333-1 64s-1.667 35.334-3 44.001c-1.333 6.667-4 12.167-8 16.5s-9.667 6.5-17 6.5c-12.667 0-21.334-6.667-26.001-20-2.667-6.667-4.167-20.167-4.5-40.5s-.833-44.5-1.5-72.5v-41z"/><glyph glyph-name="iota" unicode="ι" horiz-adv-x="231" d="M213-3c-2 0-5.333-.167-10-.5s-9.5-.5-14.5-.5H165C123-4 92.667 6.5 74 27.5S46 80 46 122v372h129V149c0-19.333 3-31.5 9-36.5s16.333-7.833 31-8.5z"/><glyph glyph-name="kappa" unicode="κ" horiz-adv-x="432" d="M189 377l71 117h163L290 301 426 0H263l-70 172-11-17V0H46v494h136V378z"/><glyph glyph-name="lambda" unicode="λ" horiz-adv-x="392" d="M185 254L140.999-.001h-141l133 475-16 84c-1.333 6.667-3 13.167-5 19.5s-5.5 11.833-10.5 16.5-11.5 8.334-19.5 11.001-18.667 4-32 4v115c24.667 5.333 46.334 8 65.001 8 38 0 66.167-10.5 84.5-31.5S231.333 651 240 613l108-477c3.333-13.333 8-21.833 14-25.5s14.667-6.5 26-8.5V0c-8.667-1.333-18.5-2.5-29.5-3.5S337.333-5 328-5c-12 0-23.5 1.333-34.5 4S272.667 6.5 264 13.5 247.5 30 240.5 42 228 69.667 224 89l-35 165h-4z"/><glyph glyph-name="nu" unicode="ν" horiz-adv-x="397" d="M205 176l11 121 26 197h150L277 0H120L5 494h153l26-191 14-127h7z"/><glyph glyph-name="xi" unicode="ξ" horiz-adv-x="364" d="M211 726c52.667 0 93.331-13.5 121.998-40.5s43-68.167 43-123.5l-135-15v9c0 14-2.167 24.5-6.5 31.5S222.332 598 210.999 598c-12.667 0-21-6.5-25-19.5s-6-30.167-6-51.5c0-13.333.5-25.166 1.5-35.499s3.833-19.166 8.5-26.499 11.334-13 20.001-17 21-6 37-6h75v-115h-66c-16.667 0-29.834-3.333-39.501-10s-17-15.334-22-26.001-8.167-22.167-9.5-34.5-2-24.5-2-36.5c0-17.333 1.833-31.5 5.5-42.5s8.5-20.333 14.5-28 13.333-14.334 22-20.001l28-17.5c18.667-11.333 36.167-21.333 52.5-30s30.166-18 41.499-28c17.333-15.333 25.333-32.5 24-51.5S363.332-38 351.999-62c-7.333-14.667-16.5-31.167-27.5-49.5s-24.167-38.833-39.5-61.5l-100 56 22.5 41c6.333 11.333 10 21.333 11 30s-1 16-6 22-14.167 11.667-27.5 17c-27.333 10-50.333 21.167-69 33.5s-33.667 27.166-45 44.499-19.333 38-24 62-7 52.667-7 86c0 34.667 4.333 66.5 13 95.5s26.334 50.833 53.001 65.5c-14 5.333-25.333 13.666-34 24.999s-15.334 23.833-20.001 37.5-7.834 27.834-9.501 42.501-2.5 28.334-2.5 41.001c0 30 2.833 57.333 8.5 82s15.334 45.667 29.001 63 31.334 30.833 53.001 40.5S179 726 211 726z"/><glyph glyph-name="omicron" unicode="ο" horiz-adv-x="401" d="M202 503c42 0 75.168-8.332 99.501-24.999S342.667 440.667 352 416c3.333-9.333 5.833-20.666 7.5-33.999s3-27.5 4-42.5 1.667-30.5 2-46.5.5-31 .5-45v-15c0-18-.167-35.833-.5-53.5S364 144.667 362 128c-3.333-28.667-10.833-51.834-22.5-69.501s-25.334-31.334-41.001-41.001-32.667-16.167-51-19.5-36.166-5-53.499-5c-23.333 0-43.5 3-60.5 9S102 15.831 90 25.498 68.167 46.332 60.5 58.999s-13.167 25.667-16.5 39c-2 8-3.667 18-5 30s-2.333 24.667-3 38-1.167 26.833-1.5 40.5-.5 26.5-.5 38.5c0 14.667.333 30.167 1 46.5s1.667 32 3 47 3 29 5 42 4.667 23.833 8 32.5c10 26.667 27.667 48.334 53 65.001s58 25 98 25zm.001-126.999c-12.667 0-21.333-6.669-26-20.002-2.667-6.667-4.167-20.167-4.5-40.5s-.833-44.5-1.5-72.5v-15c0-17.333.167-33.666.5-48.999s1.833-27 4.5-35c3.333-14.667 12.333-22 27-22 7.333 0 13.333 2.333 18 7s7 9.667 7 15c1.333 4 2.5 16 3.5 36s1.5 41.667 1.5 65c0 22-.5 43.333-1.5 64s-2.167 35.334-3.5 44.001c-1.333 6.667-4 12.167-8 16.5s-9.667 6.5-17 6.5z"/><glyph glyph-name="pi" unicode="π" horiz-adv-x="422" d="M239 0v374h-57V0H46v495h331V0H239z"/><glyph glyph-name="rho" unicode="ρ" horiz-adv-x="401" d="M34 245c0 14.667.333 30.167 1 46.5s1.667 32 3 47 3 29 5 42 4.667 23.833 8 32.5c10 26.667 27.667 48.334 53 65.001s58 25 98 25c42 0 75.167-8.333 99.5-25s41.166-37.334 50.499-62.001c3.333-8.667 5.833-19.667 7.5-33s3-27.666 4-42.999 1.667-31 2-47 .5-31 .5-45v-20c0-46.667-1.833-85.167-5.5-115.5s-10-54.333-19-72-21.167-30-36.5-37-34.666-10.5-57.999-10.5c-9.333 0-21 2.667-35 8S186.333 14.667 177 26h-5v-217H35zm168 131c-12.667 0-21.333-6.669-26-20.002-2.667-6.667-4.167-20.167-4.5-40.5s-.833-44.5-1.5-72.5v-15c0-17.333.167-33.666.5-48.999s1.833-27 4.5-35c3.333-14.667 12.333-22 27-22 7.333 0 13.333 2.333 18 7s7 9.667 7 15c1.333 4 2.333 16 3 36s1 41.667 1 65c0 22-.333 43.333-1 64s-1.667 35.334-3 44.001c-1.333 6.667-4 12.167-8 16.5s-9.667 6.5-17 6.5z"/><glyph glyph-name="sigma1" unicode="ς" horiz-adv-x="384" d="M200 503c50 0 88.5-13.837 115.5-41.504s40.5-67.5 40.5-119.5l-133-15c0 17.333-2.833 29.833-8.5 37.5s-12.167 11.5-19.5 11.5-13-3.667-17-11-6.833-16.666-8.5-27.999-2.667-23.666-3-36.999-.5-26-.5-38c0-17.333.667-32.833 2-46.5s4.666-26.334 9.999-38 12.833-22.5 22.5-32.5 23.167-19.668 40.5-29c20.667-11.334 37.167-21.667 49.5-31s21.833-18.333 28.5-27 11.167-17.5 13.5-26.5 3.5-18.5 3.5-28.5c0-11.333-6.5-30.833-19.5-58.5s-35.167-64.167-66.5-109.5l-101 56c11.333 20 20.333 37.333 27 52s10 24.334 10 29.001c0 12.667-7.333 23-22 31-30 16-53.667 30.833-71 44.5s-30.5 28-39.5 43-14.833 31.667-17.5 50-4 39.833-4 64.5c0 50 1.333 92.833 4 128.5S43.333 395.666 50 413c10 26.667 27.5 48.334 52.5 65.001s57.5 25 97.5 25z"/><glyph glyph-name="sigma" unicode="σ" horiz-adv-x="411" d="M340 381c8-5.333 14-13.168 18-23.501s7-21.666 9-33.999 3.167-25.166 3.5-38.499.5-25.666.5-36.999v-15c0-18-.333-35.833-1-53.5s-2-34.834-4-51.501c-3.333-28.667-10.833-51.834-22.5-69.501s-25.334-31.334-41.001-41.001-32.667-16.167-51-19.5-36.166-5-53.499-5c-23.333 0-43.5 3-60.5 9S106 15.832 94 25.499 72.167 46.333 64.5 59 51.333 84.667 48 98c-2 8-3.667 18-5 30s-2.333 24.667-3 38-1.167 26.833-1.5 40.5S38 233 38 245c0 30 1.167 59.833 3.5 89.5S48.333 387.667 55 405c10 26.667 27.667 48.167 53 64.5s58 24.5 98 24.5h196V383h-58zm-134-13.002c-12.667 0-21.333-6.667-26-20-2.667-6.667-4.167-18.834-4.5-36.501s-.833-40.5-1.5-68.5v-15c0-17.333.167-33.666.5-48.999s1.833-27 4.5-35c3.333-14.667 12.333-22 27-22 7.333 0 13.333 2.333 18 7s7 9.667 7 15c1.333 4 2.333 16 3 36s1 41.667 1 65c0 22-.333 42-1 60s-1.667 31.333-3 40c-1.333 6.667-4 12.167-8 16.5s-9.667 6.5-17 6.5z"/><glyph glyph-name="tau" unicode="τ" horiz-adv-x="285" d="M202 0c-24 0-44.17 3.666-60.503 10.999s-29.666 17-39.999 29-17.666 25.5-21.999 40.5-6.5 30.167-6.5 45.5v257H11v112h269v-112h-78v-213c0-6 .333-11.667 1-17s2.334-10.166 5.001-14.499 7-7.833 13-10.5 14.333-4 25-4h12V0h-56z"/><glyph glyph-name="upsilon" unicode="υ" horiz-adv-x="401" d="M172 493l.001-264.999c0-17.333.167-33.666.5-48.999s1.833-27 4.5-35c3.333-14.667 11.666-22 24.999-22 7.333 0 13.333 2.333 18 7s7 9.667 7 15c1.333 4 2 16 2 36v313h137v-260c0-18-.167-35.833-.5-53.5s-1.5-34.834-3.5-51.501c-3.333-28.667-10.833-51.834-22.5-69.501s-25.334-31.334-41.001-41.001-32.667-16.167-51-19.5-36.166-5-53.499-5c-23.333 0-43.5 3-60.5 9S102 15.832 90 25.499 68.167 46.333 60.5 59 47.333 84.667 44 98c-2 8-3.667 18-5 30s-2.333 24.667-3 38-1 26.833-1 40.5V493h137z"/><glyph glyph-name="phi" unicode="φ" horiz-adv-x="567" d="M349-191l-130.001-.001v185c-23.333 0-44.666 3-63.999 9s-36.333 13.667-51 23-26.834 20.333-36.501 33-16.167 25.667-19.5 39c-2 8-3.667 18-5 30s-2.333 24.667-3 38-1.167 26.833-1.5 40.5-.5 26.5-.5 38.5c0 14.667.333 30.167 1 46.5s1.667 32 3 47 3 29 5 42 4.667 23.833 8 32.5c16 42.667 50.667 69 104 79l35-118c-7.333-2.667-12.666-8.667-15.999-18-2.667-6.667-3.834-20.167-3.501-40.5s.166-44.5-.501-72.5v-15c0-17.333.167-33.666.5-48.999s1.833-27 4.5-35c1.333-6.667 6.5-12.167 15.5-16.5s17.167-6.5 24.5-6.5v378h138c20.667 0 39.834-2.667 57.501-8s33.167-12.5 46.5-21.5 24.5-19.333 33.5-31 15.833-23.5 20.5-35.5c7.333-21.333 11.833-45.5 13.5-72.5s2.5-54.5 2.5-82.5v-15c0-18-.167-34.5-.5-49.5s-1.5-29.833-3.5-44.5c-3.333-28.667-11.5-52.167-24.5-70.5s-28.167-33-45.5-44S421.333 5.833 402 1.5 365-5.333 349-6v-185zm-3.001 311.999c13.333 1.333 23.831 5.668 31.498 13.001s12.167 14.666 13.5 21.999c.667 4 1.5 14 2.5 30s1.5 35.667 1.5 59c0 22-.5 41.667-1.5 59s-2.167 30.333-3.5 39c-1.333 6.667-5.666 13-12.999 19s-17.666 9.333-30.999 10v-251z"/><glyph glyph-name="chi" unicode="χ" horiz-adv-x="405" d="M199 140L154 0H4l118 252L10 495h153l40-129h3l41 129h147L280 252 400 0H250l-46 140h-5z"/><glyph glyph-name="psi" unicode="ψ" horiz-adv-x="567" d="M532 495l.001-314.997c0-34-5.5-62.667-16.5-86s-25.167-42.333-42.5-57-36.833-25.334-58.5-32.001-43.167-10.334-64.5-11.001v-185h-132v185c-58 2.667-102.667 19.667-134 51s-47 73.666-47 126.999v323h136V175c0-14 3.167-26.333 9.5-37s18.166-16.334 35.499-17.001v374h129v-374c11.333.667 22.5 5.334 33.5 14.001s16.5 22 16.5 40v320h135z"/><glyph glyph-name="omega" unicode="ω" horiz-adv-x="588" d="M402-6c-8 0-17.161.997-27.494 2.997s-20.333 5.333-30 10-18.834 10.667-27.501 18-15.667 16.333-21 27h-5c-13.333-21.333-29-36.5-47-45.5s-36.667-13.5-56-13.5c-23.333 0-43.333 3-60 9S97.17 15.83 85.504 25.497s-21 20.834-28 33.501-12.167 25.667-15.5 39c-2 8-3.667 18-5 30s-2.333 24.667-3 38-1 26.833-1 40.5v38.5c0 14.667.333 30.334 1 47.001s1.667 32.667 3 48 3 29.666 5 43 4.667 24.332 8 33c10 26.666 27.833 47.833 53.5 63.5s58.5 23.5 98.5 23.5V376c-12.667 0-21.334-6.667-26.001-20-2.667-6.667-4.334-20.167-5.001-40.5S169.668 271 169 243c0-25.333.167-46.166.5-62.499s1.833-28.5 4.5-36.5c3.333-14 12-21 26-21 6 0 12.333 2 19 6s10 11 10 21v183h129V150c0-10 3.5-17 10.5-21s13.5-6 19.5-6c7.333 0 13.5 2.167 18.5 6.5s7.5 9.166 7.5 14.5c1.333 4 2.333 16 3 36s1 41.666 1 65c0 22-.333 43.332-1 64s-1.667 35.333-3 44c-1.333 6.667-4 12.167-8 16.5s-9.667 6.5-17 6.5v127c42 0 75.167-7.5 99.5-22.5s41.167-34.833 50.5-59.5c7.333-21.333 11.666-47.833 12.999-79.5s2-65.5 2-101.5c0-18-.333-37-1-57s-2-38.333-4-55c-3.333-26.667-9.833-48.667-19.5-66s-21.167-31-34.5-41-28.166-17-44.5-21S418-6 402-6z"/><glyph glyph-name="iotadieresis" unicode="ϊ" horiz-adv-x="231" d="M213-3c-2 0-5.333-.167-10-.5s-9.5-.5-14.5-.5H165C123-4 92.667 6.5 74 27.5S46 80 46 122v372h129V149c0-19.333 3-31.5 9-36.5s16.333-7.833 31-8.5zm-75 550v130h119V547H138zm-174 0v130H82V547H-36z"/><glyph glyph-name="upsilondieresis" unicode="ϋ" horiz-adv-x="401" d="M172 493l.001-264.999c0-17.333.167-33.666.5-48.999s1.833-27 4.5-35c3.333-14.667 11.666-22 24.999-22 7.333 0 13.333 2.333 18 7s7 9.667 7 15c1.333 4 2 16 2 36v313h137v-260c0-18-.167-35.833-.5-53.5s-1.5-34.834-3.5-51.501c-3.333-28.667-10.833-51.834-22.5-69.501s-25.334-31.334-41.001-41.001-32.667-16.167-51-19.5-36.166-5-53.499-5c-23.333 0-43.5 3-60.5 9S102 15.832 90 25.499 68.167 46.333 60.5 59 47.333 84.667 44 98c-2 8-3.667 18-5 30s-2.333 24.667-3 38-1 26.833-1 40.5V493h137zm54.001 54.001v130h119v-130h-119zm-174 0v130h118v-130h-118z"/><glyph glyph-name="omicrontonos" unicode="ό" horiz-adv-x="401" d="M202 503c42 0 75.168-8.332 99.501-24.999S342.667 440.667 352 416c3.333-9.333 5.833-20.666 7.5-33.999s3-27.5 4-42.5 1.667-30.5 2-46.5.5-31 .5-45v-15c0-18-.167-35.833-.5-53.5S364 144.667 362 128c-3.333-28.667-10.833-51.834-22.5-69.501s-25.334-31.334-41.001-41.001-32.667-16.167-51-19.5-36.166-5-53.499-5c-23.333 0-43.5 3-60.5 9S102 15.831 90 25.498 68.167 46.332 60.5 58.999s-13.167 25.667-16.5 39c-2 8-3.667 18-5 30s-2.333 24.667-3 38-1.167 26.833-1.5 40.5-.5 26.5-.5 38.5c0 14.667.333 30.167 1 46.5s1.667 32 3 47 3 29 5 42 4.667 23.833 8 32.5c10 26.667 27.667 48.334 53 65.001s58 25 98 25zm.001-126.999c-12.667 0-21.333-6.669-26-20.002-2.667-6.667-4.167-20.167-4.5-40.5s-.833-44.5-1.5-72.5v-15c0-17.333.167-33.666.5-48.999s1.833-27 4.5-35c3.333-14.667 12.333-22 27-22 7.333 0 13.333 2.333 18 7s7 9.667 7 15c1.333 4 2.5 16 3.5 36s1.5 41.667 1.5 65c0 22-.5 43.333-1.5 64s-2.167 35.334-3.5 44.001c-1.333 6.667-4 12.167-8 16.5s-9.667 6.5-17 6.5zm-58.999 197.998l100 186 108-54-136-175z"/><glyph glyph-name="upsilontonos" unicode="ύ" horiz-adv-x="401" d="M172 493l.001-264.999c0-17.333.167-33.666.5-48.999s1.833-27 4.5-35c3.333-14.667 11.666-22 24.999-22 7.333 0 13.333 2.333 18 7s7 9.667 7 15c1.333 4 2 16 2 36v313h137v-260c0-18-.167-35.833-.5-53.5s-1.5-34.834-3.5-51.501c-3.333-28.667-10.833-51.834-22.5-69.501s-25.334-31.334-41.001-41.001-32.667-16.167-51-19.5-36.166-5-53.499-5c-23.333 0-43.5 3-60.5 9S102 15.832 90 25.499 68.167 46.333 60.5 59 47.333 84.667 44 98c-2 8-3.667 18-5 30s-2.333 24.667-3 38-1 26.833-1 40.5V493h137zm-42.999 81.001l100 186 108-54-136-175z"/><glyph glyph-name="omegatonos" unicode="ώ" horiz-adv-x="588" d="M402-6c-8 0-17.161.997-27.494 2.997s-20.333 5.333-30 10-18.834 10.667-27.501 18-15.667 16.333-21 27h-5c-13.333-21.333-29-36.5-47-45.5s-36.667-13.5-56-13.5c-23.333 0-43.333 3-60 9S97.17 15.83 85.504 25.497s-21 20.834-28 33.501-12.167 25.667-15.5 39c-2 8-3.667 18-5 30s-2.333 24.667-3 38-1 26.833-1 40.5v38.5c0 14.667.333 30.334 1 47.001s1.667 32.667 3 48 3 29.666 5 43 4.667 24.332 8 33c10 26.666 27.833 47.833 53.5 63.5s58.5 23.5 98.5 23.5V376c-12.667 0-21.334-6.667-26.001-20-2.667-6.667-4.334-20.167-5.001-40.5S169.668 271 169 243c0-25.333.167-46.166.5-62.499s1.833-28.5 4.5-36.5c3.333-14 12-21 26-21 6 0 12.333 2 19 6s10 11 10 21v183h129V150c0-10 3.5-17 10.5-21s13.5-6 19.5-6c7.333 0 13.5 2.167 18.5 6.5s7.5 9.166 7.5 14.5c1.333 4 2.333 16 3 36s1 41.666 1 65c0 22-.333 43.332-1 64s-1.667 35.333-3 44c-1.333 6.667-4 12.167-8 16.5s-9.667 6.5-17 6.5v127c42 0 75.167-7.5 99.5-22.5s41.167-34.833 50.5-59.5c7.333-21.333 11.666-47.833 12.999-79.5s2-65.5 2-101.5c0-18-.333-37-1-57s-2-38.333-4-55c-3.333-26.667-9.833-48.667-19.5-66s-21.167-31-34.5-41-28.166-17-44.5-21S418-6 402-6zM230.006 573.997l100 186 108-54-136-175z"/><glyph glyph-name="afii10023" unicode="Ё" horiz-adv-x="394" d="M51 0v696h319V566H187V419h160V288H187V131h183V0H51zm185 729v130h119V729H236zm-174 0v130h118V729H62z"/><glyph glyph-name="afii10051" unicode="Ђ" horiz-adv-x="496" d="M283 344c-14 0-28.332-6.331-42.999-18.998v-325h-136v566h-96v130h369v-130h-137v-132h3c14 10 29 18 45 24s34.667 9 56 9c20 0 37-3.5 51-10.5s25.667-16.5 35-28.5 16.166-26 20.499-42 6.5-33 6.5-51v-195c0-28.667-2.167-53.834-6.5-75.501s-12.166-40-23.499-55-26.5-26.333-45.5-34-43.167-11.5-72.5-11.5h-28v108c11.333 0 20.666 3.167 27.999 9.5s11 17.5 11 33.5v187c0 15.333-3.333 26.166-10 32.499s-15.667 9.5-27 9.5z"/><glyph glyph-name="afii10052" unicode="Ѓ" horiz-adv-x="394" d="M187 566V0H51v696h319V566H187zm-83 220l167 130 77-93-195-105z"/><glyph glyph-name="afii10053" unicode="Є" horiz-adv-x="427" d="M226 702c31.333 0 58.501-4.501 81.501-13.501s42-21.5 57-37.5 25.667-35 32-57 8.5-45.667 6.5-71l-131-23c-.667 20.667-5.167 37.834-13.5 51.501s-19.5 20.5-33.5 20.5c-9.333 0-16.833-1.833-22.5-5.5s-10.167-8.167-13.5-13.5-5.666-11.166-6.999-17.499-2-11.833-2-16.5v-101h117v-132h-117v-122c0-9.333 2.333-18.333 7-27s15.667-13 33-13c13.333 0 24.166 6 32.499 18s12.833 30 13.5 54l135-18c-.667-55.333-16-99.833-46-133.5s-73.333-50.5-130-50.5c-62.667 0-108.334 14.667-137.001 44s-43 73.333-43 132v349C45 574.334 60.5 618.667 91.5 652s75.833 50 134.5 50z"/><glyph glyph-name="afii10054" unicode="Ѕ" horiz-adv-x="427" d="M397 205c0-32-2.831-61.002-8.498-87.002s-15.334-48.167-29.001-66.5-32.167-32.5-55.5-42.5-52.666-15-87.999-15c-32 0-59.5 4.667-82.5 14s-41.667 22.166-56 38.499-24.833 35.333-31.5 57-10 44.834-10 69.501l136 26c1.333-25.333 5.166-44.333 11.499-57s18.166-19 35.499-19c10 0 17.833 2.333 23.5 7s10 10.667 13 18 5 16 6 26 1.5 20 1.5 30c0 14-1 25.667-3 35s-5.5 17.333-10.5 24-11.833 12.5-20.5 17.5-19.334 10.167-32.001 15.5c-34 14-61.333 28.5-82 43.5s-36.5 31-47.5 48-18.167 35-21.5 54-5 39.833-5 62.5c0 28.667 3.333 55.167 10 79.5s17.167 45.166 31.5 62.499 33 31 56 41 50.833 15 83.5 15c34.667 0 63.334-5.5 86.001-16.5s40.5-25 53.5-42 22.167-35.833 27.5-56.5 8-40.667 8-60l-134-29c0 10-.5 19.333-1.5 28s-3.167 16.5-6.5 23.5-7.833 12.5-13.5 16.5-13.5 6-23.5 6c-9.333 0-16.666-2.167-21.999-6.5s-9.5-9.666-12.5-15.999-5-13.5-6-21.5-1.5-15.667-1.5-23c0-9.333.667-17.666 2-24.999s4.666-14.333 9.999-21 13.166-13.167 23.499-19.5 24.833-13.166 43.5-20.499c32-12.667 57.333-26 76-40s32.834-29.333 42.501-46 16-35.5 19-56.5 4.5-44.833 4.5-71.5z"/><glyph glyph-name="afii10055" unicode="І" horiz-adv-x="242" d="M53 0v696h136V0H53z"/><glyph glyph-name="afii10056" unicode="Ї" horiz-adv-x="242" d="M53 0v696h136V0H53zm94 726v130h119V726H147zm-174 0v130H91V726H-27z"/><glyph glyph-name="afii10057" unicode="Ј" horiz-adv-x="360" d="M309 696l-.003-526.999c0-54.667-15.5-97.5-46.5-128.5s-74.5-46.5-130.5-46.5c-31.333 0-60.666 7.667-87.999 23S-6.668 55.334-26 86.001l101 78c8.666-12.667 18.333-22.334 29-29.001s19.667-10 27-10c15.333 0 26.333 5.333 33 16s10 20.667 10 30v525h135z"/><glyph glyph-name="afii10058" unicode="Љ" horiz-adv-x="649" d="M433 130c20.667 0 37.167 7.333 49.5 22s18.5 38 18.5 70c0 20-2 35.833-6 47.5s-9.333 20.5-16 26.5-14.167 9.833-22.5 11.5-16.833 2.5-25.5 2.5h-23V130h25zM272 566h-66V303c0-48-2-89.5-6-124.5s-11.833-64.833-23.5-89.5-28.167-45.334-49.5-62.001-49.333-31-84-43l-46 100c22 12 39 24.5 51 37.5s20.833 27.667 26.5 44 9 35.5 10 57.5 1.5 48 1.5 78v395h322v-255h35c68 0 116.667-18.5 146-55.5s44-91.167 44-162.5c0-39.333-4.833-73.166-14.5-101.499S595.333 70 578 52s-37.833-31.167-61.5-39.5S467.333 0 440 0H272v566z"/><glyph glyph-name="afii10059" unicode="Њ" horiz-adv-x="649" d="M272 0v303h-85V0H51v696h136V435h85v261h136V435h35c68 0 116.667-18 146-54s44-89.667 44-161c0-39.333-4.833-73-14.5-101S595.333 68.167 578 50.5 540.167 20 516.5 12 467.333 0 440 0H272zm161 130c20.667 0 37.167 6.833 49.5 20.5S501 187 501 219c0 20-2 35.667-6 47s-9.333 19.833-16 25.5-14.167 9-22.5 10-16.833 1.5-25.5 1.5h-23V130h25z"/><glyph glyph-name="afii10060" unicode="Ћ" horiz-adv-x="494" d="M320 0l.001 302.001c0 15.333-3.333 26.166-10 32.499s-15.667 9.5-27 9.5c-14 0-28.333-6.333-43-19V0h-136v566h-96v130h366V566h-134V434h3c14 10 29 18 45 24s34.667 9 56 9c20 0 37-3.5 51-10.5s25.667-16.5 35-28.5 16.166-26 20.499-42 6.5-33 6.5-51V0H320z"/><glyph glyph-name="afii10061" unicode="Ќ" horiz-adv-x="455" d="M308 358c24-9.333 43.334-22.999 58.001-40.999s25.334-43.667 32.001-77l47-240h-136l-37 199c-2.667 13.333-5.334 25.666-8.001 36.999s-6.5 21-11.5 29-11.167 14.333-18.5 19-17 7-29 7h-18V0h-136v697h136V411h14c16 0 29.833 7.833 41.5 23.5s20.167 37.834 25.5 66.501l37 193h129l-42-212c-6-32.667-16.833-58.834-32.5-78.501S326.667 370 308 362v-4zM152.001 786.001l167 130 77-93-195-105z"/><glyph glyph-name="afii10062" unicode="Ў" horiz-adv-x="414" d="M213 363l74.002 333.001h126l-139-541c-9.333-37.333-19.833-66.833-31.5-88.5s-24.834-38-39.501-49-30.167-18.333-46.5-22-33.5-5.834-51.5-6.501h-41v111h15c18.667 0 32.167 3.833 40.5 11.5S135.667 130.667 143 146c1.333 3.333 2.833 7.5 4.5 12.5s3.167 10.167 4.5 15.5L8 695h133l67-332h5zm-59.998 503.001c.667-7.333 2.665-15.166 5.998-23.499s7.833-16 13.5-23 12.167-12.833 19.5-17.5 15-7 23-7c9.333 0 17.5 2.333 24.5 7s13 10.5 18 17.5 8.667 14.667 11 23 3.833 16.166 4.5 23.499h95c-1.333-16-5.166-33-11.499-51s-15.666-34.667-27.999-50-27.833-28-46.5-38-41-15-67-15c-28 0-51.5 5-70.5 15s-34.667 22.667-47 38-21.5 32-27.5 50-9.333 35-10 51h93z"/><glyph glyph-name="afii10145" unicode="Џ" horiz-adv-x="444" d="M394 696V0H273v-121H168V0H51v696h136V135h72v561h135z"/><glyph glyph-name="afii10017" unicode="А" horiz-adv-x="449" d="M276 136H174L153 0H9l132 696h166L440 0H297zm-69 239l-14-111h63l-13 111-15 141h-6z"/><glyph glyph-name="afii10018" unicode="Б" horiz-adv-x="428" d="M51 0v695.999h319v-130H187v-125h35c68 0 116.667-18.5 146-55.5s44-91.167 44-162.5c0-39.333-4.833-73.166-14.5-101.499S374.333 70 357 52s-37.833-31.167-61.5-39.5S246.333 0 219 0H51zm161 129.999c20.667 0 37.167 7.333 49.5 22s18.5 38 18.5 70c0 20-2 35.833-6 47.5s-9.333 20.5-16 26.5-14.167 9.833-22.5 11.5-16.833 2.5-25.5 2.5h-23v-180h25z"/><glyph glyph-name="afii10019" unicode="В" horiz-adv-x="446" d="M264 498c0 27.333-5 45.5-15 54.5S223 566 201 566h-14V428h17c40 0 60 23.333 60 70zm6-272c0 28-4.833 47.668-14.5 59.001s-24.167 17-43.5 17h-25v-171h24c12.667 0 22.834 2.5 30.501 7.5s13.667 11.833 18 20.5 7.166 18.667 8.499 30 2 23.666 2 36.999zm48 138.001c16-5.333 29.169-13 39.502-23s18.666-21.5 24.999-34.5 10.833-27.167 13.5-42.5 4-31 4-47c0-74.667-16.333-129.5-49-164.5S269.667.001 205 .001H51v696h157c62 0 108.5-16.333 139.5-49s46.5-81 46.5-145c0-14-1.5-27.833-4.5-41.5s-7.5-26.5-13.5-38.5-13.833-22.667-23.5-32-21.167-16.333-34.5-21v-5z"/></font>
</defs>
</svg>
