<svg xmlns="http://www.w3.org/2000/svg" xmlns:xlink="http://www.w3.org/1999/xlink" width="229" height="178" viewBox="0 0 229 178"><defs><path id="t16ga" d="M655.6 418.45c-.5-.34-.98-.69-1.46-1.03a80.11 80.11 0 0 1-4.24-3.27c-.38-.32-.76-.63-1.12-.95a64.51 64.51 0 0 1-4.03-3.92 45.23 45.23 0 0 1-1.72-1.99l-.52-.64c-.44-.56-.85-1.13-1.25-1.7l-.13-.18c-.42-.63-.81-1.26-1.19-1.9l-.3-.55a28.22 28.22 0 0 1-1.62-3.39c-.08-.2-.17-.41-.24-.62-.21-.57-.4-1.14-.56-1.71l-.1-.28c-.18-.67-.33-1.35-.46-2.03l-.11-.76c-.07-.45-.14-.9-.18-1.35-.04-.37-.05-.76-.07-1.14-.02-.41-.05-.83-.05-1.25l-.13 45.06v.35c0 .3.04.6.05.9.02.38.03.76.07 1.14l.01.19c.04.38.11.77.17 1.15l.11.76.02.11c.12.63.27 1.26.44 1.89l.01.04.1.28c.13.5.28.98.45 1.46l.1.25.24.62.34.85c.07.17.16.34.24.5.1.22.2.45.32.67l.24.5c.14.29.31.58.47.86.1.19.2.38.32.57l.12.22c.33.55.68 1.1 1.05 1.64l.02.03c.03.06.08.11.12.17.33.49.68.97 1.05 1.46l.2.25.52.64.65.8.4.44c.21.25.44.5.67.74l.5.56c.18.2.39.38.58.58l.82.82.4.4.71.65 1.02.92.39.35.73.6 1.32 1.08.46.37.64.48c.6.45 1.2.9 1.82 1.34l.62.45c.27.2.56.39.84.58l.6.4c.78.53 1.57 1.05 2.4 1.56l.13.09a113.01 113.01 0 0 0 4.8 2.84l.64.32c1.62.9 3.25 1.76 4.9 2.56l.1.05.03.01.28.13c1.04.5 2.09.99 3.14 1.45l1.13.49 1.58.68.72.28a137.95 137.95 0 0 0 5.22 1.94l1 .36.81.25c.96.3 1.91.6 2.87.88l1.51.44c1.13.32 2.26.6 3.4.89.28.06.55.14.83.21l.19.04c.62.15 1.24.27 1.87.4.69.15 1.37.31 2.07.45.63.12 1.26.22 1.9.33.62.11 1.24.24 1.86.34l.25.03 1.09.16c.9.13 1.8.26 2.7.37l1.4.15 1.46.17.87.07 2 .16 1.2.1 1.06.04 1.4.07.95.05 1.88.04.93.01.35.01 3.07-.01.34-.01c.29 0 .57-.02.86-.03l1.9-.05a147.27 147.27 0 0 0 5.58-.36l.6-.04.16-.02c1.07-.1 2.14-.2 3.22-.32.16-.02.31-.05.47-.06l1.1-.14 1.72-.22 1.13-.17 1.3-.2.93-.14 1.93-.35 1.15-.2.38-.07c1.19-.23 2.37-.47 3.56-.73l.04-.01.39-.1c1.09-.24 2.18-.49 3.27-.76l.37-.1c.51-.12 1.02-.26 1.53-.4l1.98-.51.59-.17 1.9-.56 1.62-.48.66-.21 2.26-.73 1.47-.48.59-.21 2.88-1.04 1.34-.49.34-.13c1.63-.62 3.26-1.27 4.88-1.95.03 0 .07-.02.1-.04l.4-.17c1.65-.7 3.3-1.43 4.95-2.19l.71-.31 1.48-.71 1.4-.67 3.02-1.5.98-.5.22-.11 2.64-1.41 1.38-.74c1.41-.78 2.82-1.57 4.24-2.4L825.24 442l.42-.25 1.1-.66a189.7 189.7 0 0 0 3.16-1.9l1.6-1.02c.87-.56 1.75-1.12 2.59-1.68l.64-.41c.79-.53 1.55-1.06 2.3-1.58a124.8 124.8 0 0 0 3.08-2.24l.66-.49c.9-.67 1.77-1.35 2.61-2.03l.19-.15.47-.39a98.36 98.36 0 0 0 5.31-4.7l.1-.1a72.74 72.74 0 0 0 4.42-4.7l.25-.28c.62-.74 1.2-1.47 1.75-2.21l.43-.58c.44-.6.86-1.22 1.27-1.82l.3-.47c.48-.74.92-1.47 1.33-2.2l.26-.51c.33-.6.63-1.21.9-1.82a31.5 31.5 0 0 0 1.15-2.77c.05-.11.08-.23.12-.34a30.47 30.47 0 0 0 1.2-4.75c.2-1.31.31-2.6.32-3.9l.13-45.05a25.41 25.41 0 0 1-.94 6.72c-.17.64-.36 1.28-.58 1.92l-.11.35c-.27.73-.57 1.47-.9 2.2l-.25.57c-.28.6-.59 1.2-.9 1.81l-.28.5c-.4.74-.84 1.47-1.31 2.2-.1.17-.21.32-.32.48-.4.61-.82 1.22-1.27 1.83l-.42.57c-.55.74-1.13 1.48-1.75 2.21l-.26.3a60.54 60.54 0 0 1-4.41 4.69l-.1.1c-.77.74-1.58 1.48-2.42 2.22l-.67.6c-.72.62-1.46 1.25-2.23 1.87l-.47.4a106.71 106.71 0 0 1-3.45 2.67 134.86 134.86 0 0 1-8.62 5.9c-.53.34-1.05.68-1.59 1.01-1.03.64-2.1 1.28-3.17 1.92l-1.5.9-31.24 18.14a208 208 0 0 1-4.22 2.39l-1.43.76-2.82 1.5-1 .5c-1 .51-2 1.02-3 1.5l-1.4.68-2.2 1.01c-1.64.76-3.29 1.5-4.94 2.19l-.5.22c-1.63.68-3.25 1.32-4.88 1.94a181.7 181.7 0 0 1-4.57 1.66c-.68.24-1.37.46-2.06.69-.75.25-1.5.5-2.25.73l-2.28.7-1.9.55-2.57.69-1.53.4c-1.22.3-2.43.6-3.64.86l-.39.09c-1.33.3-2.66.56-3.99.8l-1.14.21a138.49 138.49 0 0 1-7 1.08l-1.11.14c-1.29.15-2.57.29-3.86.4l-.59.04a131.71 131.71 0 0 1-7.49.42l-.85.02c-1.26.03-2.51.03-3.76.02l-.92-.02a116 116 0 0 1-2.85-.08l-1.39-.07a128.69 128.69 0 0 1-6.6-.54l-1.4-.16c-.9-.11-1.8-.24-2.7-.37l-1.08-.15-2.12-.37-1.9-.34-2.07-.44-1.87-.4-1.01-.26c-1.14-.28-2.27-.57-3.4-.88l-1.5-.44a111.43 111.43 0 0 1-8.36-2.83l-1.56-.61-2.3-.96-1.12-.48c-1.05-.47-2.09-.95-3.12-1.44l-.3-.14-.12-.07a110.2 110.2 0 0 1-4.92-2.56c-.72-.4-1.45-.78-2.17-1.2a106.43 106.43 0 0 1-5.79-3.6l-.6-.41z"/><path id="t16gb" d="M636.57 386.1c2.14-13.36 14.69-26.73 37.72-40.1l31.11-18.08c23.11-13.43 46.14-20.76 69.1-22 22.96-1.26 43.96 3.6 62.94 14.55 19.15 11.06 27.66 23.27 25.54 36.64-2.11 13.38-14.65 26.72-37.6 40.05l-31.23 18.14c-23.1 13.42-46.14 20.77-69.1 22.01-22.96 1.25-44-3.62-63.06-14.63-19.08-11-27.54-23.2-25.42-36.57zm114.66-38.68l-42.28 24.56c-12.3 7.14-19.85 13.41-22.7 18.8-2.83 5.39-.74 10.11 6.28 14.16 6.85 3.96 14.65 5.2 23.4 3.72 8.75-1.48 18.96-5.48 30.62-11.98l43.69-25.38c12.77-7.42 20.49-13.76 23.17-19.06 2.69-5.3.51-9.98-6.5-14.03-6.78-3.9-14.67-5.12-23.66-3.64-8.98 1.48-19.64 5.76-32.02 12.85z"/><linearGradient id="t16gc" x1="636.25" x2="851.63" y1="437.5" y2="312.5" gradientUnits="userSpaceOnUse"><stop offset="0" stop-color="#25c8f1"/><stop offset="1" stop-color="#28ebff"/></linearGradient></defs><g><g transform="translate(-635 -305)"><g><use fill="#fff" fill-opacity="0" stroke="#28ebff" stroke-miterlimit="50" xlink:href="#t16ga"/></g><g><use fill="url(#t16gc)" xlink:href="#t16gb"/><use fill="#fff" fill-opacity="0" stroke="#28ebff" stroke-miterlimit="50" xlink:href="#t16gb"/></g></g></g></svg>