<svg xmlns="http://www.w3.org/2000/svg" xmlns:xlink="http://www.w3.org/1999/xlink" width="178" height="262" viewBox="0 0 178 262"><defs><path id="v8mra" d="M933.02 531.42l41.89-24.35 33.3 19.23-41.9 24.34z"/><path id="v8mrb" d="M1009.03 613.34l41.89-24.35-.13 45.13-41.89 24.35z"/><path id="v8mrc" d="M963.81 488.64l41.9-24.35-30.8 42.78-41.89 24.35z"/><path id="v8mrd" d="M1009.14 575.38l41.89-24.35 18.8 10.86-41.89 24.35z"/><path id="v8mre" d="M1027.95 586.24l41.88-24.35-.1 37.96-41.89 24.35z"/><path id="v8mrf" d="M966.68 421.55l41.89-24.35 42.82 24.28-41.89 24.35z"/><path id="v8mrg" d="M1009.03 575.38l18.8 10.86-.1 37.96-18.8-10.86-.13 45.13-42.83-24.73.13-45.13-74.08-42.78.09-30.08 74.46-94.2 42.83 24.28zm-42.82-24.73l.18-65.37-2.68 3.43-30.8 42.73z"/><path id="v8mrh" d="M1009.16 445.83l41.89-24.35-.37 129.55-41.89 24.35z"/><path id="v8mro" d="M1009.03 575.38l18.8 10.86-.1 37.96-18.8-10.86-.13 45.13-42.83-24.73.13-45.13-74.08-42.78.09-30.08 74.46-94.2 42.83 24.28zm-42.82-24.73l.18-65.37-2.68 3.43-30.8 42.73 33.3 19.2z"/><clipPath id="v8mri"><use fill="#fff" xlink:href="#v8mra"/></clipPath><clipPath id="v8mrj"><use fill="#fff" xlink:href="#v8mrb"/></clipPath><clipPath id="v8mrk"><use fill="#fff" xlink:href="#v8mrc"/></clipPath><clipPath id="v8mrl"><use fill="#fff" xlink:href="#v8mrd"/></clipPath><clipPath id="v8mrm"><use fill="#fff" xlink:href="#v8mre"/></clipPath><clipPath id="v8mrn"><use fill="#fff" xlink:href="#v8mrf"/></clipPath><linearGradient id="v8mrp" x1="892.02" x2="1020.86" y1="658.47" y2="433.73" gradientUnits="userSpaceOnUse"><stop offset="0" stop-color="#25c8f1"/><stop offset="1" stop-color="#28ebff"/></linearGradient><clipPath id="v8mrq"><use fill="#fff" xlink:href="#v8mrg"/></clipPath><clipPath id="v8mrr"><use fill="#fff" xlink:href="#v8mrh"/></clipPath></defs><g><g transform="translate(-892 -397)"><g><use fill="#fff" fill-opacity="0" stroke="#28ebff" stroke-miterlimit="50" stroke-width="2" clip-path="url(&quot;#v8mri&quot;)" xlink:href="#v8mra"/></g><g><use fill="#fff" fill-opacity="0" stroke="#28ebff" stroke-miterlimit="50" stroke-width="2" clip-path="url(&quot;#v8mrj&quot;)" xlink:href="#v8mrb"/></g><g><use fill="#fff" fill-opacity="0" stroke="#28ebff" stroke-miterlimit="50" stroke-width="2" clip-path="url(&quot;#v8mrk&quot;)" xlink:href="#v8mrc"/></g><g><use fill="#fff" fill-opacity="0" stroke="#28ebff" stroke-miterlimit="50" stroke-width="2" clip-path="url(&quot;#v8mrl&quot;)" xlink:href="#v8mrd"/></g><g><use fill="#fff" fill-opacity="0" stroke="#28ebff" stroke-miterlimit="50" stroke-width="2" clip-path="url(&quot;#v8mrm&quot;)" xlink:href="#v8mre"/></g><g><use fill="#fff" fill-opacity="0" stroke="#28ebff" stroke-miterlimit="50" stroke-width="2" clip-path="url(&quot;#v8mrn&quot;)" xlink:href="#v8mrf"/></g><g><use fill="url(#v8mrp)" xlink:href="#v8mro"/><use fill="#fff" fill-opacity="0" stroke="#28ebff" stroke-miterlimit="50" stroke-width="2" clip-path="url(&quot;#v8mrq&quot;)" xlink:href="#v8mro"/></g><g><use fill="#fff" fill-opacity="0" stroke="#28ebff" stroke-miterlimit="50" stroke-width="2" clip-path="url(&quot;#v8mrr&quot;)" xlink:href="#v8mrh"/></g></g></g></svg>