<svg width="167" height="134" xmlns="http://www.w3.org/2000/svg" xmlns:xlink="http://www.w3.org/1999/xlink"><defs><path d="M112.611 31.31c.055-.328.107-.655.153-.981.011-.081.028-.163.038-.243.021-.156.037-.311.056-.468.022-.181.044-.362.064-.543.029-.265.052-.53.074-.794.016-.17.032-.34.045-.508.02-.291.034-.58.048-.87.006-.14.016-.281.021-.422.014-.428.023-.856.02-1.28-.031-7.155-2.452-12.314-6.33-14.86l-4.015-2.635c3.879 2.546 6.3 7.705 6.33 14.86.003.425-.005.85-.02 1.28-.005.141-.014.284-.02.426-.015.288-.029.576-.05.865-.012.17-.028.341-.043.511-.023.263-.047.526-.075.79-.02.182-.042.364-.065.545a36.954 36.954 0 0 1-.246 1.69c-.03.178-.057.355-.089.533-.072.398-.152.797-.236 1.197-.022.106-.04.211-.064.317-.035.16-.075.32-.112.48-.067.29-.134.58-.206.87-.046.184-.097.366-.146.548-.067.256-.134.511-.207.766a47.245 47.245 0 0 1-.77 2.452 50.377 50.377 0 0 1-.684 1.88c-.028.07-.058.14-.085.21-.214.544-.44 1.086-.674 1.624-.063.145-.125.29-.19.435-.259.582-.526 1.16-.807 1.733l-.1.197a51.974 51.974 0 0 1-.796 1.54l-.23.424a51.184 51.184 0 0 1-.966 1.688c-.035.06-.072.116-.108.174-.323.534-.656 1.06-.997 1.578-.077.118-.153.236-.232.353-.389.582-.79 1.154-1.199 1.713-.073.1-.147.197-.22.296-.47.631-.95 1.249-1.445 1.847-.108.132-.218.26-.328.39-.208.245-.416.49-.628.73a47.84 47.84 0 0 1-1.013 1.107c-.158.165-.316.33-.475.492a36.249 36.249 0 0 1-.944.932c-.137.13-.273.26-.41.387-.186.172-.374.34-.562.507-.135.12-.267.24-.403.356-.198.171-.399.337-.6.502-.127.106-.254.214-.382.316-.193.155-.388.302-.584.451-.146.112-.291.227-.44.336-.203.15-.41.293-.616.438-.14.098-.279.2-.42.295-.232.157-.467.305-.702.454-.117.074-.232.152-.348.224a27.587 27.587 0 0 1-2.388 1.312 33.022 33.022 0 0 1-1.562.736c-.194.085-.388.173-.58.253-.337.14-.669.268-1 .392-.162.06-.325.127-.484.184-.469.167-.931.318-1.389.454-.019.005-.04.013-.059.019-.033.01-.064.016-.097.025-.49.142-.972.267-1.449.375-.174.038-.343.064-.515.099-.331.065-.662.133-.987.183-.372.057-.74.1-1.104.137-.078.007-.16.02-.237.027-.445.04-.882.062-1.313.07-.09.002-.178-.002-.267-.002-.326.002-.649-.002-.966-.018-.14-.007-.278-.018-.416-.028a17.988 17.988 0 0 1-1.199-.126c-.28-.04-.56-.088-.834-.142-.102-.02-.206-.037-.307-.058-.368-.08-.73-.17-1.087-.272-.07-.02-.138-.045-.207-.066a15.982 15.982 0 0 1-.85-.283c-.117-.042-.23-.087-.344-.132-.238-.093-.471-.19-.702-.294-.112-.05-.223-.099-.333-.151a15.86 15.86 0 0 1-.725-.37c-.087-.047-.176-.09-.262-.138a16.369 16.369 0 0 1-.966-.586l4.015 2.635c.02.014.042.027.063.04.294.192.596.373.902.545.087.049.177.093.265.14.178.096.355.195.538.285.06.03.124.054.184.084.11.052.223.102.334.152a18.078 18.078 0 0 0 1.046.426l.195.075c.215.075.436.141.657.208.068.02.135.045.204.065.325.093.653.179.988.253l.1.019c.1.022.205.038.306.058a16.563 16.563 0 0 0 1.23.193c.114.014.226.032.34.044.153.014.309.02.463.031.14.01.277.022.417.028.318.016.639.02.962.019.09 0 .18.004.271.002h.055c.413-.01.833-.033 1.257-.07.08-.007.16-.02.24-.029.335-.033.67-.068 1.013-.12l.089-.015c.325-.05.657-.118.989-.185.171-.034.34-.06.513-.099.475-.106.957-.232 1.445-.373.033-.01.065-.015.097-.025l.004-.001.057-.018a26.12 26.12 0 0 0 1.39-.455c.16-.057.324-.123.484-.183a28.45 28.45 0 0 0 1-.393c.192-.08.387-.168.581-.253a33.792 33.792 0 0 0 1.563-.736c.15-.075.296-.142.446-.22.29-.15.581-.307.874-.469.358-.198.713-.406 1.066-.622.119-.074.236-.152.353-.228.234-.148.467-.295.698-.45.14-.096.28-.198.419-.296.207-.144.414-.287.618-.438.147-.109.293-.224.439-.336.168-.128.337-.252.503-.385.028-.021.054-.045.08-.066.128-.102.254-.209.38-.313.203-.167.405-.333.604-.505.134-.116.267-.236.4-.355.19-.167.378-.336.565-.509.136-.126.271-.256.406-.384a38.452 38.452 0 0 0 .945-.931c.092-.095.187-.186.279-.282.067-.07.132-.144.199-.214.206-.218.41-.44.612-.662.134-.148.268-.295.4-.445.212-.239.42-.483.627-.728.09-.107.183-.21.272-.317.02-.024.038-.05.057-.074a46.14 46.14 0 0 0 1.444-1.847c.042-.055.087-.107.128-.162.032-.044.061-.09.093-.134.41-.56.81-1.131 1.2-1.714.03-.044.062-.086.091-.131.048-.072.092-.147.14-.22.34-.52.675-1.045.998-1.58.027-.044.055-.085.081-.13.01-.013.017-.028.025-.042.333-.555.654-1.119.967-1.688.035-.064.072-.124.107-.187.042-.08.08-.16.122-.238.274-.508.54-1.02.796-1.538.026-.052.055-.103.08-.154l.021-.045c.281-.572.548-1.15.808-1.732.027-.064.06-.126.087-.19.036-.082.067-.165.103-.247.232-.537.458-1.076.671-1.62.023-.055.048-.11.07-.165.006-.016.01-.033.017-.049a49.11 49.11 0 0 0 .684-1.88c.024-.071.053-.141.077-.212.023-.069.041-.139.064-.208a48.14 48.14 0 0 0 .63-2.03c.007-.027.016-.054.024-.08.064-.228.121-.456.181-.684.05-.184.1-.367.147-.551.073-.29.139-.58.206-.87.036-.16.077-.32.112-.48l.01-.044c.02-.091.035-.183.054-.274.084-.399.164-.798.236-1.196.032-.178.06-.354.09-.53" id="b"/><filter x="-29%" y="-23%" width="153.7%" height="142.6%" filterUnits="objectBoundingBox" id="a"><feMorphology radius=".5" in="SourceAlpha" result="shadowSpreadOuter1"/><feOffset dx="-1" dy="-1" in="shadowSpreadOuter1" result="shadowOffsetOuter1"/><feGaussianBlur stdDeviation="4.5" in="shadowOffsetOuter1" result="shadowBlurOuter1"/><feColorMatrix values="0 0 0 0 0.156862745 0 0 0 0 0.921568627 0 0 0 0 1 0 0 0 1 0" in="shadowBlurOuter1"/></filter><path d="M60.808 62.063l-3.29-2.16c.081-.25.16-.499.237-.748.057-.18.115-.362.17-.542.132-.43.258-.857.38-1.282l.081-.276.04-.144.001-.002c-.056-.167-.12-.33-.177-.494-1.553-4.714-4.32-8.777-8.14-11.283l-4.014-2.635c3.82 2.507 6.586 6.57 8.139 11.283.057.163.12.326.177.494l-.123.425c-.121.424-.247.85-.379 1.278-.055.18-.113.363-.17.544-.118.377-.24.755-.366 1.134l-.187.558c-.124.36-.252.723-.381 1.085l-.177.498a84.3 84.3 0 0 1-.597 1.585l-.067.166c-.179.455-.362.913-.551 1.37l-.222.524a64.385 64.385 0 0 1-.716 1.649 70.606 70.606 0 0 1-1.11 2.38 78.424 78.424 0 0 1-.734 1.472 104.013 104.013 0 0 1-.773 1.472 73.229 73.229 0 0 1-1.183 2.124c-.149.258-.3.514-.45.77a73.857 73.857 0 0 1-.87 1.431c-.137.22-.273.439-.412.657-.161.254-.327.507-.492.76-.139.213-.277.426-.419.638-.188.282-.38.56-.571.84-.131.19-.261.381-.394.57-.211.3-.425.596-.64.893-.12.163-.236.328-.355.49-.355.48-.715.955-1.081 1.424-.076.097-.154.192-.23.288-.293.371-.588.74-.888 1.104-.109.132-.222.263-.332.395a64.124 64.124 0 0 1-2.731 3.055c-.008.007-.014.015-.02.022-.385.4-.774.793-1.168 1.18-.122.119-.247.235-.37.353-.274.263-.547.526-.824.783-.159.146-.32.287-.48.43-.248.224-.494.447-.746.665-.174.151-.351.296-.527.445-.241.203-.482.407-.726.605-.157.126-.316.249-.473.373a43.585 43.585 0 0 1-2.363 1.747c-.177.122-.354.245-.533.365-.328.219-.66.43-.993.641-.156.098-.312.2-.47.296a40.2 40.2 0 0 1-1.486.867c-.283.157-.564.3-.845.441a19.57 19.57 0 0 1-1.03.49c-.142.062-.284.126-.425.185a19.71 19.71 0 0 1-.604.24c-.132.051-.266.105-.399.152-.215.078-.427.147-.64.215-.116.037-.231.078-.346.112-.118.036-.235.063-.353.096-.248.068-.496.136-.74.193-.139.03-.275.056-.412.084-.22.045-.44.088-.656.122-.17.028-.338.05-.506.072-.136.016-.27.034-.403.047-.181.017-.36.028-.539.04-.126.006-.254.016-.38.02a13.63 13.63 0 0 1-.7.002l-.158-.001c-.283-.01-.564-.03-.84-.06-.069-.006-.135-.017-.203-.025a11.78 11.78 0 0 1-.873-.14 9.523 9.523 0 0 1-.388-.087 11.17 11.17 0 0 1-1.058-.3l-.073-.023a10.652 10.652 0 0 1-1.045-.437c-.086-.041-.17-.084-.255-.127-.312-.159-.62-.33-.916-.52-.036-.023-.075-.043-.11-.067l4.014 2.636.044.028c.022.015.045.025.068.04.296.189.602.36.915.518.046.024.088.053.133.076.04.019.083.032.122.051.34.162.687.311 1.045.437l.014.006c.018.006.04.01.058.017.345.118.699.216 1.059.3.05.012.097.031.148.042.078.018.16.03.24.046.087.017.175.035.263.05.201.035.405.064.61.09.068.007.134.017.202.025l.06.007c.258.026.519.042.783.051.05.002.101 0 .153.002.197.004.395.009.594.004.036-.001.073-.005.11-.006.125-.003.252-.013.38-.02.178-.011.356-.022.538-.04.134-.013.268-.03.402-.048.113-.014.225-.022.339-.04.055-.007.113-.022.168-.03.217-.036.436-.078.656-.123.136-.028.273-.053.41-.085.246-.056.494-.123.742-.192.098-.027.192-.046.29-.075l.063-.021c.114-.034.23-.075.345-.112.213-.068.426-.137.642-.214.132-.048.266-.102.4-.153.2-.076.4-.155.602-.24a26.004 26.004 0 0 0 1.456-.674c.097-.05.193-.093.29-.144.184-.096.37-.195.554-.297.5-.278.995-.568 1.486-.867.158-.098.315-.2.473-.3.332-.207.662-.42.99-.638.178-.12.356-.243.535-.366.305-.21.608-.425.909-.644.175-.128.352-.257.527-.389.312-.232.619-.472.925-.713.112-.088.226-.17.336-.259.046-.037.09-.076.136-.114.246-.198.487-.403.73-.607.174-.147.35-.292.524-.442.25-.217.497-.44.744-.664.16-.144.323-.286.482-.433.274-.253.544-.514.814-.773.126-.122.256-.24.38-.363.394-.386.783-.78 1.167-1.179l.004-.003.02-.022a58.83 58.83 0 0 0 1.332-1.441c.128-.142.254-.286.38-.429.344-.39.683-.784 1.017-1.184.073-.086.149-.17.222-.257l.109-.136c.302-.365.598-.736.892-1.109.074-.094.151-.187.226-.282.365-.47.725-.944 1.08-1.424l.049-.065c.105-.143.206-.288.31-.432.214-.294.427-.589.636-.886.133-.19.263-.381.395-.573.192-.279.384-.558.572-.84.04-.059.081-.117.12-.176.1-.15.196-.304.294-.455.168-.255.334-.51.498-.768a85.15 85.15 0 0 0 .883-1.42c.05-.084.102-.166.152-.249.083-.138.161-.277.243-.416a74.962 74.962 0 0 0 1.267-2.216c.057-.104.117-.206.173-.31.066-.122.13-.245.194-.366a77.728 77.728 0 0 0 1.176-2.273c.063-.126.129-.252.191-.38.048-.096.093-.194.14-.291.138-.284.273-.568.408-.853.103-.219.207-.437.308-.657.134-.29.265-.58.394-.87.068-.152.14-.303.206-.455l.076-.177c.148-.34.292-.678.435-1.018.074-.175.15-.35.222-.526.19-.457.373-.914.551-1.37.02-.05.043-.102.062-.154l.004-.011c.208-.53.406-1.06.598-1.588.06-.163.117-.325.175-.489.13-.365.259-.729.382-1.091.026-.075.054-.15.079-.224.032-.094.06-.186.09-.28.033.05.064.103.097.152a22.759 22.759 0 0 0 3.164 3.808 20.105 20.105 0 0 0 2.853 2.28l4.014 2.635a20.207 20.207 0 0 1-3.712-3.155 23.717 23.717 0 0 1-2.978-4.001" id="d"/><filter x="-23.8%" y="-23.6%" width="144%" height="143.6%" filterUnits="objectBoundingBox" id="c"><feMorphology radius=".5" in="SourceAlpha" result="shadowSpreadOuter1"/><feOffset dx="-1" dy="-1" in="shadowSpreadOuter1" result="shadowOffsetOuter1"/><feGaussianBlur stdDeviation="4.5" in="shadowOffsetOuter1" result="shadowBlurOuter1"/><feColorMatrix values="0 0 0 0 0.156862745 0 0 0 0 0.921568627 0 0 0 0 1 0 0 0 1 0" in="shadowBlurOuter1"/></filter><path d="M61.226 46.917c.196-.579.4-1.16.61-1.743l.19-.512a89.86 89.86 0 0 1 1.17-3.006 89.56 89.56 0 0 1 .818-1.94c.053-.119.103-.24.155-.36.244-.553.495-1.106.752-1.659.065-.14.134-.28.2-.421.194-.413.39-.825.592-1.238.101-.207.206-.415.31-.623.167-.336.335-.671.506-1.006.113-.22.228-.438.343-.657a87.957 87.957 0 0 1 1.407-2.587c.123-.217.246-.435.37-.651a72.7 72.7 0 0 1 .57-.973c.121-.203.24-.408.363-.612.22-.361.442-.721.666-1.08.102-.164.202-.329.306-.493a81.89 81.89 0 0 1 1.003-1.549l.102-.15c.315-.472.635-.942.96-1.409.12-.173.244-.344.366-.516.242-.344.486-.685.735-1.024.133-.182.268-.362.402-.543.276-.371.556-.739.839-1.105.135-.175.27-.351.408-.525.324-.413.654-.821.986-1.227.089-.107.175-.217.264-.324a73.752 73.752 0 0 1 3.156-3.546l.258-.274c.43-.446.864-.886 1.304-1.317.054-.053.109-.103.163-.155.388-.378.78-.75 1.175-1.116.153-.141.308-.278.462-.418.302-.272.605-.544.911-.81.179-.154.359-.306.54-.459a56.422 56.422 0 0 1 1.449-1.187 64.26 64.26 0 0 1 1.419-1.085c.29-.215.586-.423.88-.631.188-.133.376-.268.566-.398.325-.223.655-.439.984-.653.164-.106.325-.216.49-.32.495-.314.993-.62 1.498-.914.108-.078.213-.133.317-.188l.092-.047c.158-.092.312-.187.471-.275.396-.202.79-.39 1.18-.567.129-.058.256-.109.384-.164.261-.114.523-.227.783-.33.152-.06.302-.113.453-.17.234-.088.467-.174.7-.252a23.422 23.422 0 0 1 1.086-.336c.275-.078.546-.147.817-.212.154-.037.31-.077.462-.11.312-.068.62-.123.927-.174.109-.018.218-.041.326-.057.158-.024.314-.037.47-.056.213-.026.427-.054.638-.072.16-.013.32-.018.48-.026.203-.012.406-.026.607-.029.116-.002.23.001.345.002.224.001.448.003.67.014.128.006.255.017.383.026a13.92 13.92 0 0 1 .964.1c.213.03.422.065.63.105.106.019.21.037.314.059.275.058.546.123.813.197l.083.02c.294.084.584.179.87.282.082.03.163.062.245.094a12.312 12.312 0 0 1 1.474.671c.073.04.147.076.22.116.27.151.535.31.795.48l-.012-.008a.207.207 0 0 0 .012.008l-4.015-2.635-.05-.033a13.197 13.197 0 0 0-.745-.446c-.072-.041-.147-.078-.22-.117-.13-.069-.257-.14-.39-.205-.066-.033-.135-.061-.204-.093a12.536 12.536 0 0 0-.88-.372c-.082-.033-.163-.066-.246-.095l-.1-.04c-.252-.088-.51-.168-.77-.242l-.082-.02c-.224-.062-.45-.121-.679-.172-.044-.01-.09-.016-.134-.025-.104-.022-.21-.04-.314-.06a14.414 14.414 0 0 0-.973-.147c-.083-.01-.162-.024-.245-.032-.123-.012-.25-.016-.374-.025-.129-.01-.257-.02-.387-.026a16.38 16.38 0 0 0-.67-.014c-.114 0-.226-.004-.342-.002-.03 0-.057-.002-.085 0-.172.003-.349.018-.522.028-.161.01-.32.013-.482.027-.208.017-.42.046-.63.07-.159.02-.317.034-.477.058l-.05.006c-.09.013-.181.036-.271.05a19.31 19.31 0 0 0-.933.175c-.152.033-.307.073-.46.11-.27.065-.543.134-.816.212-.072.019-.141.033-.213.054-.134.04-.27.088-.406.13-.155.05-.311.098-.468.152-.233.079-.468.165-.703.253-.15.056-.3.11-.451.169-.26.103-.521.216-.784.33-.127.055-.254.106-.382.164-.392.177-.785.365-1.182.567-.157.087-.312.182-.47.275a.523.523 0 0 1-.02.01l-.06.031-.012.007a2.25 2.25 0 0 0-.316.187c-.505.294-1.004.6-1.5.914-.164.104-.326.214-.49.32-.329.215-.657.43-.982.652-.192.132-.38.267-.57.4a43.263 43.263 0 0 0-1.465 1.073c-.279.212-.556.425-.831.642-.094.075-.191.145-.285.22-.097.078-.192.161-.289.24-.295.24-.587.483-.878.73-.179.15-.358.301-.535.455-.307.267-.61.539-.913.812-.154.14-.31.276-.462.417-.394.364-.783.734-1.17 1.11l-.169.162c-.44.43-.873.87-1.302 1.315-.024.026-.05.05-.075.076-.063.065-.123.134-.185.2-.447.47-.887.946-1.32 1.429l-.374.415a70.929 70.929 0 0 0-1.46 1.7l-.047.055c-.074.089-.144.181-.218.27-.332.406-.661.814-.987 1.227-.137.174-.272.35-.408.525-.282.365-.561.733-.838 1.105l-.242.319c-.054.074-.106.15-.161.224-.248.34-.492.682-.735 1.025l-.365.514a85.4 85.4 0 0 0-.962 1.412l-.091.134-.009.014c-.34.513-.674 1.03-1.003 1.55-.103.163-.203.326-.304.49-.225.36-.448.72-.667 1.082l-.1.16c-.089.15-.175.302-.264.453a75.25 75.25 0 0 0-.569.97l-.372.654a98.7 98.7 0 0 0-.529.948c-.059.108-.12.214-.18.322-.061.115-.12.23-.182.345a88.97 88.97 0 0 0-.515.97c-.114.219-.23.438-.342.658-.173.335-.34.671-.507 1.007-.075.15-.153.298-.227.448l-.083.174a89.55 89.55 0 0 0-.592 1.238c-.066.14-.135.28-.2.421a88.605 88.605 0 0 0-.751 1.659l-.025.055c-.045.102-.086.204-.131.306a92.99 92.99 0 0 0-.575 1.345c-.083.198-.163.396-.244.594-.154.376-.305.75-.452 1.125l-.126.312c-.04.101-.075.201-.114.303-.163.422-.322.844-.477 1.266-.063.17-.127.341-.189.512a93.123 93.123 0 0 0-.622 1.774 98.7 98.7 0 0 0-.468 1.427l4.015 2.635a77.4 77.4 0 0 1 .48-1.458" id="f"/><filter x="-25.4%" y="-27.9%" width="147%" height="151.7%" filterUnits="objectBoundingBox" id="e"><feMorphology radius=".5" in="SourceAlpha" result="shadowSpreadOuter1"/><feOffset dx="-1" dy="-1" in="shadowSpreadOuter1" result="shadowOffsetOuter1"/><feGaussianBlur stdDeviation="4.5" in="shadowOffsetOuter1" result="shadowBlurOuter1"/><feColorMatrix values="0 0 0 0 0.156862745 0 0 0 0 0.921568627 0 0 0 0 1 0 0 0 1 0" in="shadowBlurOuter1"/></filter><path d="M4.016 85.553c-.003-.506.006-1.015.024-1.527.005-.168.017-.338.025-.507.016-.343.032-.686.057-1.032.013-.205.034-.41.052-.615.026-.313.053-.625.086-.939.023-.217.051-.435.078-.653a43.578 43.578 0 0 1 .316-2.179c.028-.164.051-.328.08-.492.11-.604.228-1.208.359-1.812.074-.34.155-.68.236-1.02.047-.196.089-.39.138-.587.103-.417.217-.833.33-1.25.034-.12.063-.24.097-.361.144-.509.295-1.017.454-1.525.05-.159.103-.317.154-.476a57.797 57.797 0 0 1 1.133-3.203c.062-.16.126-.32.19-.478a57.96 57.96 0 0 1 .802-1.935l.131-.306c.309-.7.634-1.393.97-2.081.08-.166.163-.331.245-.497.309-.62.627-1.237.955-1.846.047-.085.09-.17.136-.255.374-.687.764-1.363 1.163-2.032.091-.155.186-.31.28-.464.421-.695.853-1.384 1.3-2.058l.073-.107c.473-.71.961-1.404 1.46-2.087.092-.128.184-.258.278-.384.15-.202.303-.4.455-.6.183-.238.364-.477.55-.712.156-.198.315-.394.474-.589.177-.22.356-.438.536-.654.26-.311.525-.616.79-.92.131-.149.26-.3.392-.448.385-.43.774-.851 1.17-1.263l.042-.046c.024-.025.049-.048.072-.073.339-.35.68-.694 1.025-1.03.125-.122.252-.238.377-.358.247-.235.494-.47.743-.698.15-.136.3-.266.45-.4.23-.204.46-.408.693-.606.161-.136.323-.269.485-.402a31.061 31.061 0 0 1 1.123-.895 35.381 35.381 0 0 1 1.167-.863c.264-.188.53-.369.798-.547.124-.084.249-.17.374-.252.393-.255.786-.503 1.182-.739.158-.117.313-.193.467-.273.139-.082.274-.166.412-.242a40.28 40.28 0 0 1 1.813-.891l.116-.05a36.408 36.408 0 0 1 1.568-.673c.188-.076.372-.14.558-.21.366-.14.731-.278 1.091-.4.212-.073.422-.137.633-.203.312-.1.622-.195.93-.282a28.79 28.79 0 0 1 1.027-.265c.24-.057.48-.12.717-.17a24.3 24.3 0 0 1 1.049-.195c.219-.038.441-.082.658-.113.208-.03.41-.049.616-.073.3-.035.6-.07.896-.093.212-.017.42-.024.63-.035.287-.014.573-.028.855-.03.176-.002.35.001.524.004a21.366 21.366 0 0 1 1.384.065c.301.025.6.058.895.096.137.018.275.032.411.053.417.063.83.136 1.234.225l.028.006c.413.09.817.199 1.216.316.125.037.246.078.369.117a16.766 16.766 0 0 1 1.232.438c.256.102.51.21.76.323.127.057.254.112.38.172.277.134.549.275.819.421.091.05.186.096.277.147.368.208.73.426 1.082.657l-4.015-2.635-.075-.049a18.812 18.812 0 0 0-1.006-.608c-.091-.05-.186-.097-.278-.146-.216-.117-.43-.236-.65-.345-.056-.027-.115-.05-.17-.077-.125-.06-.252-.114-.378-.172a17.661 17.661 0 0 0-1.178-.484c-.096-.035-.189-.075-.285-.109-.174-.061-.352-.112-.529-.168-.123-.039-.246-.08-.37-.118a18.88 18.88 0 0 0-1.212-.315h-.004l-.028-.006a18.51 18.51 0 0 0-1.234-.225c-.136-.02-.273-.036-.41-.053-.196-.025-.388-.056-.586-.075-.101-.01-.207-.012-.309-.02a22.317 22.317 0 0 0-1.386-.067 20.033 20.033 0 0 0-.522-.003c-.09 0-.177-.004-.267-.002-.193.005-.393.022-.589.032-.21.01-.419.018-.63.035-.295.022-.596.058-.895.093-.206.024-.41.043-.617.073-.047.006-.092.01-.14.017-.17.025-.348.066-.52.096-.346.06-.694.119-1.047.195-.236.05-.477.112-.716.17-.34.082-.682.168-1.029.265-.094.027-.185.044-.28.072-.213.063-.432.14-.648.21-.211.066-.421.13-.634.203-.36.123-.725.26-1.09.399-.187.07-.37.135-.56.21a37.96 37.96 0 0 0-1.568.674c-.038.018-.075.032-.115.05-.532.245-1.07.508-1.614.788l-.199.102c-.138.077-.273.161-.411.243-.155.08-.31.156-.467.273-.397.236-.79.483-1.183.738-.125.082-.25.169-.375.254a36.65 36.65 0 0 0-.797.545c-.143.102-.287.208-.43.312a41.614 41.614 0 0 0-1.166.884c-.082.064-.166.127-.247.192-.15.12-.297.247-.445.37-.164.134-.326.266-.487.403-.232.198-.462.402-.692.605-.15.134-.301.265-.451.401-.25.228-.496.463-.743.698-.125.12-.252.236-.377.357-.349.34-.694.688-1.035 1.04l-.06.063-.005.004-.045.05c-.394.409-.781.828-1.164 1.256-.132.147-.26.3-.391.448-.266.304-.53.608-.79.92-.053.061-.107.12-.158.182-.128.156-.253.315-.38.472-.159.196-.317.39-.474.589-.185.234-.366.473-.548.712-.153.199-.306.397-.456.6-.042.057-.086.11-.128.168-.051.07-.1.145-.15.216a57.64 57.64 0 0 0-1.462 2.089l-.055.079-.016.026a61.354 61.354 0 0 0-1.3 2.058c-.05.081-.104.159-.152.24-.045.075-.085.15-.13.225a64.182 64.182 0 0 0-1.161 2.03l-.034.06c-.035.064-.066.131-.101.196-.33.61-.647 1.226-.956 1.847-.048.095-.1.188-.147.283-.035.07-.065.143-.099.213-.335.688-.66 1.381-.969 2.08l-.037.08c-.033.075-.06.152-.093.227-.28.64-.547 1.286-.804 1.934-.039.1-.083.197-.123.296-.023.06-.043.122-.066.183a59.99 59.99 0 0 0-.816 2.247c-.019.052-.04.104-.058.157-.089.265-.172.53-.258.796-.051.16-.106.32-.156.48a58.904 58.904 0 0 0-.45 1.511l-.003.012c-.034.121-.063.242-.096.362-.114.417-.228.833-.332 1.25-.048.196-.09.392-.137.588-.076.322-.156.644-.226.966l-.01.053c-.131.604-.25 1.208-.358 1.811-.03.164-.053.329-.08.492a47.62 47.62 0 0 0-.207 1.322c-.01.078-.026.156-.036.233-.028.209-.049.415-.074.623-.026.219-.054.438-.078.656-.033.313-.06.626-.087.937-.017.206-.037.411-.05.616-.026.345-.042.689-.058 1.032-.008.17-.02.339-.026.507A39.735 39.735 0 0 0 0 82.92c.039 8.646 2.965 14.883 7.654 17.96l4.015 2.635c-4.689-3.077-7.616-9.314-7.653-17.96" id="h"/><filter x="-25.4%" y="-19.4%" width="147%" height="135.9%" filterUnits="objectBoundingBox" id="g"><feMorphology radius=".5" in="SourceAlpha" result="shadowSpreadOuter1"/><feOffset dx="-1" dy="-1" in="shadowSpreadOuter1" result="shadowOffsetOuter1"/><feGaussianBlur stdDeviation="4.5" in="shadowOffsetOuter1" result="shadowBlurOuter1"/><feColorMatrix values="0 0 0 0 0.156862745 0 0 0 0 0.921568627 0 0 0 0 1 0 0 0 1 0" in="shadowBlurOuter1"/></filter></defs><g fill="none" fill-rule="evenodd"><path d="M162.682 75.325L54.16 130.943a13.704 13.704 0 0 1-13.284-.435l-37.163-22.24c-3.048-1.823-2.922-6.28.225-7.928l110.35-57.826a7.633 7.633 0 0 1 7.46.212l41.196 24.65c3.063 1.835 2.916 6.32-.26 7.949z" stroke="#25C8F1" stroke-width="3"/><g transform="translate(25.531 8.48)"><use fill="#000" filter="url(#a)" xlink:href="#b"/><use fill="#28EBFF" xlink:href="#b"/></g><g transform="translate(25.531 8.48)"><use fill="#000" filter="url(#c)" xlink:href="#d"/><use fill="#28EBFF" xlink:href="#d"/></g><g transform="translate(25.531 8.48)"><use fill="#000" filter="url(#e)" xlink:href="#f"/><use fill="#28EBFF" xlink:href="#f"/></g><g transform="translate(25.531 8.48)"><use fill="#000" filter="url(#g)" xlink:href="#h"/><use fill="#28EBFF" xlink:href="#h"/></g><path d="M55.178 105.74c14.478-8.007 24.641-25.55 28.78-40.35-.056-.169-.12-.332-.176-.495-3.674-11.145-14.127-18.648-29.244-10.559C43.083 60.944 33.884 77.53 33.946 91.6c.063 14.235 9.586 20.582 21.232 14.14m62.48-34.557c11.646-6.441 21.067-23.267 21.003-37.501-.06-14.07-9.362-20.424-20.82-14.36-15.114 8.632-25.446 27.631-29.007 42.778-.055.225-.117.458-.172.688 4.25 10.162 14.518 16.402 28.996 8.395m.626-57.513c13.67-6.962 24.703.734 24.777 17.579.076 17.202-11.31 37.531-25.38 45.314-14.806 8.189-25.743 3.37-31.343-6.02-5.488 15.524-16.33 32.387-31.136 40.576-14.07 7.783-25.58.117-25.656-17.086-.074-16.844 10.838-36.679 24.502-44.803.157-.117.312-.193.467-.273.138-.082.273-.166.411-.242 15.18-7.926 26.178-2.098 31.353 8.14 5.058-15.897 15.95-33.833 31.127-42.674.138-.1.273-.165.407-.235.16-.093.314-.188.471-.276" fill="#25C8F1"/></g></svg>