<?xml version="1.0" encoding="utf-8"?>
<!-- Generator: Adobe Illustrator 22.1.0, SVG Export Plug-In . SVG Version: 6.00 Build 0)  -->
<svg version="1.1" id="Слой_1" xmlns="http://www.w3.org/2000/svg" xmlns:xlink="http://www.w3.org/1999/xlink" x="0px" y="0px"
	 viewBox="0 0 1440 417" style="enable-background:new 0 0 1440 417;" xml:space="preserve">
<style type="text/css">
	.st0{fill:none;stroke:url(#Stroke-1-Copy-2_1_);stroke-width:3;}
	.st1{fill:#8CEFFD;}
</style>
<title>line-4</title>
<desc>Created with Sketch.</desc>
<linearGradient id="Stroke-1-Copy-2_1_" gradientUnits="userSpaceOnUse" x1="37.8706" y1="591.822" x2="37.0779" y2="591.822" gradientTransform="matrix(1817 0 0 -506 -67371 299792)">
	<stop  offset="0" style="stop-color:#28EBFF;stop-opacity:0"/>
	<stop  offset="9.514681e-02" style="stop-color:#28EBFF"/>
	<stop  offset="0.9098" style="stop-color:#28EBFF"/>
	<stop  offset="1" style="stop-color:#28EBFF;stop-opacity:0"/>
</linearGradient>
<polyline id="Stroke-1-Copy-2" class="st0" points="-179,102.1 346.6,415 686,242.5 827,326.1 1638,-91 "/>
<g>
	<g>
		<g>
			<polygon class="st1" points="841.9,237.3 844.6,235.9 844.7,235.9 847.4,234.5 847.4,234.4 850.1,233 850.2,233 853,231.5 
				853,228.9 850.2,230.3 850.1,230.4 847.4,231.8 847.4,231.8 844.7,233.2 844.6,233.3 841.9,234.7 841.8,234.7 839,236.2 
				839,238.8 841.8,237.4 			"/>
		</g>
		<g>
			<polygon class="st1" points="861.4,227.2 864.1,225.8 864.2,225.8 866.9,224.4 867,224.3 869.7,222.9 869.8,222.9 872.6,221.4 
				872.6,218.8 869.8,220.2 869.7,220.3 867,221.7 866.9,221.7 864.2,223.1 864.1,223.2 861.4,224.6 861.3,224.6 858.5,226.1 
				858.5,228.7 861.3,227.3 			"/>
		</g>
		<g>
			<polygon class="st1" points="881,217.1 883.7,215.7 883.8,215.7 886.5,214.3 886.5,214.2 889.2,212.8 889.3,212.8 892.1,211.3 
				892.1,208.7 889.3,210.1 889.2,210.2 886.5,211.6 886.5,211.6 883.8,213 883.7,213.1 881,214.5 880.9,214.5 878.1,216 
				878.1,218.6 880.9,217.2 			"/>
		</g>
		<g>
			<polygon class="st1" points="903.3,202.9 903.2,203 900.5,204.4 900.4,204.4 897.6,205.9 897.6,208.5 900.4,207.1 900.5,207 
				903.2,205.6 903.3,205.6 906.1,204.1 906.1,201.5 			"/>
		</g>
		<g>
			<polygon class="st1" points="841.9,244.7 844.6,243.3 844.7,243.3 847.4,241.9 847.4,241.8 850.1,240.4 850.2,240.4 853,238.9 
				853,236.3 850.2,237.7 850.1,237.8 847.4,239.2 847.4,239.2 844.7,240.6 844.6,240.7 841.9,242.1 841.8,242.1 839,243.5 
				839,246.2 841.8,244.7 			"/>
		</g>
		<g>
			<polygon class="st1" points="861.4,234.6 864.1,233.2 864.2,233.1 866.9,231.8 867,231.7 869.7,230.3 869.8,230.3 872.5,228.9 
				872.6,228.8 875.3,227.4 875.4,227.4 878.1,226 878.2,225.9 880.9,224.5 880.9,224.5 883.6,223.1 883.7,223.1 886.4,221.7 
				886.5,221.6 889.2,220.2 889.3,220.2 892.1,218.7 892.1,216.1 889.3,217.5 889.2,217.6 886.5,219 886.4,219 883.7,220.4 
				883.6,220.5 880.9,221.9 880.9,221.9 878.2,223.3 878.1,223.3 875.4,224.7 875.3,224.8 872.6,226.2 872.5,226.2 869.8,227.6 
				869.7,227.7 867,229.1 866.9,229.1 864.2,230.5 864.1,230.6 861.4,231.9 861.3,232 858.5,233.4 858.5,236.1 861.3,234.6 			"/>
		</g>
		<g>
			<polygon class="st1" points="841.9,252.1 844.6,250.7 844.7,250.6 847.4,249.2 847.4,249.2 850.1,247.8 850.2,247.7 852.9,246.3 
				853,246.3 855.7,244.9 855.8,244.9 858.5,243.5 858.6,243.4 861.3,242 861.4,242 864.1,240.6 864.2,240.5 867,239.1 867,236.5 
				864.2,237.9 864.1,237.9 861.4,239.3 861.3,239.4 858.6,240.8 858.5,240.8 855.8,242.2 855.7,242.3 853,243.7 852.9,243.7 
				850.2,245.1 850.1,245.1 847.4,246.5 847.4,246.6 844.7,248 844.6,248 841.9,249.4 841.8,249.5 839,250.9 839,253.6 841.8,252.1 
							"/>
		</g>
		<g>
			<polygon class="st1" points="878.1,233.4 878.2,233.3 880.9,231.9 880.9,231.9 883.6,230.5 883.7,230.4 886.5,229 886.5,226.3 
				883.7,227.8 883.6,227.8 880.9,229.2 880.9,229.3 878.2,230.7 878.1,230.7 875.4,232.1 875.3,232.2 872.5,233.6 872.5,236.2 
				875.3,234.8 875.4,234.8 			"/>
		</g>
		<g>
			<polygon class="st1" points="892,226.1 894.8,224.7 894.9,224.7 897.6,223.3 897.7,223.2 900.5,221.8 900.5,219.1 897.7,220.6 
				897.6,220.6 894.9,222 894.8,222.1 892,223.5 			"/>
		</g>
		<g>
			<polygon class="st1" points="841.9,259.4 844.6,258 844.7,258 847.4,256.6 847.4,256.6 850.2,255.1 850.2,252.5 847.4,253.9 
				847.4,254 844.7,255.4 844.6,255.4 841.9,256.8 841.8,256.8 839,258.3 839,260.9 841.8,259.5 			"/>
		</g>
		<g>
			<polygon class="st1" points="872.5,241 869.8,242.4 869.7,242.4 867,243.8 866.9,243.9 864.2,245.3 864.1,245.3 861.4,246.7 
				861.3,246.7 858.6,248.1 858.5,248.2 855.7,249.6 855.7,252.3 858.5,250.8 858.6,250.8 861.3,249.4 861.4,249.3 864.1,247.9 
				864.2,247.9 866.9,246.5 867,246.5 869.7,245.1 869.8,245 872.5,243.6 872.6,243.6 875.4,242.1 875.4,239.5 872.6,240.9 			"/>
		</g>
		<g>
			<polygon class="st1" points="886.5,236.4 889.2,235 889.3,234.9 892.1,233.5 892.1,230.8 889.3,232.3 889.2,232.3 886.5,233.7 
				886.5,233.8 883.8,235.2 883.7,235.2 880.9,236.6 880.9,239.3 883.7,237.8 883.8,237.8 886.5,236.4 			"/>
		</g>
		<g>
			<polygon class="st1" points="903.2,225.1 900.5,226.5 900.4,226.5 897.6,228 897.6,230.6 900.4,229.2 900.5,229.1 903.2,227.7 
				903.3,227.7 906.1,226.3 906.1,223.6 903.3,225.1 			"/>
		</g>
		<g>
			<polygon class="st1" points="841.9,266.8 844.6,265.4 844.7,265.4 847.4,264 847.4,263.9 850.1,262.5 850.2,262.5 853,261.1 
				853,258.4 850.2,259.9 850.1,259.9 847.4,261.3 847.4,261.3 844.7,262.7 844.6,262.8 841.9,264.2 841.8,264.2 839,265.7 
				839,268.3 841.8,266.9 			"/>
		</g>
		<g>
			<polygon class="st1" points="880.9,244 878.2,245.4 878.1,245.5 875.4,246.9 875.3,246.9 872.6,248.3 872.5,248.4 869.8,249.8 
				869.7,249.8 867,251.2 866.9,251.2 864.2,252.6 864.1,252.7 861.4,254.1 861.3,254.1 858.5,255.6 858.5,258.2 861.3,256.8 
				861.4,256.7 864.1,255.3 864.2,255.3 866.9,253.9 867,253.8 869.7,252.4 869.8,252.4 872.5,251 872.6,251 875.3,249.6 
				875.4,249.5 878.1,248.1 878.2,248.1 880.9,246.7 880.9,246.6 883.7,245.2 883.7,242.5 880.9,244 			"/>
		</g>
		<g>
			<polygon class="st1" points="892,238.3 889.2,239.7 889.2,242.3 892,240.9 892.1,240.8 894.9,239.4 894.9,236.8 892.1,238.2 			
				"/>
		</g>
		<g>
			<polygon class="st1" points="855.7,264.4 853,265.8 852.9,265.8 850.2,267.2 850.1,267.3 847.4,268.7 847.4,268.7 844.7,270.1 
				844.6,270.2 841.9,271.6 841.8,271.6 839,273 839,275.7 841.8,274.2 841.9,274.2 844.6,272.8 844.7,272.8 847.4,271.4 
				847.4,271.3 850.1,269.9 850.2,269.9 852.9,268.5 853,268.4 855.7,267 855.8,267 858.6,265.5 858.6,262.9 855.8,264.3 			"/>
		</g>
		<g>
			<polygon class="st1" points="878.1,252.8 875.4,254.2 875.3,254.3 872.6,255.7 872.5,255.7 869.8,257.1 869.7,257.2 867,258.6 
				866.9,258.6 864.1,260.1 864.1,262.7 866.9,261.3 867,261.2 869.7,259.8 869.8,259.8 872.5,258.4 872.6,258.3 875.3,256.9 
				875.4,256.9 878.1,255.5 878.2,255.4 880.9,254 880.9,251.4 878.2,252.8 			"/>
		</g>
		<g>
			<polygon class="st1" points="897.6,242.7 894.9,244.1 894.8,244.2 892.1,245.6 892,245.6 889.3,247 889.2,247.1 886.5,248.5 
				886.5,251.2 889.2,249.7 889.3,249.7 892,248.3 892.1,248.2 894.8,246.8 894.9,246.8 897.6,245.4 897.7,245.3 900.5,243.9 
				900.5,241.3 897.7,242.7 			"/>
		</g>
	</g>
</g>
<g>
	<g>
		<g>
			<polygon class="st1" points="1396.2,117.6 1393.5,119 1393.5,119 1390.8,120.4 1390.7,120.5 1388,121.9 1387.9,121.9 
				1385.1,123.3 1385.1,126 1387.9,124.5 1388,124.5 1390.7,123.1 1390.8,123.1 1393.5,121.7 1393.5,121.6 1396.2,120.2 
				1396.3,120.2 1399.1,118.7 1399.1,116.1 1396.3,117.5 			"/>
		</g>
		<g>
			<polygon class="st1" points="1376.7,127.7 1374,129.1 1373.9,129.1 1371.2,130.5 1371.1,130.6 1368.4,132 1368.3,132 
				1365.5,133.4 1365.5,136.1 1368.3,134.6 1368.4,134.6 1371.1,133.2 1371.2,133.2 1373.9,131.8 1374,131.7 1376.7,130.3 
				1376.8,130.3 1379.6,128.8 1379.6,126.2 1376.8,127.6 			"/>
		</g>
		<g>
			<polygon class="st1" points="1357.2,137.8 1354.4,139.2 1354.4,139.2 1351.7,140.6 1351.6,140.7 1348.9,142.1 1348.8,142.1 
				1346,143.6 1346,146.2 1348.8,144.7 1348.9,144.7 1351.6,143.3 1351.7,143.3 1354.4,141.9 1354.4,141.8 1357.2,140.4 
				1357.2,140.4 1360,138.9 1360,136.3 1357.2,137.7 			"/>
		</g>
		<g>
			<polygon class="st1" points="1334.8,152 1334.9,151.9 1337.6,150.5 1337.7,150.5 1340.5,149 1340.5,146.4 1337.7,147.8 
				1337.6,147.9 1334.9,149.3 1334.8,149.3 1332,150.8 1332,153.4 			"/>
		</g>
		<g>
			<polygon class="st1" points="1396.2,110.2 1393.5,111.6 1393.5,111.6 1390.8,113 1390.7,113.1 1388,114.5 1387.9,114.5 
				1385.1,116 1385.1,118.6 1387.9,117.2 1388,117.1 1390.7,115.7 1390.8,115.7 1393.5,114.3 1393.5,114.2 1396.2,112.8 
				1396.3,112.8 1399.1,111.4 1399.1,108.7 1396.3,110.2 			"/>
		</g>
		<g>
			<polygon class="st1" points="1376.7,120.3 1374,121.7 1373.9,121.7 1371.2,123.1 1371.1,123.2 1368.4,124.6 1368.3,124.6 
				1365.6,126 1365.5,126.1 1362.8,127.5 1362.7,127.5 1360,128.9 1360,129 1357.3,130.4 1357.2,130.4 1354.5,131.8 1354.4,131.8 
				1351.7,133.2 1351.6,133.3 1348.9,134.7 1348.8,134.7 1346,136.2 1346,138.8 1348.8,137.4 1348.9,137.3 1351.6,135.9 
				1351.7,135.9 1354.4,134.5 1354.5,134.4 1357.2,133 1357.3,133 1360,131.6 1360,131.6 1362.7,130.2 1362.8,130.1 1365.5,128.7 
				1365.6,128.7 1368.3,127.3 1368.4,127.2 1371.1,125.8 1371.2,125.8 1373.9,124.4 1374,124.3 1376.7,122.9 1376.8,122.9 
				1379.6,121.5 1379.6,118.8 1376.8,120.3 			"/>
		</g>
		<g>
			<polygon class="st1" points="1396.2,102.8 1393.5,104.2 1393.5,104.3 1390.8,105.7 1390.7,105.7 1388,107.1 1387.9,107.2 
				1385.2,108.5 1385.1,108.6 1382.4,110 1382.3,110 1379.6,111.4 1379.5,111.5 1376.8,112.9 1376.7,112.9 1374,114.3 1373.9,114.4 
				1371.1,115.8 1371.1,118.4 1373.9,117 1374,117 1376.7,115.6 1376.8,115.5 1379.5,114.1 1379.6,114.1 1382.3,112.7 1382.4,112.6 
				1385.1,111.2 1385.2,111.2 1387.9,109.8 1388,109.7 1390.7,108.4 1390.8,108.3 1393.5,106.9 1393.5,106.9 1396.2,105.5 
				1396.3,105.4 1399.1,104 1399.1,101.3 1396.3,102.8 			"/>
		</g>
		<g>
			<polygon class="st1" points="1360,121.5 1360,121.6 1357.3,123 1357.2,123 1354.5,124.4 1354.4,124.5 1351.6,125.9 1351.6,128.5 
				1354.4,127.1 1354.5,127.1 1357.2,125.7 1357.3,125.6 1360,124.2 1360,124.2 1362.7,122.8 1362.8,122.7 1365.6,121.3 
				1365.6,118.7 1362.8,120.1 1362.7,120.1 			"/>
		</g>
		<g>
			<polygon class="st1" points="1346.1,128.8 1343.3,130.2 1343.2,130.2 1340.5,131.6 1340.4,131.7 1337.6,133.1 1337.6,135.8 
				1340.4,134.3 1340.5,134.3 1343.2,132.9 1343.3,132.8 1346.1,131.4 			"/>
		</g>
		<g>
			<polygon class="st1" points="1396.2,95.4 1393.5,96.8 1393.5,96.9 1390.8,98.3 1390.7,98.3 1387.9,99.8 1387.9,102.4 1390.7,101 
				1390.8,100.9 1393.5,99.5 1393.5,99.5 1396.2,98.1 1396.3,98 1399.1,96.6 1399.1,94 1396.3,95.4 			"/>
		</g>
		<g>
			<polygon class="st1" points="1365.6,113.9 1368.3,112.5 1368.4,112.5 1371.1,111.1 1371.2,111 1373.9,109.6 1374,109.6 
				1376.7,108.2 1376.8,108.1 1379.5,106.8 1379.6,106.7 1382.4,105.3 1382.4,102.6 1379.6,104.1 1379.5,104.1 1376.8,105.5 
				1376.7,105.6 1374,106.9 1373.9,107 1371.2,108.4 1371.1,108.4 1368.4,109.8 1368.3,109.9 1365.6,111.3 1365.5,111.3 
				1362.7,112.8 1362.7,115.4 1365.5,114 			"/>
		</g>
		<g>
			<polygon class="st1" points="1351.6,118.5 1348.9,119.9 1348.8,120 1346,121.4 1346,124.1 1348.8,122.6 1348.9,122.6 
				1351.6,121.2 1351.7,121.1 1354.4,119.7 1354.4,119.7 1357.2,118.3 1357.2,115.6 1354.4,117.1 1354.4,117.1 1351.7,118.5 			"/>
		</g>
		<g>
			<polygon class="st1" points="1334.9,129.8 1337.6,128.4 1337.7,128.4 1340.5,126.9 1340.5,124.3 1337.7,125.7 1337.6,125.8 
				1334.9,127.2 1334.8,127.2 1332,128.6 1332,131.3 1334.8,129.8 			"/>
		</g>
		<g>
			<polygon class="st1" points="1396.2,88.1 1393.5,89.5 1393.5,89.5 1390.8,90.9 1390.7,91 1388,92.4 1387.9,92.4 1385.1,93.8 
				1385.1,96.5 1387.9,95 1388,95 1390.7,93.6 1390.8,93.6 1393.5,92.2 1393.5,92.1 1396.2,90.7 1396.3,90.7 1399.1,89.2 
				1399.1,86.6 1396.3,88 			"/>
		</g>
		<g>
			<polygon class="st1" points="1357.3,110.9 1360,109.5 1360,109.4 1362.7,108 1362.8,108 1365.5,106.6 1365.6,106.5 1368.3,105.1 
				1368.4,105.1 1371.1,103.7 1371.2,103.7 1373.9,102.3 1374,102.2 1376.7,100.8 1376.8,100.8 1379.6,99.3 1379.6,96.7 
				1376.8,98.1 1376.7,98.2 1374,99.6 1373.9,99.6 1371.2,101 1371.1,101.1 1368.4,102.5 1368.3,102.5 1365.6,103.9 1365.5,103.9 
				1362.8,105.3 1362.7,105.4 1360,106.8 1360,106.8 1357.3,108.2 1357.2,108.3 1354.4,109.7 1354.4,112.4 1357.2,110.9 			"/>
		</g>
		<g>
			<polygon class="st1" points="1346.1,116.6 1348.9,115.2 1348.9,112.6 1346.1,114 1346,114 1343.2,115.5 1343.2,118.1 1346,116.7 
							"/>
		</g>
		<g>
			<polygon class="st1" points="1382.4,90.5 1385.1,89.1 1385.2,89.1 1387.9,87.7 1388,87.6 1390.7,86.2 1390.8,86.2 1393.5,84.8 
				1393.5,84.7 1396.2,83.3 1396.3,83.3 1399.1,81.9 1399.1,79.2 1396.3,80.7 1396.2,80.7 1393.5,82.1 1393.5,82.1 1390.8,83.5 
				1390.7,83.6 1388,85 1387.9,85 1385.2,86.4 1385.1,86.5 1382.4,87.9 1382.3,87.9 1379.5,89.3 1379.5,92 1382.3,90.5 			"/>
		</g>
		<g>
			<polygon class="st1" points="1360,102 1362.7,100.7 1362.8,100.6 1365.5,99.2 1365.6,99.2 1368.3,97.8 1368.4,97.7 1371.1,96.3 
				1371.2,96.3 1374,94.8 1374,92.2 1371.2,93.6 1371.1,93.7 1368.4,95.1 1368.3,95.1 1365.6,96.5 1365.5,96.6 1362.8,98 1362.7,98 
				1360,99.4 1360,99.5 1357.2,100.9 1357.2,103.5 1360,102.1 			"/>
		</g>
		<g>
			<polygon class="st1" points="1340.5,112.1 1343.2,110.8 1343.3,110.7 1346,109.3 1346.1,109.3 1348.8,107.9 1348.9,107.8 
				1351.7,106.4 1351.7,103.7 1348.9,105.2 1348.8,105.2 1346.1,106.6 1346,106.7 1343.3,108.1 1343.2,108.1 1340.5,109.5 
				1340.4,109.6 1337.6,111 1337.6,113.6 1340.4,112.2 			"/>
		</g>
	</g>
</g>
</svg>
