<svg xmlns="http://www.w3.org/2000/svg" xmlns:xlink="http://www.w3.org/1999/xlink" width="1819" height="510"><defs><path id="a" d="M853.35 4376.1l-.08.05-2.49 1.2-.08.05-2.48 1.2-.09.05-2.48 1.2-.08.04-2.57 1.25v2.3l2.57-1.26.08-.04 2.48-1.2.09-.05 2.48-1.2.08-.04 2.49-1.21.08-.04 2.57-1.25v-2.29z"/><path id="b" d="M863.59 4373.57l2.48-1.2.09-.05 2.48-1.2.08-.04 2.49-1.21.08-.04 2.57-1.25v-2.29l-2.57 1.25-.08.04-2.49 1.2-.08.05-2.48 1.2-.09.05-2.48 1.2-.08.04-2.57 1.25v2.3l2.57-1.26z"/><path id="c" d="M880.8 4364.28l2.5-1.2.07-.05 2.5-1.2.07-.04 2.49-1.21.08-.04 2.57-1.25V4357l-2.57 1.25-.08.04-2.49 1.2-.08.05-2.49 1.2-.08.05-2.48 1.2-.08.05-2.57 1.24v2.3l2.57-1.26z"/><path id="d" d="M853.35 4383.25l-.08.04-2.49 1.2-.08.05-2.48 1.2-.09.05-2.48 1.2-.08.04-2.57 1.25v2.3l2.57-1.26.08-.04 2.48-1.2.09-.05 2.48-1.2.08-.04 2.49-1.21.08-.04 2.57-1.25V4382z"/><path id="e" d="M863.52 4379.96l2.43-1.25.08-.04 2.43-1.25.07-.04 2.43-1.25.08-.04 2.43-1.24.07-.04 2.43-1.25.08-.04 2.43-1.25.07-.04 2.43-1.25.08-.04 2.43-1.25.08-.04 2.42-1.24.08-.04 2.43-1.25.08-.04 2.5-1.3v-2.35l-2.5 1.29-.08.04-2.43 1.25-.08.04-2.42 1.24-.08.04-2.43 1.25-.08.04-2.43 1.25-.07.04-2.43 1.25-.08.04-2.43 1.25-.07.04-2.43 1.25-.08.04-2.43 1.24-.07.04-2.43 1.25-.08.04-2.43 1.25-.07.04-2.51 1.29v2.36l2.5-1.3z"/><path id="f" d="M865.61 4383.32l-.07.05-2.43 1.28-.08.04-2.42 1.28-.08.05-2.43 1.28-.08.04-2.42 1.28-.08.04-2.43 1.29-.07.04-2.43 1.28-.08.04-2.42 1.29-.08.04-2.43 1.28-.08.04-2.5 1.33v2.42l2.5-1.32.08-.04 2.43-1.29.08-.04 2.42-1.28.08-.04 2.43-1.28.07-.05 2.43-1.28.08-.04 2.42-1.28.08-.05 2.43-1.28.08-.04 2.42-1.28.08-.04 2.43-1.29.07-.04 2.5-1.32V4382z"/><path id="g" d="M878.28 4378.78l.08-.04 2.48-1.2.08-.04 2.49-1.21.08-.04 2.57-1.25v-2.29l-2.57 1.25-.08.04-2.49 1.2-.08.05-2.48 1.2-.08.05-2.5 1.2-.07.04-2.57 1.25v2.3l2.57-1.26.08-.04z"/><path id="h" d="M891.08 4372.72l2.6-1.32.09-.04 2.52-1.29.08-.04 2.6-1.32v-2.42l-2.6 1.32-.08.04-2.52 1.28-.09.04-2.6 1.33z"/><path id="i" d="M850.55 4397.63l-.07.04-2.42 1.3-.08.04-2.41 1.3-.08.04-2.49 1.34v2.46l2.5-1.34.07-.04 2.41-1.3.08-.05 2.42-1.3.07-.04 2.5-1.34v-2.45z"/><path id="j" d="M874.1 4385.47l-2.47 1.25-.08.04-2.47 1.25-.08.04-2.47 1.25-.09.04-2.47 1.25-.08.04-2.47 1.25-.08.04-2.55 1.29v2.36l2.55-1.3.08-.03 2.47-1.25.08-.04 2.47-1.25.09-.04 2.47-1.25.08-.04 2.47-1.25.08-.04 2.47-1.25.08-.04 2.55-1.29v-2.36l-2.55 1.29z"/><path id="k" d="M886.1 4382.14l2.42-1.3.07-.04 2.5-1.35V4377l-2.5 1.34-.07.04-2.42 1.3-.08.04-2.41 1.3-.08.04-2.49 1.34v2.46l2.5-1.34.07-.04 2.41-1.3z"/><path id="l" d="M901.4 4372.61l-.08.04-2.52 1.28-.09.04-2.6 1.33v2.42l2.6-1.32.09-.05 2.52-1.28.08-.04 2.6-1.32v-2.42z"/><path id="m" d="M853.35 4402.54l-.08.04-2.49 1.2-.08.05-2.48 1.2-.09.05-2.48 1.2-.08.04-2.57 1.25v2.3l2.57-1.26.08-.04 2.48-1.2.09-.05 2.48-1.2.08-.04 2.49-1.21.08-.04 2.57-1.25v-2.29z"/><path id="n" d="M880.65 4388.36l-2.39 1.27-.08.04-2.38 1.28-.08.04-2.39 1.27-.07.04-2.39 1.28-.08.04-2.38 1.27-.08.04-2.39 1.28-.07.04-2.39 1.27-.08.04-2.46 1.32v2.4l2.46-1.3.08-.05 2.39-1.27.07-.05 2.39-1.27.08-.04 2.38-1.27.08-.05 2.39-1.27.07-.04 2.39-1.27.08-.05 2.38-1.27.08-.04 2.39-1.28.07-.04 2.47-1.31V4387l-2.47 1.32z"/><path id="o" d="M890.68 4383.33l-2.47 1.3v2.37l2.47-1.3.08-.03 2.47-1.3V4382l-2.47 1.3z"/><path id="p" d="M858.39 4406.86l-.08.04-2.47 1.25-.08.04-2.47 1.25-.08.04-2.48 1.25-.08.04-2.47 1.25-.08.04-2.47 1.25-.08.04-2.55 1.29v2.36l2.55-1.3.08-.03 2.47-1.25.08-.04 2.47-1.25.08-.04 2.48-1.25.08-.04 2.47-1.25.08-.04 2.47-1.25.08-.04 2.55-1.29v-2.36z"/><path id="q" d="M878.34 4396.88l-2.54 1.23-.08.04-2.54 1.24-.08.04-2.53 1.23-.08.04-2.54 1.23-.08.04-2.62 1.27v2.33l2.62-1.27.08-.04 2.54-1.23.08-.04 2.53-1.24.08-.04 2.54-1.23.08-.04 2.54-1.23.08-.04 2.62-1.27v-2.33l-2.62 1.27z"/><path id="r" d="M896.33 4387.58l-2.49 1.2-.08.05-2.48 1.2-.09.05-2.48 1.2-.08.04-2.57 1.25v2.3l2.57-1.26.08-.04 2.48-1.2.09-.05 2.48-1.2.08-.04 2.49-1.21.08-.04 2.57-1.25v-2.29l-2.57 1.25z"/><path id="s" d="M1361.35 4230.1l-.08.05-2.49 1.2-.08.05-2.48 1.2-.09.05-2.48 1.2-.08.04-2.57 1.25v2.3l2.57-1.26.08-.04 2.48-1.2.09-.05 2.48-1.2.08-.04 2.49-1.21.08-.04 2.57-1.25v-2.29z"/><path id="t" d="M1371.59 4227.57l2.48-1.2.09-.05 2.48-1.2.08-.04 2.49-1.21.08-.04 2.57-1.25v-2.29l-2.57 1.25-.08.04-2.49 1.2-.08.05-2.48 1.2-.09.05-2.48 1.2-.08.04-2.57 1.25v2.3l2.57-1.26z"/><path id="u" d="M1388.8 4218.28l2.5-1.2.07-.05 2.5-1.2.07-.04 2.49-1.21.08-.04 2.57-1.25V4211l-2.57 1.25-.08.04-2.49 1.2-.08.05-2.49 1.2-.08.05-2.48 1.2-.08.05-2.57 1.24v2.3l2.57-1.26z"/><path id="v" d="M1361.35 4237.25l-.08.04-2.49 1.2-.08.05-2.48 1.2-.09.05-2.48 1.2-.08.04-2.57 1.25v2.3l2.57-1.26.08-.04 2.48-1.2.09-.05 2.48-1.2.08-.04 2.49-1.21.08-.04 2.57-1.25V4236z"/><path id="w" d="M1371.52 4233.96l2.43-1.25.08-.04 2.43-1.25.07-.04 2.43-1.25.08-.04 2.43-1.24.07-.04 2.43-1.25.08-.04 2.43-1.25.07-.04 2.43-1.25.08-.04 2.43-1.25.08-.04 2.42-1.24.08-.04 2.43-1.25.08-.04 2.5-1.3v-2.35l-2.5 1.29-.08.04-2.43 1.25-.08.04-2.42 1.24-.08.04-2.43 1.25-.08.04-2.43 1.25-.07.04-2.43 1.25-.08.04-2.43 1.25-.07.04-2.43 1.25-.08.04-2.43 1.24-.07.04-2.43 1.25-.08.04-2.43 1.25-.07.04-2.51 1.29v2.36l2.5-1.3z"/><path id="x" d="M1373.61 4237.32l-.07.05-2.43 1.28-.08.04-2.42 1.28-.08.05-2.43 1.28-.08.04-2.42 1.28-.08.04-2.43 1.29-.07.04-2.43 1.28-.08.04-2.42 1.29-.08.04-2.43 1.28-.08.04-2.5 1.33v2.42l2.5-1.32.08-.04 2.43-1.29.08-.04 2.42-1.28.08-.04 2.43-1.28.07-.05 2.43-1.28.08-.04 2.42-1.28.08-.05 2.43-1.28.08-.04 2.42-1.28.08-.04 2.43-1.29.07-.04 2.5-1.32V4236z"/><path id="y" d="M1386.28 4232.78l.08-.04 2.48-1.2.08-.04 2.49-1.21.08-.04 2.57-1.25v-2.29l-2.57 1.25-.08.04-2.49 1.2-.08.05-2.48 1.2-.08.05-2.5 1.2-.07.04-2.57 1.25v2.3l2.57-1.26.08-.04z"/><path id="z" d="M1399.08 4226.72l2.6-1.32.09-.04 2.52-1.29.08-.04 2.6-1.32v-2.42l-2.6 1.32-.08.04-2.52 1.28-.09.04-2.6 1.33z"/><path id="A" d="M1358.55 4251.63l-.07.04-2.42 1.3-.08.04-2.41 1.3-.08.04-2.49 1.34v2.46l2.5-1.34.07-.04 2.41-1.3.08-.05 2.42-1.3.07-.04 2.5-1.34v-2.45z"/><path id="B" d="M1382.1 4239.47l-2.47 1.25-.08.04-2.47 1.25-.08.04-2.47 1.25-.09.04-2.47 1.25-.08.04-2.47 1.25-.08.04-2.55 1.29v2.36l2.55-1.3.08-.03 2.47-1.25.08-.04 2.47-1.25.09-.04 2.47-1.25.08-.04 2.47-1.25.08-.04 2.47-1.25.08-.04 2.55-1.29v-2.36l-2.55 1.29z"/><path id="C" d="M1394.1 4236.14l2.42-1.3.07-.04 2.5-1.35V4231l-2.5 1.34-.07.04-2.42 1.3-.08.04-2.41 1.3-.08.04-2.49 1.34v2.46l2.5-1.34.07-.04 2.41-1.3z"/><path id="D" d="M1409.4 4226.61l-.08.04-2.52 1.28-.09.04-2.6 1.33v2.42l2.6-1.32.09-.05 2.52-1.28.08-.04 2.6-1.32v-2.42z"/><path id="E" d="M1361.35 4256.54l-.08.04-2.49 1.2-.08.05-2.48 1.2-.09.05-2.48 1.2-.08.04-2.57 1.25v2.3l2.57-1.26.08-.04 2.48-1.2.09-.05 2.48-1.2.08-.04 2.49-1.21.08-.04 2.57-1.25v-2.29z"/><path id="F" d="M1388.65 4242.36l-2.39 1.27-.08.04-2.38 1.28-.08.04-2.39 1.27-.07.04-2.39 1.28-.08.04-2.38 1.27-.08.04-2.39 1.28-.07.04-2.39 1.27-.08.04-2.46 1.32v2.4l2.46-1.3.08-.05 2.39-1.27.07-.05 2.39-1.27.08-.04 2.38-1.27.08-.05 2.39-1.27.07-.04 2.39-1.27.08-.05 2.38-1.27.08-.04 2.39-1.28.07-.04 2.47-1.31V4241l-2.47 1.32z"/><path id="G" d="M1398.68 4237.33l-2.47 1.3v2.37l2.47-1.3.08-.03 2.47-1.3V4236l-2.47 1.3z"/><path id="H" d="M1366.39 4260.86l-.08.04-2.47 1.25-.08.04-2.47 1.25-.08.04-2.48 1.25-.08.04-2.47 1.25-.08.04-2.47 1.25-.08.04-2.55 1.29v2.36l2.55-1.3.08-.03 2.47-1.25.08-.04 2.47-1.25.08-.04 2.48-1.25.08-.04 2.47-1.25.08-.04 2.47-1.25.08-.04 2.55-1.29v-2.36z"/><path id="I" d="M1386.34 4250.88l-2.54 1.23-.08.04-2.54 1.24-.08.04-2.53 1.23-.08.04-2.54 1.23-.08.04-2.62 1.27v2.33l2.62-1.27.08-.04 2.54-1.23.08-.04 2.53-1.24.08-.04 2.54-1.23.08-.04 2.54-1.23.08-.04 2.62-1.27v-2.33l-2.62 1.27z"/><path id="J" d="M1404.33 4241.58l-2.49 1.2-.08.05-2.48 1.2-.09.05-2.48 1.2-.08.04-2.57 1.25v2.3l2.57-1.26.08-.04 2.48-1.2.09-.05 2.48-1.2.08-.04 2.49-1.21.08-.04 2.57-1.25v-2.29l-2.57 1.25z"/><path id="K" d="M-179 4260.1L346.63 4573 686 4400.5l141.04 83.62L1638 4067"/><mask id="M" width="2.31" height="2.4" x="-1.15" y="-1.2"><path fill="#fff" d="M841 4372h17v14h-17z"/><use xlink:href="#a"/></mask><filter id="L" width="107" height="123" x="796" y="4327" filterUnits="userSpaceOnUse"><feOffset dy="19" in="SourceGraphic" result="FeOffset1030Out"/><feGaussianBlur in="FeOffset1030Out" result="FeGaussianBlur1031Out" stdDeviation="14 14"/></filter><mask id="O" width="2.29" height="2.44" x="-1.14" y="-1.22"><path fill="#fff" d="M858 4364h18v13h-18z"/><use xlink:href="#b"/></mask><filter id="N" width="108" height="122" x="813" y="4319" filterUnits="userSpaceOnUse"><feOffset dy="19" in="SourceGraphic" result="FeOffset1046Out"/><feGaussianBlur in="FeOffset1046Out" result="FeGaussianBlur1047Out" stdDeviation="14 14"/></filter><mask id="Q" width="2.29" height="2.44" x="-1.14" y="-1.22"><path fill="#fff" d="M876 4355h18v13h-18z"/><use xlink:href="#c"/></mask><filter id="P" width="108" height="122" x="831" y="4310" filterUnits="userSpaceOnUse"><feOffset dy="19" in="SourceGraphic" result="FeOffset1062Out"/><feGaussianBlur in="FeOffset1062Out" result="FeGaussianBlur1063Out" stdDeviation="14 14"/></filter><mask id="S" width="2.31" height="2.44" x="-1.15" y="-1.22"><path fill="#fff" d="M841 4380h17v13h-17z"/><use xlink:href="#d"/></mask><filter id="R" width="107" height="122" x="796" y="4335" filterUnits="userSpaceOnUse"><feOffset dy="19" in="SourceGraphic" result="FeOffset1078Out"/><feGaussianBlur in="FeOffset1078Out" result="FeGaussianBlur1079Out" stdDeviation="14 14"/></filter><mask id="U" width="2.13" height="2.21" x="-1.06" y="-1.11"><path fill="#fff" d="M858 4361h36v23h-36z"/><use xlink:href="#e"/></mask><filter id="T" width="126" height="132" x="813" y="4316" filterUnits="userSpaceOnUse"><feOffset dy="19" in="SourceGraphic" result="FeOffset1094Out"/><feGaussianBlur in="FeOffset1094Out" result="FeGaussianBlur1095Out" stdDeviation="14 14"/></filter><mask id="W" width="2.15" height="2.25" x="-1.08" y="-1.13"><path fill="#fff" d="M841 4380h30v20h-30z"/><use xlink:href="#f"/></mask><filter id="V" width="120" height="129" x="796" y="4335" filterUnits="userSpaceOnUse"><feOffset dy="19" in="SourceGraphic" result="FeOffset1110Out"/><feGaussianBlur in="FeOffset1110Out" result="FeGaussianBlur1111Out" stdDeviation="14 14"/></filter><mask id="Y" width="2.29" height="2.4" x="-1.14" y="-1.2"><path fill="#fff" d="M871 4370h18v14h-18z"/><use xlink:href="#g"/></mask><filter id="X" width="108" height="123" x="826" y="4325" filterUnits="userSpaceOnUse"><feOffset dy="19" in="SourceGraphic" result="FeOffset1126Out"/><feGaussianBlur in="FeOffset1126Out" result="FeGaussianBlur1127Out" stdDeviation="14 14"/></filter><mask id="aa" width="2.5" height="2.57" x="-1.25" y="-1.29"><path fill="#fff" d="M889 4364h12v11h-12z"/><use xlink:href="#h"/></mask><filter id="Z" width="102" height="120" x="844" y="4319" filterUnits="userSpaceOnUse"><feOffset dy="19" in="SourceGraphic" result="FeOffset1142Out"/><feGaussianBlur in="FeOffset1142Out" result="FeGaussianBlur1143Out" stdDeviation="14 14"/></filter><mask id="ac" width="2.36" height="2.44" x="-1.18" y="-1.22"><path fill="#fff" d="M841 4394h15v13h-15z"/><use xlink:href="#i"/></mask><filter id="ab" width="105" height="122" x="796" y="4349" filterUnits="userSpaceOnUse"><feOffset dy="19" in="SourceGraphic" result="FeOffset1158Out"/><feGaussianBlur in="FeOffset1158Out" result="FeGaussianBlur1159Out" stdDeviation="14 14"/></filter><mask id="ae" width="2.21" height="2.33" x="-1.11" y="-1.17"><path fill="#fff" d="M856 4382h23v16h-23z"/><use xlink:href="#j"/></mask><filter id="ad" width="113" height="125" x="811" y="4337" filterUnits="userSpaceOnUse"><feOffset dy="19" in="SourceGraphic" result="FeOffset1174Out"/><feGaussianBlur in="FeOffset1174Out" result="FeGaussianBlur1175Out" stdDeviation="14 14"/></filter><mask id="ag" width="2.36" height="2.5" x="-1.18" y="-1.25"><path fill="#fff" d="M879 4375h15v12h-15z"/><use xlink:href="#k"/></mask><filter id="af" width="105" height="121" x="834" y="4330" filterUnits="userSpaceOnUse"><feOffset dy="19" in="SourceGraphic" result="FeOffset1190Out"/><feGaussianBlur in="FeOffset1190Out" result="FeGaussianBlur1191Out" stdDeviation="14 14"/></filter><mask id="ai" width="2.5" height="2.57" x="-1.25" y="-1.29"><path fill="#fff" d="M894 4369h12v11h-12z"/><use xlink:href="#l"/></mask><filter id="ah" width="102" height="120" x="849" y="4324" filterUnits="userSpaceOnUse"><feOffset dy="19" in="SourceGraphic" result="FeOffset1206Out"/><feGaussianBlur in="FeOffset1206Out" result="FeGaussianBlur1207Out" stdDeviation="14 14"/></filter><mask id="ak" width="2.31" height="2.44" x="-1.15" y="-1.22"><path fill="#fff" d="M841 4399h17v13h-17z"/><use xlink:href="#m"/></mask><filter id="aj" width="107" height="122" x="796" y="4354" filterUnits="userSpaceOnUse"><feOffset dy="19" in="SourceGraphic" result="FeOffset1222Out"/><feGaussianBlur in="FeOffset1222Out" result="FeGaussianBlur1223Out" stdDeviation="14 14"/></filter><mask id="am" width="2.17" height="2.27" x="-1.08" y="-1.13"><path fill="#fff" d="M858 4385h28v19h-28z"/><use xlink:href="#n"/></mask><filter id="al" width="118" height="128" x="813" y="4340" filterUnits="userSpaceOnUse"><feOffset dy="19" in="SourceGraphic" result="FeOffset1238Out"/><feGaussianBlur in="FeOffset1238Out" result="FeGaussianBlur1239Out" stdDeviation="14 14"/></filter><mask id="ao" width="2.67" height="2.8" x="-1.33" y="-1.4"><path fill="#fff" d="M886 4380h10v9h-10z"/><use xlink:href="#o"/></mask><filter id="an" width="100" height="118" x="841" y="4335" filterUnits="userSpaceOnUse"><feOffset dy="19" in="SourceGraphic" result="FeOffset1254Out"/><feGaussianBlur in="FeOffset1254Out" result="FeGaussianBlur1255Out" stdDeviation="14 14"/></filter><mask id="aq" width="2.22" height="2.33" x="-1.11" y="-1.17"><path fill="#fff" d="M841 4403h22v16h-22z"/><use xlink:href="#p"/></mask><filter id="ap" width="112" height="125" x="796" y="4358" filterUnits="userSpaceOnUse"><feOffset dy="19" in="SourceGraphic" result="FeOffset1270Out"/><feGaussianBlur in="FeOffset1270Out" result="FeGaussianBlur1271Out" stdDeviation="14 14"/></filter><mask id="as" width="2.24" height="2.36" x="-1.12" y="-1.18"><path fill="#fff" d="M863 4393h21v15h-21z"/><use xlink:href="#q"/></mask><filter id="ar" width="111" height="124" x="818" y="4348" filterUnits="userSpaceOnUse"><feOffset dy="19" in="SourceGraphic" result="FeOffset1286Out"/><feGaussianBlur in="FeOffset1286Out" result="FeGaussianBlur1287Out" stdDeviation="14 14"/></filter><mask id="au" width="2.31" height="2.44" x="-1.15" y="-1.22"><path fill="#fff" d="M884 4384h17v13h-17z"/><use xlink:href="#r"/></mask><filter id="at" width="107" height="122" x="839" y="4339" filterUnits="userSpaceOnUse"><feOffset dy="19" in="SourceGraphic" result="FeOffset1302Out"/><feGaussianBlur in="FeOffset1302Out" result="FeGaussianBlur1303Out" stdDeviation="14 14"/></filter><mask id="aw" width="2.31" height="2.4" x="-1.15" y="-1.2"><path fill="#fff" d="M1397 4242h17v14h-17z"/><use xlink:href="#s"/></mask><filter id="av" width="107" height="123" x="1352" y="4197" filterUnits="userSpaceOnUse"><feOffset dy="19" in="SourceGraphic" result="FeOffset1320Out"/><feGaussianBlur in="FeOffset1320Out" result="FeGaussianBlur1321Out" stdDeviation="14 14"/></filter><mask id="ay" width="2.29" height="2.44" x="-1.14" y="-1.22"><path fill="#fff" d="M1379 4251h18v13h-18z"/><use xlink:href="#t"/></mask><filter id="ax" width="108" height="122" x="1334" y="4206" filterUnits="userSpaceOnUse"><feOffset dy="19" in="SourceGraphic" result="FeOffset1336Out"/><feGaussianBlur in="FeOffset1336Out" result="FeGaussianBlur1337Out" stdDeviation="14 14"/></filter><mask id="aA" width="2.29" height="2.44" x="-1.14" y="-1.22"><path fill="#fff" d="M1361 4260h18v13h-18z"/><use xlink:href="#u"/></mask><filter id="az" width="108" height="122" x="1316" y="4215" filterUnits="userSpaceOnUse"><feOffset dy="19" in="SourceGraphic" result="FeOffset1352Out"/><feGaussianBlur in="FeOffset1352Out" result="FeGaussianBlur1353Out" stdDeviation="14 14"/></filter><mask id="aC" width="2.31" height="2.44" x="-1.15" y="-1.22"><path fill="#fff" d="M1397 4235h17v13h-17z"/><use xlink:href="#v"/></mask><filter id="aB" width="107" height="122" x="1352" y="4190" filterUnits="userSpaceOnUse"><feOffset dy="19" in="SourceGraphic" result="FeOffset1368Out"/><feGaussianBlur in="FeOffset1368Out" result="FeGaussianBlur1369Out" stdDeviation="14 14"/></filter><mask id="aE" width="2.13" height="2.21" x="-1.06" y="-1.11"><path fill="#fff" d="M1361 4244h36v23h-36z"/><use xlink:href="#w"/></mask><filter id="aD" width="126" height="132" x="1316" y="4199" filterUnits="userSpaceOnUse"><feOffset dy="19" in="SourceGraphic" result="FeOffset1384Out"/><feGaussianBlur in="FeOffset1384Out" result="FeGaussianBlur1385Out" stdDeviation="14 14"/></filter><mask id="aG" width="2.15" height="2.25" x="-1.08" y="-1.13"><path fill="#fff" d="M1384 4228h30v20h-30z"/><use xlink:href="#x"/></mask><filter id="aF" width="120" height="129" x="1339" y="4183" filterUnits="userSpaceOnUse"><feOffset dy="19" in="SourceGraphic" result="FeOffset1400Out"/><feGaussianBlur in="FeOffset1400Out" result="FeGaussianBlur1401Out" stdDeviation="14 14"/></filter><mask id="aI" width="2.29" height="2.4" x="-1.14" y="-1.2"><path fill="#fff" d="M1366 4244h18v14h-18z"/><use xlink:href="#y"/></mask><filter id="aH" width="108" height="123" x="1321" y="4199" filterUnits="userSpaceOnUse"><feOffset dy="19" in="SourceGraphic" result="FeOffset1416Out"/><feGaussianBlur in="FeOffset1416Out" result="FeGaussianBlur1417Out" stdDeviation="14 14"/></filter><mask id="aK" width="2.5" height="2.57" x="-1.25" y="-1.29"><path fill="#fff" d="M1354 4253h12v11h-12z"/><use xlink:href="#z"/></mask><filter id="aJ" width="102" height="120" x="1309" y="4208" filterUnits="userSpaceOnUse"><feOffset dy="19" in="SourceGraphic" result="FeOffset1432Out"/><feGaussianBlur in="FeOffset1432Out" result="FeGaussianBlur1433Out" stdDeviation="14 14"/></filter><mask id="aM" width="2.36" height="2.44" x="-1.18" y="-1.22"><path fill="#fff" d="M1399 4221h15v13h-15z"/><use xlink:href="#A"/></mask><filter id="aL" width="105" height="122" x="1354" y="4176" filterUnits="userSpaceOnUse"><feOffset dy="19" in="SourceGraphic" result="FeOffset1448Out"/><feGaussianBlur in="FeOffset1448Out" result="FeGaussianBlur1449Out" stdDeviation="14 14"/></filter><mask id="aO" width="2.21" height="2.33" x="-1.11" y="-1.17"><path fill="#fff" d="M1376 4230h23v16h-23z"/><use xlink:href="#B"/></mask><filter id="aN" width="113" height="125" x="1331" y="4185" filterUnits="userSpaceOnUse"><feOffset dy="19" in="SourceGraphic" result="FeOffset1464Out"/><feGaussianBlur in="FeOffset1464Out" result="FeGaussianBlur1465Out" stdDeviation="14 14"/></filter><mask id="aQ" width="2.36" height="2.5" x="-1.18" y="-1.25"><path fill="#fff" d="M1361 4241h15v12h-15z"/><use xlink:href="#C"/></mask><filter id="aP" width="105" height="121" x="1316" y="4196" filterUnits="userSpaceOnUse"><feOffset dy="19" in="SourceGraphic" result="FeOffset1480Out"/><feGaussianBlur in="FeOffset1480Out" result="FeGaussianBlur1481Out" stdDeviation="14 14"/></filter><mask id="aS" width="2.5" height="2.57" x="-1.25" y="-1.29"><path fill="#fff" d="M1349 4248h12v11h-12z"/><use xlink:href="#D"/></mask><filter id="aR" width="102" height="120" x="1304" y="4203" filterUnits="userSpaceOnUse"><feOffset dy="19" in="SourceGraphic" result="FeOffset1496Out"/><feGaussianBlur in="FeOffset1496Out" result="FeGaussianBlur1497Out" stdDeviation="14 14"/></filter><mask id="aU" width="2.31" height="2.44" x="-1.15" y="-1.22"><path fill="#fff" d="M1397 4216h17v13h-17z"/><use xlink:href="#E"/></mask><filter id="aT" width="107" height="122" x="1352" y="4171" filterUnits="userSpaceOnUse"><feOffset dy="19" in="SourceGraphic" result="FeOffset1512Out"/><feGaussianBlur in="FeOffset1512Out" result="FeGaussianBlur1513Out" stdDeviation="14 14"/></filter><mask id="aW" width="2.17" height="2.27" x="-1.08" y="-1.13"><path fill="#fff" d="M1369 4224h28v19h-28z"/><use xlink:href="#F"/></mask><filter id="aV" width="118" height="128" x="1324" y="4179" filterUnits="userSpaceOnUse"><feOffset dy="19" in="SourceGraphic" result="FeOffset1528Out"/><feGaussianBlur in="FeOffset1528Out" result="FeGaussianBlur1529Out" stdDeviation="14 14"/></filter><mask id="aY" width="2.67" height="2.8" x="-1.33" y="-1.4"><path fill="#fff" d="M1359 4239h10v9h-10z"/><use xlink:href="#G"/></mask><filter id="aX" width="100" height="118" x="1314" y="4194" filterUnits="userSpaceOnUse"><feOffset dy="19" in="SourceGraphic" result="FeOffset1544Out"/><feGaussianBlur in="FeOffset1544Out" result="FeGaussianBlur1545Out" stdDeviation="14 14"/></filter><mask id="ba" width="2.22" height="2.33" x="-1.11" y="-1.17"><path fill="#fff" d="M1392 4209h22v16h-22z"/><use xlink:href="#H"/></mask><filter id="aZ" width="112" height="125" x="1347" y="4164" filterUnits="userSpaceOnUse"><feOffset dy="19" in="SourceGraphic" result="FeOffset1560Out"/><feGaussianBlur in="FeOffset1560Out" result="FeGaussianBlur1561Out" stdDeviation="14 14"/></filter><mask id="bc" width="2.24" height="2.36" x="-1.12" y="-1.18"><path fill="#fff" d="M1371 4220h21v15h-21z"/><use xlink:href="#I"/></mask><filter id="bb" width="111" height="124" x="1326" y="4175" filterUnits="userSpaceOnUse"><feOffset dy="19" in="SourceGraphic" result="FeOffset1576Out"/><feGaussianBlur in="FeOffset1576Out" result="FeGaussianBlur1577Out" stdDeviation="14 14"/></filter><mask id="be" width="2.31" height="2.44" x="-1.15" y="-1.22"><path fill="#fff" d="M1354 4231h17v13h-17z"/><use xlink:href="#J"/></mask><filter id="bd" width="107" height="122" x="1309" y="4186" filterUnits="userSpaceOnUse"><feOffset dy="19" in="SourceGraphic" result="FeOffset1592Out"/><feGaussianBlur in="FeOffset1592Out" result="FeGaussianBlur1593Out" stdDeviation="14 14"/></filter></defs><use fill="#fff" fill-opacity="0" stroke="#000" stroke-miterlimit="50" stroke-width="3" xlink:href="#K" transform="translate(180 -4065)"/><g transform="translate(180 -4065)"><g filter="url(#L)"><use fill="none" stroke="#391b90" stroke-width="4" mask="url(&quot;#M&quot;)" xlink:href="#a"/><use fill="#391b90" xlink:href="#a"/></g><use fill="#28ebff" xlink:href="#a"/></g><g transform="translate(180 -4065)"><g filter="url(#N)"><use fill="none" stroke="#391b90" stroke-width="4" mask="url(&quot;#O&quot;)" xlink:href="#b"/><use fill="#391b90" xlink:href="#b"/></g><use fill="#28ebff" xlink:href="#b"/></g><g transform="translate(180 -4065)"><g filter="url(#P)"><use fill="none" stroke="#391b90" stroke-width="4" mask="url(&quot;#Q&quot;)" xlink:href="#c"/><use fill="#391b90" xlink:href="#c"/></g><use fill="#28ebff" xlink:href="#c"/></g><g transform="translate(180 -4065)"><g filter="url(#R)"><use fill="none" stroke="#391b90" stroke-width="4" mask="url(&quot;#S&quot;)" xlink:href="#d"/><use fill="#391b90" xlink:href="#d"/></g><use fill="#28ebff" xlink:href="#d"/></g><g transform="translate(180 -4065)"><g filter="url(#T)"><use fill="none" stroke="#391b90" stroke-width="4" mask="url(&quot;#U&quot;)" xlink:href="#e"/><use fill="#391b90" xlink:href="#e"/></g><use fill="#28ebff" xlink:href="#e"/></g><g transform="translate(180 -4065)"><g filter="url(#V)"><use fill="none" stroke="#391b90" stroke-width="4" mask="url(&quot;#W&quot;)" xlink:href="#f"/><use fill="#391b90" xlink:href="#f"/></g><use fill="#28ebff" xlink:href="#f"/></g><g transform="translate(180 -4065)"><g filter="url(#X)"><use fill="none" stroke="#391b90" stroke-width="4" mask="url(&quot;#Y&quot;)" xlink:href="#g"/><use fill="#391b90" xlink:href="#g"/></g><use fill="#28ebff" xlink:href="#g"/></g><g transform="translate(180 -4065)"><g filter="url(#Z)"><use fill="none" stroke="#391b90" stroke-width="4" mask="url(&quot;#aa&quot;)" xlink:href="#h"/><use fill="#391b90" xlink:href="#h"/></g><use fill="#28ebff" xlink:href="#h"/></g><g transform="translate(180 -4065)"><g filter="url(#ab)"><use fill="none" stroke="#391b90" stroke-width="4" mask="url(&quot;#ac&quot;)" xlink:href="#i"/><use fill="#391b90" xlink:href="#i"/></g><use fill="#28ebff" xlink:href="#i"/></g><g transform="translate(180 -4065)"><g filter="url(#ad)"><use fill="none" stroke="#391b90" stroke-width="4" mask="url(&quot;#ae&quot;)" xlink:href="#j"/><use fill="#391b90" xlink:href="#j"/></g><use fill="#28ebff" xlink:href="#j"/></g><g transform="translate(180 -4065)"><g filter="url(#af)"><use fill="none" stroke="#391b90" stroke-width="4" mask="url(&quot;#ag&quot;)" xlink:href="#k"/><use fill="#391b90" xlink:href="#k"/></g><use fill="#28ebff" xlink:href="#k"/></g><g transform="translate(180 -4065)"><g filter="url(#ah)"><use fill="none" stroke="#391b90" stroke-width="4" mask="url(&quot;#ai&quot;)" xlink:href="#l"/><use fill="#391b90" xlink:href="#l"/></g><use fill="#28ebff" xlink:href="#l"/></g><g transform="translate(180 -4065)"><g filter="url(#aj)"><use fill="none" stroke="#391b90" stroke-width="4" mask="url(&quot;#ak&quot;)" xlink:href="#m"/><use fill="#391b90" xlink:href="#m"/></g><use fill="#28ebff" xlink:href="#m"/></g><g transform="translate(180 -4065)"><g filter="url(#al)"><use fill="none" stroke="#391b90" stroke-width="4" mask="url(&quot;#am&quot;)" xlink:href="#n"/><use fill="#391b90" xlink:href="#n"/></g><use fill="#28ebff" xlink:href="#n"/></g><g transform="translate(180 -4065)"><g filter="url(#an)"><use fill="none" stroke="#391b90" stroke-width="4" mask="url(&quot;#ao&quot;)" xlink:href="#o"/><use fill="#391b90" xlink:href="#o"/></g><use fill="#28ebff" xlink:href="#o"/></g><g transform="translate(180 -4065)"><g filter="url(#ap)"><use fill="none" stroke="#391b90" stroke-width="4" mask="url(&quot;#aq&quot;)" xlink:href="#p"/><use fill="#391b90" xlink:href="#p"/></g><use fill="#28ebff" xlink:href="#p"/></g><g transform="translate(180 -4065)"><g filter="url(#ar)"><use fill="none" stroke="#391b90" stroke-width="4" mask="url(&quot;#as&quot;)" xlink:href="#q"/><use fill="#391b90" xlink:href="#q"/></g><use fill="#28ebff" xlink:href="#q"/></g><g transform="translate(180 -4065)"><g filter="url(#at)"><use fill="none" stroke="#391b90" stroke-width="4" mask="url(&quot;#au&quot;)" xlink:href="#r"/><use fill="#391b90" xlink:href="#r"/></g><use fill="#28ebff" xlink:href="#r"/></g><g transform="rotate(180 1471.5 2208.5)"><g filter="url(#av)"><use fill="none" stroke="#391b90" stroke-width="4" mask="url(&quot;#aw&quot;)" xlink:href="#s"/><use fill="#391b90" xlink:href="#s"/></g><use fill="#28ebff" xlink:href="#s"/></g><g transform="rotate(180 1471.5 2208.5)"><g filter="url(#ax)"><use fill="none" stroke="#391b90" stroke-width="4" mask="url(&quot;#ay&quot;)" xlink:href="#t"/><use fill="#391b90" xlink:href="#t"/></g><use fill="#28ebff" xlink:href="#t"/></g><g transform="rotate(180 1471.5 2208.5)"><g filter="url(#az)"><use fill="none" stroke="#391b90" stroke-width="4" mask="url(&quot;#aA&quot;)" xlink:href="#u"/><use fill="#391b90" xlink:href="#u"/></g><use fill="#28ebff" xlink:href="#u"/></g><g transform="rotate(180 1471.5 2208.5)"><g filter="url(#aB)"><use fill="none" stroke="#391b90" stroke-width="4" mask="url(&quot;#aC&quot;)" xlink:href="#v"/><use fill="#391b90" xlink:href="#v"/></g><use fill="#28ebff" xlink:href="#v"/></g><g transform="rotate(180 1471.5 2208.5)"><g filter="url(#aD)"><use fill="none" stroke="#391b90" stroke-width="4" mask="url(&quot;#aE&quot;)" xlink:href="#w"/><use fill="#391b90" xlink:href="#w"/></g><use fill="#28ebff" xlink:href="#w"/></g><g transform="rotate(180 1471.5 2208.5)"><g filter="url(#aF)"><use fill="none" stroke="#391b90" stroke-width="4" mask="url(&quot;#aG&quot;)" xlink:href="#x"/><use fill="#391b90" xlink:href="#x"/></g><use fill="#28ebff" xlink:href="#x"/></g><g transform="rotate(180 1471.5 2208.5)"><g filter="url(#aH)"><use fill="none" stroke="#391b90" stroke-width="4" mask="url(&quot;#aI&quot;)" xlink:href="#y"/><use fill="#391b90" xlink:href="#y"/></g><use fill="#28ebff" xlink:href="#y"/></g><g transform="rotate(180 1471.5 2208.5)"><g filter="url(#aJ)"><use fill="none" stroke="#391b90" stroke-width="4" mask="url(&quot;#aK&quot;)" xlink:href="#z"/><use fill="#391b90" xlink:href="#z"/></g><use fill="#28ebff" xlink:href="#z"/></g><g transform="rotate(180 1471.5 2208.5)"><g filter="url(#aL)"><use fill="none" stroke="#391b90" stroke-width="4" mask="url(&quot;#aM&quot;)" xlink:href="#A"/><use fill="#391b90" xlink:href="#A"/></g><use fill="#28ebff" xlink:href="#A"/></g><g transform="rotate(180 1471.5 2208.5)"><g filter="url(#aN)"><use fill="none" stroke="#391b90" stroke-width="4" mask="url(&quot;#aO&quot;)" xlink:href="#B"/><use fill="#391b90" xlink:href="#B"/></g><use fill="#28ebff" xlink:href="#B"/></g><g transform="rotate(180 1471.5 2208.5)"><g filter="url(#aP)"><use fill="none" stroke="#391b90" stroke-width="4" mask="url(&quot;#aQ&quot;)" xlink:href="#C"/><use fill="#391b90" xlink:href="#C"/></g><use fill="#28ebff" xlink:href="#C"/></g><g transform="rotate(180 1471.5 2208.5)"><g filter="url(#aR)"><use fill="none" stroke="#391b90" stroke-width="4" mask="url(&quot;#aS&quot;)" xlink:href="#D"/><use fill="#391b90" xlink:href="#D"/></g><use fill="#28ebff" xlink:href="#D"/></g><g transform="rotate(180 1471.5 2208.5)"><g filter="url(#aT)"><use fill="none" stroke="#391b90" stroke-width="4" mask="url(&quot;#aU&quot;)" xlink:href="#E"/><use fill="#391b90" xlink:href="#E"/></g><use fill="#28ebff" xlink:href="#E"/></g><g transform="rotate(180 1471.5 2208.5)"><g filter="url(#aV)"><use fill="none" stroke="#391b90" stroke-width="4" mask="url(&quot;#aW&quot;)" xlink:href="#F"/><use fill="#391b90" xlink:href="#F"/></g><use fill="#28ebff" xlink:href="#F"/></g><g transform="rotate(180 1471.5 2208.5)"><g filter="url(#aX)"><use fill="none" stroke="#391b90" stroke-width="4" mask="url(&quot;#aY&quot;)" xlink:href="#G"/><use fill="#391b90" xlink:href="#G"/></g><use fill="#28ebff" xlink:href="#G"/></g><g transform="rotate(180 1471.5 2208.5)"><g filter="url(#aZ)"><use fill="none" stroke="#391b90" stroke-width="4" mask="url(&quot;#ba&quot;)" xlink:href="#H"/><use fill="#391b90" xlink:href="#H"/></g><use fill="#28ebff" xlink:href="#H"/></g><g transform="rotate(180 1471.5 2208.5)"><g filter="url(#bb)"><use fill="none" stroke="#391b90" stroke-width="4" mask="url(&quot;#bc&quot;)" xlink:href="#I"/><use fill="#391b90" xlink:href="#I"/></g><use fill="#28ebff" xlink:href="#I"/></g><g transform="rotate(180 1471.5 2208.5)"><g filter="url(#bd)"><use fill="none" stroke="#391b90" stroke-width="4" mask="url(&quot;#be&quot;)" xlink:href="#J"/><use fill="#391b90" xlink:href="#J"/></g><use fill="#28ebff" xlink:href="#J"/></g></svg>