<?xml version="1.0" encoding="utf-8"?>
<!-- Generator: Adobe Illustrator 22.1.0, SVG Export Plug-In . SVG Version: 6.00 Build 0)  -->
<svg version="1.1" id="Слой_1" xmlns="http://www.w3.org/2000/svg" xmlns:xlink="http://www.w3.org/1999/xlink" x="0px" y="0px"
	 viewBox="0 0 103.9 38.3" style="enable-background:new 0 0 103.9 38.3;" xml:space="preserve">
<style type="text/css">
	.st0{fill:#ffffff;}
</style>
<g>
	<path class="st0" d="M0,0h5.5v25.1h15.5v4.7H0V0z"/>
	<path class="st0" d="M28.7,28.5c-1.8-1-3.3-2.4-4.3-4.1c-1-1.8-1.5-3.8-1.5-6s0.5-4.2,1.5-6c1-1.8,2.5-3.1,4.3-4.1
		c1.8-1,3.9-1.5,6.2-1.5c2.3,0,4.4,0.5,6.2,1.5c1.8,1,3.3,2.4,4.3,4.1s1.6,3.8,1.6,6s-0.5,4.2-1.6,6c-1,1.8-2.5,3.2-4.3,4.1
		c-1.8,1-3.9,1.5-6.2,1.5C32.6,30,30.5,29.5,28.7,28.5z M39.8,23.5c1.3-1.3,1.9-3,1.9-5.1c0-2.1-0.6-3.8-1.9-5.1
		c-1.3-1.3-2.9-2-4.8-2c-2,0-3.6,0.7-4.8,2c-1.3,1.3-1.9,3-1.9,5.1c0,2.1,0.6,3.8,1.9,5.1s2.9,2,4.8,2
		C36.9,25.5,38.5,24.8,39.8,23.5z"/>
	<path class="st0" d="M74.6,7v19.2c0,8-4.1,12-12.2,12c-2.2,0-4.2-0.3-6.2-0.8c-2-0.6-3.6-1.4-4.8-2.4l2.4-4c1,0.8,2.2,1.5,3.8,2
		s3.1,0.7,4.6,0.7c2.5,0,4.3-0.6,5.5-1.7c1.2-1.1,1.7-2.9,1.7-5.2v-1.2c-0.9,1-2,1.7-3.3,2.2c-1.3,0.5-2.7,0.8-4.3,0.8
		c-2.2,0-4.1-0.5-5.8-1.4s-3.1-2.2-4.1-3.9s-1.5-3.6-1.5-5.7s0.5-4.1,1.5-5.7s2.4-2.9,4.1-3.8s3.7-1.4,5.8-1.4
		c1.6,0,3.1,0.3,4.5,0.8s2.5,1.4,3.4,2.5V7H74.6z M67.5,22.4c1.3-1.2,1.9-2.8,1.9-4.7c0-1.9-0.6-3.4-1.9-4.6
		c-1.3-1.2-2.9-1.8-4.9-1.8c-2,0-3.7,0.6-5,1.8c-1.3,1.2-1.9,2.7-1.9,4.6c0,1.9,0.6,3.5,1.9,4.7c1.3,1.2,3,1.8,5,1.8
		C64.5,24.2,66.2,23.6,67.5,22.4z"/>
	<path class="st0" d="M85.6,28.5c-1.8-1-3.3-2.4-4.3-4.1c-1-1.8-1.5-3.8-1.5-6s0.5-4.2,1.5-6c1-1.8,2.5-3.1,4.3-4.1
		c1.8-1,3.9-1.5,6.2-1.5c2.3,0,4.4,0.5,6.2,1.5c1.8,1,3.3,2.4,4.3,4.1s1.6,3.8,1.6,6s-0.5,4.2-1.6,6c-1,1.8-2.5,3.2-4.3,4.1
		c-1.8,1-3.9,1.5-6.2,1.5C89.5,30,87.4,29.5,85.6,28.5z M96.6,23.5c1.3-1.3,1.9-3,1.9-5.1c0-2.1-0.6-3.8-1.9-5.1
		c-1.3-1.3-2.9-2-4.8-2c-2,0-3.6,0.7-4.8,2c-1.3,1.3-1.9,3-1.9,5.1c0,2.1,0.6,3.8,1.9,5.1s2.9,2,4.8,2
		C93.7,25.5,95.3,24.8,96.6,23.5z"/>
</g>
</svg>
