<svg width="44" height="58" xmlns="http://www.w3.org/2000/svg"><g fill="#25C8F1"><path d="M25.965 1.863l-.023.028.023-.028zm-.077.08l.002-.002c.029-.038.048-.063.052-.05-.129.15-.125.144-.054.053zm.054-.052c.006.03-.053.221-.229.794l.378-.995.116-.128c.062-.063.059-.06.182-.18.06-.054.055-.05.2-.171.067-.053.085-.066.204-.152.058-.04.11-.074.272-.17a3.75 3.75 0 0 1 .467-.217c.072-.025.103-.036.206-.067.13-.035.086-.025.229-.056l.142-.024c.02-.002.06-.007.231-.022.132-.003.076-.004.254.002l.124.008c.094.013.095.013.29.049.154.041.154.041.275.082.108.036.008-.011.308.135.346.23.346.23.452.32l.485.396 1.93 1.582 7.715 6.325-1.902 2.32a102781.56 102781.56 0 0 0-9.645-7.906l-.237-.195c-.097.119-.111.139-.135.169l-.128.192-.125.217a8.443 8.443 0 0 0-.096.196l-.214.578-.693 1.879-2.768 7.505c-.038.103-.052.143.03-.344l-.068.444a1.69 1.69 0 0 1-.05.164c-.023.157-.03.224-.03.2.007.151.01.166.013.181a.809.809 0 0 0 .161.144l.174.24a60.882 60.882 0 0 1 .851 1.196c.307.444.503.738.65.973.094.152.17.282.23.4.046.09.086.178.12.273.108.302.153.556.043.96a18.51 18.51 0 0 1-.428 1.323 19.67 19.67 0 0 1-.249.667 32.986 32.986 0 0 1-.643 1.51c-.173.38-.298.651-.433.936a39.668 39.668 0 0 1-1.057 2.047 62.654 62.654 0 0 1-1.444 2.481 75.82 75.82 0 0 1-.377.632l-.078.13-.287.47c-.04.067-.04.067-.08.129a103.395 103.395 0 0 1-.43.689l-.203.316-.09.139-.24.365-.108.163c-.11.166-.154.23-.226.336l-.083.122a26.801 26.801 0 0 1-.633.889c-.197.266-.386.518-.572.762a40.935 40.935 0 0 1-1.043 1.309 19.884 19.884 0 0 1-.886.993 15.38 15.38 0 0 1-.367.375 10.36 10.36 0 0 1-.358.337c-.12.105-.227.194-.338.278l-.634.472-.24.077a2.475 2.475 0 0 1-.624.128c-.998-.214-.998-.214-.893-.205l-.147-.089c-.16-.096-.16-.096-.405-.246l-1.424-.871c-.188.083-.219.1-.23.107a5.005 5.005 0 0 0-.16.098c-.116.087-.132.1-.123.092a2.26 2.26 0 0 0-.109.1c-.026.026-2.248 2.682-6.668 7.966a6.69 6.69 0 0 1-.131.167c-.1.142-.116.167-.201.224a1.837 1.837 0 0 1-.081.238c-.078.193-.09.226-.094.24-.021.087 2.081 2.139 6.307 6.155l-2.062 2.178-6.22-5.89a2.474 2.474 0 0 1-.47-.443 2.547 2.547 0 0 1-.411-.725 2.94 2.94 0 0 1-.166-.75 3.967 3.967 0 0 1 .03-.894c.011-.059.016-.082.047-.23.015-.061.023-.088.071-.264.02-.064.02-.064.068-.205.03-.083.025-.07.1-.26l.084-.188.115-.229.091-.163c.038-.065.038-.065 1.38-.886l-1.253.676.092-.14c.04-.059.04-.059.128-.182l.11-.15.144-.179 6.658-7.963c.039-.045.073-.081.17-.183.07-.072.07-.072.111-.11.087-.082.087-.082.184-.168a5.848 5.848 0 0 1 .407-.311c.047-.032.089-.06.186-.122.082-.05.082-.05.172-.102a4.98 4.98 0 0 1 .632-.3 3.89 3.89 0 0 1 .61-.17 3.65 3.65 0 0 1 .316-.04c.063-.004.083-.005.225-.009.128.004.097.002.27.015.091.007.124.013.326.051.14.035.094.022.259.072l.502.264-.362-.214c.027.01.062.026.153.065l.185.097 1.367.836c.062-.057.125-.116.198-.188a18.608 18.608 0 0 0 1.065-1.165 38.005 38.005 0 0 0 .954-1.198c.174-.228.354-.468.542-.723a24.017 24.017 0 0 0 .572-.803l.08-.119.207-.305.104-.157.208-.317.1-.154.19-.298.144-.226.206-.333.138-.22.21-.347.142-.234c.12-.199.241-.403.374-.627a59.583 59.583 0 0 0 1.39-2.39 34.642 34.642 0 0 0 .972-1.878c.128-.27.247-.528.412-.891a38.016 38.016 0 0 0 .585-1.374 20.586 20.586 0 0 0 .406-1.126c-.104-.16-.233-.35-.381-.565a65.418 65.418 0 0 0-.742-1.05 2.665 2.665 0 0 1-.567-.653 3.068 3.068 0 0 1-.26-.534 3.653 3.653 0 0 1-.21-.878c-.012-.16-.012-.16-.02-.313a3.811 3.811 0 0 1 .042-.661c.007-.043.023-.134.049-.272l.055-.228c.017-.058.026-.09.001.217l.075-.468c.022-.063.032-.092.082-.227a71242.075 71242.075 0 0 1 3.46-9.384l.175-.472c.04-.113.04-.113.084-.223l.087-.189c.037-.077.037-.077-.058.47l.177-.707.1-.184a7.617 7.617 0 0 1 .255-.413l.097-.143.149-.182zm-22.43 43.26zm.168-.406a.83.83 0 0 1 .005-.01l-.003.007-.002.003zm-1.178.545l1.21-.684c-.134.09-.436.256-1.21.684zm8.44-9.232l.005-.004-.002.002-.003.002zm.394-.209zm.092-.006l-.048-.004.048.004zm.011-.007l-.074.003.077-.007c-.051.006-.066.008-.04.003a2.34 2.34 0 0 1-.022.004c-.03-.003-.036-.004.06-.003zm-.027-.003zm-.047.006zm-.175-.075c-.063-.036-.158-.09-.314-.183l.362.214c-.016-.012-.032-.021-.048-.031zm12.918-20.94v-.002zm3.764-10.359c.031-.071.043-.098.033-.07l-.033.07zm.068-.146zm.41-.66l-.022.03c-.005.007-.01.013-.013.02-.028.032-.013.014.035-.05zm.175-.15zm.021-.012a1.44 1.44 0 0 1 .02-.011l-.014.008-.006.003zm.026-.012a1.773 1.773 0 0 1 .004-.001l-.004.001zm.04-.01c-.05.015-.07.021-.002-.004l-.044.017c-.017.004-.02.004.045-.013zm-.156.025a1.4 1.4 0 0 1 .11-.007l-.054.006h-.056z"/><path d="M10.027 35.466a1.5 1.5 0 1 1 2.328-1.892l4.426 5.449a1.5 1.5 0 1 1-2.328 1.892l-4.426-5.45zm5.224-.526a1.5 1.5 0 0 1 2.434-1.754l4.255 5.906a1.5 1.5 0 0 1-2.434 1.754l-4.255-5.907zm6.569-18.086a1.5 1.5 0 1 1 2.075-2.167l7.816 7.481a1.5 1.5 0 0 1-2.074 2.168l-7.817-7.482z"/><path d="M27.528 25.392a3.98 3.98 0 0 1-.564-.705 4.275 4.275 0 0 1-.376-.75 4.855 4.855 0 0 1-.318-1.53 5.26 5.26 0 0 1 .173-1.54 6.2 6.2 0 0 1 .216-.659l3.512-9.306.062-.15a8 8 0 0 1 .879-1.512 5.372 5.372 0 0 1 .776-.845 4.77 4.77 0 0 1 1.006-.679c.268-.135.546-.243.829-.322.326-.09.66-.137.994-.143l.064 1.499v-1.5a3.836 3.836 0 0 1 1.995.563l4.31 2.634a3.929 3.929 0 0 1 1.005.76 4.483 4.483 0 0 1 .705.96 5.598 5.598 0 0 1 .402.913 5.172 5.172 0 0 1 .228.964l.03.289.007.2.011.21.015.285c.01.179.013.364.01.565-.003.175-.011.365-.025.577a21.78 21.78 0 0 1-.244 2.055 34.715 34.715 0 0 1-.34 1.707c-.07.307-.144.622-.225.946-.084.34-.18.696-.285 1.06-.103.359-.218.735-.342 1.121a52.53 52.53 0 0 1-1.376 3.77c-.186.454-.387.93-.6 1.415a77.165 77.165 0 0 1-1.416 3.047 70.233 70.233 0 0 1-1.788 3.4 98.697 98.697 0 0 1-2.166 3.661c-.504.83-.998 1.618-1.47 2.35-.48.744-.964 1.47-1.439 2.16a70.053 70.053 0 0 1-1.408 1.974c-.458.618-.923 1.22-1.38 1.787a84.037 84.037 0 0 1-2.537 3.001c-.4.447-.797.88-1.185 1.287-.391.41-.772.794-1.133 1.143a40.053 40.053 0 0 1-2.017 1.845c-.317.27-.63.524-.927.754-.299.232-.598.449-.892.649-.27.183-.492.33-.694.463-.225.147-.428.277-.613.392-.205.127-.383.234-.545.328-.184.106-.35.197-.513.28l-.156.077-.15.072a5.698 5.698 0 0 1-.368.159l-.236.1a5.594 5.594 0 0 1-1.866.328 4.88 4.88 0 0 1-.757-.053 4.405 4.405 0 0 1-.603-.134 4.137 4.137 0 0 1-.625-.24 3.33 3.33 0 0 1-.43-.243l-4.416-2.636a3.834 3.834 0 0 1-1.603-1.924 4.17 4.17 0 0 1-.251-1.095 4.902 4.902 0 0 1 .007-.969l.022-.169c.046-.288.117-.576.21-.856.09-.268.2-.534.33-.79a6.63 6.63 0 0 1 .421-.722 7.83 7.83 0 0 1 .519-.687l6.378-7.446a6 6 0 0 1 .893-.827 6.002 6.002 0 0 1 .935-.577 5.38 5.38 0 0 1 .846-.343 4.64 4.64 0 0 1 1.327-.204 4.091 4.091 0 0 1 1.787.404l.229.12.352.223c.106-.114.216-.238.33-.37a33.429 33.429 0 0 0 .882-1.08c.164-.209.338-.436.523-.68.174-.231.357-.482.541-.744.19-.27.39-.564.596-.874.216-.327.431-.66.645-1a80.9 80.9 0 0 0 .715-1.158 68.802 68.802 0 0 0 1.284-2.15c.178-.313.347-.621.503-.916.15-.284.287-.553.408-.802a37.144 37.144 0 0 0 .669-1.442 17.724 17.724 0 0 0 .444-1.101 7.042 7.042 0 0 1-.746-.624zm6.992-15.105a1.5 1.5 0 0 0-.274.107 1.81 1.81 0 0 0-.383.26 2.116 2.116 0 0 0-.345.378 4.307 4.307 0 0 0-.294.448 4.99 4.99 0 0 0-.248.485l-3.518 9.323a3.256 3.256 0 0 0-.115.346c-.029.11-.05.221-.062.33a1.815 1.815 0 0 0 .027.621c.02.098.049.193.08.274.031.081.069.157.114.228a1.008 1.008 0 0 0 .32.318l1.984 1.211-.28 1.077a10.627 10.627 0 0 1-.232.778 15.74 15.74 0 0 1-.204.579c-.07.197-.145.391-.232.606a26.917 26.917 0 0 1-.612 1.4c-.115.249-.242.516-.385.81a36.646 36.646 0 0 1-1.001 1.89 70.332 70.332 0 0 1-1.337 2.24c-.254.419-.495.81-.733 1.188a56.7 56.7 0 0 1-.684 1.058c-.22.333-.436.65-.642.943-.204.29-.405.566-.6.825a51.502 51.502 0 0 1-1.066 1.36c-.156.191-.31.375-.462.552a17.826 17.826 0 0 1-.784.854 11.965 11.965 0 0 1-.582.56l-.813.805-1.007-.633-1.296-.814a1.096 1.096 0 0 0-.488-.108 1.637 1.637 0 0 0-.444.071 2.375 2.375 0 0 0-.372.152 3.006 3.006 0 0 0-.893.664l-6.38 7.449a4.788 4.788 0 0 0-.316.417 3.66 3.66 0 0 0-.234.4c-.065.13-.12.262-.163.39a2.476 2.476 0 0 0-.094.378 1.965 1.965 0 0 0-.005.389c.01.115.034.22.069.311a.827.827 0 0 0 .343.417l4.484 2.678a.948.948 0 0 0 .291.135c.061.018.126.032.194.042.067.01.14.017.243.02a2.437 2.437 0 0 0 .887-.137l.126-.055a4.193 4.193 0 0 0 .358-.158l.13-.064a10.921 10.921 0 0 0 .823-.476c.164-.102.35-.22.555-.355.187-.123.397-.262.653-.436.239-.162.488-.343.74-.538.26-.201.535-.425.818-.666a37.353 37.353 0 0 0 1.873-1.714c.333-.322.686-.679 1.05-1.059.363-.382.74-.79 1.118-1.215a81.132 81.132 0 0 0 2.44-2.887 52.62 52.62 0 0 0 1.305-1.69c.441-.595.895-1.231 1.347-1.887.457-.665.925-1.367 1.389-2.086.458-.71.937-1.477 1.435-2.294a96.419 96.419 0 0 0 2.104-3.556 66.412 66.412 0 0 0 1.71-3.252 74.135 74.135 0 0 0 1.365-2.935c.202-.461.394-.914.57-1.345.176-.431.343-.856.496-1.265a49.453 49.453 0 0 0 .801-2.289c.114-.354.22-.702.315-1.032a29.363 29.363 0 0 0 .467-1.838 31.774 31.774 0 0 0 .308-1.543 18.929 18.929 0 0 0 .208-1.747c.011-.166.017-.31.02-.435a4.86 4.86 0 0 0-.006-.354l-.016-.29-.011-.215-.008-.156a2.2 2.2 0 0 0-.187-.705 2.578 2.578 0 0 0-.1-.202 1.474 1.474 0 0 0-.24-.332 1.056 1.056 0 0 0-.133-.119 1.939 1.939 0 0 0-.197-.12l-4.388-2.678a.828.828 0 0 0-.432-.124c-.095.002-.18.014-.262.037zM21.927 41.373l.004-.003.007-.006-.01.009z"/></g></svg>