<svg xmlns="http://www.w3.org/2000/svg" width="62" height="65" viewBox="0 0 62 65"><path d="M6.62 64.23a6.63 6.63 0 1 1 5.31-2.67L14 63.63 12.62 65l-2.06-2.07a6.57 6.57 0 0 1-3.94 1.3zm-.01-11.4a4.81 4.81 0 1 0 2.67 8.82l-.05-.05 1.37-1.37.04.04a4.82 4.82 0 0 0-4.03-7.43zM57.41 12.58l-2.62.02a3.81 3.81 0 0 0-3.81-3.83l-.01-2.68a6.46 6.46 0 0 1 6.44 6.49zm4.59-.05l-2.62.03a8.44 8.44 0 0 0-8.42-8.48l-.02-2.68a10.78 10.78 0 0 1 7.8 3.22A11.25 11.25 0 0 1 62 12.53zm-9.54-.22a.85.85 0 0 1-1.22.01.9.9 0 0 1-.01-1.24.85.85 0 0 1 1.22-.02c.34.35.35.9.01 1.25zM8.32 15H5.73V8H4.01V5.58h1.72V4.16C5.73 2.2 6.26 1 8.54 1h1.9v2.42H9.26c-.9 0-.94.33-.94.96v1.21h2.14L10.21 8H8.32z"/></svg>