<svg xmlns="http://www.w3.org/2000/svg" viewBox="0 0 343.27 80.55"><title>VectorSmartObject_c0675a66-a1db-40cc-b1d5-619f99428807</title><g id="Layer_2_copy" data-name="Layer 2 copy"><path d="M79.43,258.76h2.71a18,18,0,0,0,7.56,13.88q7.13,5.42,17.87,5.42,10.46,0,17.13-5.4A16.81,16.81,0,0,0,131.38,259a13.12,13.12,0,0,0-4.61-10.46q-4.61-4-15-6.56l-9.06-2.28q-11-2.71-16-7.24A14.94,14.94,0,0,1,81.6,220.8q0-8.84,7.32-14.75a27.25,27.25,0,0,1,17.68-5.91q10.84,0,18.22,5.61t7.75,14h-2.71q-.38-7.32-7-12.2t-16.27-4.88a24.52,24.52,0,0,0-15.81,5.18,16,16,0,0,0-6.48,13,12.45,12.45,0,0,0,4.61,10q4.61,3.85,14.64,6.34l8.95,2.22q11.22,2.82,16.4,7.4a15.4,15.4,0,0,1,5.18,12.12,19.23,19.23,0,0,1-7.4,15.56q-7.4,6.07-19.22,6.07t-19.74-6.13A20.27,20.27,0,0,1,79.43,258.76Z" transform="translate(-79.43 -200)"/><path d="M189.78,263.26h2.77a19.88,19.88,0,0,1-7.81,12.34q-6.29,4.74-15.83,4.74-11.87,0-18.84-8t-7-22.07q0-13.56,6.94-21.8A22.61,22.61,0,0,1,168.22,220a23.58,23.58,0,0,1,18.22,8q6.86,7.75,6.86,20.33v2.06H145.8v.11q0,12.85,6.29,20.09T169,277.84q8.46,0,14-4.07A17.11,17.11,0,0,0,189.78,263.26ZM168.22,222.5a20.11,20.11,0,0,0-15.69,7.16q-6.18,6.91-6.67,18.3h44.73q0-11.22-6.1-18.22A21,21,0,0,0,168.22,222.5Z" transform="translate(-79.43 -200)"/><path d="M244.64,220l-22.9,60.39h-3.69l-22.79-60.14h2.87l21.71,57.53H220L241.77,220Z" transform="translate(-79.43 -200)"/><path d="M293.18,263.26h2.77a19.88,19.88,0,0,1-7.81,12.34q-6.29,4.74-15.83,4.74-11.87,0-18.84-8t-7-22.07q0-13.56,6.94-21.8A22.57,22.57,0,0,1,271.59,220a23.68,23.68,0,0,1,18.26,8q6.86,7.75,6.86,20.33v2.06h-47.5v.11q0,12.85,6.29,20.09t16.86,7.24q8.46,0,14-4.07A17.1,17.1,0,0,0,293.18,263.26Zm-21.59-40.79a20.06,20.06,0,0,0-15.66,7.2q-6.18,6.91-6.67,18.3H294q0-11.22-6.1-18.22A21.05,21.05,0,0,0,271.59,222.47Z" transform="translate(-79.43 -200)"/><path d="M306.74,280.3V220h2.49v14.9h.11a19.32,19.32,0,0,1,7.54-10.6,22.23,22.23,0,0,1,13.18-4.3,21.67,21.67,0,0,1,15.7,6.11q6,5.86,6,15.62V280.3h-2.66V241.84q0-8.73-5.37-13.91a19.55,19.55,0,0,0-14-5.44,19.29,19.29,0,0,0-14.61,6.33q-5.67,6.07-5.67,15.62V280.3Z" transform="translate(-79.43 -200)"/><path d="M360.13,280.34l28.49-39.68v-.11L359.74,200h5.15l26.44,37.24h.11L417.72,200h5l-28.82,40.66v.11l28.4,39.54h-5.15l-25.86-36.07h-.11l-26.05,36.1Z" transform="translate(-79.43 -200)"/></g></svg>