<svg xmlns="http://www.w3.org/2000/svg" xmlns:xlink="http://www.w3.org/1999/xlink" width="180" height="265" viewBox="0 0 180 265"><defs><path id="okhxa" d="M508.58 404.74l-41.98-24.4 18.86-10.88 41.98 24.4z"/><path id="okhxb" d="M465.47 512.76l-41.98-24.39-.13-45.21 41.98 24.39z"/><path id="okhxc" d="M431.83 448.76l-41.98-24.39 33.37-19.26 41.98 24.39z"/><path id="okhxd" d="M465.2 429.5l-41.98-24.38-.19-65.54 41.98 24.4z"/><path id="okhxe" d="M391.26 510.4l-41.98-24.39-.09-30.13 41.98 24.4z"/><path id="okhxf" d="M391.16 480.27l-41.98-24.4 73.86-180.08 41.98 24.4z"/><path id="okhxg" d="M508.38 404.74l18.85-10.89.11 38.04-18.86 10.89.13 45.2-42.9 24.77-.13-45.2-74.24 42.85-.09-30.13 73.85-180.09 42.9-25.2zm-42.9 24.76l-.2-65.53-2.66 6.51-30.52 78.28 33.37-19.26z"/><path id="okhxi" d="M465.01 300.18l-41.98-24.39 42.9-25.2 41.99 24.4z"/><linearGradient id="okhxh" x1="391.25" x2="520.34" y1="512.76" y2="287.21" gradientUnits="userSpaceOnUse"><stop offset="0" stop-color="#25c8f1"/><stop offset="1" stop-color="#28ebff"/></linearGradient></defs><g><g transform="translate(-348 -249)"><g><use fill="#fff" fill-opacity="0" stroke="#28ebff" stroke-miterlimit="50" xlink:href="#okhxa"/></g><g><use fill="#fff" fill-opacity="0" stroke="#28ebff" stroke-miterlimit="50" xlink:href="#okhxb"/></g><g><use fill="#fff" fill-opacity="0" stroke="#28ebff" stroke-miterlimit="50" xlink:href="#okhxc"/></g><g><use fill="#fff" fill-opacity="0" stroke="#28ebff" stroke-miterlimit="50" xlink:href="#okhxd"/></g><g><use fill="#fff" fill-opacity="0" stroke="#28ebff" stroke-miterlimit="50" xlink:href="#okhxe"/></g><g><use fill="#fff" fill-opacity="0" stroke="#28ebff" stroke-miterlimit="50" xlink:href="#okhxf"/></g><g><use fill="url(#okhxh)" xlink:href="#okhxg"/><use fill="#fff" fill-opacity="0" stroke="#28ebff" stroke-miterlimit="50" xlink:href="#okhxg"/></g><g><use fill="#fff" fill-opacity="0" stroke="#28ebff" stroke-miterlimit="50" xlink:href="#okhxi"/></g></g></g></svg>