<svg xmlns="http://www.w3.org/2000/svg" xmlns:xlink="http://www.w3.org/1999/xlink" width="178" height="262"><defs><path id="a" d="M933.02 531.42l41.89-24.35 33.3 19.23-41.9 24.34z"/><path id="b" d="M1009.03 613.34l41.89-24.35-.13 45.13-41.89 24.35z"/><path id="c" d="M963.81 488.64l41.9-24.35-30.8 42.78-41.89 24.35z"/><path id="d" d="M1009.14 575.38l41.89-24.35 18.8 10.86-41.89 24.35z"/><path id="e" d="M1027.95 586.24l41.88-24.35-.1 37.96-41.89 24.35z"/><path id="f" d="M966.68 421.55l41.89-24.35 42.82 24.28-41.89 24.35z"/><path id="g" d="M1009.03 575.38l18.8 10.86-.1 37.96-18.8-10.86-.13 45.13-42.83-24.73.13-45.13-74.08-42.78.09-30.08 74.46-94.2 42.83 24.28zm-42.82-24.73l.18-65.37-2.68 3.43-30.8 42.73z"/><path id="h" d="M1009.16 445.83l41.89-24.35-.37 129.55-41.89 24.35z"/><path id="p" d="M1009.03 575.38l18.8 10.86-.1 37.96-18.8-10.86-.13 45.13-42.83-24.73.13-45.13-74.08-42.78.09-30.08 74.46-94.2 42.83 24.28zm-42.82-24.73l.18-65.37-2.68 3.43-30.8 42.73 33.3 19.2z"/><clipPath id="i"><use fill="#fff" xlink:href="#a"/></clipPath><clipPath id="j"><use fill="#fff" xlink:href="#b"/></clipPath><clipPath id="k"><use fill="#fff" xlink:href="#c"/></clipPath><clipPath id="l"><use fill="#fff" xlink:href="#d"/></clipPath><clipPath id="m"><use fill="#fff" xlink:href="#e"/></clipPath><clipPath id="n"><use fill="#fff" xlink:href="#f"/></clipPath><linearGradient id="o" x1="892.02" x2="1020.86" y1="658.47" y2="433.73" gradientUnits="userSpaceOnUse"><stop offset="0" stop-color="#25c8f1"/><stop offset="1" stop-color="#28ebff"/></linearGradient><clipPath id="q"><use fill="#fff" xlink:href="#g"/></clipPath><clipPath id="r"><use fill="#fff" xlink:href="#h"/></clipPath></defs><use fill="#fff" fill-opacity="0" stroke="#28ebff" stroke-miterlimit="50" stroke-width="2" clip-path="url(&quot;#i&quot;)" xlink:href="#a" transform="translate(-892 -397)"/><use fill="#fff" fill-opacity="0" stroke="#28ebff" stroke-miterlimit="50" stroke-width="2" clip-path="url(&quot;#j&quot;)" xlink:href="#b" transform="translate(-892 -397)"/><use fill="#fff" fill-opacity="0" stroke="#28ebff" stroke-miterlimit="50" stroke-width="2" clip-path="url(&quot;#k&quot;)" xlink:href="#c" transform="translate(-892 -397)"/><use fill="#fff" fill-opacity="0" stroke="#28ebff" stroke-miterlimit="50" stroke-width="2" clip-path="url(&quot;#l&quot;)" xlink:href="#d" transform="translate(-892 -397)"/><use fill="#fff" fill-opacity="0" stroke="#28ebff" stroke-miterlimit="50" stroke-width="2" clip-path="url(&quot;#m&quot;)" xlink:href="#e" transform="translate(-892 -397)"/><use fill="#fff" fill-opacity="0" stroke="#28ebff" stroke-miterlimit="50" stroke-width="2" clip-path="url(&quot;#n&quot;)" xlink:href="#f" transform="translate(-892 -397)"/><g transform="translate(-892 -397)"><use fill="url(#o)" xlink:href="#p"/><use fill="#fff" fill-opacity="0" stroke="#28ebff" stroke-miterlimit="50" stroke-width="2" clip-path="url(&quot;#q&quot;)" xlink:href="#p"/></g><use fill="#fff" fill-opacity="0" stroke="#28ebff" stroke-miterlimit="50" stroke-width="2" clip-path="url(&quot;#r&quot;)" xlink:href="#h" transform="translate(-892 -397)"/></svg>