<svg width="129" height="128" xmlns="http://www.w3.org/2000/svg" xmlns:xlink="http://www.w3.org/1999/xlink"><defs><path id="b" d="M10.35 19.106l-.08.04-2.488 1.21-.08.038-2.487 1.21-.08.04-2.487 1.209-.08.039L0 24.141v2.288l2.568-1.25.08-.038 2.487-1.21.08-.04 2.487-1.21.08-.038 2.488-1.21.08-.04 2.568-1.248v-2.288z"/><filter x="-503.2%" y="-536.7%" width="1106.4%" height="1616.7%" filterUnits="objectBoundingBox" id="a"><feMorphology radius="1" operator="dilate" in="SourceAlpha" result="shadowSpreadOuter1"/><feOffset dy="19" in="shadowSpreadOuter1" result="shadowOffsetOuter1"/><feGaussianBlur stdDeviation="17.5" in="shadowOffsetOuter1" result="shadowBlurOuter1"/><feColorMatrix values="0 0 0 0 0.223529412 0 0 0 0 0.105882353 0 0 0 0 0.564705882 0 0 0 1 0" in="shadowBlurOuter1"/></filter><path id="d" d="M20.589 16.57l2.487-1.21.08-.04 2.488-1.21.08-.039 2.487-1.21.08-.039 2.568-1.249V9.286l-2.568 1.249-.08.039-2.487 1.21-.08.039-2.488 1.21-.08.039-2.487 1.21-.08.039-2.568 1.249v2.287l2.568-1.249z"/><filter x="-503.2%" y="-536.7%" width="1106.4%" height="1616.7%" filterUnits="objectBoundingBox" id="c"><feMorphology radius="1" operator="dilate" in="SourceAlpha" result="shadowSpreadOuter1"/><feOffset dy="19" in="shadowSpreadOuter1" result="shadowOffsetOuter1"/><feGaussianBlur stdDeviation="17.5" in="shadowOffsetOuter1" result="shadowBlurOuter1"/><feColorMatrix values="0 0 0 0 0.223529412 0 0 0 0 0.105882353 0 0 0 0 0.564705882 0 0 0 1 0" in="shadowBlurOuter1"/></filter><path id="f" d="M37.812 7.283l2.487-1.21.08-.038 2.488-1.21.08-.04 2.488-1.21.08-.038 2.567-1.25V0l-2.567 1.249-.08.04-2.488 1.21-.08.038-2.488 1.21-.08.04-2.487 1.209-.08.039-2.567 1.249V8.57l2.567-1.248z"/><filter x="-503.2%" y="-536.7%" width="1106.4%" height="1616.7%" filterUnits="objectBoundingBox" id="e"><feMorphology radius="1" operator="dilate" in="SourceAlpha" result="shadowSpreadOuter1"/><feOffset dy="19" in="shadowSpreadOuter1" result="shadowOffsetOuter1"/><feGaussianBlur stdDeviation="17.5" in="shadowOffsetOuter1" result="shadowBlurOuter1"/><feColorMatrix values="0 0 0 0 0.223529412 0 0 0 0 0.105882353 0 0 0 0 0.564705882 0 0 0 1 0" in="shadowBlurOuter1"/></filter><path id="h" d="M10.35 26.249l-.08.039-2.488 1.21-.08.039-2.487 1.21-.08.039-2.487 1.21-.08.039L0 31.284v2.287l2.568-1.249.08-.038 2.487-1.21.08-.04 2.487-1.21.08-.038 2.488-1.21.08-.04 2.568-1.248V25z"/><filter x="-503.2%" y="-536.7%" width="1106.4%" height="1616.7%" filterUnits="objectBoundingBox" id="g"><feMorphology radius="1" operator="dilate" in="SourceAlpha" result="shadowSpreadOuter1"/><feOffset dy="19" in="shadowSpreadOuter1" result="shadowOffsetOuter1"/><feGaussianBlur stdDeviation="17.5" in="shadowOffsetOuter1" result="shadowBlurOuter1"/><feColorMatrix values="0 0 0 0 0.223529412 0 0 0 0 0.105882353 0 0 0 0 0.564705882 0 0 0 1 0" in="shadowBlurOuter1"/></filter><path id="j" d="M20.525 22.957l2.426-1.248.079-.04 2.427-1.248.078-.04 2.427-1.248.078-.04 2.427-1.248.079-.04 2.426-1.248.078-.04 2.428-1.248.078-.04 2.427-1.248.078-.04 2.427-1.248.079-.04 2.427-1.249.077-.04 2.428-1.248.078-.04 2.505-1.288v-2.36l-2.505 1.289-.078.04-2.428 1.248-.077.04-2.427 1.248-.079.04-2.427 1.248-.078.04-2.427 1.248-.078.04-2.428 1.248-.078.04-2.426 1.248-.079.04-2.427 1.249-.078.04-2.427 1.248-.078.04-2.427 1.248-.079.04-2.426 1.248-.079.04-2.505 1.288v2.36l2.505-1.288z"/><filter x="-215.7%" y="-257.6%" width="531.3%" height="828%" filterUnits="objectBoundingBox" id="i"><feMorphology radius="1" operator="dilate" in="SourceAlpha" result="shadowSpreadOuter1"/><feOffset dy="19" in="shadowSpreadOuter1" result="shadowOffsetOuter1"/><feGaussianBlur stdDeviation="17.5" in="shadowOffsetOuter1" result="shadowBlurOuter1"/><feColorMatrix values="0 0 0 0 0.223529412 0 0 0 0 0.105882353 0 0 0 0 0.564705882 0 0 0 1 0" in="shadowBlurOuter1"/></filter><path id="l" d="M22.614 26.325l-.079.041-2.425 1.283-.078.041-2.427 1.284-.078.041-2.425 1.284-.078.041-2.426 1.283-.078.042-2.426 1.283-.078.041-2.426 1.284-.079.041-2.424 1.283-.08.042-2.425 1.283-.078.041L0 38.288v2.426l2.504-1.324.078-.042 2.426-1.283.079-.041 2.424-1.283.079-.042 2.426-1.283.078-.042 2.426-1.283.078-.041 2.426-1.283.078-.042 2.425-1.283.078-.042 2.427-1.283.078-.041 2.425-1.284.079-.041 2.504-1.325V25z"/><filter x="-258.8%" y="-292.7%" width="617.6%" height="927.3%" filterUnits="objectBoundingBox" id="k"><feMorphology radius="1" operator="dilate" in="SourceAlpha" result="shadowSpreadOuter1"/><feOffset dy="19" in="shadowSpreadOuter1" result="shadowOffsetOuter1"/><feGaussianBlur stdDeviation="17.5" in="shadowOffsetOuter1" result="shadowBlurOuter1"/><feColorMatrix values="0 0 0 0 0.223529412 0 0 0 0 0.105882353 0 0 0 0 0.564705882 0 0 0 1 0" in="shadowBlurOuter1"/></filter><path id="n" d="M35.276 21.788l.08-.04 2.488-1.21.08-.038 2.487-1.21.08-.04 2.568-1.248v-2.288l-2.568 1.25-.08.038-2.487 1.21-.08.04-2.487 1.21-.08.038-2.488 1.21-.08.04-2.568 1.248v2.288l2.568-1.25.08-.038z"/><filter x="-503.2%" y="-536.7%" width="1106.4%" height="1616.7%" filterUnits="objectBoundingBox" id="m"><feMorphology radius="1" operator="dilate" in="SourceAlpha" result="shadowSpreadOuter1"/><feOffset dy="19" in="shadowSpreadOuter1" result="shadowOffsetOuter1"/><feGaussianBlur stdDeviation="17.5" in="shadowOffsetOuter1" result="shadowBlurOuter1"/><feColorMatrix values="0 0 0 0 0.223529412 0 0 0 0 0.105882353 0 0 0 0 0.564705882 0 0 0 1 0" in="shadowBlurOuter1"/></filter><path id="p" d="M48.082 15.714l2.604-1.322.082-.041 2.523-1.28.08-.042 2.605-1.322V9.286l-2.604 1.321-.08.042-2.524 1.28-.082.042-2.604 1.322z"/><filter x="-823.4%" y="-715.6%" width="1746.8%" height="2122.2%" filterUnits="objectBoundingBox" id="o"><feMorphology radius="1" operator="dilate" in="SourceAlpha" result="shadowSpreadOuter1"/><feOffset dy="19" in="shadowSpreadOuter1" result="shadowOffsetOuter1"/><feGaussianBlur stdDeviation="17.5" in="shadowOffsetOuter1" result="shadowBlurOuter1"/><feColorMatrix values="0 0 0 0 0.223529412 0 0 0 0 0.105882353 0 0 0 0 0.564705882 0 0 0 1 0" in="shadowBlurOuter1"/></filter><path id="r" d="M7.554 40.625l-.078.042-2.414 1.299-.078.042-2.414 1.298-.078.042L0 44.688v2.455l2.492-1.34.078-.042 2.414-1.299.078-.042 2.414-1.298.078-.042 2.493-1.34v-2.454z"/><filter x="-647%" y="-585.5%" width="1393.9%" height="1754.5%" filterUnits="objectBoundingBox" id="q"><feMorphology radius="1" operator="dilate" in="SourceAlpha" result="shadowSpreadOuter1"/><feOffset dy="19" in="shadowSpreadOuter1" result="shadowOffsetOuter1"/><feGaussianBlur stdDeviation="17.5" in="shadowOffsetOuter1" result="shadowBlurOuter1"/><feColorMatrix values="0 0 0 0 0.223529412 0 0 0 0 0.105882353 0 0 0 0 0.564705882 0 0 0 1 0" in="shadowBlurOuter1"/></filter><path id="t" d="M31.098 28.473l-2.471 1.249-.08.04-2.473 1.25-.08.04-2.47 1.249-.08.04-2.472 1.25-.08.04-2.472 1.249-.08.04-2.552 1.29v2.361l2.552-1.29.08-.04 2.472-1.249.08-.04 2.471-1.249.08-.04 2.472-1.25.08-.04 2.472-1.249.08-.04 2.471-1.25.08-.04 2.551-1.29v-2.361l-2.55 1.29z"/><filter x="-362.3%" y="-402.5%" width="824.6%" height="1237.5%" filterUnits="objectBoundingBox" id="s"><feMorphology radius="1" operator="dilate" in="SourceAlpha" result="shadowSpreadOuter1"/><feOffset dy="19" in="shadowSpreadOuter1" result="shadowOffsetOuter1"/><feGaussianBlur stdDeviation="17.5" in="shadowOffsetOuter1" result="shadowBlurOuter1"/><feColorMatrix values="0 0 0 0 0.223529412 0 0 0 0 0.105882353 0 0 0 0 0.564705882 0 0 0 1 0" in="shadowBlurOuter1"/></filter><path id="v" d="M43.097 25.135l2.415-1.298.078-.042 2.492-1.34V20l-2.492 1.34-.078.042-2.415 1.299-.077.042-2.415 1.298-.078.042-2.492 1.34v2.454l2.492-1.34.078-.042 2.415-1.298z"/><filter x="-647%" y="-585.5%" width="1393.9%" height="1754.5%" filterUnits="objectBoundingBox" id="u"><feMorphology radius="1" operator="dilate" in="SourceAlpha" result="shadowSpreadOuter1"/><feOffset dy="19" in="shadowSpreadOuter1" result="shadowOffsetOuter1"/><feGaussianBlur stdDeviation="17.5" in="shadowOffsetOuter1" result="shadowBlurOuter1"/><feColorMatrix values="0 0 0 0 0.223529412 0 0 0 0 0.105882353 0 0 0 0 0.564705882 0 0 0 1 0" in="shadowBlurOuter1"/></filter><path id="x" d="M58.395 15.607l-.08.042-2.523 1.28-.082.042-2.604 1.321v2.422l2.604-1.322.082-.041 2.522-1.281.081-.041L61 16.707v-2.421z"/><filter x="-823.4%" y="-715.6%" width="1746.8%" height="2122.2%" filterUnits="objectBoundingBox" id="w"><feMorphology radius="1" operator="dilate" in="SourceAlpha" result="shadowSpreadOuter1"/><feOffset dy="19" in="shadowSpreadOuter1" result="shadowOffsetOuter1"/><feGaussianBlur stdDeviation="17.5" in="shadowOffsetOuter1" result="shadowBlurOuter1"/><feColorMatrix values="0 0 0 0 0.223529412 0 0 0 0 0.105882353 0 0 0 0 0.564705882 0 0 0 1 0" in="shadowBlurOuter1"/></filter><path id="z" d="M10.35 45.535l-.08.039-2.488 1.21-.08.039-2.487 1.21-.08.04-2.487 1.209-.08.039L0 50.57v2.287l2.568-1.249.08-.038 2.487-1.21.08-.04 2.487-1.21.08-.039 2.488-1.21.08-.038 2.568-1.25v-2.287z"/><filter x="-503.2%" y="-536.7%" width="1106.4%" height="1616.7%" filterUnits="objectBoundingBox" id="y"><feMorphology radius="1" operator="dilate" in="SourceAlpha" result="shadowSpreadOuter1"/><feOffset dy="19" in="shadowSpreadOuter1" result="shadowOffsetOuter1"/><feGaussianBlur stdDeviation="17.5" in="shadowOffsetOuter1" result="shadowBlurOuter1"/><feColorMatrix values="0 0 0 0 0.223529412 0 0 0 0 0.105882353 0 0 0 0 0.564705882 0 0 0 1 0" in="shadowBlurOuter1"/></filter><path id="B" d="M37.648 31.356l-2.386 1.274-.077.041-2.387 1.274-.077.041-2.386 1.274-.078.041-2.386 1.274-.076.042-2.387 1.274-.077.04-2.386 1.275-.078.04-2.386 1.275-.076.04-2.464 1.316v2.409l2.464-1.315.076-.041 2.386-1.274.078-.042 2.386-1.274.077-.04 2.387-1.275.076-.04 2.386-1.275.078-.04 2.386-1.275.077-.041 2.387-1.274.077-.041 2.386-1.274.077-.041 2.463-1.315V30l-2.463 1.315z"/><filter x="-292.2%" y="-322%" width="684.3%" height="1010%" filterUnits="objectBoundingBox" id="A"><feMorphology radius="1" operator="dilate" in="SourceAlpha" result="shadowSpreadOuter1"/><feOffset dy="19" in="shadowSpreadOuter1" result="shadowOffsetOuter1"/><feGaussianBlur stdDeviation="17.5" in="shadowOffsetOuter1" result="shadowBlurOuter1"/><feColorMatrix values="0 0 0 0 0.223529412 0 0 0 0 0.105882353 0 0 0 0 0.564705882 0 0 0 1 0" in="shadowBlurOuter1"/></filter><path id="D" d="M47.685 26.335l-2.473 1.294V30l2.473-1.294.077-.04 2.473-1.295V25l-2.473 1.294z"/><filter x="-1293.9%" y="-920%" width="2687.8%" height="2700%" filterUnits="objectBoundingBox" id="C"><feMorphology radius="1" operator="dilate" in="SourceAlpha" result="shadowSpreadOuter1"/><feOffset dy="19" in="shadowSpreadOuter1" result="shadowOffsetOuter1"/><feGaussianBlur stdDeviation="17.5" in="shadowOffsetOuter1" result="shadowBlurOuter1"/><feColorMatrix values="0 0 0 0 0.223529412 0 0 0 0 0.105882353 0 0 0 0 0.564705882 0 0 0 1 0" in="shadowBlurOuter1"/></filter><path id="F" d="M15.39 49.86l-.08.041-2.472 1.249-.08.04-2.472 1.25-.08.04-2.471 1.25-.08.04-2.472 1.249-.08.04-2.472 1.249-.079.04L0 57.638V60l2.552-1.29.08-.04 2.471-1.249.08-.04 2.472-1.25.08-.04 2.472-1.249.08-.04 2.472-1.25.079-.04 2.472-1.249.08-.04 2.551-1.29v-2.362z"/><filter x="-362.3%" y="-402.5%" width="824.6%" height="1237.5%" filterUnits="objectBoundingBox" id="E"><feMorphology radius="1" operator="dilate" in="SourceAlpha" result="shadowSpreadOuter1"/><feOffset dy="19" in="shadowSpreadOuter1" result="shadowOffsetOuter1"/><feGaussianBlur stdDeviation="17.5" in="shadowOffsetOuter1" result="shadowBlurOuter1"/><feColorMatrix values="0 0 0 0 0.223529412 0 0 0 0 0.105882353 0 0 0 0 0.564705882 0 0 0 1 0" in="shadowBlurOuter1"/></filter><path id="H" d="M35.336 39.883L32.8 41.115l-.082.04-2.536 1.232-.082.04-2.536 1.232-.081.04-2.536 1.231-.082.04-2.618 1.272v2.33l2.618-1.272.082-.04 2.536-1.232.081-.04 2.536-1.232.082-.04 2.536-1.232.082-.04 2.536-1.232.082-.04 2.617-1.271v-2.33l-2.617 1.272z"/><filter x="-411.7%" y="-460%" width="923.4%" height="1400%" filterUnits="objectBoundingBox" id="G"><feMorphology radius="1" operator="dilate" in="SourceAlpha" result="shadowSpreadOuter1"/><feOffset dy="19" in="shadowSpreadOuter1" result="shadowOffsetOuter1"/><feGaussianBlur stdDeviation="17.5" in="shadowOffsetOuter1" result="shadowBlurOuter1"/><feColorMatrix values="0 0 0 0 0.223529412 0 0 0 0 0.105882353 0 0 0 0 0.564705882 0 0 0 1 0" in="shadowBlurOuter1"/></filter><path id="J" d="M53.329 30.574l-2.488 1.21-.08.039-2.487 1.21-.08.038-2.488 1.21-.08.04-2.567 1.248v2.288l2.567-1.249.08-.04 2.487-1.209.081-.04 2.487-1.209.08-.039 2.488-1.21.08-.039 2.567-1.249v-2.287l-2.567 1.249z"/><filter x="-503.2%" y="-536.7%" width="1106.4%" height="1616.7%" filterUnits="objectBoundingBox" id="I"><feMorphology radius="1" operator="dilate" in="SourceAlpha" result="shadowSpreadOuter1"/><feOffset dy="19" in="shadowSpreadOuter1" result="shadowOffsetOuter1"/><feGaussianBlur stdDeviation="17.5" in="shadowOffsetOuter1" result="shadowBlurOuter1"/><feColorMatrix values="0 0 0 0 0.223529412 0 0 0 0 0.105882353 0 0 0 0 0.564705882 0 0 0 1 0" in="shadowBlurOuter1"/></filter></defs><g fill="none" fill-rule="evenodd"><g transform="translate(34 15)"><use fill="#000" filter="url(#a)" xlink:href="#b"/><use fill="#28EBFF" xlink:href="#b"/></g><g transform="translate(34 15)"><use fill="#000" filter="url(#c)" xlink:href="#d"/><use fill="#28EBFF" xlink:href="#d"/></g><g transform="translate(34 15)"><use fill="#000" filter="url(#e)" xlink:href="#f"/><use fill="#28EBFF" xlink:href="#f"/></g><g transform="translate(34 15)"><use fill="#000" filter="url(#g)" xlink:href="#h"/><use fill="#28EBFF" xlink:href="#h"/></g><g transform="translate(34 15)"><use fill="#000" filter="url(#i)" xlink:href="#j"/><use fill="#28EBFF" xlink:href="#j"/></g><g transform="translate(34 15)"><use fill="#000" filter="url(#k)" xlink:href="#l"/><use fill="#28EBFF" xlink:href="#l"/></g><g transform="translate(34 15)"><use fill="#000" filter="url(#m)" xlink:href="#n"/><use fill="#28EBFF" xlink:href="#n"/></g><g transform="translate(34 15)"><use fill="#000" filter="url(#o)" xlink:href="#p"/><use fill="#28EBFF" xlink:href="#p"/></g><g transform="translate(34 15)"><use fill="#000" filter="url(#q)" xlink:href="#r"/><use fill="#28EBFF" xlink:href="#r"/></g><g transform="translate(34 15)"><use fill="#000" filter="url(#s)" xlink:href="#t"/><use fill="#28EBFF" xlink:href="#t"/></g><g transform="translate(34 15)"><use fill="#000" filter="url(#u)" xlink:href="#v"/><use fill="#28EBFF" xlink:href="#v"/></g><g transform="translate(34 15)"><use fill="#000" filter="url(#w)" xlink:href="#x"/><use fill="#28EBFF" xlink:href="#x"/></g><g transform="translate(34 15)"><use fill="#000" filter="url(#y)" xlink:href="#z"/><use fill="#28EBFF" xlink:href="#z"/></g><g transform="translate(34 15)"><use fill="#000" filter="url(#A)" xlink:href="#B"/><use fill="#28EBFF" xlink:href="#B"/></g><g transform="translate(34 15)"><use fill="#000" filter="url(#C)" xlink:href="#D"/><use fill="#28EBFF" xlink:href="#D"/></g><g transform="translate(34 15)"><use fill="#000" filter="url(#E)" xlink:href="#F"/><use fill="#28EBFF" xlink:href="#F"/></g><g transform="translate(34 15)"><use fill="#000" filter="url(#G)" xlink:href="#H"/><use fill="#28EBFF" xlink:href="#H"/></g><g transform="translate(34 15)"><use fill="#000" filter="url(#I)" xlink:href="#J"/><use fill="#28EBFF" xlink:href="#J"/></g></g></svg>