<svg width="309" height="693" xmlns="http://www.w3.org/2000/svg" xmlns:xlink="http://www.w3.org/1999/xlink"><defs><path d="M124.777 2.412L6.754 67.548c-8.72 4.56-9.069 16.895-.623 21.942l105.365 62.948a33.058 33.058 0 0 0 32.01 1.052l115.406-60.282c8.808-4.506 9.216-16.92.724-21.994L145.455 2.997a21.176 21.176 0 0 0-20.677-.585" id="a"/><path id="c" d="M0 20.932l91.498 54.816 35.173-18.231L35.173 0z"/><linearGradient x1="50%" y1="0%" x2="50%" y2="98.208%" id="d"><stop stop-color="#0E0C7D" offset="0%"/><stop stop-color="#0C0A79" offset="100%"/></linearGradient><linearGradient x1="50%" y1="95.531%" x2="50%" y2="22.966%" id="f"><stop stop-color="#25C8F1" offset="0%"/><stop stop-color="#28EBFF" stop-opacity="0" offset="100%"/></linearGradient><linearGradient x1="-.001%" y1="50%" y2="50%" id="g"><stop stop-color="#080064" offset="0%"/><stop stop-color="#11148C" offset="100%"/></linearGradient><linearGradient x1="-.001%" y1="49.999%" x2="99.998%" y2="49.999%" id="h"><stop stop-color="#5E52F0" offset="0%"/><stop stop-color="#8377FF" offset="100%"/></linearGradient><path id="i" d="M0 20.934L91.5 75.75l35.171-18.232L35.173 0z"/><linearGradient x1="0%" y1="50%" y2="50%" id="j"><stop stop-color="#5E75FF" offset="0%"/><stop stop-color="#97A3FF" offset="100%"/></linearGradient><linearGradient x1="0%" y1="50%" x2="99.999%" y2="50%" id="l"><stop stop-color="#080064" offset="0%"/><stop stop-color="#11148C" offset="100%"/></linearGradient><linearGradient x1="-.003%" y1="50.001%" x2="100.001%" y2="50.001%" id="m"><stop stop-color="#5E52F0" offset="0%"/><stop stop-color="#8377FF" offset="100%"/></linearGradient><path id="n" d="M0 20.871l91.498 54.65 35.173-18.177L35.173 0z"/><linearGradient x1="0%" y1="50%" y2="50%" id="o"><stop stop-color="#5E75FF" offset="0%"/><stop stop-color="#97A3FF" offset="100%"/></linearGradient><path d="M0 144.391a7.228 7.228 0 0 0 3.525 6.208l76.995 45.99 5.4 3.227a11.05 11.05 0 0 0 5.578 1.56V54.653L0 0v144.391z" id="q"/><linearGradient x1="0%" y1="50%" y2="50%" id="r"><stop stop-color="#080064" offset="0%"/><stop stop-color="#11148C" offset="100%"/></linearGradient><path d="M0 18.179v146.725a11.024 11.024 0 0 0 5.62-1.49l26.175-13.126a6.36 6.36 0 0 0 3.378-5.617V0L0 18.179z" id="t"/><linearGradient x1="0%" y1="50%" x2="99.999%" y2="50%" id="u"><stop stop-color="#5E52F0" offset="0%"/><stop stop-color="#8377FF" offset="100%"/></linearGradient></defs><g fill="none" fill-rule="evenodd"><path d="M298.989 616.907l-126.4 69.388a44.393 44.393 0 0 1-43.034-1.409L9.167 612.844c-9.874-5.909-9.465-20.347.73-25.686l132.318-76.541a24.727 24.727 0 0 1 24.166.686l133.453 79.856c9.923 5.941 9.447 20.474-.845 25.748z" stroke="#25C8F1" stroke-width="3"/><path d="M300.081 581.97l-133.31 69.828a38.1 38.1 0 0 1-36.979-1.217L8.084 577.663c-9.76-5.846-9.354-20.134.718-25.416l136.334-75.454a24.408 24.408 0 0 1 23.884.678l131.897 79.02c9.808 5.877 9.337 20.26-.836 25.479" fill="#26C8F1"/><g transform="translate(23 452)"><mask id="b" fill="#fff"><use xlink:href="#a"/></mask><path d="M124.777 2.412L6.754 67.548c-8.72 4.56-9.069 16.895-.623 21.942l105.365 62.948a33.058 33.058 0 0 0 32.01 1.052l115.406-60.282c8.808-4.506 9.216-16.92.724-21.994L145.455 2.997a21.176 21.176 0 0 0-20.677-.585" mask="url(#b)"/></g><g transform="translate(136 257)"><mask id="e" fill="#fff"><use xlink:href="#c"/></mask><path d="M0 20.932c49.753 43.95 80.21 67.537 91.374 70.761 11.163 3.224 22.929-8.168 35.297-34.176L35.173 0 0 20.932z" fill="url(#d)" mask="url(#e)"/></g><path d="M0 15.808v384.774l69.278 41.39 26.633-13.768V43.434L26.63 0z" transform="translate(151 -102)" fill="url(#f)"/><path d="M0 144.35a7.229 7.229 0 0 0 3.537 6.207l77.304 45.976 5.419 3.223a11.132 11.132 0 0 0 5.602 1.562V54.636L0 0v144.35z" transform="translate(136 279)" fill="url(#g)"/><path d="M0 18.188V165a10.923 10.923 0 0 0 5.593-1.492l26.043-13.133a6.366 6.366 0 0 0 3.364-5.62V0L0 18.188z" transform="translate(227 316)" fill="url(#h)"/><g fill="#28EBFF"><path d="M147.579 304v1.365l1.804 1.071.055.034 1.749 1.04.057.033 1.748 1.038.056.032 1.746 1.038.056.035 1.807 1.072v-1.365l-1.807-1.072-.056-.033-1.746-1.038-.056-.034-1.748-1.038-.057-.035-1.749-1.038-.055-.032zm13.474 8.424v1.365l1.803 1.07.056.035 1.75 1.038.055.033 1.747 1.04.057.032 1.747 1.038.057.033 1.804 1.074v-1.365l-1.804-1.073-.057-.032-1.747-1.038-.057-.036-1.747-1.037-.055-.034-1.75-1.038-.056-.034zm11.789 6.739v1.366l1.804 1.07.055.036 1.749 1.037.057.034 1.746 1.038.058.032 1.746 1.04.056.033 1.805 1.073v-1.366l-1.805-1.071-.056-.034-1.746-1.038-.058-.034-1.746-1.038-.057-.033-1.749-1.04-.055-.032zm-25.263-10.109v1.365l1.804 1.072.055.033 1.749 1.038.057.034 1.804 1.071v-1.363l-1.804-1.073-.057-.034-1.749-1.037-.055-.034zm8.421 5.055v1.366l1.804 1.07.055.034 1.75 1.037.056.036 1.748 1.038.056.032 1.748 1.04.055.033 1.806 1.071v-1.364l-1.806-1.072-.055-.034-1.748-1.037-.056-.034-1.748-1.038-.056-.035-1.75-1.038-.055-.032zm13.474 6.739v1.365l1.803 1.071.056.034 1.75 1.038.056.035 1.748 1.038.055.032 1.747 1.038.057.033 1.747 1.04.059.033 1.746 1.038.056.032 1.803 1.074v-1.363l-1.803-1.074-.056-.033-1.746-1.038-.06-.034-1.746-1.04-.057-.031-1.747-1.038-.055-.034-1.748-1.04-.056-.033-1.75-1.038-.056-.034zm-21.895-8.424v1.366l1.804 1.07.055.035 1.749 1.038.057.034 1.748 1.038.056.032 1.746 1.04.056.033 1.748 1.038.059.035 1.802 1.07v-1.363l-1.802-1.073-.06-.032-1.747-1.04-.056-.033-1.746-1.038-.056-.034-1.748-1.038-.057-.033-1.749-1.04-.055-.032zm15.158 8.424v1.366l1.804 1.07.055.035 1.748 1.038.058.034 1.746 1.038.057.032 1.747 1.04.056.033 1.748 1.038.057.035 1.748 1.038.056.032 1.748 1.04.056.032 1.748 1.039.057.034 1.747 1.038.057.035 1.804 1.07v-1.363l-1.804-1.073-.057-.032-1.747-1.04-.057-.034-1.748-1.037-.056-.034-1.748-1.038-.056-.034-1.748-1.04-.057-.031-1.748-1.04-.056-.033-1.747-1.038-.057-.034-1.746-1.038-.058-.033-1.748-1.04-.055-.032zm-15.158-5.055v1.365l1.804 1.072.055.033 1.749 1.038.057.036 1.748 1.037.056.032 1.746 1.038.056.036 1.807 1.071v-1.365l-1.807-1.073-.056-.032-1.746-1.038-.056-.033-1.748-1.038-.057-.035-1.749-1.038-.055-.032zm13.474 8.424v1.365l1.803 1.07.056.035 1.75 1.038.055.034 1.804 1.071v-1.363l-1.804-1.073-.055-.034-1.75-1.04-.056-.031zm8.421 5.055v1.364l1.803 1.072.056.034 1.75 1.037.056.036 1.748 1.038.055.032 1.804 1.073v-1.366l-1.804-1.07-.055-.034-1.748-1.038-.056-.035-1.75-1.038-.056-.032zm-21.895-10.109v1.365l1.804 1.07.055.033 1.749 1.04.057.033 1.748 1.038.056.034 1.746 1.038.056.033 1.748 1.038.059.034 1.746 1.04.056.032 1.804 1.073v-1.365l-1.804-1.071-.056-.036-1.746-1.038-.06-.032-1.747-1.04-.056-.031-1.746-1.04-.056-.033-1.748-1.038-.057-.036-1.749-1.037-.055-.032zm16.842 10.109v1.364l1.802 1.072.057.034 1.749 1.037.057.036 1.746 1.038.056.032 1.804 1.073v-1.365l-1.804-1.071-.056-.034-1.746-1.04-.057-.033-1.749-1.038-.057-.032zm10.105 6.738v1.366l1.802 1.071.058.034 1.748 1.038.057.035 1.747 1.038.055.032 1.748 1.038.056.035 1.806 1.072v-1.365l-1.806-1.073-.056-.032-1.748-1.038-.055-.034-1.747-1.038-.057-.035-1.748-1.038-.058-.032zm-26.947-11.793v1.365l1.804 1.072.055.033 1.749 1.038.057.035 1.804 1.07v-1.363l-1.804-1.073-.057-.034-1.749-1.037-.055-.032zm8.421 5.055v1.364l1.804 1.07.055.036 1.75 1.037.056.034 1.748 1.038.056.034 1.748 1.038.055.033 1.747 1.038.059.035 1.746 1.038.058.032 1.746 1.04.056.033 1.748 1.038.057.034 1.804 1.073v-1.364l-1.804-1.074-.057-.032-1.748-1.038-.056-.035-1.746-1.038-.058-.033-1.746-1.038-.06-.034-1.746-1.04-.055-.031-1.748-1.038-.056-.036-1.748-1.038-.056-.033-1.75-1.038-.055-.034zm20.21 11.793v1.365l1.804 1.071.058.034 1.803 1.073v-1.364l-1.803-1.074-.058-.032zm-28.631-13.478v1.365l1.804 1.07.055.035 1.749 1.038.057.033 1.748 1.038.056.034 1.746 1.038.056.033 1.748 1.038.059.036 1.746 1.037.056.032 1.804 1.074v-1.363l-1.804-1.074-.056-.033-1.746-1.04-.06-.032-1.747-1.04-.056-.031-1.746-1.038-.056-.035-1.748-1.038-.057-.034-1.749-1.04-.055-.032zm16.842 10.109v1.364l1.802 1.072.057.034 1.749 1.037.057.036 1.746 1.038.056.032 1.748 1.037.056.036 1.748 1.038.057.033 1.804 1.072v-1.363l-1.804-1.073-.057-.032-1.748-1.042-.056-.032-1.748-1.037-.056-.034-1.746-1.038-.057-.035-1.749-1.038-.057-.032zm-16.842-6.739v1.364l1.804 1.072.055.033 1.749 1.038.057.036 1.748 1.037.056.032 1.746 1.038.056.036 1.807 1.071v-1.364l-1.807-1.072-.056-.034-1.746-1.038-.056-.033-1.748-1.038-.057-.035-1.749-1.038-.055-.032zm13.474 8.423v1.365l1.803 1.072.056.033 1.75 1.038.055.034 1.747 1.038.057.033 1.747 1.038.057.034 1.747 1.04.057.033 1.748 1.038.056.032 1.803 1.073v-1.363l-1.803-1.073-.056-.034-1.748-1.038-.057-.033-1.747-1.04-.057-.032-1.747-1.038-.057-.035-1.747-1.038-.055-.034-1.75-1.037-.056-.034zm15.157 8.424v1.367l1.804 1.07.058.033 1.748 1.038.055.035 1.749 1.038.055.032 1.804 1.073v-1.364l-1.804-1.072-.055-.033-1.749-1.038-.055-.036-1.748-1.037-.058-.032zm-28.631-13.478v1.365l1.804 1.07.055.035 1.749 1.038.057.033 1.748 1.04.056.032 1.746 1.038.056.034 1.748 1.037.059.036 1.746 1.038.056.032 1.748 1.04.056.033 1.748 1.038.057.033 1.804 1.074v-1.365l-1.804-1.073-.057-.032-1.748-1.038-.056-.036-1.748-1.037-.056-.034-1.746-1.038-.06-.034-1.747-1.04-.056-.031-1.746-1.038-.056-.035-1.748-1.038-.057-.034-1.749-1.038-.055-.033zm20.211 11.794v1.366l1.803 1.07.056.035 1.805 1.072v-1.365l-1.805-1.073-.056-.032zm6.736 5.054v1.366l1.802 1.07.058.035 1.748 1.038.057.034 1.747 1.038.055.032 1.804 1.073v-1.365l-1.804-1.071-.055-.034-1.747-1.038-.057-.033-1.748-1.04-.058-.032zm-26.947-11.794v1.365l1.804 1.072.055.033 1.749 1.04.057.034 1.748 1.037.056.032 1.802 1.074v-1.365l-1.802-1.072-.056-.033-1.748-1.038-.057-.036-1.749-1.037-.055-.032zm11.789 5.055v1.366l1.804 1.07.056.034 1.805 1.073v-1.365l-1.805-1.073-.056-.032zm6.737 5.055v1.365l1.804 1.07.056.036 1.75 1.038.055.033 1.748 1.038.056.032 1.748 1.04.056.033 1.805 1.073v-1.366l-1.805-1.071-.056-.034-1.748-1.038-.056-.034-1.748-1.037-.055-.034-1.75-1.04-.056-.032zm-18.526-6.74v1.365l1.804 1.071.055.034 1.749 1.038.057.035 1.748 1.038.056.032 1.746 1.038.056.033 1.748 1.04.059.034 1.746 1.037.056.034 1.804 1.072v-1.363l-1.804-1.073-.056-.034-1.746-1.038-.06-.034-1.747-1.04-.056-.031-1.746-1.038-.056-.034-1.748-1.04-.057-.033-1.749-1.038-.055-.033zm16.842 10.109v1.366l1.802 1.07.057.035 1.749 1.038.057.034 1.746 1.038.056.032 1.804 1.073v-1.365l-1.804-1.071-.056-.034-1.746-1.038-.057-.034-1.749-1.04-.057-.031zm10.105 5.054v1.365l1.802 1.07.058.035 1.748 1.038.057.033 1.747 1.038.055.034 1.804 1.072v-1.365l-1.804-1.072-.055-.033-1.747-1.038-.057-.034-1.748-1.038-.058-.033zm-26.947-11.793v1.366l1.804 1.07.055.035 1.749 1.038.057.034 1.748 1.037.056.033 1.802 1.073v-1.365l-1.802-1.071-.056-.034-1.748-1.038-.057-.034-1.749-1.04-.055-.031zm11.789 6.739v1.364l1.804 1.07.056.034 1.75 1.04.055.033 1.748 1.038.056.034 1.747 1.037.057.034 1.746 1.038.06.034 1.801 1.071v-1.363l-1.802-1.073-.059-.032-1.746-1.04-.057-.032-1.747-1.039-.056-.034-1.748-1.038-.055-.035-1.75-1.038-.056-.032zm13.474 8.424v1.364l1.804 1.07.055.036 1.749 1.037.057.034 1.746 1.038.058.034 1.746 1.037.056.034 1.748 1.038.057.035 1.804 1.07v-1.363l-1.804-1.073-.057-.032-1.748-1.04-.056-.032-1.746-1.04-.058-.033-1.746-1.038-.057-.033-1.749-1.04-.055-.032zm-25.263-11.793v1.364l1.804 1.071.055.034 1.749 1.038.057.035 1.748 1.038.056.032 1.746 1.038.056.035 1.748 1.038.059.034 1.746 1.038.056.033 1.748 1.04.056.032 1.748 1.038.057.035 1.748 1.038.056.034 1.748 1.037.056.034 1.804 1.072v-1.363l-1.804-1.074-.056-.033-1.748-1.038-.056-.032-1.748-1.041-.057-.032-1.748-1.038-.056-.034-1.748-1.038-.056-.035-1.746-1.038-.06-.032-1.747-1.041-.056-.032-1.746-1.038-.056-.034-1.748-1.037-.057-.036-1.749-1.038-.055-.032zm23.579 15.162v1.365l1.804 1.07.055.035 1.75 1.038.056.034 1.748 1.037.056.034 1.746 1.038.057.034 1.747 1.037.059.036 1.746 1.038.056.032 1.748 1.04.056.033 1.805 1.071v-1.364l-1.805-1.072-.056-.033-1.748-1.038-.056-.034-1.746-1.038-.06-.034-1.746-1.039-.057-.032-1.746-1.04-.056-.033-1.748-1.038-.056-.034-1.75-1.038-.055-.033zm-23.579-10.109v1.365l1.804 1.07.055.035 1.749 1.038.057.034 1.748 1.038.056.033 1.746 1.038.056.034 1.748 1.038.059.035 1.746 1.038.056.032 1.748 1.04.056.033 1.805 1.072v-1.365l-1.805-1.07-.056-.035-1.748-1.038-.056-.034-1.746-1.038-.06-.033-1.747-1.04-.056-.032-1.746-1.038-.056-.035-1.748-1.038-.057-.033-1.749-1.038-.055-.034zm18.526 10.109v1.365l1.804 1.07.057.035 1.749 1.038.055.034 1.748 1.037.056.034 1.804 1.072v-1.365l-1.804-1.07-.056-.035-1.748-1.038-.055-.034-1.749-1.038-.057-.033zm10.105 6.739v1.365l1.804 1.07.058.035 1.803 1.072v-1.365l-1.803-1.071-.058-.034zm-28.631-13.478v1.365l1.804 1.071.055.034 1.749 1.038.057.035 1.748 1.038.056.032 1.746 1.038.056.035 1.748 1.038.059.034 1.746 1.038.056.033 1.804 1.072v-1.363l-1.804-1.073-.056-.034-1.746-1.038-.06-.032-1.747-1.04-.056-.033-1.746-1.038-.056-.034-1.748-1.04-.057-.033-1.749-1.038-.055-.032zm16.842 10.109v1.364l1.802 1.07.057.036 1.806 1.071v-1.365l-1.806-1.071-.057-.034zm6.737 3.369v1.365l1.804 1.072.055.033 1.806 1.072v-1.365l-1.806-1.071-.055-.034zm6.737 5.055v1.364l1.804 1.072.055.034 1.75 1.037.056.034 1.748 1.038.055.034 1.804 1.071v-1.365l-1.804-1.07-.055-.035-1.748-1.038-.056-.033-1.75-1.038-.055-.034zm-30.316-15.163v1.364l1.804 1.072.055.033 1.749 1.038.057.034 1.748 1.038.056.034 1.802 1.071v-1.365l-1.802-1.07-.056-.035-1.748-1.038-.057-.033-1.749-1.038-.055-.034zm11.789 6.739v1.364l1.804 1.07.056.036 1.75 1.037.055.034 1.748 1.04.056.032 1.747 1.038.057.033 1.746 1.038.06.035 1.746 1.038.055.032 1.749 1.041.055.032 1.748 1.038.058.034 1.748 1.038.055.035 1.804 1.07v-1.363l-1.804-1.071-.055-.034-1.748-1.04-.058-.032-1.748-1.038-.055-.035-1.749-1.038-.055-.033-1.747-1.038-.059-.034-1.746-1.04-.057-.031-1.747-1.038-.056-.036-1.748-1.038-.055-.033-1.75-1.038-.056-.034zm-11.789-3.37v1.365l1.804 1.071.055.034 1.749 1.038.057.035 1.748 1.038.056.032 1.802 1.073v-1.364l-1.802-1.072-.056-.034-1.748-1.037-.057-.036-1.749-1.038-.055-.032zm11.789 6.739v1.365l1.804 1.072.056.033 1.75 1.04.055.033 1.748 1.038.056.032 1.747 1.038.057.035 1.805 1.072v-1.365l-1.805-1.071-.057-.034-1.747-1.038-.056-.033-1.748-1.038-.055-.036-1.75-1.037-.056-.032zm11.79 8.424v1.365l1.804 1.07.055.035 1.75 1.038.056.034 1.804 1.071v-1.363l-1.804-1.073-.056-.034-1.75-1.038-.055-.033zm8.421 5.055v1.364l1.804 1.07.055.034 1.75 1.04.056.033 1.804 1.072v-1.365l-1.804-1.072-.056-.035-1.75-1.038-.055-.032zm-32-15.163v1.364l1.804 1.07.055.035 1.749 1.038.057.034 1.748 1.04.056.031 1.746 1.038.056.034 1.748 1.038.059.035 1.802 1.07v-1.363l-1.802-1.071-.06-.034-1.747-1.04-.056-.032-1.746-1.038-.056-.035-1.748-1.038-.057-.033-1.749-1.038-.055-.034zm15.158 8.423v1.365l1.804 1.072.055.033 1.748 1.038.058.034 1.746 1.04.057.031 1.747 1.038.056.036 1.805 1.071v-1.365l-1.805-1.073-.056-.032-1.747-1.038-.057-.035-1.746-1.038-.058-.034-1.748-1.037-.055-.032zm11.789 6.74v1.366l1.802 1.07.058.035 1.805 1.072v-1.365l-1.805-1.073-.058-.032zm-26.947-11.794v1.365l1.804 1.071.055.034 1.749 1.04.057.033 1.748 1.038.056.032 1.746 1.038.056.035 1.748 1.038.059.034 1.746 1.04.056.031 1.748 1.04.056.032 1.748 1.038.057.035 1.804 1.072v-1.365l-1.804-1.072-.057-.033-1.748-1.038-.056-.034-1.748-1.038-.056-.035-1.746-1.038-.06-.032-1.747-1.04-.056-.033-1.746-1.038-.056-.034-1.748-1.037-.057-.036-1.749-1.038-.055-.032zm20.211 11.794v1.364l1.803 1.072.056.033 1.805 1.072v-1.365l-1.805-1.071-.056-.034zm6.736 5.054v1.365l1.802 1.071.058.034 1.748 1.038.057.033 1.747 1.04.055.032 1.748 1.038.056.035 1.748 1.038.058.034 1.803 1.07v-1.364l-1.803-1.071-.058-.032-1.748-1.041-.056-.032-1.748-1.038-.055-.036-1.747-1.037-.057-.034-1.748-1.038-.058-.032zm-26.947-13.478v1.364l1.804 1.072.055.034 1.749 1.037.057.036 1.748 1.038.056.032 1.802 1.071v-1.365l-1.802-1.07-.056-.033-1.748-1.04-.057-.033-1.749-1.038-.055-.034zm11.789 6.739v1.364l1.804 1.072.056.034 1.75 1.038.055.033 1.748 1.04.056.032 1.747 1.038.057.035 1.805 1.071v-1.364l-1.805-1.073-.057-.032-1.747-1.038-.056-.036-1.748-1.037-.055-.034-1.75-1.038-.056-.032zm11.79 8.424v1.364l1.804 1.07.055.036 1.75 1.037.056.034 1.746 1.038.058.034 1.803 1.071v-1.365l-1.803-1.07-.058-.035-1.746-1.038-.056-.033-1.75-1.04-.055-.032zM147.579 381.5v1.365l1.804 1.07.055.035 1.749 1.038.057.033 1.748 1.038.056.034 1.746 1.038.056.033 1.748 1.038.059.036 1.746 1.037.056.033 1.748 1.039.056.034 1.805 1.071v-1.364l-1.805-1.07-.056-.036-1.748-1.037-.056-.034-1.746-1.04-.06-.032-1.747-1.04-.056-.031-1.746-1.038-.056-.035-1.748-1.038-.057-.034-1.749-1.04-.055-.031zm18.526 10.109v1.364l1.804 1.07.057.036 1.749 1.037.055.034 1.748 1.038.056.034 1.748 1.037.056.034 1.748 1.038.057.035 1.748 1.038.056.032 1.746 1.04.058.033 1.746 1.038.06.034 1.746 1.038.055.035 1.804 1.07v-1.363l-1.804-1.072-.055-.033-1.747-1.04-.059-.032-1.746-1.04-.058-.033-1.746-1.038-.056-.033-1.748-1.038-.057-.034-1.748-1.04-.056-.032-1.748-1.039-.056-.034-1.748-1.038-.055-.033-1.749-1.038-.057-.034zm-18.526-6.739v1.364l1.804 1.072.055.033 1.749 1.038.057.036 1.804 1.07v-1.363l-1.804-1.072-.057-.035-1.749-1.038-.055-.032zm8.421 5.054v1.365l1.804 1.07.055.035 1.75 1.038.056.033 1.748 1.038.056.034 1.748 1.038.055.033 1.806 1.074v-1.365l-1.806-1.073-.055-.032-1.748-1.04-.056-.034-1.748-1.037-.056-.034-1.75-1.038-.055-.034zm13.474 6.739v1.365l1.803 1.071.056.034 1.75 1.038.056.035 1.748 1.038.055.032 1.747 1.038.057.035 1.747 1.038.059.034 1.802 1.071v-1.363l-1.802-1.073-.06-.032-1.746-1.04-.057-.033-1.747-1.038-.055-.034-1.748-1.038-.056-.035-1.75-1.038-.056-.032zm-21.895-8.423v1.364l1.804 1.07.055.035 1.806 1.072v-1.365l-1.806-1.072-.055-.033zm6.737 5.053v1.365l1.804 1.07.055.035 1.75 1.038.056.034 1.748 1.038.055.033 1.749 1.038.055.034 1.748 1.038.058.035 1.746 1.038.057.032 1.804 1.073v-1.363l-1.804-1.073-.057-.034-1.746-1.038-.058-.033-1.748-1.04-.055-.032-1.749-1.038-.055-.035-1.748-1.038-.056-.033-1.75-1.038-.055-.034zm16.842 8.424v1.365l1.804 1.072.055.033 1.75 1.04.056.033 1.746 1.038.058.032 1.746 1.038.057.036 1.804 1.071v-1.365l-1.804-1.071-.057-.034-1.746-1.038-.058-.033-1.746-1.038-.056-.036-1.75-1.037-.055-.032zm-23.579-10.108v1.364l1.804 1.072.055.034 1.749 1.037.057.036 1.748 1.038.056.032 1.746 1.037.056.036 1.748 1.038.059.033 1.746 1.038.056.034 1.748 1.04.056.031 1.748 1.038.057.036 1.804 1.071v-1.365l-1.804-1.071-.057-.034-1.748-1.038-.056-.033-1.748-1.04-.056-.033-1.746-1.038-.06-.032-1.747-1.04-.056-.034-1.746-1.037-.056-.034-1.748-1.04-.057-.033-1.749-1.038-.055-.032zm20.211 11.793v1.365l1.803 1.07.056.035 1.805 1.072v-1.365l-1.805-1.072-.056-.033zm6.736 5.055v1.364l1.802 1.07.058.035 1.748 1.038.057.034 1.747 1.038.055.033 1.804 1.072v-1.365l-1.804-1.07-.055-.035-1.747-1.038-.057-.033-1.748-1.038-.058-.034zm-26.947-11.794v1.365l1.804 1.071.055.034 1.749 1.038.057.033 1.748 1.038.056.034 1.802 1.072v-1.365l-1.802-1.07-.056-.035-1.748-1.038-.057-.034-1.749-1.038-.055-.033zm11.789 5.054v1.365l1.804 1.07.056.035 1.805 1.072v-1.365l-1.805-1.071-.056-.034zm6.737 5.055v1.364l1.804 1.072.056.034 1.75 1.037.055.034 1.748 1.04.056.032 1.748 1.038.056.033 1.748 1.04.057.033 1.747 1.038.057.032 1.746 1.041.058.032 1.804 1.072v-1.365l-1.804-1.07-.058-.035-1.746-1.038-.057-.033-1.747-1.038-.057-.034-1.748-1.04-.056-.031-1.748-1.038-.056-.036-1.748-1.038-.055-.033-1.75-1.038-.056-.032zm-18.526-6.739v1.364l1.804 1.072.055.033 1.806 1.074v-1.365l-1.806-1.073-.055-.032zm6.737 3.369v1.367l1.804 1.07.055.033 1.75 1.038.056.035 1.748 1.038.055.032 1.749 1.04.055.033 1.806 1.072v-1.365l-1.806-1.071-.055-.034-1.749-1.038-.055-.034-1.748-1.037-.056-.036-1.75-1.038-.055-.032zm13.474 8.424v1.365l1.803 1.071.056.034 1.75 1.038.055.034 1.749 1.037.055.034 1.804 1.072v-1.365l-1.804-1.07-.055-.035-1.749-1.038-.055-.034-1.75-1.038-.056-.033zm-20.211-8.424v1.365l1.804 1.07.055.035 1.749 1.038.057.034 1.748 1.04.056.031 1.746 1.038.056.034 1.748 1.037.059.036 1.746 1.038.056.032 1.748 1.04.056.033 1.748 1.038.057.033 1.804 1.074v-1.365l-1.804-1.073-.057-.032-1.748-1.038-.056-.035-1.748-1.038-.056-.034-1.746-1.038-.06-.034-1.747-1.039-.056-.032-1.746-1.038-.056-.035-1.748-1.038-.057-.034-1.749-1.038-.055-.033zm20.211 11.794v1.366l1.803 1.07.056.035 1.75 1.038.055.034 1.804 1.07v-1.363l-1.804-1.072-.055-.034-1.75-1.04-.056-.031zm8.42 5.054v1.365l1.804 1.071.058.034 1.748 1.038.055.033 1.749 1.04.055.032 1.748 1.038.056.035 1.805 1.072v-1.365l-1.805-1.073-.056-.032-1.748-1.038-.055-.035-1.749-1.038-.055-.034-1.748-1.038-.058-.032zm-28.631-13.478v1.364l1.804 1.07.055.034 1.749 1.04.057.033 1.804 1.072v-1.365l-1.804-1.072-.057-.035-1.749-1.038-.055-.032zM156 413.51v1.366l1.804 1.071.055.034 1.75 1.038.056.035 1.748 1.038.056.032 1.748 1.038.055.035 1.747 1.038.059.034 1.746 1.037.058.034 1.746 1.04.056.032 1.805 1.073v-1.365l-1.805-1.071-.056-.034-1.746-1.04-.058-.033-1.746-1.038-.06-.032-1.746-1.04-.055-.033-1.748-1.038-.056-.034-1.748-1.04-.056-.033-1.75-1.038-.055-.032zm-8.421-1.684v1.365l1.804 1.071.055.034 1.749 1.038.057.035 1.748 1.038.056.032 1.746 1.038.056.034 1.748 1.04.059.033 1.746 1.038.056.033 1.748 1.04.056.032 1.805 1.071v-1.364l-1.805-1.07-.056-.034-1.748-1.04-.056-.033-1.746-1.038-.06-.034-1.747-1.04-.056-.031-1.746-1.038-.056-.034-1.748-1.04-.057-.033-1.749-1.038-.055-.033zm18.526 10.109v1.364l1.804 1.072.057.034 1.749 1.037.055.034 1.748 1.04.056.032 1.748 1.038.056.035 1.805 1.071v-1.364l-1.805-1.073-.056-.032-1.748-1.038-.056-.036-1.748-1.037-.055-.034-1.749-1.038-.057-.032zm11.79 6.739v1.365l1.804 1.07.055.035 1.75 1.038.056.033 1.748 1.038.055.034 1.804 1.071v-1.364l-1.804-1.07-.055-.036-1.748-1.037-.056-.034-1.75-1.04-.055-.032zm-30.316-13.478v1.364l1.804 1.07.055.036 1.749 1.037.057.034 1.748 1.038.056.034 1.802 1.071v-1.365l-1.802-1.07-.056-.035-1.748-1.038-.057-.033-1.749-1.04-.055-.032zm11.789 6.739v1.364l1.804 1.07.056.036 1.75 1.038.055.033 1.748 1.038.056.034 1.747 1.038.057.033 1.805 1.073v-1.364l-1.805-1.073-.057-.032-1.747-1.04-.056-.034-1.748-1.037-.055-.034-1.75-1.038-.056-.034zm11.79 6.739v1.365l1.804 1.071.055.034 1.75 1.038.056.035 1.746 1.038.058.032 1.803 1.073v-1.365l-1.803-1.071-.058-.034-1.746-1.038-.056-.035-1.75-1.038-.055-.032zm-23.579-10.109v1.365l1.804 1.071.055.034 1.749 1.038.057.035 1.748 1.038.056.032 1.746 1.038.056.035 1.748 1.038.059.034 1.802 1.071v-1.363l-1.802-1.073-.06-.032-1.747-1.041-.056-.032-1.746-1.038-.056-.034-1.748-1.037-.057-.036-1.749-1.038-.055-.032zm15.158 8.425v1.364l1.804 1.071.055.034 1.806 1.073v-1.364l-1.806-1.074-.055-.032zm6.737 5.053v1.365l1.803 1.072.056.033 1.75 1.038.056.036 1.748 1.037.055.032 1.747 1.038.057.036 1.747 1.037.059.034 1.746 1.038.056.034 1.803 1.071v-1.363l-1.803-1.071-.056-.036-1.746-1.038-.06-.032-1.746-1.04-.057-.033-1.747-1.038-.055-.033-1.748-1.038-.056-.035-1.75-1.038-.056-.032zm33.684-94.347v1.354l1.593.905.052.027 1.543.878.049.028 1.544.876.05.029 1.544.876.048.029 1.595.903v-1.355l-1.595-.904-.048-.03-1.545-.875-.049-.029-1.544-.876-.049-.029-1.543-.874-.052-.03zm-11.79-6.739v1.356l1.595.904.05.027 1.544.878.048.029 1.545.874.049.03 1.544.875.049.029 1.595.904v-1.354l-1.595-.905-.049-.029-1.544-.876-.05-.028-1.544-.876-.048-.029-1.543-.876-.05-.029zm15.158 11.793v1.356l1.594.905.05.027 1.545.878.048.028 1.594.905v-1.356l-1.594-.905-.048-.029-1.545-.876-.05-.028zm-11.789-6.74v1.357l1.593.905.05.027 1.545.876.049.029 1.544.876.05.028 1.544.876.048.029 1.595.905v-1.357l-1.595-.903-.048-.03-1.545-.874-.049-.029-1.544-.876-.049-.029-1.544-.876-.05-.028zm6.737 8.425v1.356l1.591.905.052.027 1.543.876.05.03 1.543.875.05.028 1.544.876.049.029 1.544.876.05.029 1.594.904v-1.356l-1.593-.903-.051-.029-1.544-.876-.05-.03-1.544-.874-.049-.029-1.542-.876-.05-.029-1.544-.876-.052-.028zm1.684 3.369v1.357l1.593.904.052.027 1.543.876.049.03 1.544.875.05.03 1.544.875.048.028 1.595.905v-1.354l-1.595-.905-.048-.03-1.545-.875-.049-.028-1.544-.877-.049-.028-1.543-.876-.052-.029zm-8.421-3.369v1.354l1.593.905.05.027 1.545.878.049.028 1.593.905v-1.356l-1.593-.903-.049-.03-1.544-.875-.05-.03zm5.053 6.739v1.354l1.593.905.05.027 1.543.878.05.029 1.543.876.05.028 1.544.876.048.029 1.545.874.05.03 1.545.875.049.03 1.593.904v-1.355l-1.593-.905-.05-.027-1.544-.877-.05-.027-1.545-.878-.048-.029-1.543-.876-.05-.029-1.543-.876-.051-.028-1.543-.875-.05-.028zm-10.106-6.739v1.356l1.592.905.052.027 1.544.876.05.03 1.542.875.049.03 1.593.903v-1.355l-1.593-.904-.049-.029-1.543-.876-.049-.029-1.544-.876-.052-.028zm16.842 13.478v1.356l1.594.905.05.027 1.545.876.048.03 1.594.905v-1.356l-1.594-.905-.048-.028-1.545-.877-.05-.028zm-6.736 0v1.356l1.593.905.05.027 1.543.876.05.029 1.543.876.05.028 1.544.877.048.028 1.545.876.05.029 1.545.876.049.029 1.593.904v-1.356l-1.593-.905-.05-.027-1.544-.877-.05-.027-1.545-.878-.048-.029-1.543-.874-.05-.029-1.543-.876-.051-.028-1.543-.877-.05-.028zm3.368 5.054v1.357l1.593.903.052.028 1.543.876.049.03 1.544.875.05.029 1.544.876.048.029 1.595.904v-1.356l-1.595-.905-.048-.028-1.545-.875-.049-.028-1.544-.877-.049-.028-1.543-.876-.052-.029zm-6.737 0v1.355l1.593.905.05.028 1.545.876.05.03 1.544.875.048.029 1.543.876.05.029 1.543.876.053.028 1.542.876.05.029 1.544.874.048.029 1.545.878.05.027 1.594.904v-1.354l-1.594-.905-.05-.027-1.545-.878-.048-.027-1.545-.877-.049-.027-1.542-.878-.053-.027-1.542-.878-.05-.028-1.544-.875-.048-.03-1.545-.875-.049-.03-1.544-.874-.05-.029zm-6.737-3.369v1.356l1.592.905.052.027 1.593.906v-1.356l-1.593-.905-.052-.028zm15.158 11.793v1.357l1.593.904.05.027 1.545.878.05.029 1.544.874.048.029 1.594.904v-1.354l-1.594-.905-.048-.029-1.545-.876-.049-.028-1.544-.876-.05-.029zm-6.737-3.369v1.356l1.594.905.05.027 1.593.906v-1.356l-1.593-.905-.05-.029zm1.685 5.054v1.355l1.593.904.05.029 1.543.876.05.029 1.543.876.05.028 1.544.877.048.028 1.545.876.05.029 1.545.876.049.029 1.593.904v-1.356l-1.593-.905-.05-.027-1.544-.877-.05-.027-1.545-.878-.048-.029-1.543-.874-.05-.03-1.543-.875-.051-.028-1.543-.877-.05-.028zm-10.106-5.054v1.356l1.592.905.052.027 1.544.877.05.03 1.542.875.049.029 1.593.905v-1.357l-1.593-.904-.049-.03-1.543-.875-.049-.029-1.544-.874-.052-.03zm15.158 11.793v1.356l1.593.905.05.027 1.545.878.05.029 1.544.876.048.028 1.594.905v-1.356l-1.594-.905-.048-.029-1.545-.876-.049-.028-1.544-.875-.05-.03zm-13.474-6.739v1.356l1.595.905.05.027 1.544.878.048.028 1.545.877.049.028 1.544.875.049.03 1.544.874.05.029 1.594.905v-1.355l-1.593-.905-.05-.027-1.545-.877-.049-.029-1.544-.876-.05-.029-1.544-.876-.048-.028-1.543-.877-.05-.028zm1.685 3.37v1.356l1.591.903.05.029 1.545.876.05.028 1.543.876.05.029 1.544.876.049.029 1.544.876.05.028 1.543.877.05.028 1.543.875.051.03 1.543.876.05.029 1.545.876.049.027 1.544.877.049.027 1.595.907v-1.356l-1.595-.903-.05-.03-1.543-.875-.05-.03-1.544-.877-.05-.027-1.543-.877-.05-.027-1.543-.878-.05-.027-1.544-.878-.05-.027-1.544-.877-.05-.03-1.544-.874-.049-.028-1.542-.876-.05-.029-1.545-.876-.05-.029zm5.052 6.739v1.354l1.594.905.05.027 1.544.878.05.028 1.542.877.05.028 1.543.876.05.029 1.544.874.05.03 1.545.875.048.03 1.545.875.049.028 1.595.905v-1.354l-1.595-.905-.05-.029-1.544-.876-.048-.027-1.545-.878-.05-.027-1.543-.877-.05-.029-1.543-.876-.05-.029-1.544-.876-.049-.028-1.544-.875-.05-.028zm1.685 5.055v1.354l1.593.904.05.027 1.543.878.05.029 1.543.876.05.029 1.544.876.048.028 1.545.875.05.03 1.545.874.049.03 1.593.904v-1.355l-1.593-.905-.05-.027-1.544-.877-.05-.027-1.545-.878-.048-.029-1.543-.876-.05-.028-1.543-.876-.051-.03-1.543-.874-.05-.028zm-6.737-3.37v1.354l1.591.905.05.029 1.594.904v-1.354l-1.593-.905-.05-.029zm11.789 10.108v1.357l1.593.904.05.027 1.545.878.05.029 1.544.874.048.03 1.594.905v-1.356l-1.594-.905-.048-.029-1.545-.876-.049-.028-1.544-.876-.05-.029zm0 3.37v1.354l1.593.905.05.027 1.545.878.05.028 1.544.877.048.028 1.594.905v-1.356l-1.594-.905-.048-.029-1.545-.876-.049-.028-1.544-.876-.05-.03zm-11.789-6.739v1.356l1.591.905.05.027 1.545.876.049.03 1.544.874.05.03 1.544.875.049.029 1.594.905v-1.355l-1.594-.905-.05-.028-1.544-.876-.049-.03-1.544-.875-.049-.029-1.544-.876-.05-.029zm8.421 8.424v1.356l1.591.905.052.027 1.543.876.05.03 1.543.874.05.029 1.544.876.049.029 1.544.876.05.028 1.594.905v-1.356l-1.593-.905-.051-.027-1.544-.876-.05-.028-1.544-.877-.049-.028-1.542-.876-.05-.029-1.544-.876-.052-.029zm-11.79-5.055v1.357l1.592.903.052.027 1.544.877.05.029 1.542.876.049.029 1.544.876.05.028 1.594.905v-1.356l-1.595-.905-.049-.029-1.544-.876-.049-.028-1.543-.875-.049-.028-1.544-.876-.052-.029zm6.737 6.739v1.355l1.593.905.05.027 1.545.877.05.03 1.544.875.048.029 1.543.876.05.029 1.543.876.053.028 1.542.875.05.028 1.544.876.048.029 1.545.878.05.027 1.594.904v-1.354l-1.594-.905-.05-.028-1.545-.877-.048-.027-1.545-.877-.049-.027-1.542-.878-.053-.027-1.542-.878-.05-.028-1.544-.876-.048-.03-1.545-.874-.049-.03-1.544-.874-.05-.03zm-6.737-3.369v1.356l1.592.903.052.029 1.593.904v-1.354l-1.593-.905-.052-.028zm15.158 11.793v1.357l1.593.904.05.027 1.545.878.05.029 1.544.874.048.029 1.594.904v-1.354l-1.594-.905-.048-.029-1.545-.876-.049-.028-1.544-.876-.05-.029zm-11.789-6.739v1.356l1.591.903.05.027 1.545.878.049.029 1.544.876.05.029 1.544.876.049.028 1.594.905v-1.356l-1.594-.905-.05-.029-1.544-.874-.049-.03-1.544-.875-.049-.028-1.544-.876-.05-.03zm5.052 6.739v1.357l1.594.903.05.028 1.544.876.05.03 1.542.875.05.029 1.543.876.05.028 1.544.877.05.028 1.545.876.048.029 1.545.876.049.029 1.595.904v-1.356l-1.595-.905-.05-.027-1.544-.877-.048-.027-1.545-.876-.05-.03-1.543-.875-.05-.03-1.543-.875-.05-.029-1.544-.876-.049-.028-1.544-.876-.05-.029zm8.421 8.424v1.356l1.594.905.05.027 1.545.878.048.029 1.594.904v-1.356l-1.594-.905-.048-.028-1.545-.876-.05-.03zm-11.789-6.739v1.356l1.593.905.05.027 1.545.876.049.03 1.544.875.05.028 1.544.877.048.028 1.595.905v-1.356l-1.595-.903-.048-.03-1.545-.875-.049-.029-1.544-.876-.049-.028-1.544-.877-.05-.028zm13.473 11.794v1.356l1.594.905.05.027 1.594.906v-1.356l-1.594-.903-.05-.03zm-15.157-8.424v1.356l1.591.905.05.027 1.545.877.049.029 1.544.876.05.029 1.544.876.049.028 1.544.875.05.028 1.543.877.05.028 1.594.905v-1.356l-1.593-.903-.05-.027-1.544-.878-.05-.027-1.544-.878-.05-.028-1.544-.877-.049-.028-1.544-.876-.049-.029-1.544-.874-.05-.03zm3.368 5.054v1.355l1.593.904.05.027 1.545.878.05.029 1.544.876.048.028 1.543.876.05.03 1.543.874.053.03 1.542.874.05.03 1.544.875.048.029 1.545.877.05.027 1.594.905v-1.354l-1.594-.905-.05-.029-1.545-.876-.048-.027-1.545-.878-.049-.027-1.542-.877-.053-.027-1.542-.878-.05-.029-1.544-.876-.048-.029-1.545-.874-.049-.03-1.544-.875-.05-.028zm-6.737-3.37v1.357l1.592.903.052.028 1.593.907v-1.356l-1.593-.905-.052-.029zm15.158 11.794v1.356l1.593.905.05.027 1.545.876.05.03 1.544.875.048.03 1.594.903v-1.355l-1.594-.904-.048-.029-1.545-.876-.049-.029-1.544-.876-.05-.028zm-6.737-3.37v1.357l1.594.904.05.027 1.593.907v-1.357l-1.593-.904-.05-.029zm10.105 8.424v1.357l1.594.903.05.028 1.594.905v-1.355l-1.594-.904-.05-.029zm-11.789-5.054v1.354l1.593.905.05.027 1.545.878.05.029 1.544.876.048.028 1.543.876.05.029 1.596.905v-1.356l-1.595-.905-.05-.029-1.544-.876-.048-.029-1.545-.874-.049-.03-1.544-.875-.05-.03zm0 3.369v1.357l1.593.904.05.027 1.545.878.05.029 1.544.876.048.029 1.543.874.05.029 1.543.876.053.028 1.542.876.05.03 1.544.875.048.029 1.545.878.05.027 1.594.904v-1.354l-1.594-.907-.05-.027-1.545-.877-.048-.027-1.545-.878-.049-.027-1.542-.876-.053-.027-1.542-.878-.05-.029-1.544-.876-.048-.028-1.545-.876-.049-.03-1.544-.875-.05-.029zm10.105 8.424v1.355l1.594.905.05.027 1.545.877.048.03 1.594.904v-1.356l-1.594-.905-.048-.029-1.545-.874-.05-.029zm-16.842-8.424v1.357l1.592.903.052.027 1.544.878.05.028 1.542.876.049.029 1.544.876.05.029 1.544.876.05.028 1.544.875.05.03 1.544.874.049.03 1.595.904v-1.355l-1.595-.904-.05-.027-1.544-.878-.049-.027-1.544-.878-.05-.027-1.545-.878-.049-.028-1.544-.876-.049-.029-1.543-.874-.049-.03-1.544-.875-.052-.029zm8.421 8.424v1.355l1.594.905.05.027 1.544.877.05.03 1.542.875.05.029 1.543.876.05.029 1.544.874.05.03 1.545.875.048.028 1.545.876.049.029 1.595.905v-1.355l-1.595-.905-.05-.028-1.544-.876-.048-.027-1.545-.878-.05-.027-1.543-.878-.05-.028-1.543-.876-.05-.03-1.544-.875-.049-.029-1.544-.874-.05-.03zm6.737 6.74v1.356l1.593.905.05.026 1.545.878.05.029 1.544.874.048.029 1.594.905v-1.355l-1.594-.905-.048-.028-1.545-.876-.049-.029-1.544-.876-.05-.029zm-11.789-5.055v1.356l1.591.903.05.027 1.545.878.049.029 1.544.876.05.029 1.544.876.049.028 1.594.905v-1.356l-1.594-.905-.05-.029-1.544-.874-.049-.03-1.544-.875-.049-.028-1.544-.876-.05-.03zm8.421 8.424v1.355l1.591.904.052.027 1.543.878.05.029 1.543.876.05.028 1.544.877.049.028 1.544.875.05.03 1.594.903v-1.355l-1.593-.904-.051-.027-1.544-.878-.05-.029-1.544-.876-.049-.028-1.542-.875-.05-.03-1.544-.875-.052-.03zm-6.737-5.054v1.356l1.593.903.05.027 1.594.906v-1.354l-1.593-.905-.05-.029z"/><path d="M218.671 384.966l-35.173 18.189L92 348.472l35.173-20.885z"/></g><g transform="translate(92 322)"><mask id="k" fill="#fff"><use xlink:href="#i"/></mask><path fill="url(#j)" mask="url(#k)" d="M0 20.934L91.5 75.75l35.171-18.232L35.173 0z"/></g><path d="M0 144.35a7.235 7.235 0 0 0 3.51 6.206l76.687 45.978 5.378 3.224a10.948 10.948 0 0 0 5.556 1.56c8.412-34.535 12.619-60.32 12.619-77.354s-4.207-40.143-12.62-69.326L0 0v144.35z" transform="translate(92 349)" fill="url(#l)"/><path d="M0 18.179v146.71c1.918.015 3.84-.48 5.56-1.488l25.902-13.125a6.367 6.367 0 0 0 3.343-5.616V0L0 18.179z" transform="translate(183 385)" fill="url(#m)"/><path d="M104 375v1.362l1.812 1.07.056.033 1.759 1.036.055.033 1.757 1.036.056.033 1.757 1.036.055.034 1.815 1.07v-1.361l-1.815-1.071-.055-.032-1.757-1.036-.056-.035-1.757-1.036-.055-.033-1.759-1.036-.056-.034zm13.538 8.407v1.361l1.813 1.07.056.033 1.758 1.038.056.033 1.757 1.036.055.032 1.755 1.036.058.035 1.814 1.07v-1.363l-1.814-1.069-.058-.033-1.755-1.036-.055-.034-1.757-1.035-.056-.036-1.758-1.035-.056-.032zm11.847 6.725v1.362l1.812 1.07.056.033 1.758 1.035.056.034 1.755 1.037.058.032 1.756 1.036.056.034 1.812 1.07v-1.361l-1.812-1.071-.056-.032-1.756-1.036-.058-.035-1.755-1.036-.056-.033-1.758-1.036-.056-.034zM104 378.363v1.362l1.812 1.069.056.033 1.759 1.036.055.035 1.813 1.068v-1.36l-1.813-1.07-.055-.035-1.759-1.035-.056-.032zm10.154 6.725v1.362l1.812 1.067.056.036 1.758 1.035.056.034 1.757 1.037.056.032 1.756 1.036.056.034 1.814 1.07v-1.361l-1.814-1.071-.056-.032-1.756-1.036-.056-.035-1.757-1.036-.056-.033-1.758-1.036-.056-.034zM126 391.813v1.364l1.812 1.067.056.034 1.759 1.036.055.035 1.757 1.036.056.032 1.757 1.037.055.034 1.755 1.035.06.034 1.756 1.036.056.033 1.81 1.07v-1.36l-1.81-1.07-.056-.035-1.756-1.036-.06-.032-1.755-1.037-.055-.034-1.757-1.036-.056-.033-1.757-1.036-.055-.035-1.759-1.036-.056-.032zm-22-8.406v1.361l1.812 1.068.056.035 1.759 1.036.055.034 1.757 1.037.056.032 1.757 1.036.055.033 1.755 1.036.06.035 1.812 1.068v-1.36l-1.812-1.07-.06-.033-1.755-1.038-.055-.031-1.757-1.036-.056-.035-1.757-1.036-.055-.034-1.759-1.035-.056-.034zm15.23 8.406v1.362l1.813 1.07.056.033 1.758 1.036.056.033 1.755 1.038.058.032 1.755 1.035.057.036 1.755 1.035.058.034 1.756 1.036.056.032 1.757 1.039.056.032 1.756 1.035.058.036 1.756 1.035.056.034 1.813 1.068v-1.36l-1.813-1.07-.056-.032-1.756-1.039-.058-.032-1.756-1.036-.056-.035-1.757-1.036-.056-.033-1.756-1.036-.058-.032-1.755-1.039-.057-.032-1.755-1.036-.058-.035-1.755-1.036-.056-.033-1.758-1.036-.056-.032zM104 386.77v1.361l1.812 1.068.056.033 1.759 1.038.055.033 1.757 1.036.056.034 1.757 1.035.055.034 1.815 1.07v-1.363l-1.815-1.069-.055-.032-1.757-1.037-.056-.034-1.757-1.036-.055-.035-1.759-1.036-.056-.031zm13.538 6.725v1.361l1.813 1.07.056.033 1.758 1.036.056.035 1.812 1.068v-1.36l-1.812-1.07-.056-.035-1.758-1.036-.056-.031zM126 400.22v1.362l1.812 1.067.056.036 1.759 1.035.055.034 1.757 1.036.056.033 1.812 1.07v-1.362l-1.812-1.07-.056-.033-1.757-1.036-.055-.034-1.759-1.035-.056-.034zm-22-10.088v1.362l1.812 1.07.056.033 1.759 1.035.055.036 1.757 1.035.056.032 1.757 1.036.055.034 1.755 1.037.06.034 1.754 1.035.058.034 1.81 1.07v-1.36l-1.81-1.072-.058-.034-1.754-1.035-.06-.034-1.755-1.037-.055-.032-1.757-1.036-.056-.033-1.757-1.038-.055-.033-1.759-1.036-.056-.034zm16.923 10.088v1.363l1.813 1.068.055.035 1.757 1.036.058.034 1.754 1.035.058.032 1.81 1.071v-1.362l-1.81-1.069-.058-.034-1.754-1.035-.058-.034-1.757-1.037-.055-.032zm10.154 6.725v1.362l1.812 1.068.056.035 1.757 1.036.057.033 1.757 1.036.056.034 1.755 1.035.056.034 1.815 1.07v-1.361l-1.815-1.071-.056-.032-1.755-1.037-.056-.034-1.757-1.036-.057-.033-1.757-1.036-.056-.034zM104 395.176v1.362l1.812 1.067.056.036 1.759 1.035.055.034 1.813 1.07v-1.36l-1.813-1.072-.055-.034-1.759-1.037-.056-.032zm10.154 5.044v1.362l1.812 1.069.056.034 1.758 1.035.056.036 1.757 1.035.056.032 1.756 1.036.056.035 1.757 1.036.057.034 1.755 1.035.058.034 1.755 1.037.057.032 1.755 1.036.058.035 1.812 1.07v-1.362l-1.812-1.071-.058-.032-1.755-1.036-.057-.034-1.755-1.035-.058-.036-1.755-1.035-.057-.032-1.757-1.04-.056-.031-1.756-1.036-.056-.034-1.757-1.035-.056-.036-1.758-1.035-.056-.032zm20.308 11.769v1.362l1.81 1.068.058.035 1.814 1.07v-1.363l-1.814-1.069-.058-.034zM104 398.538v1.362l1.812 1.07.056.033 1.759 1.036.055.035 1.757 1.036.056.032 1.757 1.036.055.035 1.755 1.036.06.033 1.754 1.036.058.034 1.81 1.069v-1.36l-1.81-1.07-.058-.035-1.754-1.036-.06-.032-1.755-1.039-.055-.032-1.757-1.035-.056-.034-1.757-1.036-.055-.035-1.759-1.036-.056-.032zm16.923 10.088v1.362l1.813 1.068.055.035 1.757 1.036.058.034 1.754 1.035.058.034 1.755 1.036.056.033 1.756 1.036.058.035 1.812 1.068v-1.36l-1.812-1.07-.058-.033-1.756-1.038-.056-.032-1.755-1.037-.058-.034-1.754-1.035-.058-.034-1.757-1.036-.055-.033zM104 401.901v1.362l1.812 1.068.056.035 1.759 1.036.055.033 1.757 1.036.056.034 1.757 1.035.055.034 1.815 1.07v-1.361l-1.815-1.071-.055-.032-1.757-1.036-.056-.035-1.757-1.036-.055-.033-1.759-1.036-.056-.034zm13.538 8.407v1.362l1.813 1.069.056.034 1.758 1.035.056.036 1.757 1.035.055.032 1.755 1.036.058.035 1.755 1.036.059.033 1.755 1.036.056.034 1.812 1.07v-1.361l-1.812-1.07-.056-.035-1.755-1.035-.06-.032-1.754-1.038-.058-.033-1.755-1.036-.055-.034-1.757-1.035-.056-.036-1.758-1.035-.056-.032zm16.924 8.406v1.362l1.81 1.068.058.035 1.758 1.036.056.033 1.755 1.038.056.032 1.814 1.07v-1.363l-1.814-1.067-.056-.036-1.755-1.035-.056-.034-1.758-1.036-.058-.033zM104 405.264v1.362l1.812 1.069.056.034 1.759 1.037.055.034 1.757 1.035.056.032 1.757 1.036.055.035 1.755 1.036.06.034 1.754 1.037.058.032 1.755 1.037.056.032 1.756 1.036.058.035 1.812 1.07v-1.362l-1.812-1.07-.058-.033-1.756-1.036-.056-.034-1.755-1.035-.058-.036-1.754-1.035-.06-.032-1.755-1.038-.055-.033-1.757-1.036-.056-.034-1.757-1.035-.055-.036-1.759-1.035-.056-.032zm20.308 11.769v1.362l1.812 1.067.058.036 1.812 1.07v-1.363l-1.812-1.07-.058-.033zm6.769 5.044v1.362l1.812 1.07.056.033 1.757 1.035.057.034 1.757 1.037.056.032 1.81 1.071v-1.363l-1.81-1.068-.056-.035-1.757-1.036-.057-.033-1.757-1.036-.056-.032zM104 410.308v1.362l1.812 1.069.056.034 1.759 1.035.055.034 1.757 1.036.056.033 1.812 1.07v-1.362l-1.812-1.068-.056-.035-1.757-1.036-.055-.034-1.759-1.035-.056-.034zm11.846 5.044v1.362l1.813 1.067.055.035 1.815 1.07v-1.362l-1.815-1.07-.055-.033zm6.769 5.044v1.361l1.813 1.07.057.033 1.757 1.036.056.034 1.756 1.037.056.032 1.757 1.036.056.033 1.814 1.071v-1.361l-1.814-1.071-.056-.032-1.757-1.036-.056-.035-1.756-1.036-.056-.034-1.757-1.035-.057-.032zM104 413.67v1.364l1.812 1.068.056.035 1.759 1.036.055.033 1.757 1.036.056.032 1.757 1.037.055.034 1.755 1.035.06.034 1.754 1.037.058.032 1.81 1.07v-1.36l-1.81-1.07-.058-.035-1.754-1.036-.06-.032-1.755-1.037-.055-.034-1.757-1.035-.056-.034-1.757-1.036-.055-.033-1.759-1.038-.056-.032zm16.923 10.088v1.362l1.813 1.07.055.033 1.757 1.036.058.033 1.754 1.038.058.032 1.81 1.07v-1.363l-1.81-1.067-.058-.036-1.754-1.035-.058-.034-1.757-1.036-.055-.032zm10.154 5.044v1.362l1.812 1.07.056.033 1.757 1.036.057.035 1.757 1.036.056.032 1.81 1.069v-1.362l-1.81-1.068-.056-.033-1.757-1.038-.057-.033-1.757-1.036-.056-.033zM104 417.033v1.362l1.812 1.067.056.036 1.759 1.035.055.034 1.757 1.037.056.032 1.812 1.07v-1.362l-1.812-1.068-.056-.035-1.757-1.036-.055-.033-1.759-1.036-.056-.034zm11.846 6.725v1.362l1.813 1.07.055.033 1.759 1.036.056.035 1.756 1.036.056.032 1.757 1.035.056.034 1.754 1.037.06.034 1.812 1.07v-1.363l-1.812-1.069-.06-.033-1.754-1.038-.056-.032-1.757-1.035-.056-.034-1.756-1.037-.056-.034-1.759-1.036-.055-.033zm13.539 8.407v1.362l1.812 1.069.056.034 1.758 1.035.056.036 1.755 1.035.058.032 1.756 1.036.056.034 1.755 1.037.057.034 1.815 1.069v-1.362l-1.815-1.07-.057-.033-1.755-1.037-.056-.032-1.756-1.036-.058-.034-1.755-1.037-.056-.034-1.758-1.035-.056-.034zM104 420.396v1.361l1.812 1.068.056.034 1.759 1.037.055.034 1.757 1.035.056.034 1.757 1.036.055.033 1.755 1.036.06.034 1.754 1.037.058.032 1.755 1.037.056.034 1.756 1.036.058.033 1.757 1.036.055.034 1.757 1.037.056.032 1.812 1.071v-1.362l-1.812-1.07-.056-.035-1.757-1.035-.055-.032-1.757-1.038-.058-.031-1.756-1.038-.056-.033-1.755-1.036-.058-.035-1.754-1.036-.06-.032-1.755-1.037-.055-.032-1.757-1.038-.056-.033-1.757-1.036-.055-.035-1.759-1.036-.056-.032zm23.692 15.131v1.362l1.813 1.07.056.033 1.758 1.036.056.035 1.756 1.036.056.032 1.757 1.036.056.035 1.755 1.036.059.033 1.756 1.036.056.034 1.755 1.037.056.032 1.816 1.07v-1.363l-1.816-1.067-.056-.034-1.755-1.037-.056-.034-1.756-1.036-.06-.032-1.754-1.039-.056-.032-1.757-1.035-.056-.034-1.756-1.037-.056-.034-1.758-1.036-.056-.032zM104 425.44v1.361l1.812 1.07.056.033 1.759 1.036.055.035 1.757 1.036.056.032 1.757 1.036.055.035 1.755 1.036.06.033 1.754 1.036.058.034 1.755 1.037.056.032 1.814 1.071v-1.362l-1.814-1.07-.056-.033-1.755-1.037-.058-.034-1.754-1.036-.06-.031-1.755-1.038-.055-.033-1.757-1.036-.056-.034-1.757-1.037-.055-.034-1.759-1.035-.056-.032zm18.615 10.087v1.362l1.811 1.07.058.033 1.756 1.036.058.035 1.755 1.036.056.032 1.812 1.07v-1.36l-1.812-1.07-.056-.034-1.755-1.036-.058-.035-1.756-1.036-.058-.032zm11.847 6.726v1.362l1.81 1.069.058.034 1.814 1.07v-1.361l-1.814-1.071-.058-.032zM104 428.802v1.362l1.812 1.068.056.035 1.759 1.036.055.033 1.757 1.036.056.034 1.757 1.035.055.034 1.755 1.036.06.035 1.754 1.036.058.032 1.81 1.07v-1.36l-1.81-1.07-.058-.034-1.754-1.038-.06-.032-1.755-1.037-.055-.032-1.757-1.036-.056-.035-1.757-1.036-.055-.033-1.759-1.038-.056-.031zm16.923 10.088v1.362l1.813 1.07.055.033 1.815 1.07v-1.36l-1.815-1.072-.055-.032zm6.769 3.363v1.362l1.813 1.069.056.034 1.814 1.07v-1.361l-1.814-1.071-.056-.032zm8.462 5.044v1.363l1.81 1.068.058.034 1.757 1.035.057.036 1.755 1.035.056.032 1.813 1.071v-1.362l-1.813-1.069-.056-.034-1.755-1.035-.057-.036-1.757-1.035-.057-.032zM104 432.165v1.362l1.812 1.069.056.034 1.759 1.035.055.036 1.757 1.035.056.032 1.812 1.071v-1.362l-1.812-1.069-.056-.034-1.757-1.035-.055-.036-1.759-1.035-.056-.032zm11.846 6.725v1.362l1.813 1.07.055.033 1.759 1.037.056.034 1.756 1.036.056.032 1.757 1.035.056.036 1.754 1.035.06.034 1.755 1.037.057.032 1.755 1.038.056.032 1.757 1.035.057.036 1.757 1.035.056.034 1.812 1.07v-1.361l-1.812-1.071-.056-.032-1.757-1.037-.057-.034-1.757-1.036-.056-.033-1.755-1.036-.057-.035-1.755-1.036-.06-.032-1.754-1.037-.056-.034-1.757-1.036-.056-.033-1.756-1.036-.056-.035-1.759-1.036-.055-.032zM104 435.527v1.362l1.812 1.068.056.035 1.759 1.036.055.034 1.757 1.035.056.034 1.812 1.07v-1.363l-1.812-1.067-.056-.036-1.757-1.035-.055-.034-1.759-1.036-.056-.033zm11.846 6.726v1.362l1.813 1.067.055.036 1.759 1.035.056.034 1.756 1.036.056.033 1.757 1.036.056.034 1.814 1.07v-1.361l-1.814-1.071-.056-.032-1.757-1.036-.056-.035-1.756-1.036-.056-.034-1.759-1.035-.055-.034zm11.846 8.407v1.361l1.813 1.07.056.033 1.758 1.038.056.033 1.812 1.068v-1.36l-1.812-1.07-.056-.035-1.758-1.036-.056-.032zm10.154 5.043v1.362l1.813 1.07.057.033 1.757 1.036.056.033 1.812 1.07v-1.36l-1.812-1.071-.056-.034-1.757-1.036-.057-.033zM104 440.571v1.362l1.812 1.07.056.033 1.759 1.038.055.033 1.757 1.036.056.032 1.757 1.036.055.035 1.755 1.036.06.033 1.812 1.07v-1.36l-1.812-1.072-.06-.032-1.755-1.037-.055-.034-1.757-1.035-.056-.034-1.757-1.036-.055-.035-1.759-1.036-.056-.032zm15.23 8.407v1.362l1.813 1.07.056.033 1.758 1.037.056.034 1.755 1.036.058.031 1.755 1.036.057.035 1.813 1.07v-1.362l-1.813-1.07-.057-.033-1.755-1.036-.058-.033-1.755-1.036-.056-.035-1.758-1.036-.056-.032zm11.847 6.725v1.362l1.812 1.07.056.033 1.814 1.07v-1.362l-1.814-1.07-.056-.032zM104 443.934v1.362l1.812 1.07.056.033 1.759 1.036.055.033 1.757 1.036.056.034 1.757 1.035.055.034 1.755 1.037.06.034 1.754 1.036.058.031 1.755 1.038.056.033 1.756 1.036.058.034 1.812 1.07v-1.361l-1.812-1.071-.058-.032-1.756-1.036-.056-.035-1.755-1.036-.058-.033-1.754-1.036-.06-.034-1.755-1.037-.055-.032-1.757-1.036-.056-.035-1.757-1.036-.055-.033-1.759-1.036-.056-.034zm20.308 11.769v1.362l1.812 1.07.058.033 1.812 1.071v-1.362l-1.812-1.07-.058-.033zm6.769 3.363v1.363l1.812 1.068.056.034 1.757 1.037.057.034 1.757 1.035.056.032 1.755 1.038.056.033 1.756 1.036.06.034 1.81 1.069v-1.36l-1.81-1.071-.06-.032-1.756-1.037-.056-.034-1.755-1.036-.056-.033-1.757-1.036-.057-.035-1.757-1.036-.056-.032zM104 447.297v1.363l1.812 1.068.056.035 1.759 1.036.055.034 1.757 1.035.056.032 1.812 1.071v-1.362l-1.812-1.069-.056-.034-1.757-1.035-.055-.034-1.759-1.037-.056-.032zm11.846 6.725v1.362l1.813 1.067.055.034 1.759 1.037.056.034 1.756 1.036.056.033 1.757 1.036.056.034 1.814 1.07v-1.363l-1.814-1.07-.056-.031-1.757-1.037-.056-.034-1.756-1.036-.056-.035-1.759-1.036-.055-.032zm11.846 6.725v1.362l1.813 1.07.056.033 1.758 1.036.056.033 1.756 1.038.056.032 1.813 1.07v-1.363l-1.813-1.067-.056-.036-1.756-1.035-.056-.034-1.758-1.036-.056-.032zM104 450.66v1.361l1.812 1.07.056.033 1.759 1.036.055.035 1.757 1.036.056.032 1.757 1.035.055.036 1.755 1.035.06.034 1.754 1.036.058.033 1.755 1.038.056.032 1.814 1.07v-1.363l-1.814-1.067-.056-.034-1.755-1.037-.058-.034-1.754-1.036-.06-.032-1.755-1.039-.055-.032-1.757-1.035-.056-.034-1.757-1.037-.055-.034-1.759-1.036-.056-.032zm18.615 11.769v1.361l1.811 1.07.058.033 1.756 1.036.058.035 1.755 1.036.056.032 1.756 1.036.056.035 1.757 1.036.057.033 1.757 1.036.056.034 1.756 1.037.056.032 1.755 1.036.06.035 1.756 1.036.056.033 1.81 1.07v-1.362l-1.81-1.07-.056-.032-1.757-1.037-.059-.034-1.755-1.035-.056-.034-1.756-1.037-.056-.034-1.757-1.036-.057-.031-1.757-1.038-.056-.033-1.756-1.036-.056-.034-1.755-1.037-.058-.034-1.756-1.035-.058-.032zM104 455.703v1.362l1.812 1.068.056.033 1.759 1.038.055.033 1.813 1.07v-1.362l-1.813-1.07-.055-.035-1.759-1.035-.056-.032zm10.154 5.044v1.362l1.812 1.07.056.033 1.758 1.036.056.035 1.757 1.036.056.032 1.756 1.035.056.036 1.814 1.069v-1.362l-1.814-1.07-.056-.033-1.756-1.035-.056-.034-1.757-1.037-.056-.034-1.758-1.036-.056-.032zM126 467.473v1.361l1.812 1.068.056.035 1.759 1.036.055.034 1.757 1.035.056.034 1.757 1.036.055.033 1.755 1.036.06.035 1.812 1.068v-1.36l-1.812-1.07-.06-.033-1.755-1.038-.055-.032-1.757-1.037-.056-.034-1.757-1.035-.055-.034-1.759-1.036-.056-.033zm-22-8.407v1.362l1.812 1.07.056.033 1.814 1.07v-1.363l-1.814-1.07-.056-.031zm8.462 5.044v1.362l1.812 1.07.058.033 1.756 1.035.056.036 1.757 1.035.055.032 1.757 1.036.056.035 1.757 1.036.057.034 1.757 1.035.056.034 1.812 1.07v-1.36l-1.812-1.07-.056-.036-1.757-1.035-.057-.032-1.757-1.038-.056-.033-1.757-1.036-.055-.033-1.757-1.036-.056-.035-1.756-1.036-.058-.032zm15.23 8.406v1.362l1.813 1.068.056.035 1.758 1.036.056.034 1.756 1.035.056.034 1.755 1.036.058.033 1.814 1.071v-1.362l-1.814-1.07-.058-.033-1.755-1.035-.056-.036-1.756-1.035-.056-.034-1.758-1.036-.056-.033zM104 462.429v1.361l1.812 1.068.056.035 1.759 1.036.055.034 1.757 1.035.056.034 1.757 1.036.055.033 1.755 1.036.06.035 1.754 1.036.058.032 1.755 1.037.056.034 1.756 1.036.058.033 1.812 1.071v-1.363l-1.812-1.07-.058-.032-1.756-1.035-.056-.036-1.755-1.035-.058-.034-1.754-1.037-.06-.032-1.755-1.038-.055-.031-1.757-1.036-.056-.035-1.757-1.036-.055-.034-1.759-1.037-.056-.032zm20.308 11.769v1.362l1.812 1.069.058.034 1.812 1.07v-1.363l-1.812-1.07-.058-.031zm6.769 5.044v1.362l1.812 1.069.056.034 1.757 1.035.057.036 1.757 1.035.056.032 1.81 1.071v-1.362l-1.81-1.069-.056-.034-1.757-1.035-.057-.036-1.757-1.035-.056-.032zM104 467.473v1.361l1.812 1.07.056.033 1.759 1.036.055.035 1.757 1.036.056.032 1.812 1.071v-1.362l-1.812-1.07-.056-.033-1.757-1.036-.055-.035-1.759-1.036-.056-.031zm11.846 5.043v1.362l1.813 1.07.055.033 1.815 1.071v-1.362l-1.815-1.07-.055-.033zm6.769 5.044v1.362l1.813 1.07.057.033 1.757 1.038.056.033 1.756 1.036.056.032 1.757 1.036.056.035 1.756 1.036.058.033 1.757 1.038.055.032 1.755 1.037.058.032 1.814 1.07v-1.361l-1.814-1.07-.058-.033-1.755-1.036-.055-.035-1.757-1.036-.058-.032-1.756-1.037-.056-.034-1.757-1.035-.056-.034-1.756-1.036-.056-.035-1.757-1.036-.057-.032zM104 470.835v1.362l1.812 1.068.056.035 1.814 1.07v-1.363l-1.814-1.069-.056-.034zm8.462 3.363v1.362l1.812 1.067.058.036 1.756 1.035.056.034 1.757 1.036.055.033 1.757 1.036.056.034 1.814 1.07v-1.361l-1.814-1.071-.056-.032-1.757-1.036-.055-.035-1.757-1.036-.056-.034-1.756-1.035-.058-.034zm11.846 8.406v1.364l1.812 1.068.056.033 1.758 1.036.056.035 1.757 1.036.056.032 1.812 1.07v-1.361l-1.812-1.07-.056-.033-1.757-1.036-.056-.035-1.758-1.036-.056-.032zM104 474.198v1.362l1.812 1.069.056.034 1.759 1.037.055.034 1.757 1.035.056.032 1.757 1.036.055.035 1.755 1.036.06.034 1.754 1.037.058.032 1.755 1.037.056.032 1.756 1.036.058.035 1.812 1.07v-1.362l-1.812-1.07-.058-.033-1.756-1.036-.056-.034-1.755-1.035-.058-.036-1.754-1.035-.06-.032-1.755-1.038-.055-.033-1.757-1.036-.056-.034-1.757-1.035-.055-.036-1.759-1.035-.056-.032zm20.308 11.769v1.362l1.812 1.068.058.035 1.756 1.036.056.033 1.813 1.07v-1.36l-1.813-1.072-.056-.033-1.756-1.036-.058-.034zm10.154 5.044v1.362l1.81 1.067.058.034 1.758 1.037.056.034 1.755 1.036.056.033 1.756 1.036.058.034 1.812 1.07v-1.363l-1.812-1.07-.058-.031-1.756-1.037-.056-.034-1.755-1.036-.056-.035-1.758-1.036-.058-.032zM104 477.56v1.362l1.812 1.07.056.033 1.759 1.036.055.035 1.813 1.068v-1.36l-1.813-1.071-.055-.034-1.759-1.036-.056-.033zm10.154 5.044v1.364l1.812 1.068.056.035 1.758 1.036.056.033 1.757 1.036.056.032 1.756 1.037.056.034 1.757 1.036.057.035 1.755 1.036.058.031 1.755 1.038.057.032 1.813 1.07v-1.361l-1.813-1.07-.057-.033-1.755-1.036-.058-.033-1.755-1.038-.057-.032-1.757-1.037-.056-.034-1.756-1.035-.056-.034-1.757-1.036-.056-.033-1.758-1.038-.056-.032zm-10.154 0v1.364l1.812 1.068.056.035 1.759 1.036.055.033 1.757 1.036.056.032 1.757 1.037.055.034 1.755 1.036.06.035 1.754 1.036.058.031 1.755 1.038.056.032 1.814 1.07v-1.361l-1.814-1.07-.056-.033-1.755-1.036-.058-.033-1.754-1.038-.06-.032-1.755-1.037-.055-.034-1.757-1.035-.056-.034-1.757-1.036-.055-.033-1.759-1.038-.056-.032zm18.615 10.088v1.362l1.811 1.068.058.033 1.756 1.038.058.033 1.755 1.036.056.034 1.756 1.035.056.034 1.814 1.07v-1.362l-1.814-1.07-.056-.032-1.756-1.037-.056-.034-1.755-1.035-.058-.036-1.756-1.035-.058-.032zm13.539 6.726v1.361l1.814 1.07.056.033 1.756 1.036.056.034 1.757 1.037.057.032 1.811 1.071v-1.364l-1.81-1.067-.058-.035-1.757-1.036-.056-.034-1.756-1.035-.056-.032zM104 485.967v1.362l1.812 1.07.056.033 1.759 1.036.055.035 1.757 1.036.056.031 1.812 1.071v-1.363l-1.812-1.068-.056-.033-1.757-1.036-.055-.035-1.759-1.036-.056-.032zm11.846 6.725v1.362l1.813 1.07.055.033 1.759 1.036.056.035 1.756 1.036.056.032 1.757 1.035.056.036 1.814 1.07v-1.363l-1.814-1.07-.056-.033-1.757-1.035-.056-.034-1.756-1.037-.056-.034-1.759-1.036-.055-.032zm11.846 6.726v1.361l1.813 1.068.056.035 1.758 1.036.056.034 1.756 1.035.056.034 1.813 1.07v-1.363l-1.813-1.069-.056-.033-1.756-1.036-.056-.034-1.758-1.035-.056-.034zM104 489.33v1.362l1.812 1.067.056.034 1.759 1.037.055.034 1.757 1.035.056.034 1.757 1.036.055.033 1.755 1.036.06.034 1.812 1.07v-1.361l-1.812-1.071-.06-.032-1.755-1.037-.055-.032-1.757-1.038-.056-.033-1.757-1.036-.055-.035-1.759-1.036-.056-.032zm15.23 8.406v1.362l1.813 1.068.056.035 1.814 1.07v-1.362l-1.814-1.07-.056-.033zm6.77 5.044v1.362l1.812 1.068.056.035 1.759 1.036.055.033 1.757 1.036.056.034 1.757 1.035.055.034 1.755 1.036.06.035 1.756 1.036.056.032 1.81 1.07v-1.361l-1.81-1.07-.056-.033-1.756-1.036-.06-.034-1.755-1.037-.055-.032-1.757-1.037-.056-.034-1.757-1.036-.055-.033-1.759-1.036-.056-.033zm33.846-94.154v1.354l1.6.903.052.027 1.55.874.05.028 1.55.875.05.028 1.552.875.049.028 1.603.903v-1.353l-1.603-.903-.05-.029-1.551-.872-.05-.029-1.55-.874-.05-.029-1.55-.874-.053-.029zm-10.154-6.725v1.352l1.601.903.051.027 1.552.876.049.028 1.55.874.05.03 1.551.873.05.029 1.602.903v-1.354l-1.601-.903-.051-.028-1.552-.874-.049-.029-1.55-.873-.05-.03-1.551-.872-.05-.029zm13.538 11.769v1.352l1.602.903.05.027 1.552.876.05.028 1.6.903v-1.353l-1.6-.901-.05-.029-1.552-.874-.05-.029zm-11.845-6.725v1.352l1.599.903.05.027 1.552.876.051.028 1.55.874.05.029 1.551.873.05.03 1.602.903v-1.354l-1.603-.903-.049-.028-1.552-.874-.049-.029-1.55-.874-.05-.029-1.552-.874-.051-.029zm6.769 8.407v1.353l1.6.903.052.027 1.55.876.05.028 1.55.875.051.028 1.55.875.05.028 1.551.873.051.028 1.601.903v-1.352l-1.6-.902-.052-.027-1.551-.876-.05-.029-1.55-.874-.05-.029-1.55-.874-.051-.029-1.55-.872-.051-.03zm1.692 3.362v1.352l1.6.903.052.027 1.55.876.05.028 1.55.875.05.028 1.552.875.049.028 1.603.903v-1.353l-1.603-.903-.05-.029-1.551-.874-.05-.029-1.55-.872-.05-.03-1.55-.873-.053-.03zm-8.461-3.362v1.353l1.599.903.05.027 1.552.874.051.029 1.6.903v-1.352l-1.6-.903-.05-.029-1.552-.874-.051-.028zm5.077 6.725v1.353l1.6.902.051.028 1.552.874.05.03 1.55.873.05.029 1.55.874.051.029 1.55.874.05.029 1.553.874.049.028 1.6.903v-1.353l-1.6-.903-.05-.027-1.551-.874-.05-.029-1.551-.874-.05-.03-1.55-.873-.052-.028-1.55-.875-.049-.028-1.552-.875-.05-.028zM148 415.352v1.351l1.6.903.052.027 1.552.876.049.029 1.551.874.05.029 1.599.902v-1.353l-1.6-.903-.049-.028-1.551-.873-.05-.03-1.551-.873-.051-.03zm15.23 13.45v1.352l1.602.903.05.027 1.552.876.05.028 1.6.903v-1.353l-1.6-.901-.05-.03-1.552-.873-.05-.03zm-6.768 0v1.352l1.6.903.051.027 1.552.876.05.028 1.55.875.05.028 1.55.873.051.03 1.55.873.05.03 1.553.873.049.028 1.6.903v-1.352l-1.6-.903-.05-.028-1.551-.875-.05-.026-1.551-.876-.05-.029-1.55-.874-.052-.029-1.55-.874-.049-.029-1.552-.874-.05-.029zm3.384 5.044v1.354l1.6.902.052.027 1.55.876.05.029 1.55.873.05.03 1.552.872.049.03 1.603.902v-1.352l-1.603-.903-.05-.028-1.551-.875-.05-.028-1.55-.875-.05-.028-1.55-.874-.053-.029zm-6.769 0v1.354l1.6.902.053.027 1.55.876.05.029 1.551.874.05.029 1.551.872.05.029 1.55.874.052.029 1.55.874.05.029 1.551.874.05.029 1.551.876.05.026 1.602.903v-1.351l-1.601-.905-.051-.027-1.552-.876-.049-.027-1.55-.876-.05-.027-1.551-.874-.052-.027-1.55-.876-.05-.028-1.552-.875-.049-.028-1.551-.875-.05-.028-1.55-.874-.052-.029zM148 430.484v1.351l1.6.903.052.027 1.6.905v-1.354l-1.6-.903-.051-.028zm13.538 11.769v1.352l1.601.902.053.027 1.55.876.05.029 1.55.874.05.029 1.6.903v-1.354l-1.6-.903-.05-.028-1.55-.875-.05-.028-1.55-.873-.053-.03zm-6.768-3.363v1.352l1.6.903.05.028 1.602.903v-1.352l-1.601-.902-.05-.029zm1.692 5.044v1.354l1.6.902.051.027 1.552.876.05.029 1.55.874.05.029 1.55.872.051.029 1.55.874.05.029 1.553.874.049.029 1.6.903v-1.354l-1.6-.903-.05-.027-1.551-.874-.05-.027-1.551-.876-.05-.028-1.55-.875-.052-.028-1.55-.875-.049-.028-1.552-.874-.05-.03zM148 438.89v1.354l1.6.9.052.03 1.552.874.049.028 1.551.874.05.03 1.599.902v-1.354l-1.6-.9-.049-.031-1.551-.873-.05-.028-1.551-.874-.051-.029zm13.538 11.77v1.353l1.601.903.053.027 1.55.874.05.028 1.55.875.05.028 1.6.903v-1.353l-1.6-.901-.05-.03-1.55-.873-.05-.029-1.55-.874-.053-.029zm-11.846-6.726v1.354l1.601.9.051.028 1.552.876.049.028 1.55.874.05.029 1.551.874.05.029 1.55.874.052.029 1.6.903v-1.354l-1.6-.903-.051-.027-1.55-.876-.051-.028-1.552-.874-.049-.029-1.55-.873-.05-.028-1.551-.874-.05-.03zm1.693 3.363v1.353l1.6.903.051.027 1.55.876.05.028 1.551.873.051.03 1.55.873.05.03 1.551.873.051.028 1.552.875.049.028 1.55.875.05.028 1.551.876.052.027 1.55.876.05.027 1.552.874.049.027 1.602.905v-1.352l-1.602-.903-.05-.029-1.551-.874-.05-.028-1.55-.876-.052-.027-1.55-.876-.05-.027-1.551-.875-.05-.028-1.551-.874-.05-.029-1.553-.874-.049-.029-1.55-.874-.05-.029-1.552-.874-.05-.029-1.55-.874-.05-.028zm3.385 6.725v1.353l1.6.903.05.027 1.553.874.049.03 1.552.873.049.03 1.55.873.05.029 1.55.874.053.029 1.55.874.05.029 1.551.874.05.028 1.602.903v-1.353l-1.603-.903-.049-.027-1.551-.876-.05-.027-1.55-.874-.052-.029-1.55-.874-.051-.03-1.55-.873-.05-.028-1.551-.875-.05-.028-1.551-.875-.05-.028zm1.692 5.044v1.353l1.6.903.051.027 1.552.874.05.03 1.55.873.05.029 1.55.874.051.029 1.55.874.05.029 1.553.874.049.029 1.6.902v-1.353l-1.6-.903-.05-.027-1.551-.874-.05-.029-1.551-.874-.05-.03-1.55-.873-.052-.028-1.55-.875-.049-.028-1.552-.875-.05-.028zm-5.077-3.363v1.354l1.6.903.051.027 1.6.904v-1.353l-1.6-.903-.05-.029zm10.153 10.088v1.352l1.601.903.053.028 1.55.875.05.028 1.55.875.05.028 1.6.903v-1.353l-1.6-.902-.05-.03-1.55-.872-.05-.03-1.55-.873-.053-.029zm0 3.363v1.353l1.601.901.053.03 1.55.873.05.03 1.55.873.05.029 1.6.903v-1.352l-1.6-.903-.05-.03-1.55-.873-.05-.028-1.55-.875-.053-.028zm-10.153-6.725v1.351l1.6.903.051.027 1.55.876.05.029 1.551.874.051.029 1.55.874.05.028 1.602.903v-1.353l-1.603-.903-.049-.029-1.55-.874-.05-.029-1.552-.872-.05-.03-1.55-.873-.05-.03zm6.769 8.406v1.352l1.6.903.052.027 1.55.876.05.028 1.55.875.051.028 1.55.873.05.03 1.551.873.051.03 1.601.901v-1.352l-1.6-.903-.052-.026-1.551-.876-.05-.029-1.55-.874-.05-.029-1.55-.874-.051-.029-1.55-.872-.051-.03zM148 464.11v1.353l1.6.903.052.027 1.552.876.049.029 1.551.872.05.03 1.55.873.049.03 1.604.902v-1.352l-1.604-.903-.05-.029-1.55-.874-.049-.029-1.551-.874-.05-.028-1.551-.875-.051-.028zm5.077 8.406v1.354l1.6.903.053.027 1.55.876.05.028 1.551.873.05.028 1.551.875.05.028 1.55.875.052.028 1.55.874.05.03 1.551.873.05.029 1.551.874.05.029 1.602.903v-1.352l-1.601-.905-.051-.027-1.552-.876-.049-.026-1.55-.876-.05-.027-1.551-.876-.052-.027-1.55-.874-.05-.029-1.552-.874-.049-.029-1.551-.874-.05-.029-1.55-.874-.052-.029zM148 469.154v1.353l1.6.903.052.027 1.6.905v-1.354l-1.6-.903-.051-.028zm13.538 11.769v1.352l1.601.903.053.027 1.55.876.05.028 1.55.874.05.029 1.6.903v-1.354l-1.6-.902-.05-.029-1.55-.874-.05-.029-1.55-.872-.053-.03zm-10.153-6.725v1.353l1.6.903.051.027 1.55.876.05.029 1.551.872.051.03 1.55.873.05.03 1.602.902v-1.352l-1.603-.903-.049-.029-1.55-.874-.05-.029-1.552-.874-.05-.028-1.55-.875-.05-.028zm3.385 6.725v1.354l1.6.902.05.027 1.553.876.049.029 1.552.874.049.029 1.55.874.05.029 1.55.872.053.029 1.55.874.05.029 1.551.874.05.029 1.602.902v-1.353l-1.603-.903-.049-.027-1.551-.874-.05-.027-1.55-.876-.052-.027-1.55-.876-.051-.028-1.55-.875-.05-.028-1.551-.875-.05-.028-1.551-.873-.05-.03zm8.46 8.407v1.353l1.602.901.05.027 1.552.876.05.029 1.6.903v-1.354l-1.6-.901-.05-.029-1.552-.874-.05-.028zm-11.845-6.726v1.352l1.599.903.05.027 1.552.876.051.028 1.55.875.05.028 1.551.873.05.03 1.602.903v-1.353l-1.603-.903-.049-.029-1.552-.874-.049-.029-1.55-.874-.05-.029-1.552-.874-.051-.028zm13.538 11.77v1.353l1.601.901.05.029 1.602.903v-1.352l-1.601-.903-.051-.029zm-13.538-8.407v1.353l1.6.903.051.027 1.55.875.05.028 1.551.874.051.029 1.55.874.05.029 1.551.874.051.029 1.552.874.049.029 1.6.902v-1.353l-1.6-.903-.05-.027-1.551-.876-.05-.027-1.553-.876-.049-.028-1.55-.873-.05-.028-1.552-.875-.05-.028-1.55-.875-.05-.028zm1.692 5.044v1.353l1.6.903.053.027 1.55.875.05.03 1.551.872.05.03 1.551.873.05.029 1.55.874.052.029 1.55.874.05.029 1.551.874.05.028 1.551.876.05.027 1.602.901v-1.35l-1.601-.904-.051-.027-1.552-.876-.049-.027-1.55-.876-.05-.027-1.551-.874-.052-.029-1.55-.874-.05-.03-1.552-.873-.049-.028-1.551-.875-.05-.028-1.55-.875-.052-.028zM148 487.648v1.354l1.6.903.052.027 1.6.904v-1.353l-1.6-.903-.051-.029zm13.538 11.77v1.351l1.601.903.053.027 1.55.876.05.029 1.55.874.05.029 1.6.902v-1.353l-1.6-.903-.05-.028-1.55-.873-.05-.03-1.55-.873-.053-.03zm-6.768-3.363v1.353l1.6.902.05.026 1.602.905v-1.352l-1.601-.903-.05-.028zm10.153 8.407v1.353l1.601.903.05.027 1.602.904v-1.353l-1.601-.903-.051-.029zm-11.846-5.044v1.353l1.6.903.053.027 1.55.874.05.03 1.551.873.05.029 1.551.874.05.028 1.602.903v-1.353l-1.603-.901-.049-.029-1.552-.874-.049-.029-1.551-.874-.05-.029-1.55-.874-.052-.029zm0 3.362v1.354l1.6.9.053.028 1.55.876.05.028 1.551.875.05.028 1.551.874.05.03 1.55.873.052.029 1.55.873.05.03 1.551.872.05.03 1.551.875.05.027 1.602.903v-1.35l-1.601-.905-.051-.029-1.552-.874-.049-.027-1.55-.876-.05-.027-1.551-.876-.052-.026-1.55-.876-.05-.029-1.552-.874-.049-.029-1.551-.872-.05-.029-1.55-.874-.052-.029zm10.153 8.407v1.353l1.602.901.05.029 1.552.874.05.03 1.6.902v-1.352l-1.6-.903-.05-.028-1.552-.875-.05-.028zM148 502.78v1.354l1.6.903.052.026 1.552.876.049.029 1.551.873.05.03 1.55.872.049.03 1.552.873.052.029 1.55.874.05.029 1.551.874.05.029 1.602.903v-1.354l-1.603-.903-.049-.027-1.552-.874-.049-.029-1.55-.874-.052-.028-1.552-.875-.05-.028-1.55-.875-.049-.028-1.551-.874-.05-.029-1.551-.874-.051-.029zm6.77 8.407v1.353l1.6.903.05.027 1.553.874.049.029 1.552.874.049.029 1.55.874.05.029 1.55.874.053.029 1.55.874.05.028 1.551.873.05.03 1.602.903v-1.353l-1.603-.903-.049-.027-1.551-.876-.05-.027-1.55-.876-.052-.027-1.55-.876-.051-.028-1.55-.873-.05-.029-1.551-.874-.05-.028-1.551-.875-.05-.028zm6.768 6.725v1.352l1.601.903.053.027 1.55.876.05.028 1.55.874.05.03 1.6.902v-1.354l-1.6-.902-.05-.029-1.55-.874-.05-.029-1.55-.872-.053-.029zm-10.153-5.044v1.354l1.6.902.051.027 1.55.876.05.029 1.551.873.051.03 1.55.872.05.03 1.602.902v-1.352l-1.603-.903-.049-.028-1.55-.875-.05-.028-1.552-.875-.05-.028-1.55-.874-.05-.029zm6.769 6.725v1.354l1.6.903.052.027 1.55.874.05.029 1.55.874.051.028 1.55.875.05.028 1.551.875.051.028 1.601.903v-1.353l-1.6-.903-.052-.027-1.551-.875-.05-.03-1.55-.872-.05-.029-1.55-.874-.051-.029-1.55-.874-.051-.029zm-6.769-3.363v1.354l1.599.903.05.027 1.603.905v-1.354l-1.602-.903-.051-.028z" fill="#28EBFF"/><path fill="#28EBFF" d="M176.671 444.081l-35.173 18.179L50 407.608l35.173-20.873z"/><g transform="translate(50 380)"><mask id="p" fill="#fff"><use xlink:href="#n"/></mask><path fill="url(#o)" mask="url(#p)" d="M0 20.871l91.498 54.65 35.173-18.177L35.173 0z"/></g><g transform="translate(50 406.941)"><mask id="s" fill="#fff"><use xlink:href="#q"/></mask><path d="M0 144.391a7.228 7.228 0 0 0 3.525 6.208l76.995 45.99 5.4 3.227a11.05 11.05 0 0 0 5.578 1.56V54.653L0 0v144.391z" fill="url(#r)" mask="url(#s)"/></g><g transform="translate(140.947 443.985)"><mask id="v" fill="#fff"><use xlink:href="#t"/></mask><path d="M0 18.179v146.725a11.024 11.024 0 0 0 5.62-1.49l26.175-13.126a6.36 6.36 0 0 0 3.378-5.617V0L0 18.179z" fill="url(#u)" mask="url(#v)"/></g><path d="M61.79 433.882v1.364l1.803 1.07.056.033 1.75 1.04.055.033 1.749 1.037.055.034 1.748 1.037.056.034 1.805 1.07v-1.363l-1.805-1.071-.056-.032-1.748-1.04-.055-.033-1.749-1.037-.055-.036-1.75-1.037-.056-.032zm13.473 6.736v1.364l1.804 1.07.056.034 1.75 1.037.055.036 1.748 1.037.056.032 1.746 1.037.058.036 1.805 1.07v-1.363l-1.805-1.073-.058-.032-1.746-1.037-.056-.034-1.748-1.039-.056-.034-1.75-1.037-.055-.032zm11.79 8.419v1.364l1.803 1.069.056.035 1.75 1.037.055.034 1.747 1.037.057.034 1.748 1.037.056.034 1.804 1.073v-1.366l-1.804-1.07-.056-.033-1.748-1.037-.057-.035-1.747-1.038-.055-.033-1.75-1.04-.056-.031zM61.79 437.25v1.364l1.803 1.07.056.034 1.75 1.038.055.035 1.804 1.07v-1.363l-1.804-1.072-.055-.034-1.75-1.037-.056-.034zm8.42 5.051v1.366l1.804 1.07.056.035 1.75 1.037.055.034 1.749 1.037.055.032 1.748 1.039.056.033 1.805 1.073v-1.366l-1.805-1.07-.056-.034-1.748-1.037-.055-.034-1.749-1.037-.055-.034-1.75-1.039-.056-.032zm13.474 8.419v1.364l1.804 1.071.056.034 1.75 1.037.055.036 1.748 1.037.056.032 1.748 1.037.056.035 1.746 1.038.06.033 1.747 1.038.056.033 1.802 1.071v-1.362l-1.802-1.073-.056-.033-1.748-1.037-.059-.032-1.746-1.04-.056-.033-1.748-1.037-.056-.034-1.748-1.039-.056-.034-1.75-1.037-.055-.032zM61.79 440.618v1.364l1.803 1.069.056.035 1.75 1.037.055.034 1.749 1.037.055.034 1.748 1.037.056.034 1.746 1.037.06.035 1.803 1.07v-1.363l-1.804-1.072-.059-.032-1.746-1.039-.056-.032-1.748-1.037-.055-.036-1.749-1.037-.055-.034-1.75-1.038-.056-.032zm15.157 8.419v1.364l1.804 1.069.056.035 1.75 1.037.055.034 1.747 1.037.057.034 1.747 1.037.057.034 1.746 1.037.058.036 1.748 1.037.055.032 1.749 1.039.055.033 1.748 1.038.058.033 1.748 1.038.055.035 1.804 1.07v-1.363l-1.804-1.073-.055-.032-1.748-1.039-.058-.032-1.748-1.037-.055-.035-1.749-1.037-.055-.034-1.748-1.039-.058-.032-1.746-1.039-.057-.032-1.747-1.037-.057-.035-1.747-1.038-.055-.033-1.75-1.04-.056-.031zm-15.157-5.052v1.364l1.803 1.071.056.034 1.75 1.037.055.035 1.749 1.038.055.032 1.748 1.037.056.035 1.805 1.071v-1.364l-1.805-1.07-.056-.034-1.748-1.038-.055-.033-1.749-1.038-.055-.035-1.75-1.037-.056-.032zm13.473 8.419v1.364l1.804 1.071.056.034 1.75 1.037.055.034 1.804 1.07v-1.361l-1.804-1.073-.056-.034-1.75-1.037-.055-.034zm8.421 5.052v1.365l1.804 1.07.056.033 1.75 1.038.055.035 1.748 1.037.056.032 1.804 1.073v-1.364l-1.804-1.071-.056-.034-1.748-1.037-.056-.035-1.75-1.038-.055-.032zm-21.894-8.419v1.364l1.803 1.069.056.035 1.75 1.037.055.034 1.749 1.037.055.034 1.748 1.037.056.034 1.746 1.037.06.036 1.746 1.037.057.032 1.802 1.072v-1.363l-1.802-1.071-.057-.034-1.747-1.037-.059-.034-1.746-1.039-.056-.032-1.748-1.037-.055-.035-1.749-1.038-.055-.033-1.75-1.038-.056-.033zm16.842 8.419v1.364l1.803 1.07.056.034 1.748 1.038.057.035 1.747 1.037.057.032 1.802 1.073v-1.364l-1.802-1.071-.057-.034-1.747-1.037-.057-.035-1.748-1.038-.056-.032zm10.105 6.735v1.366l1.804 1.069.055.034 1.748 1.037.058.035 1.748 1.037.055.032 1.747 1.04.056.033 1.807 1.071v-1.364l-1.807-1.07-.056-.034-1.747-1.038-.055-.033-1.748-1.038-.058-.035-1.748-1.037-.055-.032zM61.79 452.404v1.364l1.803 1.071.056.034 1.75 1.039.055.033 1.804 1.07v-1.362l-1.804-1.071-.055-.036-1.75-1.037-.056-.032zm8.42 5.052v1.364l1.804 1.07.056.034 1.75 1.038.055.033 1.749 1.038.055.033 1.748 1.037.056.034 1.748 1.039.057.034 1.747 1.037.057.032 1.747 1.039.057.034 1.747 1.037.057.033 1.804 1.073v-1.364L84.7 466.06l-.057-.032-1.747-1.038-.057-.035-1.747-1.037-.057-.034-1.747-1.037-.057-.034-1.748-1.039-.056-.032-1.748-1.037-.055-.035-1.749-1.038-.055-.033-1.75-1.038-.056-.033zm20.211 11.787v1.364l1.802 1.069.057.033 1.806 1.073v-1.364l-1.806-1.072-.057-.032zM61.79 455.772v1.364l1.803 1.07.056.035 1.75 1.037.055.033 1.749 1.038.055.033 1.748 1.038.056.033 1.746 1.04.06.033 1.746 1.037.057.032 1.802 1.073v-1.363l-1.802-1.072-.057-.034-1.747-1.037-.059-.034-1.746-1.039-.056-.032-1.748-1.037-.055-.035-1.749-1.037-.055-.034-1.75-1.037-.056-.034zm16.842 10.103v1.366l1.803 1.069.056.033 1.748 1.038.057.035 1.747 1.037.057.032 1.747 1.04.055.033 1.749 1.037.057.034 1.804 1.07v-1.361l-1.804-1.073-.057-.032-1.749-1.039-.055-.034-1.747-1.037-.057-.034-1.747-1.037-.057-.035-1.748-1.037-.056-.032zm-16.842-5.051v1.365l1.803 1.07.056.033 1.75 1.039.055.034 1.749 1.037.055.032 1.748 1.039.056.033 1.805 1.071v-1.364l-1.805-1.07-.056-.034-1.748-1.037-.055-.034L65.454 463l-.055-.036-1.75-1.037-.056-.032zm13.473 6.735v1.364l1.804 1.07.056.034 1.75 1.038.055.035 1.748 1.037.056.032 1.746 1.037.058.034 1.746 1.039.06.034 1.746 1.037.055.034 1.804 1.07v-1.362l-1.804-1.072-.055-.034-1.747-1.037-.059-.034-1.746-1.039-.058-.032-1.746-1.037-.056-.034-1.748-1.039-.056-.033-1.75-1.038-.055-.033zm15.158 10.103v1.365l1.802 1.07.057.035 1.75 1.037.056.034 1.746 1.037.056.032 1.805 1.073v-1.364l-1.805-1.071-.056-.034-1.746-1.037-.056-.034-1.75-1.039-.057-.032zM61.79 464.191v1.364l1.803 1.071.056.034 1.75 1.037.055.034 1.749 1.038.055.032 1.748 1.038.056.035 1.746 1.037.06.034 1.746 1.037.057.032 1.747 1.04.055.033 1.748 1.037.058.035 1.804 1.071v-1.364l-1.804-1.072-.058-.032-1.748-1.037-.055-.036-1.747-1.037-.057-.034-1.747-1.037-.059-.032-1.746-1.04-.056-.032-1.748-1.038-.055-.035-1.749-1.037-.055-.034-1.75-1.037-.056-.032zM82 475.978v1.364l1.804 1.07.057.034 1.804 1.071v-1.364l-1.804-1.072-.057-.032zm6.737 3.368v1.363l1.804 1.07.055.035 1.748 1.037.058.034 1.748 1.037.055.034 1.803 1.07v-1.363l-1.803-1.07-.055-.035-1.748-1.037-.058-.034-1.748-1.039-.055-.031zM61.79 467.559v1.364l1.803 1.069.056.034 1.75 1.039.055.033 1.749 1.037.055.034 1.804 1.071v-1.364l-1.804-1.07-.055-.034-1.749-1.038-.055-.035-1.75-1.037-.056-.032zm11.789 6.735v1.364l1.804 1.07.055.035 1.806 1.07v-1.363l-1.806-1.073-.055-.032zm6.737 3.368v1.364l1.804 1.069.057.035 1.748 1.037.056.034 1.748 1.037.055.034 1.749 1.037.055.034 1.806 1.073v-1.366l-1.806-1.07-.055-.033-1.749-1.037-.055-.035-1.748-1.038-.056-.033-1.748-1.04-.057-.031zm-18.526-6.736v1.364l1.803 1.071.056.034 1.75 1.037.055.036 1.749 1.037.055.032 1.748 1.037.056.035 1.746 1.038.06.033 1.746 1.038.057.033 1.802 1.071v-1.362l-1.802-1.073-.057-.033-1.747-1.038-.059-.032-1.746-1.039-.056-.033-1.748-1.037-.055-.034-1.749-1.039-.055-.034-1.75-1.037-.056-.032zm16.842 10.104v1.363l1.803 1.07.056.035 1.748 1.037.057.034 1.747 1.037.057.034 1.802 1.07v-1.363l-1.802-1.07-.057-.035-1.747-1.037-.057-.034-1.748-1.037-.056-.034zm10.105 6.735v1.364l1.804 1.069.055.035 1.748 1.037.058.034 1.748 1.037.055.034 1.803 1.07v-1.363l-1.803-1.07-.055-.035-1.748-1.037-.058-.033-1.748-1.038-.055-.033zM61.79 475.978v1.364l1.803 1.07.056.034 1.75 1.038.055.033 1.749 1.038.055.033 1.804 1.071v-1.364l-1.804-1.069-.055-.035-1.749-1.038-.055-.033-1.75-1.04-.056-.031zm11.789 5.052v1.363l1.804 1.07.055.035 1.75 1.037.056.034 1.748 1.037.056.034 1.748 1.037.055.034 1.747 1.037.059.035 1.804 1.07v-1.363l-1.804-1.07-.06-.034-1.746-1.04-.055-.031-1.748-1.04-.056-.033-1.748-1.037-.056-.034-1.75-1.037-.055-.034zm13.474 8.419v1.363l1.803 1.07.056.035 1.75 1.037.055.034 1.747 1.037.057.034 1.748 1.037.056.034 1.747 1.037.057.035 1.805 1.07v-1.363l-1.805-1.07-.057-.034-1.747-1.04-.056-.031-1.748-1.037-.057-.036-1.747-1.037-.055-.034-1.75-1.037-.056-.034zM61.79 479.346v1.363l1.803 1.071.056.034 1.75 1.037.055.036 1.749 1.037.055.032 1.748 1.037.056.035 1.746 1.038.06.033 1.746 1.038.057.033 1.747 1.04.055.031 1.748 1.037.058.036 1.748 1.037.056.034 1.748 1.037.055.034 1.804 1.07v-1.362l-1.804-1.07-.055-.036-1.748-1.037-.056-.032-1.748-1.04-.058-.033-1.748-1.037-.055-.034-1.747-1.037-.057-.035-1.747-1.037-.059-.032-1.746-1.04-.056-.033-1.748-1.037-.055-.034-1.749-1.037-.055-.036-1.75-1.037-.056-.032zm23.578 13.47v1.364l1.804 1.07.056.035 1.75 1.037.055.034 1.748 1.037.056.033 1.748 1.038.056.033 1.746 1.038.06.035 1.748 1.037.055.032 1.747 1.04.055.033 1.807 1.07v-1.363l-1.807-1.07-.055-.035-1.747-1.037-.055-.034-1.749-1.037-.059-.034-1.746-1.038-.056-.032-1.748-1.038-.056-.035-1.748-1.037-.055-.034-1.75-1.037-.056-.034zM61.79 482.713v1.364l1.803 1.07.056.035 1.75 1.037.055.034 1.749 1.039.055.032 1.748 1.037.056.033 1.746 1.038.06.035 1.746 1.037.057.032 1.747 1.04.055.033 1.806 1.07v-1.363l-1.806-1.07-.055-.035-1.747-1.037-.057-.034-1.747-1.037-.059-.034-1.746-1.038-.056-.032-1.748-1.038-.055-.035-1.749-1.037-.055-.034-1.75-1.037-.056-.034zm18.526 10.103v1.364l1.802 1.071.057.034 1.748 1.037.058.034 1.746 1.037.056.033 1.804 1.071v-1.363l-1.804-1.07-.056-.035-1.746-1.037-.058-.034-1.748-1.037-.057-.034zm10.105 6.735v1.364l1.802 1.071.057.034 1.806 1.07v-1.363l-1.806-1.07-.057-.033zM61.79 486.08v1.365l1.803 1.07.056.034 1.75 1.04.055.033 1.749 1.037.055.032 1.748 1.037.056.036 1.746 1.037.06.034 1.746 1.039.057.032 1.802 1.07v-1.362l-1.802-1.07-.057-.036-1.747-1.037-.059-.032-1.746-1.04-.056-.033-1.748-1.037-.055-.034-1.749-1.037-.055-.035-1.75-1.038-.056-.032zm16.842 10.104v1.364l1.803 1.07.056.034 1.805 1.071v-1.364l-1.805-1.07-.056-.034zm6.736 5.051v1.364l1.804 1.071.056.034 1.805 1.072v-1.365l-1.805-1.071-.056-.034zm6.737 3.368v1.364l1.802 1.07.058.034 1.748 1.038.057.035 1.747 1.037.055.032 1.804 1.071v-1.364l-1.804-1.069-.055-.034-1.747-1.039-.057-.033-1.748-1.037-.058-.034zM61.79 491.132v1.364l1.803 1.071.056.034 1.75 1.037.055.035 1.749 1.038.055.032 1.804 1.07v-1.363l-1.804-1.07-.055-.033-1.749-1.04-.055-.033-1.75-1.037-.056-.034zm11.789 5.052v1.364l1.804 1.07.055.034 1.75 1.038.056.033 1.748 1.04.056.031 1.748 1.037.055.036 1.747 1.037.059.034 1.746 1.037.058.032 1.746 1.04.056.032 1.748 1.038.057.035 1.748 1.037.056.034 1.804 1.07v-1.363l-1.804-1.07-.056-.033-1.748-1.04-.057-.033-1.748-1.037-.056-.035-1.746-1.037-.058-.034-1.746-1.037-.06-.032-1.746-1.04-.055-.033-1.748-1.037-.056-.035-1.748-1.038-.056-.033-1.75-1.038-.055-.032zM61.79 494.5v1.366l1.803 1.069.056.035 1.75 1.037.055.034 1.749 1.037.055.032 1.804 1.073v-1.364l-1.804-1.07-.055-.035-1.749-1.037-.055-.033-1.75-1.04-.056-.031zm11.789 6.735v1.364l1.804 1.07.055.033 1.75 1.039.056.034 1.748 1.037.056.034 1.748 1.037.055.034 1.806 1.07v-1.363l-1.806-1.071-.055-.032-1.748-1.04-.056-.033-1.748-1.037-.056-.036-1.75-1.037-.055-.032zm11.789 6.735v1.364l1.804 1.071.056.034 1.75 1.037.055.034 1.804 1.07v-1.361l-1.804-1.073-.055-.034-1.75-1.037-.056-.032zm8.422 5.052v1.364l1.803 1.07.058.035 1.748 1.037.055.033 1.804 1.071v-1.364l-1.804-1.07-.055-.034-1.748-1.037-.058-.034zm-32-15.154v1.364l1.803 1.07.056.034 1.75 1.037.055.036 1.749 1.037.055.032 1.748 1.037.056.036 1.746 1.037.06.033 1.803 1.07v-1.363l-1.804-1.07-.059-.032-1.746-1.041-.056-.032-1.748-1.037-.055-.036-1.749-1.037-.055-.034-1.75-1.037-.056-.032zm15.157 8.419v1.364l1.804 1.07.056.034 1.75 1.037.055.036 1.747 1.037.057.032 1.747 1.037.057.036 1.804 1.07v-1.363l-1.804-1.073-.057-.032-1.747-1.037-.057-.034-1.747-1.037-.055-.035-1.75-1.038-.056-.032zm11.79 8.419v1.364l1.804 1.069.055.035 1.806 1.071v-1.364l-1.806-1.072-.055-.032zM61.79 501.235v1.364l1.803 1.07.056.033 1.75 1.039.055.034 1.749 1.037.055.034 1.748 1.037.056.034 1.746 1.037.06.033 1.746 1.04.057.031 1.747 1.04.055.033 1.748 1.037.058.034 1.804 1.07v-1.363l-1.804-1.071-.058-.032-1.748-1.039-.055-.034-1.747-1.037-.057-.035-1.747-1.037-.059-.032-1.746-1.04-.056-.031-1.748-1.04-.055-.033-1.749-1.037-.055-.036-1.75-1.037-.056-.032zM82 513.022v1.364l1.804 1.07.057.035 1.804 1.072v-1.365l-1.804-1.071-.057-.032zm6.737 5.052v1.363l1.804 1.071.055.034 1.748 1.037.058.036 1.748 1.037.055.032 1.747 1.037.056.035 1.748 1.038.059.033 1.802 1.071v-1.362l-1.802-1.073-.06-.032-1.747-1.04-.056-.032-1.747-1.037-.055-.034-1.748-1.037-.058-.036-1.748-1.037-.055-.032zM61.79 506.287v1.364l1.803 1.07.056.034 1.75 1.037.055.036 1.749 1.037.055.032 1.804 1.073v-1.364l-1.804-1.071-.055-.034-1.749-1.039-.055-.033-1.75-1.038-.056-.032zm11.789 5.051v1.364l1.804 1.071.055.034 1.75 1.037.056.035 1.748 1.038.056.032 1.748 1.037.055.035 1.806 1.071v-1.364l-1.806-1.07-.055-.034-1.748-1.038-.056-.033-1.748-1.038-.056-.035-1.75-1.037-.055-.032zm11.789 8.419v1.364l1.804 1.07.056.035 1.75 1.037.055.034 1.748 1.037.056.034 1.804 1.07v-1.363l-1.804-1.07-.056-.035-1.748-1.037-.055-.034-1.75-1.037-.056-.034zM61.79 509.654v1.364l1.803 1.07.056.035 1.75 1.037.055.034 1.749 1.037.055.034 1.748 1.037.056.034 1.746 1.037.06.035 1.746 1.037.057.032 1.747 1.04.055.033 1.806 1.071v-1.364l-1.806-1.07-.055-.035-1.747-1.037-.057-.033-1.747-1.038-.059-.033-1.746-1.04-.056-.031-1.748-1.037-.055-.036-1.749-1.037-.055-.034-1.75-1.037-.056-.034zm18.526 10.103v1.364l1.802 1.07.057.035 1.748 1.037.058.034 1.746 1.039.056.032 1.748 1.037.056.034 1.748 1.037.057.035 1.748 1.037.056.032 1.748 1.041.056.032 1.746 1.037.06.034 1.747 1.037.056.036 1.802 1.069v-1.362l-1.802-1.071-.056-.034-1.748-1.039-.059-.032L93 527.291l-.056-.036-1.748-1.037-.056-.033-1.748-1.038-.057-.033-1.748-1.04-.056-.031-1.748-1.038-.056-.035-1.746-1.037-.058-.034-1.748-1.037-.057-.034zm-18.526-6.735v1.364l1.803 1.07.056.035 1.75 1.037.055.035 1.804 1.07v-1.363l-1.804-1.07-.055-.036-1.75-1.037-.056-.032zm8.42 5.052v1.363l1.804 1.07.056.035 1.75 1.037.055.034 1.749 1.039.055.032 1.748 1.037.056.034 1.805 1.072v-1.364l-1.805-1.072-.056-.032-1.748-1.037-.055-.036-1.749-1.037-.055-.034-1.75-1.037-.056-.034zm13.474 8.419v1.365l1.804 1.07.056.033 1.75 1.037.055.036 1.748 1.037.056.032 1.748 1.039.056.034 1.746 1.037.06.033 1.803 1.071v-1.362l-1.804-1.072-.059-.032-1.746-1.04-.056-.033-1.748-1.037-.056-.034-1.748-1.037-.056-.036-1.75-1.037-.055-.032zM61.79 516.39v1.364l1.803 1.069.056.035 1.805 1.071v-1.364l-1.805-1.07-.056-.034zm6.736 5.051v1.364l1.804 1.071.057.034 1.749 1.037.055.034 1.748 1.038.056.032 1.748 1.038.056.033 1.748 1.04.057.033 1.748 1.037.056.032 1.804 1.073v-1.362l-1.804-1.073-.056-.034-1.748-1.037-.057-.034-1.748-1.038-.056-.032-1.748-1.038-.056-.035-1.748-1.037-.055-.034-1.749-1.037-.057-.032zm16.842 10.103v1.364l1.804 1.07.056.033 1.75 1.039.055.034 1.748 1.037.056.033 1.747 1.038.057.033 1.805 1.071v-1.364l-1.805-1.07-.057-.033-1.747-1.038-.056-.034-1.748-1.037-.055-.036-1.75-1.037-.056-.032zM61.79 521.441v1.364l1.803 1.071.056.034 1.75 1.039.055.033 1.749 1.037.055.032 1.748 1.038.056.035 1.746 1.037.06.034 1.746 1.039.057.032 1.747 1.039.055.032 1.748 1.037.058.035 1.804 1.071v-1.364l-1.804-1.07-.058-.034-1.748-1.037-.055-.034-1.747-1.037-.057-.036-1.747-1.037-.059-.032-1.746-1.039-.056-.033-1.748-1.038-.055-.033-1.749-1.038-.055-.035-1.75-1.037-.056-.032zM82 533.228v1.364l1.804 1.07.057.034 1.804 1.071v-1.364l-1.804-1.07-.057-.034zm6.737 3.368v1.363l1.804 1.071.055.034 1.748 1.037.058.034 1.748 1.039.055.032 1.803 1.072v-1.365l-1.803-1.07-.055-.035-1.748-1.037-.058-.034-1.748-1.037-.055-.032zM61.79 524.809v1.364l1.803 1.07.056.034 1.75 1.038.055.035 1.749 1.037.055.032 1.804 1.071v-1.364l-1.804-1.07-.055-.033-1.749-1.039-.055-.033-1.75-1.038-.056-.033zm11.789 6.735v1.364l1.804 1.07.055.035 1.806 1.07v-1.363l-1.806-1.071-.055-.032zm6.737 3.368v1.364l1.804 1.07.057.034 1.748 1.037.056.036 1.748 1.037.055.032 1.749 1.037.055.036 1.748 1.037.058.034 1.748 1.037.055.033 1.747 1.04.057.031 1.806 1.073v-1.366L93 542.445l-.057-.033-1.747-1.038-.055-.035-1.748-1.037-.058-.032-1.748-1.04-.055-.033-1.749-1.037-.055-.034-1.748-1.037-.056-.035-1.748-1.038-.057-.032zm-18.526-6.736v1.366l1.803 1.07.056.035 1.805 1.07v-1.363l-1.805-1.073-.056-.032zm6.736 5.052v1.366l1.804 1.069.057.035 1.749 1.037.055.034 1.748 1.037.056.032 1.748 1.04.056.033 1.805 1.072v-1.365l-1.805-1.071-.056-.034-1.748-1.037-.056-.034-1.748-1.037-.055-.034-1.749-1.038-.057-.032zM82 539.963v1.364l1.804 1.071.055.034 1.75 1.037.056.035 1.748 1.038.056.032 1.803 1.07v-1.363l-1.803-1.07-.056-.033-1.748-1.04-.056-.033-1.75-1.037-.055-.032zm-20.21-8.419v1.364l1.803 1.07.056.035 1.75 1.037.055.035 1.749 1.037.055.032 1.748 1.038.056.035 1.746 1.037.06.034 1.746 1.037.057.032 1.747 1.04.055.033 1.748 1.037.058.035 1.804 1.071v-1.364l-1.804-1.072-.058-.032-1.748-1.037-.055-.036-1.747-1.037-.057-.034-1.747-1.037-.059-.032-1.746-1.04-.056-.033-1.748-1.037-.055-.033-1.749-1.04-.055-.033-1.75-1.037-.056-.032zM82 543.33v1.365l1.804 1.069.057.035 1.748 1.038.056.033 1.804 1.071v-1.362l-1.804-1.073-.056-.033-1.748-1.04-.057-.031zm8.421 6.736v1.364l1.802 1.071.057.034 1.75 1.037.056.035 1.746 1.037.056.032 1.748 1.038.057.035 1.804 1.071v-1.364l-1.804-1.073-.057-.031-1.748-1.038-.056-.033-1.746-1.038-.056-.035-1.75-1.037-.057-.032zm-28.631-13.47v1.363l1.803 1.07.056.035 1.75 1.037.055.034 1.804 1.07v-1.363l-1.804-1.07-.055-.035-1.75-1.037-.056-.033zm8.42 5.051v1.364l1.804 1.07.056.035 1.75 1.037.055.035 1.749 1.037.055.032 1.748 1.038.056.035 1.748 1.037.057.034 1.747 1.037.057.034 1.747 1.039.057.032 1.804 1.072v-1.364l-1.804-1.07-.057-.034-1.747-1.037-.057-.036-1.747-1.037-.057-.032-1.748-1.039-.056-.034-1.748-1.037-.055-.034-1.749-1.037-.055-.035-1.75-1.037-.056-.032zm-8.42-1.684v1.364l1.803 1.071.056.034 1.75 1.037.055.035 1.749 1.038.055.032 1.748 1.037.056.035 1.746 1.037.06.034 1.746 1.037.057.034 1.747 1.039.055.032 1.806 1.072v-1.363l-1.806-1.071-.055-.034-1.747-1.039-.057-.034-1.747-1.037-.059-.032-1.746-1.039-.056-.033-1.748-1.038-.055-.033-1.749-1.04-.055-.033-1.75-1.037-.056-.032zm18.526 10.103v1.364l1.802 1.071.057.034 1.748 1.037.058.035 1.746 1.037.056.032 1.748 1.038.056.035 1.805 1.071v-1.364l-1.805-1.07-.056-.034-1.748-1.038-.056-.033-1.746-1.038-.058-.035-1.748-1.037-.057-.032zm11.789 8.419v1.364l1.806 1.07.055.035 1.749 1.037.055.034 1.748 1.037.058.034 1.802 1.07v-1.363l-1.802-1.07-.058-.035-1.748-1.037-.055-.034-1.749-1.037-.055-.034zM61.79 543.33v1.365l1.803 1.069.056.035 1.75 1.038.055.033 1.749 1.038.055.033 1.804 1.071v-1.364l-1.804-1.069-.055-.035-1.749-1.038-.055-.033-1.75-1.038-.056-.033zm11.789 6.736v1.364l1.804 1.07.055.035 1.75 1.037.056.034 1.748 1.038.056.032 1.748 1.038.055.033 1.806 1.073v-1.364l-1.806-1.073-.055-.031-1.748-1.038-.056-.035-1.748-1.037-.056-.034-1.75-1.037-.055-.034zm11.789 8.419v1.366l1.804 1.07.056.033 1.75 1.037.055.035 1.748 1.038.056.032 1.804 1.072v-1.364l-1.804-1.07-.056-.034-1.748-1.038-.055-.035-1.75-1.037-.056-.032zM61.79 548.382v1.364l1.803 1.071.056.034 1.75 1.037.055.035 1.749 1.038.055.032 1.748 1.037.056.035 1.746 1.037.06.034 1.803 1.071v-1.362l-1.804-1.073-.059-.032-1.746-1.039-.056-.033-1.748-1.038-.055-.033-1.749-1.037-.055-.036-1.75-1.037-.056-.032zm15.157 8.419v1.366l1.804 1.07.056.033 1.805 1.073v-1.364l-1.805-1.073-.056-.032zm6.737 3.369v1.365l1.804 1.069.056.034 1.75 1.037.055.035 1.748 1.037.056.032 1.748 1.04.056.033 1.746 1.037.06.034 1.747 1.037.056.034 1.802 1.07v-1.361l-1.802-1.071-.056-.036-1.748-1.037-.059-.032-1.746-1.039-.056-.034-1.748-1.037-.056-.033-1.748-1.038-.056-.035-1.75-1.037-.055-.032zm33.684-94.295v1.354l1.592.904.052.027 1.543.877.05.029 1.543.875.05.03 1.543.875.05.028 1.594.904v-1.355l-1.595-.904-.049-.029-1.544-.875-.049-.029-1.543-.874-.05-.03-1.543-.874-.052-.03zm-11.789-6.735v1.355l1.593.904.05.027 1.545.878.049.028 1.543.876.049.028 1.544.874.05.03 1.594.903v-1.354l-1.593-.904-.051-.028-1.544-.876-.05-.029-1.542-.875-.049-.029-1.544-.874-.05-.03zm15.158 11.786v1.356l1.593.904.05.027 1.545.877.049.029 1.593.904v-1.355l-1.593-.904-.049-.03-1.544-.873-.05-.03zm-11.79-5.051v1.355l1.592.905.05.027 1.545.877.05.029 1.543.873.049.03 1.544.875.05.028 1.594.904v-1.353l-1.595-.905-.049-.028-1.544-.876-.049-.028-1.543-.876-.05-.029-1.545-.875-.05-.029zm6.737 6.735v1.356l1.593.904.051.027 1.543.877.05.029 1.543.874.05.03 1.543.874.05.029 1.544.875.05.029 1.593.904v-1.354l-1.593-.904-.05-.029-1.545-.875-.049-.029-1.542-.875-.051-.03-1.543-.875-.05-.028-1.543-.876-.05-.028zm1.684 5.052v1.355l1.592.904.052.027 1.543.878.05.028 1.543.874.05.03 1.543.874.05.03 1.594.903v-1.354l-1.595-.904-.049-.028-1.544-.876-.049-.029-1.543-.875-.05-.029-1.543-.875-.052-.029zm-8.421-5.052v1.354l1.592.904.05.027 1.545.878.05.028 1.592.904v-1.355l-1.592-.903-.05-.03-1.545-.874-.05-.028zm5.053 6.736v1.353l1.593.905.05.027 1.545.877.05.028 1.542.876.05.029 1.543.875.05.029 1.543.875.05.03 1.545.873.05.03 1.592.905v-1.356l-1.593-.904-.049-.027-1.544-.877-.05-.027-1.543-.878-.05-.028-1.544-.876-.05-.028-1.543-.874-.049-.029-1.544-.876-.05-.028zm-10.105-5.052v1.356l1.593.904.05.027 1.545.877.049.029 1.544.874.05.03 1.59.904v-1.355l-1.59-.905-.05-.028-1.544-.876-.05-.028-1.543-.876-.051-.029zm16.842 11.786v1.356l1.593.905.05.027 1.545.877.049.028 1.593.905v-1.356l-1.593-.904-.049-.029-1.544-.875-.05-.029zm-6.737 0v1.356l1.593.905.05.027 1.545.877.05.028 1.542.874.05.029 1.543.876.05.028 1.543.876.05.028 1.545.876.05.029 1.592.904v-1.356l-1.593-.904-.049-.027-1.544-.877-.05-.027-1.543-.876-.05-.028-1.544-.876-.05-.028-1.543-.876-.049-.029-1.544-.875-.05-.029zm3.368 6.736v1.356l1.592.904.052.027 1.543.875.05.03 1.543.875.05.028 1.543.876.05.028 1.594.905v-1.356l-1.595-.902-.049-.03-1.544-.875-.049-.028-1.543-.876-.05-.028-1.543-.876-.052-.029zm-6.736 0v1.356l1.593.902.052.029 1.543.875.049.03 1.544.875.049.028 1.544.876.05.028 1.542.876.052.029 1.543.875.05.029 1.543.875.049.03 1.544.875.05.027 1.594.904v-1.352l-1.593-.906-.05-.027-1.545-.877-.049-.027-1.543-.878-.05-.027-1.543-.877-.052-.027-1.543-.875-.049-.03-1.544-.875-.049-.03-1.544-.874-.05-.028-1.542-.876-.052-.029zm-6.737-3.367v1.355l1.593.904.05.027 1.594.906v-1.355l-1.593-.905-.051-.028zm15.158 11.786v1.356l1.593.904.052.027 1.543.877.049.029 1.544.875.049.029 1.593.903v-1.354l-1.593-.904-.049-.03-1.544-.875-.05-.028-1.542-.876-.052-.028zm-6.737-3.367v1.353l1.593.905.05.027 1.594.905v-1.355l-1.593-.904-.05-.029zm1.684 3.367v1.356l1.593.902.05.029 1.545.876.05.03 1.542.874.05.028 1.543.876.05.029 1.543.875.05.029 1.545.875.05.029 1.592.904v-1.355l-1.593-.904-.049-.027-1.544-.878-.05-.027-1.543-.875-.05-.03-1.544-.874-.05-.03-1.543-.875-.049-.028-1.544-.876-.05-.028zm-10.105-5.051v1.354l1.593.904.05.027 1.545.877.049.029 1.544.875.05.029 1.59.904v-1.355l-1.59-.905-.05-.028-1.544-.874-.05-.03-1.543-.874-.051-.03zm15.158 11.786v1.354l1.593.905.052.027 1.543.877.049.028 1.544.876.049.029 1.593.904v-1.356l-1.593-.904-.049-.028-1.544-.874-.05-.03-1.542-.875-.052-.03zm-13.474-6.735v1.354l1.593.904.05.027 1.545.878.049.028 1.543.876.049.028 1.544.876.05.029 1.543.873.05.03 1.594.903v-1.353l-1.593-.905-.05-.027-1.543-.877-.051-.029-1.544-.875-.05-.029-1.542-.875-.049-.029-1.544-.874-.05-.03zm1.684 5.052v1.355l1.593.904.05.027 1.544.876.05.03 1.543.874.05.029 1.543.875.05.029 1.543.876.051.028 1.544.876.05.028 1.542.876.05.029 1.543.875.052.029 1.543.875.05.027 1.543.878.05.027 1.594.906v-1.354l-1.595-.904-.049-.03-1.544-.875-.049-.028-1.543-.878-.052-.027-1.542-.877-.051-.027-1.543-.877-.049-.027-1.544-.877-.05-.027-1.545-.876-.049-.03-1.543-.874-.05-.029-1.543-.875-.05-.029-1.543-.875-.05-.029zm5.053 6.735v1.356l1.593.902.05.027 1.545.877.049.029 1.544.875.05.03 1.542.875.05.028 1.543.876.052.029 1.543.873.049.03 1.544.875.05.03 1.594.903v-1.354l-1.595-.905-.049-.026-1.544-.878-.049-.027-1.543-.877-.052-.027-1.543-.877-.05-.029-1.543-.875-.049-.029-1.544-.874-.049-.029-1.544-.875-.05-.029zM114 516.39v1.355l1.593.903.05.027 1.545.877.05.029 1.542.875.05.029 1.543.875.05.029 1.543.876.05.028 1.545.874.05.03 1.592.905v-1.356l-1.593-.904-.049-.027-1.544-.877-.05-.027-1.543-.877-.05-.03-1.544-.875-.05-.028-1.543-.874-.049-.029-1.544-.875-.05-.03zm-6.737-3.368v1.356l1.593.902.05.029 1.593.906v-1.356l-1.592-.904-.05-.029zm11.79 10.103v1.354l1.593.904.052.027 1.543.877.049.029 1.544.875.049.03 1.593.903v-1.355l-1.593-.904-.049-.029-1.544-.876-.05-.028-1.542-.874-.052-.03zm0 5.051v1.354l1.593.904.052.027 1.543.878.049.028 1.544.876.049.029 1.593.904v-1.356l-1.593-.904-.049-.029-1.544-.875-.05-.029-1.542-.874-.052-.028zm-11.79-6.735v1.356l1.593.904.05.027 1.544.877.049.029 1.544.874.05.03 1.543.874.05.03 1.594.903v-1.354l-1.595-.904-.049-.029-1.543-.876-.05-.028-1.544-.876-.05-.028-1.542-.876-.05-.029zm8.421 8.419v1.356l1.593.904.051.027 1.543.877.05.029 1.543.874.05.03 1.543.874.05.029 1.544.875.05.029 1.593.904v-1.355l-1.593-.903-.05-.027-1.545-.877-.049-.029-1.542-.875-.051-.03-1.543-.875-.05-.028-1.543-.876-.05-.028zm-11.789-6.735v1.355l1.593.905.05.027 1.545.875.049.029 1.544.875.05.03 1.542.875.049.028 1.596.904v-1.355l-1.596-.904-.05-.029-1.542-.874-.049-.028-1.544-.876-.05-.029-1.543-.875-.051-.029zm6.737 6.735v1.354l1.593.904.052.029 1.543.876.049.028 1.544.876.049.028 1.544.876.05.029 1.542.875.052.029 1.543.875.05.029 1.543.874.049.029 1.544.877.05.027 1.594.904v-1.352l-1.593-.906-.05-.027-1.545-.877-.049-.027-1.543-.877-.05-.027-1.543-.878-.052-.027-1.543-.877-.049-.029-1.544-.873-.049-.03-1.544-.875-.05-.03-1.542-.874-.052-.028zm-6.737-3.367v1.355l1.593.904.05.027 1.594.906v-1.355l-1.593-.905-.051-.028zm15.158 11.787v1.355l1.593.904.052.027 1.543.877.049.029 1.544.876.049.028 1.593.903v-1.354l-1.593-.904-.049-.029-1.544-.876-.05-.028-1.542-.876-.052-.028zm-11.79-5.052v1.355l1.593.905.05.027 1.544.875.049.029 1.544.875.05.029 1.543.876.05.028 1.594.904v-1.355l-1.595-.904-.049-.029-1.543-.874-.05-.028-1.544-.876-.05-.029-1.542-.875-.05-.029zm5.053 5.052v1.355l1.593.904.05.027 1.545.876.049.03 1.544.874.05.03 1.542.874.05.029 1.543.875.052.029 1.543.875.049.03 1.544.875.05.028 1.594.905v-1.356l-1.595-.904-.049-.027-1.544-.877-.049-.027-1.543-.876-.052-.029-1.543-.875-.05-.029-1.543-.875-.049-.029-1.544-.876-.049-.028-1.544-.876-.05-.028zm8.421 8.419v1.355l1.593.904.05.027 1.545.877.049.03 1.593.903v-1.355l-1.593-.904-.049-.029-1.544-.874-.05-.03zm-11.79-5.052v1.356l1.592.904.05.027 1.545.877.05.029 1.543.873.049.03 1.544.875.05.028 1.594.905v-1.354l-1.595-.904-.049-.03-1.544-.875-.049-.028-1.543-.876-.05-.029-1.545-.875-.05-.029zm13.474 10.103v1.354l1.593.904.05.027 1.594.906v-1.354l-1.593-.904-.05-.03zm-15.158-8.42v1.355l1.593.904.05.027 1.544.877.049.029 1.544.875.05.029 1.543.876.05.028 1.543.876.051.028 1.544.874.05.029 1.593.904v-1.354l-1.594-.904-.049-.027-1.544-.877-.05-.027-1.545-.877-.049-.029-1.543-.876-.05-.028-1.544-.874-.05-.03-1.542-.874-.05-.03zm3.369 6.736v1.356l1.593.902.052.027 1.543.877.049.029 1.544.876.049.028 1.544.876.05.028 1.542.876.052.029 1.543.874.05.03 1.543.874.049.03 1.544.876.05.027 1.594.904v-1.352l-1.593-.906-.05-.027-1.545-.877-.049-.027-1.543-.878-.05-.027-1.543-.877-.052-.027-1.543-.877-.049-.029-1.544-.874-.049-.03-1.544-.874-.05-.028-1.542-.876-.052-.029zm-6.737-5.051v1.355l1.593.904.05.027 1.594.906v-1.355l-1.593-.904-.051-.03zm15.158 13.47v1.356l1.593.904.052.027 1.543.877.049.029 1.544.874.049.03 1.593.904v-1.355l-1.593-.904-.049-.03-1.544-.875-.05-.028-1.542-.876-.052-.028zm-6.737-5.051v1.355l1.593.905.05.026 1.594.906v-1.355l-1.593-.903-.05-.03zm10.105 10.103v1.355l1.593.904.05.027 1.594.906v-1.355l-1.593-.904-.05-.029zm-11.789-6.736v1.354l1.593.904.052.03 1.543.875.049.028 1.544.876.049.029 1.544.875.05.029 1.594.904v-1.356l-1.595-.904-.049-.028-1.544-.874-.049-.03-1.544-.874-.05-.03-1.542-.875-.052-.028zm0 3.369v1.355l1.593.904.052.027 1.543.877.049.029 1.544.875.049.029 1.544.875.05.03 1.542.873.052.029 1.543.875.05.029 1.543.875.049.029 1.544.877.05.027 1.594.904v-1.353l-1.593-.906-.05-.027-1.545-.877-.049-.027-1.543-.876-.05-.027-1.543-.877-.052-.027-1.543-.877-.049-.029-1.544-.876-.049-.028-1.544-.876-.05-.028-1.542-.874-.052-.03zm10.105 10.102v1.354l1.593.904.05.027 1.545.877.049.029 1.593.904v-1.355l-1.593-.903-.049-.029-1.544-.875-.05-.029zm-16.842-10.102v1.355l1.593.904.05.027 1.545.875.049.029 1.544.876.05.028 1.542.876.049.028 1.544.876.052.029 1.543.875.049.029 1.544.874.05.03 1.594.904v-1.355l-1.595-.904-.049-.027-1.544-.878-.049-.027-1.543-.877-.052-.027-1.544-.877-.05-.029-1.542-.874-.049-.028-1.544-.876-.05-.028-1.543-.876-.051-.029zm8.421 8.418v1.354l1.593.904.05.027 1.545.877.049.03 1.544.875.05.028 1.542.876.05.029 1.543.875.052.029 1.543.874.049.028 1.544.876.05.028 1.594.905v-1.354l-1.595-.904-.049-.027-1.544-.878-.049-.026-1.543-.878-.052-.027-1.543-.877-.05-.029-1.543-.875-.049-.029-1.544-.874-.049-.03-1.544-.874-.05-.029zm6.737 8.419v1.356l1.593.904.052.027 1.543.877.049.029 1.544.875.049.03 1.593.902v-1.354l-1.593-.904-.049-.029-1.544-.876-.05-.028-1.542-.876-.052-.028zm-11.79-6.735v1.356l1.593.904.05.027 1.544.875.049.029 1.544.875.05.03 1.543.875.05.028 1.594.905v-1.356l-1.595-.902-.049-.03-1.543-.875-.05-.028-1.544-.876-.05-.029-1.542-.875-.05-.029zm8.421 8.419v1.354l1.593.904.051.027 1.543.877.05.029 1.543.876.05.028 1.543.876.05.028 1.544.876.05.029 1.593.904v-1.356l-1.593-.904-.05-.027-1.545-.877-.049-.029-1.542-.874-.051-.03-1.543-.874-.05-.03-1.543-.874-.05-.029zm-6.737-3.367v1.355l1.592.904.05.027 1.595.904v-1.353l-1.595-.905-.05-.028z" fill="#28EBFF"/></g></svg>