<svg width="104" height="145" xmlns="http://www.w3.org/2000/svg" xmlns:xlink="http://www.w3.org/1999/xlink"><defs><path d="M42.22 43.258l-2.759 1.362v-2.45c0-2.218 2.013-5.158 4.306-6.29.576-.284 1.128-.431 1.573-.431.265 0 .492.052.665.158.453.279.52.972.52 1.361 0 2.219-2.01 5.158-4.304 6.29zm-19.986 9.866c-.92.454-1.777.558-2.239.273-.453-.278-.52-.972-.52-1.36 0-2.219 2.012-5.158 4.305-6.29.576-.285 1.128-.432 1.573-.432.265 0 .493.052.665.158.453.279.52.973.52 1.361V51l-4.304 2.125zm25.601-20.451c-1.52-.936-3.568-.894-5.614.116-3.496 1.726-6.234 5.846-6.234 9.381v4.165l-5.974 2.949v-2.45c0-1.882-.789-3.447-2.165-4.295-1.52-.935-3.567-.893-5.614.116C18.738 44.381 16 48.502 16 52.037c0 1.882.789 3.447 2.165 4.294.73.45 1.58.674 2.494.673.99 0 2.056-.263 3.12-.788l2.76-1.362V81l3.474-1.75V53.139l5.974-2.949v26.033l3.474-1.756V48.475l4.306-2.125C47.263 44.624 50 40.503 50 36.968c0-1.883-.789-3.448-2.165-4.295z" id="b"/><filter x="-39.7%" y="-27.6%" width="173.5%" height="151%" filterUnits="objectBoundingBox" id="a"><feMorphology radius=".5" in="SourceAlpha" result="shadowSpreadOuter1"/><feOffset dx="-1" dy="-1" in="shadowSpreadOuter1" result="shadowOffsetOuter1"/><feGaussianBlur stdDeviation="4.5" in="shadowOffsetOuter1" result="shadowBlurOuter1"/><feColorMatrix values="0 0 0 0 0.156862745 0 0 0 0 0.921568627 0 0 0 0 1 0 0 0 1 0" in="shadowBlurOuter1"/></filter></defs><g fill="none" fill-rule="evenodd"><path d="M99.739 119.288l-45.58 22.655a13.704 13.704 0 0 1-13.284-.435l-37.163-22.24c-3.048-1.823-2.922-6.28.225-7.928l47.407-24.863a7.633 7.633 0 0 1 7.46.212L100 111.339c3.063 1.835 2.916 6.32-.261 7.949z" stroke="#25C8F1" stroke-width="3"/><path d="M77.412 33.347l.135-.743c0-.253.09-.506.128-.743v-.157c0-.14.038-.29.053-.43.052-.372.097-.744.135-1.108l.045-.513c0-.357.053-.706.075-1.056v-.468c0-.49.038-.989 0-1.487 0-7.284-2.617-12.814-7.288-15.61L65.626 8c4.67 2.787 7.258 8.318 7.288 15.61v1.947c0 .35-.045.744-.075 1.056 0 .178 0 .35-.053.52 0 .364-.075.743-.128 1.1 0 .141 0 .29-.052.439-.045.297-.106.602-.15.9l-.136.787c-.06.297-.128.602-.196.9-.067.297-.105.527-.165.787-.128.513-.256 1.034-.399 1.554 0 .111-.067.223-.097.334-.113.387-.234.744-.354 1.16-.21.684-.444 1.36-.692 2.052-.33.906-.647 1.806-.955 2.713l-.24.706c-.272.825-.542 1.643-.798 2.46-.018.071-.04.14-.068.208v.052a83.538 83.538 0 0 0-.992 3.382c-.046.157-.09.313-.128.469a106.063 106.063 0 0 0-.835 3.233c0 .097-.053.193-.075.298l-.09.4c-.106.425-.196.848-.294 1.265-.068.297-.128.587-.196.884l-.27 1.3c-.053.276-.113.551-.166.826-.09.483-.18.959-.263 1.442 0 .223-.083.446-.12.662-.12.743-.233 1.397-.339 2.096-.105.743-.203 1.486-.293 2.185 0 .23-.053.461-.083.691-.06.513-.12 1.019-.165 1.532 0 .252-.053.505-.075.743-.046.513-.09 1.01-.128 1.487l-.045.669c-.046.743-.083 1.427-.113 2.126L34 83.975 39.054 87l29.708-14.948c0-.743.068-1.412.113-2.126l.045-.669c.038-.505.083-1.011.128-1.487 0-.252.045-.513.075-.743.046-.505.106-1.018.166-1.531 0-.23.053-.461.083-.692.09-.743.188-1.449.293-2.177v-.045c.105-.691.218-1.39.338-2.089 0-.223.083-.446.12-.669.083-.475.174-.951.264-1.434.053-.275.113-.55.165-.825l.271-1.309c.068-.29.128-.587.196-.877.098-.424.188-.847.293-1.263.053-.238.113-.469.166-.744.263-1.07.534-2.148.834-3.233 0-.149.083-.305.128-.461.306-1.12.637-2.25.993-3.39 0-.081.053-.163.075-.245.256-.825.527-1.65.805-2.475.075-.23.15-.468.233-.699.309-.907.624-1.814.955-2.72a44.78 44.78 0 0 0 .692-2.045c0-.074.053-.148.075-.215.098-.32.189-.632.279-.952 0-.111.067-.223.098-.334.127-.483.255-.966.368-1.442v-.104c.06-.268.113-.528.166-.788.052-.26.173-.617.233-.922z" fill="#00C7F3" fill-rule="nonzero"/><path d="M73.843 5.12C79.705 8.457 82.955 15.285 83 24.358a47.859 47.859 0 0 1-3.094 16.506c-4.06 11.162-6.174 22.146-6.13 31.743v3.07L33.656 96v-3.078c-.045-9.767-2.226-18.455-6.3-25.188-2.308-3.78-3.465-8.777-3.347-14.454.364-17.546 12.741-37.935 28.198-46.425.393-.214.786-.428 1.18-.627 7.642-3.876 14.877-4.282 20.457-1.108zm1.158 35.434a38.77 38.77 0 0 0 2.515-13.435c0-7.382-2.678-12.94-7.42-15.657-4.541-2.584-10.433-2.215-16.696.922l-.994.502c-12.548 6.91-22.625 23.512-22.914 37.789-.09 4.628.838 8.696 2.708 11.774 4.052 6.644 6.397 15.148 6.85 24.663L68.344 72.26c.37-9.782 2.649-20.67 6.678-31.699L75 40.554zM66 96.18L41 109v-6.5L66 90zM61 110v5.687L48.03 122l-.03-6.1z" fill="#00EBFF" fill-rule="nonzero"/><path d="M27.313 67.698c-2.3-3.782-3.46-8.782-3.341-14.462 0-.502 0-1.011.067-1.514v-.48c0-.354.03-.709.089-1.063 0-.177 0-.355.052-.54l.134-1.07.067-.48c0-.215.067-.429.104-.643.067-.428.134-.857.216-1.285.045-.229.09-.465.141-.694.082-.407.172-.813.26-1.219.06-.251.112-.502.18-.739.066-.236.133-.56.208-.834.074-.273.156-.576.23-.857l.246-.827.268-.901c.074-.214.141-.436.216-.657.074-.222.215-.636.327-.96.112-.326.149-.429.23-.643.083-.214.142-.399.217-.591.305-.805.617-1.61.96-2.408v-.074c.334-.738.684-1.55 1.049-2.319.082-.17.163-.347.253-.517.357-.738.744-1.477 1.123-2.216l.142-.258a65.61 65.61 0 0 1 1.13-1.994l.284-.473c.431-.738.878-1.433 1.34-2.142l.245-.369c.461-.694.93-1.374 1.414-2.046l.178-.251a88.74 88.74 0 0 1 1.712-2.216l.394-.495c.186-.221.365-.443.55-.657l.603-.738.566-.643.58-.635c.29-.325.596-.643.893-.953l.47-.495c.379-.384.743-.738 1.153-1.13l.253-.25c.126-.126.26-.245.394-.363l.863-.79.499-.436.744-.672.543-.443.744-.606.58-.436c.254-.199.514-.391.745-.576.23-.184.32-.229.483-.34.164-.11.559-.39.834-.575l.484-.325.907-.57.425-.265c.446-.266.885-.524 1.34-.739.453-.214.788-.428 1.182-.627.395-.2.804-.392 1.198-.57l.61-.272.745-.333.602-.236.745-.28.602-.215.744-.236.596-.177.632-.163.893-.214.596-.118.885-.155.603-.082c.193 0 .387-.044.58-.066l.7-.06h2.902c.38 0 .744.075 1.123.126.358.06.745.126 1.072.2l.313.066.744.207.32.089c.32.103.64.206.952.325h.067a20.818 20.818 0 0 1 2.165 1.019l.328.192-4.74-3.006h-.06a2.497 2.497 0 0 0-.268-.155 15.758 15.758 0 0 0-1.22-.62l-.104-.06a11.833 11.833 0 0 0-.841-.347H66.7c-.253-.088-.506-.184-.744-.266l-.208-.125-.32-.082c-.258-.073-.519-.14-.782-.199L64.341.31l-.164-.037a16.85 16.85 0 0 0-.915-.155c-.342-.052-.67-.088-.99-.118H59.2c-.23 0-.461 0-.7.06l-.58.058h-.23l-.365.06-.893.147-.595.126c-.298.059-.596.132-.893.206l-.365.089-.268.081c-.2.052-.402.111-.595.177-.194.067-.506.148-.744.237l-.61.207-.745.28-.61.244-.744.325-.618.273-.26.118c-.313.148-.625.296-.938.458-.312.163-.788.407-1.183.628-.394.222-.9.502-1.34.739l-.423.258-.908.576-.484.318-.84.576-.507.377-.268.192-.476.384-.573.435c-.26.2-.513.407-.744.613-.23.207-.365.289-.543.444l-.79.672-.49.428-.878.805-.38.347-.067.067-.223.221c-.387.37-.744.739-1.146 1.13l-.469.488-.9.953c-.067.08-.149.162-.223.243-.075.082-.231.266-.35.4l-.566.642-.603.738c-.186.214-.364.436-.55.658-.067.096-.149.177-.223.273l-.172.221a88.74 88.74 0 0 0-1.711 2.216l-.052.06-.127.184a66.587 66.587 0 0 0-1.414 2.046l-.163.243c-.03.043-.058.088-.082.133-.461.739-.908 1.419-1.34 2.135l-.119.192c-.06.096-.111.192-.163.288-.387.657-.744 1.322-1.131 1.994 0 .067-.075.126-.105.192l-.074.03c-.387.738-.744 1.477-1.124 2.215-.044.082-.089.163-.126.244l-.127.28a30.937 30.937 0 0 0-1.049 2.313v.059a59.75 59.75 0 0 0-.96 2.4c0 .096-.074.192-.111.288l-.112.31-.223.643c-.112.317-.224.635-.328.96l-.216.657c0 .133-.089.266-.126.407-.037.14-.097.325-.141.487l-.268.85a37.09 37.09 0 0 0-.231.863c-.074.289-.141.547-.208.828 0 .11-.067.229-.09.347-.022.118-.06.266-.089.406-.097.399-.179.805-.26 1.211-.052.237-.097.466-.142.739-.082.42-.149.85-.216 1.278 0 .155-.06.302-.081.458v.184c0 .163-.045.325-.067.488-.052.354-.09.738-.134 1.07 0 .178 0 .355-.052.532-.038.362-.067.739-.09 1.071v.473c0 .51-.06 1.012-.067 1.477-.119 5.68 1.042 10.68 3.341 14.469 4.041 6.713 6.221 15.429 6.274 25.2v3.095L33.638 96v-3.08c-.052-9.793-2.24-18.509-6.325-25.222zm8.717 38.137L41.143 109l-.164-6.454L66 90l-4.98-4L36 99.381zM55.868 107L43 113.15l.03 5.943L48.162 122l-.03-5.943L61 109.907z" fill="#00C7F3" fill-rule="nonzero"/><g transform="translate(19)"><use fill="#000" filter="url(#a)" xlink:href="#b"/><use fill="#28EBFF" xlink:href="#b"/></g></g></svg>