<svg xmlns="http://www.w3.org/2000/svg" viewBox="0 0 1440 417"><linearGradient id="a" gradientUnits="userSpaceOnUse" x1="37.871" y1="591.822" x2="37.078" y2="591.822" gradientTransform="matrix(1817 0 0 -506 -67371 299792)"><stop offset="0" stop-color="#28ebff" stop-opacity="0"/><stop offset=".095" stop-color="#28ebff"/><stop offset=".91" stop-color="#28ebff"/><stop offset="1" stop-color="#28ebff" stop-opacity="0"/></linearGradient><path fill="none" stroke="url(#a)" stroke-width="3" d="M-179 102.1L346.6 415 686 242.5l141 83.6L1638-91"/><path d="M841.9 237.3l2.7-1.4h.1l2.7-1.4v-.1l2.7-1.4h.1l2.8-1.5v-2.6l-2.8 1.4-.1.1-2.7 1.4-2.7 1.4-.1.1-2.7 1.4h-.1l-2.8 1.5v2.6l2.8-1.4zm19.5-10.1l2.7-1.4h.1l2.7-1.4.1-.1 2.7-1.4h.1l2.8-1.5v-2.6l-2.8 1.4-.1.1-2.7 1.4h-.1l-2.7 1.4-.1.1-2.7 1.4h-.1l-2.8 1.5v2.6l2.8-1.4zm19.6-10.1l2.7-1.4h.1l2.7-1.4v-.1l2.7-1.4h.1l2.8-1.5v-2.6l-2.8 1.4-.1.1-2.7 1.4-2.7 1.4-.1.1-2.7 1.4h-.1l-2.8 1.5v2.6l2.8-1.4zm22.3-14.2l-.1.1-2.7 1.4h-.1l-2.8 1.5v2.6l2.8-1.4.1-.1 2.7-1.4h.1l2.8-1.5v-2.6zm-61.4 41.8l2.7-1.4h.1l2.7-1.4v-.1l2.7-1.4h.1l2.8-1.5v-2.6l-2.8 1.4-.1.1-2.7 1.4-2.7 1.4-.1.1-2.7 1.4h-.1l-2.8 1.4v2.7l2.8-1.5zm19.5-10.1l2.7-1.4.1-.1 2.7-1.3.1-.1 2.7-1.4h.1l2.7-1.4.1-.1 2.7-1.4h.1l2.7-1.4.1-.1 2.7-1.4 2.7-1.4h.1l2.7-1.4.1-.1 2.7-1.4h.1l2.8-1.5v-2.6l-2.8 1.4-.1.1-2.7 1.4h-.1l-2.7 1.4-.1.1-2.7 1.4-2.7 1.4h-.1l-2.7 1.4-.1.1-2.7 1.4h-.1l-2.7 1.4-.1.1-2.7 1.4h-.1l-2.7 1.4-.1.1-2.7 1.3-.1.1-2.8 1.4v2.7l2.8-1.5zm-19.5 17.5l2.7-1.4.1-.1 2.7-1.4 2.7-1.4.1-.1 2.7-1.4h.1l2.7-1.4h.1l2.7-1.4.1-.1 2.7-1.4h.1l2.7-1.4.1-.1 2.8-1.4v-2.6l-2.8 1.4h-.1l-2.7 1.4-.1.1-2.7 1.4h-.1l-2.7 1.4-.1.1-2.7 1.4h-.1l-2.7 1.4h-.1l-2.7 1.4v.1l-2.7 1.4h-.1l-2.7 1.4-.1.1-2.8 1.4v2.7l2.8-1.5zm36.2-18.7l.1-.1 2.7-1.4 2.7-1.4.1-.1 2.8-1.4v-2.7l-2.8 1.5h-.1l-2.7 1.4v.1l-2.7 1.4h-.1l-2.7 1.4-.1.1-2.8 1.4v2.6l2.8-1.4h.1zm13.9-7.3l2.8-1.4h.1l2.7-1.4.1-.1 2.8-1.4v-2.7l-2.8 1.5h-.1l-2.7 1.4-.1.1-2.8 1.4zm-50.1 33.3l2.7-1.4h.1l2.7-1.4 2.8-1.5v-2.6l-2.8 1.4v.1l-2.7 1.4h-.1l-2.7 1.4h-.1l-2.8 1.5v2.6l2.8-1.4zm30.6-18.4l-2.7 1.4h-.1l-2.7 1.4-.1.1-2.7 1.4h-.1l-2.7 1.4h-.1l-2.7 1.4-.1.1-2.8 1.4v2.7l2.8-1.5h.1l2.7-1.4.1-.1 2.7-1.4h.1l2.7-1.4h.1l2.7-1.4.1-.1 2.7-1.4h.1l2.8-1.5v-2.6l-2.8 1.4zm14-4.6l2.7-1.4.1-.1 2.8-1.4v-2.7l-2.8 1.5h-.1l-2.7 1.4v.1l-2.7 1.4h-.1l-2.8 1.4v2.7l2.8-1.5h.1l2.7-1.4zm16.7-11.3l-2.7 1.4h-.1l-2.8 1.5v2.6l2.8-1.4.1-.1 2.7-1.4h.1l2.8-1.4v-2.7l-2.8 1.5zm-61.3 41.7l2.7-1.4h.1l2.7-1.4v-.1l2.7-1.4h.1l2.8-1.4v-2.7l-2.8 1.5h-.1l-2.7 1.4-2.7 1.4-.1.1-2.7 1.4h-.1l-2.8 1.5v2.6l2.8-1.4zm39-22.8l-2.7 1.4-.1.1-2.7 1.4h-.1l-2.7 1.4-.1.1-2.7 1.4h-.1l-2.7 1.4h-.1l-2.7 1.4-.1.1-2.7 1.4h-.1l-2.8 1.5v2.6l2.8-1.4.1-.1 2.7-1.4h.1l2.7-1.4.1-.1 2.7-1.4h.1l2.7-1.4h.1l2.7-1.4.1-.1 2.7-1.4h.1l2.7-1.4v-.1l2.8-1.4v-2.7l-2.8 1.5zm11.1-5.7l-2.8 1.4v2.6l2.8-1.4.1-.1 2.8-1.4v-2.6l-2.8 1.4zm-36.3 26.1l-2.7 1.4h-.1l-2.7 1.4-.1.1-2.7 1.4-2.7 1.4-.1.1-2.7 1.4h-.1L839 273v2.7l2.8-1.5h.1l2.7-1.4h.1l2.7-1.4v-.1l2.7-1.4h.1l2.7-1.4.1-.1 2.7-1.4h.1l2.8-1.5v-2.6l-2.8 1.4zm22.4-11.6l-2.7 1.4-.1.1-2.7 1.4h-.1l-2.7 1.4-.1.1-2.7 1.4h-.1l-2.8 1.5v2.6l2.8-1.4.1-.1 2.7-1.4h.1l2.7-1.4.1-.1 2.7-1.4h.1l2.7-1.4.1-.1 2.7-1.4v-2.6l-2.7 1.4zm19.5-10.1l-2.7 1.4-.1.1-2.7 1.4h-.1l-2.7 1.4-.1.1-2.7 1.4v2.7l2.7-1.5h.1l2.7-1.4.1-.1 2.7-1.4h.1l2.7-1.4.1-.1 2.8-1.4v-2.6l-2.8 1.4zm498.6-125.1l-2.7 1.4-2.7 1.4-.1.1-2.7 1.4h-.1l-2.8 1.4v2.7l2.8-1.5h.1l2.7-1.4h.1l2.7-1.4v-.1l2.7-1.4h.1l2.8-1.5v-2.6l-2.8 1.4zm-19.5 10.1l-2.7 1.4h-.1l-2.7 1.4-.1.1-2.7 1.4h-.1l-2.8 1.4v2.7l2.8-1.5h.1l2.7-1.4h.1l2.7-1.4.1-.1 2.7-1.4h.1l2.8-1.5v-2.6l-2.8 1.4zm-19.5 10.1l-2.8 1.4-2.7 1.4-.1.1-2.7 1.4h-.1l-2.8 1.5v2.6l2.8-1.5h.1l2.7-1.4h.1l2.7-1.4v-.1l2.8-1.4 2.8-1.5v-2.6l-2.8 1.4zm-22.4 14.2l.1-.1 2.7-1.4h.1l2.8-1.5v-2.6l-2.8 1.4-.1.1-2.7 1.4h-.1l-2.8 1.5v2.6zm61.4-41.8l-2.7 1.4-2.7 1.4-.1.1-2.7 1.4h-.1l-2.8 1.5v2.6l2.8-1.4.1-.1 2.7-1.4h.1l2.7-1.4v-.1l2.7-1.4h.1l2.8-1.4v-2.7l-2.8 1.5zm-19.5 10.1l-2.7 1.4h-.1l-2.7 1.4-.1.1-2.7 1.4h-.1l-2.7 1.4-.1.1-2.7 1.4h-.1l-2.7 1.4v.1l-2.7 1.4h-.1l-2.7 1.4h-.1l-2.7 1.4-.1.1-2.7 1.4h-.1l-2.8 1.5v2.6l2.8-1.4.1-.1 2.7-1.4h.1l2.7-1.4.1-.1 2.7-1.4h.1l2.7-1.4 2.7-1.4.1-.1 2.7-1.4h.1l2.7-1.4.1-.1 2.7-1.4h.1l2.7-1.4.1-.1 2.7-1.4h.1l2.8-1.4v-2.7l-2.8 1.5zm19.5-17.5l-2.7 1.4v.1l-2.7 1.4h-.1l-2.7 1.4-.1.1-2.7 1.3-.1.1-2.7 1.4h-.1l-2.7 1.4-.1.1-2.7 1.4h-.1l-2.7 1.4-.1.1-2.8 1.4v2.6l2.8-1.4h.1l2.7-1.4.1-.1 2.7-1.4h.1l2.7-1.4.1-.1 2.7-1.4h.1l2.7-1.4.1-.1 2.7-1.3.1-.1 2.7-1.4 2.7-1.4.1-.1 2.8-1.4v-2.7l-2.8 1.5zm-36.2 18.7v.1l-2.7 1.4h-.1l-2.7 1.4-.1.1-2.8 1.4v2.6l2.8-1.4h.1l2.7-1.4.1-.1 2.7-1.4 2.7-1.4.1-.1 2.8-1.4v-2.6l-2.8 1.4h-.1zm-13.9 7.3l-2.8 1.4h-.1l-2.7 1.4-.1.1-2.8 1.4v2.7l2.8-1.5h.1l2.7-1.4.1-.1 2.8-1.4zm50.1-33.4l-2.7 1.4v.1l-2.7 1.4h-.1l-2.8 1.5v2.6l2.8-1.4.1-.1 2.7-1.4 2.7-1.4.1-.1 2.8-1.4V94l-2.8 1.4zm-30.6 18.5l2.7-1.4h.1l2.7-1.4.1-.1 2.7-1.4h.1l2.7-1.4.1-.1 2.7-1.3.1-.1 2.8-1.4v-2.7l-2.8 1.5h-.1l-2.7 1.4-.1.1-2.7 1.3-.1.1-2.7 1.4h-.1l-2.7 1.4-.1.1-2.7 1.4h-.1l-2.8 1.5v2.6l2.8-1.4zm-14 4.6l-2.7 1.4-.1.1-2.8 1.4v2.7l2.8-1.5h.1l2.7-1.4.1-.1 2.7-1.4 2.8-1.4v-2.7l-2.8 1.5-2.7 1.4zm-16.7 11.3l2.7-1.4h.1l2.8-1.5v-2.6l-2.8 1.4-.1.1-2.7 1.4h-.1l-2.8 1.4v2.7l2.8-1.5zm61.3-41.7l-2.7 1.4-2.7 1.4-.1.1-2.7 1.4h-.1l-2.8 1.4v2.7l2.8-1.5h.1l2.7-1.4h.1l2.7-1.4v-.1l2.7-1.4h.1l2.8-1.5v-2.6l-2.8 1.4zm-38.9 22.8l2.7-1.4v-.1l2.7-1.4h.1l2.7-1.4.1-.1 2.7-1.4h.1l2.7-1.4h.1l2.7-1.4.1-.1 2.7-1.4h.1l2.8-1.5v-2.6l-2.8 1.4-.1.1-2.7 1.4h-.1l-2.7 1.4-.1.1-2.7 1.4h-.1l-2.7 1.4h-.1l-2.7 1.4-.1.1-2.7 1.4-2.7 1.4-.1.1-2.8 1.4v2.7l2.8-1.5zm-11.2 5.7l2.8-1.4v-2.6l-2.8 1.4h-.1l-2.8 1.5v2.6l2.8-1.4zm36.3-26.1l2.7-1.4h.1l2.7-1.4.1-.1 2.7-1.4h.1l2.7-1.4v-.1l2.7-1.4h.1l2.8-1.4v-2.7l-2.8 1.5h-.1l-2.7 1.4-2.7 1.4-.1.1-2.7 1.4h-.1l-2.7 1.4-.1.1-2.7 1.4h-.1l-2.8 1.4V92l2.8-1.5zM1360 102l2.7-1.3.1-.1 2.7-1.4h.1l2.7-1.4.1-.1 2.7-1.4h.1l2.8-1.5v-2.6l-2.8 1.4-.1.1-2.7 1.4h-.1l-2.7 1.4-.1.1-2.7 1.4h-.1l-2.7 1.4v.1l-2.8 1.4v2.6l2.8-1.4zm-19.5 10.1l2.7-1.3.1-.1 2.7-1.4h.1l2.7-1.4.1-.1 2.8-1.4v-2.7l-2.8 1.5h-.1l-2.7 1.4-.1.1-2.7 1.4h-.1l-2.7 1.4-.1.1-2.8 1.4v2.6l2.8-1.4z" fill="#8ceffd"/></svg>