<svg xmlns="http://www.w3.org/2000/svg" viewBox="0 0 103.9 38.3"><path d="M0 0h5.5v25.1H21v4.7H0V0zm28.7 28.5c-1.8-1-3.3-2.4-4.3-4.1-1-1.8-1.5-3.8-1.5-6s.5-4.2 1.5-6c1-1.8 2.5-3.1 4.3-4.1 1.8-1 3.9-1.5 6.2-1.5 2.3 0 4.4.5 6.2 1.5 1.8 1 3.3 2.4 4.3 4.1s1.6 3.8 1.6 6-.5 4.2-1.6 6c-1 1.8-2.5 3.2-4.3 4.1-1.8 1-3.9 1.5-6.2 1.5-2.3 0-4.4-.5-6.2-1.5zm11.1-5c1.3-1.3 1.9-3 1.9-5.1 0-2.1-.6-3.8-1.9-5.1-1.3-1.3-2.9-2-4.8-2-2 0-3.6.7-4.8 2-1.3 1.3-1.9 3-1.9 5.1 0 2.1.6 3.8 1.9 5.1s2.9 2 4.8 2 3.5-.7 4.8-2zM74.6 7v19.2c0 8-4.1 12-12.2 12-2.2 0-4.2-.3-6.2-.8-2-.6-3.6-1.4-4.8-2.4l2.4-4c1 .8 2.2 1.5 3.8 2s3.1.7 4.6.7c2.5 0 4.3-.6 5.5-1.7 1.2-1.1 1.7-2.9 1.7-5.2v-1.2c-.9 1-2 1.7-3.3 2.2-1.3.5-2.7.8-4.3.8-2.2 0-4.1-.5-5.8-1.4s-3.1-2.2-4.1-3.9-1.5-3.6-1.5-5.7.5-4.1 1.5-5.7S54.3 9 56 8.1s3.7-1.4 5.8-1.4c1.6 0 3.1.3 4.5.8s2.5 1.4 3.4 2.5V7h4.9zm-7.1 15.4c1.3-1.2 1.9-2.8 1.9-4.7 0-1.9-.6-3.4-1.9-4.6-1.3-1.2-2.9-1.8-4.9-1.8-2 0-3.7.6-5 1.8-1.3 1.2-1.9 2.7-1.9 4.6 0 1.9.6 3.5 1.9 4.7 1.3 1.2 3 1.8 5 1.8 1.9 0 3.6-.6 4.9-1.8zm18.1 6.1c-1.8-1-3.3-2.4-4.3-4.1-1-1.8-1.5-3.8-1.5-6s.5-4.2 1.5-6c1-1.8 2.5-3.1 4.3-4.1 1.8-1 3.9-1.5 6.2-1.5 2.3 0 4.4.5 6.2 1.5 1.8 1 3.3 2.4 4.3 4.1s1.6 3.8 1.6 6-.5 4.2-1.6 6c-1 1.8-2.5 3.2-4.3 4.1-1.8 1-3.9 1.5-6.2 1.5-2.3 0-4.4-.5-6.2-1.5zm11-5c1.3-1.3 1.9-3 1.9-5.1 0-2.1-.6-3.8-1.9-5.1-1.3-1.3-2.9-2-4.8-2-2 0-3.6.7-4.8 2-1.3 1.3-1.9 3-1.9 5.1 0 2.1.6 3.8 1.9 5.1s2.9 2 4.8 2 3.5-.7 4.8-2z" fill="#fff"/></svg>