<svg width="53" height="62" xmlns="http://www.w3.org/2000/svg"><defs><linearGradient x1="0%" y1="100%" y2="0%" id="a"><stop stop-color="#25C8F1" offset="0%"/><stop stop-color="#25C8F1" stop-opacity="0" offset="100%"/></linearGradient><linearGradient x1="50%" y1="0%" x2="50%" y2="81.675%" id="b"><stop stop-color="#25C8F1" offset="0%"/><stop stop-color="#25C8F1" stop-opacity="0" offset="100%"/></linearGradient></defs><g fill="none"><path fill="url(#a)" d="M24.744 50.302l-1.488-2.604 28-16 1.488 2.604z" transform="translate(0 2)"/><path fill="url(#b)" d="M.734 63.308l-1.468-2.616L23.15 47.287l23.565 12.767-1.43 2.638-22.11-11.98z" transform="translate(0 2)"/><path d="M22.5 2v1.5C5.885 3.5-2.674 22.766 8.67 34.517L22.5 48.84l13.829-14.323C47.674 22.767 39.115 3.5 22.499 3.5V2zm0 0V.5c19.232 0 29.193 22.423 15.987 36.1L22.5 53.16 6.513 36.6C-6.693 22.924 3.268.5 22.5.5V2z" fill="#25C8F1"/><path d="M28.5 22.5a6 6 0 1 0-12 0 6 6 0 0 0 12 0zm3 0a9 9 0 1 1-18 0 9 9 0 0 1 18 0z" fill="#25C8F1"/></g></svg>