<svg width="195" height="160" xmlns="http://www.w3.org/2000/svg" xmlns:xlink="http://www.w3.org/1999/xlink"><defs><path id="b" d="M104.17 12.09l.098 20.294 4.717 2.853-.096-20.293z"/><filter x="-280.4%" y="-58.3%" width="619.2%" height="208%" filterUnits="objectBoundingBox" id="a"><feMorphology radius=".5" in="SourceAlpha" result="shadowSpreadOuter1"/><feOffset dx="-1" dy="-1" in="shadowSpreadOuter1" result="shadowOffsetOuter1"/><feGaussianBlur stdDeviation="4.5" in="shadowOffsetOuter1" result="shadowBlurOuter1"/><feColorMatrix values="0 0 0 0 0.156862745 0 0 0 0 0.921568627 0 0 0 0 1 0 0 0 1 0" in="shadowBlurOuter1"/></filter><path id="d" d="M85.15 21.804l.074 15.38 4.718 2.854-.073-15.38z"/><filter x="-281.8%" y="-74%" width="621.8%" height="237.1%" filterUnits="objectBoundingBox" id="c"><feMorphology radius=".5" in="SourceAlpha" result="shadowSpreadOuter1"/><feOffset dx="-1" dy="-1" in="shadowSpreadOuter1" result="shadowOffsetOuter1"/><feGaussianBlur stdDeviation="4.5" in="shadowOffsetOuter1" result="shadowBlurOuter1"/><feColorMatrix values="0 0 0 0 0.156862745 0 0 0 0 0.921568627 0 0 0 0 1 0 0 0 1 0" in="shadowBlurOuter1"/></filter><path d="M46.416 42.594c-.025-5.352-1.994-9.213-5.146-11.118l-4.717-2.853c3.151 1.906 5.12 5.767 5.144 11.117.003.636-.025 1.279-.076 1.925-.016.214-.049.43-.07.646-.045.424-.092.848-.157 1.276-.1.649-.227 1.3-.374 1.952-.024.102-.038.203-.062.305-.044.188-.104.376-.153.564-.125.488-.25.975-.402 1.46-.049.16-.107.317-.159.474-.158.487-.324.974-.506 1.457-.074.195-.154.39-.23.585-.178.444-.363.887-.557 1.325-.084.188-.166.374-.253.56a37.499 37.499 0 0 1-.78 1.585c-.036.068-.068.138-.106.207a37.06 37.06 0 0 1-.984 1.733c-.1.166-.205.33-.308.495-.256.412-.52.819-.792 1.22a31.17 31.17 0 0 1-.386.564c-.273.387-.555.765-.84 1.14-.136.179-.268.36-.406.534-.28.355-.574.696-.866 1.037-.17.2-.335.408-.51.603-.154.17-.316.33-.472.497-.377.406-.759.809-1.152 1.19-.292.285-.592.555-.892.825-.2.18-.397.367-.6.54-.35.299-.709.578-1.068.855-.172.133-.339.277-.513.404-.365.27-.74.513-1.113.759-.187.124-.369.26-.558.379-.567.352-1.14.679-1.72.975-.423.216-.839.389-1.254.567-.205.088-.413.186-.616.264-.4.155-.792.28-1.183.4-.142.043-.288.1-.43.14-.49.136-.973.238-1.45.319-.078.014-.157.029-.235.04-.345.053-.679.076-1.014.1-.18.014-.364.039-.54.044-.47.013-.93 0-1.38-.042-.075-.008-.147-.025-.22-.032a10.319 10.319 0 0 1-1.077-.184 8.334 8.334 0 0 1-.376-.1 9.387 9.387 0 0 1-.883-.287c-.11-.042-.22-.081-.328-.127a9.12 9.12 0 0 1-1.113-.56l4.72 2.852a8.752 8.752 0 0 0 .941.495c.055.026.115.042.171.067.107.046.217.084.326.126.155.058.303.126.461.178.138.044.284.072.424.11.125.034.248.069.375.099.078.017.151.043.23.059.274.057.56.09.845.124.076.009.147.026.222.032.017.002.032.006.05.007.404.037.818.05 1.241.042.03 0 .06-.006.088-.007.178-.005.361-.03.541-.043.27-.02.533-.026.807-.064.068-.01.138-.025.207-.035l.236-.041c.46-.078.923-.173 1.396-.303.018-.004.036-.012.053-.017.143-.04.29-.096.434-.14.39-.12.781-.245 1.18-.4.203-.078.41-.175.615-.263.267-.115.533-.214.803-.345a23.197 23.197 0 0 0 2.17-1.197c.19-.117.37-.253.556-.376.353-.233.707-.458 1.052-.711l.065-.051c.172-.128.34-.27.51-.401.36-.28.72-.558 1.07-.858.203-.174.4-.36.6-.54.242-.218.49-.427.726-.654.057-.054.11-.116.166-.171a33.12 33.12 0 0 0 1.15-1.187c.132-.141.27-.27.4-.414.026-.028.05-.058.074-.086.175-.197.34-.403.511-.603.247-.29.5-.571.738-.87.043-.054.083-.111.125-.165.141-.177.274-.36.411-.54.197-.258.4-.511.59-.776.085-.118.164-.241.248-.36.13-.186.257-.375.385-.563.118-.174.242-.344.358-.521.15-.23.29-.467.434-.7.103-.165.208-.33.31-.496.048-.081.1-.16.147-.24.282-.476.553-.958.813-1.445l.023-.047c.036-.07.07-.14.106-.208.211-.403.42-.807.615-1.216.057-.122.107-.246.164-.367.087-.187.17-.374.254-.562.088-.198.183-.394.267-.593.102-.242.191-.487.288-.73.078-.196.158-.39.231-.586.036-.096.077-.19.112-.286.143-.388.267-.78.394-1.17.052-.158.11-.316.16-.474.01-.03.021-.061.03-.092.138-.45.25-.902.368-1.354.05-.194.111-.387.157-.58l.01-.033c.02-.09.03-.175.05-.264a28.01 28.01 0 0 0 .375-1.96c.01-.063.028-.126.036-.19.054-.364.082-.724.121-1.086.022-.215.054-.431.071-.645.051-.647.078-1.29.076-1.924" id="f"/><filter x="-39.8%" y="-30.7%" width="173.8%" height="156.9%" filterUnits="objectBoundingBox" id="e"><feMorphology radius=".5" in="SourceAlpha" result="shadowSpreadOuter1"/><feOffset dx="-1" dy="-1" in="shadowSpreadOuter1" result="shadowOffsetOuter1"/><feGaussianBlur stdDeviation="4.5" in="shadowOffsetOuter1" result="shadowBlurOuter1"/><feColorMatrix values="0 0 0 0 0.156862745 0 0 0 0 0.921568627 0 0 0 0 1 0 0 0 1 0" in="shadowBlurOuter1"/></filter><path id="h" d="M111.516 0L48.79 32.027l4.719 2.853 62.725-32.027z"/><filter x="-20%" y="-38.7%" width="137.1%" height="171.7%" filterUnits="objectBoundingBox" id="g"><feMorphology radius=".5" in="SourceAlpha" result="shadowSpreadOuter1"/><feOffset dx="-1" dy="-1" in="shadowSpreadOuter1" result="shadowOffsetOuter1"/><feGaussianBlur stdDeviation="4.5" in="shadowOffsetOuter1" result="shadowBlurOuter1"/><feColorMatrix values="0 0 0 0 0.156862745 0 0 0 0 0.921568627 0 0 0 0 1 0 0 0 1 0" in="shadowBlurOuter1"/></filter><path d="M41.667 20.039c-.026-.016-.054-.026-.08-.042a12.709 12.709 0 0 0-1.062-.555c-.052-.025-.1-.057-.156-.082-.045-.02-.096-.034-.14-.054a13.238 13.238 0 0 0-1.215-.468l-.018-.007c-.022-.007-.047-.011-.07-.019-.4-.126-.81-.23-1.227-.32-.058-.013-.113-.033-.173-.046-.047-.01-.1-.011-.149-.021a14.83 14.83 0 0 0-1.402-.205c-.017-.001-.032-.005-.049-.007-.04-.004-.084-.001-.125-.004-.488-.04-.988-.056-1.494-.051-.057.001-.109-.006-.164-.005l-.122.006c-.146.004-.295.015-.443.023-.208.011-.416.023-.627.042-.155.014-.312.033-.47.051-.135.016-.268.026-.403.044-.062.009-.127.024-.19.033a25.65 25.65 0 0 0-.734.126c-.164.031-.327.059-.492.094-.266.056-.533.123-.8.191-.124.031-.245.054-.369.088-.03.007-.059.018-.09.027-.139.038-.282.084-.423.125-.24.071-.48.143-.723.224-.157.051-.317.11-.475.166-.23.081-.46.164-.693.253-.164.064-.329.131-.494.199a25.173 25.173 0 0 0-1.197.522c-.11.052-.218.097-.329.15a32.207 32.207 0 0 0-1.901.994c-.137.077-.27.162-.406.241-.273.159-.545.317-.815.485-.164.102-.324.21-.486.315-.24.155-.48.308-.719.469-.172.118-.34.241-.51.361-.195.136-.39.269-.585.411l-.058.046c-.655.482-1.3.994-1.937 1.524l-.28.234a44.686 44.686 0 0 0-1.817 1.634c-.05.049-.106.093-.158.142-.078.075-.153.154-.23.229-.24.234-.478.471-.714.711-.155.158-.31.314-.463.473-.246.256-.487.518-.728.781-.106.115-.213.224-.317.339l-.067.079a50.986 50.986 0 0 0-1.678 1.978c-.048.059-.1.114-.147.174-.037.046-.072.095-.109.141a54.581 54.581 0 0 0-1.393 1.835c-.035.048-.073.094-.108.142-.056.077-.107.158-.162.236a53.691 53.691 0 0 0-1.16 1.691c-.03.046-.064.091-.095.138-.009.015-.018.031-.028.045a55.08 55.08 0 0 0-1.124 1.809c-.04.067-.084.133-.124.2-.049.083-.093.168-.14.252-.32.546-.63 1.097-.93 1.653l-.09.16-.024.046a55.69 55.69 0 0 0-.938 1.858c-.032.067-.069.133-.103.202-.04.087-.077.176-.118.263a52.744 52.744 0 0 0-.782 1.737c-.025.058-.055.116-.079.175l-.02.051a52.855 52.855 0 0 0-.796 2.013c-.027.076-.06.151-.088.227-.028.074-.048.149-.076.223-.26.723-.506 1.447-.73 2.173l-.029.086c-.016.054-.028.108-.044.162a45.233 45.233 0 0 0-.71 2.62l-.008.032c-.024.098-.04.196-.064.294-.097.426-.19.853-.274 1.279-.037.19-.068.38-.103.57-.063.35-.124.698-.177 1.046-.014.088-.032.175-.044.262-.012.073-.014.145-.025.219a36.223 36.223 0 0 0-.255 2.315c-.008.097-.01.193-.018.29A32.98 32.98 0 0 0 0 60.986c.037 7.664 2.853 13.192 7.362 15.918l4.718 2.853c-4.51-2.727-7.324-8.254-7.36-15.918-.005-.794.028-1.597.083-2.404.007-.097.01-.194.017-.291.06-.767.147-1.54.256-2.315.024-.16.045-.319.07-.479.053-.349.113-.698.176-1.047.035-.191.067-.38.104-.571.084-.425.176-.852.273-1.279.026-.108.047-.217.072-.325a45.87 45.87 0 0 1 .711-2.621l.072-.246c.223-.727.47-1.451.731-2.174l.164-.45c.251-.674.514-1.346.795-2.013.031-.075.067-.15.1-.226.248-.584.51-1.164.783-1.74a49.72 49.72 0 0 1 1.158-2.319c.037-.07.076-.138.113-.207.3-.557.61-1.108.93-1.654a54.33 54.33 0 0 1 1.389-2.259c.04-.063.083-.124.124-.187.376-.571.764-1.135 1.16-1.69.09-.125.177-.25.267-.374.453-.624.918-1.237 1.395-1.836.084-.107.17-.211.255-.317a51.577 51.577 0 0 1 1.678-1.977c.127-.141.256-.278.384-.418.241-.263.483-.525.73-.781.151-.16.307-.316.461-.473.236-.239.474-.478.714-.711l.388-.371a44.71 44.71 0 0 1 1.817-1.634c.094-.08.187-.156.281-.234a39.917 39.917 0 0 1 1.936-1.524c.214-.157.43-.308.647-.461.17-.119.337-.241.507-.356.24-.164.482-.318.725-.475.16-.102.318-.21.478-.309.273-.17.548-.33.822-.49.134-.079.266-.162.401-.237.41-.232.822-.455 1.238-.667.332-.169.66-.323.99-.476.17-.078.338-.156.506-.23.233-.102.462-.199.692-.293.165-.067.33-.136.494-.199a23.5 23.5 0 0 1 .695-.254c.157-.056.315-.113.472-.165.245-.081.488-.154.731-.226.138-.041.277-.086.415-.124.155-.043.31-.077.464-.115.266-.067.533-.134.796-.19.166-.035.33-.064.494-.094.245-.046.49-.09.731-.126.2-.029.398-.054.596-.077.156-.018.314-.037.47-.051.21-.019.417-.031.625-.042.147-.009.297-.018.443-.023.097-.002.191.001.285 0 .507-.006 1.007.009 1.496.049.056.005.115.006.172.012.478.045.945.116 1.404.204.107.022.215.044.322.068.417.09.828.194 1.228.321.028.009.057.016.085.024a12.75 12.75 0 0 1 1.512.605c.362.17.718.352 1.062.555.043.025.09.046.131.072l-4.718-2.853c-.017-.009-.034-.02-.05-.03" id="j"/><filter x="-29.1%" y="-21.9%" width="153.8%" height="140.6%" filterUnits="objectBoundingBox" id="i"><feMorphology radius=".5" in="SourceAlpha" result="shadowSpreadOuter1"/><feOffset dx="-1" dy="-1" in="shadowSpreadOuter1" result="shadowOffsetOuter1"/><feGaussianBlur stdDeviation="4.5" in="shadowOffsetOuter1" result="shadowBlurOuter1"/><feColorMatrix values="0 0 0 0 0.156862745 0 0 0 0 0.921568627 0 0 0 0 1 0 0 0 1 0" in="shadowBlurOuter1"/></filter><path d="M184 25.38c0-8.008-6.492-18.326-14.5-23.046C161.492-2.386 155 .28 155 8.288c0 4.154 1.75 8.93 4.55 13.224l-3.992 22.796 26.769 15.779-3.858-26.578c3.367-.67 5.531-3.508 5.531-8.129" id="l"/><filter x="-51.7%" y="-25%" width="196.6%" height="146.6%" filterUnits="objectBoundingBox" id="k"><feMorphology radius="1" operator="dilate" in="SourceAlpha" result="shadowSpreadOuter1"/><feOffset dx="-1" dy="-1" in="shadowSpreadOuter1" result="shadowOffsetOuter1"/><feMorphology radius="1" in="SourceAlpha" result="shadowInner"/><feOffset dx="-1" dy="-1" in="shadowInner" result="shadowInner"/><feComposite in="shadowOffsetOuter1" in2="shadowInner" operator="out" result="shadowOffsetOuter1"/><feGaussianBlur stdDeviation="4.5" in="shadowOffsetOuter1" result="shadowBlurOuter1"/><feColorMatrix values="0 0 0 0 0.156862745 0 0 0 0 0.921568627 0 0 0 0 1 0 0 0 1 0" in="shadowBlurOuter1"/></filter></defs><g fill="none" fill-rule="evenodd"><path d="M163.182 100.682L54.66 156.3a13.704 13.704 0 0 1-13.284-.435l-37.163-22.24c-3.048-1.823-2.922-6.28.225-7.928l110.35-57.826a7.633 7.633 0 0 1 7.46.212l41.196 24.65c3.063 1.835 2.916 6.32-.26 7.949z" stroke="#25C8F1" stroke-width="3"/><g transform="translate(31 55)"><use fill="#000" filter="url(#a)" xlink:href="#b"/><use fill="#28EBFF" xlink:href="#b"/></g><g transform="translate(31 55)"><use fill="#000" filter="url(#c)" xlink:href="#d"/><use fill="#28EBFF" xlink:href="#d"/></g><g transform="translate(31 55)"><use fill="#000" filter="url(#e)" xlink:href="#f"/><use fill="#28EBFF" xlink:href="#f"/></g><g transform="translate(31 55)"><use fill="#000" filter="url(#g)" xlink:href="#h"/><use fill="#28EBFF" xlink:href="#h"/></g><g transform="translate(31 55)"><use fill="#000" filter="url(#i)" xlink:href="#j"/><use fill="#28EBFF" xlink:href="#j"/></g><path d="M60.35 125.663c9.46-4.82 17.117-17.414 17.066-28.069-.051-10.649-7.791-15.398-17.252-10.577-9.46 4.82-17.11 17.411-17.06 28.058.053 10.656 7.786 15.408 17.246 10.588M84.51 89.88l62.725-32.028.136 28.621-7.385 3.763-.098-20.293-11.634 5.943.075 15.388-7.387 3.764-.073-15.381-36.332 18.549c-1.751 14.164-11.888 29.53-24.147 35.776-13.53 6.894-24.598.103-24.671-15.143-.073-15.238 10.877-33.248 24.405-40.142 12.3-6.266 22.56-1.225 24.386 11.183" fill="#25C8F1"/><g transform="translate(2 11)"><use fill="#000" filter="url(#k)" xlink:href="#l"/><use stroke="#28EBFF" stroke-width="3" xlink:href="#l"/></g></g></svg>